G04 #@! TF.GenerationSoftware,KiCad,Pcbnew,5.1.5+dfsg1-2~bpo10+1*
G04 #@! TF.CreationDate,2020-09-05T13:32:19+00:00*
G04 #@! TF.ProjectId,corne-top-plate,636f726e-652d-4746-9f70-2d706c617465,2.1*
G04 #@! TF.SameCoordinates,Original*
G04 #@! TF.FileFunction,Legend,Bot*
G04 #@! TF.FilePolarity,Positive*
%FSLAX46Y46*%
G04 Gerber Fmt 4.6, Leading zero omitted, Abs format (unit mm)*
G04 Created by KiCad (PCBNEW 5.1.5+dfsg1-2~bpo10+1) date 2020-09-05 13:32:19*
%MOMM*%
%LPD*%
G04 APERTURE LIST*
%ADD10C,0.125000*%
G04 APERTURE END LIST*
D10*
X117515226Y-121285642D02*
X117562845Y-121333261D01*
X117705702Y-121380880D01*
X117800940Y-121380880D01*
X117943797Y-121333261D01*
X118039035Y-121238023D01*
X118086654Y-121142785D01*
X118134273Y-120952309D01*
X118134273Y-120809452D01*
X118086654Y-120618976D01*
X118039035Y-120523738D01*
X117943797Y-120428500D01*
X117800940Y-120380880D01*
X117705702Y-120380880D01*
X117562845Y-120428500D01*
X117515226Y-120476119D01*
X116943797Y-121380880D02*
X117039035Y-121333261D01*
X117086654Y-121285642D01*
X117134273Y-121190404D01*
X117134273Y-120904690D01*
X117086654Y-120809452D01*
X117039035Y-120761833D01*
X116943797Y-120714214D01*
X116800940Y-120714214D01*
X116705702Y-120761833D01*
X116658083Y-120809452D01*
X116610464Y-120904690D01*
X116610464Y-121190404D01*
X116658083Y-121285642D01*
X116705702Y-121333261D01*
X116800940Y-121380880D01*
X116943797Y-121380880D01*
X116181892Y-121380880D02*
X116181892Y-120714214D01*
X116181892Y-120904690D02*
X116134273Y-120809452D01*
X116086654Y-120761833D01*
X115991416Y-120714214D01*
X115896178Y-120714214D01*
X115562845Y-120714214D02*
X115562845Y-121380880D01*
X115562845Y-120809452D02*
X115515226Y-120761833D01*
X115419988Y-120714214D01*
X115277130Y-120714214D01*
X115181892Y-120761833D01*
X115134273Y-120857071D01*
X115134273Y-121380880D01*
X114277130Y-121333261D02*
X114372369Y-121380880D01*
X114562845Y-121380880D01*
X114658083Y-121333261D01*
X114705702Y-121238023D01*
X114705702Y-120857071D01*
X114658083Y-120761833D01*
X114562845Y-120714214D01*
X114372369Y-120714214D01*
X114277130Y-120761833D01*
X114229511Y-120857071D01*
X114229511Y-120952309D01*
X114705702Y-121047547D01*
X113039035Y-121380880D02*
X113039035Y-120380880D01*
X112467607Y-121380880D02*
X112896178Y-120809452D01*
X112467607Y-120380880D02*
X113039035Y-120952309D01*
X111658083Y-121333261D02*
X111753321Y-121380880D01*
X111943797Y-121380880D01*
X112039035Y-121333261D01*
X112086654Y-121238023D01*
X112086654Y-120857071D01*
X112039035Y-120761833D01*
X111943797Y-120714214D01*
X111753321Y-120714214D01*
X111658083Y-120761833D01*
X111610464Y-120857071D01*
X111610464Y-120952309D01*
X112086654Y-121047547D01*
X111277130Y-120714214D02*
X111039035Y-121380880D01*
X110800940Y-120714214D02*
X111039035Y-121380880D01*
X111134273Y-121618976D01*
X111181892Y-121666595D01*
X111277130Y-121714214D01*
X110419988Y-121380880D02*
X110419988Y-120380880D01*
X110419988Y-120761833D02*
X110324750Y-120714214D01*
X110134273Y-120714214D01*
X110039035Y-120761833D01*
X109991416Y-120809452D01*
X109943797Y-120904690D01*
X109943797Y-121190404D01*
X109991416Y-121285642D01*
X110039035Y-121333261D01*
X110134273Y-121380880D01*
X110324750Y-121380880D01*
X110419988Y-121333261D01*
X109372369Y-121380880D02*
X109467607Y-121333261D01*
X109515226Y-121285642D01*
X109562845Y-121190404D01*
X109562845Y-120904690D01*
X109515226Y-120809452D01*
X109467607Y-120761833D01*
X109372369Y-120714214D01*
X109229511Y-120714214D01*
X109134273Y-120761833D01*
X109086654Y-120809452D01*
X109039035Y-120904690D01*
X109039035Y-121190404D01*
X109086654Y-121285642D01*
X109134273Y-121333261D01*
X109229511Y-121380880D01*
X109372369Y-121380880D01*
X108181892Y-121380880D02*
X108181892Y-120857071D01*
X108229511Y-120761833D01*
X108324750Y-120714214D01*
X108515226Y-120714214D01*
X108610464Y-120761833D01*
X108181892Y-121333261D02*
X108277130Y-121380880D01*
X108515226Y-121380880D01*
X108610464Y-121333261D01*
X108658083Y-121238023D01*
X108658083Y-121142785D01*
X108610464Y-121047547D01*
X108515226Y-120999928D01*
X108277130Y-120999928D01*
X108181892Y-120952309D01*
X107705702Y-121380880D02*
X107705702Y-120714214D01*
X107705702Y-120904690D02*
X107658083Y-120809452D01*
X107610464Y-120761833D01*
X107515226Y-120714214D01*
X107419988Y-120714214D01*
X106658083Y-121380880D02*
X106658083Y-120380880D01*
X106658083Y-121333261D02*
X106753321Y-121380880D01*
X106943797Y-121380880D01*
X107039035Y-121333261D01*
X107086654Y-121285642D01*
X107134273Y-121190404D01*
X107134273Y-120904690D01*
X107086654Y-120809452D01*
X107039035Y-120761833D01*
X106943797Y-120714214D01*
X106753321Y-120714214D01*
X106658083Y-120761833D01*
X118086654Y-123005880D02*
X118086654Y-122005880D01*
X117705702Y-122005880D01*
X117610464Y-122053500D01*
X117562845Y-122101119D01*
X117515226Y-122196357D01*
X117515226Y-122339214D01*
X117562845Y-122434452D01*
X117610464Y-122482071D01*
X117705702Y-122529690D01*
X118086654Y-122529690D01*
X116515226Y-122910642D02*
X116562845Y-122958261D01*
X116705702Y-123005880D01*
X116800940Y-123005880D01*
X116943797Y-122958261D01*
X117039035Y-122863023D01*
X117086654Y-122767785D01*
X117134273Y-122577309D01*
X117134273Y-122434452D01*
X117086654Y-122243976D01*
X117039035Y-122148738D01*
X116943797Y-122053500D01*
X116800940Y-122005880D01*
X116705702Y-122005880D01*
X116562845Y-122053500D01*
X116515226Y-122101119D01*
X115753321Y-122482071D02*
X115610464Y-122529690D01*
X115562845Y-122577309D01*
X115515226Y-122672547D01*
X115515226Y-122815404D01*
X115562845Y-122910642D01*
X115610464Y-122958261D01*
X115705702Y-123005880D01*
X116086654Y-123005880D01*
X116086654Y-122005880D01*
X115753321Y-122005880D01*
X115658083Y-122053500D01*
X115610464Y-122101119D01*
X115562845Y-122196357D01*
X115562845Y-122291595D01*
X115610464Y-122386833D01*
X115658083Y-122434452D01*
X115753321Y-122482071D01*
X116086654Y-122482071D01*
X114324750Y-123005880D02*
X114324750Y-122005880D01*
X114086654Y-122005880D01*
X113943797Y-122053500D01*
X113848559Y-122148738D01*
X113800940Y-122243976D01*
X113753321Y-122434452D01*
X113753321Y-122577309D01*
X113800940Y-122767785D01*
X113848559Y-122863023D01*
X113943797Y-122958261D01*
X114086654Y-123005880D01*
X114324750Y-123005880D01*
X112943797Y-122958261D02*
X113039035Y-123005880D01*
X113229511Y-123005880D01*
X113324750Y-122958261D01*
X113372369Y-122863023D01*
X113372369Y-122482071D01*
X113324750Y-122386833D01*
X113229511Y-122339214D01*
X113039035Y-122339214D01*
X112943797Y-122386833D01*
X112896178Y-122482071D01*
X112896178Y-122577309D01*
X113372369Y-122672547D01*
X112515226Y-122958261D02*
X112419988Y-123005880D01*
X112229511Y-123005880D01*
X112134273Y-122958261D01*
X112086654Y-122863023D01*
X112086654Y-122815404D01*
X112134273Y-122720166D01*
X112229511Y-122672547D01*
X112372369Y-122672547D01*
X112467607Y-122624928D01*
X112515226Y-122529690D01*
X112515226Y-122482071D01*
X112467607Y-122386833D01*
X112372369Y-122339214D01*
X112229511Y-122339214D01*
X112134273Y-122386833D01*
X111658083Y-123005880D02*
X111658083Y-122339214D01*
X111658083Y-122005880D02*
X111705702Y-122053500D01*
X111658083Y-122101119D01*
X111610464Y-122053500D01*
X111658083Y-122005880D01*
X111658083Y-122101119D01*
X110753321Y-122339214D02*
X110753321Y-123148738D01*
X110800940Y-123243976D01*
X110848559Y-123291595D01*
X110943797Y-123339214D01*
X111086654Y-123339214D01*
X111181892Y-123291595D01*
X110753321Y-122958261D02*
X110848559Y-123005880D01*
X111039035Y-123005880D01*
X111134273Y-122958261D01*
X111181892Y-122910642D01*
X111229511Y-122815404D01*
X111229511Y-122529690D01*
X111181892Y-122434452D01*
X111134273Y-122386833D01*
X111039035Y-122339214D01*
X110848559Y-122339214D01*
X110753321Y-122386833D01*
X110277130Y-122339214D02*
X110277130Y-123005880D01*
X110277130Y-122434452D02*
X110229511Y-122386833D01*
X110134273Y-122339214D01*
X109991416Y-122339214D01*
X109896178Y-122386833D01*
X109848559Y-122482071D01*
X109848559Y-123005880D01*
X108991416Y-122958261D02*
X109086654Y-123005880D01*
X109277130Y-123005880D01*
X109372369Y-122958261D01*
X109419988Y-122863023D01*
X109419988Y-122482071D01*
X109372369Y-122386833D01*
X109277130Y-122339214D01*
X109086654Y-122339214D01*
X108991416Y-122386833D01*
X108943797Y-122482071D01*
X108943797Y-122577309D01*
X109419988Y-122672547D01*
X108086654Y-123005880D02*
X108086654Y-122005880D01*
X108086654Y-122958261D02*
X108181892Y-123005880D01*
X108372369Y-123005880D01*
X108467607Y-122958261D01*
X108515226Y-122910642D01*
X108562845Y-122815404D01*
X108562845Y-122529690D01*
X108515226Y-122434452D01*
X108467607Y-122386833D01*
X108372369Y-122339214D01*
X108181892Y-122339214D01*
X108086654Y-122386833D01*
X106848559Y-123005880D02*
X106848559Y-122005880D01*
X106848559Y-122386833D02*
X106753321Y-122339214D01*
X106562845Y-122339214D01*
X106467607Y-122386833D01*
X106419988Y-122434452D01*
X106372369Y-122529690D01*
X106372369Y-122815404D01*
X106419988Y-122910642D01*
X106467607Y-122958261D01*
X106562845Y-123005880D01*
X106753321Y-123005880D01*
X106848559Y-122958261D01*
X106039035Y-122339214D02*
X105800940Y-123005880D01*
X105562845Y-122339214D02*
X105800940Y-123005880D01*
X105896178Y-123243976D01*
X105943797Y-123291595D01*
X106039035Y-123339214D01*
X104562845Y-122339214D02*
X104181892Y-122339214D01*
X104419988Y-123005880D02*
X104419988Y-122148738D01*
X104372369Y-122053500D01*
X104277130Y-122005880D01*
X104181892Y-122005880D01*
X103705702Y-123005880D02*
X103800940Y-122958261D01*
X103848559Y-122910642D01*
X103896178Y-122815404D01*
X103896178Y-122529690D01*
X103848559Y-122434452D01*
X103800940Y-122386833D01*
X103705702Y-122339214D01*
X103562845Y-122339214D01*
X103467607Y-122386833D01*
X103419988Y-122434452D01*
X103372369Y-122529690D01*
X103372369Y-122815404D01*
X103419988Y-122910642D01*
X103467607Y-122958261D01*
X103562845Y-123005880D01*
X103705702Y-123005880D01*
X102800940Y-123005880D02*
X102896178Y-122958261D01*
X102943797Y-122910642D01*
X102991416Y-122815404D01*
X102991416Y-122529690D01*
X102943797Y-122434452D01*
X102896178Y-122386833D01*
X102800940Y-122339214D01*
X102658083Y-122339214D01*
X102562845Y-122386833D01*
X102515226Y-122434452D01*
X102467607Y-122529690D01*
X102467607Y-122815404D01*
X102515226Y-122910642D01*
X102562845Y-122958261D01*
X102658083Y-123005880D01*
X102800940Y-123005880D01*
X102086654Y-122958261D02*
X101991416Y-123005880D01*
X101800940Y-123005880D01*
X101705702Y-122958261D01*
X101658083Y-122863023D01*
X101658083Y-122815404D01*
X101705702Y-122720166D01*
X101800940Y-122672547D01*
X101943797Y-122672547D01*
X102039035Y-122624928D01*
X102086654Y-122529690D01*
X102086654Y-122482071D01*
X102039035Y-122386833D01*
X101943797Y-122339214D01*
X101800940Y-122339214D01*
X101705702Y-122386833D01*
X101372369Y-122339214D02*
X100991416Y-122339214D01*
X101229511Y-122005880D02*
X101229511Y-122863023D01*
X101181892Y-122958261D01*
X101086654Y-123005880D01*
X100991416Y-123005880D01*
X100229511Y-123005880D02*
X100229511Y-122482071D01*
X100277130Y-122386833D01*
X100372369Y-122339214D01*
X100562845Y-122339214D01*
X100658083Y-122386833D01*
X100229511Y-122958261D02*
X100324750Y-123005880D01*
X100562845Y-123005880D01*
X100658083Y-122958261D01*
X100705702Y-122863023D01*
X100705702Y-122767785D01*
X100658083Y-122672547D01*
X100562845Y-122624928D01*
X100324750Y-122624928D01*
X100229511Y-122577309D01*
X99753321Y-122339214D02*
X99753321Y-123005880D01*
X99753321Y-122434452D02*
X99705702Y-122386833D01*
X99610464Y-122339214D01*
X99467607Y-122339214D01*
X99372369Y-122386833D01*
X99324750Y-122482071D01*
X99324750Y-123005880D01*
M02*
