G04 #@! TF.GenerationSoftware,KiCad,Pcbnew,5.1.5+dfsg1-2~bpo10+1*
G04 #@! TF.CreationDate,2020-09-05T13:32:19+00:00*
G04 #@! TF.ProjectId,corne-top-plate,636f726e-652d-4746-9f70-2d706c617465,2.1*
G04 #@! TF.SameCoordinates,Original*
G04 #@! TF.FileFunction,Legend,Top*
G04 #@! TF.FilePolarity,Positive*
%FSLAX46Y46*%
G04 Gerber Fmt 4.6, Leading zero omitted, Abs format (unit mm)*
G04 Created by KiCad (PCBNEW 5.1.5+dfsg1-2~bpo10+1) date 2020-09-05 13:32:19*
%MOMM*%
%LPD*%
G04 APERTURE LIST*
%ADD10C,0.125000*%
%ADD11C,0.150000*%
G04 APERTURE END LIST*
D10*
X99926773Y-121285642D02*
X99879154Y-121333261D01*
X99736297Y-121380880D01*
X99641059Y-121380880D01*
X99498202Y-121333261D01*
X99402964Y-121238023D01*
X99355345Y-121142785D01*
X99307726Y-120952309D01*
X99307726Y-120809452D01*
X99355345Y-120618976D01*
X99402964Y-120523738D01*
X99498202Y-120428500D01*
X99641059Y-120380880D01*
X99736297Y-120380880D01*
X99879154Y-120428500D01*
X99926773Y-120476119D01*
X100498202Y-121380880D02*
X100402964Y-121333261D01*
X100355345Y-121285642D01*
X100307726Y-121190404D01*
X100307726Y-120904690D01*
X100355345Y-120809452D01*
X100402964Y-120761833D01*
X100498202Y-120714214D01*
X100641059Y-120714214D01*
X100736297Y-120761833D01*
X100783916Y-120809452D01*
X100831535Y-120904690D01*
X100831535Y-121190404D01*
X100783916Y-121285642D01*
X100736297Y-121333261D01*
X100641059Y-121380880D01*
X100498202Y-121380880D01*
X101260107Y-121380880D02*
X101260107Y-120714214D01*
X101260107Y-120904690D02*
X101307726Y-120809452D01*
X101355345Y-120761833D01*
X101450583Y-120714214D01*
X101545821Y-120714214D01*
X101879154Y-120714214D02*
X101879154Y-121380880D01*
X101879154Y-120809452D02*
X101926773Y-120761833D01*
X102022011Y-120714214D01*
X102164869Y-120714214D01*
X102260107Y-120761833D01*
X102307726Y-120857071D01*
X102307726Y-121380880D01*
X103164869Y-121333261D02*
X103069630Y-121380880D01*
X102879154Y-121380880D01*
X102783916Y-121333261D01*
X102736297Y-121238023D01*
X102736297Y-120857071D01*
X102783916Y-120761833D01*
X102879154Y-120714214D01*
X103069630Y-120714214D01*
X103164869Y-120761833D01*
X103212488Y-120857071D01*
X103212488Y-120952309D01*
X102736297Y-121047547D01*
X104402964Y-121380880D02*
X104402964Y-120380880D01*
X104974392Y-121380880D02*
X104545821Y-120809452D01*
X104974392Y-120380880D02*
X104402964Y-120952309D01*
X105783916Y-121333261D02*
X105688678Y-121380880D01*
X105498202Y-121380880D01*
X105402964Y-121333261D01*
X105355345Y-121238023D01*
X105355345Y-120857071D01*
X105402964Y-120761833D01*
X105498202Y-120714214D01*
X105688678Y-120714214D01*
X105783916Y-120761833D01*
X105831535Y-120857071D01*
X105831535Y-120952309D01*
X105355345Y-121047547D01*
X106164869Y-120714214D02*
X106402964Y-121380880D01*
X106641059Y-120714214D02*
X106402964Y-121380880D01*
X106307726Y-121618976D01*
X106260107Y-121666595D01*
X106164869Y-121714214D01*
X107022011Y-121380880D02*
X107022011Y-120380880D01*
X107022011Y-120761833D02*
X107117250Y-120714214D01*
X107307726Y-120714214D01*
X107402964Y-120761833D01*
X107450583Y-120809452D01*
X107498202Y-120904690D01*
X107498202Y-121190404D01*
X107450583Y-121285642D01*
X107402964Y-121333261D01*
X107307726Y-121380880D01*
X107117250Y-121380880D01*
X107022011Y-121333261D01*
X108069630Y-121380880D02*
X107974392Y-121333261D01*
X107926773Y-121285642D01*
X107879154Y-121190404D01*
X107879154Y-120904690D01*
X107926773Y-120809452D01*
X107974392Y-120761833D01*
X108069630Y-120714214D01*
X108212488Y-120714214D01*
X108307726Y-120761833D01*
X108355345Y-120809452D01*
X108402964Y-120904690D01*
X108402964Y-121190404D01*
X108355345Y-121285642D01*
X108307726Y-121333261D01*
X108212488Y-121380880D01*
X108069630Y-121380880D01*
X109260107Y-121380880D02*
X109260107Y-120857071D01*
X109212488Y-120761833D01*
X109117250Y-120714214D01*
X108926773Y-120714214D01*
X108831535Y-120761833D01*
X109260107Y-121333261D02*
X109164869Y-121380880D01*
X108926773Y-121380880D01*
X108831535Y-121333261D01*
X108783916Y-121238023D01*
X108783916Y-121142785D01*
X108831535Y-121047547D01*
X108926773Y-120999928D01*
X109164869Y-120999928D01*
X109260107Y-120952309D01*
X109736297Y-121380880D02*
X109736297Y-120714214D01*
X109736297Y-120904690D02*
X109783916Y-120809452D01*
X109831535Y-120761833D01*
X109926773Y-120714214D01*
X110022011Y-120714214D01*
X110783916Y-121380880D02*
X110783916Y-120380880D01*
X110783916Y-121333261D02*
X110688678Y-121380880D01*
X110498202Y-121380880D01*
X110402964Y-121333261D01*
X110355345Y-121285642D01*
X110307726Y-121190404D01*
X110307726Y-120904690D01*
X110355345Y-120809452D01*
X110402964Y-120761833D01*
X110498202Y-120714214D01*
X110688678Y-120714214D01*
X110783916Y-120761833D01*
X99355345Y-123005880D02*
X99355345Y-122005880D01*
X99736297Y-122005880D01*
X99831535Y-122053500D01*
X99879154Y-122101119D01*
X99926773Y-122196357D01*
X99926773Y-122339214D01*
X99879154Y-122434452D01*
X99831535Y-122482071D01*
X99736297Y-122529690D01*
X99355345Y-122529690D01*
X100926773Y-122910642D02*
X100879154Y-122958261D01*
X100736297Y-123005880D01*
X100641059Y-123005880D01*
X100498202Y-122958261D01*
X100402964Y-122863023D01*
X100355345Y-122767785D01*
X100307726Y-122577309D01*
X100307726Y-122434452D01*
X100355345Y-122243976D01*
X100402964Y-122148738D01*
X100498202Y-122053500D01*
X100641059Y-122005880D01*
X100736297Y-122005880D01*
X100879154Y-122053500D01*
X100926773Y-122101119D01*
X101688678Y-122482071D02*
X101831535Y-122529690D01*
X101879154Y-122577309D01*
X101926773Y-122672547D01*
X101926773Y-122815404D01*
X101879154Y-122910642D01*
X101831535Y-122958261D01*
X101736297Y-123005880D01*
X101355345Y-123005880D01*
X101355345Y-122005880D01*
X101688678Y-122005880D01*
X101783916Y-122053500D01*
X101831535Y-122101119D01*
X101879154Y-122196357D01*
X101879154Y-122291595D01*
X101831535Y-122386833D01*
X101783916Y-122434452D01*
X101688678Y-122482071D01*
X101355345Y-122482071D01*
X103117250Y-123005880D02*
X103117250Y-122005880D01*
X103355345Y-122005880D01*
X103498202Y-122053500D01*
X103593440Y-122148738D01*
X103641059Y-122243976D01*
X103688678Y-122434452D01*
X103688678Y-122577309D01*
X103641059Y-122767785D01*
X103593440Y-122863023D01*
X103498202Y-122958261D01*
X103355345Y-123005880D01*
X103117250Y-123005880D01*
X104498202Y-122958261D02*
X104402964Y-123005880D01*
X104212488Y-123005880D01*
X104117250Y-122958261D01*
X104069630Y-122863023D01*
X104069630Y-122482071D01*
X104117250Y-122386833D01*
X104212488Y-122339214D01*
X104402964Y-122339214D01*
X104498202Y-122386833D01*
X104545821Y-122482071D01*
X104545821Y-122577309D01*
X104069630Y-122672547D01*
X104926773Y-122958261D02*
X105022011Y-123005880D01*
X105212488Y-123005880D01*
X105307726Y-122958261D01*
X105355345Y-122863023D01*
X105355345Y-122815404D01*
X105307726Y-122720166D01*
X105212488Y-122672547D01*
X105069630Y-122672547D01*
X104974392Y-122624928D01*
X104926773Y-122529690D01*
X104926773Y-122482071D01*
X104974392Y-122386833D01*
X105069630Y-122339214D01*
X105212488Y-122339214D01*
X105307726Y-122386833D01*
X105783916Y-123005880D02*
X105783916Y-122339214D01*
X105783916Y-122005880D02*
X105736297Y-122053500D01*
X105783916Y-122101119D01*
X105831535Y-122053500D01*
X105783916Y-122005880D01*
X105783916Y-122101119D01*
X106688678Y-122339214D02*
X106688678Y-123148738D01*
X106641059Y-123243976D01*
X106593440Y-123291595D01*
X106498202Y-123339214D01*
X106355345Y-123339214D01*
X106260107Y-123291595D01*
X106688678Y-122958261D02*
X106593440Y-123005880D01*
X106402964Y-123005880D01*
X106307726Y-122958261D01*
X106260107Y-122910642D01*
X106212488Y-122815404D01*
X106212488Y-122529690D01*
X106260107Y-122434452D01*
X106307726Y-122386833D01*
X106402964Y-122339214D01*
X106593440Y-122339214D01*
X106688678Y-122386833D01*
X107164869Y-122339214D02*
X107164869Y-123005880D01*
X107164869Y-122434452D02*
X107212488Y-122386833D01*
X107307726Y-122339214D01*
X107450583Y-122339214D01*
X107545821Y-122386833D01*
X107593440Y-122482071D01*
X107593440Y-123005880D01*
X108450583Y-122958261D02*
X108355345Y-123005880D01*
X108164869Y-123005880D01*
X108069630Y-122958261D01*
X108022011Y-122863023D01*
X108022011Y-122482071D01*
X108069630Y-122386833D01*
X108164869Y-122339214D01*
X108355345Y-122339214D01*
X108450583Y-122386833D01*
X108498202Y-122482071D01*
X108498202Y-122577309D01*
X108022011Y-122672547D01*
X109355345Y-123005880D02*
X109355345Y-122005880D01*
X109355345Y-122958261D02*
X109260107Y-123005880D01*
X109069630Y-123005880D01*
X108974392Y-122958261D01*
X108926773Y-122910642D01*
X108879154Y-122815404D01*
X108879154Y-122529690D01*
X108926773Y-122434452D01*
X108974392Y-122386833D01*
X109069630Y-122339214D01*
X109260107Y-122339214D01*
X109355345Y-122386833D01*
X110593440Y-123005880D02*
X110593440Y-122005880D01*
X110593440Y-122386833D02*
X110688678Y-122339214D01*
X110879154Y-122339214D01*
X110974392Y-122386833D01*
X111022011Y-122434452D01*
X111069630Y-122529690D01*
X111069630Y-122815404D01*
X111022011Y-122910642D01*
X110974392Y-122958261D01*
X110879154Y-123005880D01*
X110688678Y-123005880D01*
X110593440Y-122958261D01*
X111402964Y-122339214D02*
X111641059Y-123005880D01*
X111879154Y-122339214D02*
X111641059Y-123005880D01*
X111545821Y-123243976D01*
X111498202Y-123291595D01*
X111402964Y-123339214D01*
X112879154Y-122339214D02*
X113260107Y-122339214D01*
X113022011Y-123005880D02*
X113022011Y-122148738D01*
X113069630Y-122053500D01*
X113164869Y-122005880D01*
X113260107Y-122005880D01*
X113736297Y-123005880D02*
X113641059Y-122958261D01*
X113593440Y-122910642D01*
X113545821Y-122815404D01*
X113545821Y-122529690D01*
X113593440Y-122434452D01*
X113641059Y-122386833D01*
X113736297Y-122339214D01*
X113879154Y-122339214D01*
X113974392Y-122386833D01*
X114022011Y-122434452D01*
X114069630Y-122529690D01*
X114069630Y-122815404D01*
X114022011Y-122910642D01*
X113974392Y-122958261D01*
X113879154Y-123005880D01*
X113736297Y-123005880D01*
X114641059Y-123005880D02*
X114545821Y-122958261D01*
X114498202Y-122910642D01*
X114450583Y-122815404D01*
X114450583Y-122529690D01*
X114498202Y-122434452D01*
X114545821Y-122386833D01*
X114641059Y-122339214D01*
X114783916Y-122339214D01*
X114879154Y-122386833D01*
X114926773Y-122434452D01*
X114974392Y-122529690D01*
X114974392Y-122815404D01*
X114926773Y-122910642D01*
X114879154Y-122958261D01*
X114783916Y-123005880D01*
X114641059Y-123005880D01*
X115355345Y-122958261D02*
X115450583Y-123005880D01*
X115641059Y-123005880D01*
X115736297Y-122958261D01*
X115783916Y-122863023D01*
X115783916Y-122815404D01*
X115736297Y-122720166D01*
X115641059Y-122672547D01*
X115498202Y-122672547D01*
X115402964Y-122624928D01*
X115355345Y-122529690D01*
X115355345Y-122482071D01*
X115402964Y-122386833D01*
X115498202Y-122339214D01*
X115641059Y-122339214D01*
X115736297Y-122386833D01*
X116069630Y-122339214D02*
X116450583Y-122339214D01*
X116212488Y-122005880D02*
X116212488Y-122863023D01*
X116260107Y-122958261D01*
X116355345Y-123005880D01*
X116450583Y-123005880D01*
X117212488Y-123005880D02*
X117212488Y-122482071D01*
X117164869Y-122386833D01*
X117069630Y-122339214D01*
X116879154Y-122339214D01*
X116783916Y-122386833D01*
X117212488Y-122958261D02*
X117117250Y-123005880D01*
X116879154Y-123005880D01*
X116783916Y-122958261D01*
X116736297Y-122863023D01*
X116736297Y-122767785D01*
X116783916Y-122672547D01*
X116879154Y-122624928D01*
X117117250Y-122624928D01*
X117212488Y-122577309D01*
X117688678Y-122339214D02*
X117688678Y-123005880D01*
X117688678Y-122434452D02*
X117736297Y-122386833D01*
X117831535Y-122339214D01*
X117974392Y-122339214D01*
X118069630Y-122386833D01*
X118117250Y-122482071D01*
X118117250Y-123005880D01*
D11*
M02*
