G04 #@! TF.GenerationSoftware,KiCad,Pcbnew,5.1.5+dfsg1-2~bpo10+1*
G04 #@! TF.CreationDate,2020-09-05T13:18:24+00:00*
G04 #@! TF.ProjectId,corne-bottom-plate,636f726e-652d-4626-9f74-746f6d2d706c,2.1*
G04 #@! TF.SameCoordinates,Original*
G04 #@! TF.FileFunction,Soldermask,Top*
G04 #@! TF.FilePolarity,Negative*
%FSLAX46Y46*%
G04 Gerber Fmt 4.6, Leading zero omitted, Abs format (unit mm)*
G04 Created by KiCad (PCBNEW 5.1.5+dfsg1-2~bpo10+1) date 2020-09-05 13:18:24*
%MOMM*%
%LPD*%
G04 APERTURE LIST*
%ADD10C,0.010000*%
%ADD11C,4.400000*%
G04 APERTURE END LIST*
D10*
G36*
X97836867Y-116836010D02*
G01*
X98047039Y-116856224D01*
X98241596Y-116889621D01*
X98421852Y-116936675D01*
X98589119Y-116997862D01*
X98744712Y-117073655D01*
X98889943Y-117164531D01*
X99016428Y-117262629D01*
X99139501Y-117381357D01*
X99250477Y-117516844D01*
X99348876Y-117668159D01*
X99434221Y-117834368D01*
X99506030Y-118014538D01*
X99563827Y-118207737D01*
X99607131Y-118413031D01*
X99607154Y-118413166D01*
X99614074Y-118454173D01*
X99620309Y-118492473D01*
X99625893Y-118529331D01*
X99630863Y-118566007D01*
X99635255Y-118603766D01*
X99639104Y-118643870D01*
X99642445Y-118687582D01*
X99645316Y-118736165D01*
X99647752Y-118790880D01*
X99649787Y-118852993D01*
X99651459Y-118923764D01*
X99652803Y-119004457D01*
X99653855Y-119096334D01*
X99654650Y-119200659D01*
X99655225Y-119318695D01*
X99655615Y-119451703D01*
X99655856Y-119600947D01*
X99655983Y-119767689D01*
X99656033Y-119953193D01*
X99656041Y-120138250D01*
X99656041Y-121487625D01*
X99246409Y-121490394D01*
X98836778Y-121493164D01*
X98833143Y-120098686D01*
X98832614Y-119898412D01*
X98832114Y-119718132D01*
X98831622Y-119556673D01*
X98831118Y-119412864D01*
X98830582Y-119285532D01*
X98829993Y-119173505D01*
X98829331Y-119075609D01*
X98828577Y-118990674D01*
X98827710Y-118917525D01*
X98826709Y-118854991D01*
X98825555Y-118801899D01*
X98824228Y-118757078D01*
X98822707Y-118719354D01*
X98820972Y-118687555D01*
X98819003Y-118660508D01*
X98816779Y-118637042D01*
X98814282Y-118615984D01*
X98811489Y-118596161D01*
X98808382Y-118576401D01*
X98806778Y-118566625D01*
X98779832Y-118424536D01*
X98748446Y-118300361D01*
X98711439Y-118191101D01*
X98667631Y-118093756D01*
X98615843Y-118005326D01*
X98554893Y-117922811D01*
X98552174Y-117919502D01*
X98463395Y-117828363D01*
X98358668Y-117750356D01*
X98238882Y-117685787D01*
X98104925Y-117634961D01*
X97957687Y-117598183D01*
X97798056Y-117575759D01*
X97626922Y-117567994D01*
X97534083Y-117569834D01*
X97362416Y-117584583D01*
X97204586Y-117614557D01*
X97059134Y-117660349D01*
X96924597Y-117722556D01*
X96799514Y-117801775D01*
X96682424Y-117898600D01*
X96649077Y-117930732D01*
X96554431Y-118035294D01*
X96473852Y-118147353D01*
X96405919Y-118269638D01*
X96349211Y-118404877D01*
X96302307Y-118555801D01*
X96283004Y-118633984D01*
X96279632Y-118648924D01*
X96276596Y-118663526D01*
X96273874Y-118678941D01*
X96271443Y-118696322D01*
X96269280Y-118716819D01*
X96267364Y-118741585D01*
X96265670Y-118771771D01*
X96264176Y-118808528D01*
X96262861Y-118853010D01*
X96261700Y-118906367D01*
X96260672Y-118969751D01*
X96259754Y-119044313D01*
X96258923Y-119131206D01*
X96258156Y-119231581D01*
X96257431Y-119346590D01*
X96256725Y-119477384D01*
X96256016Y-119625116D01*
X96255280Y-119790936D01*
X96254496Y-119975997D01*
X96253930Y-120111791D01*
X96248208Y-121487625D01*
X95832812Y-121490393D01*
X95417416Y-121493162D01*
X95417416Y-116899750D01*
X96253500Y-116899750D01*
X96253500Y-117164333D01*
X96253676Y-117251555D01*
X96254456Y-117319275D01*
X96256217Y-117369152D01*
X96259337Y-117402850D01*
X96264192Y-117422031D01*
X96271160Y-117428356D01*
X96280618Y-117423488D01*
X96292943Y-117409088D01*
X96305127Y-117391813D01*
X96336800Y-117351580D01*
X96381544Y-117303179D01*
X96435091Y-117250586D01*
X96493175Y-117197776D01*
X96551531Y-117148726D01*
X96605890Y-117107409D01*
X96622961Y-117095658D01*
X96714251Y-117038800D01*
X96802661Y-116992751D01*
X96896142Y-116953804D01*
X97002650Y-116918252D01*
X97005318Y-116917444D01*
X97171008Y-116876150D01*
X97350308Y-116847831D01*
X97539855Y-116832816D01*
X97736285Y-116831433D01*
X97836867Y-116836010D01*
G37*
X97836867Y-116836010D02*
X98047039Y-116856224D01*
X98241596Y-116889621D01*
X98421852Y-116936675D01*
X98589119Y-116997862D01*
X98744712Y-117073655D01*
X98889943Y-117164531D01*
X99016428Y-117262629D01*
X99139501Y-117381357D01*
X99250477Y-117516844D01*
X99348876Y-117668159D01*
X99434221Y-117834368D01*
X99506030Y-118014538D01*
X99563827Y-118207737D01*
X99607131Y-118413031D01*
X99607154Y-118413166D01*
X99614074Y-118454173D01*
X99620309Y-118492473D01*
X99625893Y-118529331D01*
X99630863Y-118566007D01*
X99635255Y-118603766D01*
X99639104Y-118643870D01*
X99642445Y-118687582D01*
X99645316Y-118736165D01*
X99647752Y-118790880D01*
X99649787Y-118852993D01*
X99651459Y-118923764D01*
X99652803Y-119004457D01*
X99653855Y-119096334D01*
X99654650Y-119200659D01*
X99655225Y-119318695D01*
X99655615Y-119451703D01*
X99655856Y-119600947D01*
X99655983Y-119767689D01*
X99656033Y-119953193D01*
X99656041Y-120138250D01*
X99656041Y-121487625D01*
X99246409Y-121490394D01*
X98836778Y-121493164D01*
X98833143Y-120098686D01*
X98832614Y-119898412D01*
X98832114Y-119718132D01*
X98831622Y-119556673D01*
X98831118Y-119412864D01*
X98830582Y-119285532D01*
X98829993Y-119173505D01*
X98829331Y-119075609D01*
X98828577Y-118990674D01*
X98827710Y-118917525D01*
X98826709Y-118854991D01*
X98825555Y-118801899D01*
X98824228Y-118757078D01*
X98822707Y-118719354D01*
X98820972Y-118687555D01*
X98819003Y-118660508D01*
X98816779Y-118637042D01*
X98814282Y-118615984D01*
X98811489Y-118596161D01*
X98808382Y-118576401D01*
X98806778Y-118566625D01*
X98779832Y-118424536D01*
X98748446Y-118300361D01*
X98711439Y-118191101D01*
X98667631Y-118093756D01*
X98615843Y-118005326D01*
X98554893Y-117922811D01*
X98552174Y-117919502D01*
X98463395Y-117828363D01*
X98358668Y-117750356D01*
X98238882Y-117685787D01*
X98104925Y-117634961D01*
X97957687Y-117598183D01*
X97798056Y-117575759D01*
X97626922Y-117567994D01*
X97534083Y-117569834D01*
X97362416Y-117584583D01*
X97204586Y-117614557D01*
X97059134Y-117660349D01*
X96924597Y-117722556D01*
X96799514Y-117801775D01*
X96682424Y-117898600D01*
X96649077Y-117930732D01*
X96554431Y-118035294D01*
X96473852Y-118147353D01*
X96405919Y-118269638D01*
X96349211Y-118404877D01*
X96302307Y-118555801D01*
X96283004Y-118633984D01*
X96279632Y-118648924D01*
X96276596Y-118663526D01*
X96273874Y-118678941D01*
X96271443Y-118696322D01*
X96269280Y-118716819D01*
X96267364Y-118741585D01*
X96265670Y-118771771D01*
X96264176Y-118808528D01*
X96262861Y-118853010D01*
X96261700Y-118906367D01*
X96260672Y-118969751D01*
X96259754Y-119044313D01*
X96258923Y-119131206D01*
X96258156Y-119231581D01*
X96257431Y-119346590D01*
X96256725Y-119477384D01*
X96256016Y-119625116D01*
X96255280Y-119790936D01*
X96254496Y-119975997D01*
X96253930Y-120111791D01*
X96248208Y-121487625D01*
X95832812Y-121490393D01*
X95417416Y-121493162D01*
X95417416Y-116899750D01*
X96253500Y-116899750D01*
X96253500Y-117164333D01*
X96253676Y-117251555D01*
X96254456Y-117319275D01*
X96256217Y-117369152D01*
X96259337Y-117402850D01*
X96264192Y-117422031D01*
X96271160Y-117428356D01*
X96280618Y-117423488D01*
X96292943Y-117409088D01*
X96305127Y-117391813D01*
X96336800Y-117351580D01*
X96381544Y-117303179D01*
X96435091Y-117250586D01*
X96493175Y-117197776D01*
X96551531Y-117148726D01*
X96605890Y-117107409D01*
X96622961Y-117095658D01*
X96714251Y-117038800D01*
X96802661Y-116992751D01*
X96896142Y-116953804D01*
X97002650Y-116918252D01*
X97005318Y-116917444D01*
X97171008Y-116876150D01*
X97350308Y-116847831D01*
X97539855Y-116832816D01*
X97736285Y-116831433D01*
X97836867Y-116836010D01*
G36*
X94363559Y-116802505D02*
G01*
X94421095Y-116807273D01*
X94489817Y-116814494D01*
X94564892Y-116823574D01*
X94641486Y-116833919D01*
X94714767Y-116844934D01*
X94779902Y-116856027D01*
X94795645Y-116858993D01*
X94856500Y-116870753D01*
X94856500Y-117235215D01*
X94856444Y-117332715D01*
X94856210Y-117411083D01*
X94855690Y-117472352D01*
X94854780Y-117518556D01*
X94853376Y-117551728D01*
X94851372Y-117573903D01*
X94848663Y-117587113D01*
X94845145Y-117593394D01*
X94840712Y-117594778D01*
X94837979Y-117594229D01*
X94674264Y-117557016D01*
X94505638Y-117539906D01*
X94334038Y-117542975D01*
X94161399Y-117566295D01*
X94153166Y-117567915D01*
X93988211Y-117611317D01*
X93832418Y-117673795D01*
X93685854Y-117755314D01*
X93548585Y-117855838D01*
X93444672Y-117950754D01*
X93338582Y-118067937D01*
X93248797Y-118191374D01*
X93173797Y-118323914D01*
X93112059Y-118468406D01*
X93062062Y-118627702D01*
X93043708Y-118701837D01*
X93040432Y-118716411D01*
X93037488Y-118730915D01*
X93034854Y-118746510D01*
X93032510Y-118764360D01*
X93030435Y-118785628D01*
X93028607Y-118811478D01*
X93027007Y-118843073D01*
X93025612Y-118881577D01*
X93024403Y-118928152D01*
X93023357Y-118983961D01*
X93022455Y-119050170D01*
X93021675Y-119127939D01*
X93020997Y-119218434D01*
X93020399Y-119322816D01*
X93019861Y-119442250D01*
X93019362Y-119577899D01*
X93018880Y-119730926D01*
X93018396Y-119902494D01*
X93017887Y-120093767D01*
X93017750Y-120146187D01*
X93014236Y-121492916D01*
X92608923Y-121492916D01*
X92518301Y-121492738D01*
X92434374Y-121492230D01*
X92359485Y-121491432D01*
X92295977Y-121490385D01*
X92246193Y-121489128D01*
X92212476Y-121487701D01*
X92197169Y-121486146D01*
X92196555Y-121485861D01*
X92195941Y-121474848D01*
X92195349Y-121443847D01*
X92194782Y-121394036D01*
X92194240Y-121326592D01*
X92193722Y-121242696D01*
X92193231Y-121143524D01*
X92192766Y-121030254D01*
X92192328Y-120904066D01*
X92191919Y-120766138D01*
X92191538Y-120617647D01*
X92191187Y-120459772D01*
X92190865Y-120293691D01*
X92190575Y-120120582D01*
X92190316Y-119941624D01*
X92190088Y-119757996D01*
X92189894Y-119570874D01*
X92189733Y-119381438D01*
X92189607Y-119190865D01*
X92189515Y-119000334D01*
X92189459Y-118811024D01*
X92189438Y-118624112D01*
X92189455Y-118440777D01*
X92189510Y-118262196D01*
X92189602Y-118089549D01*
X92189734Y-117924014D01*
X92189905Y-117766768D01*
X92190116Y-117618990D01*
X92190369Y-117481858D01*
X92190663Y-117356551D01*
X92190999Y-117244247D01*
X92191379Y-117146123D01*
X92191802Y-117063359D01*
X92192270Y-116997132D01*
X92192783Y-116948622D01*
X92193341Y-116919005D01*
X92193901Y-116909451D01*
X92205106Y-116908544D01*
X92235163Y-116907846D01*
X92281758Y-116907366D01*
X92342577Y-116907113D01*
X92415306Y-116907095D01*
X92497632Y-116907321D01*
X92587242Y-116907799D01*
X92606651Y-116907931D01*
X93015000Y-116910821D01*
X93015000Y-117175160D01*
X93015157Y-117262174D01*
X93015900Y-117329690D01*
X93017634Y-117379376D01*
X93020765Y-117412901D01*
X93025697Y-117431931D01*
X93032836Y-117438135D01*
X93042587Y-117433181D01*
X93055355Y-117418736D01*
X93069490Y-117399386D01*
X93127862Y-117326456D01*
X93201580Y-117249638D01*
X93286309Y-117172830D01*
X93377716Y-117099932D01*
X93471464Y-117034844D01*
X93482518Y-117027836D01*
X93589109Y-116969234D01*
X93709976Y-116917054D01*
X93838621Y-116873649D01*
X93968548Y-116841372D01*
X94025582Y-116831124D01*
X94078491Y-116823593D01*
X94138486Y-116816243D01*
X94199560Y-116809690D01*
X94255707Y-116804549D01*
X94300922Y-116801432D01*
X94322041Y-116800783D01*
X94363559Y-116802505D01*
G37*
X94363559Y-116802505D02*
X94421095Y-116807273D01*
X94489817Y-116814494D01*
X94564892Y-116823574D01*
X94641486Y-116833919D01*
X94714767Y-116844934D01*
X94779902Y-116856027D01*
X94795645Y-116858993D01*
X94856500Y-116870753D01*
X94856500Y-117235215D01*
X94856444Y-117332715D01*
X94856210Y-117411083D01*
X94855690Y-117472352D01*
X94854780Y-117518556D01*
X94853376Y-117551728D01*
X94851372Y-117573903D01*
X94848663Y-117587113D01*
X94845145Y-117593394D01*
X94840712Y-117594778D01*
X94837979Y-117594229D01*
X94674264Y-117557016D01*
X94505638Y-117539906D01*
X94334038Y-117542975D01*
X94161399Y-117566295D01*
X94153166Y-117567915D01*
X93988211Y-117611317D01*
X93832418Y-117673795D01*
X93685854Y-117755314D01*
X93548585Y-117855838D01*
X93444672Y-117950754D01*
X93338582Y-118067937D01*
X93248797Y-118191374D01*
X93173797Y-118323914D01*
X93112059Y-118468406D01*
X93062062Y-118627702D01*
X93043708Y-118701837D01*
X93040432Y-118716411D01*
X93037488Y-118730915D01*
X93034854Y-118746510D01*
X93032510Y-118764360D01*
X93030435Y-118785628D01*
X93028607Y-118811478D01*
X93027007Y-118843073D01*
X93025612Y-118881577D01*
X93024403Y-118928152D01*
X93023357Y-118983961D01*
X93022455Y-119050170D01*
X93021675Y-119127939D01*
X93020997Y-119218434D01*
X93020399Y-119322816D01*
X93019861Y-119442250D01*
X93019362Y-119577899D01*
X93018880Y-119730926D01*
X93018396Y-119902494D01*
X93017887Y-120093767D01*
X93017750Y-120146187D01*
X93014236Y-121492916D01*
X92608923Y-121492916D01*
X92518301Y-121492738D01*
X92434374Y-121492230D01*
X92359485Y-121491432D01*
X92295977Y-121490385D01*
X92246193Y-121489128D01*
X92212476Y-121487701D01*
X92197169Y-121486146D01*
X92196555Y-121485861D01*
X92195941Y-121474848D01*
X92195349Y-121443847D01*
X92194782Y-121394036D01*
X92194240Y-121326592D01*
X92193722Y-121242696D01*
X92193231Y-121143524D01*
X92192766Y-121030254D01*
X92192328Y-120904066D01*
X92191919Y-120766138D01*
X92191538Y-120617647D01*
X92191187Y-120459772D01*
X92190865Y-120293691D01*
X92190575Y-120120582D01*
X92190316Y-119941624D01*
X92190088Y-119757996D01*
X92189894Y-119570874D01*
X92189733Y-119381438D01*
X92189607Y-119190865D01*
X92189515Y-119000334D01*
X92189459Y-118811024D01*
X92189438Y-118624112D01*
X92189455Y-118440777D01*
X92189510Y-118262196D01*
X92189602Y-118089549D01*
X92189734Y-117924014D01*
X92189905Y-117766768D01*
X92190116Y-117618990D01*
X92190369Y-117481858D01*
X92190663Y-117356551D01*
X92190999Y-117244247D01*
X92191379Y-117146123D01*
X92191802Y-117063359D01*
X92192270Y-116997132D01*
X92192783Y-116948622D01*
X92193341Y-116919005D01*
X92193901Y-116909451D01*
X92205106Y-116908544D01*
X92235163Y-116907846D01*
X92281758Y-116907366D01*
X92342577Y-116907113D01*
X92415306Y-116907095D01*
X92497632Y-116907321D01*
X92587242Y-116907799D01*
X92606651Y-116907931D01*
X93015000Y-116910821D01*
X93015000Y-117175160D01*
X93015157Y-117262174D01*
X93015900Y-117329690D01*
X93017634Y-117379376D01*
X93020765Y-117412901D01*
X93025697Y-117431931D01*
X93032836Y-117438135D01*
X93042587Y-117433181D01*
X93055355Y-117418736D01*
X93069490Y-117399386D01*
X93127862Y-117326456D01*
X93201580Y-117249638D01*
X93286309Y-117172830D01*
X93377716Y-117099932D01*
X93471464Y-117034844D01*
X93482518Y-117027836D01*
X93589109Y-116969234D01*
X93709976Y-116917054D01*
X93838621Y-116873649D01*
X93968548Y-116841372D01*
X94025582Y-116831124D01*
X94078491Y-116823593D01*
X94138486Y-116816243D01*
X94199560Y-116809690D01*
X94255707Y-116804549D01*
X94300922Y-116801432D01*
X94322041Y-116800783D01*
X94363559Y-116802505D01*
G36*
X84023142Y-116832164D02*
G01*
X84121664Y-116834928D01*
X84208147Y-116840145D01*
X84287127Y-116848308D01*
X84363144Y-116859915D01*
X84440735Y-116875460D01*
X84524439Y-116895440D01*
X84546384Y-116901065D01*
X84766117Y-116967760D01*
X84972949Y-117050423D01*
X85166384Y-117148614D01*
X85345928Y-117261893D01*
X85511085Y-117389821D01*
X85661361Y-117531958D01*
X85796259Y-117687865D01*
X85915285Y-117857102D01*
X86017943Y-118039229D01*
X86103739Y-118233807D01*
X86130580Y-118307333D01*
X86144009Y-118348519D01*
X86159200Y-118398842D01*
X86174949Y-118453843D01*
X86190054Y-118509062D01*
X86203311Y-118560039D01*
X86213518Y-118602315D01*
X86219470Y-118631430D01*
X86220500Y-118640621D01*
X86210288Y-118641790D01*
X86181143Y-118642871D01*
X86135294Y-118643837D01*
X86074976Y-118644659D01*
X86002420Y-118645309D01*
X85919858Y-118645759D01*
X85829521Y-118645981D01*
X85794056Y-118646000D01*
X85367612Y-118646000D01*
X85337987Y-118555031D01*
X85275042Y-118395355D01*
X85193926Y-118245735D01*
X85095702Y-118107389D01*
X84981433Y-117981537D01*
X84852184Y-117869397D01*
X84709015Y-117772189D01*
X84606541Y-117716369D01*
X84449382Y-117650075D01*
X84283288Y-117601771D01*
X84110762Y-117571636D01*
X83934307Y-117559847D01*
X83756423Y-117566585D01*
X83579614Y-117592027D01*
X83421371Y-117631704D01*
X83255988Y-117692765D01*
X83100675Y-117771509D01*
X82956704Y-117866703D01*
X82825342Y-117977114D01*
X82707860Y-118101508D01*
X82605528Y-118238651D01*
X82519614Y-118387311D01*
X82451390Y-118546253D01*
X82437135Y-118587791D01*
X82392459Y-118753642D01*
X82362782Y-118928694D01*
X82348080Y-119108975D01*
X82348330Y-119290513D01*
X82363508Y-119469334D01*
X82393589Y-119641466D01*
X82438551Y-119802935D01*
X82444501Y-119820150D01*
X82514048Y-119987210D01*
X82599993Y-120141457D01*
X82701723Y-120282189D01*
X82818621Y-120408701D01*
X82950073Y-120520289D01*
X83095463Y-120616252D01*
X83180680Y-120661885D01*
X83344220Y-120731672D01*
X83513969Y-120782951D01*
X83687792Y-120815779D01*
X83863553Y-120830211D01*
X84039114Y-120826305D01*
X84212341Y-120804118D01*
X84381097Y-120763707D01*
X84543245Y-120705128D01*
X84696651Y-120628438D01*
X84708941Y-120621251D01*
X84825092Y-120543177D01*
X84938187Y-120449488D01*
X85042521Y-120345452D01*
X85132391Y-120236339D01*
X85145848Y-120217625D01*
X85190872Y-120147387D01*
X85236904Y-120064735D01*
X85280098Y-119977339D01*
X85316605Y-119892869D01*
X85337325Y-119835920D01*
X85366359Y-119746666D01*
X86220903Y-119746666D01*
X86214507Y-119775770D01*
X86159632Y-119987569D01*
X86091156Y-120183994D01*
X86008268Y-120366539D01*
X85910155Y-120536696D01*
X85796004Y-120695960D01*
X85665003Y-120845823D01*
X85593761Y-120916903D01*
X85432727Y-121056222D01*
X85258543Y-121179167D01*
X85071783Y-121285483D01*
X84873021Y-121374912D01*
X84662830Y-121447197D01*
X84441784Y-121502080D01*
X84210455Y-121539305D01*
X84204334Y-121540032D01*
X84133677Y-121546417D01*
X84048821Y-121551030D01*
X83955530Y-121553821D01*
X83859569Y-121554741D01*
X83766703Y-121553743D01*
X83682697Y-121550777D01*
X83613317Y-121545794D01*
X83606416Y-121545077D01*
X83377596Y-121510591D01*
X83157576Y-121457818D01*
X82947174Y-121387124D01*
X82747208Y-121298876D01*
X82558496Y-121193441D01*
X82381854Y-121071185D01*
X82218101Y-120932475D01*
X82198545Y-120913965D01*
X82150662Y-120866772D01*
X82101947Y-120816511D01*
X82057517Y-120768597D01*
X82022488Y-120728448D01*
X82016814Y-120721521D01*
X81891130Y-120548940D01*
X81783092Y-120364999D01*
X81692887Y-120170309D01*
X81620704Y-119965479D01*
X81566729Y-119751119D01*
X81531151Y-119527836D01*
X81514158Y-119296240D01*
X81514563Y-119090500D01*
X81531899Y-118854022D01*
X81566721Y-118629380D01*
X81619118Y-118416353D01*
X81689177Y-118214722D01*
X81776985Y-118024268D01*
X81882631Y-117844770D01*
X82006202Y-117676009D01*
X82139847Y-117525874D01*
X82297981Y-117378594D01*
X82469023Y-117248051D01*
X82652837Y-117134314D01*
X82849288Y-117037449D01*
X83058241Y-116957522D01*
X83279562Y-116894601D01*
X83502730Y-116850387D01*
X83548208Y-116843993D01*
X83596409Y-116839111D01*
X83650882Y-116835574D01*
X83715175Y-116833216D01*
X83792839Y-116831870D01*
X83887422Y-116831370D01*
X83908041Y-116831356D01*
X84023142Y-116832164D01*
G37*
X84023142Y-116832164D02*
X84121664Y-116834928D01*
X84208147Y-116840145D01*
X84287127Y-116848308D01*
X84363144Y-116859915D01*
X84440735Y-116875460D01*
X84524439Y-116895440D01*
X84546384Y-116901065D01*
X84766117Y-116967760D01*
X84972949Y-117050423D01*
X85166384Y-117148614D01*
X85345928Y-117261893D01*
X85511085Y-117389821D01*
X85661361Y-117531958D01*
X85796259Y-117687865D01*
X85915285Y-117857102D01*
X86017943Y-118039229D01*
X86103739Y-118233807D01*
X86130580Y-118307333D01*
X86144009Y-118348519D01*
X86159200Y-118398842D01*
X86174949Y-118453843D01*
X86190054Y-118509062D01*
X86203311Y-118560039D01*
X86213518Y-118602315D01*
X86219470Y-118631430D01*
X86220500Y-118640621D01*
X86210288Y-118641790D01*
X86181143Y-118642871D01*
X86135294Y-118643837D01*
X86074976Y-118644659D01*
X86002420Y-118645309D01*
X85919858Y-118645759D01*
X85829521Y-118645981D01*
X85794056Y-118646000D01*
X85367612Y-118646000D01*
X85337987Y-118555031D01*
X85275042Y-118395355D01*
X85193926Y-118245735D01*
X85095702Y-118107389D01*
X84981433Y-117981537D01*
X84852184Y-117869397D01*
X84709015Y-117772189D01*
X84606541Y-117716369D01*
X84449382Y-117650075D01*
X84283288Y-117601771D01*
X84110762Y-117571636D01*
X83934307Y-117559847D01*
X83756423Y-117566585D01*
X83579614Y-117592027D01*
X83421371Y-117631704D01*
X83255988Y-117692765D01*
X83100675Y-117771509D01*
X82956704Y-117866703D01*
X82825342Y-117977114D01*
X82707860Y-118101508D01*
X82605528Y-118238651D01*
X82519614Y-118387311D01*
X82451390Y-118546253D01*
X82437135Y-118587791D01*
X82392459Y-118753642D01*
X82362782Y-118928694D01*
X82348080Y-119108975D01*
X82348330Y-119290513D01*
X82363508Y-119469334D01*
X82393589Y-119641466D01*
X82438551Y-119802935D01*
X82444501Y-119820150D01*
X82514048Y-119987210D01*
X82599993Y-120141457D01*
X82701723Y-120282189D01*
X82818621Y-120408701D01*
X82950073Y-120520289D01*
X83095463Y-120616252D01*
X83180680Y-120661885D01*
X83344220Y-120731672D01*
X83513969Y-120782951D01*
X83687792Y-120815779D01*
X83863553Y-120830211D01*
X84039114Y-120826305D01*
X84212341Y-120804118D01*
X84381097Y-120763707D01*
X84543245Y-120705128D01*
X84696651Y-120628438D01*
X84708941Y-120621251D01*
X84825092Y-120543177D01*
X84938187Y-120449488D01*
X85042521Y-120345452D01*
X85132391Y-120236339D01*
X85145848Y-120217625D01*
X85190872Y-120147387D01*
X85236904Y-120064735D01*
X85280098Y-119977339D01*
X85316605Y-119892869D01*
X85337325Y-119835920D01*
X85366359Y-119746666D01*
X86220903Y-119746666D01*
X86214507Y-119775770D01*
X86159632Y-119987569D01*
X86091156Y-120183994D01*
X86008268Y-120366539D01*
X85910155Y-120536696D01*
X85796004Y-120695960D01*
X85665003Y-120845823D01*
X85593761Y-120916903D01*
X85432727Y-121056222D01*
X85258543Y-121179167D01*
X85071783Y-121285483D01*
X84873021Y-121374912D01*
X84662830Y-121447197D01*
X84441784Y-121502080D01*
X84210455Y-121539305D01*
X84204334Y-121540032D01*
X84133677Y-121546417D01*
X84048821Y-121551030D01*
X83955530Y-121553821D01*
X83859569Y-121554741D01*
X83766703Y-121553743D01*
X83682697Y-121550777D01*
X83613317Y-121545794D01*
X83606416Y-121545077D01*
X83377596Y-121510591D01*
X83157576Y-121457818D01*
X82947174Y-121387124D01*
X82747208Y-121298876D01*
X82558496Y-121193441D01*
X82381854Y-121071185D01*
X82218101Y-120932475D01*
X82198545Y-120913965D01*
X82150662Y-120866772D01*
X82101947Y-120816511D01*
X82057517Y-120768597D01*
X82022488Y-120728448D01*
X82016814Y-120721521D01*
X81891130Y-120548940D01*
X81783092Y-120364999D01*
X81692887Y-120170309D01*
X81620704Y-119965479D01*
X81566729Y-119751119D01*
X81531151Y-119527836D01*
X81514158Y-119296240D01*
X81514563Y-119090500D01*
X81531899Y-118854022D01*
X81566721Y-118629380D01*
X81619118Y-118416353D01*
X81689177Y-118214722D01*
X81776985Y-118024268D01*
X81882631Y-117844770D01*
X82006202Y-117676009D01*
X82139847Y-117525874D01*
X82297981Y-117378594D01*
X82469023Y-117248051D01*
X82652837Y-117134314D01*
X82849288Y-117037449D01*
X83058241Y-116957522D01*
X83279562Y-116894601D01*
X83502730Y-116850387D01*
X83548208Y-116843993D01*
X83596409Y-116839111D01*
X83650882Y-116835574D01*
X83715175Y-116833216D01*
X83792839Y-116831870D01*
X83887422Y-116831370D01*
X83908041Y-116831356D01*
X84023142Y-116832164D01*
G36*
X102715748Y-116835289D02*
G01*
X102835640Y-116842007D01*
X102949233Y-116854100D01*
X103063752Y-116872164D01*
X103071866Y-116873645D01*
X103292365Y-116924128D01*
X103503443Y-116992505D01*
X103704124Y-117078276D01*
X103893434Y-117180941D01*
X104070397Y-117300001D01*
X104234038Y-117434955D01*
X104311301Y-117508985D01*
X104451967Y-117665049D01*
X104575090Y-117832210D01*
X104680813Y-118010784D01*
X104769281Y-118201090D01*
X104840636Y-118403445D01*
X104895022Y-118618167D01*
X104932584Y-118845573D01*
X104938286Y-118894401D01*
X104944557Y-118964967D01*
X104948771Y-119039829D01*
X104950965Y-119115329D01*
X104951177Y-119187812D01*
X104949444Y-119253620D01*
X104945803Y-119309097D01*
X104940291Y-119350587D01*
X104933417Y-119373604D01*
X104920505Y-119397416D01*
X101034255Y-119397416D01*
X101041616Y-119490020D01*
X101062156Y-119647647D01*
X101098469Y-119794796D01*
X101151823Y-119936404D01*
X101161773Y-119958333D01*
X101238424Y-120098982D01*
X101333218Y-120231468D01*
X101444262Y-120354467D01*
X101569666Y-120466652D01*
X101707539Y-120566697D01*
X101855991Y-120653277D01*
X102013130Y-120725065D01*
X102177067Y-120780737D01*
X102345910Y-120818965D01*
X102401105Y-120827357D01*
X102518412Y-120836738D01*
X102648040Y-120836074D01*
X102784004Y-120825947D01*
X102920319Y-120806937D01*
X103051000Y-120779626D01*
X103135713Y-120755947D01*
X103192981Y-120735321D01*
X103260863Y-120706779D01*
X103332913Y-120673402D01*
X103402682Y-120638275D01*
X103463723Y-120604481D01*
X103500208Y-120581653D01*
X103632947Y-120479179D01*
X103754268Y-120359491D01*
X103862825Y-120223991D01*
X103908083Y-120156770D01*
X103960285Y-120074750D01*
X104382559Y-120074750D01*
X104491176Y-120074863D01*
X104580347Y-120075241D01*
X104651792Y-120075942D01*
X104707230Y-120077022D01*
X104748382Y-120078539D01*
X104776967Y-120080549D01*
X104794704Y-120083111D01*
X104803314Y-120086281D01*
X104804833Y-120088800D01*
X104801045Y-120105285D01*
X104791137Y-120134730D01*
X104777909Y-120169110D01*
X104686845Y-120366154D01*
X104579352Y-120550168D01*
X104456020Y-120720708D01*
X104317437Y-120877332D01*
X104164192Y-121019595D01*
X103996876Y-121147054D01*
X103816076Y-121259265D01*
X103622383Y-121355785D01*
X103416385Y-121436171D01*
X103198671Y-121499978D01*
X102969831Y-121546763D01*
X102942166Y-121551134D01*
X102868460Y-121559913D01*
X102779591Y-121566524D01*
X102681464Y-121570860D01*
X102579982Y-121572816D01*
X102481048Y-121572286D01*
X102390566Y-121569165D01*
X102314440Y-121563344D01*
X102307166Y-121562531D01*
X102073591Y-121525859D01*
X101850533Y-121471416D01*
X101638427Y-121399401D01*
X101437704Y-121310012D01*
X101248798Y-121203449D01*
X101072142Y-121079911D01*
X100908167Y-120939595D01*
X100869741Y-120902448D01*
X100725245Y-120744799D01*
X100598388Y-120575548D01*
X100489259Y-120394933D01*
X100397953Y-120203194D01*
X100324560Y-120000570D01*
X100269174Y-119787298D01*
X100231887Y-119563617D01*
X100212790Y-119329767D01*
X100210075Y-119196333D01*
X100219026Y-118957117D01*
X100245650Y-118729368D01*
X100254037Y-118688435D01*
X101074861Y-118688435D01*
X101075196Y-118700514D01*
X101086288Y-118701689D01*
X101117087Y-118702779D01*
X101166136Y-118703786D01*
X101231976Y-118704708D01*
X101313147Y-118705547D01*
X101408192Y-118706301D01*
X101515651Y-118706972D01*
X101634066Y-118707558D01*
X101761978Y-118708061D01*
X101897929Y-118708479D01*
X102040460Y-118708814D01*
X102188112Y-118709065D01*
X102339426Y-118709232D01*
X102492944Y-118709315D01*
X102647208Y-118709315D01*
X102800758Y-118709230D01*
X102952137Y-118709062D01*
X103099884Y-118708810D01*
X103242542Y-118708474D01*
X103378652Y-118708054D01*
X103506755Y-118707551D01*
X103625393Y-118706963D01*
X103733107Y-118706293D01*
X103828438Y-118705538D01*
X103909928Y-118704700D01*
X103976118Y-118703778D01*
X104025549Y-118702772D01*
X104056763Y-118701683D01*
X104068301Y-118700510D01*
X104068323Y-118700483D01*
X104068635Y-118685193D01*
X104062903Y-118654154D01*
X104052311Y-118611514D01*
X104038045Y-118561418D01*
X104021289Y-118508012D01*
X104003228Y-118455441D01*
X103985048Y-118407853D01*
X103983849Y-118404931D01*
X103925043Y-118277880D01*
X103858434Y-118165514D01*
X103779933Y-118061676D01*
X103693854Y-117968548D01*
X103572129Y-117861948D01*
X103435953Y-117770613D01*
X103285748Y-117694749D01*
X103121939Y-117634559D01*
X102944946Y-117590250D01*
X102894541Y-117580966D01*
X102815335Y-117570981D01*
X102721388Y-117564838D01*
X102618764Y-117562488D01*
X102513529Y-117563882D01*
X102411746Y-117568973D01*
X102319482Y-117577711D01*
X102263662Y-117585999D01*
X102082782Y-117627704D01*
X101913954Y-117685708D01*
X101757854Y-117759481D01*
X101615161Y-117848490D01*
X101486552Y-117952204D01*
X101372703Y-118070089D01*
X101274292Y-118201615D01*
X101191997Y-118346249D01*
X101138778Y-118469550D01*
X101120897Y-118519788D01*
X101104381Y-118571096D01*
X101090414Y-118619173D01*
X101080179Y-118659720D01*
X101074861Y-118688435D01*
X100254037Y-118688435D01*
X100290034Y-118512771D01*
X100352267Y-118307014D01*
X100432435Y-118111782D01*
X100530625Y-117926763D01*
X100589609Y-117833326D01*
X100648480Y-117748440D01*
X100705453Y-117673993D01*
X100765877Y-117603596D01*
X100835101Y-117530862D01*
X100880376Y-117486075D01*
X101039800Y-117345629D01*
X101212368Y-117221294D01*
X101397039Y-117113466D01*
X101592771Y-117022547D01*
X101798524Y-116948934D01*
X102013255Y-116893029D01*
X102235924Y-116855229D01*
X102465489Y-116835935D01*
X102582333Y-116833353D01*
X102715748Y-116835289D01*
G37*
X102715748Y-116835289D02*
X102835640Y-116842007D01*
X102949233Y-116854100D01*
X103063752Y-116872164D01*
X103071866Y-116873645D01*
X103292365Y-116924128D01*
X103503443Y-116992505D01*
X103704124Y-117078276D01*
X103893434Y-117180941D01*
X104070397Y-117300001D01*
X104234038Y-117434955D01*
X104311301Y-117508985D01*
X104451967Y-117665049D01*
X104575090Y-117832210D01*
X104680813Y-118010784D01*
X104769281Y-118201090D01*
X104840636Y-118403445D01*
X104895022Y-118618167D01*
X104932584Y-118845573D01*
X104938286Y-118894401D01*
X104944557Y-118964967D01*
X104948771Y-119039829D01*
X104950965Y-119115329D01*
X104951177Y-119187812D01*
X104949444Y-119253620D01*
X104945803Y-119309097D01*
X104940291Y-119350587D01*
X104933417Y-119373604D01*
X104920505Y-119397416D01*
X101034255Y-119397416D01*
X101041616Y-119490020D01*
X101062156Y-119647647D01*
X101098469Y-119794796D01*
X101151823Y-119936404D01*
X101161773Y-119958333D01*
X101238424Y-120098982D01*
X101333218Y-120231468D01*
X101444262Y-120354467D01*
X101569666Y-120466652D01*
X101707539Y-120566697D01*
X101855991Y-120653277D01*
X102013130Y-120725065D01*
X102177067Y-120780737D01*
X102345910Y-120818965D01*
X102401105Y-120827357D01*
X102518412Y-120836738D01*
X102648040Y-120836074D01*
X102784004Y-120825947D01*
X102920319Y-120806937D01*
X103051000Y-120779626D01*
X103135713Y-120755947D01*
X103192981Y-120735321D01*
X103260863Y-120706779D01*
X103332913Y-120673402D01*
X103402682Y-120638275D01*
X103463723Y-120604481D01*
X103500208Y-120581653D01*
X103632947Y-120479179D01*
X103754268Y-120359491D01*
X103862825Y-120223991D01*
X103908083Y-120156770D01*
X103960285Y-120074750D01*
X104382559Y-120074750D01*
X104491176Y-120074863D01*
X104580347Y-120075241D01*
X104651792Y-120075942D01*
X104707230Y-120077022D01*
X104748382Y-120078539D01*
X104776967Y-120080549D01*
X104794704Y-120083111D01*
X104803314Y-120086281D01*
X104804833Y-120088800D01*
X104801045Y-120105285D01*
X104791137Y-120134730D01*
X104777909Y-120169110D01*
X104686845Y-120366154D01*
X104579352Y-120550168D01*
X104456020Y-120720708D01*
X104317437Y-120877332D01*
X104164192Y-121019595D01*
X103996876Y-121147054D01*
X103816076Y-121259265D01*
X103622383Y-121355785D01*
X103416385Y-121436171D01*
X103198671Y-121499978D01*
X102969831Y-121546763D01*
X102942166Y-121551134D01*
X102868460Y-121559913D01*
X102779591Y-121566524D01*
X102681464Y-121570860D01*
X102579982Y-121572816D01*
X102481048Y-121572286D01*
X102390566Y-121569165D01*
X102314440Y-121563344D01*
X102307166Y-121562531D01*
X102073591Y-121525859D01*
X101850533Y-121471416D01*
X101638427Y-121399401D01*
X101437704Y-121310012D01*
X101248798Y-121203449D01*
X101072142Y-121079911D01*
X100908167Y-120939595D01*
X100869741Y-120902448D01*
X100725245Y-120744799D01*
X100598388Y-120575548D01*
X100489259Y-120394933D01*
X100397953Y-120203194D01*
X100324560Y-120000570D01*
X100269174Y-119787298D01*
X100231887Y-119563617D01*
X100212790Y-119329767D01*
X100210075Y-119196333D01*
X100219026Y-118957117D01*
X100245650Y-118729368D01*
X100254037Y-118688435D01*
X101074861Y-118688435D01*
X101075196Y-118700514D01*
X101086288Y-118701689D01*
X101117087Y-118702779D01*
X101166136Y-118703786D01*
X101231976Y-118704708D01*
X101313147Y-118705547D01*
X101408192Y-118706301D01*
X101515651Y-118706972D01*
X101634066Y-118707558D01*
X101761978Y-118708061D01*
X101897929Y-118708479D01*
X102040460Y-118708814D01*
X102188112Y-118709065D01*
X102339426Y-118709232D01*
X102492944Y-118709315D01*
X102647208Y-118709315D01*
X102800758Y-118709230D01*
X102952137Y-118709062D01*
X103099884Y-118708810D01*
X103242542Y-118708474D01*
X103378652Y-118708054D01*
X103506755Y-118707551D01*
X103625393Y-118706963D01*
X103733107Y-118706293D01*
X103828438Y-118705538D01*
X103909928Y-118704700D01*
X103976118Y-118703778D01*
X104025549Y-118702772D01*
X104056763Y-118701683D01*
X104068301Y-118700510D01*
X104068323Y-118700483D01*
X104068635Y-118685193D01*
X104062903Y-118654154D01*
X104052311Y-118611514D01*
X104038045Y-118561418D01*
X104021289Y-118508012D01*
X104003228Y-118455441D01*
X103985048Y-118407853D01*
X103983849Y-118404931D01*
X103925043Y-118277880D01*
X103858434Y-118165514D01*
X103779933Y-118061676D01*
X103693854Y-117968548D01*
X103572129Y-117861948D01*
X103435953Y-117770613D01*
X103285748Y-117694749D01*
X103121939Y-117634559D01*
X102944946Y-117590250D01*
X102894541Y-117580966D01*
X102815335Y-117570981D01*
X102721388Y-117564838D01*
X102618764Y-117562488D01*
X102513529Y-117563882D01*
X102411746Y-117568973D01*
X102319482Y-117577711D01*
X102263662Y-117585999D01*
X102082782Y-117627704D01*
X101913954Y-117685708D01*
X101757854Y-117759481D01*
X101615161Y-117848490D01*
X101486552Y-117952204D01*
X101372703Y-118070089D01*
X101274292Y-118201615D01*
X101191997Y-118346249D01*
X101138778Y-118469550D01*
X101120897Y-118519788D01*
X101104381Y-118571096D01*
X101090414Y-118619173D01*
X101080179Y-118659720D01*
X101074861Y-118688435D01*
X100254037Y-118688435D01*
X100290034Y-118512771D01*
X100352267Y-118307014D01*
X100432435Y-118111782D01*
X100530625Y-117926763D01*
X100589609Y-117833326D01*
X100648480Y-117748440D01*
X100705453Y-117673993D01*
X100765877Y-117603596D01*
X100835101Y-117530862D01*
X100880376Y-117486075D01*
X101039800Y-117345629D01*
X101212368Y-117221294D01*
X101397039Y-117113466D01*
X101592771Y-117022547D01*
X101798524Y-116948934D01*
X102013255Y-116893029D01*
X102235924Y-116855229D01*
X102465489Y-116835935D01*
X102582333Y-116833353D01*
X102715748Y-116835289D01*
G36*
X89101337Y-116830358D02*
G01*
X89197007Y-116831834D01*
X89288472Y-116834679D01*
X89371514Y-116838864D01*
X89441913Y-116844356D01*
X89490750Y-116850356D01*
X89726680Y-116897058D01*
X89951468Y-116960522D01*
X90164493Y-117040417D01*
X90365139Y-117136412D01*
X90552786Y-117248179D01*
X90726814Y-117375386D01*
X90886606Y-117517703D01*
X91028492Y-117671156D01*
X91151279Y-117833688D01*
X91258870Y-118009846D01*
X91350516Y-118197789D01*
X91425468Y-118395672D01*
X91482976Y-118601651D01*
X91522291Y-118813884D01*
X91534283Y-118915383D01*
X91539610Y-118992158D01*
X91542440Y-119082442D01*
X91542911Y-119181362D01*
X91541161Y-119284042D01*
X91537329Y-119385608D01*
X91531554Y-119481183D01*
X91523973Y-119565894D01*
X91514724Y-119634866D01*
X91513691Y-119640833D01*
X91480497Y-119804615D01*
X91441157Y-119953681D01*
X91393724Y-120094060D01*
X91336249Y-120231783D01*
X91294876Y-120318166D01*
X91193002Y-120498167D01*
X91073527Y-120667069D01*
X90937312Y-120824125D01*
X90785217Y-120968589D01*
X90618104Y-121099713D01*
X90436833Y-121216752D01*
X90242265Y-121318958D01*
X90045401Y-121401818D01*
X89838484Y-121468988D01*
X89621090Y-121520461D01*
X89397553Y-121555661D01*
X89172208Y-121574014D01*
X88949388Y-121574945D01*
X88808125Y-121565950D01*
X88576041Y-121535270D01*
X88352439Y-121487089D01*
X88138213Y-121421985D01*
X87934258Y-121340536D01*
X87741470Y-121243320D01*
X87560743Y-121130914D01*
X87392974Y-121003897D01*
X87239057Y-120862847D01*
X87099887Y-120708341D01*
X86976361Y-120540957D01*
X86869373Y-120361274D01*
X86834119Y-120291708D01*
X86766212Y-120140466D01*
X86711406Y-119992972D01*
X86668449Y-119844317D01*
X86636087Y-119689591D01*
X86613069Y-119523884D01*
X86600183Y-119374803D01*
X86596851Y-119247655D01*
X87428265Y-119247655D01*
X87430651Y-119345399D01*
X87437656Y-119434076D01*
X87449845Y-119519588D01*
X87467781Y-119607841D01*
X87479911Y-119658144D01*
X87533315Y-119828201D01*
X87604783Y-119988135D01*
X87693318Y-120137026D01*
X87797922Y-120273953D01*
X87917598Y-120397995D01*
X88051347Y-120508232D01*
X88198174Y-120603743D01*
X88357079Y-120683608D01*
X88527066Y-120746905D01*
X88707138Y-120792715D01*
X88709800Y-120793242D01*
X88759943Y-120803087D01*
X88800432Y-120810574D01*
X88835342Y-120815978D01*
X88868750Y-120819579D01*
X88904734Y-120821652D01*
X88947371Y-120822476D01*
X89000737Y-120822328D01*
X89068909Y-120821486D01*
X89115041Y-120820814D01*
X89196372Y-120819354D01*
X89260842Y-120817392D01*
X89312756Y-120814563D01*
X89356419Y-120810498D01*
X89396135Y-120804831D01*
X89436211Y-120797196D01*
X89464291Y-120791049D01*
X89649835Y-120739189D01*
X89822847Y-120670798D01*
X89982722Y-120586483D01*
X90128851Y-120486849D01*
X90260627Y-120372505D01*
X90377445Y-120244057D01*
X90478696Y-120102110D01*
X90563774Y-119947273D01*
X90632072Y-119780151D01*
X90682983Y-119601351D01*
X90690843Y-119565126D01*
X90713184Y-119419652D01*
X90723187Y-119264248D01*
X90721162Y-119104330D01*
X90707415Y-118945311D01*
X90682257Y-118792604D01*
X90645995Y-118651625D01*
X90637275Y-118624833D01*
X90569501Y-118456070D01*
X90485071Y-118299922D01*
X90384739Y-118156969D01*
X90269260Y-118027791D01*
X90139390Y-117912968D01*
X89995882Y-117813078D01*
X89839493Y-117728701D01*
X89670977Y-117660418D01*
X89491089Y-117608808D01*
X89300585Y-117574450D01*
X89263208Y-117569915D01*
X89192896Y-117562631D01*
X89135638Y-117558508D01*
X89083582Y-117557411D01*
X89028872Y-117559209D01*
X88963654Y-117563765D01*
X88953038Y-117564632D01*
X88754719Y-117589636D01*
X88569601Y-117630924D01*
X88397019Y-117688789D01*
X88236310Y-117763520D01*
X88086810Y-117855409D01*
X87947857Y-117964745D01*
X87868216Y-118039905D01*
X87754008Y-118168457D01*
X87657551Y-118306597D01*
X87577536Y-118456465D01*
X87512655Y-118620202D01*
X87511660Y-118623164D01*
X87483362Y-118715673D01*
X87462006Y-118805535D01*
X87446685Y-118898431D01*
X87436492Y-119000042D01*
X87430519Y-119116051D01*
X87429934Y-119134938D01*
X87428265Y-119247655D01*
X86596851Y-119247655D01*
X86594068Y-119141487D01*
X86606984Y-118914489D01*
X86638657Y-118694623D01*
X86688812Y-118482701D01*
X86757176Y-118279534D01*
X86843474Y-118085936D01*
X86947432Y-117902719D01*
X87068776Y-117730695D01*
X87207232Y-117570677D01*
X87210041Y-117567743D01*
X87365353Y-117420383D01*
X87533319Y-117289070D01*
X87714304Y-117173628D01*
X87908673Y-117073882D01*
X88116791Y-116989654D01*
X88339022Y-116920770D01*
X88575732Y-116867053D01*
X88707583Y-116844611D01*
X88760991Y-116838773D01*
X88831289Y-116834460D01*
X88914259Y-116831640D01*
X89005681Y-116830283D01*
X89101337Y-116830358D01*
G37*
X89101337Y-116830358D02*
X89197007Y-116831834D01*
X89288472Y-116834679D01*
X89371514Y-116838864D01*
X89441913Y-116844356D01*
X89490750Y-116850356D01*
X89726680Y-116897058D01*
X89951468Y-116960522D01*
X90164493Y-117040417D01*
X90365139Y-117136412D01*
X90552786Y-117248179D01*
X90726814Y-117375386D01*
X90886606Y-117517703D01*
X91028492Y-117671156D01*
X91151279Y-117833688D01*
X91258870Y-118009846D01*
X91350516Y-118197789D01*
X91425468Y-118395672D01*
X91482976Y-118601651D01*
X91522291Y-118813884D01*
X91534283Y-118915383D01*
X91539610Y-118992158D01*
X91542440Y-119082442D01*
X91542911Y-119181362D01*
X91541161Y-119284042D01*
X91537329Y-119385608D01*
X91531554Y-119481183D01*
X91523973Y-119565894D01*
X91514724Y-119634866D01*
X91513691Y-119640833D01*
X91480497Y-119804615D01*
X91441157Y-119953681D01*
X91393724Y-120094060D01*
X91336249Y-120231783D01*
X91294876Y-120318166D01*
X91193002Y-120498167D01*
X91073527Y-120667069D01*
X90937312Y-120824125D01*
X90785217Y-120968589D01*
X90618104Y-121099713D01*
X90436833Y-121216752D01*
X90242265Y-121318958D01*
X90045401Y-121401818D01*
X89838484Y-121468988D01*
X89621090Y-121520461D01*
X89397553Y-121555661D01*
X89172208Y-121574014D01*
X88949388Y-121574945D01*
X88808125Y-121565950D01*
X88576041Y-121535270D01*
X88352439Y-121487089D01*
X88138213Y-121421985D01*
X87934258Y-121340536D01*
X87741470Y-121243320D01*
X87560743Y-121130914D01*
X87392974Y-121003897D01*
X87239057Y-120862847D01*
X87099887Y-120708341D01*
X86976361Y-120540957D01*
X86869373Y-120361274D01*
X86834119Y-120291708D01*
X86766212Y-120140466D01*
X86711406Y-119992972D01*
X86668449Y-119844317D01*
X86636087Y-119689591D01*
X86613069Y-119523884D01*
X86600183Y-119374803D01*
X86596851Y-119247655D01*
X87428265Y-119247655D01*
X87430651Y-119345399D01*
X87437656Y-119434076D01*
X87449845Y-119519588D01*
X87467781Y-119607841D01*
X87479911Y-119658144D01*
X87533315Y-119828201D01*
X87604783Y-119988135D01*
X87693318Y-120137026D01*
X87797922Y-120273953D01*
X87917598Y-120397995D01*
X88051347Y-120508232D01*
X88198174Y-120603743D01*
X88357079Y-120683608D01*
X88527066Y-120746905D01*
X88707138Y-120792715D01*
X88709800Y-120793242D01*
X88759943Y-120803087D01*
X88800432Y-120810574D01*
X88835342Y-120815978D01*
X88868750Y-120819579D01*
X88904734Y-120821652D01*
X88947371Y-120822476D01*
X89000737Y-120822328D01*
X89068909Y-120821486D01*
X89115041Y-120820814D01*
X89196372Y-120819354D01*
X89260842Y-120817392D01*
X89312756Y-120814563D01*
X89356419Y-120810498D01*
X89396135Y-120804831D01*
X89436211Y-120797196D01*
X89464291Y-120791049D01*
X89649835Y-120739189D01*
X89822847Y-120670798D01*
X89982722Y-120586483D01*
X90128851Y-120486849D01*
X90260627Y-120372505D01*
X90377445Y-120244057D01*
X90478696Y-120102110D01*
X90563774Y-119947273D01*
X90632072Y-119780151D01*
X90682983Y-119601351D01*
X90690843Y-119565126D01*
X90713184Y-119419652D01*
X90723187Y-119264248D01*
X90721162Y-119104330D01*
X90707415Y-118945311D01*
X90682257Y-118792604D01*
X90645995Y-118651625D01*
X90637275Y-118624833D01*
X90569501Y-118456070D01*
X90485071Y-118299922D01*
X90384739Y-118156969D01*
X90269260Y-118027791D01*
X90139390Y-117912968D01*
X89995882Y-117813078D01*
X89839493Y-117728701D01*
X89670977Y-117660418D01*
X89491089Y-117608808D01*
X89300585Y-117574450D01*
X89263208Y-117569915D01*
X89192896Y-117562631D01*
X89135638Y-117558508D01*
X89083582Y-117557411D01*
X89028872Y-117559209D01*
X88963654Y-117563765D01*
X88953038Y-117564632D01*
X88754719Y-117589636D01*
X88569601Y-117630924D01*
X88397019Y-117688789D01*
X88236310Y-117763520D01*
X88086810Y-117855409D01*
X87947857Y-117964745D01*
X87868216Y-118039905D01*
X87754008Y-118168457D01*
X87657551Y-118306597D01*
X87577536Y-118456465D01*
X87512655Y-118620202D01*
X87511660Y-118623164D01*
X87483362Y-118715673D01*
X87462006Y-118805535D01*
X87446685Y-118898431D01*
X87436492Y-119000042D01*
X87430519Y-119116051D01*
X87429934Y-119134938D01*
X87428265Y-119247655D01*
X86596851Y-119247655D01*
X86594068Y-119141487D01*
X86606984Y-118914489D01*
X86638657Y-118694623D01*
X86688812Y-118482701D01*
X86757176Y-118279534D01*
X86843474Y-118085936D01*
X86947432Y-117902719D01*
X87068776Y-117730695D01*
X87207232Y-117570677D01*
X87210041Y-117567743D01*
X87365353Y-117420383D01*
X87533319Y-117289070D01*
X87714304Y-117173628D01*
X87908673Y-117073882D01*
X88116791Y-116989654D01*
X88339022Y-116920770D01*
X88575732Y-116867053D01*
X88707583Y-116844611D01*
X88760991Y-116838773D01*
X88831289Y-116834460D01*
X88914259Y-116831640D01*
X89005681Y-116830283D01*
X89101337Y-116830358D01*
G36*
X75959958Y-108333211D02*
G01*
X76078256Y-108334256D01*
X76180289Y-108337326D01*
X76270903Y-108342949D01*
X76354946Y-108351654D01*
X76437266Y-108363969D01*
X76522711Y-108380423D01*
X76616128Y-108401546D01*
X76640584Y-108407444D01*
X76848375Y-108465453D01*
X77055593Y-108537578D01*
X77259360Y-108622314D01*
X77456799Y-108718151D01*
X77645032Y-108823583D01*
X77821180Y-108937101D01*
X77982366Y-109057197D01*
X78125713Y-109182363D01*
X78133158Y-109189495D01*
X78278009Y-109341325D01*
X78403466Y-109499642D01*
X78510199Y-109665781D01*
X78598876Y-109841079D01*
X78670169Y-110026870D01*
X78724745Y-110224490D01*
X78763275Y-110435276D01*
X78765434Y-110450890D01*
X78773924Y-110532745D01*
X78779837Y-110630340D01*
X78783172Y-110738408D01*
X78783928Y-110851679D01*
X78782105Y-110964885D01*
X78777703Y-111072758D01*
X78770721Y-111170029D01*
X78765493Y-111219485D01*
X78725713Y-111485338D01*
X78670127Y-111759195D01*
X78598522Y-112041734D01*
X78510688Y-112333636D01*
X78406413Y-112635582D01*
X78285486Y-112948251D01*
X78147695Y-113272323D01*
X78082069Y-113417833D01*
X78038339Y-113511016D01*
X77985823Y-113619275D01*
X77926223Y-113739300D01*
X77861242Y-113867784D01*
X77792584Y-114001417D01*
X77721953Y-114136890D01*
X77651050Y-114270896D01*
X77581580Y-114400124D01*
X77515246Y-114521266D01*
X77499157Y-114550250D01*
X77433660Y-114669446D01*
X77364494Y-114798160D01*
X77293310Y-114933143D01*
X77221756Y-115071144D01*
X77151484Y-115208912D01*
X77084142Y-115343197D01*
X77021382Y-115470750D01*
X76964852Y-115588318D01*
X76916202Y-115692654D01*
X76892095Y-115746166D01*
X76749273Y-116082455D01*
X76622021Y-116411422D01*
X76510492Y-116732447D01*
X76414839Y-117044910D01*
X76335213Y-117348191D01*
X76271768Y-117641669D01*
X76224655Y-117924723D01*
X76194028Y-118196734D01*
X76180039Y-118457080D01*
X76180457Y-118640708D01*
X76190291Y-118831847D01*
X76209172Y-119006630D01*
X76237765Y-119168139D01*
X76276737Y-119319452D01*
X76326752Y-119463652D01*
X76388462Y-119603791D01*
X76453336Y-119725210D01*
X76522565Y-119830609D01*
X76599709Y-119925122D01*
X76642049Y-119969589D01*
X76763735Y-120076833D01*
X76896558Y-120166642D01*
X77039186Y-120238683D01*
X77190287Y-120292627D01*
X77348530Y-120328142D01*
X77512582Y-120344896D01*
X77681112Y-120342559D01*
X77852787Y-120320799D01*
X77960208Y-120297412D01*
X78114745Y-120250548D01*
X78260282Y-120189762D01*
X78399350Y-120113550D01*
X78534480Y-120020403D01*
X78668201Y-119908815D01*
X78759854Y-119821400D01*
X78867556Y-119707941D01*
X78964489Y-119592988D01*
X79053743Y-119472218D01*
X79138407Y-119341309D01*
X79221572Y-119195936D01*
X79263308Y-119116958D01*
X79338472Y-118961521D01*
X79407896Y-118798498D01*
X79470533Y-118631349D01*
X79525335Y-118463538D01*
X79571254Y-118298525D01*
X79607243Y-118139773D01*
X79632254Y-117990744D01*
X79645239Y-117854900D01*
X79645239Y-117854895D01*
X79648214Y-117807561D01*
X79651633Y-117769149D01*
X79655052Y-117743877D01*
X79657760Y-117735853D01*
X79667809Y-117744517D01*
X79685079Y-117767656D01*
X79706876Y-117801043D01*
X79730506Y-117840453D01*
X79753276Y-117881660D01*
X79763707Y-117902042D01*
X79823635Y-118041056D01*
X79874841Y-118197860D01*
X79917029Y-118370829D01*
X79949905Y-118558336D01*
X79973173Y-118758757D01*
X79986538Y-118970464D01*
X79989903Y-119148708D01*
X79980592Y-119442566D01*
X79952667Y-119726570D01*
X79906043Y-120001092D01*
X79840639Y-120266505D01*
X79756372Y-120523179D01*
X79653159Y-120771486D01*
X79609211Y-120863208D01*
X79483573Y-121093326D01*
X79342757Y-121308722D01*
X79186844Y-121509351D01*
X79015912Y-121695163D01*
X78830039Y-121866113D01*
X78629304Y-122022152D01*
X78413785Y-122163234D01*
X78183561Y-122289310D01*
X77938710Y-122400333D01*
X77679311Y-122496257D01*
X77405443Y-122577033D01*
X77117184Y-122642614D01*
X76814613Y-122692954D01*
X76520875Y-122726011D01*
X76441047Y-122731964D01*
X76348388Y-122737063D01*
X76246994Y-122741233D01*
X76140965Y-122744400D01*
X76034398Y-122746490D01*
X75931390Y-122747427D01*
X75836040Y-122747138D01*
X75752445Y-122745549D01*
X75684703Y-122742584D01*
X75668916Y-122741481D01*
X75464398Y-122719710D01*
X75250361Y-122685986D01*
X75033773Y-122641632D01*
X74821604Y-122587969D01*
X74749020Y-122567036D01*
X74497278Y-122484054D01*
X74242386Y-122384911D01*
X73987822Y-122271445D01*
X73737064Y-122145494D01*
X73493591Y-122008898D01*
X73260880Y-121863495D01*
X73042411Y-121711122D01*
X72859041Y-121568064D01*
X72821610Y-121537217D01*
X72788725Y-121510258D01*
X72764816Y-121490809D01*
X72756150Y-121483883D01*
X72747577Y-121479783D01*
X72735864Y-121480818D01*
X72718299Y-121488460D01*
X72692165Y-121504181D01*
X72654750Y-121529452D01*
X72603340Y-121565747D01*
X72597400Y-121569985D01*
X72338749Y-121745833D01*
X72080854Y-121903610D01*
X71824482Y-122042968D01*
X71570399Y-122163559D01*
X71319371Y-122265035D01*
X71072164Y-122347046D01*
X70829545Y-122409245D01*
X70693726Y-122435678D01*
X70619736Y-122445905D01*
X70531225Y-122454193D01*
X70433588Y-122460371D01*
X70332215Y-122464269D01*
X70232498Y-122465717D01*
X70139830Y-122464543D01*
X70059603Y-122460578D01*
X70021076Y-122456953D01*
X69790269Y-122419264D01*
X69562764Y-122360832D01*
X69338949Y-122281881D01*
X69119207Y-122182633D01*
X68903925Y-122063310D01*
X68693490Y-121924135D01*
X68488286Y-121765331D01*
X68288699Y-121587119D01*
X68095116Y-121389723D01*
X68014406Y-121299673D01*
X67962963Y-121241968D01*
X67922823Y-121199597D01*
X67894438Y-121173008D01*
X67878262Y-121162647D01*
X67875493Y-121162992D01*
X67862245Y-121173265D01*
X67836916Y-121193081D01*
X67804049Y-121218881D01*
X67789226Y-121230538D01*
X67564116Y-121397320D01*
X67339548Y-121542956D01*
X67115492Y-121667457D01*
X66891919Y-121770837D01*
X66668802Y-121853107D01*
X66446111Y-121914279D01*
X66223818Y-121954367D01*
X66081287Y-121968998D01*
X65893364Y-121973029D01*
X65709466Y-121957396D01*
X65527987Y-121921772D01*
X65347320Y-121865830D01*
X65165857Y-121789246D01*
X65144462Y-121778903D01*
X64953248Y-121673869D01*
X64767559Y-121549227D01*
X64587992Y-121405959D01*
X64415146Y-121245041D01*
X64249618Y-121067453D01*
X64092005Y-120874173D01*
X63942905Y-120666181D01*
X63802916Y-120444454D01*
X63672635Y-120209972D01*
X63552659Y-119963713D01*
X63443587Y-119706656D01*
X63346015Y-119439780D01*
X63260541Y-119164063D01*
X63187763Y-118880484D01*
X63128278Y-118590022D01*
X63102454Y-118434333D01*
X63081798Y-118290509D01*
X63065634Y-118157367D01*
X63053410Y-118028310D01*
X63044577Y-117896741D01*
X63038585Y-117756063D01*
X63035420Y-117630000D01*
X63033882Y-117445749D01*
X63036772Y-117276367D01*
X63044372Y-117115968D01*
X63056963Y-116958663D01*
X63074826Y-116798566D01*
X63075414Y-116793916D01*
X63116361Y-116526401D01*
X63169922Y-116268229D01*
X63235591Y-116020197D01*
X63312864Y-115783099D01*
X63401232Y-115557730D01*
X63500191Y-115344885D01*
X63609235Y-115145359D01*
X63727857Y-114959948D01*
X63855551Y-114789446D01*
X63991812Y-114634648D01*
X64136133Y-114496349D01*
X64288008Y-114375345D01*
X64446931Y-114272431D01*
X64612396Y-114188401D01*
X64772495Y-114127646D01*
X64909579Y-114089861D01*
X65042817Y-114066273D01*
X65179888Y-114055852D01*
X65302541Y-114056479D01*
X65377192Y-114060271D01*
X65447619Y-114065877D01*
X65510501Y-114072858D01*
X65562520Y-114080778D01*
X65600355Y-114089198D01*
X65620686Y-114097682D01*
X65621646Y-114098535D01*
X65622270Y-114110695D01*
X65619766Y-114140105D01*
X65614557Y-114183149D01*
X65607067Y-114236211D01*
X65600684Y-114277440D01*
X65556870Y-114595835D01*
X65526103Y-114920329D01*
X65508511Y-115246621D01*
X65504226Y-115570415D01*
X65513376Y-115887412D01*
X65536092Y-116193312D01*
X65541278Y-116243583D01*
X65591824Y-116616577D01*
X65662472Y-116983257D01*
X65753033Y-117343162D01*
X65863319Y-117695834D01*
X65993139Y-118040812D01*
X66142306Y-118377635D01*
X66310630Y-118705844D01*
X66497922Y-119024979D01*
X66703994Y-119334580D01*
X66928655Y-119634187D01*
X66940257Y-119648752D01*
X66983721Y-119703202D01*
X67015736Y-119743254D01*
X67038134Y-119770992D01*
X67052749Y-119788495D01*
X67061417Y-119797848D01*
X67065970Y-119801131D01*
X67068243Y-119800426D01*
X67070070Y-119797815D01*
X67070815Y-119796962D01*
X67068986Y-119785683D01*
X67060207Y-119758001D01*
X67045604Y-119717076D01*
X67026307Y-119666069D01*
X67003443Y-119608140D01*
X67003123Y-119607344D01*
X66867140Y-119241587D01*
X66749190Y-118864974D01*
X66649348Y-118477855D01*
X66567687Y-118080578D01*
X66504283Y-117673493D01*
X66459210Y-117256949D01*
X66439364Y-116973833D01*
X66435488Y-116882114D01*
X66432927Y-116774506D01*
X66431627Y-116654952D01*
X66431533Y-116527394D01*
X66432591Y-116395775D01*
X66434746Y-116264035D01*
X66437943Y-116136119D01*
X66442128Y-116015967D01*
X66447246Y-115907523D01*
X66453243Y-115814728D01*
X66455846Y-115783208D01*
X66499473Y-115388197D01*
X66558945Y-115002908D01*
X66634030Y-114628189D01*
X66724492Y-114264883D01*
X66830100Y-113913837D01*
X66950619Y-113575895D01*
X67085815Y-113251903D01*
X67235455Y-112942706D01*
X67247107Y-112920416D01*
X67394774Y-112655922D01*
X67551539Y-112406768D01*
X67716840Y-112173458D01*
X67890118Y-111956499D01*
X68070813Y-111756395D01*
X68258364Y-111573651D01*
X68452213Y-111408773D01*
X68651798Y-111262264D01*
X68856560Y-111134631D01*
X69065938Y-111026378D01*
X69279374Y-110938010D01*
X69496306Y-110870033D01*
X69530345Y-110861320D01*
X69756045Y-110815756D01*
X69981243Y-110791166D01*
X70205403Y-110787552D01*
X70427990Y-110804916D01*
X70648468Y-110843259D01*
X70710625Y-110857974D01*
X70758301Y-110870737D01*
X70811981Y-110886411D01*
X70867989Y-110903765D01*
X70922650Y-110921565D01*
X70972288Y-110938580D01*
X71013228Y-110953579D01*
X71041795Y-110965328D01*
X71054315Y-110972596D01*
X71054583Y-110973273D01*
X71050401Y-110985883D01*
X71039153Y-111013047D01*
X71022790Y-111050169D01*
X71011369Y-111075217D01*
X70850974Y-111444928D01*
X70703940Y-111829173D01*
X70570882Y-112225583D01*
X70452415Y-112631792D01*
X70349154Y-113045434D01*
X70261715Y-113464142D01*
X70190712Y-113885549D01*
X70136761Y-114307288D01*
X70116290Y-114518500D01*
X70111000Y-114593624D01*
X70106503Y-114685280D01*
X70102813Y-114790165D01*
X70099946Y-114904976D01*
X70097916Y-115026411D01*
X70096739Y-115151166D01*
X70096430Y-115275939D01*
X70097003Y-115397427D01*
X70098474Y-115512326D01*
X70100857Y-115617335D01*
X70104168Y-115709151D01*
X70108421Y-115784470D01*
X70110427Y-115809666D01*
X70148726Y-116162628D01*
X70199711Y-116500015D01*
X70263832Y-116823523D01*
X70341540Y-117134850D01*
X70433286Y-117435691D01*
X70539521Y-117727744D01*
X70660694Y-118012706D01*
X70739424Y-118178291D01*
X70773626Y-118245576D01*
X70812532Y-118318879D01*
X70854825Y-118396002D01*
X70899188Y-118474749D01*
X70944304Y-118552923D01*
X70988855Y-118628327D01*
X71031524Y-118698765D01*
X71070993Y-118762040D01*
X71105947Y-118815955D01*
X71135066Y-118858314D01*
X71157034Y-118886919D01*
X71170534Y-118899574D01*
X71172202Y-118900000D01*
X71176576Y-118900272D01*
X71179309Y-118899067D01*
X71179855Y-118893351D01*
X71177671Y-118880092D01*
X71172210Y-118856255D01*
X71162928Y-118818808D01*
X71149280Y-118764717D01*
X71144461Y-118745618D01*
X71065228Y-118392412D01*
X71002262Y-118026424D01*
X70955538Y-117648386D01*
X70925033Y-117259030D01*
X70910723Y-116859089D01*
X70912583Y-116449295D01*
X70930589Y-116030379D01*
X70964718Y-115603074D01*
X71014944Y-115168113D01*
X71081244Y-114726226D01*
X71163593Y-114278147D01*
X71261969Y-113824608D01*
X71313782Y-113609572D01*
X71400062Y-113277885D01*
X71489650Y-112964421D01*
X71583549Y-112666364D01*
X71682760Y-112380896D01*
X71788284Y-112105201D01*
X71901123Y-111836461D01*
X72022278Y-111571860D01*
X72081782Y-111449333D01*
X72247243Y-111130707D01*
X72421191Y-110826738D01*
X72603146Y-110537884D01*
X72792632Y-110264605D01*
X72989170Y-110007361D01*
X73192280Y-109766611D01*
X73401486Y-109542814D01*
X73616308Y-109336430D01*
X73836268Y-109147919D01*
X74060888Y-108977738D01*
X74289689Y-108826349D01*
X74522193Y-108694211D01*
X74757922Y-108581782D01*
X74996397Y-108489522D01*
X75237140Y-108417891D01*
X75238753Y-108417484D01*
X75338145Y-108393122D01*
X75424972Y-108373820D01*
X75503982Y-108359023D01*
X75579921Y-108348177D01*
X75657538Y-108340725D01*
X75741581Y-108336115D01*
X75836795Y-108333790D01*
X75947930Y-108333197D01*
X75959958Y-108333211D01*
G37*
X75959958Y-108333211D02*
X76078256Y-108334256D01*
X76180289Y-108337326D01*
X76270903Y-108342949D01*
X76354946Y-108351654D01*
X76437266Y-108363969D01*
X76522711Y-108380423D01*
X76616128Y-108401546D01*
X76640584Y-108407444D01*
X76848375Y-108465453D01*
X77055593Y-108537578D01*
X77259360Y-108622314D01*
X77456799Y-108718151D01*
X77645032Y-108823583D01*
X77821180Y-108937101D01*
X77982366Y-109057197D01*
X78125713Y-109182363D01*
X78133158Y-109189495D01*
X78278009Y-109341325D01*
X78403466Y-109499642D01*
X78510199Y-109665781D01*
X78598876Y-109841079D01*
X78670169Y-110026870D01*
X78724745Y-110224490D01*
X78763275Y-110435276D01*
X78765434Y-110450890D01*
X78773924Y-110532745D01*
X78779837Y-110630340D01*
X78783172Y-110738408D01*
X78783928Y-110851679D01*
X78782105Y-110964885D01*
X78777703Y-111072758D01*
X78770721Y-111170029D01*
X78765493Y-111219485D01*
X78725713Y-111485338D01*
X78670127Y-111759195D01*
X78598522Y-112041734D01*
X78510688Y-112333636D01*
X78406413Y-112635582D01*
X78285486Y-112948251D01*
X78147695Y-113272323D01*
X78082069Y-113417833D01*
X78038339Y-113511016D01*
X77985823Y-113619275D01*
X77926223Y-113739300D01*
X77861242Y-113867784D01*
X77792584Y-114001417D01*
X77721953Y-114136890D01*
X77651050Y-114270896D01*
X77581580Y-114400124D01*
X77515246Y-114521266D01*
X77499157Y-114550250D01*
X77433660Y-114669446D01*
X77364494Y-114798160D01*
X77293310Y-114933143D01*
X77221756Y-115071144D01*
X77151484Y-115208912D01*
X77084142Y-115343197D01*
X77021382Y-115470750D01*
X76964852Y-115588318D01*
X76916202Y-115692654D01*
X76892095Y-115746166D01*
X76749273Y-116082455D01*
X76622021Y-116411422D01*
X76510492Y-116732447D01*
X76414839Y-117044910D01*
X76335213Y-117348191D01*
X76271768Y-117641669D01*
X76224655Y-117924723D01*
X76194028Y-118196734D01*
X76180039Y-118457080D01*
X76180457Y-118640708D01*
X76190291Y-118831847D01*
X76209172Y-119006630D01*
X76237765Y-119168139D01*
X76276737Y-119319452D01*
X76326752Y-119463652D01*
X76388462Y-119603791D01*
X76453336Y-119725210D01*
X76522565Y-119830609D01*
X76599709Y-119925122D01*
X76642049Y-119969589D01*
X76763735Y-120076833D01*
X76896558Y-120166642D01*
X77039186Y-120238683D01*
X77190287Y-120292627D01*
X77348530Y-120328142D01*
X77512582Y-120344896D01*
X77681112Y-120342559D01*
X77852787Y-120320799D01*
X77960208Y-120297412D01*
X78114745Y-120250548D01*
X78260282Y-120189762D01*
X78399350Y-120113550D01*
X78534480Y-120020403D01*
X78668201Y-119908815D01*
X78759854Y-119821400D01*
X78867556Y-119707941D01*
X78964489Y-119592988D01*
X79053743Y-119472218D01*
X79138407Y-119341309D01*
X79221572Y-119195936D01*
X79263308Y-119116958D01*
X79338472Y-118961521D01*
X79407896Y-118798498D01*
X79470533Y-118631349D01*
X79525335Y-118463538D01*
X79571254Y-118298525D01*
X79607243Y-118139773D01*
X79632254Y-117990744D01*
X79645239Y-117854900D01*
X79645239Y-117854895D01*
X79648214Y-117807561D01*
X79651633Y-117769149D01*
X79655052Y-117743877D01*
X79657760Y-117735853D01*
X79667809Y-117744517D01*
X79685079Y-117767656D01*
X79706876Y-117801043D01*
X79730506Y-117840453D01*
X79753276Y-117881660D01*
X79763707Y-117902042D01*
X79823635Y-118041056D01*
X79874841Y-118197860D01*
X79917029Y-118370829D01*
X79949905Y-118558336D01*
X79973173Y-118758757D01*
X79986538Y-118970464D01*
X79989903Y-119148708D01*
X79980592Y-119442566D01*
X79952667Y-119726570D01*
X79906043Y-120001092D01*
X79840639Y-120266505D01*
X79756372Y-120523179D01*
X79653159Y-120771486D01*
X79609211Y-120863208D01*
X79483573Y-121093326D01*
X79342757Y-121308722D01*
X79186844Y-121509351D01*
X79015912Y-121695163D01*
X78830039Y-121866113D01*
X78629304Y-122022152D01*
X78413785Y-122163234D01*
X78183561Y-122289310D01*
X77938710Y-122400333D01*
X77679311Y-122496257D01*
X77405443Y-122577033D01*
X77117184Y-122642614D01*
X76814613Y-122692954D01*
X76520875Y-122726011D01*
X76441047Y-122731964D01*
X76348388Y-122737063D01*
X76246994Y-122741233D01*
X76140965Y-122744400D01*
X76034398Y-122746490D01*
X75931390Y-122747427D01*
X75836040Y-122747138D01*
X75752445Y-122745549D01*
X75684703Y-122742584D01*
X75668916Y-122741481D01*
X75464398Y-122719710D01*
X75250361Y-122685986D01*
X75033773Y-122641632D01*
X74821604Y-122587969D01*
X74749020Y-122567036D01*
X74497278Y-122484054D01*
X74242386Y-122384911D01*
X73987822Y-122271445D01*
X73737064Y-122145494D01*
X73493591Y-122008898D01*
X73260880Y-121863495D01*
X73042411Y-121711122D01*
X72859041Y-121568064D01*
X72821610Y-121537217D01*
X72788725Y-121510258D01*
X72764816Y-121490809D01*
X72756150Y-121483883D01*
X72747577Y-121479783D01*
X72735864Y-121480818D01*
X72718299Y-121488460D01*
X72692165Y-121504181D01*
X72654750Y-121529452D01*
X72603340Y-121565747D01*
X72597400Y-121569985D01*
X72338749Y-121745833D01*
X72080854Y-121903610D01*
X71824482Y-122042968D01*
X71570399Y-122163559D01*
X71319371Y-122265035D01*
X71072164Y-122347046D01*
X70829545Y-122409245D01*
X70693726Y-122435678D01*
X70619736Y-122445905D01*
X70531225Y-122454193D01*
X70433588Y-122460371D01*
X70332215Y-122464269D01*
X70232498Y-122465717D01*
X70139830Y-122464543D01*
X70059603Y-122460578D01*
X70021076Y-122456953D01*
X69790269Y-122419264D01*
X69562764Y-122360832D01*
X69338949Y-122281881D01*
X69119207Y-122182633D01*
X68903925Y-122063310D01*
X68693490Y-121924135D01*
X68488286Y-121765331D01*
X68288699Y-121587119D01*
X68095116Y-121389723D01*
X68014406Y-121299673D01*
X67962963Y-121241968D01*
X67922823Y-121199597D01*
X67894438Y-121173008D01*
X67878262Y-121162647D01*
X67875493Y-121162992D01*
X67862245Y-121173265D01*
X67836916Y-121193081D01*
X67804049Y-121218881D01*
X67789226Y-121230538D01*
X67564116Y-121397320D01*
X67339548Y-121542956D01*
X67115492Y-121667457D01*
X66891919Y-121770837D01*
X66668802Y-121853107D01*
X66446111Y-121914279D01*
X66223818Y-121954367D01*
X66081287Y-121968998D01*
X65893364Y-121973029D01*
X65709466Y-121957396D01*
X65527987Y-121921772D01*
X65347320Y-121865830D01*
X65165857Y-121789246D01*
X65144462Y-121778903D01*
X64953248Y-121673869D01*
X64767559Y-121549227D01*
X64587992Y-121405959D01*
X64415146Y-121245041D01*
X64249618Y-121067453D01*
X64092005Y-120874173D01*
X63942905Y-120666181D01*
X63802916Y-120444454D01*
X63672635Y-120209972D01*
X63552659Y-119963713D01*
X63443587Y-119706656D01*
X63346015Y-119439780D01*
X63260541Y-119164063D01*
X63187763Y-118880484D01*
X63128278Y-118590022D01*
X63102454Y-118434333D01*
X63081798Y-118290509D01*
X63065634Y-118157367D01*
X63053410Y-118028310D01*
X63044577Y-117896741D01*
X63038585Y-117756063D01*
X63035420Y-117630000D01*
X63033882Y-117445749D01*
X63036772Y-117276367D01*
X63044372Y-117115968D01*
X63056963Y-116958663D01*
X63074826Y-116798566D01*
X63075414Y-116793916D01*
X63116361Y-116526401D01*
X63169922Y-116268229D01*
X63235591Y-116020197D01*
X63312864Y-115783099D01*
X63401232Y-115557730D01*
X63500191Y-115344885D01*
X63609235Y-115145359D01*
X63727857Y-114959948D01*
X63855551Y-114789446D01*
X63991812Y-114634648D01*
X64136133Y-114496349D01*
X64288008Y-114375345D01*
X64446931Y-114272431D01*
X64612396Y-114188401D01*
X64772495Y-114127646D01*
X64909579Y-114089861D01*
X65042817Y-114066273D01*
X65179888Y-114055852D01*
X65302541Y-114056479D01*
X65377192Y-114060271D01*
X65447619Y-114065877D01*
X65510501Y-114072858D01*
X65562520Y-114080778D01*
X65600355Y-114089198D01*
X65620686Y-114097682D01*
X65621646Y-114098535D01*
X65622270Y-114110695D01*
X65619766Y-114140105D01*
X65614557Y-114183149D01*
X65607067Y-114236211D01*
X65600684Y-114277440D01*
X65556870Y-114595835D01*
X65526103Y-114920329D01*
X65508511Y-115246621D01*
X65504226Y-115570415D01*
X65513376Y-115887412D01*
X65536092Y-116193312D01*
X65541278Y-116243583D01*
X65591824Y-116616577D01*
X65662472Y-116983257D01*
X65753033Y-117343162D01*
X65863319Y-117695834D01*
X65993139Y-118040812D01*
X66142306Y-118377635D01*
X66310630Y-118705844D01*
X66497922Y-119024979D01*
X66703994Y-119334580D01*
X66928655Y-119634187D01*
X66940257Y-119648752D01*
X66983721Y-119703202D01*
X67015736Y-119743254D01*
X67038134Y-119770992D01*
X67052749Y-119788495D01*
X67061417Y-119797848D01*
X67065970Y-119801131D01*
X67068243Y-119800426D01*
X67070070Y-119797815D01*
X67070815Y-119796962D01*
X67068986Y-119785683D01*
X67060207Y-119758001D01*
X67045604Y-119717076D01*
X67026307Y-119666069D01*
X67003443Y-119608140D01*
X67003123Y-119607344D01*
X66867140Y-119241587D01*
X66749190Y-118864974D01*
X66649348Y-118477855D01*
X66567687Y-118080578D01*
X66504283Y-117673493D01*
X66459210Y-117256949D01*
X66439364Y-116973833D01*
X66435488Y-116882114D01*
X66432927Y-116774506D01*
X66431627Y-116654952D01*
X66431533Y-116527394D01*
X66432591Y-116395775D01*
X66434746Y-116264035D01*
X66437943Y-116136119D01*
X66442128Y-116015967D01*
X66447246Y-115907523D01*
X66453243Y-115814728D01*
X66455846Y-115783208D01*
X66499473Y-115388197D01*
X66558945Y-115002908D01*
X66634030Y-114628189D01*
X66724492Y-114264883D01*
X66830100Y-113913837D01*
X66950619Y-113575895D01*
X67085815Y-113251903D01*
X67235455Y-112942706D01*
X67247107Y-112920416D01*
X67394774Y-112655922D01*
X67551539Y-112406768D01*
X67716840Y-112173458D01*
X67890118Y-111956499D01*
X68070813Y-111756395D01*
X68258364Y-111573651D01*
X68452213Y-111408773D01*
X68651798Y-111262264D01*
X68856560Y-111134631D01*
X69065938Y-111026378D01*
X69279374Y-110938010D01*
X69496306Y-110870033D01*
X69530345Y-110861320D01*
X69756045Y-110815756D01*
X69981243Y-110791166D01*
X70205403Y-110787552D01*
X70427990Y-110804916D01*
X70648468Y-110843259D01*
X70710625Y-110857974D01*
X70758301Y-110870737D01*
X70811981Y-110886411D01*
X70867989Y-110903765D01*
X70922650Y-110921565D01*
X70972288Y-110938580D01*
X71013228Y-110953579D01*
X71041795Y-110965328D01*
X71054315Y-110972596D01*
X71054583Y-110973273D01*
X71050401Y-110985883D01*
X71039153Y-111013047D01*
X71022790Y-111050169D01*
X71011369Y-111075217D01*
X70850974Y-111444928D01*
X70703940Y-111829173D01*
X70570882Y-112225583D01*
X70452415Y-112631792D01*
X70349154Y-113045434D01*
X70261715Y-113464142D01*
X70190712Y-113885549D01*
X70136761Y-114307288D01*
X70116290Y-114518500D01*
X70111000Y-114593624D01*
X70106503Y-114685280D01*
X70102813Y-114790165D01*
X70099946Y-114904976D01*
X70097916Y-115026411D01*
X70096739Y-115151166D01*
X70096430Y-115275939D01*
X70097003Y-115397427D01*
X70098474Y-115512326D01*
X70100857Y-115617335D01*
X70104168Y-115709151D01*
X70108421Y-115784470D01*
X70110427Y-115809666D01*
X70148726Y-116162628D01*
X70199711Y-116500015D01*
X70263832Y-116823523D01*
X70341540Y-117134850D01*
X70433286Y-117435691D01*
X70539521Y-117727744D01*
X70660694Y-118012706D01*
X70739424Y-118178291D01*
X70773626Y-118245576D01*
X70812532Y-118318879D01*
X70854825Y-118396002D01*
X70899188Y-118474749D01*
X70944304Y-118552923D01*
X70988855Y-118628327D01*
X71031524Y-118698765D01*
X71070993Y-118762040D01*
X71105947Y-118815955D01*
X71135066Y-118858314D01*
X71157034Y-118886919D01*
X71170534Y-118899574D01*
X71172202Y-118900000D01*
X71176576Y-118900272D01*
X71179309Y-118899067D01*
X71179855Y-118893351D01*
X71177671Y-118880092D01*
X71172210Y-118856255D01*
X71162928Y-118818808D01*
X71149280Y-118764717D01*
X71144461Y-118745618D01*
X71065228Y-118392412D01*
X71002262Y-118026424D01*
X70955538Y-117648386D01*
X70925033Y-117259030D01*
X70910723Y-116859089D01*
X70912583Y-116449295D01*
X70930589Y-116030379D01*
X70964718Y-115603074D01*
X71014944Y-115168113D01*
X71081244Y-114726226D01*
X71163593Y-114278147D01*
X71261969Y-113824608D01*
X71313782Y-113609572D01*
X71400062Y-113277885D01*
X71489650Y-112964421D01*
X71583549Y-112666364D01*
X71682760Y-112380896D01*
X71788284Y-112105201D01*
X71901123Y-111836461D01*
X72022278Y-111571860D01*
X72081782Y-111449333D01*
X72247243Y-111130707D01*
X72421191Y-110826738D01*
X72603146Y-110537884D01*
X72792632Y-110264605D01*
X72989170Y-110007361D01*
X73192280Y-109766611D01*
X73401486Y-109542814D01*
X73616308Y-109336430D01*
X73836268Y-109147919D01*
X74060888Y-108977738D01*
X74289689Y-108826349D01*
X74522193Y-108694211D01*
X74757922Y-108581782D01*
X74996397Y-108489522D01*
X75237140Y-108417891D01*
X75238753Y-108417484D01*
X75338145Y-108393122D01*
X75424972Y-108373820D01*
X75503982Y-108359023D01*
X75579921Y-108348177D01*
X75657538Y-108340725D01*
X75741581Y-108336115D01*
X75836795Y-108333790D01*
X75947930Y-108333197D01*
X75959958Y-108333211D01*
D11*
X79500000Y-105500000D03*
X79500000Y-86750000D03*
X155500000Y-83000000D03*
X122750000Y-122750000D03*
X169250000Y-130500000D03*
M02*
