G04 #@! TF.GenerationSoftware,KiCad,Pcbnew,5.1.5+dfsg1-2~bpo10+1*
G04 #@! TF.CreationDate,2020-09-05T13:18:24+00:00*
G04 #@! TF.ProjectId,corne-bottom-plate,636f726e-652d-4626-9f74-746f6d2d706c,2.1*
G04 #@! TF.SameCoordinates,Original*
G04 #@! TF.FileFunction,Soldermask,Bot*
G04 #@! TF.FilePolarity,Negative*
%FSLAX46Y46*%
G04 Gerber Fmt 4.6, Leading zero omitted, Abs format (unit mm)*
G04 Created by KiCad (PCBNEW 5.1.5+dfsg1-2~bpo10+1) date 2020-09-05 13:18:24*
%MOMM*%
%LPD*%
G04 APERTURE LIST*
%ADD10C,0.010000*%
%ADD11C,4.400000*%
G04 APERTURE END LIST*
D10*
G36*
X91790042Y-108333211D02*
G01*
X91671744Y-108334256D01*
X91569711Y-108337326D01*
X91479097Y-108342949D01*
X91395054Y-108351654D01*
X91312734Y-108363969D01*
X91227289Y-108380423D01*
X91133872Y-108401546D01*
X91109416Y-108407444D01*
X90901625Y-108465453D01*
X90694407Y-108537578D01*
X90490640Y-108622314D01*
X90293201Y-108718151D01*
X90104968Y-108823583D01*
X89928820Y-108937101D01*
X89767634Y-109057197D01*
X89624287Y-109182363D01*
X89616842Y-109189495D01*
X89471991Y-109341325D01*
X89346534Y-109499642D01*
X89239801Y-109665781D01*
X89151124Y-109841079D01*
X89079831Y-110026870D01*
X89025255Y-110224490D01*
X88986725Y-110435276D01*
X88984566Y-110450890D01*
X88976076Y-110532745D01*
X88970163Y-110630340D01*
X88966828Y-110738408D01*
X88966072Y-110851679D01*
X88967895Y-110964885D01*
X88972297Y-111072758D01*
X88979279Y-111170029D01*
X88984507Y-111219485D01*
X89024287Y-111485338D01*
X89079873Y-111759195D01*
X89151478Y-112041734D01*
X89239312Y-112333636D01*
X89343587Y-112635582D01*
X89464514Y-112948251D01*
X89602305Y-113272323D01*
X89667931Y-113417833D01*
X89711661Y-113511016D01*
X89764177Y-113619275D01*
X89823777Y-113739300D01*
X89888758Y-113867784D01*
X89957416Y-114001417D01*
X90028047Y-114136890D01*
X90098950Y-114270896D01*
X90168420Y-114400124D01*
X90234754Y-114521266D01*
X90250843Y-114550250D01*
X90316340Y-114669446D01*
X90385506Y-114798160D01*
X90456690Y-114933143D01*
X90528244Y-115071144D01*
X90598516Y-115208912D01*
X90665858Y-115343197D01*
X90728618Y-115470750D01*
X90785148Y-115588318D01*
X90833798Y-115692654D01*
X90857905Y-115746166D01*
X91000727Y-116082455D01*
X91127979Y-116411422D01*
X91239508Y-116732447D01*
X91335161Y-117044910D01*
X91414787Y-117348191D01*
X91478232Y-117641669D01*
X91525345Y-117924723D01*
X91555972Y-118196734D01*
X91569961Y-118457080D01*
X91569543Y-118640708D01*
X91559709Y-118831847D01*
X91540828Y-119006630D01*
X91512235Y-119168139D01*
X91473263Y-119319452D01*
X91423248Y-119463652D01*
X91361538Y-119603791D01*
X91296664Y-119725210D01*
X91227435Y-119830609D01*
X91150291Y-119925122D01*
X91107951Y-119969589D01*
X90986265Y-120076833D01*
X90853442Y-120166642D01*
X90710814Y-120238683D01*
X90559713Y-120292627D01*
X90401470Y-120328142D01*
X90237418Y-120344896D01*
X90068888Y-120342559D01*
X89897213Y-120320799D01*
X89789792Y-120297412D01*
X89635255Y-120250548D01*
X89489718Y-120189762D01*
X89350650Y-120113550D01*
X89215520Y-120020403D01*
X89081799Y-119908815D01*
X88990146Y-119821400D01*
X88882444Y-119707941D01*
X88785511Y-119592988D01*
X88696257Y-119472218D01*
X88611593Y-119341309D01*
X88528428Y-119195936D01*
X88486692Y-119116958D01*
X88411528Y-118961521D01*
X88342104Y-118798498D01*
X88279467Y-118631349D01*
X88224665Y-118463538D01*
X88178746Y-118298525D01*
X88142757Y-118139773D01*
X88117746Y-117990744D01*
X88104761Y-117854900D01*
X88104761Y-117854895D01*
X88101786Y-117807561D01*
X88098367Y-117769149D01*
X88094948Y-117743877D01*
X88092240Y-117735853D01*
X88082191Y-117744517D01*
X88064921Y-117767656D01*
X88043124Y-117801043D01*
X88019494Y-117840453D01*
X87996724Y-117881660D01*
X87986293Y-117902042D01*
X87926365Y-118041056D01*
X87875159Y-118197860D01*
X87832971Y-118370829D01*
X87800095Y-118558336D01*
X87776827Y-118758757D01*
X87763462Y-118970464D01*
X87760097Y-119148708D01*
X87769408Y-119442566D01*
X87797333Y-119726570D01*
X87843957Y-120001092D01*
X87909361Y-120266505D01*
X87993628Y-120523179D01*
X88096841Y-120771486D01*
X88140789Y-120863208D01*
X88266427Y-121093326D01*
X88407243Y-121308722D01*
X88563156Y-121509351D01*
X88734088Y-121695163D01*
X88919961Y-121866113D01*
X89120696Y-122022152D01*
X89336215Y-122163234D01*
X89566439Y-122289310D01*
X89811290Y-122400333D01*
X90070689Y-122496257D01*
X90344557Y-122577033D01*
X90632816Y-122642614D01*
X90935387Y-122692954D01*
X91229125Y-122726011D01*
X91308953Y-122731964D01*
X91401612Y-122737063D01*
X91503006Y-122741233D01*
X91609035Y-122744400D01*
X91715602Y-122746490D01*
X91818610Y-122747427D01*
X91913960Y-122747138D01*
X91997555Y-122745549D01*
X92065297Y-122742584D01*
X92081084Y-122741481D01*
X92285602Y-122719710D01*
X92499639Y-122685986D01*
X92716227Y-122641632D01*
X92928396Y-122587969D01*
X93000980Y-122567036D01*
X93252722Y-122484054D01*
X93507614Y-122384911D01*
X93762178Y-122271445D01*
X94012936Y-122145494D01*
X94256409Y-122008898D01*
X94489120Y-121863495D01*
X94707589Y-121711122D01*
X94890959Y-121568064D01*
X94928390Y-121537217D01*
X94961275Y-121510258D01*
X94985184Y-121490809D01*
X94993850Y-121483883D01*
X95002423Y-121479783D01*
X95014136Y-121480818D01*
X95031701Y-121488460D01*
X95057835Y-121504181D01*
X95095250Y-121529452D01*
X95146660Y-121565747D01*
X95152600Y-121569985D01*
X95411251Y-121745833D01*
X95669146Y-121903610D01*
X95925518Y-122042968D01*
X96179601Y-122163559D01*
X96430629Y-122265035D01*
X96677836Y-122347046D01*
X96920455Y-122409245D01*
X97056274Y-122435678D01*
X97130264Y-122445905D01*
X97218775Y-122454193D01*
X97316412Y-122460371D01*
X97417785Y-122464269D01*
X97517502Y-122465717D01*
X97610170Y-122464543D01*
X97690397Y-122460578D01*
X97728924Y-122456953D01*
X97959731Y-122419264D01*
X98187236Y-122360832D01*
X98411051Y-122281881D01*
X98630793Y-122182633D01*
X98846075Y-122063310D01*
X99056510Y-121924135D01*
X99261714Y-121765331D01*
X99461301Y-121587119D01*
X99654884Y-121389723D01*
X99735594Y-121299673D01*
X99787037Y-121241968D01*
X99827177Y-121199597D01*
X99855562Y-121173008D01*
X99871738Y-121162647D01*
X99874507Y-121162992D01*
X99887755Y-121173265D01*
X99913084Y-121193081D01*
X99945951Y-121218881D01*
X99960774Y-121230538D01*
X100185884Y-121397320D01*
X100410452Y-121542956D01*
X100634508Y-121667457D01*
X100858081Y-121770837D01*
X101081198Y-121853107D01*
X101303889Y-121914279D01*
X101526182Y-121954367D01*
X101668713Y-121968998D01*
X101856636Y-121973029D01*
X102040534Y-121957396D01*
X102222013Y-121921772D01*
X102402680Y-121865830D01*
X102584143Y-121789246D01*
X102605538Y-121778903D01*
X102796752Y-121673869D01*
X102982441Y-121549227D01*
X103162008Y-121405959D01*
X103334854Y-121245041D01*
X103500382Y-121067453D01*
X103657995Y-120874173D01*
X103807095Y-120666181D01*
X103947084Y-120444454D01*
X104077365Y-120209972D01*
X104197341Y-119963713D01*
X104306413Y-119706656D01*
X104403985Y-119439780D01*
X104489459Y-119164063D01*
X104562237Y-118880484D01*
X104621722Y-118590022D01*
X104647546Y-118434333D01*
X104668202Y-118290509D01*
X104684366Y-118157367D01*
X104696590Y-118028310D01*
X104705423Y-117896741D01*
X104711415Y-117756063D01*
X104714580Y-117630000D01*
X104716118Y-117445749D01*
X104713228Y-117276367D01*
X104705628Y-117115968D01*
X104693037Y-116958663D01*
X104675174Y-116798566D01*
X104674586Y-116793916D01*
X104633639Y-116526401D01*
X104580078Y-116268229D01*
X104514409Y-116020197D01*
X104437136Y-115783099D01*
X104348768Y-115557730D01*
X104249809Y-115344885D01*
X104140765Y-115145359D01*
X104022143Y-114959948D01*
X103894449Y-114789446D01*
X103758188Y-114634648D01*
X103613867Y-114496349D01*
X103461992Y-114375345D01*
X103303069Y-114272431D01*
X103137604Y-114188401D01*
X102977505Y-114127646D01*
X102840421Y-114089861D01*
X102707183Y-114066273D01*
X102570112Y-114055852D01*
X102447459Y-114056479D01*
X102372808Y-114060271D01*
X102302381Y-114065877D01*
X102239499Y-114072858D01*
X102187480Y-114080778D01*
X102149645Y-114089198D01*
X102129314Y-114097682D01*
X102128354Y-114098535D01*
X102127730Y-114110695D01*
X102130234Y-114140105D01*
X102135443Y-114183149D01*
X102142933Y-114236211D01*
X102149316Y-114277440D01*
X102193130Y-114595835D01*
X102223897Y-114920329D01*
X102241489Y-115246621D01*
X102245774Y-115570415D01*
X102236624Y-115887412D01*
X102213908Y-116193312D01*
X102208722Y-116243583D01*
X102158176Y-116616577D01*
X102087528Y-116983257D01*
X101996967Y-117343162D01*
X101886681Y-117695834D01*
X101756861Y-118040812D01*
X101607694Y-118377635D01*
X101439370Y-118705844D01*
X101252078Y-119024979D01*
X101046006Y-119334580D01*
X100821345Y-119634187D01*
X100809743Y-119648752D01*
X100766279Y-119703202D01*
X100734264Y-119743254D01*
X100711866Y-119770992D01*
X100697251Y-119788495D01*
X100688583Y-119797848D01*
X100684030Y-119801131D01*
X100681757Y-119800426D01*
X100679930Y-119797815D01*
X100679185Y-119796962D01*
X100681014Y-119785683D01*
X100689793Y-119758001D01*
X100704396Y-119717076D01*
X100723693Y-119666069D01*
X100746557Y-119608140D01*
X100746877Y-119607344D01*
X100882860Y-119241587D01*
X101000810Y-118864974D01*
X101100652Y-118477855D01*
X101182313Y-118080578D01*
X101245717Y-117673493D01*
X101290790Y-117256949D01*
X101310636Y-116973833D01*
X101314512Y-116882114D01*
X101317073Y-116774506D01*
X101318373Y-116654952D01*
X101318467Y-116527394D01*
X101317409Y-116395775D01*
X101315254Y-116264035D01*
X101312057Y-116136119D01*
X101307872Y-116015967D01*
X101302754Y-115907523D01*
X101296757Y-115814728D01*
X101294154Y-115783208D01*
X101250527Y-115388197D01*
X101191055Y-115002908D01*
X101115970Y-114628189D01*
X101025508Y-114264883D01*
X100919900Y-113913837D01*
X100799381Y-113575895D01*
X100664185Y-113251903D01*
X100514545Y-112942706D01*
X100502893Y-112920416D01*
X100355226Y-112655922D01*
X100198461Y-112406768D01*
X100033160Y-112173458D01*
X99859882Y-111956499D01*
X99679187Y-111756395D01*
X99491636Y-111573651D01*
X99297787Y-111408773D01*
X99098202Y-111262264D01*
X98893440Y-111134631D01*
X98684062Y-111026378D01*
X98470626Y-110938010D01*
X98253694Y-110870033D01*
X98219655Y-110861320D01*
X97993955Y-110815756D01*
X97768757Y-110791166D01*
X97544597Y-110787552D01*
X97322010Y-110804916D01*
X97101532Y-110843259D01*
X97039375Y-110857974D01*
X96991699Y-110870737D01*
X96938019Y-110886411D01*
X96882011Y-110903765D01*
X96827350Y-110921565D01*
X96777712Y-110938580D01*
X96736772Y-110953579D01*
X96708205Y-110965328D01*
X96695685Y-110972596D01*
X96695417Y-110973273D01*
X96699599Y-110985883D01*
X96710847Y-111013047D01*
X96727210Y-111050169D01*
X96738631Y-111075217D01*
X96899026Y-111444928D01*
X97046060Y-111829173D01*
X97179118Y-112225583D01*
X97297585Y-112631792D01*
X97400846Y-113045434D01*
X97488285Y-113464142D01*
X97559288Y-113885549D01*
X97613239Y-114307288D01*
X97633710Y-114518500D01*
X97639000Y-114593624D01*
X97643497Y-114685280D01*
X97647187Y-114790165D01*
X97650054Y-114904976D01*
X97652084Y-115026411D01*
X97653261Y-115151166D01*
X97653570Y-115275939D01*
X97652997Y-115397427D01*
X97651526Y-115512326D01*
X97649143Y-115617335D01*
X97645832Y-115709151D01*
X97641579Y-115784470D01*
X97639573Y-115809666D01*
X97601274Y-116162628D01*
X97550289Y-116500015D01*
X97486168Y-116823523D01*
X97408460Y-117134850D01*
X97316714Y-117435691D01*
X97210479Y-117727744D01*
X97089306Y-118012706D01*
X97010576Y-118178291D01*
X96976374Y-118245576D01*
X96937468Y-118318879D01*
X96895175Y-118396002D01*
X96850812Y-118474749D01*
X96805696Y-118552923D01*
X96761145Y-118628327D01*
X96718476Y-118698765D01*
X96679007Y-118762040D01*
X96644053Y-118815955D01*
X96614934Y-118858314D01*
X96592966Y-118886919D01*
X96579466Y-118899574D01*
X96577798Y-118900000D01*
X96573424Y-118900272D01*
X96570691Y-118899067D01*
X96570145Y-118893351D01*
X96572329Y-118880092D01*
X96577790Y-118856255D01*
X96587072Y-118818808D01*
X96600720Y-118764717D01*
X96605539Y-118745618D01*
X96684772Y-118392412D01*
X96747738Y-118026424D01*
X96794462Y-117648386D01*
X96824967Y-117259030D01*
X96839277Y-116859089D01*
X96837417Y-116449295D01*
X96819411Y-116030379D01*
X96785282Y-115603074D01*
X96735056Y-115168113D01*
X96668756Y-114726226D01*
X96586407Y-114278147D01*
X96488031Y-113824608D01*
X96436218Y-113609572D01*
X96349938Y-113277885D01*
X96260350Y-112964421D01*
X96166451Y-112666364D01*
X96067240Y-112380896D01*
X95961716Y-112105201D01*
X95848877Y-111836461D01*
X95727722Y-111571860D01*
X95668218Y-111449333D01*
X95502757Y-111130707D01*
X95328809Y-110826738D01*
X95146854Y-110537884D01*
X94957368Y-110264605D01*
X94760830Y-110007361D01*
X94557720Y-109766611D01*
X94348514Y-109542814D01*
X94133692Y-109336430D01*
X93913732Y-109147919D01*
X93689112Y-108977738D01*
X93460311Y-108826349D01*
X93227807Y-108694211D01*
X92992078Y-108581782D01*
X92753603Y-108489522D01*
X92512860Y-108417891D01*
X92511247Y-108417484D01*
X92411855Y-108393122D01*
X92325028Y-108373820D01*
X92246018Y-108359023D01*
X92170079Y-108348177D01*
X92092462Y-108340725D01*
X92008419Y-108336115D01*
X91913205Y-108333790D01*
X91802070Y-108333197D01*
X91790042Y-108333211D01*
G37*
X91790042Y-108333211D02*
X91671744Y-108334256D01*
X91569711Y-108337326D01*
X91479097Y-108342949D01*
X91395054Y-108351654D01*
X91312734Y-108363969D01*
X91227289Y-108380423D01*
X91133872Y-108401546D01*
X91109416Y-108407444D01*
X90901625Y-108465453D01*
X90694407Y-108537578D01*
X90490640Y-108622314D01*
X90293201Y-108718151D01*
X90104968Y-108823583D01*
X89928820Y-108937101D01*
X89767634Y-109057197D01*
X89624287Y-109182363D01*
X89616842Y-109189495D01*
X89471991Y-109341325D01*
X89346534Y-109499642D01*
X89239801Y-109665781D01*
X89151124Y-109841079D01*
X89079831Y-110026870D01*
X89025255Y-110224490D01*
X88986725Y-110435276D01*
X88984566Y-110450890D01*
X88976076Y-110532745D01*
X88970163Y-110630340D01*
X88966828Y-110738408D01*
X88966072Y-110851679D01*
X88967895Y-110964885D01*
X88972297Y-111072758D01*
X88979279Y-111170029D01*
X88984507Y-111219485D01*
X89024287Y-111485338D01*
X89079873Y-111759195D01*
X89151478Y-112041734D01*
X89239312Y-112333636D01*
X89343587Y-112635582D01*
X89464514Y-112948251D01*
X89602305Y-113272323D01*
X89667931Y-113417833D01*
X89711661Y-113511016D01*
X89764177Y-113619275D01*
X89823777Y-113739300D01*
X89888758Y-113867784D01*
X89957416Y-114001417D01*
X90028047Y-114136890D01*
X90098950Y-114270896D01*
X90168420Y-114400124D01*
X90234754Y-114521266D01*
X90250843Y-114550250D01*
X90316340Y-114669446D01*
X90385506Y-114798160D01*
X90456690Y-114933143D01*
X90528244Y-115071144D01*
X90598516Y-115208912D01*
X90665858Y-115343197D01*
X90728618Y-115470750D01*
X90785148Y-115588318D01*
X90833798Y-115692654D01*
X90857905Y-115746166D01*
X91000727Y-116082455D01*
X91127979Y-116411422D01*
X91239508Y-116732447D01*
X91335161Y-117044910D01*
X91414787Y-117348191D01*
X91478232Y-117641669D01*
X91525345Y-117924723D01*
X91555972Y-118196734D01*
X91569961Y-118457080D01*
X91569543Y-118640708D01*
X91559709Y-118831847D01*
X91540828Y-119006630D01*
X91512235Y-119168139D01*
X91473263Y-119319452D01*
X91423248Y-119463652D01*
X91361538Y-119603791D01*
X91296664Y-119725210D01*
X91227435Y-119830609D01*
X91150291Y-119925122D01*
X91107951Y-119969589D01*
X90986265Y-120076833D01*
X90853442Y-120166642D01*
X90710814Y-120238683D01*
X90559713Y-120292627D01*
X90401470Y-120328142D01*
X90237418Y-120344896D01*
X90068888Y-120342559D01*
X89897213Y-120320799D01*
X89789792Y-120297412D01*
X89635255Y-120250548D01*
X89489718Y-120189762D01*
X89350650Y-120113550D01*
X89215520Y-120020403D01*
X89081799Y-119908815D01*
X88990146Y-119821400D01*
X88882444Y-119707941D01*
X88785511Y-119592988D01*
X88696257Y-119472218D01*
X88611593Y-119341309D01*
X88528428Y-119195936D01*
X88486692Y-119116958D01*
X88411528Y-118961521D01*
X88342104Y-118798498D01*
X88279467Y-118631349D01*
X88224665Y-118463538D01*
X88178746Y-118298525D01*
X88142757Y-118139773D01*
X88117746Y-117990744D01*
X88104761Y-117854900D01*
X88104761Y-117854895D01*
X88101786Y-117807561D01*
X88098367Y-117769149D01*
X88094948Y-117743877D01*
X88092240Y-117735853D01*
X88082191Y-117744517D01*
X88064921Y-117767656D01*
X88043124Y-117801043D01*
X88019494Y-117840453D01*
X87996724Y-117881660D01*
X87986293Y-117902042D01*
X87926365Y-118041056D01*
X87875159Y-118197860D01*
X87832971Y-118370829D01*
X87800095Y-118558336D01*
X87776827Y-118758757D01*
X87763462Y-118970464D01*
X87760097Y-119148708D01*
X87769408Y-119442566D01*
X87797333Y-119726570D01*
X87843957Y-120001092D01*
X87909361Y-120266505D01*
X87993628Y-120523179D01*
X88096841Y-120771486D01*
X88140789Y-120863208D01*
X88266427Y-121093326D01*
X88407243Y-121308722D01*
X88563156Y-121509351D01*
X88734088Y-121695163D01*
X88919961Y-121866113D01*
X89120696Y-122022152D01*
X89336215Y-122163234D01*
X89566439Y-122289310D01*
X89811290Y-122400333D01*
X90070689Y-122496257D01*
X90344557Y-122577033D01*
X90632816Y-122642614D01*
X90935387Y-122692954D01*
X91229125Y-122726011D01*
X91308953Y-122731964D01*
X91401612Y-122737063D01*
X91503006Y-122741233D01*
X91609035Y-122744400D01*
X91715602Y-122746490D01*
X91818610Y-122747427D01*
X91913960Y-122747138D01*
X91997555Y-122745549D01*
X92065297Y-122742584D01*
X92081084Y-122741481D01*
X92285602Y-122719710D01*
X92499639Y-122685986D01*
X92716227Y-122641632D01*
X92928396Y-122587969D01*
X93000980Y-122567036D01*
X93252722Y-122484054D01*
X93507614Y-122384911D01*
X93762178Y-122271445D01*
X94012936Y-122145494D01*
X94256409Y-122008898D01*
X94489120Y-121863495D01*
X94707589Y-121711122D01*
X94890959Y-121568064D01*
X94928390Y-121537217D01*
X94961275Y-121510258D01*
X94985184Y-121490809D01*
X94993850Y-121483883D01*
X95002423Y-121479783D01*
X95014136Y-121480818D01*
X95031701Y-121488460D01*
X95057835Y-121504181D01*
X95095250Y-121529452D01*
X95146660Y-121565747D01*
X95152600Y-121569985D01*
X95411251Y-121745833D01*
X95669146Y-121903610D01*
X95925518Y-122042968D01*
X96179601Y-122163559D01*
X96430629Y-122265035D01*
X96677836Y-122347046D01*
X96920455Y-122409245D01*
X97056274Y-122435678D01*
X97130264Y-122445905D01*
X97218775Y-122454193D01*
X97316412Y-122460371D01*
X97417785Y-122464269D01*
X97517502Y-122465717D01*
X97610170Y-122464543D01*
X97690397Y-122460578D01*
X97728924Y-122456953D01*
X97959731Y-122419264D01*
X98187236Y-122360832D01*
X98411051Y-122281881D01*
X98630793Y-122182633D01*
X98846075Y-122063310D01*
X99056510Y-121924135D01*
X99261714Y-121765331D01*
X99461301Y-121587119D01*
X99654884Y-121389723D01*
X99735594Y-121299673D01*
X99787037Y-121241968D01*
X99827177Y-121199597D01*
X99855562Y-121173008D01*
X99871738Y-121162647D01*
X99874507Y-121162992D01*
X99887755Y-121173265D01*
X99913084Y-121193081D01*
X99945951Y-121218881D01*
X99960774Y-121230538D01*
X100185884Y-121397320D01*
X100410452Y-121542956D01*
X100634508Y-121667457D01*
X100858081Y-121770837D01*
X101081198Y-121853107D01*
X101303889Y-121914279D01*
X101526182Y-121954367D01*
X101668713Y-121968998D01*
X101856636Y-121973029D01*
X102040534Y-121957396D01*
X102222013Y-121921772D01*
X102402680Y-121865830D01*
X102584143Y-121789246D01*
X102605538Y-121778903D01*
X102796752Y-121673869D01*
X102982441Y-121549227D01*
X103162008Y-121405959D01*
X103334854Y-121245041D01*
X103500382Y-121067453D01*
X103657995Y-120874173D01*
X103807095Y-120666181D01*
X103947084Y-120444454D01*
X104077365Y-120209972D01*
X104197341Y-119963713D01*
X104306413Y-119706656D01*
X104403985Y-119439780D01*
X104489459Y-119164063D01*
X104562237Y-118880484D01*
X104621722Y-118590022D01*
X104647546Y-118434333D01*
X104668202Y-118290509D01*
X104684366Y-118157367D01*
X104696590Y-118028310D01*
X104705423Y-117896741D01*
X104711415Y-117756063D01*
X104714580Y-117630000D01*
X104716118Y-117445749D01*
X104713228Y-117276367D01*
X104705628Y-117115968D01*
X104693037Y-116958663D01*
X104675174Y-116798566D01*
X104674586Y-116793916D01*
X104633639Y-116526401D01*
X104580078Y-116268229D01*
X104514409Y-116020197D01*
X104437136Y-115783099D01*
X104348768Y-115557730D01*
X104249809Y-115344885D01*
X104140765Y-115145359D01*
X104022143Y-114959948D01*
X103894449Y-114789446D01*
X103758188Y-114634648D01*
X103613867Y-114496349D01*
X103461992Y-114375345D01*
X103303069Y-114272431D01*
X103137604Y-114188401D01*
X102977505Y-114127646D01*
X102840421Y-114089861D01*
X102707183Y-114066273D01*
X102570112Y-114055852D01*
X102447459Y-114056479D01*
X102372808Y-114060271D01*
X102302381Y-114065877D01*
X102239499Y-114072858D01*
X102187480Y-114080778D01*
X102149645Y-114089198D01*
X102129314Y-114097682D01*
X102128354Y-114098535D01*
X102127730Y-114110695D01*
X102130234Y-114140105D01*
X102135443Y-114183149D01*
X102142933Y-114236211D01*
X102149316Y-114277440D01*
X102193130Y-114595835D01*
X102223897Y-114920329D01*
X102241489Y-115246621D01*
X102245774Y-115570415D01*
X102236624Y-115887412D01*
X102213908Y-116193312D01*
X102208722Y-116243583D01*
X102158176Y-116616577D01*
X102087528Y-116983257D01*
X101996967Y-117343162D01*
X101886681Y-117695834D01*
X101756861Y-118040812D01*
X101607694Y-118377635D01*
X101439370Y-118705844D01*
X101252078Y-119024979D01*
X101046006Y-119334580D01*
X100821345Y-119634187D01*
X100809743Y-119648752D01*
X100766279Y-119703202D01*
X100734264Y-119743254D01*
X100711866Y-119770992D01*
X100697251Y-119788495D01*
X100688583Y-119797848D01*
X100684030Y-119801131D01*
X100681757Y-119800426D01*
X100679930Y-119797815D01*
X100679185Y-119796962D01*
X100681014Y-119785683D01*
X100689793Y-119758001D01*
X100704396Y-119717076D01*
X100723693Y-119666069D01*
X100746557Y-119608140D01*
X100746877Y-119607344D01*
X100882860Y-119241587D01*
X101000810Y-118864974D01*
X101100652Y-118477855D01*
X101182313Y-118080578D01*
X101245717Y-117673493D01*
X101290790Y-117256949D01*
X101310636Y-116973833D01*
X101314512Y-116882114D01*
X101317073Y-116774506D01*
X101318373Y-116654952D01*
X101318467Y-116527394D01*
X101317409Y-116395775D01*
X101315254Y-116264035D01*
X101312057Y-116136119D01*
X101307872Y-116015967D01*
X101302754Y-115907523D01*
X101296757Y-115814728D01*
X101294154Y-115783208D01*
X101250527Y-115388197D01*
X101191055Y-115002908D01*
X101115970Y-114628189D01*
X101025508Y-114264883D01*
X100919900Y-113913837D01*
X100799381Y-113575895D01*
X100664185Y-113251903D01*
X100514545Y-112942706D01*
X100502893Y-112920416D01*
X100355226Y-112655922D01*
X100198461Y-112406768D01*
X100033160Y-112173458D01*
X99859882Y-111956499D01*
X99679187Y-111756395D01*
X99491636Y-111573651D01*
X99297787Y-111408773D01*
X99098202Y-111262264D01*
X98893440Y-111134631D01*
X98684062Y-111026378D01*
X98470626Y-110938010D01*
X98253694Y-110870033D01*
X98219655Y-110861320D01*
X97993955Y-110815756D01*
X97768757Y-110791166D01*
X97544597Y-110787552D01*
X97322010Y-110804916D01*
X97101532Y-110843259D01*
X97039375Y-110857974D01*
X96991699Y-110870737D01*
X96938019Y-110886411D01*
X96882011Y-110903765D01*
X96827350Y-110921565D01*
X96777712Y-110938580D01*
X96736772Y-110953579D01*
X96708205Y-110965328D01*
X96695685Y-110972596D01*
X96695417Y-110973273D01*
X96699599Y-110985883D01*
X96710847Y-111013047D01*
X96727210Y-111050169D01*
X96738631Y-111075217D01*
X96899026Y-111444928D01*
X97046060Y-111829173D01*
X97179118Y-112225583D01*
X97297585Y-112631792D01*
X97400846Y-113045434D01*
X97488285Y-113464142D01*
X97559288Y-113885549D01*
X97613239Y-114307288D01*
X97633710Y-114518500D01*
X97639000Y-114593624D01*
X97643497Y-114685280D01*
X97647187Y-114790165D01*
X97650054Y-114904976D01*
X97652084Y-115026411D01*
X97653261Y-115151166D01*
X97653570Y-115275939D01*
X97652997Y-115397427D01*
X97651526Y-115512326D01*
X97649143Y-115617335D01*
X97645832Y-115709151D01*
X97641579Y-115784470D01*
X97639573Y-115809666D01*
X97601274Y-116162628D01*
X97550289Y-116500015D01*
X97486168Y-116823523D01*
X97408460Y-117134850D01*
X97316714Y-117435691D01*
X97210479Y-117727744D01*
X97089306Y-118012706D01*
X97010576Y-118178291D01*
X96976374Y-118245576D01*
X96937468Y-118318879D01*
X96895175Y-118396002D01*
X96850812Y-118474749D01*
X96805696Y-118552923D01*
X96761145Y-118628327D01*
X96718476Y-118698765D01*
X96679007Y-118762040D01*
X96644053Y-118815955D01*
X96614934Y-118858314D01*
X96592966Y-118886919D01*
X96579466Y-118899574D01*
X96577798Y-118900000D01*
X96573424Y-118900272D01*
X96570691Y-118899067D01*
X96570145Y-118893351D01*
X96572329Y-118880092D01*
X96577790Y-118856255D01*
X96587072Y-118818808D01*
X96600720Y-118764717D01*
X96605539Y-118745618D01*
X96684772Y-118392412D01*
X96747738Y-118026424D01*
X96794462Y-117648386D01*
X96824967Y-117259030D01*
X96839277Y-116859089D01*
X96837417Y-116449295D01*
X96819411Y-116030379D01*
X96785282Y-115603074D01*
X96735056Y-115168113D01*
X96668756Y-114726226D01*
X96586407Y-114278147D01*
X96488031Y-113824608D01*
X96436218Y-113609572D01*
X96349938Y-113277885D01*
X96260350Y-112964421D01*
X96166451Y-112666364D01*
X96067240Y-112380896D01*
X95961716Y-112105201D01*
X95848877Y-111836461D01*
X95727722Y-111571860D01*
X95668218Y-111449333D01*
X95502757Y-111130707D01*
X95328809Y-110826738D01*
X95146854Y-110537884D01*
X94957368Y-110264605D01*
X94760830Y-110007361D01*
X94557720Y-109766611D01*
X94348514Y-109542814D01*
X94133692Y-109336430D01*
X93913732Y-109147919D01*
X93689112Y-108977738D01*
X93460311Y-108826349D01*
X93227807Y-108694211D01*
X92992078Y-108581782D01*
X92753603Y-108489522D01*
X92512860Y-108417891D01*
X92511247Y-108417484D01*
X92411855Y-108393122D01*
X92325028Y-108373820D01*
X92246018Y-108359023D01*
X92170079Y-108348177D01*
X92092462Y-108340725D01*
X92008419Y-108336115D01*
X91913205Y-108333790D01*
X91802070Y-108333197D01*
X91790042Y-108333211D01*
G36*
X78648663Y-116830358D02*
G01*
X78552993Y-116831834D01*
X78461528Y-116834679D01*
X78378486Y-116838864D01*
X78308087Y-116844356D01*
X78259250Y-116850356D01*
X78023320Y-116897058D01*
X77798532Y-116960522D01*
X77585507Y-117040417D01*
X77384861Y-117136412D01*
X77197214Y-117248179D01*
X77023186Y-117375386D01*
X76863394Y-117517703D01*
X76721508Y-117671156D01*
X76598721Y-117833688D01*
X76491130Y-118009846D01*
X76399484Y-118197789D01*
X76324532Y-118395672D01*
X76267024Y-118601651D01*
X76227709Y-118813884D01*
X76215717Y-118915383D01*
X76210390Y-118992158D01*
X76207560Y-119082442D01*
X76207089Y-119181362D01*
X76208839Y-119284042D01*
X76212671Y-119385608D01*
X76218446Y-119481183D01*
X76226027Y-119565894D01*
X76235276Y-119634866D01*
X76236309Y-119640833D01*
X76269503Y-119804615D01*
X76308843Y-119953681D01*
X76356276Y-120094060D01*
X76413751Y-120231783D01*
X76455124Y-120318166D01*
X76556998Y-120498167D01*
X76676473Y-120667069D01*
X76812688Y-120824125D01*
X76964783Y-120968589D01*
X77131896Y-121099713D01*
X77313167Y-121216752D01*
X77507735Y-121318958D01*
X77704599Y-121401818D01*
X77911516Y-121468988D01*
X78128910Y-121520461D01*
X78352447Y-121555661D01*
X78577792Y-121574014D01*
X78800612Y-121574945D01*
X78941875Y-121565950D01*
X79173959Y-121535270D01*
X79397561Y-121487089D01*
X79611787Y-121421985D01*
X79815742Y-121340536D01*
X80008530Y-121243320D01*
X80189257Y-121130914D01*
X80357026Y-121003897D01*
X80510943Y-120862847D01*
X80650113Y-120708341D01*
X80773639Y-120540957D01*
X80880627Y-120361274D01*
X80915881Y-120291708D01*
X80983788Y-120140466D01*
X81038594Y-119992972D01*
X81081551Y-119844317D01*
X81113913Y-119689591D01*
X81136931Y-119523884D01*
X81149817Y-119374803D01*
X81153149Y-119247655D01*
X80321735Y-119247655D01*
X80319349Y-119345399D01*
X80312344Y-119434076D01*
X80300155Y-119519588D01*
X80282219Y-119607841D01*
X80270089Y-119658144D01*
X80216685Y-119828201D01*
X80145217Y-119988135D01*
X80056682Y-120137026D01*
X79952078Y-120273953D01*
X79832402Y-120397995D01*
X79698653Y-120508232D01*
X79551826Y-120603743D01*
X79392921Y-120683608D01*
X79222934Y-120746905D01*
X79042862Y-120792715D01*
X79040200Y-120793242D01*
X78990057Y-120803087D01*
X78949568Y-120810574D01*
X78914658Y-120815978D01*
X78881250Y-120819579D01*
X78845266Y-120821652D01*
X78802629Y-120822476D01*
X78749263Y-120822328D01*
X78681091Y-120821486D01*
X78634959Y-120820814D01*
X78553628Y-120819354D01*
X78489158Y-120817392D01*
X78437244Y-120814563D01*
X78393581Y-120810498D01*
X78353865Y-120804831D01*
X78313789Y-120797196D01*
X78285709Y-120791049D01*
X78100165Y-120739189D01*
X77927153Y-120670798D01*
X77767278Y-120586483D01*
X77621149Y-120486849D01*
X77489373Y-120372505D01*
X77372555Y-120244057D01*
X77271304Y-120102110D01*
X77186226Y-119947273D01*
X77117928Y-119780151D01*
X77067017Y-119601351D01*
X77059157Y-119565126D01*
X77036816Y-119419652D01*
X77026813Y-119264248D01*
X77028838Y-119104330D01*
X77042585Y-118945311D01*
X77067743Y-118792604D01*
X77104005Y-118651625D01*
X77112725Y-118624833D01*
X77180499Y-118456070D01*
X77264929Y-118299922D01*
X77365261Y-118156969D01*
X77480740Y-118027791D01*
X77610610Y-117912968D01*
X77754118Y-117813078D01*
X77910507Y-117728701D01*
X78079023Y-117660418D01*
X78258911Y-117608808D01*
X78449415Y-117574450D01*
X78486792Y-117569915D01*
X78557104Y-117562631D01*
X78614362Y-117558508D01*
X78666418Y-117557411D01*
X78721128Y-117559209D01*
X78786346Y-117563765D01*
X78796962Y-117564632D01*
X78995281Y-117589636D01*
X79180399Y-117630924D01*
X79352981Y-117688789D01*
X79513690Y-117763520D01*
X79663190Y-117855409D01*
X79802143Y-117964745D01*
X79881784Y-118039905D01*
X79995992Y-118168457D01*
X80092449Y-118306597D01*
X80172464Y-118456465D01*
X80237345Y-118620202D01*
X80238340Y-118623164D01*
X80266638Y-118715673D01*
X80287994Y-118805535D01*
X80303315Y-118898431D01*
X80313508Y-119000042D01*
X80319481Y-119116051D01*
X80320066Y-119134938D01*
X80321735Y-119247655D01*
X81153149Y-119247655D01*
X81155932Y-119141487D01*
X81143016Y-118914489D01*
X81111343Y-118694623D01*
X81061188Y-118482701D01*
X80992824Y-118279534D01*
X80906526Y-118085936D01*
X80802568Y-117902719D01*
X80681224Y-117730695D01*
X80542768Y-117570677D01*
X80539959Y-117567743D01*
X80384647Y-117420383D01*
X80216681Y-117289070D01*
X80035696Y-117173628D01*
X79841327Y-117073882D01*
X79633209Y-116989654D01*
X79410978Y-116920770D01*
X79174268Y-116867053D01*
X79042417Y-116844611D01*
X78989009Y-116838773D01*
X78918711Y-116834460D01*
X78835741Y-116831640D01*
X78744319Y-116830283D01*
X78648663Y-116830358D01*
G37*
X78648663Y-116830358D02*
X78552993Y-116831834D01*
X78461528Y-116834679D01*
X78378486Y-116838864D01*
X78308087Y-116844356D01*
X78259250Y-116850356D01*
X78023320Y-116897058D01*
X77798532Y-116960522D01*
X77585507Y-117040417D01*
X77384861Y-117136412D01*
X77197214Y-117248179D01*
X77023186Y-117375386D01*
X76863394Y-117517703D01*
X76721508Y-117671156D01*
X76598721Y-117833688D01*
X76491130Y-118009846D01*
X76399484Y-118197789D01*
X76324532Y-118395672D01*
X76267024Y-118601651D01*
X76227709Y-118813884D01*
X76215717Y-118915383D01*
X76210390Y-118992158D01*
X76207560Y-119082442D01*
X76207089Y-119181362D01*
X76208839Y-119284042D01*
X76212671Y-119385608D01*
X76218446Y-119481183D01*
X76226027Y-119565894D01*
X76235276Y-119634866D01*
X76236309Y-119640833D01*
X76269503Y-119804615D01*
X76308843Y-119953681D01*
X76356276Y-120094060D01*
X76413751Y-120231783D01*
X76455124Y-120318166D01*
X76556998Y-120498167D01*
X76676473Y-120667069D01*
X76812688Y-120824125D01*
X76964783Y-120968589D01*
X77131896Y-121099713D01*
X77313167Y-121216752D01*
X77507735Y-121318958D01*
X77704599Y-121401818D01*
X77911516Y-121468988D01*
X78128910Y-121520461D01*
X78352447Y-121555661D01*
X78577792Y-121574014D01*
X78800612Y-121574945D01*
X78941875Y-121565950D01*
X79173959Y-121535270D01*
X79397561Y-121487089D01*
X79611787Y-121421985D01*
X79815742Y-121340536D01*
X80008530Y-121243320D01*
X80189257Y-121130914D01*
X80357026Y-121003897D01*
X80510943Y-120862847D01*
X80650113Y-120708341D01*
X80773639Y-120540957D01*
X80880627Y-120361274D01*
X80915881Y-120291708D01*
X80983788Y-120140466D01*
X81038594Y-119992972D01*
X81081551Y-119844317D01*
X81113913Y-119689591D01*
X81136931Y-119523884D01*
X81149817Y-119374803D01*
X81153149Y-119247655D01*
X80321735Y-119247655D01*
X80319349Y-119345399D01*
X80312344Y-119434076D01*
X80300155Y-119519588D01*
X80282219Y-119607841D01*
X80270089Y-119658144D01*
X80216685Y-119828201D01*
X80145217Y-119988135D01*
X80056682Y-120137026D01*
X79952078Y-120273953D01*
X79832402Y-120397995D01*
X79698653Y-120508232D01*
X79551826Y-120603743D01*
X79392921Y-120683608D01*
X79222934Y-120746905D01*
X79042862Y-120792715D01*
X79040200Y-120793242D01*
X78990057Y-120803087D01*
X78949568Y-120810574D01*
X78914658Y-120815978D01*
X78881250Y-120819579D01*
X78845266Y-120821652D01*
X78802629Y-120822476D01*
X78749263Y-120822328D01*
X78681091Y-120821486D01*
X78634959Y-120820814D01*
X78553628Y-120819354D01*
X78489158Y-120817392D01*
X78437244Y-120814563D01*
X78393581Y-120810498D01*
X78353865Y-120804831D01*
X78313789Y-120797196D01*
X78285709Y-120791049D01*
X78100165Y-120739189D01*
X77927153Y-120670798D01*
X77767278Y-120586483D01*
X77621149Y-120486849D01*
X77489373Y-120372505D01*
X77372555Y-120244057D01*
X77271304Y-120102110D01*
X77186226Y-119947273D01*
X77117928Y-119780151D01*
X77067017Y-119601351D01*
X77059157Y-119565126D01*
X77036816Y-119419652D01*
X77026813Y-119264248D01*
X77028838Y-119104330D01*
X77042585Y-118945311D01*
X77067743Y-118792604D01*
X77104005Y-118651625D01*
X77112725Y-118624833D01*
X77180499Y-118456070D01*
X77264929Y-118299922D01*
X77365261Y-118156969D01*
X77480740Y-118027791D01*
X77610610Y-117912968D01*
X77754118Y-117813078D01*
X77910507Y-117728701D01*
X78079023Y-117660418D01*
X78258911Y-117608808D01*
X78449415Y-117574450D01*
X78486792Y-117569915D01*
X78557104Y-117562631D01*
X78614362Y-117558508D01*
X78666418Y-117557411D01*
X78721128Y-117559209D01*
X78786346Y-117563765D01*
X78796962Y-117564632D01*
X78995281Y-117589636D01*
X79180399Y-117630924D01*
X79352981Y-117688789D01*
X79513690Y-117763520D01*
X79663190Y-117855409D01*
X79802143Y-117964745D01*
X79881784Y-118039905D01*
X79995992Y-118168457D01*
X80092449Y-118306597D01*
X80172464Y-118456465D01*
X80237345Y-118620202D01*
X80238340Y-118623164D01*
X80266638Y-118715673D01*
X80287994Y-118805535D01*
X80303315Y-118898431D01*
X80313508Y-119000042D01*
X80319481Y-119116051D01*
X80320066Y-119134938D01*
X80321735Y-119247655D01*
X81153149Y-119247655D01*
X81155932Y-119141487D01*
X81143016Y-118914489D01*
X81111343Y-118694623D01*
X81061188Y-118482701D01*
X80992824Y-118279534D01*
X80906526Y-118085936D01*
X80802568Y-117902719D01*
X80681224Y-117730695D01*
X80542768Y-117570677D01*
X80539959Y-117567743D01*
X80384647Y-117420383D01*
X80216681Y-117289070D01*
X80035696Y-117173628D01*
X79841327Y-117073882D01*
X79633209Y-116989654D01*
X79410978Y-116920770D01*
X79174268Y-116867053D01*
X79042417Y-116844611D01*
X78989009Y-116838773D01*
X78918711Y-116834460D01*
X78835741Y-116831640D01*
X78744319Y-116830283D01*
X78648663Y-116830358D01*
G36*
X65034252Y-116835289D02*
G01*
X64914360Y-116842007D01*
X64800767Y-116854100D01*
X64686248Y-116872164D01*
X64678134Y-116873645D01*
X64457635Y-116924128D01*
X64246557Y-116992505D01*
X64045876Y-117078276D01*
X63856566Y-117180941D01*
X63679603Y-117300001D01*
X63515962Y-117434955D01*
X63438699Y-117508985D01*
X63298033Y-117665049D01*
X63174910Y-117832210D01*
X63069187Y-118010784D01*
X62980719Y-118201090D01*
X62909364Y-118403445D01*
X62854978Y-118618167D01*
X62817416Y-118845573D01*
X62811714Y-118894401D01*
X62805443Y-118964967D01*
X62801229Y-119039829D01*
X62799035Y-119115329D01*
X62798823Y-119187812D01*
X62800556Y-119253620D01*
X62804197Y-119309097D01*
X62809709Y-119350587D01*
X62816583Y-119373604D01*
X62829495Y-119397416D01*
X66715745Y-119397416D01*
X66708384Y-119490020D01*
X66687844Y-119647647D01*
X66651531Y-119794796D01*
X66598177Y-119936404D01*
X66588227Y-119958333D01*
X66511576Y-120098982D01*
X66416782Y-120231468D01*
X66305738Y-120354467D01*
X66180334Y-120466652D01*
X66042461Y-120566697D01*
X65894009Y-120653277D01*
X65736870Y-120725065D01*
X65572933Y-120780737D01*
X65404090Y-120818965D01*
X65348895Y-120827357D01*
X65231588Y-120836738D01*
X65101960Y-120836074D01*
X64965996Y-120825947D01*
X64829681Y-120806937D01*
X64699000Y-120779626D01*
X64614287Y-120755947D01*
X64557019Y-120735321D01*
X64489137Y-120706779D01*
X64417087Y-120673402D01*
X64347318Y-120638275D01*
X64286277Y-120604481D01*
X64249792Y-120581653D01*
X64117053Y-120479179D01*
X63995732Y-120359491D01*
X63887175Y-120223991D01*
X63841917Y-120156770D01*
X63789715Y-120074750D01*
X63367441Y-120074750D01*
X63258824Y-120074863D01*
X63169653Y-120075241D01*
X63098208Y-120075942D01*
X63042770Y-120077022D01*
X63001618Y-120078539D01*
X62973033Y-120080549D01*
X62955296Y-120083111D01*
X62946686Y-120086281D01*
X62945167Y-120088800D01*
X62948955Y-120105285D01*
X62958863Y-120134730D01*
X62972091Y-120169110D01*
X63063155Y-120366154D01*
X63170648Y-120550168D01*
X63293980Y-120720708D01*
X63432563Y-120877332D01*
X63585808Y-121019595D01*
X63753124Y-121147054D01*
X63933924Y-121259265D01*
X64127617Y-121355785D01*
X64333615Y-121436171D01*
X64551329Y-121499978D01*
X64780169Y-121546763D01*
X64807834Y-121551134D01*
X64881540Y-121559913D01*
X64970409Y-121566524D01*
X65068536Y-121570860D01*
X65170018Y-121572816D01*
X65268952Y-121572286D01*
X65359434Y-121569165D01*
X65435560Y-121563344D01*
X65442834Y-121562531D01*
X65676409Y-121525859D01*
X65899467Y-121471416D01*
X66111573Y-121399401D01*
X66312296Y-121310012D01*
X66501202Y-121203449D01*
X66677858Y-121079911D01*
X66841833Y-120939595D01*
X66880259Y-120902448D01*
X67024755Y-120744799D01*
X67151612Y-120575548D01*
X67260741Y-120394933D01*
X67352047Y-120203194D01*
X67425440Y-120000570D01*
X67480826Y-119787298D01*
X67518113Y-119563617D01*
X67537210Y-119329767D01*
X67539925Y-119196333D01*
X67530974Y-118957117D01*
X67504350Y-118729368D01*
X67495963Y-118688435D01*
X66675139Y-118688435D01*
X66674804Y-118700514D01*
X66663712Y-118701689D01*
X66632913Y-118702779D01*
X66583864Y-118703786D01*
X66518024Y-118704708D01*
X66436853Y-118705547D01*
X66341808Y-118706301D01*
X66234349Y-118706972D01*
X66115934Y-118707558D01*
X65988022Y-118708061D01*
X65852071Y-118708479D01*
X65709540Y-118708814D01*
X65561888Y-118709065D01*
X65410574Y-118709232D01*
X65257056Y-118709315D01*
X65102792Y-118709315D01*
X64949242Y-118709230D01*
X64797863Y-118709062D01*
X64650116Y-118708810D01*
X64507458Y-118708474D01*
X64371348Y-118708054D01*
X64243245Y-118707551D01*
X64124607Y-118706963D01*
X64016893Y-118706293D01*
X63921562Y-118705538D01*
X63840072Y-118704700D01*
X63773882Y-118703778D01*
X63724451Y-118702772D01*
X63693237Y-118701683D01*
X63681699Y-118700510D01*
X63681677Y-118700483D01*
X63681365Y-118685193D01*
X63687097Y-118654154D01*
X63697689Y-118611514D01*
X63711955Y-118561418D01*
X63728711Y-118508012D01*
X63746772Y-118455441D01*
X63764952Y-118407853D01*
X63766151Y-118404931D01*
X63824957Y-118277880D01*
X63891566Y-118165514D01*
X63970067Y-118061676D01*
X64056146Y-117968548D01*
X64177871Y-117861948D01*
X64314047Y-117770613D01*
X64464252Y-117694749D01*
X64628061Y-117634559D01*
X64805054Y-117590250D01*
X64855459Y-117580966D01*
X64934665Y-117570981D01*
X65028612Y-117564838D01*
X65131236Y-117562488D01*
X65236471Y-117563882D01*
X65338254Y-117568973D01*
X65430518Y-117577711D01*
X65486338Y-117585999D01*
X65667218Y-117627704D01*
X65836046Y-117685708D01*
X65992146Y-117759481D01*
X66134839Y-117848490D01*
X66263448Y-117952204D01*
X66377297Y-118070089D01*
X66475708Y-118201615D01*
X66558003Y-118346249D01*
X66611222Y-118469550D01*
X66629103Y-118519788D01*
X66645619Y-118571096D01*
X66659586Y-118619173D01*
X66669821Y-118659720D01*
X66675139Y-118688435D01*
X67495963Y-118688435D01*
X67459966Y-118512771D01*
X67397733Y-118307014D01*
X67317565Y-118111782D01*
X67219375Y-117926763D01*
X67160391Y-117833326D01*
X67101520Y-117748440D01*
X67044547Y-117673993D01*
X66984123Y-117603596D01*
X66914899Y-117530862D01*
X66869624Y-117486075D01*
X66710200Y-117345629D01*
X66537632Y-117221294D01*
X66352961Y-117113466D01*
X66157229Y-117022547D01*
X65951476Y-116948934D01*
X65736745Y-116893029D01*
X65514076Y-116855229D01*
X65284511Y-116835935D01*
X65167667Y-116833353D01*
X65034252Y-116835289D01*
G37*
X65034252Y-116835289D02*
X64914360Y-116842007D01*
X64800767Y-116854100D01*
X64686248Y-116872164D01*
X64678134Y-116873645D01*
X64457635Y-116924128D01*
X64246557Y-116992505D01*
X64045876Y-117078276D01*
X63856566Y-117180941D01*
X63679603Y-117300001D01*
X63515962Y-117434955D01*
X63438699Y-117508985D01*
X63298033Y-117665049D01*
X63174910Y-117832210D01*
X63069187Y-118010784D01*
X62980719Y-118201090D01*
X62909364Y-118403445D01*
X62854978Y-118618167D01*
X62817416Y-118845573D01*
X62811714Y-118894401D01*
X62805443Y-118964967D01*
X62801229Y-119039829D01*
X62799035Y-119115329D01*
X62798823Y-119187812D01*
X62800556Y-119253620D01*
X62804197Y-119309097D01*
X62809709Y-119350587D01*
X62816583Y-119373604D01*
X62829495Y-119397416D01*
X66715745Y-119397416D01*
X66708384Y-119490020D01*
X66687844Y-119647647D01*
X66651531Y-119794796D01*
X66598177Y-119936404D01*
X66588227Y-119958333D01*
X66511576Y-120098982D01*
X66416782Y-120231468D01*
X66305738Y-120354467D01*
X66180334Y-120466652D01*
X66042461Y-120566697D01*
X65894009Y-120653277D01*
X65736870Y-120725065D01*
X65572933Y-120780737D01*
X65404090Y-120818965D01*
X65348895Y-120827357D01*
X65231588Y-120836738D01*
X65101960Y-120836074D01*
X64965996Y-120825947D01*
X64829681Y-120806937D01*
X64699000Y-120779626D01*
X64614287Y-120755947D01*
X64557019Y-120735321D01*
X64489137Y-120706779D01*
X64417087Y-120673402D01*
X64347318Y-120638275D01*
X64286277Y-120604481D01*
X64249792Y-120581653D01*
X64117053Y-120479179D01*
X63995732Y-120359491D01*
X63887175Y-120223991D01*
X63841917Y-120156770D01*
X63789715Y-120074750D01*
X63367441Y-120074750D01*
X63258824Y-120074863D01*
X63169653Y-120075241D01*
X63098208Y-120075942D01*
X63042770Y-120077022D01*
X63001618Y-120078539D01*
X62973033Y-120080549D01*
X62955296Y-120083111D01*
X62946686Y-120086281D01*
X62945167Y-120088800D01*
X62948955Y-120105285D01*
X62958863Y-120134730D01*
X62972091Y-120169110D01*
X63063155Y-120366154D01*
X63170648Y-120550168D01*
X63293980Y-120720708D01*
X63432563Y-120877332D01*
X63585808Y-121019595D01*
X63753124Y-121147054D01*
X63933924Y-121259265D01*
X64127617Y-121355785D01*
X64333615Y-121436171D01*
X64551329Y-121499978D01*
X64780169Y-121546763D01*
X64807834Y-121551134D01*
X64881540Y-121559913D01*
X64970409Y-121566524D01*
X65068536Y-121570860D01*
X65170018Y-121572816D01*
X65268952Y-121572286D01*
X65359434Y-121569165D01*
X65435560Y-121563344D01*
X65442834Y-121562531D01*
X65676409Y-121525859D01*
X65899467Y-121471416D01*
X66111573Y-121399401D01*
X66312296Y-121310012D01*
X66501202Y-121203449D01*
X66677858Y-121079911D01*
X66841833Y-120939595D01*
X66880259Y-120902448D01*
X67024755Y-120744799D01*
X67151612Y-120575548D01*
X67260741Y-120394933D01*
X67352047Y-120203194D01*
X67425440Y-120000570D01*
X67480826Y-119787298D01*
X67518113Y-119563617D01*
X67537210Y-119329767D01*
X67539925Y-119196333D01*
X67530974Y-118957117D01*
X67504350Y-118729368D01*
X67495963Y-118688435D01*
X66675139Y-118688435D01*
X66674804Y-118700514D01*
X66663712Y-118701689D01*
X66632913Y-118702779D01*
X66583864Y-118703786D01*
X66518024Y-118704708D01*
X66436853Y-118705547D01*
X66341808Y-118706301D01*
X66234349Y-118706972D01*
X66115934Y-118707558D01*
X65988022Y-118708061D01*
X65852071Y-118708479D01*
X65709540Y-118708814D01*
X65561888Y-118709065D01*
X65410574Y-118709232D01*
X65257056Y-118709315D01*
X65102792Y-118709315D01*
X64949242Y-118709230D01*
X64797863Y-118709062D01*
X64650116Y-118708810D01*
X64507458Y-118708474D01*
X64371348Y-118708054D01*
X64243245Y-118707551D01*
X64124607Y-118706963D01*
X64016893Y-118706293D01*
X63921562Y-118705538D01*
X63840072Y-118704700D01*
X63773882Y-118703778D01*
X63724451Y-118702772D01*
X63693237Y-118701683D01*
X63681699Y-118700510D01*
X63681677Y-118700483D01*
X63681365Y-118685193D01*
X63687097Y-118654154D01*
X63697689Y-118611514D01*
X63711955Y-118561418D01*
X63728711Y-118508012D01*
X63746772Y-118455441D01*
X63764952Y-118407853D01*
X63766151Y-118404931D01*
X63824957Y-118277880D01*
X63891566Y-118165514D01*
X63970067Y-118061676D01*
X64056146Y-117968548D01*
X64177871Y-117861948D01*
X64314047Y-117770613D01*
X64464252Y-117694749D01*
X64628061Y-117634559D01*
X64805054Y-117590250D01*
X64855459Y-117580966D01*
X64934665Y-117570981D01*
X65028612Y-117564838D01*
X65131236Y-117562488D01*
X65236471Y-117563882D01*
X65338254Y-117568973D01*
X65430518Y-117577711D01*
X65486338Y-117585999D01*
X65667218Y-117627704D01*
X65836046Y-117685708D01*
X65992146Y-117759481D01*
X66134839Y-117848490D01*
X66263448Y-117952204D01*
X66377297Y-118070089D01*
X66475708Y-118201615D01*
X66558003Y-118346249D01*
X66611222Y-118469550D01*
X66629103Y-118519788D01*
X66645619Y-118571096D01*
X66659586Y-118619173D01*
X66669821Y-118659720D01*
X66675139Y-118688435D01*
X67495963Y-118688435D01*
X67459966Y-118512771D01*
X67397733Y-118307014D01*
X67317565Y-118111782D01*
X67219375Y-117926763D01*
X67160391Y-117833326D01*
X67101520Y-117748440D01*
X67044547Y-117673993D01*
X66984123Y-117603596D01*
X66914899Y-117530862D01*
X66869624Y-117486075D01*
X66710200Y-117345629D01*
X66537632Y-117221294D01*
X66352961Y-117113466D01*
X66157229Y-117022547D01*
X65951476Y-116948934D01*
X65736745Y-116893029D01*
X65514076Y-116855229D01*
X65284511Y-116835935D01*
X65167667Y-116833353D01*
X65034252Y-116835289D01*
G36*
X83726858Y-116832164D02*
G01*
X83628336Y-116834928D01*
X83541853Y-116840145D01*
X83462873Y-116848308D01*
X83386856Y-116859915D01*
X83309265Y-116875460D01*
X83225561Y-116895440D01*
X83203616Y-116901065D01*
X82983883Y-116967760D01*
X82777051Y-117050423D01*
X82583616Y-117148614D01*
X82404072Y-117261893D01*
X82238915Y-117389821D01*
X82088639Y-117531958D01*
X81953741Y-117687865D01*
X81834715Y-117857102D01*
X81732057Y-118039229D01*
X81646261Y-118233807D01*
X81619420Y-118307333D01*
X81605991Y-118348519D01*
X81590800Y-118398842D01*
X81575051Y-118453843D01*
X81559946Y-118509062D01*
X81546689Y-118560039D01*
X81536482Y-118602315D01*
X81530530Y-118631430D01*
X81529500Y-118640621D01*
X81539712Y-118641790D01*
X81568857Y-118642871D01*
X81614706Y-118643837D01*
X81675024Y-118644659D01*
X81747580Y-118645309D01*
X81830142Y-118645759D01*
X81920479Y-118645981D01*
X81955944Y-118646000D01*
X82382388Y-118646000D01*
X82412013Y-118555031D01*
X82474958Y-118395355D01*
X82556074Y-118245735D01*
X82654298Y-118107389D01*
X82768567Y-117981537D01*
X82897816Y-117869397D01*
X83040985Y-117772189D01*
X83143459Y-117716369D01*
X83300618Y-117650075D01*
X83466712Y-117601771D01*
X83639238Y-117571636D01*
X83815693Y-117559847D01*
X83993577Y-117566585D01*
X84170386Y-117592027D01*
X84328629Y-117631704D01*
X84494012Y-117692765D01*
X84649325Y-117771509D01*
X84793296Y-117866703D01*
X84924658Y-117977114D01*
X85042140Y-118101508D01*
X85144472Y-118238651D01*
X85230386Y-118387311D01*
X85298610Y-118546253D01*
X85312865Y-118587791D01*
X85357541Y-118753642D01*
X85387218Y-118928694D01*
X85401920Y-119108975D01*
X85401670Y-119290513D01*
X85386492Y-119469334D01*
X85356411Y-119641466D01*
X85311449Y-119802935D01*
X85305499Y-119820150D01*
X85235952Y-119987210D01*
X85150007Y-120141457D01*
X85048277Y-120282189D01*
X84931379Y-120408701D01*
X84799927Y-120520289D01*
X84654537Y-120616252D01*
X84569320Y-120661885D01*
X84405780Y-120731672D01*
X84236031Y-120782951D01*
X84062208Y-120815779D01*
X83886447Y-120830211D01*
X83710886Y-120826305D01*
X83537659Y-120804118D01*
X83368903Y-120763707D01*
X83206755Y-120705128D01*
X83053349Y-120628438D01*
X83041059Y-120621251D01*
X82924908Y-120543177D01*
X82811813Y-120449488D01*
X82707479Y-120345452D01*
X82617609Y-120236339D01*
X82604152Y-120217625D01*
X82559128Y-120147387D01*
X82513096Y-120064735D01*
X82469902Y-119977339D01*
X82433395Y-119892869D01*
X82412675Y-119835920D01*
X82383641Y-119746666D01*
X81529097Y-119746666D01*
X81535493Y-119775770D01*
X81590368Y-119987569D01*
X81658844Y-120183994D01*
X81741732Y-120366539D01*
X81839845Y-120536696D01*
X81953996Y-120695960D01*
X82084997Y-120845823D01*
X82156239Y-120916903D01*
X82317273Y-121056222D01*
X82491457Y-121179167D01*
X82678217Y-121285483D01*
X82876979Y-121374912D01*
X83087170Y-121447197D01*
X83308216Y-121502080D01*
X83539545Y-121539305D01*
X83545666Y-121540032D01*
X83616323Y-121546417D01*
X83701179Y-121551030D01*
X83794470Y-121553821D01*
X83890431Y-121554741D01*
X83983297Y-121553743D01*
X84067303Y-121550777D01*
X84136683Y-121545794D01*
X84143584Y-121545077D01*
X84372404Y-121510591D01*
X84592424Y-121457818D01*
X84802826Y-121387124D01*
X85002792Y-121298876D01*
X85191504Y-121193441D01*
X85368146Y-121071185D01*
X85531899Y-120932475D01*
X85551455Y-120913965D01*
X85599338Y-120866772D01*
X85648053Y-120816511D01*
X85692483Y-120768597D01*
X85727512Y-120728448D01*
X85733186Y-120721521D01*
X85858870Y-120548940D01*
X85966908Y-120364999D01*
X86057113Y-120170309D01*
X86129296Y-119965479D01*
X86183271Y-119751119D01*
X86218849Y-119527836D01*
X86235842Y-119296240D01*
X86235437Y-119090500D01*
X86218101Y-118854022D01*
X86183279Y-118629380D01*
X86130882Y-118416353D01*
X86060823Y-118214722D01*
X85973015Y-118024268D01*
X85867369Y-117844770D01*
X85743798Y-117676009D01*
X85610153Y-117525874D01*
X85452019Y-117378594D01*
X85280977Y-117248051D01*
X85097163Y-117134314D01*
X84900712Y-117037449D01*
X84691759Y-116957522D01*
X84470438Y-116894601D01*
X84247270Y-116850387D01*
X84201792Y-116843993D01*
X84153591Y-116839111D01*
X84099118Y-116835574D01*
X84034825Y-116833216D01*
X83957161Y-116831870D01*
X83862578Y-116831370D01*
X83841959Y-116831356D01*
X83726858Y-116832164D01*
G37*
X83726858Y-116832164D02*
X83628336Y-116834928D01*
X83541853Y-116840145D01*
X83462873Y-116848308D01*
X83386856Y-116859915D01*
X83309265Y-116875460D01*
X83225561Y-116895440D01*
X83203616Y-116901065D01*
X82983883Y-116967760D01*
X82777051Y-117050423D01*
X82583616Y-117148614D01*
X82404072Y-117261893D01*
X82238915Y-117389821D01*
X82088639Y-117531958D01*
X81953741Y-117687865D01*
X81834715Y-117857102D01*
X81732057Y-118039229D01*
X81646261Y-118233807D01*
X81619420Y-118307333D01*
X81605991Y-118348519D01*
X81590800Y-118398842D01*
X81575051Y-118453843D01*
X81559946Y-118509062D01*
X81546689Y-118560039D01*
X81536482Y-118602315D01*
X81530530Y-118631430D01*
X81529500Y-118640621D01*
X81539712Y-118641790D01*
X81568857Y-118642871D01*
X81614706Y-118643837D01*
X81675024Y-118644659D01*
X81747580Y-118645309D01*
X81830142Y-118645759D01*
X81920479Y-118645981D01*
X81955944Y-118646000D01*
X82382388Y-118646000D01*
X82412013Y-118555031D01*
X82474958Y-118395355D01*
X82556074Y-118245735D01*
X82654298Y-118107389D01*
X82768567Y-117981537D01*
X82897816Y-117869397D01*
X83040985Y-117772189D01*
X83143459Y-117716369D01*
X83300618Y-117650075D01*
X83466712Y-117601771D01*
X83639238Y-117571636D01*
X83815693Y-117559847D01*
X83993577Y-117566585D01*
X84170386Y-117592027D01*
X84328629Y-117631704D01*
X84494012Y-117692765D01*
X84649325Y-117771509D01*
X84793296Y-117866703D01*
X84924658Y-117977114D01*
X85042140Y-118101508D01*
X85144472Y-118238651D01*
X85230386Y-118387311D01*
X85298610Y-118546253D01*
X85312865Y-118587791D01*
X85357541Y-118753642D01*
X85387218Y-118928694D01*
X85401920Y-119108975D01*
X85401670Y-119290513D01*
X85386492Y-119469334D01*
X85356411Y-119641466D01*
X85311449Y-119802935D01*
X85305499Y-119820150D01*
X85235952Y-119987210D01*
X85150007Y-120141457D01*
X85048277Y-120282189D01*
X84931379Y-120408701D01*
X84799927Y-120520289D01*
X84654537Y-120616252D01*
X84569320Y-120661885D01*
X84405780Y-120731672D01*
X84236031Y-120782951D01*
X84062208Y-120815779D01*
X83886447Y-120830211D01*
X83710886Y-120826305D01*
X83537659Y-120804118D01*
X83368903Y-120763707D01*
X83206755Y-120705128D01*
X83053349Y-120628438D01*
X83041059Y-120621251D01*
X82924908Y-120543177D01*
X82811813Y-120449488D01*
X82707479Y-120345452D01*
X82617609Y-120236339D01*
X82604152Y-120217625D01*
X82559128Y-120147387D01*
X82513096Y-120064735D01*
X82469902Y-119977339D01*
X82433395Y-119892869D01*
X82412675Y-119835920D01*
X82383641Y-119746666D01*
X81529097Y-119746666D01*
X81535493Y-119775770D01*
X81590368Y-119987569D01*
X81658844Y-120183994D01*
X81741732Y-120366539D01*
X81839845Y-120536696D01*
X81953996Y-120695960D01*
X82084997Y-120845823D01*
X82156239Y-120916903D01*
X82317273Y-121056222D01*
X82491457Y-121179167D01*
X82678217Y-121285483D01*
X82876979Y-121374912D01*
X83087170Y-121447197D01*
X83308216Y-121502080D01*
X83539545Y-121539305D01*
X83545666Y-121540032D01*
X83616323Y-121546417D01*
X83701179Y-121551030D01*
X83794470Y-121553821D01*
X83890431Y-121554741D01*
X83983297Y-121553743D01*
X84067303Y-121550777D01*
X84136683Y-121545794D01*
X84143584Y-121545077D01*
X84372404Y-121510591D01*
X84592424Y-121457818D01*
X84802826Y-121387124D01*
X85002792Y-121298876D01*
X85191504Y-121193441D01*
X85368146Y-121071185D01*
X85531899Y-120932475D01*
X85551455Y-120913965D01*
X85599338Y-120866772D01*
X85648053Y-120816511D01*
X85692483Y-120768597D01*
X85727512Y-120728448D01*
X85733186Y-120721521D01*
X85858870Y-120548940D01*
X85966908Y-120364999D01*
X86057113Y-120170309D01*
X86129296Y-119965479D01*
X86183271Y-119751119D01*
X86218849Y-119527836D01*
X86235842Y-119296240D01*
X86235437Y-119090500D01*
X86218101Y-118854022D01*
X86183279Y-118629380D01*
X86130882Y-118416353D01*
X86060823Y-118214722D01*
X85973015Y-118024268D01*
X85867369Y-117844770D01*
X85743798Y-117676009D01*
X85610153Y-117525874D01*
X85452019Y-117378594D01*
X85280977Y-117248051D01*
X85097163Y-117134314D01*
X84900712Y-117037449D01*
X84691759Y-116957522D01*
X84470438Y-116894601D01*
X84247270Y-116850387D01*
X84201792Y-116843993D01*
X84153591Y-116839111D01*
X84099118Y-116835574D01*
X84034825Y-116833216D01*
X83957161Y-116831870D01*
X83862578Y-116831370D01*
X83841959Y-116831356D01*
X83726858Y-116832164D01*
G36*
X73386441Y-116802505D02*
G01*
X73328905Y-116807273D01*
X73260183Y-116814494D01*
X73185108Y-116823574D01*
X73108514Y-116833919D01*
X73035233Y-116844934D01*
X72970098Y-116856027D01*
X72954355Y-116858993D01*
X72893500Y-116870753D01*
X72893500Y-117235215D01*
X72893556Y-117332715D01*
X72893790Y-117411083D01*
X72894310Y-117472352D01*
X72895220Y-117518556D01*
X72896624Y-117551728D01*
X72898628Y-117573903D01*
X72901337Y-117587113D01*
X72904855Y-117593394D01*
X72909288Y-117594778D01*
X72912021Y-117594229D01*
X73075736Y-117557016D01*
X73244362Y-117539906D01*
X73415962Y-117542975D01*
X73588601Y-117566295D01*
X73596834Y-117567915D01*
X73761789Y-117611317D01*
X73917582Y-117673795D01*
X74064146Y-117755314D01*
X74201415Y-117855838D01*
X74305328Y-117950754D01*
X74411418Y-118067937D01*
X74501203Y-118191374D01*
X74576203Y-118323914D01*
X74637941Y-118468406D01*
X74687938Y-118627702D01*
X74706292Y-118701837D01*
X74709568Y-118716411D01*
X74712512Y-118730915D01*
X74715146Y-118746510D01*
X74717490Y-118764360D01*
X74719565Y-118785628D01*
X74721393Y-118811478D01*
X74722993Y-118843073D01*
X74724388Y-118881577D01*
X74725597Y-118928152D01*
X74726643Y-118983961D01*
X74727545Y-119050170D01*
X74728325Y-119127939D01*
X74729003Y-119218434D01*
X74729601Y-119322816D01*
X74730139Y-119442250D01*
X74730638Y-119577899D01*
X74731120Y-119730926D01*
X74731604Y-119902494D01*
X74732113Y-120093767D01*
X74732250Y-120146187D01*
X74735764Y-121492916D01*
X75141077Y-121492916D01*
X75231699Y-121492738D01*
X75315626Y-121492230D01*
X75390515Y-121491432D01*
X75454023Y-121490385D01*
X75503807Y-121489128D01*
X75537524Y-121487701D01*
X75552831Y-121486146D01*
X75553445Y-121485861D01*
X75554059Y-121474848D01*
X75554651Y-121443847D01*
X75555218Y-121394036D01*
X75555760Y-121326592D01*
X75556278Y-121242696D01*
X75556769Y-121143524D01*
X75557234Y-121030254D01*
X75557672Y-120904066D01*
X75558081Y-120766138D01*
X75558462Y-120617647D01*
X75558813Y-120459772D01*
X75559135Y-120293691D01*
X75559425Y-120120582D01*
X75559684Y-119941624D01*
X75559912Y-119757996D01*
X75560106Y-119570874D01*
X75560267Y-119381438D01*
X75560393Y-119190865D01*
X75560485Y-119000334D01*
X75560541Y-118811024D01*
X75560562Y-118624112D01*
X75560545Y-118440777D01*
X75560490Y-118262196D01*
X75560398Y-118089549D01*
X75560266Y-117924014D01*
X75560095Y-117766768D01*
X75559884Y-117618990D01*
X75559631Y-117481858D01*
X75559337Y-117356551D01*
X75559001Y-117244247D01*
X75558621Y-117146123D01*
X75558198Y-117063359D01*
X75557730Y-116997132D01*
X75557217Y-116948622D01*
X75556659Y-116919005D01*
X75556099Y-116909451D01*
X75544894Y-116908544D01*
X75514837Y-116907846D01*
X75468242Y-116907366D01*
X75407423Y-116907113D01*
X75334694Y-116907095D01*
X75252368Y-116907321D01*
X75162758Y-116907799D01*
X75143349Y-116907931D01*
X74735000Y-116910821D01*
X74735000Y-117175160D01*
X74734843Y-117262174D01*
X74734100Y-117329690D01*
X74732366Y-117379376D01*
X74729235Y-117412901D01*
X74724303Y-117431931D01*
X74717164Y-117438135D01*
X74707413Y-117433181D01*
X74694645Y-117418736D01*
X74680510Y-117399386D01*
X74622138Y-117326456D01*
X74548420Y-117249638D01*
X74463691Y-117172830D01*
X74372284Y-117099932D01*
X74278536Y-117034844D01*
X74267482Y-117027836D01*
X74160891Y-116969234D01*
X74040024Y-116917054D01*
X73911379Y-116873649D01*
X73781452Y-116841372D01*
X73724418Y-116831124D01*
X73671509Y-116823593D01*
X73611514Y-116816243D01*
X73550440Y-116809690D01*
X73494293Y-116804549D01*
X73449078Y-116801432D01*
X73427959Y-116800783D01*
X73386441Y-116802505D01*
G37*
X73386441Y-116802505D02*
X73328905Y-116807273D01*
X73260183Y-116814494D01*
X73185108Y-116823574D01*
X73108514Y-116833919D01*
X73035233Y-116844934D01*
X72970098Y-116856027D01*
X72954355Y-116858993D01*
X72893500Y-116870753D01*
X72893500Y-117235215D01*
X72893556Y-117332715D01*
X72893790Y-117411083D01*
X72894310Y-117472352D01*
X72895220Y-117518556D01*
X72896624Y-117551728D01*
X72898628Y-117573903D01*
X72901337Y-117587113D01*
X72904855Y-117593394D01*
X72909288Y-117594778D01*
X72912021Y-117594229D01*
X73075736Y-117557016D01*
X73244362Y-117539906D01*
X73415962Y-117542975D01*
X73588601Y-117566295D01*
X73596834Y-117567915D01*
X73761789Y-117611317D01*
X73917582Y-117673795D01*
X74064146Y-117755314D01*
X74201415Y-117855838D01*
X74305328Y-117950754D01*
X74411418Y-118067937D01*
X74501203Y-118191374D01*
X74576203Y-118323914D01*
X74637941Y-118468406D01*
X74687938Y-118627702D01*
X74706292Y-118701837D01*
X74709568Y-118716411D01*
X74712512Y-118730915D01*
X74715146Y-118746510D01*
X74717490Y-118764360D01*
X74719565Y-118785628D01*
X74721393Y-118811478D01*
X74722993Y-118843073D01*
X74724388Y-118881577D01*
X74725597Y-118928152D01*
X74726643Y-118983961D01*
X74727545Y-119050170D01*
X74728325Y-119127939D01*
X74729003Y-119218434D01*
X74729601Y-119322816D01*
X74730139Y-119442250D01*
X74730638Y-119577899D01*
X74731120Y-119730926D01*
X74731604Y-119902494D01*
X74732113Y-120093767D01*
X74732250Y-120146187D01*
X74735764Y-121492916D01*
X75141077Y-121492916D01*
X75231699Y-121492738D01*
X75315626Y-121492230D01*
X75390515Y-121491432D01*
X75454023Y-121490385D01*
X75503807Y-121489128D01*
X75537524Y-121487701D01*
X75552831Y-121486146D01*
X75553445Y-121485861D01*
X75554059Y-121474848D01*
X75554651Y-121443847D01*
X75555218Y-121394036D01*
X75555760Y-121326592D01*
X75556278Y-121242696D01*
X75556769Y-121143524D01*
X75557234Y-121030254D01*
X75557672Y-120904066D01*
X75558081Y-120766138D01*
X75558462Y-120617647D01*
X75558813Y-120459772D01*
X75559135Y-120293691D01*
X75559425Y-120120582D01*
X75559684Y-119941624D01*
X75559912Y-119757996D01*
X75560106Y-119570874D01*
X75560267Y-119381438D01*
X75560393Y-119190865D01*
X75560485Y-119000334D01*
X75560541Y-118811024D01*
X75560562Y-118624112D01*
X75560545Y-118440777D01*
X75560490Y-118262196D01*
X75560398Y-118089549D01*
X75560266Y-117924014D01*
X75560095Y-117766768D01*
X75559884Y-117618990D01*
X75559631Y-117481858D01*
X75559337Y-117356551D01*
X75559001Y-117244247D01*
X75558621Y-117146123D01*
X75558198Y-117063359D01*
X75557730Y-116997132D01*
X75557217Y-116948622D01*
X75556659Y-116919005D01*
X75556099Y-116909451D01*
X75544894Y-116908544D01*
X75514837Y-116907846D01*
X75468242Y-116907366D01*
X75407423Y-116907113D01*
X75334694Y-116907095D01*
X75252368Y-116907321D01*
X75162758Y-116907799D01*
X75143349Y-116907931D01*
X74735000Y-116910821D01*
X74735000Y-117175160D01*
X74734843Y-117262174D01*
X74734100Y-117329690D01*
X74732366Y-117379376D01*
X74729235Y-117412901D01*
X74724303Y-117431931D01*
X74717164Y-117438135D01*
X74707413Y-117433181D01*
X74694645Y-117418736D01*
X74680510Y-117399386D01*
X74622138Y-117326456D01*
X74548420Y-117249638D01*
X74463691Y-117172830D01*
X74372284Y-117099932D01*
X74278536Y-117034844D01*
X74267482Y-117027836D01*
X74160891Y-116969234D01*
X74040024Y-116917054D01*
X73911379Y-116873649D01*
X73781452Y-116841372D01*
X73724418Y-116831124D01*
X73671509Y-116823593D01*
X73611514Y-116816243D01*
X73550440Y-116809690D01*
X73494293Y-116804549D01*
X73449078Y-116801432D01*
X73427959Y-116800783D01*
X73386441Y-116802505D01*
G36*
X69913133Y-116836010D02*
G01*
X69702961Y-116856224D01*
X69508404Y-116889621D01*
X69328148Y-116936675D01*
X69160881Y-116997862D01*
X69005288Y-117073655D01*
X68860057Y-117164531D01*
X68733572Y-117262629D01*
X68610499Y-117381357D01*
X68499523Y-117516844D01*
X68401124Y-117668159D01*
X68315779Y-117834368D01*
X68243970Y-118014538D01*
X68186173Y-118207737D01*
X68142869Y-118413031D01*
X68142846Y-118413166D01*
X68135926Y-118454173D01*
X68129691Y-118492473D01*
X68124107Y-118529331D01*
X68119137Y-118566007D01*
X68114745Y-118603766D01*
X68110896Y-118643870D01*
X68107555Y-118687582D01*
X68104684Y-118736165D01*
X68102248Y-118790880D01*
X68100213Y-118852993D01*
X68098541Y-118923764D01*
X68097197Y-119004457D01*
X68096145Y-119096334D01*
X68095350Y-119200659D01*
X68094775Y-119318695D01*
X68094385Y-119451703D01*
X68094144Y-119600947D01*
X68094017Y-119767689D01*
X68093967Y-119953193D01*
X68093959Y-120138250D01*
X68093959Y-121487625D01*
X68503591Y-121490394D01*
X68913222Y-121493164D01*
X68916857Y-120098686D01*
X68917386Y-119898412D01*
X68917886Y-119718132D01*
X68918378Y-119556673D01*
X68918882Y-119412864D01*
X68919418Y-119285532D01*
X68920007Y-119173505D01*
X68920669Y-119075609D01*
X68921423Y-118990674D01*
X68922290Y-118917525D01*
X68923291Y-118854991D01*
X68924445Y-118801899D01*
X68925772Y-118757078D01*
X68927293Y-118719354D01*
X68929028Y-118687555D01*
X68930997Y-118660508D01*
X68933221Y-118637042D01*
X68935718Y-118615984D01*
X68938511Y-118596161D01*
X68941618Y-118576401D01*
X68943222Y-118566625D01*
X68970168Y-118424536D01*
X69001554Y-118300361D01*
X69038561Y-118191101D01*
X69082369Y-118093756D01*
X69134157Y-118005326D01*
X69195107Y-117922811D01*
X69197826Y-117919502D01*
X69286605Y-117828363D01*
X69391332Y-117750356D01*
X69511118Y-117685787D01*
X69645075Y-117634961D01*
X69792313Y-117598183D01*
X69951944Y-117575759D01*
X70123078Y-117567994D01*
X70215917Y-117569834D01*
X70387584Y-117584583D01*
X70545414Y-117614557D01*
X70690866Y-117660349D01*
X70825403Y-117722556D01*
X70950486Y-117801775D01*
X71067576Y-117898600D01*
X71100923Y-117930732D01*
X71195569Y-118035294D01*
X71276148Y-118147353D01*
X71344081Y-118269638D01*
X71400789Y-118404877D01*
X71447693Y-118555801D01*
X71466996Y-118633984D01*
X71470368Y-118648924D01*
X71473404Y-118663526D01*
X71476126Y-118678941D01*
X71478557Y-118696322D01*
X71480720Y-118716819D01*
X71482636Y-118741585D01*
X71484330Y-118771771D01*
X71485824Y-118808528D01*
X71487139Y-118853010D01*
X71488300Y-118906367D01*
X71489328Y-118969751D01*
X71490246Y-119044313D01*
X71491077Y-119131206D01*
X71491844Y-119231581D01*
X71492569Y-119346590D01*
X71493275Y-119477384D01*
X71493984Y-119625116D01*
X71494720Y-119790936D01*
X71495504Y-119975997D01*
X71496070Y-120111791D01*
X71501792Y-121487625D01*
X71917188Y-121490393D01*
X72332584Y-121493162D01*
X72332584Y-116899750D01*
X71496500Y-116899750D01*
X71496500Y-117164333D01*
X71496324Y-117251555D01*
X71495544Y-117319275D01*
X71493783Y-117369152D01*
X71490663Y-117402850D01*
X71485808Y-117422031D01*
X71478840Y-117428356D01*
X71469382Y-117423488D01*
X71457057Y-117409088D01*
X71444873Y-117391813D01*
X71413200Y-117351580D01*
X71368456Y-117303179D01*
X71314909Y-117250586D01*
X71256825Y-117197776D01*
X71198469Y-117148726D01*
X71144110Y-117107409D01*
X71127039Y-117095658D01*
X71035749Y-117038800D01*
X70947339Y-116992751D01*
X70853858Y-116953804D01*
X70747350Y-116918252D01*
X70744682Y-116917444D01*
X70578992Y-116876150D01*
X70399692Y-116847831D01*
X70210145Y-116832816D01*
X70013715Y-116831433D01*
X69913133Y-116836010D01*
G37*
X69913133Y-116836010D02*
X69702961Y-116856224D01*
X69508404Y-116889621D01*
X69328148Y-116936675D01*
X69160881Y-116997862D01*
X69005288Y-117073655D01*
X68860057Y-117164531D01*
X68733572Y-117262629D01*
X68610499Y-117381357D01*
X68499523Y-117516844D01*
X68401124Y-117668159D01*
X68315779Y-117834368D01*
X68243970Y-118014538D01*
X68186173Y-118207737D01*
X68142869Y-118413031D01*
X68142846Y-118413166D01*
X68135926Y-118454173D01*
X68129691Y-118492473D01*
X68124107Y-118529331D01*
X68119137Y-118566007D01*
X68114745Y-118603766D01*
X68110896Y-118643870D01*
X68107555Y-118687582D01*
X68104684Y-118736165D01*
X68102248Y-118790880D01*
X68100213Y-118852993D01*
X68098541Y-118923764D01*
X68097197Y-119004457D01*
X68096145Y-119096334D01*
X68095350Y-119200659D01*
X68094775Y-119318695D01*
X68094385Y-119451703D01*
X68094144Y-119600947D01*
X68094017Y-119767689D01*
X68093967Y-119953193D01*
X68093959Y-120138250D01*
X68093959Y-121487625D01*
X68503591Y-121490394D01*
X68913222Y-121493164D01*
X68916857Y-120098686D01*
X68917386Y-119898412D01*
X68917886Y-119718132D01*
X68918378Y-119556673D01*
X68918882Y-119412864D01*
X68919418Y-119285532D01*
X68920007Y-119173505D01*
X68920669Y-119075609D01*
X68921423Y-118990674D01*
X68922290Y-118917525D01*
X68923291Y-118854991D01*
X68924445Y-118801899D01*
X68925772Y-118757078D01*
X68927293Y-118719354D01*
X68929028Y-118687555D01*
X68930997Y-118660508D01*
X68933221Y-118637042D01*
X68935718Y-118615984D01*
X68938511Y-118596161D01*
X68941618Y-118576401D01*
X68943222Y-118566625D01*
X68970168Y-118424536D01*
X69001554Y-118300361D01*
X69038561Y-118191101D01*
X69082369Y-118093756D01*
X69134157Y-118005326D01*
X69195107Y-117922811D01*
X69197826Y-117919502D01*
X69286605Y-117828363D01*
X69391332Y-117750356D01*
X69511118Y-117685787D01*
X69645075Y-117634961D01*
X69792313Y-117598183D01*
X69951944Y-117575759D01*
X70123078Y-117567994D01*
X70215917Y-117569834D01*
X70387584Y-117584583D01*
X70545414Y-117614557D01*
X70690866Y-117660349D01*
X70825403Y-117722556D01*
X70950486Y-117801775D01*
X71067576Y-117898600D01*
X71100923Y-117930732D01*
X71195569Y-118035294D01*
X71276148Y-118147353D01*
X71344081Y-118269638D01*
X71400789Y-118404877D01*
X71447693Y-118555801D01*
X71466996Y-118633984D01*
X71470368Y-118648924D01*
X71473404Y-118663526D01*
X71476126Y-118678941D01*
X71478557Y-118696322D01*
X71480720Y-118716819D01*
X71482636Y-118741585D01*
X71484330Y-118771771D01*
X71485824Y-118808528D01*
X71487139Y-118853010D01*
X71488300Y-118906367D01*
X71489328Y-118969751D01*
X71490246Y-119044313D01*
X71491077Y-119131206D01*
X71491844Y-119231581D01*
X71492569Y-119346590D01*
X71493275Y-119477384D01*
X71493984Y-119625116D01*
X71494720Y-119790936D01*
X71495504Y-119975997D01*
X71496070Y-120111791D01*
X71501792Y-121487625D01*
X71917188Y-121490393D01*
X72332584Y-121493162D01*
X72332584Y-116899750D01*
X71496500Y-116899750D01*
X71496500Y-117164333D01*
X71496324Y-117251555D01*
X71495544Y-117319275D01*
X71493783Y-117369152D01*
X71490663Y-117402850D01*
X71485808Y-117422031D01*
X71478840Y-117428356D01*
X71469382Y-117423488D01*
X71457057Y-117409088D01*
X71444873Y-117391813D01*
X71413200Y-117351580D01*
X71368456Y-117303179D01*
X71314909Y-117250586D01*
X71256825Y-117197776D01*
X71198469Y-117148726D01*
X71144110Y-117107409D01*
X71127039Y-117095658D01*
X71035749Y-117038800D01*
X70947339Y-116992751D01*
X70853858Y-116953804D01*
X70747350Y-116918252D01*
X70744682Y-116917444D01*
X70578992Y-116876150D01*
X70399692Y-116847831D01*
X70210145Y-116832816D01*
X70013715Y-116831433D01*
X69913133Y-116836010D01*
D11*
X79500000Y-105500000D03*
X79500000Y-86750000D03*
X155500000Y-83000000D03*
X122750000Y-122750000D03*
X169250000Y-130500000D03*
M02*
