G04 #@! TF.GenerationSoftware,KiCad,Pcbnew,5.1.5+dfsg1-2~bpo10+1*
G04 #@! TF.CreationDate,2020-09-05T13:18:24+00:00*
G04 #@! TF.ProjectId,corne-bottom-plate,636f726e-652d-4626-9f74-746f6d2d706c,2.1*
G04 #@! TF.SameCoordinates,Original*
G04 #@! TF.FileFunction,Copper,L1,Top*
G04 #@! TF.FilePolarity,Positive*
%FSLAX46Y46*%
G04 Gerber Fmt 4.6, Leading zero omitted, Abs format (unit mm)*
G04 Created by KiCad (PCBNEW 5.1.5+dfsg1-2~bpo10+1) date 2020-09-05 13:18:24*
%MOMM*%
%LPD*%
G04 APERTURE LIST*
%ADD10C,4.000000*%
%ADD11C,0.254000*%
%ADD12C,0.350000*%
G04 APERTURE END LIST*
D10*
X79500000Y-105500000D03*
X79500000Y-86750000D03*
X155500000Y-83000000D03*
X122750000Y-122750000D03*
X169250000Y-130500000D03*
D11*
G36*
X135290000Y-62784876D02*
G01*
X135292955Y-62814876D01*
X135292934Y-62817839D01*
X135293901Y-62827705D01*
X135298941Y-62875660D01*
X135300273Y-62889183D01*
X135300410Y-62889634D01*
X135304101Y-62924754D01*
X135317045Y-62987811D01*
X135329099Y-63051001D01*
X135331964Y-63060491D01*
X135360820Y-63153710D01*
X135385752Y-63213021D01*
X135409865Y-63272702D01*
X135414519Y-63281454D01*
X135460932Y-63367292D01*
X135496898Y-63420612D01*
X135532152Y-63474486D01*
X135538417Y-63482168D01*
X135600619Y-63557357D01*
X135646269Y-63602689D01*
X135691299Y-63648673D01*
X135698938Y-63654992D01*
X135774559Y-63716668D01*
X135828147Y-63752272D01*
X135881262Y-63788641D01*
X135889983Y-63793356D01*
X135976144Y-63839168D01*
X136035612Y-63863679D01*
X136094780Y-63889038D01*
X136104249Y-63891969D01*
X136197667Y-63920174D01*
X136260787Y-63932672D01*
X136323743Y-63946054D01*
X136333602Y-63947090D01*
X136430719Y-63956612D01*
X136430723Y-63956612D01*
X136465123Y-63960000D01*
X154290001Y-63960000D01*
X154290000Y-65284876D01*
X154292955Y-65314876D01*
X154292934Y-65317839D01*
X154293901Y-65327705D01*
X154298941Y-65375660D01*
X154300273Y-65389183D01*
X154300410Y-65389634D01*
X154304101Y-65424754D01*
X154317045Y-65487811D01*
X154329099Y-65551001D01*
X154331964Y-65560491D01*
X154360820Y-65653710D01*
X154385752Y-65713021D01*
X154409865Y-65772702D01*
X154414519Y-65781454D01*
X154460932Y-65867292D01*
X154496898Y-65920612D01*
X154532152Y-65974486D01*
X154538417Y-65982168D01*
X154600619Y-66057357D01*
X154646269Y-66102689D01*
X154691299Y-66148673D01*
X154698938Y-66154992D01*
X154774559Y-66216668D01*
X154828147Y-66252272D01*
X154881262Y-66288641D01*
X154889983Y-66293356D01*
X154976144Y-66339168D01*
X155035612Y-66363679D01*
X155094780Y-66389038D01*
X155104249Y-66391969D01*
X155197667Y-66420174D01*
X155260787Y-66432672D01*
X155323743Y-66446054D01*
X155333602Y-66447090D01*
X155430719Y-66456612D01*
X155430723Y-66456612D01*
X155465123Y-66460000D01*
X173290000Y-66460000D01*
X173290001Y-67534877D01*
X173292955Y-67564868D01*
X173292934Y-67567839D01*
X173293901Y-67577705D01*
X173298955Y-67625796D01*
X173300274Y-67639184D01*
X173300409Y-67639631D01*
X173304101Y-67674754D01*
X173317045Y-67737811D01*
X173329099Y-67801001D01*
X173331964Y-67810491D01*
X173360820Y-67903710D01*
X173385752Y-67963021D01*
X173409865Y-68022702D01*
X173414519Y-68031454D01*
X173460932Y-68117292D01*
X173496898Y-68170612D01*
X173532152Y-68224486D01*
X173538417Y-68232168D01*
X173600619Y-68307357D01*
X173646269Y-68352689D01*
X173691299Y-68398673D01*
X173698938Y-68404992D01*
X173774559Y-68466668D01*
X173828147Y-68502272D01*
X173881262Y-68538641D01*
X173889983Y-68543356D01*
X173976144Y-68589168D01*
X174035612Y-68613679D01*
X174094780Y-68639038D01*
X174104249Y-68641969D01*
X174197667Y-68670174D01*
X174260787Y-68682672D01*
X174323743Y-68696054D01*
X174333602Y-68697090D01*
X174430719Y-68706612D01*
X174430723Y-68706612D01*
X174465123Y-68710000D01*
X194040000Y-68710000D01*
X194040001Y-127945012D01*
X194020387Y-128176837D01*
X193964580Y-128371000D01*
X193883510Y-128538740D01*
X193881085Y-128545333D01*
X180708000Y-151380343D01*
X180620779Y-151486705D01*
X180519299Y-151570201D01*
X180403527Y-151632400D01*
X180277885Y-151670925D01*
X180147150Y-151684313D01*
X180016312Y-151672053D01*
X179890338Y-151634611D01*
X179794327Y-151584091D01*
X179785343Y-151577650D01*
X165399943Y-143267760D01*
X165304484Y-143224481D01*
X165168286Y-143192691D01*
X165156666Y-143192308D01*
X164634052Y-143088833D01*
X164576191Y-143075434D01*
X127878032Y-138300674D01*
X121993250Y-130240475D01*
X166615000Y-130240475D01*
X166615000Y-130759525D01*
X166716261Y-131268601D01*
X166914893Y-131748141D01*
X167203262Y-132179715D01*
X167570285Y-132546738D01*
X168001859Y-132835107D01*
X168481399Y-133033739D01*
X168990475Y-133135000D01*
X169509525Y-133135000D01*
X170018601Y-133033739D01*
X170498141Y-132835107D01*
X170929715Y-132546738D01*
X171296738Y-132179715D01*
X171585107Y-131748141D01*
X171783739Y-131268601D01*
X171885000Y-130759525D01*
X171885000Y-130240475D01*
X171783739Y-129731399D01*
X171585107Y-129251859D01*
X171296738Y-128820285D01*
X170929715Y-128453262D01*
X170498141Y-128164893D01*
X170018601Y-127966261D01*
X169509525Y-127865000D01*
X168990475Y-127865000D01*
X168481399Y-127966261D01*
X168001859Y-128164893D01*
X167570285Y-128453262D01*
X167203262Y-128820285D01*
X166914893Y-129251859D01*
X166716261Y-129731399D01*
X166615000Y-130240475D01*
X121993250Y-130240475D01*
X117460567Y-124032205D01*
X117448381Y-124008788D01*
X117423911Y-123978237D01*
X117405650Y-123950330D01*
X117383187Y-123927391D01*
X117361757Y-123900635D01*
X117354784Y-123893588D01*
X117353548Y-123892356D01*
X117335046Y-123877208D01*
X117333060Y-123874984D01*
X117328512Y-123871558D01*
X117308701Y-123851327D01*
X117301062Y-123845008D01*
X117225441Y-123783332D01*
X117171853Y-123747728D01*
X117118738Y-123711359D01*
X117110017Y-123706644D01*
X117023856Y-123660832D01*
X116964388Y-123636321D01*
X116905220Y-123610962D01*
X116895751Y-123608031D01*
X116802333Y-123579826D01*
X116739213Y-123567328D01*
X116676257Y-123553946D01*
X116666398Y-123552910D01*
X116569281Y-123543388D01*
X116569277Y-123543388D01*
X116534877Y-123540000D01*
X61710000Y-123540000D01*
X61710000Y-122490475D01*
X120115000Y-122490475D01*
X120115000Y-123009525D01*
X120216261Y-123518601D01*
X120414893Y-123998141D01*
X120703262Y-124429715D01*
X121070285Y-124796738D01*
X121501859Y-125085107D01*
X121981399Y-125283739D01*
X122490475Y-125385000D01*
X123009525Y-125385000D01*
X123518601Y-125283739D01*
X123998141Y-125085107D01*
X124429715Y-124796738D01*
X124796738Y-124429715D01*
X125085107Y-123998141D01*
X125283739Y-123518601D01*
X125385000Y-123009525D01*
X125385000Y-122490475D01*
X125283739Y-121981399D01*
X125085107Y-121501859D01*
X124796738Y-121070285D01*
X124429715Y-120703262D01*
X123998141Y-120414893D01*
X123518601Y-120216261D01*
X123009525Y-120115000D01*
X122490475Y-120115000D01*
X121981399Y-120216261D01*
X121501859Y-120414893D01*
X121070285Y-120703262D01*
X120703262Y-121070285D01*
X120414893Y-121501859D01*
X120216261Y-121981399D01*
X120115000Y-122490475D01*
X61710000Y-122490475D01*
X61710000Y-105240475D01*
X76865000Y-105240475D01*
X76865000Y-105759525D01*
X76966261Y-106268601D01*
X77164893Y-106748141D01*
X77453262Y-107179715D01*
X77820285Y-107546738D01*
X78251859Y-107835107D01*
X78731399Y-108033739D01*
X79240475Y-108135000D01*
X79759525Y-108135000D01*
X80268601Y-108033739D01*
X80748141Y-107835107D01*
X81179715Y-107546738D01*
X81546738Y-107179715D01*
X81835107Y-106748141D01*
X82033739Y-106268601D01*
X82135000Y-105759525D01*
X82135000Y-105240475D01*
X82033739Y-104731399D01*
X81835107Y-104251859D01*
X81546738Y-103820285D01*
X81179715Y-103453262D01*
X80748141Y-103164893D01*
X80268601Y-102966261D01*
X79759525Y-102865000D01*
X79240475Y-102865000D01*
X78731399Y-102966261D01*
X78251859Y-103164893D01*
X77820285Y-103453262D01*
X77453262Y-103820285D01*
X77164893Y-104251859D01*
X76966261Y-104731399D01*
X76865000Y-105240475D01*
X61710000Y-105240475D01*
X61710000Y-86490475D01*
X76865000Y-86490475D01*
X76865000Y-87009525D01*
X76966261Y-87518601D01*
X77164893Y-87998141D01*
X77453262Y-88429715D01*
X77820285Y-88796738D01*
X78251859Y-89085107D01*
X78731399Y-89283739D01*
X79240475Y-89385000D01*
X79759525Y-89385000D01*
X80268601Y-89283739D01*
X80748141Y-89085107D01*
X81179715Y-88796738D01*
X81546738Y-88429715D01*
X81835107Y-87998141D01*
X82033739Y-87518601D01*
X82135000Y-87009525D01*
X82135000Y-86490475D01*
X82033739Y-85981399D01*
X81835107Y-85501859D01*
X81546738Y-85070285D01*
X81179715Y-84703262D01*
X80748141Y-84414893D01*
X80268601Y-84216261D01*
X79759525Y-84115000D01*
X79240475Y-84115000D01*
X78731399Y-84216261D01*
X78251859Y-84414893D01*
X77820285Y-84703262D01*
X77453262Y-85070285D01*
X77164893Y-85501859D01*
X76966261Y-85981399D01*
X76865000Y-86490475D01*
X61710000Y-86490475D01*
X61710000Y-82740475D01*
X152865000Y-82740475D01*
X152865000Y-83259525D01*
X152966261Y-83768601D01*
X153164893Y-84248141D01*
X153453262Y-84679715D01*
X153820285Y-85046738D01*
X154251859Y-85335107D01*
X154731399Y-85533739D01*
X155240475Y-85635000D01*
X155759525Y-85635000D01*
X156268601Y-85533739D01*
X156748141Y-85335107D01*
X157179715Y-85046738D01*
X157546738Y-84679715D01*
X157835107Y-84248141D01*
X158033739Y-83768601D01*
X158135000Y-83259525D01*
X158135000Y-82740475D01*
X158033739Y-82231399D01*
X157835107Y-81751859D01*
X157546738Y-81320285D01*
X157179715Y-80953262D01*
X156748141Y-80664893D01*
X156268601Y-80466261D01*
X155759525Y-80365000D01*
X155240475Y-80365000D01*
X154731399Y-80466261D01*
X154251859Y-80664893D01*
X153820285Y-80953262D01*
X153453262Y-81320285D01*
X153164893Y-81751859D01*
X152966261Y-82231399D01*
X152865000Y-82740475D01*
X61710000Y-82740475D01*
X61710000Y-68710000D01*
X98534877Y-68710000D01*
X98564877Y-68707045D01*
X98567839Y-68707066D01*
X98577705Y-68706099D01*
X98625645Y-68701060D01*
X98639184Y-68699727D01*
X98639636Y-68699590D01*
X98674754Y-68695899D01*
X98737811Y-68682955D01*
X98801001Y-68670901D01*
X98810491Y-68668036D01*
X98903710Y-68639180D01*
X98963021Y-68614248D01*
X99022702Y-68590135D01*
X99031454Y-68585481D01*
X99117292Y-68539068D01*
X99170612Y-68503102D01*
X99224486Y-68467848D01*
X99232168Y-68461583D01*
X99307357Y-68399381D01*
X99352689Y-68353731D01*
X99398673Y-68308701D01*
X99404992Y-68301062D01*
X99466668Y-68225441D01*
X99502272Y-68171853D01*
X99538641Y-68118738D01*
X99543356Y-68110017D01*
X99589168Y-68023856D01*
X99613679Y-67964388D01*
X99639038Y-67905220D01*
X99641969Y-67895751D01*
X99670174Y-67802333D01*
X99682672Y-67739213D01*
X99696054Y-67676257D01*
X99697090Y-67666398D01*
X99706612Y-67569281D01*
X99706612Y-67569277D01*
X99710000Y-67534877D01*
X99710000Y-63960000D01*
X117534877Y-63960000D01*
X117564877Y-63957045D01*
X117567839Y-63957066D01*
X117577705Y-63956099D01*
X117625645Y-63951060D01*
X117639184Y-63949727D01*
X117639636Y-63949590D01*
X117674754Y-63945899D01*
X117737811Y-63932955D01*
X117801001Y-63920901D01*
X117810491Y-63918036D01*
X117903710Y-63889180D01*
X117963021Y-63864248D01*
X118022702Y-63840135D01*
X118031454Y-63835481D01*
X118117292Y-63789068D01*
X118170612Y-63753102D01*
X118224486Y-63717848D01*
X118232168Y-63711583D01*
X118307357Y-63649381D01*
X118352689Y-63603731D01*
X118398673Y-63558701D01*
X118404992Y-63551062D01*
X118466668Y-63475441D01*
X118502272Y-63421853D01*
X118538641Y-63368738D01*
X118543356Y-63360017D01*
X118589168Y-63273856D01*
X118613679Y-63214388D01*
X118639038Y-63155220D01*
X118641969Y-63145751D01*
X118670174Y-63052333D01*
X118682672Y-62989213D01*
X118696054Y-62926257D01*
X118697090Y-62916398D01*
X118706612Y-62819281D01*
X118706612Y-62819277D01*
X118710000Y-62784877D01*
X118710000Y-61710000D01*
X135290001Y-61710000D01*
X135290000Y-62784876D01*
G37*
X135290000Y-62784876D02*
X135292955Y-62814876D01*
X135292934Y-62817839D01*
X135293901Y-62827705D01*
X135298941Y-62875660D01*
X135300273Y-62889183D01*
X135300410Y-62889634D01*
X135304101Y-62924754D01*
X135317045Y-62987811D01*
X135329099Y-63051001D01*
X135331964Y-63060491D01*
X135360820Y-63153710D01*
X135385752Y-63213021D01*
X135409865Y-63272702D01*
X135414519Y-63281454D01*
X135460932Y-63367292D01*
X135496898Y-63420612D01*
X135532152Y-63474486D01*
X135538417Y-63482168D01*
X135600619Y-63557357D01*
X135646269Y-63602689D01*
X135691299Y-63648673D01*
X135698938Y-63654992D01*
X135774559Y-63716668D01*
X135828147Y-63752272D01*
X135881262Y-63788641D01*
X135889983Y-63793356D01*
X135976144Y-63839168D01*
X136035612Y-63863679D01*
X136094780Y-63889038D01*
X136104249Y-63891969D01*
X136197667Y-63920174D01*
X136260787Y-63932672D01*
X136323743Y-63946054D01*
X136333602Y-63947090D01*
X136430719Y-63956612D01*
X136430723Y-63956612D01*
X136465123Y-63960000D01*
X154290001Y-63960000D01*
X154290000Y-65284876D01*
X154292955Y-65314876D01*
X154292934Y-65317839D01*
X154293901Y-65327705D01*
X154298941Y-65375660D01*
X154300273Y-65389183D01*
X154300410Y-65389634D01*
X154304101Y-65424754D01*
X154317045Y-65487811D01*
X154329099Y-65551001D01*
X154331964Y-65560491D01*
X154360820Y-65653710D01*
X154385752Y-65713021D01*
X154409865Y-65772702D01*
X154414519Y-65781454D01*
X154460932Y-65867292D01*
X154496898Y-65920612D01*
X154532152Y-65974486D01*
X154538417Y-65982168D01*
X154600619Y-66057357D01*
X154646269Y-66102689D01*
X154691299Y-66148673D01*
X154698938Y-66154992D01*
X154774559Y-66216668D01*
X154828147Y-66252272D01*
X154881262Y-66288641D01*
X154889983Y-66293356D01*
X154976144Y-66339168D01*
X155035612Y-66363679D01*
X155094780Y-66389038D01*
X155104249Y-66391969D01*
X155197667Y-66420174D01*
X155260787Y-66432672D01*
X155323743Y-66446054D01*
X155333602Y-66447090D01*
X155430719Y-66456612D01*
X155430723Y-66456612D01*
X155465123Y-66460000D01*
X173290000Y-66460000D01*
X173290001Y-67534877D01*
X173292955Y-67564868D01*
X173292934Y-67567839D01*
X173293901Y-67577705D01*
X173298955Y-67625796D01*
X173300274Y-67639184D01*
X173300409Y-67639631D01*
X173304101Y-67674754D01*
X173317045Y-67737811D01*
X173329099Y-67801001D01*
X173331964Y-67810491D01*
X173360820Y-67903710D01*
X173385752Y-67963021D01*
X173409865Y-68022702D01*
X173414519Y-68031454D01*
X173460932Y-68117292D01*
X173496898Y-68170612D01*
X173532152Y-68224486D01*
X173538417Y-68232168D01*
X173600619Y-68307357D01*
X173646269Y-68352689D01*
X173691299Y-68398673D01*
X173698938Y-68404992D01*
X173774559Y-68466668D01*
X173828147Y-68502272D01*
X173881262Y-68538641D01*
X173889983Y-68543356D01*
X173976144Y-68589168D01*
X174035612Y-68613679D01*
X174094780Y-68639038D01*
X174104249Y-68641969D01*
X174197667Y-68670174D01*
X174260787Y-68682672D01*
X174323743Y-68696054D01*
X174333602Y-68697090D01*
X174430719Y-68706612D01*
X174430723Y-68706612D01*
X174465123Y-68710000D01*
X194040000Y-68710000D01*
X194040001Y-127945012D01*
X194020387Y-128176837D01*
X193964580Y-128371000D01*
X193883510Y-128538740D01*
X193881085Y-128545333D01*
X180708000Y-151380343D01*
X180620779Y-151486705D01*
X180519299Y-151570201D01*
X180403527Y-151632400D01*
X180277885Y-151670925D01*
X180147150Y-151684313D01*
X180016312Y-151672053D01*
X179890338Y-151634611D01*
X179794327Y-151584091D01*
X179785343Y-151577650D01*
X165399943Y-143267760D01*
X165304484Y-143224481D01*
X165168286Y-143192691D01*
X165156666Y-143192308D01*
X164634052Y-143088833D01*
X164576191Y-143075434D01*
X127878032Y-138300674D01*
X121993250Y-130240475D01*
X166615000Y-130240475D01*
X166615000Y-130759525D01*
X166716261Y-131268601D01*
X166914893Y-131748141D01*
X167203262Y-132179715D01*
X167570285Y-132546738D01*
X168001859Y-132835107D01*
X168481399Y-133033739D01*
X168990475Y-133135000D01*
X169509525Y-133135000D01*
X170018601Y-133033739D01*
X170498141Y-132835107D01*
X170929715Y-132546738D01*
X171296738Y-132179715D01*
X171585107Y-131748141D01*
X171783739Y-131268601D01*
X171885000Y-130759525D01*
X171885000Y-130240475D01*
X171783739Y-129731399D01*
X171585107Y-129251859D01*
X171296738Y-128820285D01*
X170929715Y-128453262D01*
X170498141Y-128164893D01*
X170018601Y-127966261D01*
X169509525Y-127865000D01*
X168990475Y-127865000D01*
X168481399Y-127966261D01*
X168001859Y-128164893D01*
X167570285Y-128453262D01*
X167203262Y-128820285D01*
X166914893Y-129251859D01*
X166716261Y-129731399D01*
X166615000Y-130240475D01*
X121993250Y-130240475D01*
X117460567Y-124032205D01*
X117448381Y-124008788D01*
X117423911Y-123978237D01*
X117405650Y-123950330D01*
X117383187Y-123927391D01*
X117361757Y-123900635D01*
X117354784Y-123893588D01*
X117353548Y-123892356D01*
X117335046Y-123877208D01*
X117333060Y-123874984D01*
X117328512Y-123871558D01*
X117308701Y-123851327D01*
X117301062Y-123845008D01*
X117225441Y-123783332D01*
X117171853Y-123747728D01*
X117118738Y-123711359D01*
X117110017Y-123706644D01*
X117023856Y-123660832D01*
X116964388Y-123636321D01*
X116905220Y-123610962D01*
X116895751Y-123608031D01*
X116802333Y-123579826D01*
X116739213Y-123567328D01*
X116676257Y-123553946D01*
X116666398Y-123552910D01*
X116569281Y-123543388D01*
X116569277Y-123543388D01*
X116534877Y-123540000D01*
X61710000Y-123540000D01*
X61710000Y-122490475D01*
X120115000Y-122490475D01*
X120115000Y-123009525D01*
X120216261Y-123518601D01*
X120414893Y-123998141D01*
X120703262Y-124429715D01*
X121070285Y-124796738D01*
X121501859Y-125085107D01*
X121981399Y-125283739D01*
X122490475Y-125385000D01*
X123009525Y-125385000D01*
X123518601Y-125283739D01*
X123998141Y-125085107D01*
X124429715Y-124796738D01*
X124796738Y-124429715D01*
X125085107Y-123998141D01*
X125283739Y-123518601D01*
X125385000Y-123009525D01*
X125385000Y-122490475D01*
X125283739Y-121981399D01*
X125085107Y-121501859D01*
X124796738Y-121070285D01*
X124429715Y-120703262D01*
X123998141Y-120414893D01*
X123518601Y-120216261D01*
X123009525Y-120115000D01*
X122490475Y-120115000D01*
X121981399Y-120216261D01*
X121501859Y-120414893D01*
X121070285Y-120703262D01*
X120703262Y-121070285D01*
X120414893Y-121501859D01*
X120216261Y-121981399D01*
X120115000Y-122490475D01*
X61710000Y-122490475D01*
X61710000Y-105240475D01*
X76865000Y-105240475D01*
X76865000Y-105759525D01*
X76966261Y-106268601D01*
X77164893Y-106748141D01*
X77453262Y-107179715D01*
X77820285Y-107546738D01*
X78251859Y-107835107D01*
X78731399Y-108033739D01*
X79240475Y-108135000D01*
X79759525Y-108135000D01*
X80268601Y-108033739D01*
X80748141Y-107835107D01*
X81179715Y-107546738D01*
X81546738Y-107179715D01*
X81835107Y-106748141D01*
X82033739Y-106268601D01*
X82135000Y-105759525D01*
X82135000Y-105240475D01*
X82033739Y-104731399D01*
X81835107Y-104251859D01*
X81546738Y-103820285D01*
X81179715Y-103453262D01*
X80748141Y-103164893D01*
X80268601Y-102966261D01*
X79759525Y-102865000D01*
X79240475Y-102865000D01*
X78731399Y-102966261D01*
X78251859Y-103164893D01*
X77820285Y-103453262D01*
X77453262Y-103820285D01*
X77164893Y-104251859D01*
X76966261Y-104731399D01*
X76865000Y-105240475D01*
X61710000Y-105240475D01*
X61710000Y-86490475D01*
X76865000Y-86490475D01*
X76865000Y-87009525D01*
X76966261Y-87518601D01*
X77164893Y-87998141D01*
X77453262Y-88429715D01*
X77820285Y-88796738D01*
X78251859Y-89085107D01*
X78731399Y-89283739D01*
X79240475Y-89385000D01*
X79759525Y-89385000D01*
X80268601Y-89283739D01*
X80748141Y-89085107D01*
X81179715Y-88796738D01*
X81546738Y-88429715D01*
X81835107Y-87998141D01*
X82033739Y-87518601D01*
X82135000Y-87009525D01*
X82135000Y-86490475D01*
X82033739Y-85981399D01*
X81835107Y-85501859D01*
X81546738Y-85070285D01*
X81179715Y-84703262D01*
X80748141Y-84414893D01*
X80268601Y-84216261D01*
X79759525Y-84115000D01*
X79240475Y-84115000D01*
X78731399Y-84216261D01*
X78251859Y-84414893D01*
X77820285Y-84703262D01*
X77453262Y-85070285D01*
X77164893Y-85501859D01*
X76966261Y-85981399D01*
X76865000Y-86490475D01*
X61710000Y-86490475D01*
X61710000Y-82740475D01*
X152865000Y-82740475D01*
X152865000Y-83259525D01*
X152966261Y-83768601D01*
X153164893Y-84248141D01*
X153453262Y-84679715D01*
X153820285Y-85046738D01*
X154251859Y-85335107D01*
X154731399Y-85533739D01*
X155240475Y-85635000D01*
X155759525Y-85635000D01*
X156268601Y-85533739D01*
X156748141Y-85335107D01*
X157179715Y-85046738D01*
X157546738Y-84679715D01*
X157835107Y-84248141D01*
X158033739Y-83768601D01*
X158135000Y-83259525D01*
X158135000Y-82740475D01*
X158033739Y-82231399D01*
X157835107Y-81751859D01*
X157546738Y-81320285D01*
X157179715Y-80953262D01*
X156748141Y-80664893D01*
X156268601Y-80466261D01*
X155759525Y-80365000D01*
X155240475Y-80365000D01*
X154731399Y-80466261D01*
X154251859Y-80664893D01*
X153820285Y-80953262D01*
X153453262Y-81320285D01*
X153164893Y-81751859D01*
X152966261Y-82231399D01*
X152865000Y-82740475D01*
X61710000Y-82740475D01*
X61710000Y-68710000D01*
X98534877Y-68710000D01*
X98564877Y-68707045D01*
X98567839Y-68707066D01*
X98577705Y-68706099D01*
X98625645Y-68701060D01*
X98639184Y-68699727D01*
X98639636Y-68699590D01*
X98674754Y-68695899D01*
X98737811Y-68682955D01*
X98801001Y-68670901D01*
X98810491Y-68668036D01*
X98903710Y-68639180D01*
X98963021Y-68614248D01*
X99022702Y-68590135D01*
X99031454Y-68585481D01*
X99117292Y-68539068D01*
X99170612Y-68503102D01*
X99224486Y-68467848D01*
X99232168Y-68461583D01*
X99307357Y-68399381D01*
X99352689Y-68353731D01*
X99398673Y-68308701D01*
X99404992Y-68301062D01*
X99466668Y-68225441D01*
X99502272Y-68171853D01*
X99538641Y-68118738D01*
X99543356Y-68110017D01*
X99589168Y-68023856D01*
X99613679Y-67964388D01*
X99639038Y-67905220D01*
X99641969Y-67895751D01*
X99670174Y-67802333D01*
X99682672Y-67739213D01*
X99696054Y-67676257D01*
X99697090Y-67666398D01*
X99706612Y-67569281D01*
X99706612Y-67569277D01*
X99710000Y-67534877D01*
X99710000Y-63960000D01*
X117534877Y-63960000D01*
X117564877Y-63957045D01*
X117567839Y-63957066D01*
X117577705Y-63956099D01*
X117625645Y-63951060D01*
X117639184Y-63949727D01*
X117639636Y-63949590D01*
X117674754Y-63945899D01*
X117737811Y-63932955D01*
X117801001Y-63920901D01*
X117810491Y-63918036D01*
X117903710Y-63889180D01*
X117963021Y-63864248D01*
X118022702Y-63840135D01*
X118031454Y-63835481D01*
X118117292Y-63789068D01*
X118170612Y-63753102D01*
X118224486Y-63717848D01*
X118232168Y-63711583D01*
X118307357Y-63649381D01*
X118352689Y-63603731D01*
X118398673Y-63558701D01*
X118404992Y-63551062D01*
X118466668Y-63475441D01*
X118502272Y-63421853D01*
X118538641Y-63368738D01*
X118543356Y-63360017D01*
X118589168Y-63273856D01*
X118613679Y-63214388D01*
X118639038Y-63155220D01*
X118641969Y-63145751D01*
X118670174Y-63052333D01*
X118682672Y-62989213D01*
X118696054Y-62926257D01*
X118697090Y-62916398D01*
X118706612Y-62819281D01*
X118706612Y-62819277D01*
X118710000Y-62784877D01*
X118710000Y-61710000D01*
X135290001Y-61710000D01*
X135290000Y-62784876D01*
D12*
X79500000Y-105500000D03*
X79500000Y-86750000D03*
X155500000Y-83000000D03*
X122750000Y-122750000D03*
X169250000Y-130500000D03*
M02*
