G04 #@! TF.GenerationSoftware,KiCad,Pcbnew,5.1.5+dfsg1-2~bpo10+1*
G04 #@! TF.CreationDate,2020-11-03T09:19:01+00:00*
G04 #@! TF.ProjectId,corne-bottom-plate,636f726e-652d-4626-9f74-746f6d2d706c,2.1*
G04 #@! TF.SameCoordinates,Original*
G04 #@! TF.FileFunction,Profile,NP*
%FSLAX46Y46*%
G04 Gerber Fmt 4.6, Leading zero omitted, Abs format (unit mm)*
G04 Created by KiCad (PCBNEW 5.1.5+dfsg1-2~bpo10+1) date 2020-11-03 09:19:01*
%MOMM*%
%LPD*%
G04 APERTURE LIST*
%ADD10C,0.150000*%
G04 APERTURE END LIST*
D10*
X194750001Y-127975000D02*
G75*
G02X194522764Y-128847696I-1702236J-22697D01*
G01*
X181297263Y-151781464D02*
G75*
G02X179369251Y-152160956I-1153013J770507D01*
G01*
X164420556Y-143770344D02*
G75*
G02X165075000Y-143900000I-333152J-3398096D01*
G01*
X181297263Y-151781465D02*
X194525000Y-128850000D01*
X165075000Y-143900000D02*
X179369251Y-152160956D01*
X127750000Y-139000000D02*
X164420556Y-143770344D01*
X127396447Y-138853553D02*
G75*
G03X127750000Y-139000000I353553J353553D01*
G01*
X116853553Y-124396447D02*
X127396447Y-138853553D01*
X174000000Y-66250000D02*
X174000000Y-67500000D01*
X174000000Y-66250000D02*
G75*
G03X173500000Y-65750000I-500000J0D01*
G01*
X174000000Y-67500000D02*
G75*
G03X174500000Y-68000000I500000J0D01*
G01*
X194250000Y-68000000D02*
X174500000Y-68000000D01*
X116853553Y-124396447D02*
G75*
G03X116500000Y-124250000I-353553J-353553D01*
G01*
X61000000Y-123750000D02*
G75*
G03X61500000Y-124250000I500000J0D01*
G01*
X61500000Y-68000000D02*
G75*
G03X61000000Y-68500000I0J-500000D01*
G01*
X98500000Y-68000000D02*
G75*
G03X99000000Y-67500000I0J500000D01*
G01*
X99500000Y-63250000D02*
G75*
G03X99000000Y-63750000I0J-500000D01*
G01*
X117500000Y-63250000D02*
G75*
G03X118000000Y-62750000I0J500000D01*
G01*
X118500000Y-61000000D02*
G75*
G03X118000000Y-61500000I0J-500000D01*
G01*
X136000000Y-61500000D02*
G75*
G03X135500000Y-61000000I-500000J0D01*
G01*
X136000000Y-62750000D02*
G75*
G03X136500000Y-63250000I500000J0D01*
G01*
X155000000Y-63750000D02*
G75*
G03X154500000Y-63250000I-500000J0D01*
G01*
X155000000Y-65250000D02*
G75*
G03X155500000Y-65750000I500000J0D01*
G01*
X194750000Y-68500000D02*
G75*
G03X194250000Y-68000000I-500000J0D01*
G01*
X194750000Y-68500000D02*
X194750000Y-127975000D01*
X116500000Y-124250000D02*
X61499995Y-124250000D01*
X61000000Y-68500000D02*
X61000000Y-123750000D01*
X98500000Y-68000000D02*
X61500000Y-68000000D01*
X99000000Y-63750000D02*
X99000000Y-67500000D01*
X117500000Y-63250000D02*
X99500000Y-63250000D01*
X118000000Y-61500000D02*
X118000000Y-62750000D01*
X135500000Y-61000000D02*
X118500000Y-61000000D01*
X136000000Y-62750000D02*
X136000000Y-61500000D01*
X154500000Y-63250000D02*
X136500000Y-63250000D01*
X155000000Y-65250000D02*
X155000000Y-63750000D01*
X173500000Y-65750000D02*
X155500000Y-65750000D01*
M02*
