%FSLAX45Y45*%
G04 Gerber Fmt 4.5, Leading zero omitted, Abs format (unit mm)*
G04 Created by KiCad (PCBNEW 5.1.5+dfsg1-2~bpo10+1) date 2020-09-05 13:18:22*
%MOMM*%
%LPD*%
G04 APERTURE LIST*
%TA.AperFunction,Profile*%
%ADD10C,0.150000*%
%TD*%
%ADD11C,0.200000*%
%ADD12C,0.300000*%
G04 APERTURE END LIST*
D10*
X19475000Y-12797500D02*
G75*
G02X19452276Y-12884770I-170224J-2270D01*
G01*
X18129726Y-15178146D02*
G75*
G02X17936925Y-15216096I-115301J77051D01*
G01*
X16442056Y-14377034D02*
G75*
G02X16507500Y-14390000I-33315J-339810D01*
G01*
X18130000Y-15177500D02*
X19452500Y-12885000D01*
X16507500Y-14390000D02*
X17940000Y-15217500D01*
X12775000Y-13900000D02*
X16445000Y-14377500D01*
X12739645Y-13885355D02*
G75*
G03X12775000Y-13900000I35355J35355D01*
G01*
X11685000Y-12440000D02*
X12740000Y-13885000D01*
X17400000Y-6625000D02*
X17400000Y-6750000D01*
X17400000Y-6625000D02*
G75*
G03X17350000Y-6575000I-50000J0D01*
G01*
X17400000Y-6750000D02*
G75*
G03X17450000Y-6800000I50000J0D01*
G01*
X19425000Y-6800000D02*
X17450000Y-6800000D01*
X11685355Y-12439645D02*
G75*
G03X11650000Y-12425000I-35355J-35355D01*
G01*
X6100000Y-12375000D02*
G75*
G03X6150000Y-12425000I50000J0D01*
G01*
X6150000Y-6800000D02*
G75*
G03X6100000Y-6850000I0J-50000D01*
G01*
X7850000Y-12425000D02*
G75*
G03X7900000Y-12375000I0J50000D01*
G01*
X8000000Y-12375000D02*
G75*
G03X8050000Y-12425000I50000J0D01*
G01*
X7950000Y-11600000D02*
G75*
G03X7900000Y-11650000I0J-50000D01*
G01*
X8000000Y-11650000D02*
G75*
G03X7950000Y-11600000I-50000J0D01*
G01*
X7950000Y-11400000D02*
G75*
G03X8000000Y-11350000I0J50000D01*
G01*
X7900000Y-11350000D02*
G75*
G03X7950000Y-11400000I50000J0D01*
G01*
X7950000Y-9700000D02*
G75*
G03X7900000Y-9750000I0J-50000D01*
G01*
X8000000Y-9750000D02*
G75*
G03X7950000Y-9700000I-50000J0D01*
G01*
X7900000Y-9450000D02*
G75*
G03X7950000Y-9500000I50000J0D01*
G01*
X7950000Y-9500000D02*
G75*
G03X8000000Y-9450000I0J50000D01*
G01*
X7900000Y-6850000D02*
G75*
G03X7850000Y-6800000I-50000J0D01*
G01*
X8050000Y-6800000D02*
G75*
G03X8000000Y-6850000I0J-50000D01*
G01*
X8000000Y-7850000D02*
G75*
G03X7950000Y-7800000I-50000J0D01*
G01*
X7950000Y-7800000D02*
G75*
G03X7900000Y-7850000I0J-50000D01*
G01*
X7950000Y-7600000D02*
G75*
G03X8000000Y-7550000I0J50000D01*
G01*
X7900000Y-7550000D02*
G75*
G03X7950000Y-7600000I50000J0D01*
G01*
X9850000Y-6800000D02*
G75*
G03X9900000Y-6750000I0J50000D01*
G01*
X9950000Y-6325000D02*
G75*
G03X9900000Y-6375000I0J-50000D01*
G01*
X11750000Y-6325000D02*
G75*
G03X11800000Y-6275000I0J50000D01*
G01*
X11850000Y-6100000D02*
G75*
G03X11800000Y-6150000I0J-50000D01*
G01*
X13600000Y-6150000D02*
G75*
G03X13550000Y-6100000I-50000J0D01*
G01*
X13600000Y-6275000D02*
G75*
G03X13650000Y-6325000I50000J0D01*
G01*
X15500000Y-6375000D02*
G75*
G03X15450000Y-6325000I-50000J0D01*
G01*
X15500000Y-6525000D02*
G75*
G03X15550000Y-6575000I50000J0D01*
G01*
X19475000Y-6850000D02*
G75*
G03X19425000Y-6800000I-50000J0D01*
G01*
X13825000Y-12230000D02*
X13475000Y-12230000D01*
X19475000Y-6850000D02*
X19475000Y-12797500D01*
X7900000Y-12375000D02*
X7900000Y-11650000D01*
X11650000Y-12425000D02*
X8050000Y-12425000D01*
X8000000Y-11650000D02*
X8000000Y-12375000D01*
X7900000Y-11350000D02*
X7900000Y-9750000D01*
X8000000Y-9750000D02*
X8000000Y-11350000D01*
X8000000Y-9450000D02*
X8000000Y-7850000D01*
X7900000Y-7850000D02*
X7900000Y-9450000D01*
X7850000Y-6800000D02*
X6150000Y-6800000D01*
X8000000Y-7550000D02*
X8000000Y-6850000D01*
X7900000Y-6850000D02*
X7900000Y-7550000D01*
X17390000Y-13110000D02*
X17210000Y-13420000D01*
X17780000Y-13340000D02*
X17390000Y-13110000D01*
X17610000Y-13640000D02*
X17780000Y-13340000D01*
X17210000Y-13420000D02*
X17610000Y-13640000D01*
X16130000Y-12580000D02*
X15790000Y-12490000D01*
X16010000Y-13020000D02*
X16130000Y-12580000D01*
X15670000Y-12930000D02*
X16010000Y-13020000D01*
X15790000Y-12490000D02*
X15670000Y-12930000D01*
X13825000Y-12675000D02*
X13825000Y-12230000D01*
X13475000Y-12675000D02*
X13825000Y-12675000D01*
X13475000Y-12235000D02*
X13475000Y-12675000D01*
X16675000Y-10500000D02*
X16325000Y-10500000D01*
X16675000Y-10950000D02*
X16675000Y-10500000D01*
X16325000Y-10950000D02*
X16675000Y-10950000D01*
X16325000Y-10500000D02*
X16325000Y-10950000D01*
X14775000Y-10265000D02*
X14425000Y-10265000D01*
X14775000Y-10715000D02*
X14775000Y-10265000D01*
X14425000Y-10715000D02*
X14775000Y-10715000D01*
X14425000Y-10265000D02*
X14425000Y-10710000D01*
X12875000Y-10025000D02*
X12525000Y-10025000D01*
X12875000Y-10475000D02*
X12875000Y-10030000D01*
X12525000Y-10475000D02*
X12875000Y-10475000D01*
X12525000Y-10030000D02*
X12525000Y-10475000D01*
X10975000Y-10265000D02*
X10625000Y-10265000D01*
X10975000Y-10715000D02*
X10975000Y-10265000D01*
X10625000Y-10715000D02*
X10975000Y-10715000D01*
X10625000Y-10265000D02*
X10625000Y-10710000D01*
X16675000Y-8600000D02*
X16325000Y-8600000D01*
X16675000Y-9050000D02*
X16675000Y-8600000D01*
X16325000Y-9050000D02*
X16675000Y-9050000D01*
X16325000Y-8600000D02*
X16325000Y-9050000D01*
X14775000Y-8365000D02*
X14425000Y-8365000D01*
X14775000Y-8815000D02*
X14775000Y-8365000D01*
X14425000Y-8815000D02*
X14775000Y-8815000D01*
X14425000Y-8365000D02*
X14425000Y-8810000D01*
X12875000Y-8125000D02*
X12525000Y-8125000D01*
X12875000Y-8575000D02*
X12875000Y-8130000D01*
X12525000Y-8575000D02*
X12875000Y-8575000D01*
X12525000Y-8130000D02*
X12525000Y-8575000D01*
X10975000Y-8365000D02*
X10625000Y-8365000D01*
X10975000Y-8815000D02*
X10975000Y-8365000D01*
X10625000Y-8815000D02*
X10975000Y-8815000D01*
X10625000Y-8365000D02*
X10625000Y-8810000D01*
X16675000Y-6700000D02*
X16325000Y-6700000D01*
X16675000Y-7150000D02*
X16675000Y-6700000D01*
X16325000Y-7150000D02*
X16675000Y-7150000D01*
X16325000Y-6700000D02*
X16325000Y-7150000D01*
X14775000Y-6465000D02*
X14425000Y-6465000D01*
X14775000Y-6915000D02*
X14775000Y-6465000D01*
X14425000Y-6915000D02*
X14775000Y-6915000D01*
X14425000Y-6465000D02*
X14425000Y-6910000D01*
X12875000Y-6225000D02*
X12525000Y-6225000D01*
X12875000Y-6675000D02*
X12875000Y-6225000D01*
X12525000Y-6675000D02*
X12875000Y-6675000D01*
X12525000Y-6225000D02*
X12525000Y-6670000D01*
X10975000Y-6465000D02*
X10625000Y-6465000D01*
X10975000Y-6915000D02*
X10975000Y-6465000D01*
X10625000Y-6915000D02*
X10975000Y-6915000D01*
X10625000Y-6465000D02*
X10625000Y-6910000D01*
X9075000Y-10740000D02*
X8725000Y-10740000D01*
X9075000Y-11190000D02*
X9075000Y-10740000D01*
X8725000Y-11190000D02*
X9075000Y-11190000D01*
X8725000Y-10740000D02*
X8725000Y-11190000D01*
X7175000Y-10740000D02*
X6825000Y-10740000D01*
X7175000Y-11190000D02*
X7175000Y-10740000D01*
X6825000Y-11190000D02*
X7175000Y-11190000D01*
X6825000Y-10740000D02*
X6825000Y-11190000D01*
X9075000Y-8840000D02*
X8725000Y-8840000D01*
X9075000Y-9290000D02*
X9075000Y-8840000D01*
X8725000Y-9290000D02*
X9075000Y-9290000D01*
X8725000Y-8840000D02*
X8725000Y-9290000D01*
X7175000Y-8840000D02*
X6825000Y-8840000D01*
X7175000Y-9290000D02*
X7175000Y-8840000D01*
X6825000Y-9290000D02*
X7175000Y-9290000D01*
X6825000Y-8840000D02*
X6825000Y-9290000D01*
X9075000Y-6940000D02*
X8725000Y-6940000D01*
X9075000Y-7390000D02*
X9075000Y-6940000D01*
X8725000Y-7390000D02*
X9075000Y-7390000D01*
X8725000Y-6940000D02*
X8725000Y-7390000D01*
X7175000Y-6940000D02*
X6825000Y-6940000D01*
X7175000Y-7390000D02*
X7175000Y-6940000D01*
X6825000Y-7390000D02*
X7175000Y-7390000D01*
X6825000Y-6940000D02*
X6825000Y-7390000D01*
X6150000Y-12425000D02*
X7850000Y-12425000D01*
X6100000Y-6850000D02*
X6100000Y-12375000D01*
X9850000Y-6800000D02*
X8050000Y-6800000D01*
X9900000Y-6375000D02*
X9900000Y-6750000D01*
X11750000Y-6325000D02*
X9950000Y-6325000D01*
X11800000Y-6150000D02*
X11800000Y-6275000D01*
X13550000Y-6100000D02*
X11850000Y-6100000D01*
X13600000Y-6275000D02*
X13600000Y-6150000D01*
X15450000Y-6325000D02*
X13650000Y-6325000D01*
X15500000Y-6525000D02*
X15500000Y-6375000D01*
X17350000Y-6575000D02*
X15550000Y-6575000D01*
D11*
X18560000Y-11435000D02*
X18680000Y-11555000D01*
X18680000Y-11435000D02*
X18560000Y-11555000D01*
X18560000Y-11610000D02*
X18680000Y-11730000D01*
X18680000Y-11610000D02*
X18560000Y-11730000D01*
X19260000Y-11435000D02*
X19380000Y-11555000D01*
X19380000Y-11435000D02*
X19260000Y-11555000D01*
X19260000Y-11610000D02*
X19380000Y-11730000D01*
X19380000Y-11610000D02*
X19260000Y-11730000D01*
X14235000Y-7237500D02*
G75*
G03X14235000Y-7237500I-85000J0D01*
G01*
X15135000Y-7237500D02*
G75*
G03X15135000Y-7237500I-85000J0D01*
G01*
X12335000Y-8900000D02*
G75*
G03X12335000Y-8900000I-85000J0D01*
G01*
X13235000Y-8900000D02*
G75*
G03X13235000Y-8900000I-85000J0D01*
G01*
X10435000Y-11037500D02*
G75*
G03X10435000Y-11037500I-85000J0D01*
G01*
X11335000Y-11037500D02*
G75*
G03X11335000Y-11037500I-85000J0D01*
G01*
X10435000Y-7237500D02*
G75*
G03X10435000Y-7237500I-85000J0D01*
G01*
X11335000Y-7237500D02*
G75*
G03X11335000Y-7237500I-85000J0D01*
G01*
X8535000Y-7712500D02*
G75*
G03X8535000Y-7712500I-85000J0D01*
G01*
X9435000Y-7712500D02*
G75*
G03X9435000Y-7712500I-85000J0D01*
G01*
X10435000Y-9137500D02*
G75*
G03X10435000Y-9137500I-85000J0D01*
G01*
X11335000Y-9137500D02*
G75*
G03X11335000Y-9137500I-85000J0D01*
G01*
X14235000Y-11037500D02*
G75*
G03X14235000Y-11037500I-85000J0D01*
G01*
X15135000Y-11037500D02*
G75*
G03X15135000Y-11037500I-85000J0D01*
G01*
X6635000Y-7712500D02*
G75*
G03X6635000Y-7712500I-85000J0D01*
G01*
X7535000Y-7712500D02*
G75*
G03X7535000Y-7712500I-85000J0D01*
G01*
X8535000Y-11512500D02*
G75*
G03X8535000Y-11512500I-85000J0D01*
G01*
X9435000Y-11512500D02*
G75*
G03X9435000Y-11512500I-85000J0D01*
G01*
X8535000Y-9612500D02*
G75*
G03X8535000Y-9612500I-85000J0D01*
G01*
X9435000Y-9612500D02*
G75*
G03X9435000Y-9612500I-85000J0D01*
G01*
X17835000Y-14039711D02*
G75*
G03X17835000Y-14039711I-85000J0D01*
G01*
X18285000Y-13260289D02*
G75*
G03X18285000Y-13260289I-85000J0D01*
G01*
X6635000Y-11512500D02*
G75*
G03X6635000Y-11512500I-85000J0D01*
G01*
X7535000Y-11512500D02*
G75*
G03X7535000Y-11512500I-85000J0D01*
G01*
X6635000Y-9612500D02*
G75*
G03X6635000Y-9612500I-85000J0D01*
G01*
X7535000Y-9612500D02*
G75*
G03X7535000Y-9612500I-85000J0D01*
G01*
X15400333Y-13158531D02*
G75*
G03X15400333Y-13158531I-85000J0D01*
G01*
X16269667Y-13391469D02*
G75*
G03X16269667Y-13391469I-85000J0D01*
G01*
X16135000Y-9375000D02*
G75*
G03X16135000Y-9375000I-85000J0D01*
G01*
X17035000Y-9375000D02*
G75*
G03X17035000Y-9375000I-85000J0D01*
G01*
X13285000Y-13000000D02*
G75*
G03X13285000Y-13000000I-85000J0D01*
G01*
X14185000Y-13000000D02*
G75*
G03X14185000Y-13000000I-85000J0D01*
G01*
X16135000Y-11275000D02*
G75*
G03X16135000Y-11275000I-85000J0D01*
G01*
X17035000Y-11275000D02*
G75*
G03X17035000Y-11275000I-85000J0D01*
G01*
X12335000Y-10800000D02*
G75*
G03X12335000Y-10800000I-85000J0D01*
G01*
X13235000Y-10800000D02*
G75*
G03X13235000Y-10800000I-85000J0D01*
G01*
X12335000Y-7000000D02*
G75*
G03X12335000Y-7000000I-85000J0D01*
G01*
X13235000Y-7000000D02*
G75*
G03X13235000Y-7000000I-85000J0D01*
G01*
X14235000Y-9137500D02*
G75*
G03X14235000Y-9137500I-85000J0D01*
G01*
X15135000Y-9137500D02*
G75*
G03X15135000Y-9137500I-85000J0D01*
G01*
X16135000Y-7475000D02*
G75*
G03X16135000Y-7475000I-85000J0D01*
G01*
X17035000Y-7475000D02*
G75*
G03X17035000Y-7475000I-85000J0D01*
G01*
X14092000Y-7142500D02*
X14092000Y-7332500D01*
X13997000Y-7237500D02*
X14187000Y-7237500D01*
X15108000Y-7142500D02*
X15108000Y-7332500D01*
X15013000Y-7237500D02*
X15203000Y-7237500D01*
X12192000Y-8805000D02*
X12192000Y-8995000D01*
X12097000Y-8900000D02*
X12287000Y-8900000D01*
X13208000Y-8805000D02*
X13208000Y-8995000D01*
X13113000Y-8900000D02*
X13303000Y-8900000D01*
X10292000Y-10942500D02*
X10292000Y-11132500D01*
X10197000Y-11037500D02*
X10387000Y-11037500D01*
X11308000Y-10942500D02*
X11308000Y-11132500D01*
X11213000Y-11037500D02*
X11403000Y-11037500D01*
X10292000Y-7142500D02*
X10292000Y-7332500D01*
X10197000Y-7237500D02*
X10387000Y-7237500D01*
X11308000Y-7142500D02*
X11308000Y-7332500D01*
X11213000Y-7237500D02*
X11403000Y-7237500D01*
X8392000Y-7617500D02*
X8392000Y-7807500D01*
X8297000Y-7712500D02*
X8487000Y-7712500D01*
X9408000Y-7617500D02*
X9408000Y-7807500D01*
X9313000Y-7712500D02*
X9503000Y-7712500D01*
X10292000Y-9042500D02*
X10292000Y-9232500D01*
X10197000Y-9137500D02*
X10387000Y-9137500D01*
X11308000Y-9042500D02*
X11308000Y-9232500D01*
X11213000Y-9137500D02*
X11403000Y-9137500D01*
X14092000Y-10942500D02*
X14092000Y-11132500D01*
X13997000Y-11037500D02*
X14187000Y-11037500D01*
X15108000Y-10942500D02*
X15108000Y-11132500D01*
X15013000Y-11037500D02*
X15203000Y-11037500D01*
X6492000Y-7617500D02*
X6492000Y-7807500D01*
X6397000Y-7712500D02*
X6587000Y-7712500D01*
X7508000Y-7617500D02*
X7508000Y-7807500D01*
X7413000Y-7712500D02*
X7603000Y-7712500D01*
X8392000Y-11417500D02*
X8392000Y-11607500D01*
X8297000Y-11512500D02*
X8487000Y-11512500D01*
X9408000Y-11417500D02*
X9408000Y-11607500D01*
X9313000Y-11512500D02*
X9503000Y-11512500D01*
X8392000Y-9517500D02*
X8392000Y-9707500D01*
X8297000Y-9612500D02*
X8487000Y-9612500D01*
X9408000Y-9517500D02*
X9408000Y-9707500D01*
X9313000Y-9612500D02*
X9503000Y-9612500D01*
X17721000Y-13994941D02*
X17721000Y-14184941D01*
X17626000Y-14089941D02*
X17816000Y-14089941D01*
X18229000Y-13115059D02*
X18229000Y-13305059D01*
X18134000Y-13210059D02*
X18324000Y-13210059D01*
X6492000Y-11417500D02*
X6492000Y-11607500D01*
X6397000Y-11512500D02*
X6587000Y-11512500D01*
X7508000Y-11417500D02*
X7508000Y-11607500D01*
X7413000Y-11512500D02*
X7603000Y-11512500D01*
X6492000Y-9517500D02*
X6492000Y-9707500D01*
X6397000Y-9612500D02*
X6587000Y-9612500D01*
X7508000Y-9517500D02*
X7508000Y-9707500D01*
X7413000Y-9612500D02*
X7603000Y-9612500D01*
X15259310Y-13048520D02*
X15259310Y-13238520D01*
X15164310Y-13143520D02*
X15354310Y-13143520D01*
X16240690Y-13311480D02*
X16240690Y-13501480D01*
X16145690Y-13406480D02*
X16335690Y-13406480D01*
X15992000Y-9280000D02*
X15992000Y-9470000D01*
X15897000Y-9375000D02*
X16087000Y-9375000D01*
X17008000Y-9280000D02*
X17008000Y-9470000D01*
X16913000Y-9375000D02*
X17103000Y-9375000D01*
X13142000Y-12905000D02*
X13142000Y-13095000D01*
X13047000Y-13000000D02*
X13237000Y-13000000D01*
X14158000Y-12905000D02*
X14158000Y-13095000D01*
X14063000Y-13000000D02*
X14253000Y-13000000D01*
X15992000Y-11180000D02*
X15992000Y-11370000D01*
X15897000Y-11275000D02*
X16087000Y-11275000D01*
X17008000Y-11180000D02*
X17008000Y-11370000D01*
X16913000Y-11275000D02*
X17103000Y-11275000D01*
X12192000Y-10705000D02*
X12192000Y-10895000D01*
X12097000Y-10800000D02*
X12287000Y-10800000D01*
X13208000Y-10705000D02*
X13208000Y-10895000D01*
X13113000Y-10800000D02*
X13303000Y-10800000D01*
X12192000Y-6905000D02*
X12192000Y-7095000D01*
X12097000Y-7000000D02*
X12287000Y-7000000D01*
X13208000Y-6905000D02*
X13208000Y-7095000D01*
X13113000Y-7000000D02*
X13303000Y-7000000D01*
X14092000Y-9042500D02*
X14092000Y-9232500D01*
X13997000Y-9137500D02*
X14187000Y-9137500D01*
X15108000Y-9042500D02*
X15108000Y-9232500D01*
X15013000Y-9137500D02*
X15203000Y-9137500D01*
X15992000Y-7380000D02*
X15992000Y-7570000D01*
X15897000Y-7475000D02*
X16087000Y-7475000D01*
X17008000Y-7380000D02*
X17008000Y-7570000D01*
X16913000Y-7475000D02*
X17103000Y-7475000D01*
X12425067Y-9260067D02*
X12425067Y-9047933D01*
X12212933Y-9047933D01*
X12212933Y-9260067D01*
X12425067Y-9260067D01*
X12552067Y-9514067D02*
X12552067Y-9301933D01*
X12339933Y-9301933D01*
X12339933Y-9514067D01*
X12552067Y-9514067D01*
X13060067Y-9514067D02*
X13060067Y-9301933D01*
X12847933Y-9301933D01*
X12847933Y-9514067D01*
X13060067Y-9514067D01*
X13187067Y-9260067D02*
X13187067Y-9047933D01*
X12974933Y-9047933D01*
X12974933Y-9260067D01*
X13187067Y-9260067D01*
X10525067Y-11397567D02*
X10525067Y-11185433D01*
X10312933Y-11185433D01*
X10312933Y-11397567D01*
X10525067Y-11397567D01*
X10652067Y-11651567D02*
X10652067Y-11439433D01*
X10439933Y-11439433D01*
X10439933Y-11651567D01*
X10652067Y-11651567D01*
X11160067Y-11651567D02*
X11160067Y-11439433D01*
X10947933Y-11439433D01*
X10947933Y-11651567D01*
X11160067Y-11651567D01*
X11287067Y-11397567D02*
X11287067Y-11185433D01*
X11074933Y-11185433D01*
X11074933Y-11397567D01*
X11287067Y-11397567D01*
X10525067Y-7597567D02*
X10525067Y-7385433D01*
X10312933Y-7385433D01*
X10312933Y-7597567D01*
X10525067Y-7597567D01*
X10652067Y-7851567D02*
X10652067Y-7639433D01*
X10439933Y-7639433D01*
X10439933Y-7851567D01*
X10652067Y-7851567D01*
X11160067Y-7851567D02*
X11160067Y-7639433D01*
X10947933Y-7639433D01*
X10947933Y-7851567D01*
X11160067Y-7851567D01*
X11287067Y-7597567D02*
X11287067Y-7385433D01*
X11074933Y-7385433D01*
X11074933Y-7597567D01*
X11287067Y-7597567D01*
X8625067Y-8072567D02*
X8625067Y-7860433D01*
X8412933Y-7860433D01*
X8412933Y-8072567D01*
X8625067Y-8072567D01*
X8752067Y-8326567D02*
X8752067Y-8114433D01*
X8539933Y-8114433D01*
X8539933Y-8326567D01*
X8752067Y-8326567D01*
X9260067Y-8326567D02*
X9260067Y-8114433D01*
X9047933Y-8114433D01*
X9047933Y-8326567D01*
X9260067Y-8326567D01*
X9387067Y-8072567D02*
X9387067Y-7860433D01*
X9174933Y-7860433D01*
X9174933Y-8072567D01*
X9387067Y-8072567D01*
X10525067Y-9497567D02*
X10525067Y-9285433D01*
X10312933Y-9285433D01*
X10312933Y-9497567D01*
X10525067Y-9497567D01*
X10652067Y-9751567D02*
X10652067Y-9539433D01*
X10439933Y-9539433D01*
X10439933Y-9751567D01*
X10652067Y-9751567D01*
X11160067Y-9751567D02*
X11160067Y-9539433D01*
X10947933Y-9539433D01*
X10947933Y-9751567D01*
X11160067Y-9751567D01*
X11287067Y-9497567D02*
X11287067Y-9285433D01*
X11074933Y-9285433D01*
X11074933Y-9497567D01*
X11287067Y-9497567D01*
X14325067Y-11397567D02*
X14325067Y-11185433D01*
X14112933Y-11185433D01*
X14112933Y-11397567D01*
X14325067Y-11397567D01*
X14452067Y-11651567D02*
X14452067Y-11439433D01*
X14239933Y-11439433D01*
X14239933Y-11651567D01*
X14452067Y-11651567D01*
X14960067Y-11651567D02*
X14960067Y-11439433D01*
X14747933Y-11439433D01*
X14747933Y-11651567D01*
X14960067Y-11651567D01*
X15087067Y-11397567D02*
X15087067Y-11185433D01*
X14874933Y-11185433D01*
X14874933Y-11397567D01*
X15087067Y-11397567D01*
X6725067Y-8072567D02*
X6725067Y-7860433D01*
X6512933Y-7860433D01*
X6512933Y-8072567D01*
X6725067Y-8072567D01*
X6852067Y-8326567D02*
X6852067Y-8114433D01*
X6639933Y-8114433D01*
X6639933Y-8326567D01*
X6852067Y-8326567D01*
X7360067Y-8326567D02*
X7360067Y-8114433D01*
X7147933Y-8114433D01*
X7147933Y-8326567D01*
X7360067Y-8326567D01*
X7487067Y-8072567D02*
X7487067Y-7860433D01*
X7274933Y-7860433D01*
X7274933Y-8072567D01*
X7487067Y-8072567D01*
X8625067Y-11872567D02*
X8625067Y-11660433D01*
X8412933Y-11660433D01*
X8412933Y-11872567D01*
X8625067Y-11872567D01*
X8752067Y-12126567D02*
X8752067Y-11914433D01*
X8539933Y-11914433D01*
X8539933Y-12126567D01*
X8752067Y-12126567D01*
X9260067Y-12126567D02*
X9260067Y-11914433D01*
X9047933Y-11914433D01*
X9047933Y-12126567D01*
X9260067Y-12126567D01*
X9387067Y-11872567D02*
X9387067Y-11660433D01*
X9174933Y-11660433D01*
X9174933Y-11872567D01*
X9387067Y-11872567D01*
X8625067Y-9972567D02*
X8625067Y-9760433D01*
X8412933Y-9760433D01*
X8412933Y-9972567D01*
X8625067Y-9972567D01*
X8752067Y-10226567D02*
X8752067Y-10014433D01*
X8539933Y-10014433D01*
X8539933Y-10226567D01*
X8752067Y-10226567D01*
X9260067Y-10226567D02*
X9260067Y-10014433D01*
X9047933Y-10014433D01*
X9047933Y-10226567D01*
X9260067Y-10226567D01*
X9387067Y-9972567D02*
X9387067Y-9760433D01*
X9174933Y-9760433D01*
X9174933Y-9972567D01*
X9387067Y-9972567D01*
X18110538Y-14213023D02*
X18110538Y-14000889D01*
X17898404Y-14000889D01*
X17898404Y-14213023D01*
X18110538Y-14213023D01*
X18394008Y-14230037D02*
X18394008Y-14017903D01*
X18181874Y-14017903D01*
X18181874Y-14230037D01*
X18394008Y-14230037D01*
X18491538Y-13553111D02*
X18491538Y-13340977D01*
X18279404Y-13340977D01*
X18279404Y-13553111D01*
X18491538Y-13553111D01*
X18648008Y-13790096D02*
X18648008Y-13577962D01*
X18435874Y-13577962D01*
X18435874Y-13790096D01*
X18648008Y-13790096D01*
X6725067Y-11872567D02*
X6725067Y-11660433D01*
X6512933Y-11660433D01*
X6512933Y-11872567D01*
X6725067Y-11872567D01*
X6852067Y-12126567D02*
X6852067Y-11914433D01*
X6639933Y-11914433D01*
X6639933Y-12126567D01*
X6852067Y-12126567D01*
X7360067Y-12126567D02*
X7360067Y-11914433D01*
X7147933Y-11914433D01*
X7147933Y-12126567D01*
X7360067Y-12126567D01*
X7487067Y-11872567D02*
X7487067Y-11660433D01*
X7274933Y-11660433D01*
X7274933Y-11872567D01*
X7487067Y-11872567D01*
X6725067Y-9972567D02*
X6725067Y-9760433D01*
X6512933Y-9760433D01*
X6512933Y-9972567D01*
X6725067Y-9972567D01*
X6852067Y-10226567D02*
X6852067Y-10014433D01*
X6639933Y-10014433D01*
X6639933Y-10226567D01*
X6852067Y-10226567D01*
X7360067Y-10226567D02*
X7360067Y-10014433D01*
X7147933Y-10014433D01*
X7147933Y-10226567D01*
X7360067Y-10226567D01*
X7487067Y-9972567D02*
X7487067Y-9760433D01*
X7274933Y-9760433D01*
X7274933Y-9972567D01*
X7487067Y-9972567D01*
X15422309Y-13527802D02*
X15422309Y-13315668D01*
X15210175Y-13315668D01*
X15210175Y-13527802D01*
X15422309Y-13527802D01*
X15479242Y-13806017D02*
X15479242Y-13593883D01*
X15267108Y-13593883D01*
X15267108Y-13806017D01*
X15479242Y-13806017D01*
X15969932Y-13937497D02*
X15969932Y-13725363D01*
X15757798Y-13725363D01*
X15757798Y-13937497D01*
X15969932Y-13937497D01*
X16158345Y-13725022D02*
X16158345Y-13512888D01*
X15946211Y-13512888D01*
X15946211Y-13725022D01*
X16158345Y-13725022D01*
X16225067Y-9735067D02*
X16225067Y-9522933D01*
X16012933Y-9522933D01*
X16012933Y-9735067D01*
X16225067Y-9735067D01*
X16352067Y-9989067D02*
X16352067Y-9776933D01*
X16139933Y-9776933D01*
X16139933Y-9989067D01*
X16352067Y-9989067D01*
X16860067Y-9989067D02*
X16860067Y-9776933D01*
X16647933Y-9776933D01*
X16647933Y-9989067D01*
X16860067Y-9989067D01*
X16987067Y-9735067D02*
X16987067Y-9522933D01*
X16774933Y-9522933D01*
X16774933Y-9735067D01*
X16987067Y-9735067D01*
X13375067Y-13360067D02*
X13375067Y-13147933D01*
X13162933Y-13147933D01*
X13162933Y-13360067D01*
X13375067Y-13360067D01*
X13502067Y-13614067D02*
X13502067Y-13401933D01*
X13289933Y-13401933D01*
X13289933Y-13614067D01*
X13502067Y-13614067D01*
X14010067Y-13614067D02*
X14010067Y-13401933D01*
X13797933Y-13401933D01*
X13797933Y-13614067D01*
X14010067Y-13614067D01*
X14137067Y-13360067D02*
X14137067Y-13147933D01*
X13924933Y-13147933D01*
X13924933Y-13360067D01*
X14137067Y-13360067D01*
X16225067Y-11635067D02*
X16225067Y-11422933D01*
X16012933Y-11422933D01*
X16012933Y-11635067D01*
X16225067Y-11635067D01*
X16352067Y-11889067D02*
X16352067Y-11676933D01*
X16139933Y-11676933D01*
X16139933Y-11889067D01*
X16352067Y-11889067D01*
X16860067Y-11889067D02*
X16860067Y-11676933D01*
X16647933Y-11676933D01*
X16647933Y-11889067D01*
X16860067Y-11889067D01*
X16987067Y-11635067D02*
X16987067Y-11422933D01*
X16774933Y-11422933D01*
X16774933Y-11635067D01*
X16987067Y-11635067D01*
X12425067Y-11160067D02*
X12425067Y-10947933D01*
X12212933Y-10947933D01*
X12212933Y-11160067D01*
X12425067Y-11160067D01*
X12552067Y-11414067D02*
X12552067Y-11201933D01*
X12339933Y-11201933D01*
X12339933Y-11414067D01*
X12552067Y-11414067D01*
X13060067Y-11414067D02*
X13060067Y-11201933D01*
X12847933Y-11201933D01*
X12847933Y-11414067D01*
X13060067Y-11414067D01*
X13187067Y-11160067D02*
X13187067Y-10947933D01*
X12974933Y-10947933D01*
X12974933Y-11160067D01*
X13187067Y-11160067D01*
X12425067Y-7360067D02*
X12425067Y-7147933D01*
X12212933Y-7147933D01*
X12212933Y-7360067D01*
X12425067Y-7360067D01*
X12552067Y-7614067D02*
X12552067Y-7401933D01*
X12339933Y-7401933D01*
X12339933Y-7614067D01*
X12552067Y-7614067D01*
X13060067Y-7614067D02*
X13060067Y-7401933D01*
X12847933Y-7401933D01*
X12847933Y-7614067D01*
X13060067Y-7614067D01*
X13187067Y-7360067D02*
X13187067Y-7147933D01*
X12974933Y-7147933D01*
X12974933Y-7360067D01*
X13187067Y-7360067D01*
X14325067Y-9497567D02*
X14325067Y-9285433D01*
X14112933Y-9285433D01*
X14112933Y-9497567D01*
X14325067Y-9497567D01*
X14452067Y-9751567D02*
X14452067Y-9539433D01*
X14239933Y-9539433D01*
X14239933Y-9751567D01*
X14452067Y-9751567D01*
X14960067Y-9751567D02*
X14960067Y-9539433D01*
X14747933Y-9539433D01*
X14747933Y-9751567D01*
X14960067Y-9751567D01*
X15087067Y-9497567D02*
X15087067Y-9285433D01*
X14874933Y-9285433D01*
X14874933Y-9497567D01*
X15087067Y-9497567D01*
X16225067Y-7835067D02*
X16225067Y-7622933D01*
X16012933Y-7622933D01*
X16012933Y-7835067D01*
X16225067Y-7835067D01*
X16352067Y-8089067D02*
X16352067Y-7876933D01*
X16139933Y-7876933D01*
X16139933Y-8089067D01*
X16352067Y-8089067D01*
X16860067Y-8089067D02*
X16860067Y-7876933D01*
X16647933Y-7876933D01*
X16647933Y-8089067D01*
X16860067Y-8089067D01*
X16987067Y-7835067D02*
X16987067Y-7622933D01*
X16774933Y-7622933D01*
X16774933Y-7835067D01*
X16987067Y-7835067D01*
X14325067Y-7597567D02*
X14325067Y-7385433D01*
X14112933Y-7385433D01*
X14112933Y-7597567D01*
X14325067Y-7597567D01*
X14452067Y-7851567D02*
X14452067Y-7639433D01*
X14239933Y-7639433D01*
X14239933Y-7851567D01*
X14452067Y-7851567D01*
X14960067Y-7851567D02*
X14960067Y-7639433D01*
X14747933Y-7639433D01*
X14747933Y-7851567D01*
X14960067Y-7851567D01*
X15087067Y-7597567D02*
X15087067Y-7385433D01*
X14874933Y-7385433D01*
X14874933Y-7597567D01*
X15087067Y-7597567D01*
X16500000Y-11480000D02*
X16705000Y-11275000D01*
X16500000Y-11070000D01*
X16295000Y-11275000D01*
X16500000Y-11480000D01*
X12700000Y-11005000D02*
X12905000Y-10800000D01*
X12700000Y-10595000D01*
X12495000Y-10800000D01*
X12700000Y-11005000D01*
X12700000Y-7205000D02*
X12905000Y-7000000D01*
X12700000Y-6795000D01*
X12495000Y-7000000D01*
X12700000Y-7205000D01*
X14600000Y-9342500D02*
X14805000Y-9137500D01*
X14600000Y-8932500D01*
X14395000Y-9137500D01*
X14600000Y-9342500D01*
X16500000Y-7680000D02*
X16705000Y-7475000D01*
X16500000Y-7270000D01*
X16295000Y-7475000D01*
X16500000Y-7680000D01*
X14600000Y-7442500D02*
X14805000Y-7237500D01*
X14600000Y-7032500D01*
X14395000Y-7237500D01*
X14600000Y-7442500D01*
X12700000Y-9105000D02*
X12905000Y-8900000D01*
X12700000Y-8695000D01*
X12495000Y-8900000D01*
X12700000Y-9105000D01*
X10800000Y-11242500D02*
X11005000Y-11037500D01*
X10800000Y-10832500D01*
X10595000Y-11037500D01*
X10800000Y-11242500D01*
X10800000Y-7442500D02*
X11005000Y-7237500D01*
X10800000Y-7032500D01*
X10595000Y-7237500D01*
X10800000Y-7442500D01*
X8900000Y-7917500D02*
X9105000Y-7712500D01*
X8900000Y-7507500D01*
X8695000Y-7712500D01*
X8900000Y-7917500D01*
X10800000Y-9342500D02*
X11005000Y-9137500D01*
X10800000Y-8932500D01*
X10595000Y-9137500D01*
X10800000Y-9342500D01*
X14600000Y-11242500D02*
X14805000Y-11037500D01*
X14600000Y-10832500D01*
X14395000Y-11037500D01*
X14600000Y-11242500D01*
X7000000Y-7917500D02*
X7205000Y-7712500D01*
X7000000Y-7507500D01*
X6795000Y-7712500D01*
X7000000Y-7917500D01*
X8900000Y-11717500D02*
X9105000Y-11512500D01*
X8900000Y-11307500D01*
X8695000Y-11512500D01*
X8900000Y-11717500D01*
X8900000Y-9817500D02*
X9105000Y-9612500D01*
X8900000Y-9407500D01*
X8695000Y-9612500D01*
X8900000Y-9817500D01*
X17975000Y-13855000D02*
X18180000Y-13650000D01*
X17975000Y-13445000D01*
X17770000Y-13650000D01*
X17975000Y-13855000D01*
X7000000Y-11717500D02*
X7205000Y-11512500D01*
X7000000Y-11307500D01*
X6795000Y-11512500D01*
X7000000Y-11717500D01*
X7000000Y-9817500D02*
X7205000Y-9612500D01*
X7000000Y-9407500D01*
X6795000Y-9612500D01*
X7000000Y-9817500D01*
X15750000Y-13480000D02*
X15955000Y-13275000D01*
X15750000Y-13070000D01*
X15545000Y-13275000D01*
X15750000Y-13480000D01*
X16500000Y-9580000D02*
X16705000Y-9375000D01*
X16500000Y-9170000D01*
X16295000Y-9375000D01*
X16500000Y-9580000D01*
X13650000Y-13205000D02*
X13855000Y-13000000D01*
X13650000Y-12795000D01*
X13445000Y-13000000D01*
X13650000Y-13205000D01*
D12*
X6378928Y-15712987D02*
X6378928Y-15412987D01*
X6450357Y-15412987D01*
X6493214Y-15427272D01*
X6521786Y-15455844D01*
X6536071Y-15484415D01*
X6550357Y-15541558D01*
X6550357Y-15584415D01*
X6536071Y-15641558D01*
X6521786Y-15670129D01*
X6493214Y-15698701D01*
X6450357Y-15712987D01*
X6378928Y-15712987D01*
X6678928Y-15712987D02*
X6678928Y-15512987D01*
X6678928Y-15570129D02*
X6693214Y-15541558D01*
X6707500Y-15527272D01*
X6736071Y-15512987D01*
X6764643Y-15512987D01*
X6864643Y-15712987D02*
X6864643Y-15512987D01*
X6864643Y-15412987D02*
X6850357Y-15427272D01*
X6864643Y-15441558D01*
X6878928Y-15427272D01*
X6864643Y-15412987D01*
X6864643Y-15441558D01*
X7050357Y-15712987D02*
X7021786Y-15698701D01*
X7007500Y-15670129D01*
X7007500Y-15412987D01*
X7207500Y-15712987D02*
X7178928Y-15698701D01*
X7164643Y-15670129D01*
X7164643Y-15412987D01*
X7550357Y-15712987D02*
X7550357Y-15412987D01*
X7650357Y-15627272D01*
X7750357Y-15412987D01*
X7750357Y-15712987D01*
X8021786Y-15712987D02*
X8021786Y-15555844D01*
X8007500Y-15527272D01*
X7978928Y-15512987D01*
X7921786Y-15512987D01*
X7893214Y-15527272D01*
X8021786Y-15698701D02*
X7993214Y-15712987D01*
X7921786Y-15712987D01*
X7893214Y-15698701D01*
X7878928Y-15670129D01*
X7878928Y-15641558D01*
X7893214Y-15612987D01*
X7921786Y-15598701D01*
X7993214Y-15598701D01*
X8021786Y-15584415D01*
X8164643Y-15512987D02*
X8164643Y-15812987D01*
X8164643Y-15527272D02*
X8193214Y-15512987D01*
X8250357Y-15512987D01*
X8278928Y-15527272D01*
X8293214Y-15541558D01*
X8307500Y-15570129D01*
X8307500Y-15655844D01*
X8293214Y-15684415D01*
X8278928Y-15698701D01*
X8250357Y-15712987D01*
X8193214Y-15712987D01*
X8164643Y-15698701D01*
X8436071Y-15684415D02*
X8450357Y-15698701D01*
X8436071Y-15712987D01*
X8421786Y-15698701D01*
X8436071Y-15684415D01*
X8436071Y-15712987D01*
X8436071Y-15527272D02*
X8450357Y-15541558D01*
X8436071Y-15555844D01*
X8421786Y-15541558D01*
X8436071Y-15527272D01*
X8436071Y-15555844D01*
X5972500Y-16147272D02*
X6092500Y-16267272D01*
X6092500Y-16147272D02*
X5972500Y-16267272D01*
X6536071Y-16342987D02*
X6364643Y-16342987D01*
X6450357Y-16342987D02*
X6450357Y-16042987D01*
X6421786Y-16085844D01*
X6393214Y-16114415D01*
X6364643Y-16128701D01*
X6664643Y-16314415D02*
X6678928Y-16328701D01*
X6664643Y-16342987D01*
X6650357Y-16328701D01*
X6664643Y-16314415D01*
X6664643Y-16342987D01*
X6793214Y-16071558D02*
X6807500Y-16057272D01*
X6836071Y-16042987D01*
X6907500Y-16042987D01*
X6936071Y-16057272D01*
X6950357Y-16071558D01*
X6964643Y-16100129D01*
X6964643Y-16128701D01*
X6950357Y-16171558D01*
X6778928Y-16342987D01*
X6964643Y-16342987D01*
X7150357Y-16042987D02*
X7178928Y-16042987D01*
X7207500Y-16057272D01*
X7221786Y-16071558D01*
X7236071Y-16100129D01*
X7250357Y-16157272D01*
X7250357Y-16228701D01*
X7236071Y-16285844D01*
X7221786Y-16314415D01*
X7207500Y-16328701D01*
X7178928Y-16342987D01*
X7150357Y-16342987D01*
X7121786Y-16328701D01*
X7107500Y-16314415D01*
X7093214Y-16285844D01*
X7078928Y-16228701D01*
X7078928Y-16157272D01*
X7093214Y-16100129D01*
X7107500Y-16071558D01*
X7121786Y-16057272D01*
X7150357Y-16042987D01*
X7378928Y-16342987D02*
X7378928Y-16142987D01*
X7378928Y-16171558D02*
X7393214Y-16157272D01*
X7421786Y-16142987D01*
X7464643Y-16142987D01*
X7493214Y-16157272D01*
X7507500Y-16185844D01*
X7507500Y-16342987D01*
X7507500Y-16185844D02*
X7521786Y-16157272D01*
X7550357Y-16142987D01*
X7593214Y-16142987D01*
X7621786Y-16157272D01*
X7636071Y-16185844D01*
X7636071Y-16342987D01*
X7778928Y-16342987D02*
X7778928Y-16142987D01*
X7778928Y-16171558D02*
X7793214Y-16157272D01*
X7821786Y-16142987D01*
X7864643Y-16142987D01*
X7893214Y-16157272D01*
X7907500Y-16185844D01*
X7907500Y-16342987D01*
X7907500Y-16185844D02*
X7921786Y-16157272D01*
X7950357Y-16142987D01*
X7993214Y-16142987D01*
X8021786Y-16157272D01*
X8036071Y-16185844D01*
X8036071Y-16342987D01*
X8621786Y-16028701D02*
X8364643Y-16414415D01*
X9007500Y-16042987D02*
X9036071Y-16042987D01*
X9064643Y-16057272D01*
X9078928Y-16071558D01*
X9093214Y-16100129D01*
X9107500Y-16157272D01*
X9107500Y-16228701D01*
X9093214Y-16285844D01*
X9078928Y-16314415D01*
X9064643Y-16328701D01*
X9036071Y-16342987D01*
X9007500Y-16342987D01*
X8978928Y-16328701D01*
X8964643Y-16314415D01*
X8950357Y-16285844D01*
X8936071Y-16228701D01*
X8936071Y-16157272D01*
X8950357Y-16100129D01*
X8964643Y-16071558D01*
X8978928Y-16057272D01*
X9007500Y-16042987D01*
X9236071Y-16314415D02*
X9250357Y-16328701D01*
X9236071Y-16342987D01*
X9221786Y-16328701D01*
X9236071Y-16314415D01*
X9236071Y-16342987D01*
X9436071Y-16042987D02*
X9464643Y-16042987D01*
X9493214Y-16057272D01*
X9507500Y-16071558D01*
X9521786Y-16100129D01*
X9536071Y-16157272D01*
X9536071Y-16228701D01*
X9521786Y-16285844D01*
X9507500Y-16314415D01*
X9493214Y-16328701D01*
X9464643Y-16342987D01*
X9436071Y-16342987D01*
X9407500Y-16328701D01*
X9393214Y-16314415D01*
X9378928Y-16285844D01*
X9364643Y-16228701D01*
X9364643Y-16157272D01*
X9378928Y-16100129D01*
X9393214Y-16071558D01*
X9407500Y-16057272D01*
X9436071Y-16042987D01*
X9793214Y-16142987D02*
X9793214Y-16342987D01*
X9721786Y-16028701D02*
X9650357Y-16242987D01*
X9836071Y-16242987D01*
X9921786Y-16042987D02*
X10121786Y-16042987D01*
X9993214Y-16342987D01*
X10221786Y-16042987D02*
X10221786Y-16100129D01*
X10336071Y-16042987D02*
X10336071Y-16100129D01*
X10778928Y-16457272D02*
X10764643Y-16442987D01*
X10736071Y-16400129D01*
X10721786Y-16371558D01*
X10707500Y-16328701D01*
X10693214Y-16257272D01*
X10693214Y-16200129D01*
X10707500Y-16128701D01*
X10721786Y-16085844D01*
X10736071Y-16057272D01*
X10764643Y-16014415D01*
X10778928Y-16000129D01*
X11021786Y-16142987D02*
X11021786Y-16342987D01*
X10950357Y-16028701D02*
X10878928Y-16242987D01*
X11064643Y-16242987D01*
X11407500Y-16342987D02*
X11407500Y-16042987D01*
X11536071Y-16342987D02*
X11536071Y-16185844D01*
X11521786Y-16157272D01*
X11493214Y-16142987D01*
X11450357Y-16142987D01*
X11421786Y-16157272D01*
X11407500Y-16171558D01*
X11721786Y-16342987D02*
X11693214Y-16328701D01*
X11678928Y-16314415D01*
X11664643Y-16285844D01*
X11664643Y-16200129D01*
X11678928Y-16171558D01*
X11693214Y-16157272D01*
X11721786Y-16142987D01*
X11764643Y-16142987D01*
X11793214Y-16157272D01*
X11807500Y-16171558D01*
X11821786Y-16200129D01*
X11821786Y-16285844D01*
X11807500Y-16314415D01*
X11793214Y-16328701D01*
X11764643Y-16342987D01*
X11721786Y-16342987D01*
X11993214Y-16342987D02*
X11964643Y-16328701D01*
X11950357Y-16300129D01*
X11950357Y-16042987D01*
X12221786Y-16328701D02*
X12193214Y-16342987D01*
X12136071Y-16342987D01*
X12107500Y-16328701D01*
X12093214Y-16300129D01*
X12093214Y-16185844D01*
X12107500Y-16157272D01*
X12136071Y-16142987D01*
X12193214Y-16142987D01*
X12221786Y-16157272D01*
X12236071Y-16185844D01*
X12236071Y-16214415D01*
X12093214Y-16242987D01*
X12350357Y-16328701D02*
X12378928Y-16342987D01*
X12436071Y-16342987D01*
X12464643Y-16328701D01*
X12478928Y-16300129D01*
X12478928Y-16285844D01*
X12464643Y-16257272D01*
X12436071Y-16242987D01*
X12393214Y-16242987D01*
X12364643Y-16228701D01*
X12350357Y-16200129D01*
X12350357Y-16185844D01*
X12364643Y-16157272D01*
X12393214Y-16142987D01*
X12436071Y-16142987D01*
X12464643Y-16157272D01*
X12578928Y-16457272D02*
X12593214Y-16442987D01*
X12621786Y-16400129D01*
X12636071Y-16371558D01*
X12650357Y-16328701D01*
X12664643Y-16257272D01*
X12664643Y-16200129D01*
X12650357Y-16128701D01*
X12636071Y-16085844D01*
X12621786Y-16057272D01*
X12593214Y-16014415D01*
X12578928Y-16000129D01*
X13121786Y-16457272D02*
X13107500Y-16442987D01*
X13078928Y-16400129D01*
X13064643Y-16371558D01*
X13050357Y-16328701D01*
X13036071Y-16257272D01*
X13036071Y-16200129D01*
X13050357Y-16128701D01*
X13064643Y-16085844D01*
X13078928Y-16057272D01*
X13107500Y-16014415D01*
X13121786Y-16000129D01*
X13236071Y-16142987D02*
X13236071Y-16342987D01*
X13236071Y-16171558D02*
X13250357Y-16157272D01*
X13278928Y-16142987D01*
X13321786Y-16142987D01*
X13350357Y-16157272D01*
X13364643Y-16185844D01*
X13364643Y-16342987D01*
X13550357Y-16342987D02*
X13521786Y-16328701D01*
X13507500Y-16314415D01*
X13493214Y-16285844D01*
X13493214Y-16200129D01*
X13507500Y-16171558D01*
X13521786Y-16157272D01*
X13550357Y-16142987D01*
X13593214Y-16142987D01*
X13621786Y-16157272D01*
X13636071Y-16171558D01*
X13650357Y-16200129D01*
X13650357Y-16285844D01*
X13636071Y-16314415D01*
X13621786Y-16328701D01*
X13593214Y-16342987D01*
X13550357Y-16342987D01*
X13736071Y-16142987D02*
X13850357Y-16142987D01*
X13778928Y-16042987D02*
X13778928Y-16300129D01*
X13793214Y-16328701D01*
X13821786Y-16342987D01*
X13850357Y-16342987D01*
X14178928Y-16142987D02*
X14178928Y-16442987D01*
X14178928Y-16157272D02*
X14207500Y-16142987D01*
X14264643Y-16142987D01*
X14293214Y-16157272D01*
X14307500Y-16171558D01*
X14321786Y-16200129D01*
X14321786Y-16285844D01*
X14307500Y-16314415D01*
X14293214Y-16328701D01*
X14264643Y-16342987D01*
X14207500Y-16342987D01*
X14178928Y-16328701D01*
X14493214Y-16342987D02*
X14464643Y-16328701D01*
X14450357Y-16300129D01*
X14450357Y-16042987D01*
X14736071Y-16342987D02*
X14736071Y-16185844D01*
X14721786Y-16157272D01*
X14693214Y-16142987D01*
X14636071Y-16142987D01*
X14607500Y-16157272D01*
X14736071Y-16328701D02*
X14707500Y-16342987D01*
X14636071Y-16342987D01*
X14607500Y-16328701D01*
X14593214Y-16300129D01*
X14593214Y-16271558D01*
X14607500Y-16242987D01*
X14636071Y-16228701D01*
X14707500Y-16228701D01*
X14736071Y-16214415D01*
X14836071Y-16142987D02*
X14950357Y-16142987D01*
X14878928Y-16042987D02*
X14878928Y-16300129D01*
X14893214Y-16328701D01*
X14921786Y-16342987D01*
X14950357Y-16342987D01*
X15164643Y-16328701D02*
X15136071Y-16342987D01*
X15078928Y-16342987D01*
X15050357Y-16328701D01*
X15036071Y-16300129D01*
X15036071Y-16185844D01*
X15050357Y-16157272D01*
X15078928Y-16142987D01*
X15136071Y-16142987D01*
X15164643Y-16157272D01*
X15178928Y-16185844D01*
X15178928Y-16214415D01*
X15036071Y-16242987D01*
X15436071Y-16342987D02*
X15436071Y-16042987D01*
X15436071Y-16328701D02*
X15407500Y-16342987D01*
X15350357Y-16342987D01*
X15321786Y-16328701D01*
X15307500Y-16314415D01*
X15293214Y-16285844D01*
X15293214Y-16200129D01*
X15307500Y-16171558D01*
X15321786Y-16157272D01*
X15350357Y-16142987D01*
X15407500Y-16142987D01*
X15436071Y-16157272D01*
X15550357Y-16457272D02*
X15564643Y-16442987D01*
X15593214Y-16400129D01*
X15607500Y-16371558D01*
X15621786Y-16328701D01*
X15636071Y-16257272D01*
X15636071Y-16200129D01*
X15621786Y-16128701D01*
X15607500Y-16085844D01*
X15593214Y-16057272D01*
X15564643Y-16014415D01*
X15550357Y-16000129D01*
X6092500Y-16603272D02*
G75*
G03X6092500Y-16603272I-85000J0D01*
G01*
X6536071Y-16738987D02*
X6364643Y-16738987D01*
X6450357Y-16738987D02*
X6450357Y-16438987D01*
X6421786Y-16481844D01*
X6393214Y-16510415D01*
X6364643Y-16524701D01*
X6664643Y-16710415D02*
X6678928Y-16724701D01*
X6664643Y-16738987D01*
X6650357Y-16724701D01*
X6664643Y-16710415D01*
X6664643Y-16738987D01*
X6778928Y-16438987D02*
X6978928Y-16438987D01*
X6850357Y-16738987D01*
X7150357Y-16438987D02*
X7178928Y-16438987D01*
X7207500Y-16453272D01*
X7221786Y-16467558D01*
X7236071Y-16496129D01*
X7250357Y-16553272D01*
X7250357Y-16624701D01*
X7236071Y-16681844D01*
X7221786Y-16710415D01*
X7207500Y-16724701D01*
X7178928Y-16738987D01*
X7150357Y-16738987D01*
X7121786Y-16724701D01*
X7107500Y-16710415D01*
X7093214Y-16681844D01*
X7078928Y-16624701D01*
X7078928Y-16553272D01*
X7093214Y-16496129D01*
X7107500Y-16467558D01*
X7121786Y-16453272D01*
X7150357Y-16438987D01*
X7378928Y-16738987D02*
X7378928Y-16538987D01*
X7378928Y-16567558D02*
X7393214Y-16553272D01*
X7421786Y-16538987D01*
X7464643Y-16538987D01*
X7493214Y-16553272D01*
X7507500Y-16581844D01*
X7507500Y-16738987D01*
X7507500Y-16581844D02*
X7521786Y-16553272D01*
X7550357Y-16538987D01*
X7593214Y-16538987D01*
X7621786Y-16553272D01*
X7636071Y-16581844D01*
X7636071Y-16738987D01*
X7778928Y-16738987D02*
X7778928Y-16538987D01*
X7778928Y-16567558D02*
X7793214Y-16553272D01*
X7821786Y-16538987D01*
X7864643Y-16538987D01*
X7893214Y-16553272D01*
X7907500Y-16581844D01*
X7907500Y-16738987D01*
X7907500Y-16581844D02*
X7921786Y-16553272D01*
X7950357Y-16538987D01*
X7993214Y-16538987D01*
X8021786Y-16553272D01*
X8036071Y-16581844D01*
X8036071Y-16738987D01*
X8621786Y-16424701D02*
X8364643Y-16810415D01*
X9007500Y-16438987D02*
X9036071Y-16438987D01*
X9064643Y-16453272D01*
X9078928Y-16467558D01*
X9093214Y-16496129D01*
X9107500Y-16553272D01*
X9107500Y-16624701D01*
X9093214Y-16681844D01*
X9078928Y-16710415D01*
X9064643Y-16724701D01*
X9036071Y-16738987D01*
X9007500Y-16738987D01*
X8978928Y-16724701D01*
X8964643Y-16710415D01*
X8950357Y-16681844D01*
X8936071Y-16624701D01*
X8936071Y-16553272D01*
X8950357Y-16496129D01*
X8964643Y-16467558D01*
X8978928Y-16453272D01*
X9007500Y-16438987D01*
X9236071Y-16710415D02*
X9250357Y-16724701D01*
X9236071Y-16738987D01*
X9221786Y-16724701D01*
X9236071Y-16710415D01*
X9236071Y-16738987D01*
X9436071Y-16438987D02*
X9464643Y-16438987D01*
X9493214Y-16453272D01*
X9507500Y-16467558D01*
X9521786Y-16496129D01*
X9536071Y-16553272D01*
X9536071Y-16624701D01*
X9521786Y-16681844D01*
X9507500Y-16710415D01*
X9493214Y-16724701D01*
X9464643Y-16738987D01*
X9436071Y-16738987D01*
X9407500Y-16724701D01*
X9393214Y-16710415D01*
X9378928Y-16681844D01*
X9364643Y-16624701D01*
X9364643Y-16553272D01*
X9378928Y-16496129D01*
X9393214Y-16467558D01*
X9407500Y-16453272D01*
X9436071Y-16438987D01*
X9793214Y-16438987D02*
X9736071Y-16438987D01*
X9707500Y-16453272D01*
X9693214Y-16467558D01*
X9664643Y-16510415D01*
X9650357Y-16567558D01*
X9650357Y-16681844D01*
X9664643Y-16710415D01*
X9678928Y-16724701D01*
X9707500Y-16738987D01*
X9764643Y-16738987D01*
X9793214Y-16724701D01*
X9807500Y-16710415D01*
X9821786Y-16681844D01*
X9821786Y-16610415D01*
X9807500Y-16581844D01*
X9793214Y-16567558D01*
X9764643Y-16553272D01*
X9707500Y-16553272D01*
X9678928Y-16567558D01*
X9664643Y-16581844D01*
X9650357Y-16610415D01*
X9921786Y-16438987D02*
X10121786Y-16438987D01*
X9993214Y-16738987D01*
X10221786Y-16438987D02*
X10221786Y-16496129D01*
X10336071Y-16438987D02*
X10336071Y-16496129D01*
X10778928Y-16853272D02*
X10764643Y-16838987D01*
X10736071Y-16796130D01*
X10721786Y-16767558D01*
X10707500Y-16724701D01*
X10693214Y-16653272D01*
X10693214Y-16596129D01*
X10707500Y-16524701D01*
X10721786Y-16481844D01*
X10736071Y-16453272D01*
X10764643Y-16410415D01*
X10778928Y-16396129D01*
X11021786Y-16538987D02*
X11021786Y-16738987D01*
X10950357Y-16424701D02*
X10878928Y-16638987D01*
X11064643Y-16638987D01*
X11164643Y-16467558D02*
X11178928Y-16453272D01*
X11207500Y-16438987D01*
X11278928Y-16438987D01*
X11307500Y-16453272D01*
X11321786Y-16467558D01*
X11336071Y-16496129D01*
X11336071Y-16524701D01*
X11321786Y-16567558D01*
X11150357Y-16738987D01*
X11336071Y-16738987D01*
X11693214Y-16738987D02*
X11693214Y-16438987D01*
X11821786Y-16738987D02*
X11821786Y-16581844D01*
X11807500Y-16553272D01*
X11778928Y-16538987D01*
X11736071Y-16538987D01*
X11707500Y-16553272D01*
X11693214Y-16567558D01*
X12007500Y-16738987D02*
X11978928Y-16724701D01*
X11964643Y-16710415D01*
X11950357Y-16681844D01*
X11950357Y-16596129D01*
X11964643Y-16567558D01*
X11978928Y-16553272D01*
X12007500Y-16538987D01*
X12050357Y-16538987D01*
X12078928Y-16553272D01*
X12093214Y-16567558D01*
X12107500Y-16596129D01*
X12107500Y-16681844D01*
X12093214Y-16710415D01*
X12078928Y-16724701D01*
X12050357Y-16738987D01*
X12007500Y-16738987D01*
X12278928Y-16738987D02*
X12250357Y-16724701D01*
X12236071Y-16696129D01*
X12236071Y-16438987D01*
X12507500Y-16724701D02*
X12478928Y-16738987D01*
X12421786Y-16738987D01*
X12393214Y-16724701D01*
X12378928Y-16696129D01*
X12378928Y-16581844D01*
X12393214Y-16553272D01*
X12421786Y-16538987D01*
X12478928Y-16538987D01*
X12507500Y-16553272D01*
X12521786Y-16581844D01*
X12521786Y-16610415D01*
X12378928Y-16638987D01*
X12636071Y-16724701D02*
X12664643Y-16738987D01*
X12721786Y-16738987D01*
X12750357Y-16724701D01*
X12764643Y-16696129D01*
X12764643Y-16681844D01*
X12750357Y-16653272D01*
X12721786Y-16638987D01*
X12678928Y-16638987D01*
X12650357Y-16624701D01*
X12636071Y-16596129D01*
X12636071Y-16581844D01*
X12650357Y-16553272D01*
X12678928Y-16538987D01*
X12721786Y-16538987D01*
X12750357Y-16553272D01*
X12864643Y-16853272D02*
X12878928Y-16838987D01*
X12907500Y-16796130D01*
X12921786Y-16767558D01*
X12936071Y-16724701D01*
X12950357Y-16653272D01*
X12950357Y-16596129D01*
X12936071Y-16524701D01*
X12921786Y-16481844D01*
X12907500Y-16453272D01*
X12878928Y-16410415D01*
X12864643Y-16396129D01*
X13407500Y-16853272D02*
X13393214Y-16838987D01*
X13364643Y-16796130D01*
X13350357Y-16767558D01*
X13336071Y-16724701D01*
X13321786Y-16653272D01*
X13321786Y-16596129D01*
X13336071Y-16524701D01*
X13350357Y-16481844D01*
X13364643Y-16453272D01*
X13393214Y-16410415D01*
X13407500Y-16396129D01*
X13521786Y-16538987D02*
X13521786Y-16738987D01*
X13521786Y-16567558D02*
X13536071Y-16553272D01*
X13564643Y-16538987D01*
X13607500Y-16538987D01*
X13636071Y-16553272D01*
X13650357Y-16581844D01*
X13650357Y-16738987D01*
X13836071Y-16738987D02*
X13807500Y-16724701D01*
X13793214Y-16710415D01*
X13778928Y-16681844D01*
X13778928Y-16596129D01*
X13793214Y-16567558D01*
X13807500Y-16553272D01*
X13836071Y-16538987D01*
X13878928Y-16538987D01*
X13907500Y-16553272D01*
X13921786Y-16567558D01*
X13936071Y-16596129D01*
X13936071Y-16681844D01*
X13921786Y-16710415D01*
X13907500Y-16724701D01*
X13878928Y-16738987D01*
X13836071Y-16738987D01*
X14021786Y-16538987D02*
X14136071Y-16538987D01*
X14064643Y-16438987D02*
X14064643Y-16696129D01*
X14078928Y-16724701D01*
X14107500Y-16738987D01*
X14136071Y-16738987D01*
X14464643Y-16538987D02*
X14464643Y-16838987D01*
X14464643Y-16553272D02*
X14493214Y-16538987D01*
X14550357Y-16538987D01*
X14578928Y-16553272D01*
X14593214Y-16567558D01*
X14607500Y-16596129D01*
X14607500Y-16681844D01*
X14593214Y-16710415D01*
X14578928Y-16724701D01*
X14550357Y-16738987D01*
X14493214Y-16738987D01*
X14464643Y-16724701D01*
X14778928Y-16738987D02*
X14750357Y-16724701D01*
X14736071Y-16696129D01*
X14736071Y-16438987D01*
X15021786Y-16738987D02*
X15021786Y-16581844D01*
X15007500Y-16553272D01*
X14978928Y-16538987D01*
X14921786Y-16538987D01*
X14893214Y-16553272D01*
X15021786Y-16724701D02*
X14993214Y-16738987D01*
X14921786Y-16738987D01*
X14893214Y-16724701D01*
X14878928Y-16696129D01*
X14878928Y-16667558D01*
X14893214Y-16638987D01*
X14921786Y-16624701D01*
X14993214Y-16624701D01*
X15021786Y-16610415D01*
X15121786Y-16538987D02*
X15236071Y-16538987D01*
X15164643Y-16438987D02*
X15164643Y-16696129D01*
X15178928Y-16724701D01*
X15207500Y-16738987D01*
X15236071Y-16738987D01*
X15450357Y-16724701D02*
X15421786Y-16738987D01*
X15364643Y-16738987D01*
X15336071Y-16724701D01*
X15321786Y-16696129D01*
X15321786Y-16581844D01*
X15336071Y-16553272D01*
X15364643Y-16538987D01*
X15421786Y-16538987D01*
X15450357Y-16553272D01*
X15464643Y-16581844D01*
X15464643Y-16610415D01*
X15321786Y-16638987D01*
X15721786Y-16738987D02*
X15721786Y-16438987D01*
X15721786Y-16724701D02*
X15693214Y-16738987D01*
X15636071Y-16738987D01*
X15607500Y-16724701D01*
X15593214Y-16710415D01*
X15578928Y-16681844D01*
X15578928Y-16596129D01*
X15593214Y-16567558D01*
X15607500Y-16553272D01*
X15636071Y-16538987D01*
X15693214Y-16538987D01*
X15721786Y-16553272D01*
X15836071Y-16853272D02*
X15850357Y-16838987D01*
X15878928Y-16796130D01*
X15893214Y-16767558D01*
X15907500Y-16724701D01*
X15921786Y-16653272D01*
X15921786Y-16596129D01*
X15907500Y-16524701D01*
X15893214Y-16481844D01*
X15878928Y-16453272D01*
X15850357Y-16410415D01*
X15836071Y-16396129D01*
X5997500Y-16904272D02*
X5997500Y-17094272D01*
X5902500Y-16999272D02*
X6092500Y-16999272D01*
X6536071Y-17134987D02*
X6364643Y-17134987D01*
X6450357Y-17134987D02*
X6450357Y-16834987D01*
X6421786Y-16877844D01*
X6393214Y-16906415D01*
X6364643Y-16920701D01*
X6664643Y-17106415D02*
X6678928Y-17120701D01*
X6664643Y-17134987D01*
X6650357Y-17120701D01*
X6664643Y-17106415D01*
X6664643Y-17134987D01*
X6821786Y-17134987D02*
X6878928Y-17134987D01*
X6907500Y-17120701D01*
X6921786Y-17106415D01*
X6950357Y-17063558D01*
X6964643Y-17006415D01*
X6964643Y-16892130D01*
X6950357Y-16863558D01*
X6936071Y-16849272D01*
X6907500Y-16834987D01*
X6850357Y-16834987D01*
X6821786Y-16849272D01*
X6807500Y-16863558D01*
X6793214Y-16892130D01*
X6793214Y-16963558D01*
X6807500Y-16992130D01*
X6821786Y-17006415D01*
X6850357Y-17020701D01*
X6907500Y-17020701D01*
X6936071Y-17006415D01*
X6950357Y-16992130D01*
X6964643Y-16963558D01*
X7150357Y-16834987D02*
X7178928Y-16834987D01*
X7207500Y-16849272D01*
X7221786Y-16863558D01*
X7236071Y-16892130D01*
X7250357Y-16949272D01*
X7250357Y-17020701D01*
X7236071Y-17077844D01*
X7221786Y-17106415D01*
X7207500Y-17120701D01*
X7178928Y-17134987D01*
X7150357Y-17134987D01*
X7121786Y-17120701D01*
X7107500Y-17106415D01*
X7093214Y-17077844D01*
X7078928Y-17020701D01*
X7078928Y-16949272D01*
X7093214Y-16892130D01*
X7107500Y-16863558D01*
X7121786Y-16849272D01*
X7150357Y-16834987D01*
X7378928Y-17134987D02*
X7378928Y-16934987D01*
X7378928Y-16963558D02*
X7393214Y-16949272D01*
X7421786Y-16934987D01*
X7464643Y-16934987D01*
X7493214Y-16949272D01*
X7507500Y-16977844D01*
X7507500Y-17134987D01*
X7507500Y-16977844D02*
X7521786Y-16949272D01*
X7550357Y-16934987D01*
X7593214Y-16934987D01*
X7621786Y-16949272D01*
X7636071Y-16977844D01*
X7636071Y-17134987D01*
X7778928Y-17134987D02*
X7778928Y-16934987D01*
X7778928Y-16963558D02*
X7793214Y-16949272D01*
X7821786Y-16934987D01*
X7864643Y-16934987D01*
X7893214Y-16949272D01*
X7907500Y-16977844D01*
X7907500Y-17134987D01*
X7907500Y-16977844D02*
X7921786Y-16949272D01*
X7950357Y-16934987D01*
X7993214Y-16934987D01*
X8021786Y-16949272D01*
X8036071Y-16977844D01*
X8036071Y-17134987D01*
X8621786Y-16820701D02*
X8364643Y-17206415D01*
X9007500Y-16834987D02*
X9036071Y-16834987D01*
X9064643Y-16849272D01*
X9078928Y-16863558D01*
X9093214Y-16892130D01*
X9107500Y-16949272D01*
X9107500Y-17020701D01*
X9093214Y-17077844D01*
X9078928Y-17106415D01*
X9064643Y-17120701D01*
X9036071Y-17134987D01*
X9007500Y-17134987D01*
X8978928Y-17120701D01*
X8964643Y-17106415D01*
X8950357Y-17077844D01*
X8936071Y-17020701D01*
X8936071Y-16949272D01*
X8950357Y-16892130D01*
X8964643Y-16863558D01*
X8978928Y-16849272D01*
X9007500Y-16834987D01*
X9236071Y-17106415D02*
X9250357Y-17120701D01*
X9236071Y-17134987D01*
X9221786Y-17120701D01*
X9236071Y-17106415D01*
X9236071Y-17134987D01*
X9436071Y-16834987D02*
X9464643Y-16834987D01*
X9493214Y-16849272D01*
X9507500Y-16863558D01*
X9521786Y-16892130D01*
X9536071Y-16949272D01*
X9536071Y-17020701D01*
X9521786Y-17077844D01*
X9507500Y-17106415D01*
X9493214Y-17120701D01*
X9464643Y-17134987D01*
X9436071Y-17134987D01*
X9407500Y-17120701D01*
X9393214Y-17106415D01*
X9378928Y-17077844D01*
X9364643Y-17020701D01*
X9364643Y-16949272D01*
X9378928Y-16892130D01*
X9393214Y-16863558D01*
X9407500Y-16849272D01*
X9436071Y-16834987D01*
X9636071Y-16834987D02*
X9836071Y-16834987D01*
X9707500Y-17134987D01*
X10093214Y-16834987D02*
X9950357Y-16834987D01*
X9936071Y-16977844D01*
X9950357Y-16963558D01*
X9978928Y-16949272D01*
X10050357Y-16949272D01*
X10078928Y-16963558D01*
X10093214Y-16977844D01*
X10107500Y-17006415D01*
X10107500Y-17077844D01*
X10093214Y-17106415D01*
X10078928Y-17120701D01*
X10050357Y-17134987D01*
X9978928Y-17134987D01*
X9950357Y-17120701D01*
X9936071Y-17106415D01*
X10221786Y-16834987D02*
X10221786Y-16892130D01*
X10336071Y-16834987D02*
X10336071Y-16892130D01*
X10778928Y-17249272D02*
X10764643Y-17234987D01*
X10736071Y-17192130D01*
X10721786Y-17163558D01*
X10707500Y-17120701D01*
X10693214Y-17049272D01*
X10693214Y-16992130D01*
X10707500Y-16920701D01*
X10721786Y-16877844D01*
X10736071Y-16849272D01*
X10764643Y-16806415D01*
X10778928Y-16792130D01*
X11021786Y-16934987D02*
X11021786Y-17134987D01*
X10950357Y-16820701D02*
X10878928Y-17034987D01*
X11064643Y-17034987D01*
X11164643Y-16863558D02*
X11178928Y-16849272D01*
X11207500Y-16834987D01*
X11278928Y-16834987D01*
X11307500Y-16849272D01*
X11321786Y-16863558D01*
X11336071Y-16892130D01*
X11336071Y-16920701D01*
X11321786Y-16963558D01*
X11150357Y-17134987D01*
X11336071Y-17134987D01*
X11693214Y-17134987D02*
X11693214Y-16834987D01*
X11821786Y-17134987D02*
X11821786Y-16977844D01*
X11807500Y-16949272D01*
X11778928Y-16934987D01*
X11736071Y-16934987D01*
X11707500Y-16949272D01*
X11693214Y-16963558D01*
X12007500Y-17134987D02*
X11978928Y-17120701D01*
X11964643Y-17106415D01*
X11950357Y-17077844D01*
X11950357Y-16992130D01*
X11964643Y-16963558D01*
X11978928Y-16949272D01*
X12007500Y-16934987D01*
X12050357Y-16934987D01*
X12078928Y-16949272D01*
X12093214Y-16963558D01*
X12107500Y-16992130D01*
X12107500Y-17077844D01*
X12093214Y-17106415D01*
X12078928Y-17120701D01*
X12050357Y-17134987D01*
X12007500Y-17134987D01*
X12278928Y-17134987D02*
X12250357Y-17120701D01*
X12236071Y-17092130D01*
X12236071Y-16834987D01*
X12507500Y-17120701D02*
X12478928Y-17134987D01*
X12421786Y-17134987D01*
X12393214Y-17120701D01*
X12378928Y-17092130D01*
X12378928Y-16977844D01*
X12393214Y-16949272D01*
X12421786Y-16934987D01*
X12478928Y-16934987D01*
X12507500Y-16949272D01*
X12521786Y-16977844D01*
X12521786Y-17006415D01*
X12378928Y-17034987D01*
X12636071Y-17120701D02*
X12664643Y-17134987D01*
X12721786Y-17134987D01*
X12750357Y-17120701D01*
X12764643Y-17092130D01*
X12764643Y-17077844D01*
X12750357Y-17049272D01*
X12721786Y-17034987D01*
X12678928Y-17034987D01*
X12650357Y-17020701D01*
X12636071Y-16992130D01*
X12636071Y-16977844D01*
X12650357Y-16949272D01*
X12678928Y-16934987D01*
X12721786Y-16934987D01*
X12750357Y-16949272D01*
X12864643Y-17249272D02*
X12878928Y-17234987D01*
X12907500Y-17192130D01*
X12921786Y-17163558D01*
X12936071Y-17120701D01*
X12950357Y-17049272D01*
X12950357Y-16992130D01*
X12936071Y-16920701D01*
X12921786Y-16877844D01*
X12907500Y-16849272D01*
X12878928Y-16806415D01*
X12864643Y-16792130D01*
X13407500Y-17249272D02*
X13393214Y-17234987D01*
X13364643Y-17192130D01*
X13350357Y-17163558D01*
X13336071Y-17120701D01*
X13321786Y-17049272D01*
X13321786Y-16992130D01*
X13336071Y-16920701D01*
X13350357Y-16877844D01*
X13364643Y-16849272D01*
X13393214Y-16806415D01*
X13407500Y-16792130D01*
X13521786Y-16934987D02*
X13521786Y-17134987D01*
X13521786Y-16963558D02*
X13536071Y-16949272D01*
X13564643Y-16934987D01*
X13607500Y-16934987D01*
X13636071Y-16949272D01*
X13650357Y-16977844D01*
X13650357Y-17134987D01*
X13836071Y-17134987D02*
X13807500Y-17120701D01*
X13793214Y-17106415D01*
X13778928Y-17077844D01*
X13778928Y-16992130D01*
X13793214Y-16963558D01*
X13807500Y-16949272D01*
X13836071Y-16934987D01*
X13878928Y-16934987D01*
X13907500Y-16949272D01*
X13921786Y-16963558D01*
X13936071Y-16992130D01*
X13936071Y-17077844D01*
X13921786Y-17106415D01*
X13907500Y-17120701D01*
X13878928Y-17134987D01*
X13836071Y-17134987D01*
X14021786Y-16934987D02*
X14136071Y-16934987D01*
X14064643Y-16834987D02*
X14064643Y-17092130D01*
X14078928Y-17120701D01*
X14107500Y-17134987D01*
X14136071Y-17134987D01*
X14464643Y-16934987D02*
X14464643Y-17234987D01*
X14464643Y-16949272D02*
X14493214Y-16934987D01*
X14550357Y-16934987D01*
X14578928Y-16949272D01*
X14593214Y-16963558D01*
X14607500Y-16992130D01*
X14607500Y-17077844D01*
X14593214Y-17106415D01*
X14578928Y-17120701D01*
X14550357Y-17134987D01*
X14493214Y-17134987D01*
X14464643Y-17120701D01*
X14778928Y-17134987D02*
X14750357Y-17120701D01*
X14736071Y-17092130D01*
X14736071Y-16834987D01*
X15021786Y-17134987D02*
X15021786Y-16977844D01*
X15007500Y-16949272D01*
X14978928Y-16934987D01*
X14921786Y-16934987D01*
X14893214Y-16949272D01*
X15021786Y-17120701D02*
X14993214Y-17134987D01*
X14921786Y-17134987D01*
X14893214Y-17120701D01*
X14878928Y-17092130D01*
X14878928Y-17063558D01*
X14893214Y-17034987D01*
X14921786Y-17020701D01*
X14993214Y-17020701D01*
X15021786Y-17006415D01*
X15121786Y-16934987D02*
X15236071Y-16934987D01*
X15164643Y-16834987D02*
X15164643Y-17092130D01*
X15178928Y-17120701D01*
X15207500Y-17134987D01*
X15236071Y-17134987D01*
X15450357Y-17120701D02*
X15421786Y-17134987D01*
X15364643Y-17134987D01*
X15336071Y-17120701D01*
X15321786Y-17092130D01*
X15321786Y-16977844D01*
X15336071Y-16949272D01*
X15364643Y-16934987D01*
X15421786Y-16934987D01*
X15450357Y-16949272D01*
X15464643Y-16977844D01*
X15464643Y-17006415D01*
X15321786Y-17034987D01*
X15721786Y-17134987D02*
X15721786Y-16834987D01*
X15721786Y-17120701D02*
X15693214Y-17134987D01*
X15636071Y-17134987D01*
X15607500Y-17120701D01*
X15593214Y-17106415D01*
X15578928Y-17077844D01*
X15578928Y-16992130D01*
X15593214Y-16963558D01*
X15607500Y-16949272D01*
X15636071Y-16934987D01*
X15693214Y-16934987D01*
X15721786Y-16949272D01*
X15836071Y-17249272D02*
X15850357Y-17234987D01*
X15878928Y-17192130D01*
X15893214Y-17163558D01*
X15907500Y-17120701D01*
X15921786Y-17049272D01*
X15921786Y-16992130D01*
X15907500Y-16920701D01*
X15893214Y-16877844D01*
X15878928Y-16849272D01*
X15850357Y-16806415D01*
X15836071Y-16792130D01*
X6048567Y-17501339D02*
X6048567Y-17289205D01*
X5836433Y-17289205D01*
X5836433Y-17501339D01*
X6048567Y-17501339D01*
X6350357Y-17230987D02*
X6536071Y-17230987D01*
X6436071Y-17345272D01*
X6478928Y-17345272D01*
X6507500Y-17359558D01*
X6521786Y-17373844D01*
X6536071Y-17402415D01*
X6536071Y-17473844D01*
X6521786Y-17502415D01*
X6507500Y-17516701D01*
X6478928Y-17530987D01*
X6393214Y-17530987D01*
X6364643Y-17516701D01*
X6350357Y-17502415D01*
X6664643Y-17502415D02*
X6678928Y-17516701D01*
X6664643Y-17530987D01*
X6650357Y-17516701D01*
X6664643Y-17502415D01*
X6664643Y-17530987D01*
X6864643Y-17230987D02*
X6893214Y-17230987D01*
X6921786Y-17245272D01*
X6936071Y-17259558D01*
X6950357Y-17288130D01*
X6964643Y-17345272D01*
X6964643Y-17416701D01*
X6950357Y-17473844D01*
X6936071Y-17502415D01*
X6921786Y-17516701D01*
X6893214Y-17530987D01*
X6864643Y-17530987D01*
X6836071Y-17516701D01*
X6821786Y-17502415D01*
X6807500Y-17473844D01*
X6793214Y-17416701D01*
X6793214Y-17345272D01*
X6807500Y-17288130D01*
X6821786Y-17259558D01*
X6836071Y-17245272D01*
X6864643Y-17230987D01*
X7150357Y-17230987D02*
X7178928Y-17230987D01*
X7207500Y-17245272D01*
X7221786Y-17259558D01*
X7236071Y-17288130D01*
X7250357Y-17345272D01*
X7250357Y-17416701D01*
X7236071Y-17473844D01*
X7221786Y-17502415D01*
X7207500Y-17516701D01*
X7178928Y-17530987D01*
X7150357Y-17530987D01*
X7121786Y-17516701D01*
X7107500Y-17502415D01*
X7093214Y-17473844D01*
X7078928Y-17416701D01*
X7078928Y-17345272D01*
X7093214Y-17288130D01*
X7107500Y-17259558D01*
X7121786Y-17245272D01*
X7150357Y-17230987D01*
X7378928Y-17530987D02*
X7378928Y-17330987D01*
X7378928Y-17359558D02*
X7393214Y-17345272D01*
X7421786Y-17330987D01*
X7464643Y-17330987D01*
X7493214Y-17345272D01*
X7507500Y-17373844D01*
X7507500Y-17530987D01*
X7507500Y-17373844D02*
X7521786Y-17345272D01*
X7550357Y-17330987D01*
X7593214Y-17330987D01*
X7621786Y-17345272D01*
X7636071Y-17373844D01*
X7636071Y-17530987D01*
X7778928Y-17530987D02*
X7778928Y-17330987D01*
X7778928Y-17359558D02*
X7793214Y-17345272D01*
X7821786Y-17330987D01*
X7864643Y-17330987D01*
X7893214Y-17345272D01*
X7907500Y-17373844D01*
X7907500Y-17530987D01*
X7907500Y-17373844D02*
X7921786Y-17345272D01*
X7950357Y-17330987D01*
X7993214Y-17330987D01*
X8021786Y-17345272D01*
X8036071Y-17373844D01*
X8036071Y-17530987D01*
X8621786Y-17216701D02*
X8364643Y-17602415D01*
X9007500Y-17230987D02*
X9036071Y-17230987D01*
X9064643Y-17245272D01*
X9078928Y-17259558D01*
X9093214Y-17288130D01*
X9107500Y-17345272D01*
X9107500Y-17416701D01*
X9093214Y-17473844D01*
X9078928Y-17502415D01*
X9064643Y-17516701D01*
X9036071Y-17530987D01*
X9007500Y-17530987D01*
X8978928Y-17516701D01*
X8964643Y-17502415D01*
X8950357Y-17473844D01*
X8936071Y-17416701D01*
X8936071Y-17345272D01*
X8950357Y-17288130D01*
X8964643Y-17259558D01*
X8978928Y-17245272D01*
X9007500Y-17230987D01*
X9236071Y-17502415D02*
X9250357Y-17516701D01*
X9236071Y-17530987D01*
X9221786Y-17516701D01*
X9236071Y-17502415D01*
X9236071Y-17530987D01*
X9536071Y-17530987D02*
X9364643Y-17530987D01*
X9450357Y-17530987D02*
X9450357Y-17230987D01*
X9421786Y-17273844D01*
X9393214Y-17302415D01*
X9364643Y-17316701D01*
X9821786Y-17530987D02*
X9650357Y-17530987D01*
X9736071Y-17530987D02*
X9736071Y-17230987D01*
X9707500Y-17273844D01*
X9678928Y-17302415D01*
X9650357Y-17316701D01*
X9993214Y-17359558D02*
X9964643Y-17345272D01*
X9950357Y-17330987D01*
X9936071Y-17302415D01*
X9936071Y-17288130D01*
X9950357Y-17259558D01*
X9964643Y-17245272D01*
X9993214Y-17230987D01*
X10050357Y-17230987D01*
X10078928Y-17245272D01*
X10093214Y-17259558D01*
X10107500Y-17288130D01*
X10107500Y-17302415D01*
X10093214Y-17330987D01*
X10078928Y-17345272D01*
X10050357Y-17359558D01*
X9993214Y-17359558D01*
X9964643Y-17373844D01*
X9950357Y-17388130D01*
X9936071Y-17416701D01*
X9936071Y-17473844D01*
X9950357Y-17502415D01*
X9964643Y-17516701D01*
X9993214Y-17530987D01*
X10050357Y-17530987D01*
X10078928Y-17516701D01*
X10093214Y-17502415D01*
X10107500Y-17473844D01*
X10107500Y-17416701D01*
X10093214Y-17388130D01*
X10078928Y-17373844D01*
X10050357Y-17359558D01*
X10221786Y-17230987D02*
X10221786Y-17288130D01*
X10336071Y-17230987D02*
X10336071Y-17288130D01*
X10778928Y-17645272D02*
X10764643Y-17630987D01*
X10736071Y-17588130D01*
X10721786Y-17559558D01*
X10707500Y-17516701D01*
X10693214Y-17445272D01*
X10693214Y-17388130D01*
X10707500Y-17316701D01*
X10721786Y-17273844D01*
X10736071Y-17245272D01*
X10764643Y-17202415D01*
X10778928Y-17188130D01*
X10936071Y-17359558D02*
X10907500Y-17345272D01*
X10893214Y-17330987D01*
X10878928Y-17302415D01*
X10878928Y-17288130D01*
X10893214Y-17259558D01*
X10907500Y-17245272D01*
X10936071Y-17230987D01*
X10993214Y-17230987D01*
X11021786Y-17245272D01*
X11036071Y-17259558D01*
X11050357Y-17288130D01*
X11050357Y-17302415D01*
X11036071Y-17330987D01*
X11021786Y-17345272D01*
X10993214Y-17359558D01*
X10936071Y-17359558D01*
X10907500Y-17373844D01*
X10893214Y-17388130D01*
X10878928Y-17416701D01*
X10878928Y-17473844D01*
X10893214Y-17502415D01*
X10907500Y-17516701D01*
X10936071Y-17530987D01*
X10993214Y-17530987D01*
X11021786Y-17516701D01*
X11036071Y-17502415D01*
X11050357Y-17473844D01*
X11050357Y-17416701D01*
X11036071Y-17388130D01*
X11021786Y-17373844D01*
X10993214Y-17359558D01*
X11307500Y-17330987D02*
X11307500Y-17530987D01*
X11236071Y-17216701D02*
X11164643Y-17430987D01*
X11350357Y-17430987D01*
X11693214Y-17530987D02*
X11693214Y-17230987D01*
X11821786Y-17530987D02*
X11821786Y-17373844D01*
X11807500Y-17345272D01*
X11778928Y-17330987D01*
X11736071Y-17330987D01*
X11707500Y-17345272D01*
X11693214Y-17359558D01*
X12007500Y-17530987D02*
X11978928Y-17516701D01*
X11964643Y-17502415D01*
X11950357Y-17473844D01*
X11950357Y-17388130D01*
X11964643Y-17359558D01*
X11978928Y-17345272D01*
X12007500Y-17330987D01*
X12050357Y-17330987D01*
X12078928Y-17345272D01*
X12093214Y-17359558D01*
X12107500Y-17388130D01*
X12107500Y-17473844D01*
X12093214Y-17502415D01*
X12078928Y-17516701D01*
X12050357Y-17530987D01*
X12007500Y-17530987D01*
X12278928Y-17530987D02*
X12250357Y-17516701D01*
X12236071Y-17488130D01*
X12236071Y-17230987D01*
X12507500Y-17516701D02*
X12478928Y-17530987D01*
X12421786Y-17530987D01*
X12393214Y-17516701D01*
X12378928Y-17488130D01*
X12378928Y-17373844D01*
X12393214Y-17345272D01*
X12421786Y-17330987D01*
X12478928Y-17330987D01*
X12507500Y-17345272D01*
X12521786Y-17373844D01*
X12521786Y-17402415D01*
X12378928Y-17430987D01*
X12636071Y-17516701D02*
X12664643Y-17530987D01*
X12721786Y-17530987D01*
X12750357Y-17516701D01*
X12764643Y-17488130D01*
X12764643Y-17473844D01*
X12750357Y-17445272D01*
X12721786Y-17430987D01*
X12678928Y-17430987D01*
X12650357Y-17416701D01*
X12636071Y-17388130D01*
X12636071Y-17373844D01*
X12650357Y-17345272D01*
X12678928Y-17330987D01*
X12721786Y-17330987D01*
X12750357Y-17345272D01*
X12864643Y-17645272D02*
X12878928Y-17630987D01*
X12907500Y-17588130D01*
X12921786Y-17559558D01*
X12936071Y-17516701D01*
X12950357Y-17445272D01*
X12950357Y-17388130D01*
X12936071Y-17316701D01*
X12921786Y-17273844D01*
X12907500Y-17245272D01*
X12878928Y-17202415D01*
X12864643Y-17188130D01*
X13407500Y-17645272D02*
X13393214Y-17630987D01*
X13364643Y-17588130D01*
X13350357Y-17559558D01*
X13336071Y-17516701D01*
X13321786Y-17445272D01*
X13321786Y-17388130D01*
X13336071Y-17316701D01*
X13350357Y-17273844D01*
X13364643Y-17245272D01*
X13393214Y-17202415D01*
X13407500Y-17188130D01*
X13521786Y-17330987D02*
X13521786Y-17530987D01*
X13521786Y-17359558D02*
X13536071Y-17345272D01*
X13564643Y-17330987D01*
X13607500Y-17330987D01*
X13636071Y-17345272D01*
X13650357Y-17373844D01*
X13650357Y-17530987D01*
X13836071Y-17530987D02*
X13807500Y-17516701D01*
X13793214Y-17502415D01*
X13778928Y-17473844D01*
X13778928Y-17388130D01*
X13793214Y-17359558D01*
X13807500Y-17345272D01*
X13836071Y-17330987D01*
X13878928Y-17330987D01*
X13907500Y-17345272D01*
X13921786Y-17359558D01*
X13936071Y-17388130D01*
X13936071Y-17473844D01*
X13921786Y-17502415D01*
X13907500Y-17516701D01*
X13878928Y-17530987D01*
X13836071Y-17530987D01*
X14021786Y-17330987D02*
X14136071Y-17330987D01*
X14064643Y-17230987D02*
X14064643Y-17488130D01*
X14078928Y-17516701D01*
X14107500Y-17530987D01*
X14136071Y-17530987D01*
X14464643Y-17330987D02*
X14464643Y-17630987D01*
X14464643Y-17345272D02*
X14493214Y-17330987D01*
X14550357Y-17330987D01*
X14578928Y-17345272D01*
X14593214Y-17359558D01*
X14607500Y-17388130D01*
X14607500Y-17473844D01*
X14593214Y-17502415D01*
X14578928Y-17516701D01*
X14550357Y-17530987D01*
X14493214Y-17530987D01*
X14464643Y-17516701D01*
X14778928Y-17530987D02*
X14750357Y-17516701D01*
X14736071Y-17488130D01*
X14736071Y-17230987D01*
X15021786Y-17530987D02*
X15021786Y-17373844D01*
X15007500Y-17345272D01*
X14978928Y-17330987D01*
X14921786Y-17330987D01*
X14893214Y-17345272D01*
X15021786Y-17516701D02*
X14993214Y-17530987D01*
X14921786Y-17530987D01*
X14893214Y-17516701D01*
X14878928Y-17488130D01*
X14878928Y-17459558D01*
X14893214Y-17430987D01*
X14921786Y-17416701D01*
X14993214Y-17416701D01*
X15021786Y-17402415D01*
X15121786Y-17330987D02*
X15236071Y-17330987D01*
X15164643Y-17230987D02*
X15164643Y-17488130D01*
X15178928Y-17516701D01*
X15207500Y-17530987D01*
X15236071Y-17530987D01*
X15450357Y-17516701D02*
X15421786Y-17530987D01*
X15364643Y-17530987D01*
X15336071Y-17516701D01*
X15321786Y-17488130D01*
X15321786Y-17373844D01*
X15336071Y-17345272D01*
X15364643Y-17330987D01*
X15421786Y-17330987D01*
X15450357Y-17345272D01*
X15464643Y-17373844D01*
X15464643Y-17402415D01*
X15321786Y-17430987D01*
X15721786Y-17530987D02*
X15721786Y-17230987D01*
X15721786Y-17516701D02*
X15693214Y-17530987D01*
X15636071Y-17530987D01*
X15607500Y-17516701D01*
X15593214Y-17502415D01*
X15578928Y-17473844D01*
X15578928Y-17388130D01*
X15593214Y-17359558D01*
X15607500Y-17345272D01*
X15636071Y-17330987D01*
X15693214Y-17330987D01*
X15721786Y-17345272D01*
X15836071Y-17645272D02*
X15850357Y-17630987D01*
X15878928Y-17588130D01*
X15893214Y-17559558D01*
X15907500Y-17516701D01*
X15921786Y-17445272D01*
X15921786Y-17388130D01*
X15907500Y-17316701D01*
X15893214Y-17273844D01*
X15878928Y-17245272D01*
X15850357Y-17202415D01*
X15836071Y-17188130D01*
X5887500Y-18030272D02*
X6092500Y-17825272D01*
X5887500Y-17620272D01*
X5682500Y-17825272D01*
X5887500Y-18030272D01*
X6507500Y-17760987D02*
X6507500Y-17960987D01*
X6436071Y-17646701D02*
X6364643Y-17860987D01*
X6550357Y-17860987D01*
X6664643Y-17932415D02*
X6678928Y-17946701D01*
X6664643Y-17960987D01*
X6650357Y-17946701D01*
X6664643Y-17932415D01*
X6664643Y-17960987D01*
X6964643Y-17960987D02*
X6793214Y-17960987D01*
X6878928Y-17960987D02*
X6878928Y-17660987D01*
X6850357Y-17703844D01*
X6821786Y-17732415D01*
X6793214Y-17746701D01*
X7150357Y-17660987D02*
X7178928Y-17660987D01*
X7207500Y-17675272D01*
X7221786Y-17689558D01*
X7236071Y-17718130D01*
X7250357Y-17775272D01*
X7250357Y-17846701D01*
X7236071Y-17903844D01*
X7221786Y-17932415D01*
X7207500Y-17946701D01*
X7178928Y-17960987D01*
X7150357Y-17960987D01*
X7121786Y-17946701D01*
X7107500Y-17932415D01*
X7093214Y-17903844D01*
X7078928Y-17846701D01*
X7078928Y-17775272D01*
X7093214Y-17718130D01*
X7107500Y-17689558D01*
X7121786Y-17675272D01*
X7150357Y-17660987D01*
X7378928Y-17960987D02*
X7378928Y-17760987D01*
X7378928Y-17789558D02*
X7393214Y-17775272D01*
X7421786Y-17760987D01*
X7464643Y-17760987D01*
X7493214Y-17775272D01*
X7507500Y-17803844D01*
X7507500Y-17960987D01*
X7507500Y-17803844D02*
X7521786Y-17775272D01*
X7550357Y-17760987D01*
X7593214Y-17760987D01*
X7621786Y-17775272D01*
X7636071Y-17803844D01*
X7636071Y-17960987D01*
X7778928Y-17960987D02*
X7778928Y-17760987D01*
X7778928Y-17789558D02*
X7793214Y-17775272D01*
X7821786Y-17760987D01*
X7864643Y-17760987D01*
X7893214Y-17775272D01*
X7907500Y-17803844D01*
X7907500Y-17960987D01*
X7907500Y-17803844D02*
X7921786Y-17775272D01*
X7950357Y-17760987D01*
X7993214Y-17760987D01*
X8021786Y-17775272D01*
X8036071Y-17803844D01*
X8036071Y-17960987D01*
X8621786Y-17646701D02*
X8364643Y-18032415D01*
X9007500Y-17660987D02*
X9036071Y-17660987D01*
X9064643Y-17675272D01*
X9078928Y-17689558D01*
X9093214Y-17718130D01*
X9107500Y-17775272D01*
X9107500Y-17846701D01*
X9093214Y-17903844D01*
X9078928Y-17932415D01*
X9064643Y-17946701D01*
X9036071Y-17960987D01*
X9007500Y-17960987D01*
X8978928Y-17946701D01*
X8964643Y-17932415D01*
X8950357Y-17903844D01*
X8936071Y-17846701D01*
X8936071Y-17775272D01*
X8950357Y-17718130D01*
X8964643Y-17689558D01*
X8978928Y-17675272D01*
X9007500Y-17660987D01*
X9236071Y-17932415D02*
X9250357Y-17946701D01*
X9236071Y-17960987D01*
X9221786Y-17946701D01*
X9236071Y-17932415D01*
X9236071Y-17960987D01*
X9536071Y-17960987D02*
X9364643Y-17960987D01*
X9450357Y-17960987D02*
X9450357Y-17660987D01*
X9421786Y-17703844D01*
X9393214Y-17732415D01*
X9364643Y-17746701D01*
X9793214Y-17660987D02*
X9736071Y-17660987D01*
X9707500Y-17675272D01*
X9693214Y-17689558D01*
X9664643Y-17732415D01*
X9650357Y-17789558D01*
X9650357Y-17903844D01*
X9664643Y-17932415D01*
X9678928Y-17946701D01*
X9707500Y-17960987D01*
X9764643Y-17960987D01*
X9793214Y-17946701D01*
X9807500Y-17932415D01*
X9821786Y-17903844D01*
X9821786Y-17832415D01*
X9807500Y-17803844D01*
X9793214Y-17789558D01*
X9764643Y-17775272D01*
X9707500Y-17775272D01*
X9678928Y-17789558D01*
X9664643Y-17803844D01*
X9650357Y-17832415D01*
X10107500Y-17960987D02*
X9936071Y-17960987D01*
X10021786Y-17960987D02*
X10021786Y-17660987D01*
X9993214Y-17703844D01*
X9964643Y-17732415D01*
X9936071Y-17746701D01*
X10221786Y-17660987D02*
X10221786Y-17718130D01*
X10336071Y-17660987D02*
X10336071Y-17718130D01*
X10778928Y-18075272D02*
X10764643Y-18060987D01*
X10736071Y-18018130D01*
X10721786Y-17989558D01*
X10707500Y-17946701D01*
X10693214Y-17875272D01*
X10693214Y-17818130D01*
X10707500Y-17746701D01*
X10721786Y-17703844D01*
X10736071Y-17675272D01*
X10764643Y-17632415D01*
X10778928Y-17618130D01*
X10878928Y-17689558D02*
X10893214Y-17675272D01*
X10921786Y-17660987D01*
X10993214Y-17660987D01*
X11021786Y-17675272D01*
X11036071Y-17689558D01*
X11050357Y-17718130D01*
X11050357Y-17746701D01*
X11036071Y-17789558D01*
X10864643Y-17960987D01*
X11050357Y-17960987D01*
X11336071Y-17960987D02*
X11164643Y-17960987D01*
X11250357Y-17960987D02*
X11250357Y-17660987D01*
X11221786Y-17703844D01*
X11193214Y-17732415D01*
X11164643Y-17746701D01*
X11693214Y-17960987D02*
X11693214Y-17660987D01*
X11821786Y-17960987D02*
X11821786Y-17803844D01*
X11807500Y-17775272D01*
X11778928Y-17760987D01*
X11736071Y-17760987D01*
X11707500Y-17775272D01*
X11693214Y-17789558D01*
X12007500Y-17960987D02*
X11978928Y-17946701D01*
X11964643Y-17932415D01*
X11950357Y-17903844D01*
X11950357Y-17818130D01*
X11964643Y-17789558D01*
X11978928Y-17775272D01*
X12007500Y-17760987D01*
X12050357Y-17760987D01*
X12078928Y-17775272D01*
X12093214Y-17789558D01*
X12107500Y-17818130D01*
X12107500Y-17903844D01*
X12093214Y-17932415D01*
X12078928Y-17946701D01*
X12050357Y-17960987D01*
X12007500Y-17960987D01*
X12278928Y-17960987D02*
X12250357Y-17946701D01*
X12236071Y-17918130D01*
X12236071Y-17660987D01*
X12507500Y-17946701D02*
X12478928Y-17960987D01*
X12421786Y-17960987D01*
X12393214Y-17946701D01*
X12378928Y-17918130D01*
X12378928Y-17803844D01*
X12393214Y-17775272D01*
X12421786Y-17760987D01*
X12478928Y-17760987D01*
X12507500Y-17775272D01*
X12521786Y-17803844D01*
X12521786Y-17832415D01*
X12378928Y-17860987D01*
X12636071Y-17946701D02*
X12664643Y-17960987D01*
X12721786Y-17960987D01*
X12750357Y-17946701D01*
X12764643Y-17918130D01*
X12764643Y-17903844D01*
X12750357Y-17875272D01*
X12721786Y-17860987D01*
X12678928Y-17860987D01*
X12650357Y-17846701D01*
X12636071Y-17818130D01*
X12636071Y-17803844D01*
X12650357Y-17775272D01*
X12678928Y-17760987D01*
X12721786Y-17760987D01*
X12750357Y-17775272D01*
X12864643Y-18075272D02*
X12878928Y-18060987D01*
X12907500Y-18018130D01*
X12921786Y-17989558D01*
X12936071Y-17946701D01*
X12950357Y-17875272D01*
X12950357Y-17818130D01*
X12936071Y-17746701D01*
X12921786Y-17703844D01*
X12907500Y-17675272D01*
X12878928Y-17632415D01*
X12864643Y-17618130D01*
X13407500Y-18075272D02*
X13393214Y-18060987D01*
X13364643Y-18018130D01*
X13350357Y-17989558D01*
X13336071Y-17946701D01*
X13321786Y-17875272D01*
X13321786Y-17818130D01*
X13336071Y-17746701D01*
X13350357Y-17703844D01*
X13364643Y-17675272D01*
X13393214Y-17632415D01*
X13407500Y-17618130D01*
X13521786Y-17760987D02*
X13521786Y-17960987D01*
X13521786Y-17789558D02*
X13536071Y-17775272D01*
X13564643Y-17760987D01*
X13607500Y-17760987D01*
X13636071Y-17775272D01*
X13650357Y-17803844D01*
X13650357Y-17960987D01*
X13836071Y-17960987D02*
X13807500Y-17946701D01*
X13793214Y-17932415D01*
X13778928Y-17903844D01*
X13778928Y-17818130D01*
X13793214Y-17789558D01*
X13807500Y-17775272D01*
X13836071Y-17760987D01*
X13878928Y-17760987D01*
X13907500Y-17775272D01*
X13921786Y-17789558D01*
X13936071Y-17818130D01*
X13936071Y-17903844D01*
X13921786Y-17932415D01*
X13907500Y-17946701D01*
X13878928Y-17960987D01*
X13836071Y-17960987D01*
X14021786Y-17760987D02*
X14136071Y-17760987D01*
X14064643Y-17660987D02*
X14064643Y-17918130D01*
X14078928Y-17946701D01*
X14107500Y-17960987D01*
X14136071Y-17960987D01*
X14464643Y-17760987D02*
X14464643Y-18060987D01*
X14464643Y-17775272D02*
X14493214Y-17760987D01*
X14550357Y-17760987D01*
X14578928Y-17775272D01*
X14593214Y-17789558D01*
X14607500Y-17818130D01*
X14607500Y-17903844D01*
X14593214Y-17932415D01*
X14578928Y-17946701D01*
X14550357Y-17960987D01*
X14493214Y-17960987D01*
X14464643Y-17946701D01*
X14778928Y-17960987D02*
X14750357Y-17946701D01*
X14736071Y-17918130D01*
X14736071Y-17660987D01*
X15021786Y-17960987D02*
X15021786Y-17803844D01*
X15007500Y-17775272D01*
X14978928Y-17760987D01*
X14921786Y-17760987D01*
X14893214Y-17775272D01*
X15021786Y-17946701D02*
X14993214Y-17960987D01*
X14921786Y-17960987D01*
X14893214Y-17946701D01*
X14878928Y-17918130D01*
X14878928Y-17889558D01*
X14893214Y-17860987D01*
X14921786Y-17846701D01*
X14993214Y-17846701D01*
X15021786Y-17832415D01*
X15121786Y-17760987D02*
X15236071Y-17760987D01*
X15164643Y-17660987D02*
X15164643Y-17918130D01*
X15178928Y-17946701D01*
X15207500Y-17960987D01*
X15236071Y-17960987D01*
X15450357Y-17946701D02*
X15421786Y-17960987D01*
X15364643Y-17960987D01*
X15336071Y-17946701D01*
X15321786Y-17918130D01*
X15321786Y-17803844D01*
X15336071Y-17775272D01*
X15364643Y-17760987D01*
X15421786Y-17760987D01*
X15450357Y-17775272D01*
X15464643Y-17803844D01*
X15464643Y-17832415D01*
X15321786Y-17860987D01*
X15721786Y-17960987D02*
X15721786Y-17660987D01*
X15721786Y-17946701D02*
X15693214Y-17960987D01*
X15636071Y-17960987D01*
X15607500Y-17946701D01*
X15593214Y-17932415D01*
X15578928Y-17903844D01*
X15578928Y-17818130D01*
X15593214Y-17789558D01*
X15607500Y-17775272D01*
X15636071Y-17760987D01*
X15693214Y-17760987D01*
X15721786Y-17775272D01*
X15836071Y-18075272D02*
X15850357Y-18060987D01*
X15878928Y-18018130D01*
X15893214Y-17989558D01*
X15907500Y-17946701D01*
X15921786Y-17875272D01*
X15921786Y-17818130D01*
X15907500Y-17746701D01*
X15893214Y-17703844D01*
X15878928Y-17675272D01*
X15850357Y-17632415D01*
X15836071Y-17618130D01*
M02*
