%FSLAX45Y45*%
G04 Gerber Fmt 4.5, Leading zero omitted, Abs format (unit mm)*
G04 Created by KiCad (PCBNEW 5.1.5+dfsg1-2~bpo10+1) date 2020-09-05 13:18:22*
%MOMM*%
%LPD*%
G04 APERTURE LIST*
%TA.AperFunction,Profile*%
%ADD10C,0.150000*%
%TD*%
%ADD11C,0.200000*%
%ADD12C,0.300000*%
G04 APERTURE END LIST*
D10*
X19475000Y-12797500D02*
G75*
G02X19452276Y-12884770I-170224J-2270D01*
G01*
X18129726Y-15178146D02*
G75*
G02X17936925Y-15216096I-115301J77051D01*
G01*
X16442056Y-14377034D02*
G75*
G02X16507500Y-14390000I-33315J-339810D01*
G01*
X18130000Y-15177500D02*
X19452500Y-12885000D01*
X16507500Y-14390000D02*
X17940000Y-15217500D01*
X12775000Y-13900000D02*
X16445000Y-14377500D01*
X12739645Y-13885355D02*
G75*
G03X12775000Y-13900000I35355J35355D01*
G01*
X11685000Y-12440000D02*
X12740000Y-13885000D01*
X17400000Y-6625000D02*
X17400000Y-6750000D01*
X17400000Y-6625000D02*
G75*
G03X17350000Y-6575000I-50000J0D01*
G01*
X17400000Y-6750000D02*
G75*
G03X17450000Y-6800000I50000J0D01*
G01*
X19425000Y-6800000D02*
X17450000Y-6800000D01*
X11685355Y-12439645D02*
G75*
G03X11650000Y-12425000I-35355J-35355D01*
G01*
X6100000Y-12375000D02*
G75*
G03X6150000Y-12425000I50000J0D01*
G01*
X6150000Y-6800000D02*
G75*
G03X6100000Y-6850000I0J-50000D01*
G01*
X7850000Y-12425000D02*
G75*
G03X7900000Y-12375000I0J50000D01*
G01*
X8000000Y-12375000D02*
G75*
G03X8050000Y-12425000I50000J0D01*
G01*
X7950000Y-11600000D02*
G75*
G03X7900000Y-11650000I0J-50000D01*
G01*
X8000000Y-11650000D02*
G75*
G03X7950000Y-11600000I-50000J0D01*
G01*
X7950000Y-11400000D02*
G75*
G03X8000000Y-11350000I0J50000D01*
G01*
X7900000Y-11350000D02*
G75*
G03X7950000Y-11400000I50000J0D01*
G01*
X7950000Y-9700000D02*
G75*
G03X7900000Y-9750000I0J-50000D01*
G01*
X8000000Y-9750000D02*
G75*
G03X7950000Y-9700000I-50000J0D01*
G01*
X7900000Y-9450000D02*
G75*
G03X7950000Y-9500000I50000J0D01*
G01*
X7950000Y-9500000D02*
G75*
G03X8000000Y-9450000I0J50000D01*
G01*
X7900000Y-6850000D02*
G75*
G03X7850000Y-6800000I-50000J0D01*
G01*
X8050000Y-6800000D02*
G75*
G03X8000000Y-6850000I0J-50000D01*
G01*
X8000000Y-7850000D02*
G75*
G03X7950000Y-7800000I-50000J0D01*
G01*
X7950000Y-7800000D02*
G75*
G03X7900000Y-7850000I0J-50000D01*
G01*
X7950000Y-7600000D02*
G75*
G03X8000000Y-7550000I0J50000D01*
G01*
X7900000Y-7550000D02*
G75*
G03X7950000Y-7600000I50000J0D01*
G01*
X9850000Y-6800000D02*
G75*
G03X9900000Y-6750000I0J50000D01*
G01*
X9950000Y-6325000D02*
G75*
G03X9900000Y-6375000I0J-50000D01*
G01*
X11750000Y-6325000D02*
G75*
G03X11800000Y-6275000I0J50000D01*
G01*
X11850000Y-6100000D02*
G75*
G03X11800000Y-6150000I0J-50000D01*
G01*
X13600000Y-6150000D02*
G75*
G03X13550000Y-6100000I-50000J0D01*
G01*
X13600000Y-6275000D02*
G75*
G03X13650000Y-6325000I50000J0D01*
G01*
X15500000Y-6375000D02*
G75*
G03X15450000Y-6325000I-50000J0D01*
G01*
X15500000Y-6525000D02*
G75*
G03X15550000Y-6575000I50000J0D01*
G01*
X19475000Y-6850000D02*
G75*
G03X19425000Y-6800000I-50000J0D01*
G01*
X13825000Y-12230000D02*
X13475000Y-12230000D01*
X19475000Y-6850000D02*
X19475000Y-12797500D01*
X7900000Y-12375000D02*
X7900000Y-11650000D01*
X11650000Y-12425000D02*
X8050000Y-12425000D01*
X8000000Y-11650000D02*
X8000000Y-12375000D01*
X7900000Y-11350000D02*
X7900000Y-9750000D01*
X8000000Y-9750000D02*
X8000000Y-11350000D01*
X8000000Y-9450000D02*
X8000000Y-7850000D01*
X7900000Y-7850000D02*
X7900000Y-9450000D01*
X7850000Y-6800000D02*
X6150000Y-6800000D01*
X8000000Y-7550000D02*
X8000000Y-6850000D01*
X7900000Y-6850000D02*
X7900000Y-7550000D01*
X17390000Y-13110000D02*
X17210000Y-13420000D01*
X17780000Y-13340000D02*
X17390000Y-13110000D01*
X17610000Y-13640000D02*
X17780000Y-13340000D01*
X17210000Y-13420000D02*
X17610000Y-13640000D01*
X16130000Y-12580000D02*
X15790000Y-12490000D01*
X16010000Y-13020000D02*
X16130000Y-12580000D01*
X15670000Y-12930000D02*
X16010000Y-13020000D01*
X15790000Y-12490000D02*
X15670000Y-12930000D01*
X13825000Y-12675000D02*
X13825000Y-12230000D01*
X13475000Y-12675000D02*
X13825000Y-12675000D01*
X13475000Y-12235000D02*
X13475000Y-12675000D01*
X16675000Y-10500000D02*
X16325000Y-10500000D01*
X16675000Y-10950000D02*
X16675000Y-10500000D01*
X16325000Y-10950000D02*
X16675000Y-10950000D01*
X16325000Y-10500000D02*
X16325000Y-10950000D01*
X14775000Y-10265000D02*
X14425000Y-10265000D01*
X14775000Y-10715000D02*
X14775000Y-10265000D01*
X14425000Y-10715000D02*
X14775000Y-10715000D01*
X14425000Y-10265000D02*
X14425000Y-10710000D01*
X12875000Y-10025000D02*
X12525000Y-10025000D01*
X12875000Y-10475000D02*
X12875000Y-10030000D01*
X12525000Y-10475000D02*
X12875000Y-10475000D01*
X12525000Y-10030000D02*
X12525000Y-10475000D01*
X10975000Y-10265000D02*
X10625000Y-10265000D01*
X10975000Y-10715000D02*
X10975000Y-10265000D01*
X10625000Y-10715000D02*
X10975000Y-10715000D01*
X10625000Y-10265000D02*
X10625000Y-10710000D01*
X16675000Y-8600000D02*
X16325000Y-8600000D01*
X16675000Y-9050000D02*
X16675000Y-8600000D01*
X16325000Y-9050000D02*
X16675000Y-9050000D01*
X16325000Y-8600000D02*
X16325000Y-9050000D01*
X14775000Y-8365000D02*
X14425000Y-8365000D01*
X14775000Y-8815000D02*
X14775000Y-8365000D01*
X14425000Y-8815000D02*
X14775000Y-8815000D01*
X14425000Y-8365000D02*
X14425000Y-8810000D01*
X12875000Y-8125000D02*
X12525000Y-8125000D01*
X12875000Y-8575000D02*
X12875000Y-8130000D01*
X12525000Y-8575000D02*
X12875000Y-8575000D01*
X12525000Y-8130000D02*
X12525000Y-8575000D01*
X10975000Y-8365000D02*
X10625000Y-8365000D01*
X10975000Y-8815000D02*
X10975000Y-8365000D01*
X10625000Y-8815000D02*
X10975000Y-8815000D01*
X10625000Y-8365000D02*
X10625000Y-8810000D01*
X16675000Y-6700000D02*
X16325000Y-6700000D01*
X16675000Y-7150000D02*
X16675000Y-6700000D01*
X16325000Y-7150000D02*
X16675000Y-7150000D01*
X16325000Y-6700000D02*
X16325000Y-7150000D01*
X14775000Y-6465000D02*
X14425000Y-6465000D01*
X14775000Y-6915000D02*
X14775000Y-6465000D01*
X14425000Y-6915000D02*
X14775000Y-6915000D01*
X14425000Y-6465000D02*
X14425000Y-6910000D01*
X12875000Y-6225000D02*
X12525000Y-6225000D01*
X12875000Y-6675000D02*
X12875000Y-6225000D01*
X12525000Y-6675000D02*
X12875000Y-6675000D01*
X12525000Y-6225000D02*
X12525000Y-6670000D01*
X10975000Y-6465000D02*
X10625000Y-6465000D01*
X10975000Y-6915000D02*
X10975000Y-6465000D01*
X10625000Y-6915000D02*
X10975000Y-6915000D01*
X10625000Y-6465000D02*
X10625000Y-6910000D01*
X9075000Y-10740000D02*
X8725000Y-10740000D01*
X9075000Y-11190000D02*
X9075000Y-10740000D01*
X8725000Y-11190000D02*
X9075000Y-11190000D01*
X8725000Y-10740000D02*
X8725000Y-11190000D01*
X7175000Y-10740000D02*
X6825000Y-10740000D01*
X7175000Y-11190000D02*
X7175000Y-10740000D01*
X6825000Y-11190000D02*
X7175000Y-11190000D01*
X6825000Y-10740000D02*
X6825000Y-11190000D01*
X9075000Y-8840000D02*
X8725000Y-8840000D01*
X9075000Y-9290000D02*
X9075000Y-8840000D01*
X8725000Y-9290000D02*
X9075000Y-9290000D01*
X8725000Y-8840000D02*
X8725000Y-9290000D01*
X7175000Y-8840000D02*
X6825000Y-8840000D01*
X7175000Y-9290000D02*
X7175000Y-8840000D01*
X6825000Y-9290000D02*
X7175000Y-9290000D01*
X6825000Y-8840000D02*
X6825000Y-9290000D01*
X9075000Y-6940000D02*
X8725000Y-6940000D01*
X9075000Y-7390000D02*
X9075000Y-6940000D01*
X8725000Y-7390000D02*
X9075000Y-7390000D01*
X8725000Y-6940000D02*
X8725000Y-7390000D01*
X7175000Y-6940000D02*
X6825000Y-6940000D01*
X7175000Y-7390000D02*
X7175000Y-6940000D01*
X6825000Y-7390000D02*
X7175000Y-7390000D01*
X6825000Y-6940000D02*
X6825000Y-7390000D01*
X6150000Y-12425000D02*
X7850000Y-12425000D01*
X6100000Y-6850000D02*
X6100000Y-12375000D01*
X9850000Y-6800000D02*
X8050000Y-6800000D01*
X9900000Y-6375000D02*
X9900000Y-6750000D01*
X11750000Y-6325000D02*
X9950000Y-6325000D01*
X11800000Y-6150000D02*
X11800000Y-6275000D01*
X13550000Y-6100000D02*
X11850000Y-6100000D01*
X13600000Y-6275000D02*
X13600000Y-6150000D01*
X15450000Y-6325000D02*
X13650000Y-6325000D01*
X15500000Y-6525000D02*
X15500000Y-6375000D01*
X17350000Y-6575000D02*
X15550000Y-6575000D01*
D11*
X6180000Y-7460000D02*
X6220000Y-7500000D01*
X6220000Y-7460000D02*
X6180000Y-7500000D01*
X6180000Y-7545000D02*
X6220000Y-7585000D01*
X6220000Y-7545000D02*
X6180000Y-7585000D01*
X6180000Y-9360000D02*
X6220000Y-9400000D01*
X6220000Y-9360000D02*
X6180000Y-9400000D01*
X6180000Y-9445000D02*
X6220000Y-9485000D01*
X6220000Y-9445000D02*
X6180000Y-9485000D01*
X6180000Y-11255000D02*
X6220000Y-11295000D01*
X6220000Y-11255000D02*
X6180000Y-11295000D01*
X6180000Y-11345000D02*
X6220000Y-11385000D01*
X6220000Y-11345000D02*
X6180000Y-11385000D01*
X6275000Y-8385000D02*
X6315000Y-8425000D01*
X6315000Y-8385000D02*
X6275000Y-8425000D01*
X6275000Y-10305000D02*
X6315000Y-10345000D01*
X6315000Y-10305000D02*
X6275000Y-10345000D01*
X6275000Y-12190000D02*
X6315000Y-12230000D01*
X6315000Y-12190000D02*
X6275000Y-12230000D01*
X6370000Y-9235000D02*
X6410000Y-9275000D01*
X6410000Y-9235000D02*
X6370000Y-9275000D01*
X6370000Y-11135000D02*
X6410000Y-11175000D01*
X6410000Y-11135000D02*
X6370000Y-11175000D01*
X6640000Y-7340000D02*
X6680000Y-7380000D01*
X6680000Y-7340000D02*
X6640000Y-7380000D01*
X6650000Y-9240000D02*
X6690000Y-9280000D01*
X6690000Y-9240000D02*
X6650000Y-9280000D01*
X6660000Y-11150000D02*
X6700000Y-11190000D01*
X6700000Y-11150000D02*
X6660000Y-11190000D01*
X6720000Y-7360000D02*
X6760000Y-7400000D01*
X6760000Y-7360000D02*
X6720000Y-7400000D01*
X6730000Y-9260000D02*
X6770000Y-9300000D01*
X6770000Y-9260000D02*
X6730000Y-9300000D01*
X6738000Y-10715000D02*
X6778000Y-10755000D01*
X6778000Y-10715000D02*
X6738000Y-10755000D01*
X6739000Y-6915000D02*
X6779000Y-6955000D01*
X6779000Y-6915000D02*
X6739000Y-6955000D01*
X6739000Y-8817000D02*
X6779000Y-8857000D01*
X6779000Y-8817000D02*
X6739000Y-8857000D01*
X6750000Y-11150000D02*
X6790000Y-11190000D01*
X6790000Y-11150000D02*
X6750000Y-11190000D01*
X7200000Y-9410000D02*
X7240000Y-9450000D01*
X7240000Y-9410000D02*
X7200000Y-9450000D01*
X7240000Y-6900000D02*
X7280000Y-6940000D01*
X7280000Y-6900000D02*
X7240000Y-6940000D01*
X7240000Y-8830000D02*
X7280000Y-8870000D01*
X7280000Y-8830000D02*
X7240000Y-8870000D01*
X7240000Y-10720000D02*
X7280000Y-10760000D01*
X7280000Y-10720000D02*
X7240000Y-10760000D01*
X7315000Y-8420000D02*
X7355000Y-8460000D01*
X7355000Y-8420000D02*
X7315000Y-8460000D01*
X7335000Y-12205000D02*
X7375000Y-12245000D01*
X7375000Y-12205000D02*
X7335000Y-12245000D01*
X7345000Y-10330000D02*
X7385000Y-10370000D01*
X7385000Y-10330000D02*
X7345000Y-10370000D01*
X7370000Y-8700000D02*
X7410000Y-8740000D01*
X7410000Y-8700000D02*
X7370000Y-8740000D01*
X7370000Y-9000000D02*
X7410000Y-9040000D01*
X7410000Y-9000000D02*
X7370000Y-9040000D01*
X7380000Y-10860000D02*
X7420000Y-10900000D01*
X7420000Y-10860000D02*
X7380000Y-10900000D01*
X7390000Y-7110000D02*
X7430000Y-7150000D01*
X7430000Y-7110000D02*
X7390000Y-7150000D01*
X7390000Y-10590000D02*
X7430000Y-10630000D01*
X7430000Y-10590000D02*
X7390000Y-10630000D01*
X7670000Y-7520000D02*
X7710000Y-7560000D01*
X7710000Y-7520000D02*
X7670000Y-7560000D01*
X8040000Y-9805000D02*
X8080000Y-9845000D01*
X8080000Y-9805000D02*
X8040000Y-9845000D01*
X8050000Y-9700000D02*
X8090000Y-9740000D01*
X8090000Y-9700000D02*
X8050000Y-9740000D01*
X8090000Y-11550000D02*
X8130000Y-11590000D01*
X8130000Y-11550000D02*
X8090000Y-11590000D01*
X8185000Y-12190000D02*
X8225000Y-12230000D01*
X8225000Y-12190000D02*
X8185000Y-12230000D01*
X8190000Y-11570000D02*
X8230000Y-11610000D01*
X8230000Y-11570000D02*
X8190000Y-11610000D01*
X8265000Y-10345000D02*
X8305000Y-10385000D01*
X8305000Y-10345000D02*
X8265000Y-10385000D01*
X8270000Y-9440000D02*
X8310000Y-9480000D01*
X8310000Y-9440000D02*
X8270000Y-9480000D01*
X8310000Y-11320000D02*
X8350000Y-11360000D01*
X8350000Y-11320000D02*
X8310000Y-11360000D01*
X8330000Y-8390000D02*
X8370000Y-8430000D01*
X8370000Y-8390000D02*
X8330000Y-8430000D01*
X8330000Y-8500000D02*
X8370000Y-8540000D01*
X8370000Y-8500000D02*
X8330000Y-8540000D01*
X8330000Y-8690000D02*
X8370000Y-8730000D01*
X8370000Y-8690000D02*
X8330000Y-8730000D01*
X8340000Y-10285000D02*
X8380000Y-10325000D01*
X8380000Y-10285000D02*
X8340000Y-10325000D01*
X8455000Y-10280000D02*
X8495000Y-10320000D01*
X8495000Y-10280000D02*
X8455000Y-10320000D01*
X8460000Y-8850000D02*
X8500000Y-8890000D01*
X8500000Y-8850000D02*
X8460000Y-8890000D01*
X8480000Y-10470000D02*
X8520000Y-10510000D01*
X8520000Y-10470000D02*
X8480000Y-10510000D01*
X8490000Y-8570000D02*
X8530000Y-8610000D01*
X8530000Y-8570000D02*
X8490000Y-8610000D01*
X8500000Y-11030000D02*
X8540000Y-11070000D01*
X8540000Y-11030000D02*
X8500000Y-11070000D01*
X8510000Y-10940000D02*
X8550000Y-10980000D01*
X8550000Y-10940000D02*
X8510000Y-10980000D01*
X8540000Y-9240000D02*
X8580000Y-9280000D01*
X8580000Y-9240000D02*
X8540000Y-9280000D01*
X8560000Y-7340000D02*
X8600000Y-7380000D01*
X8600000Y-7340000D02*
X8560000Y-7380000D01*
X8620000Y-9250000D02*
X8660000Y-9290000D01*
X8660000Y-9250000D02*
X8620000Y-9290000D01*
X8639000Y-6933000D02*
X8679000Y-6973000D01*
X8679000Y-6933000D02*
X8639000Y-6973000D01*
X8660000Y-7350000D02*
X8700000Y-7390000D01*
X8700000Y-7350000D02*
X8660000Y-7390000D01*
X8827500Y-8567500D02*
X8867500Y-8607500D01*
X8867500Y-8567500D02*
X8827500Y-8607500D01*
X8847500Y-10475000D02*
X8887500Y-10515000D01*
X8887500Y-10475000D02*
X8847500Y-10515000D01*
X8922500Y-8565000D02*
X8962500Y-8605000D01*
X8962500Y-8565000D02*
X8922500Y-8605000D01*
X8935000Y-10472500D02*
X8975000Y-10512500D01*
X8975000Y-10472500D02*
X8935000Y-10512500D01*
X9120000Y-10750000D02*
X9160000Y-10790000D01*
X9160000Y-10750000D02*
X9120000Y-10790000D01*
X9140000Y-6930000D02*
X9180000Y-6970000D01*
X9180000Y-6930000D02*
X9140000Y-6970000D01*
X9150000Y-8830000D02*
X9190000Y-8870000D01*
X9190000Y-8830000D02*
X9150000Y-8870000D01*
X9270000Y-10480000D02*
X9310000Y-10520000D01*
X9310000Y-10480000D02*
X9270000Y-10520000D01*
X9280000Y-8960000D02*
X9320000Y-9000000D01*
X9320000Y-8960000D02*
X9280000Y-9000000D01*
X9290000Y-7090000D02*
X9330000Y-7130000D01*
X9330000Y-7090000D02*
X9290000Y-7130000D01*
X9300000Y-8680000D02*
X9340000Y-8720000D01*
X9340000Y-8680000D02*
X9300000Y-8720000D01*
X9300000Y-10840000D02*
X9340000Y-10880000D01*
X9340000Y-10840000D02*
X9300000Y-10880000D01*
X9335000Y-12205000D02*
X9375000Y-12245000D01*
X9375000Y-12205000D02*
X9335000Y-12245000D01*
X9395000Y-8470000D02*
X9435000Y-8510000D01*
X9435000Y-8470000D02*
X9395000Y-8510000D01*
X9500000Y-10750000D02*
X9540000Y-10790000D01*
X9540000Y-10750000D02*
X9500000Y-10790000D01*
X9550000Y-7430000D02*
X9590000Y-7470000D01*
X9590000Y-7430000D02*
X9550000Y-7470000D01*
X9560000Y-9400000D02*
X9600000Y-9440000D01*
X9600000Y-9400000D02*
X9560000Y-9440000D01*
X9630000Y-8140000D02*
X9670000Y-8180000D01*
X9670000Y-8140000D02*
X9630000Y-8180000D01*
X9675000Y-9350000D02*
X9715000Y-9390000D01*
X9715000Y-9350000D02*
X9675000Y-9390000D01*
X9680000Y-7455000D02*
X9720000Y-7495000D01*
X9720000Y-7455000D02*
X9680000Y-7495000D01*
X9680000Y-11250000D02*
X9720000Y-11290000D01*
X9720000Y-11250000D02*
X9680000Y-11290000D01*
X9715000Y-8150000D02*
X9755000Y-8190000D01*
X9755000Y-8150000D02*
X9715000Y-8190000D01*
X9780000Y-9710000D02*
X9820000Y-9750000D01*
X9820000Y-9710000D02*
X9780000Y-9750000D01*
X9780000Y-11605000D02*
X9820000Y-11645000D01*
X9820000Y-11605000D02*
X9780000Y-11645000D01*
X9785000Y-7785000D02*
X9825000Y-7825000D01*
X9825000Y-7785000D02*
X9785000Y-7825000D01*
X9785000Y-7985000D02*
X9825000Y-8025000D01*
X9825000Y-7985000D02*
X9785000Y-8025000D01*
X9815000Y-10045000D02*
X9855000Y-10085000D01*
X9855000Y-10045000D02*
X9815000Y-10085000D01*
X9850000Y-11050000D02*
X9890000Y-11090000D01*
X9890000Y-11050000D02*
X9850000Y-11090000D01*
X9865000Y-7890000D02*
X9905000Y-7930000D01*
X9905000Y-7890000D02*
X9865000Y-7930000D01*
X9878000Y-9333000D02*
X9918000Y-9373000D01*
X9918000Y-9333000D02*
X9878000Y-9373000D01*
X9890000Y-7550000D02*
X9930000Y-7590000D01*
X9930000Y-7550000D02*
X9890000Y-7590000D01*
X9900000Y-7290000D02*
X9940000Y-7330000D01*
X9940000Y-7290000D02*
X9900000Y-7330000D01*
X9900000Y-10970000D02*
X9940000Y-11010000D01*
X9940000Y-10970000D02*
X9900000Y-11010000D01*
X9905000Y-11315000D02*
X9945000Y-11355000D01*
X9945000Y-11315000D02*
X9905000Y-11355000D01*
X9920000Y-11130000D02*
X9960000Y-11170000D01*
X9960000Y-11130000D02*
X9920000Y-11170000D01*
X9990000Y-7185000D02*
X10030000Y-7225000D01*
X10030000Y-7185000D02*
X9990000Y-7225000D01*
X10015000Y-11453000D02*
X10055000Y-11493000D01*
X10055000Y-11453000D02*
X10015000Y-11493000D01*
X10038000Y-7652000D02*
X10078000Y-7692000D01*
X10078000Y-7652000D02*
X10038000Y-7692000D01*
X10044000Y-9561000D02*
X10084000Y-9601000D01*
X10084000Y-9561000D02*
X10044000Y-9601000D01*
X10091000Y-9187000D02*
X10131000Y-9227000D01*
X10131000Y-9187000D02*
X10091000Y-9227000D01*
X10095000Y-11090000D02*
X10135000Y-11130000D01*
X10135000Y-11090000D02*
X10095000Y-11130000D01*
X10194000Y-8955000D02*
X10234000Y-8995000D01*
X10234000Y-8955000D02*
X10194000Y-8995000D01*
X10234000Y-7895000D02*
X10274000Y-7935000D01*
X10274000Y-7895000D02*
X10234000Y-7935000D01*
X10237000Y-9801000D02*
X10277000Y-9841000D01*
X10277000Y-9801000D02*
X10237000Y-9841000D01*
X10237000Y-11704000D02*
X10277000Y-11744000D01*
X10277000Y-11704000D02*
X10237000Y-11744000D01*
X10388501Y-10825380D02*
X10428501Y-10865380D01*
X10428501Y-10825380D02*
X10388501Y-10865380D01*
X10400000Y-10480000D02*
X10440000Y-10520000D01*
X10440000Y-10480000D02*
X10400000Y-10520000D01*
X10401000Y-6465000D02*
X10441000Y-6505000D01*
X10441000Y-6465000D02*
X10401000Y-6505000D01*
X10410000Y-8570000D02*
X10450000Y-8610000D01*
X10450000Y-8570000D02*
X10410000Y-8610000D01*
X10440000Y-6870000D02*
X10480000Y-6910000D01*
X10480000Y-6870000D02*
X10440000Y-6910000D01*
X10444000Y-10883000D02*
X10484000Y-10923000D01*
X10484000Y-10883000D02*
X10444000Y-10923000D01*
X10520000Y-6880000D02*
X10560000Y-6920000D01*
X10560000Y-6880000D02*
X10520000Y-6920000D01*
X10520000Y-8780000D02*
X10560000Y-8820000D01*
X10560000Y-8780000D02*
X10520000Y-8820000D01*
X10540000Y-10670000D02*
X10580000Y-10710000D01*
X10580000Y-10670000D02*
X10540000Y-10710000D01*
X10541000Y-8364000D02*
X10581000Y-8404000D01*
X10581000Y-8364000D02*
X10541000Y-8404000D01*
X10541000Y-10269000D02*
X10581000Y-10309000D01*
X10581000Y-10269000D02*
X10541000Y-10309000D01*
X11040000Y-6460000D02*
X11080000Y-6500000D01*
X11080000Y-6460000D02*
X11040000Y-6500000D01*
X11050000Y-8360000D02*
X11090000Y-8400000D01*
X11090000Y-8360000D02*
X11050000Y-8400000D01*
X11060000Y-10270000D02*
X11100000Y-10310000D01*
X11100000Y-10270000D02*
X11060000Y-10310000D01*
X11150000Y-6480000D02*
X11190000Y-6520000D01*
X11190000Y-6480000D02*
X11150000Y-6520000D01*
X11180000Y-8510000D02*
X11220000Y-8550000D01*
X11220000Y-8510000D02*
X11180000Y-8550000D01*
X11180000Y-10370000D02*
X11220000Y-10410000D01*
X11220000Y-10370000D02*
X11180000Y-10410000D01*
X11260000Y-10040000D02*
X11300000Y-10080000D01*
X11300000Y-10040000D02*
X11260000Y-10080000D01*
X11270000Y-8150000D02*
X11310000Y-8190000D01*
X11310000Y-8150000D02*
X11270000Y-8190000D01*
X11370000Y-6460000D02*
X11410000Y-6500000D01*
X11410000Y-6460000D02*
X11370000Y-6500000D01*
X11450000Y-6980000D02*
X11490000Y-7020000D01*
X11490000Y-6980000D02*
X11450000Y-7020000D01*
X11460000Y-8890000D02*
X11500000Y-8930000D01*
X11500000Y-8890000D02*
X11460000Y-8930000D01*
X11477500Y-10112500D02*
X11517500Y-10152500D01*
X11517500Y-10112500D02*
X11477500Y-10152500D01*
X11522000Y-9647000D02*
X11562000Y-9687000D01*
X11562000Y-9647000D02*
X11522000Y-9687000D01*
X11528000Y-7758000D02*
X11568000Y-7798000D01*
X11568000Y-7758000D02*
X11528000Y-7798000D01*
X11555000Y-6975000D02*
X11595000Y-7015000D01*
X11595000Y-6975000D02*
X11555000Y-7015000D01*
X11580000Y-8885000D02*
X11620000Y-8925000D01*
X11620000Y-8885000D02*
X11580000Y-8925000D01*
X11580000Y-10780000D02*
X11620000Y-10820000D01*
X11620000Y-10780000D02*
X11580000Y-10820000D01*
X11659000Y-11150000D02*
X11699000Y-11190000D01*
X11699000Y-11150000D02*
X11659000Y-11190000D01*
X11698000Y-7331000D02*
X11738000Y-7371000D01*
X11738000Y-7331000D02*
X11698000Y-7371000D01*
X11726000Y-9242000D02*
X11766000Y-9282000D01*
X11766000Y-9242000D02*
X11726000Y-9282000D01*
X11770000Y-10610000D02*
X11810000Y-10650000D01*
X11810000Y-10610000D02*
X11770000Y-10650000D01*
X11880000Y-8710000D02*
X11920000Y-8750000D01*
X11920000Y-8710000D02*
X11880000Y-8750000D01*
X11880000Y-10610000D02*
X11920000Y-10650000D01*
X11920000Y-10610000D02*
X11880000Y-10650000D01*
X11910000Y-9830000D02*
X11950000Y-9870000D01*
X11950000Y-9830000D02*
X11910000Y-9870000D01*
X11920000Y-9315000D02*
X11960000Y-9355000D01*
X11960000Y-9315000D02*
X11920000Y-9355000D01*
X11925000Y-7425000D02*
X11965000Y-7465000D01*
X11965000Y-7425000D02*
X11925000Y-7465000D01*
X11932000Y-11210000D02*
X11972000Y-11250000D01*
X11972000Y-11210000D02*
X11932000Y-11250000D01*
X11977000Y-10849000D02*
X12017000Y-10889000D01*
X12017000Y-10849000D02*
X11977000Y-10889000D01*
X11991000Y-8963000D02*
X12031000Y-9003000D01*
X12031000Y-8963000D02*
X11991000Y-9003000D01*
X12070000Y-9830000D02*
X12110000Y-9870000D01*
X12110000Y-9830000D02*
X12070000Y-9870000D01*
X12080000Y-8710000D02*
X12120000Y-8750000D01*
X12120000Y-8710000D02*
X12080000Y-8750000D01*
X12080000Y-10610000D02*
X12120000Y-10650000D01*
X12120000Y-10610000D02*
X12080000Y-10650000D01*
X12120000Y-6440000D02*
X12160000Y-6480000D01*
X12160000Y-6440000D02*
X12120000Y-6480000D01*
X12135000Y-7666000D02*
X12175000Y-7706000D01*
X12175000Y-7666000D02*
X12135000Y-7706000D01*
X12139000Y-11458000D02*
X12179000Y-11498000D01*
X12179000Y-11458000D02*
X12139000Y-11498000D01*
X12153000Y-9569000D02*
X12193000Y-9609000D01*
X12193000Y-9569000D02*
X12153000Y-9609000D01*
X12270000Y-10320000D02*
X12310000Y-10360000D01*
X12310000Y-10320000D02*
X12270000Y-10360000D01*
X12280000Y-7830000D02*
X12320000Y-7870000D01*
X12320000Y-7830000D02*
X12280000Y-7870000D01*
X12280000Y-8140000D02*
X12320000Y-8180000D01*
X12320000Y-8140000D02*
X12280000Y-8180000D01*
X12290000Y-10230000D02*
X12330000Y-10270000D01*
X12330000Y-10230000D02*
X12290000Y-10270000D01*
X12300000Y-6440000D02*
X12340000Y-6480000D01*
X12340000Y-6440000D02*
X12300000Y-6480000D01*
X12300000Y-8320000D02*
X12340000Y-8360000D01*
X12340000Y-8320000D02*
X12300000Y-8360000D01*
X12302500Y-11572500D02*
X12342500Y-11612500D01*
X12342500Y-11572500D02*
X12302500Y-11612500D01*
X12410000Y-6640000D02*
X12450000Y-6680000D01*
X12450000Y-6640000D02*
X12410000Y-6680000D01*
X12420000Y-8530000D02*
X12460000Y-8570000D01*
X12460000Y-8530000D02*
X12420000Y-8570000D01*
X12500000Y-9870000D02*
X12540000Y-9910000D01*
X12540000Y-9870000D02*
X12500000Y-9910000D01*
X12622500Y-7857500D02*
X12662500Y-7897500D01*
X12662500Y-7857500D02*
X12622500Y-7897500D01*
X12632500Y-11667500D02*
X12672500Y-11707500D01*
X12672500Y-11667500D02*
X12632500Y-11707500D01*
X12720000Y-7867500D02*
X12760000Y-7907500D01*
X12760000Y-7867500D02*
X12720000Y-7907500D01*
X12735000Y-11665000D02*
X12775000Y-11705000D01*
X12775000Y-11665000D02*
X12735000Y-11705000D01*
X12746000Y-13142000D02*
X12786000Y-13182000D01*
X12786000Y-13142000D02*
X12746000Y-13182000D01*
X12830000Y-12740000D02*
X12870000Y-12780000D01*
X12870000Y-12740000D02*
X12830000Y-12780000D01*
X12883000Y-13606000D02*
X12923000Y-13646000D01*
X12923000Y-13606000D02*
X12883000Y-13646000D01*
X12950000Y-6230000D02*
X12990000Y-6270000D01*
X12990000Y-6230000D02*
X12950000Y-6270000D01*
X12951000Y-12736000D02*
X12991000Y-12776000D01*
X12991000Y-12736000D02*
X12951000Y-12776000D01*
X12970000Y-8130000D02*
X13010000Y-8170000D01*
X13010000Y-8130000D02*
X12970000Y-8170000D01*
X13060000Y-10230000D02*
X13100000Y-10270000D01*
X13100000Y-10230000D02*
X13060000Y-10270000D01*
X13070000Y-8310000D02*
X13110000Y-8350000D01*
X13110000Y-8310000D02*
X13070000Y-8350000D01*
X13080000Y-6340000D02*
X13120000Y-6380000D01*
X13120000Y-6340000D02*
X13080000Y-6380000D01*
X13080000Y-11660000D02*
X13120000Y-11700000D01*
X13120000Y-11660000D02*
X13080000Y-11700000D01*
X13100000Y-7850000D02*
X13140000Y-7890000D01*
X13140000Y-7850000D02*
X13100000Y-7890000D01*
X13103000Y-13679000D02*
X13143000Y-13719000D01*
X13143000Y-13679000D02*
X13103000Y-13719000D01*
X13130000Y-12190000D02*
X13170000Y-12230000D01*
X13170000Y-12190000D02*
X13130000Y-12230000D01*
X13150000Y-10140000D02*
X13190000Y-10180000D01*
X13190000Y-10140000D02*
X13150000Y-10180000D01*
X13190000Y-7850000D02*
X13230000Y-7890000D01*
X13230000Y-7850000D02*
X13190000Y-7890000D01*
X13190000Y-11670000D02*
X13230000Y-11710000D01*
X13230000Y-11670000D02*
X13190000Y-11710000D01*
X13220000Y-12440000D02*
X13260000Y-12480000D01*
X13260000Y-12440000D02*
X13220000Y-12480000D01*
X13260000Y-12070000D02*
X13300000Y-12110000D01*
X13300000Y-12070000D02*
X13260000Y-12110000D01*
X13306000Y-11870000D02*
X13346000Y-11910000D01*
X13346000Y-11870000D02*
X13306000Y-11910000D01*
X13350000Y-6720000D02*
X13390000Y-6760000D01*
X13390000Y-6720000D02*
X13350000Y-6760000D01*
X13350000Y-7900000D02*
X13390000Y-7940000D01*
X13390000Y-7900000D02*
X13350000Y-7940000D01*
X13350000Y-8640000D02*
X13390000Y-8680000D01*
X13390000Y-8640000D02*
X13350000Y-8680000D01*
X13350000Y-10530000D02*
X13390000Y-10570000D01*
X13390000Y-10530000D02*
X13350000Y-10570000D01*
X13370000Y-11940000D02*
X13410000Y-11980000D01*
X13410000Y-11940000D02*
X13370000Y-11980000D01*
X13422000Y-9415000D02*
X13462000Y-9455000D01*
X13462000Y-9415000D02*
X13422000Y-9455000D01*
X13434000Y-7474000D02*
X13474000Y-7514000D01*
X13474000Y-7474000D02*
X13434000Y-7514000D01*
X13445000Y-11314000D02*
X13485000Y-11354000D01*
X13485000Y-11314000D02*
X13445000Y-11354000D01*
X13450000Y-11870000D02*
X13490000Y-11910000D01*
X13490000Y-11870000D02*
X13450000Y-11910000D01*
X13480000Y-6740000D02*
X13520000Y-6780000D01*
X13520000Y-6740000D02*
X13480000Y-6780000D01*
X13480000Y-8640000D02*
X13520000Y-8680000D01*
X13520000Y-8640000D02*
X13480000Y-8680000D01*
X13480000Y-10540000D02*
X13520000Y-10580000D01*
X13520000Y-10540000D02*
X13480000Y-10580000D01*
X13585000Y-7093000D02*
X13625000Y-7133000D01*
X13625000Y-7093000D02*
X13585000Y-7133000D01*
X13608000Y-10881000D02*
X13648000Y-10921000D01*
X13648000Y-10881000D02*
X13608000Y-10921000D01*
X13615000Y-8988000D02*
X13655000Y-9028000D01*
X13655000Y-8988000D02*
X13615000Y-9028000D01*
X13720000Y-12070000D02*
X13760000Y-12110000D01*
X13760000Y-12070000D02*
X13720000Y-12110000D01*
X13770000Y-10820000D02*
X13810000Y-10860000D01*
X13810000Y-10820000D02*
X13770000Y-10860000D01*
X13800000Y-8930000D02*
X13840000Y-8970000D01*
X13840000Y-8930000D02*
X13800000Y-8970000D01*
X13810000Y-9930000D02*
X13850000Y-9970000D01*
X13850000Y-9930000D02*
X13810000Y-9970000D01*
X13810000Y-10040000D02*
X13850000Y-10080000D01*
X13850000Y-10040000D02*
X13810000Y-10080000D01*
X13822000Y-11465000D02*
X13862000Y-11505000D01*
X13862000Y-11465000D02*
X13822000Y-11505000D01*
X13844000Y-9564000D02*
X13884000Y-9604000D01*
X13884000Y-9564000D02*
X13844000Y-9604000D01*
X13858000Y-7876000D02*
X13898000Y-7916000D01*
X13898000Y-7876000D02*
X13858000Y-7916000D01*
X13880000Y-9192000D02*
X13920000Y-9232000D01*
X13920000Y-9192000D02*
X13880000Y-9232000D01*
X13889000Y-11089000D02*
X13929000Y-11129000D01*
X13929000Y-11089000D02*
X13889000Y-11129000D01*
X13900000Y-12210000D02*
X13940000Y-12250000D01*
X13940000Y-12210000D02*
X13900000Y-12250000D01*
X13950000Y-10040000D02*
X13990000Y-10080000D01*
X13990000Y-10040000D02*
X13950000Y-10080000D01*
X13960000Y-9940000D02*
X14000000Y-9980000D01*
X14000000Y-9940000D02*
X13960000Y-9980000D01*
X13970000Y-8930000D02*
X14010000Y-8970000D01*
X14010000Y-8930000D02*
X13970000Y-8970000D01*
X13980000Y-10820000D02*
X14020000Y-10860000D01*
X14020000Y-10820000D02*
X13980000Y-10860000D01*
X14020000Y-12350000D02*
X14060000Y-12390000D01*
X14060000Y-12350000D02*
X14020000Y-12390000D01*
X14037000Y-9798000D02*
X14077000Y-9838000D01*
X14077000Y-9798000D02*
X14037000Y-9838000D01*
X14042000Y-11698000D02*
X14082000Y-11738000D01*
X14082000Y-11698000D02*
X14042000Y-11738000D01*
X14053000Y-7915000D02*
X14093000Y-7955000D01*
X14093000Y-7915000D02*
X14053000Y-7955000D01*
X14192000Y-6465000D02*
X14232000Y-6505000D01*
X14232000Y-6465000D02*
X14192000Y-6505000D01*
X14200000Y-8580000D02*
X14240000Y-8620000D01*
X14240000Y-8580000D02*
X14200000Y-8620000D01*
X14210000Y-6680000D02*
X14250000Y-6720000D01*
X14250000Y-6680000D02*
X14210000Y-6720000D01*
X14210000Y-10470000D02*
X14250000Y-10510000D01*
X14250000Y-10470000D02*
X14210000Y-10510000D01*
X14210000Y-12250000D02*
X14250000Y-12290000D01*
X14250000Y-12250000D02*
X14210000Y-12290000D01*
X14310000Y-8780000D02*
X14350000Y-8820000D01*
X14350000Y-8780000D02*
X14310000Y-8820000D01*
X14320000Y-6880000D02*
X14360000Y-6920000D01*
X14360000Y-6880000D02*
X14320000Y-6920000D01*
X14320000Y-10680000D02*
X14360000Y-10720000D01*
X14360000Y-10680000D02*
X14320000Y-10720000D01*
X14338000Y-8360000D02*
X14378000Y-8400000D01*
X14378000Y-8360000D02*
X14338000Y-8400000D01*
X14339000Y-10265000D02*
X14379000Y-10305000D01*
X14379000Y-10265000D02*
X14339000Y-10305000D01*
X14429000Y-13070000D02*
X14469000Y-13110000D01*
X14469000Y-13070000D02*
X14429000Y-13110000D01*
X14430000Y-12715000D02*
X14470000Y-12755000D01*
X14470000Y-12715000D02*
X14430000Y-12755000D01*
X14728000Y-13076000D02*
X14768000Y-13116000D01*
X14768000Y-13076000D02*
X14728000Y-13116000D01*
X14730000Y-12715000D02*
X14770000Y-12755000D01*
X14770000Y-12715000D02*
X14730000Y-12755000D01*
X14840000Y-6470000D02*
X14880000Y-6510000D01*
X14880000Y-6470000D02*
X14840000Y-6510000D01*
X14840000Y-8360000D02*
X14880000Y-8400000D01*
X14880000Y-8360000D02*
X14840000Y-8400000D01*
X14840000Y-10250000D02*
X14880000Y-10290000D01*
X14880000Y-10250000D02*
X14840000Y-10290000D01*
X14970000Y-6610000D02*
X15010000Y-6650000D01*
X15010000Y-6610000D02*
X14970000Y-6650000D01*
X14970000Y-8500000D02*
X15010000Y-8540000D01*
X15010000Y-8500000D02*
X14970000Y-8540000D01*
X14970000Y-12770000D02*
X15010000Y-12810000D01*
X15010000Y-12770000D02*
X14970000Y-12810000D01*
X14980000Y-10370000D02*
X15020000Y-10410000D01*
X15020000Y-10370000D02*
X14980000Y-10410000D01*
X14990000Y-8140000D02*
X15030000Y-8180000D01*
X15030000Y-8140000D02*
X14990000Y-8180000D01*
X15030000Y-10100000D02*
X15070000Y-10140000D01*
X15070000Y-10100000D02*
X15030000Y-10140000D01*
X15046000Y-13141000D02*
X15086000Y-13181000D01*
X15086000Y-13141000D02*
X15046000Y-13181000D01*
X15130000Y-6660000D02*
X15170000Y-6700000D01*
X15170000Y-6660000D02*
X15130000Y-6700000D01*
X15130000Y-12770000D02*
X15170000Y-12810000D01*
X15170000Y-12770000D02*
X15130000Y-12810000D01*
X15250000Y-6930000D02*
X15290000Y-6970000D01*
X15290000Y-6930000D02*
X15250000Y-6970000D01*
X15260000Y-8880000D02*
X15300000Y-8920000D01*
X15300000Y-8880000D02*
X15260000Y-8920000D01*
X15260000Y-10770000D02*
X15300000Y-10810000D01*
X15300000Y-10770000D02*
X15260000Y-10810000D01*
X15316000Y-7731000D02*
X15356000Y-7771000D01*
X15356000Y-7731000D02*
X15316000Y-7771000D01*
X15334000Y-9633000D02*
X15374000Y-9673000D01*
X15374000Y-9633000D02*
X15334000Y-9673000D01*
X15340000Y-11530000D02*
X15380000Y-11570000D01*
X15380000Y-11530000D02*
X15340000Y-11570000D01*
X15350000Y-12520000D02*
X15390000Y-12560000D01*
X15390000Y-12520000D02*
X15350000Y-12560000D01*
X15380000Y-6980000D02*
X15420000Y-7020000D01*
X15420000Y-6980000D02*
X15380000Y-7020000D01*
X15380000Y-8940000D02*
X15420000Y-8980000D01*
X15420000Y-8940000D02*
X15380000Y-8980000D01*
X15380000Y-10840000D02*
X15420000Y-10880000D01*
X15420000Y-10840000D02*
X15380000Y-10880000D01*
X15460000Y-10050000D02*
X15500000Y-10090000D01*
X15500000Y-10050000D02*
X15460000Y-10090000D01*
X15460000Y-10150000D02*
X15500000Y-10190000D01*
X15500000Y-10150000D02*
X15460000Y-10190000D01*
X15460000Y-10240000D02*
X15500000Y-10280000D01*
X15500000Y-10240000D02*
X15460000Y-10280000D01*
X15480000Y-12230000D02*
X15520000Y-12270000D01*
X15520000Y-12230000D02*
X15480000Y-12270000D01*
X15480000Y-12520000D02*
X15520000Y-12560000D01*
X15520000Y-12520000D02*
X15480000Y-12560000D01*
X15487000Y-9225000D02*
X15527000Y-9265000D01*
X15527000Y-9225000D02*
X15487000Y-9265000D01*
X15488000Y-11128000D02*
X15528000Y-11168000D01*
X15528000Y-11128000D02*
X15488000Y-11168000D01*
X15490000Y-7342000D02*
X15530000Y-7382000D01*
X15530000Y-7342000D02*
X15490000Y-7382000D01*
X15549000Y-9988000D02*
X15589000Y-10028000D01*
X15589000Y-9988000D02*
X15549000Y-10028000D01*
X15600000Y-10300000D02*
X15640000Y-10340000D01*
X15640000Y-10300000D02*
X15600000Y-10340000D01*
X15620000Y-10200000D02*
X15660000Y-10240000D01*
X15660000Y-10200000D02*
X15620000Y-10240000D01*
X15649000Y-10116000D02*
X15689000Y-10156000D01*
X15689000Y-10116000D02*
X15649000Y-10156000D01*
X15670000Y-11143000D02*
X15710000Y-11183000D01*
X15710000Y-11143000D02*
X15670000Y-11183000D01*
X15671000Y-7338000D02*
X15711000Y-7378000D01*
X15711000Y-7338000D02*
X15671000Y-7378000D01*
X15675000Y-9238000D02*
X15715000Y-9278000D01*
X15715000Y-9238000D02*
X15675000Y-9278000D01*
X15680000Y-6980000D02*
X15720000Y-7020000D01*
X15720000Y-6980000D02*
X15680000Y-7020000D01*
X15680000Y-8940000D02*
X15720000Y-8980000D01*
X15720000Y-8940000D02*
X15680000Y-8980000D01*
X15680000Y-10840000D02*
X15720000Y-10880000D01*
X15720000Y-10840000D02*
X15680000Y-10880000D01*
X15710000Y-12070000D02*
X15750000Y-12110000D01*
X15750000Y-12070000D02*
X15710000Y-12110000D01*
X15805000Y-9423000D02*
X15845000Y-9463000D01*
X15845000Y-9423000D02*
X15805000Y-9463000D01*
X15824000Y-10833000D02*
X15864000Y-10873000D01*
X15864000Y-10833000D02*
X15824000Y-10873000D01*
X15910000Y-12060000D02*
X15950000Y-12100000D01*
X15950000Y-12060000D02*
X15910000Y-12100000D01*
X15941000Y-10042000D02*
X15981000Y-10082000D01*
X15981000Y-10042000D02*
X15941000Y-10082000D01*
X16000000Y-6820000D02*
X16040000Y-6860000D01*
X16040000Y-6820000D02*
X16000000Y-6860000D01*
X16032000Y-14077000D02*
X16072000Y-14117000D01*
X16072000Y-14077000D02*
X16032000Y-14117000D01*
X16080000Y-8370000D02*
X16120000Y-8410000D01*
X16120000Y-8370000D02*
X16080000Y-8410000D01*
X16080000Y-8610000D02*
X16120000Y-8650000D01*
X16120000Y-8610000D02*
X16080000Y-8650000D01*
X16090000Y-12130000D02*
X16130000Y-12170000D01*
X16130000Y-12130000D02*
X16090000Y-12170000D01*
X16100000Y-8810000D02*
X16140000Y-8850000D01*
X16140000Y-8810000D02*
X16100000Y-8850000D01*
X16110000Y-6930000D02*
X16150000Y-6970000D01*
X16150000Y-6930000D02*
X16110000Y-6970000D01*
X16110000Y-10710000D02*
X16150000Y-10750000D01*
X16150000Y-10710000D02*
X16110000Y-10750000D01*
X16190000Y-12470000D02*
X16230000Y-12510000D01*
X16230000Y-12470000D02*
X16190000Y-12510000D01*
X16190000Y-12610000D02*
X16230000Y-12650000D01*
X16230000Y-12610000D02*
X16190000Y-12650000D01*
X16210000Y-7120000D02*
X16250000Y-7160000D01*
X16250000Y-7120000D02*
X16210000Y-7160000D01*
X16210000Y-9010000D02*
X16250000Y-9050000D01*
X16250000Y-9010000D02*
X16210000Y-9050000D01*
X16240000Y-10910000D02*
X16280000Y-10950000D01*
X16280000Y-10910000D02*
X16240000Y-10950000D01*
X16296999Y-12710000D02*
X16336999Y-12750000D01*
X16336999Y-12710000D02*
X16296999Y-12750000D01*
X16310000Y-10330000D02*
X16350000Y-10370000D01*
X16350000Y-10330000D02*
X16310000Y-10370000D01*
X16355000Y-13959000D02*
X16395000Y-13999000D01*
X16395000Y-13959000D02*
X16355000Y-13999000D01*
X16417500Y-8325000D02*
X16457500Y-8365000D01*
X16457500Y-8325000D02*
X16417500Y-8365000D01*
X16440208Y-8221402D02*
X16480208Y-8261402D01*
X16480208Y-8221402D02*
X16440208Y-8261402D01*
X16455000Y-12140000D02*
X16495000Y-12180000D01*
X16495000Y-12140000D02*
X16455000Y-12180000D01*
X16475000Y-9910000D02*
X16515000Y-9950000D01*
X16515000Y-9910000D02*
X16475000Y-9950000D01*
X16480000Y-8425000D02*
X16520000Y-8465000D01*
X16520000Y-8425000D02*
X16480000Y-8465000D01*
X16486000Y-11885000D02*
X16526000Y-11925000D01*
X16526000Y-11885000D02*
X16486000Y-11925000D01*
X16490000Y-12032000D02*
X16530000Y-12072000D01*
X16530000Y-12032000D02*
X16490000Y-12072000D01*
X16495000Y-10085000D02*
X16535000Y-10125000D01*
X16535000Y-10085000D02*
X16495000Y-10125000D01*
X16517500Y-12267500D02*
X16557500Y-12307500D01*
X16557500Y-12267500D02*
X16517500Y-12307500D01*
X16540000Y-12147500D02*
X16580000Y-12187500D01*
X16580000Y-12147500D02*
X16540000Y-12187500D01*
X16542501Y-8329062D02*
X16582501Y-8369062D01*
X16582501Y-8329062D02*
X16542501Y-8369062D01*
X16549000Y-8094499D02*
X16589000Y-8134499D01*
X16589000Y-8094499D02*
X16549000Y-8134499D01*
X16550282Y-12644001D02*
X16590282Y-12684001D01*
X16590282Y-12644001D02*
X16550282Y-12684001D01*
X16740000Y-10490000D02*
X16780000Y-10530000D01*
X16780000Y-10490000D02*
X16740000Y-10530000D01*
X16820000Y-8620000D02*
X16860000Y-8660000D01*
X16860000Y-8620000D02*
X16820000Y-8660000D01*
X16860000Y-6730000D02*
X16900000Y-6770000D01*
X16900000Y-6730000D02*
X16860000Y-6770000D01*
X16860000Y-6850000D02*
X16900000Y-6890000D01*
X16900000Y-6850000D02*
X16860000Y-6890000D01*
X16870000Y-8740000D02*
X16910000Y-8780000D01*
X16910000Y-8740000D02*
X16870000Y-8780000D01*
X16875000Y-8397000D02*
X16915000Y-8437000D01*
X16915000Y-8397000D02*
X16875000Y-8437000D01*
X16880000Y-10640000D02*
X16920000Y-10680000D01*
X16920000Y-10640000D02*
X16880000Y-10680000D01*
X16900000Y-12110000D02*
X16940000Y-12150000D01*
X16940000Y-12110000D02*
X16900000Y-12150000D01*
X16970000Y-8400000D02*
X17010000Y-8440000D01*
X17010000Y-8400000D02*
X16970000Y-8440000D01*
X16970000Y-9155000D02*
X17010000Y-9195000D01*
X17010000Y-9155000D02*
X16970000Y-9195000D01*
X16990000Y-13580000D02*
X17030000Y-13620000D01*
X17030000Y-13580000D02*
X16990000Y-13620000D01*
X17020000Y-6850000D02*
X17060000Y-6890000D01*
X17060000Y-6850000D02*
X17020000Y-6890000D01*
X17030000Y-8770000D02*
X17070000Y-8810000D01*
X17070000Y-8770000D02*
X17030000Y-8810000D01*
X17040000Y-10640000D02*
X17080000Y-10680000D01*
X17080000Y-10640000D02*
X17040000Y-10680000D01*
X17070000Y-7190000D02*
X17110000Y-7230000D01*
X17110000Y-7190000D02*
X17070000Y-7230000D01*
X17080000Y-11000000D02*
X17120000Y-11040000D01*
X17120000Y-11000000D02*
X17080000Y-11040000D01*
X17135000Y-11335000D02*
X17175000Y-11375000D01*
X17175000Y-11335000D02*
X17135000Y-11375000D01*
X17140000Y-8975000D02*
X17180000Y-9015000D01*
X17180000Y-8975000D02*
X17140000Y-9015000D01*
X17140000Y-9260000D02*
X17180000Y-9300000D01*
X17180000Y-9260000D02*
X17140000Y-9300000D01*
X17142000Y-8396000D02*
X17182000Y-8436000D01*
X17182000Y-8396000D02*
X17142000Y-8436000D01*
X17220000Y-12190000D02*
X17260000Y-12230000D01*
X17260000Y-12190000D02*
X17220000Y-12230000D01*
X17220000Y-12480000D02*
X17260000Y-12520000D01*
X17260000Y-12480000D02*
X17220000Y-12520000D01*
X17220000Y-13700000D02*
X17260000Y-13740000D01*
X17260000Y-13700000D02*
X17220000Y-13740000D01*
X17221000Y-11982000D02*
X17261000Y-12022000D01*
X17261000Y-11982000D02*
X17221000Y-12022000D01*
X17300000Y-7230000D02*
X17340000Y-7270000D01*
X17340000Y-7230000D02*
X17300000Y-7270000D01*
X17300000Y-7875000D02*
X17340000Y-7915000D01*
X17340000Y-7875000D02*
X17300000Y-7915000D01*
X17300000Y-8045000D02*
X17340000Y-8085000D01*
X17340000Y-8045000D02*
X17300000Y-8085000D01*
X17300000Y-9160000D02*
X17340000Y-9200000D01*
X17340000Y-9160000D02*
X17300000Y-9200000D01*
X17300000Y-10000000D02*
X17340000Y-10040000D01*
X17340000Y-10000000D02*
X17300000Y-10040000D01*
X17310000Y-11090000D02*
X17350000Y-11130000D01*
X17350000Y-11090000D02*
X17310000Y-11130000D01*
X17320000Y-12010000D02*
X17360000Y-12050000D01*
X17360000Y-12010000D02*
X17320000Y-12050000D01*
X17330000Y-10950000D02*
X17370000Y-10990000D01*
X17370000Y-10950000D02*
X17330000Y-10990000D01*
X17380000Y-7310000D02*
X17420000Y-7350000D01*
X17420000Y-7310000D02*
X17380000Y-7350000D01*
X17380000Y-7500000D02*
X17420000Y-7540000D01*
X17420000Y-7500000D02*
X17380000Y-7540000D01*
X17380000Y-7675000D02*
X17420000Y-7715000D01*
X17420000Y-7675000D02*
X17380000Y-7715000D01*
X17380000Y-9040000D02*
X17420000Y-9080000D01*
X17420000Y-9040000D02*
X17380000Y-9080000D01*
X17390000Y-7830000D02*
X17430000Y-7870000D01*
X17430000Y-7830000D02*
X17390000Y-7870000D01*
X17390000Y-8095000D02*
X17430000Y-8135000D01*
X17430000Y-8095000D02*
X17390000Y-8135000D01*
X17405000Y-13020000D02*
X17445000Y-13060000D01*
X17445000Y-13020000D02*
X17405000Y-13060000D01*
X17410000Y-11170000D02*
X17450000Y-11210000D01*
X17450000Y-11170000D02*
X17410000Y-11210000D01*
X17410000Y-12660000D02*
X17450000Y-12700000D01*
X17450000Y-12660000D02*
X17410000Y-12700000D01*
X17460000Y-7680000D02*
X17500000Y-7720000D01*
X17500000Y-7680000D02*
X17460000Y-7720000D01*
X17464000Y-12138000D02*
X17504000Y-12178000D01*
X17504000Y-12138000D02*
X17464000Y-12178000D01*
X17476000Y-11810000D02*
X17516000Y-11850000D01*
X17516000Y-11810000D02*
X17476000Y-11850000D01*
X17550000Y-10516000D02*
X17590000Y-10556000D01*
X17590000Y-10516000D02*
X17550000Y-10556000D01*
X17575000Y-11805000D02*
X17615000Y-11845000D01*
X17615000Y-11805000D02*
X17575000Y-11845000D01*
X17575000Y-12830000D02*
X17615000Y-12870000D01*
X17615000Y-12830000D02*
X17575000Y-12870000D01*
X17647000Y-14306000D02*
X17687000Y-14346000D01*
X17687000Y-14306000D02*
X17647000Y-14346000D01*
X17660000Y-13010000D02*
X17700000Y-13050000D01*
X17700000Y-13010000D02*
X17660000Y-13050000D01*
X17920000Y-11160000D02*
X17960000Y-11200000D01*
X17960000Y-11160000D02*
X17920000Y-11200000D01*
X17930000Y-7284200D02*
X17970000Y-7324200D01*
X17970000Y-7284200D02*
X17930000Y-7324200D01*
X17966000Y-7545000D02*
X18006000Y-7585000D01*
X18006000Y-7545000D02*
X17966000Y-7585000D01*
X18032000Y-14520000D02*
X18072000Y-14560000D01*
X18072000Y-14520000D02*
X18032000Y-14560000D01*
X18170000Y-10650000D02*
X18210000Y-10690000D01*
X18210000Y-10650000D02*
X18170000Y-10690000D01*
X18196000Y-9908000D02*
X18236000Y-9948000D01*
X18236000Y-9908000D02*
X18196000Y-9948000D01*
X18200000Y-11130000D02*
X18240000Y-11170000D01*
X18240000Y-11130000D02*
X18200000Y-11170000D01*
X18285000Y-14420000D02*
X18325000Y-14460000D01*
X18325000Y-14420000D02*
X18285000Y-14460000D01*
X18400000Y-8190000D02*
X18440000Y-8230000D01*
X18440000Y-8190000D02*
X18400000Y-8230000D01*
X18450000Y-9970000D02*
X18490000Y-10010000D01*
X18490000Y-9970000D02*
X18450000Y-10010000D01*
X18454000Y-7620000D02*
X18494000Y-7660000D01*
X18494000Y-7620000D02*
X18454000Y-7660000D01*
X18470000Y-8550000D02*
X18510000Y-8590000D01*
X18510000Y-8550000D02*
X18470000Y-8590000D01*
X18480000Y-8310000D02*
X18520000Y-8350000D01*
X18520000Y-8310000D02*
X18480000Y-8350000D01*
X18490000Y-10050000D02*
X18530000Y-10090000D01*
X18530000Y-10050000D02*
X18490000Y-10090000D01*
X18550000Y-8170000D02*
X18590000Y-8210000D01*
X18590000Y-8170000D02*
X18550000Y-8210000D01*
X18550000Y-9890000D02*
X18590000Y-9930000D01*
X18590000Y-9890000D02*
X18550000Y-9930000D01*
X18558188Y-7145346D02*
X18598188Y-7185346D01*
X18598188Y-7145346D02*
X18558188Y-7185346D01*
X18620000Y-7296000D02*
X18660000Y-7336000D01*
X18660000Y-7296000D02*
X18620000Y-7336000D01*
X18698000Y-7399000D02*
X18738000Y-7439000D01*
X18738000Y-7399000D02*
X18698000Y-7439000D01*
X18720000Y-8680000D02*
X18760000Y-8720000D01*
X18760000Y-8680000D02*
X18720000Y-8720000D01*
X18810000Y-9610000D02*
X18850000Y-9650000D01*
X18850000Y-9610000D02*
X18810000Y-9650000D01*
X18830000Y-8850000D02*
X18870000Y-8890000D01*
X18870000Y-8850000D02*
X18830000Y-8890000D01*
X18830000Y-9120000D02*
X18870000Y-9160000D01*
X18870000Y-9120000D02*
X18830000Y-9160000D01*
X18850000Y-9360000D02*
X18890000Y-9400000D01*
X18890000Y-9360000D02*
X18850000Y-9400000D01*
X18864000Y-7547000D02*
X18904000Y-7587000D01*
X18904000Y-7547000D02*
X18864000Y-7587000D01*
X18870000Y-8350000D02*
X18910000Y-8390000D01*
X18910000Y-8350000D02*
X18870000Y-8390000D01*
X18900000Y-9270000D02*
X18940000Y-9310000D01*
X18940000Y-9270000D02*
X18900000Y-9310000D01*
X18900000Y-9540000D02*
X18940000Y-9580000D01*
X18940000Y-9540000D02*
X18900000Y-9580000D01*
X18900000Y-9780000D02*
X18940000Y-9820000D01*
X18940000Y-9780000D02*
X18900000Y-9820000D01*
X18910000Y-8510000D02*
X18950000Y-8550000D01*
X18950000Y-8510000D02*
X18910000Y-8550000D01*
X18910000Y-8770000D02*
X18950000Y-8810000D01*
X18950000Y-8770000D02*
X18910000Y-8810000D01*
X18910000Y-9030000D02*
X18950000Y-9070000D01*
X18950000Y-9030000D02*
X18910000Y-9070000D01*
X18980000Y-7916000D02*
X19020000Y-7956000D01*
X19020000Y-7916000D02*
X18980000Y-7956000D01*
X19010000Y-7792200D02*
X19050000Y-7832200D01*
X19050000Y-7792200D02*
X19010000Y-7832200D01*
X19020000Y-7070000D02*
X19060000Y-7110000D01*
X19060000Y-7070000D02*
X19020000Y-7110000D01*
X19050000Y-9880000D02*
X19090000Y-9920000D01*
X19090000Y-9880000D02*
X19050000Y-9920000D01*
X19050000Y-10020000D02*
X19090000Y-10060000D01*
X19090000Y-10020000D02*
X19050000Y-10060000D01*
X18486640Y-10800000D02*
G75*
G03X18486640Y-10800000I-40640J0D01*
G01*
X18994640Y-10800000D02*
G75*
G03X18994640Y-10800000I-40640J0D01*
G01*
X18140640Y-10800000D02*
G75*
G03X18140640Y-10800000I-40640J0D01*
G01*
X17726640Y-7304200D02*
G75*
G03X17726640Y-7304200I-40640J0D01*
G01*
X17726640Y-7558200D02*
G75*
G03X17726640Y-7558200I-40640J0D01*
G01*
X17726640Y-7812200D02*
G75*
G03X17726640Y-7812200I-40640J0D01*
G01*
X17726640Y-8066200D02*
G75*
G03X17726640Y-8066200I-40640J0D01*
G01*
X17726640Y-8320200D02*
G75*
G03X17726640Y-8320200I-40640J0D01*
G01*
X17726640Y-8574200D02*
G75*
G03X17726640Y-8574200I-40640J0D01*
G01*
X17726640Y-8828200D02*
G75*
G03X17726640Y-8828200I-40640J0D01*
G01*
X17726640Y-9082200D02*
G75*
G03X17726640Y-9082200I-40640J0D01*
G01*
X17726640Y-9336200D02*
G75*
G03X17726640Y-9336200I-40640J0D01*
G01*
X17726640Y-9590200D02*
G75*
G03X17726640Y-9590200I-40640J0D01*
G01*
X17726640Y-9844200D02*
G75*
G03X17726640Y-9844200I-40640J0D01*
G01*
X17726640Y-10098200D02*
G75*
G03X17726640Y-10098200I-40640J0D01*
G01*
X17859280Y-7177200D02*
G75*
G03X17859280Y-7177200I-40640J0D01*
G01*
X17859280Y-7431200D02*
G75*
G03X17859280Y-7431200I-40640J0D01*
G01*
X17859280Y-7685200D02*
G75*
G03X17859280Y-7685200I-40640J0D01*
G01*
X17859280Y-7939200D02*
G75*
G03X17859280Y-7939200I-40640J0D01*
G01*
X17859280Y-8193200D02*
G75*
G03X17859280Y-8193200I-40640J0D01*
G01*
X17859280Y-8447200D02*
G75*
G03X17859280Y-8447200I-40640J0D01*
G01*
X17859280Y-8701200D02*
G75*
G03X17859280Y-8701200I-40640J0D01*
G01*
X17859280Y-8955200D02*
G75*
G03X17859280Y-8955200I-40640J0D01*
G01*
X17859280Y-9209200D02*
G75*
G03X17859280Y-9209200I-40640J0D01*
G01*
X17859280Y-9463200D02*
G75*
G03X17859280Y-9463200I-40640J0D01*
G01*
X17859280Y-9717200D02*
G75*
G03X17859280Y-9717200I-40640J0D01*
G01*
X17859280Y-9971200D02*
G75*
G03X17859280Y-9971200I-40640J0D01*
G01*
X19250640Y-7304200D02*
G75*
G03X19250640Y-7304200I-40640J0D01*
G01*
X19250640Y-7558200D02*
G75*
G03X19250640Y-7558200I-40640J0D01*
G01*
X19250640Y-7812200D02*
G75*
G03X19250640Y-7812200I-40640J0D01*
G01*
X19250640Y-8066200D02*
G75*
G03X19250640Y-8066200I-40640J0D01*
G01*
X19250640Y-8320200D02*
G75*
G03X19250640Y-8320200I-40640J0D01*
G01*
X19250640Y-8574200D02*
G75*
G03X19250640Y-8574200I-40640J0D01*
G01*
X19250640Y-8828200D02*
G75*
G03X19250640Y-8828200I-40640J0D01*
G01*
X19250640Y-9082200D02*
G75*
G03X19250640Y-9082200I-40640J0D01*
G01*
X19250640Y-9336200D02*
G75*
G03X19250640Y-9336200I-40640J0D01*
G01*
X19250640Y-9590200D02*
G75*
G03X19250640Y-9590200I-40640J0D01*
G01*
X19250640Y-9844200D02*
G75*
G03X19250640Y-9844200I-40640J0D01*
G01*
X19250640Y-10098200D02*
G75*
G03X19250640Y-10098200I-40640J0D01*
G01*
X19381280Y-7177200D02*
G75*
G03X19381280Y-7177200I-40640J0D01*
G01*
X19381280Y-7431200D02*
G75*
G03X19381280Y-7431200I-40640J0D01*
G01*
X19381280Y-7685200D02*
G75*
G03X19381280Y-7685200I-40640J0D01*
G01*
X19381280Y-7939200D02*
G75*
G03X19381280Y-7939200I-40640J0D01*
G01*
X19381280Y-8193200D02*
G75*
G03X19381280Y-8193200I-40640J0D01*
G01*
X19381280Y-8447200D02*
G75*
G03X19381280Y-8447200I-40640J0D01*
G01*
X19381280Y-8701200D02*
G75*
G03X19381280Y-8701200I-40640J0D01*
G01*
X19381280Y-8955200D02*
G75*
G03X19381280Y-8955200I-40640J0D01*
G01*
X19381280Y-9209200D02*
G75*
G03X19381280Y-9209200I-40640J0D01*
G01*
X19381280Y-9463200D02*
G75*
G03X19381280Y-9463200I-40640J0D01*
G01*
X19381280Y-9717200D02*
G75*
G03X19381280Y-9717200I-40640J0D01*
G01*
X19381280Y-9971200D02*
G75*
G03X19381280Y-9971200I-40640J0D01*
G01*
X18140640Y-11030000D02*
G75*
G03X18140640Y-11030000I-40640J0D01*
G01*
X18486640Y-11030000D02*
G75*
G03X18486640Y-11030000I-40640J0D01*
G01*
X18994640Y-11030000D02*
G75*
G03X18994640Y-11030000I-40640J0D01*
G01*
X18170640Y-10530000D02*
G75*
G03X18170640Y-10530000I-40640J0D01*
G01*
X18424640Y-10530000D02*
G75*
G03X18424640Y-10530000I-40640J0D01*
G01*
X18678640Y-10530000D02*
G75*
G03X18678640Y-10530000I-40640J0D01*
G01*
X18932640Y-10530000D02*
G75*
G03X18932640Y-10530000I-40640J0D01*
G01*
X18290000Y-11410000D02*
X18290000Y-11510000D01*
X18240000Y-11460000D02*
X18340000Y-11460000D01*
X18315000Y-11420000D02*
X18265000Y-11420000D01*
X18315000Y-11500000D02*
X18265000Y-11500000D01*
X18265000Y-11420000D02*
G75*
G03X18265000Y-11500000I0J-40000D01*
G01*
X18315000Y-11500000D02*
G75*
G03X18315000Y-11420000I0J40000D01*
G01*
X18290000Y-11655000D02*
X18290000Y-11755000D01*
X18240000Y-11705000D02*
X18340000Y-11705000D01*
X18315000Y-11665000D02*
X18265000Y-11665000D01*
X18315000Y-11745000D02*
X18265000Y-11745000D01*
X18265000Y-11665000D02*
G75*
G03X18265000Y-11745000I0J-40000D01*
G01*
X18315000Y-11745000D02*
G75*
G03X18315000Y-11665000I0J40000D01*
G01*
X18440000Y-11235000D02*
X18440000Y-11335000D01*
X18390000Y-11285000D02*
X18490000Y-11285000D01*
X18465000Y-11245000D02*
X18415000Y-11245000D01*
X18465000Y-11325000D02*
X18415000Y-11325000D01*
X18415000Y-11245000D02*
G75*
G03X18415000Y-11325000I0J-40000D01*
G01*
X18465000Y-11325000D02*
G75*
G03X18465000Y-11245000I0J40000D01*
G01*
X18440000Y-11830000D02*
X18440000Y-11930000D01*
X18390000Y-11880000D02*
X18490000Y-11880000D01*
X18465000Y-11840000D02*
X18415000Y-11840000D01*
X18465000Y-11920000D02*
X18415000Y-11920000D01*
X18415000Y-11840000D02*
G75*
G03X18415000Y-11920000I0J-40000D01*
G01*
X18465000Y-11920000D02*
G75*
G03X18465000Y-11840000I0J40000D01*
G01*
X18840000Y-11235000D02*
X18840000Y-11335000D01*
X18790000Y-11285000D02*
X18890000Y-11285000D01*
X18865000Y-11245000D02*
X18815000Y-11245000D01*
X18865000Y-11325000D02*
X18815000Y-11325000D01*
X18815000Y-11245000D02*
G75*
G03X18815000Y-11325000I0J-40000D01*
G01*
X18865000Y-11325000D02*
G75*
G03X18865000Y-11245000I0J40000D01*
G01*
X18840000Y-11830000D02*
X18840000Y-11930000D01*
X18790000Y-11880000D02*
X18890000Y-11880000D01*
X18865000Y-11840000D02*
X18815000Y-11840000D01*
X18865000Y-11920000D02*
X18815000Y-11920000D01*
X18815000Y-11840000D02*
G75*
G03X18815000Y-11920000I0J-40000D01*
G01*
X18865000Y-11920000D02*
G75*
G03X18865000Y-11840000I0J40000D01*
G01*
X19140000Y-11235000D02*
X19140000Y-11335000D01*
X19090000Y-11285000D02*
X19190000Y-11285000D01*
X19165000Y-11245000D02*
X19115000Y-11245000D01*
X19165000Y-11325000D02*
X19115000Y-11325000D01*
X19115000Y-11245000D02*
G75*
G03X19115000Y-11325000I0J-40000D01*
G01*
X19165000Y-11325000D02*
G75*
G03X19165000Y-11245000I0J40000D01*
G01*
X19140000Y-11830000D02*
X19140000Y-11930000D01*
X19090000Y-11880000D02*
X19190000Y-11880000D01*
X19165000Y-11840000D02*
X19115000Y-11840000D01*
X19165000Y-11920000D02*
X19115000Y-11920000D01*
X19115000Y-11840000D02*
G75*
G03X19115000Y-11920000I0J-40000D01*
G01*
X19165000Y-11920000D02*
G75*
G03X19165000Y-11840000I0J40000D01*
G01*
X19335962Y-10420962D02*
X19335962Y-10329038D01*
X19244038Y-10329038D01*
X19244038Y-10420962D01*
X19335962Y-10420962D01*
X19335962Y-11070962D02*
X19335962Y-10979038D01*
X19244038Y-10979038D01*
X19244038Y-11070962D01*
X19335962Y-11070962D01*
X17775000Y-11685000D02*
X17885000Y-11575000D01*
X17775000Y-11465000D01*
X17665000Y-11575000D01*
X17775000Y-11685000D01*
X19225000Y-12535000D02*
X19335000Y-12425000D01*
X19225000Y-12315000D01*
X19115000Y-12425000D01*
X19225000Y-12535000D01*
X7745000Y-10345000D02*
X8155000Y-10755000D01*
X8155000Y-10345000D02*
X7745000Y-10755000D01*
X8155000Y-10550000D02*
G75*
G03X8155000Y-10550000I-205000J0D01*
G01*
X9645000Y-8470000D02*
X10055000Y-8880000D01*
X10055000Y-8470000D02*
X9645000Y-8880000D01*
X10055000Y-8675000D02*
G75*
G03X10055000Y-8675000I-205000J0D01*
G01*
X7745000Y-8470000D02*
X8155000Y-8880000D01*
X8155000Y-8470000D02*
X7745000Y-8880000D01*
X8155000Y-8675000D02*
G75*
G03X8155000Y-8675000I-205000J0D01*
G01*
X15345000Y-8095000D02*
X15755000Y-8505000D01*
X15755000Y-8095000D02*
X15345000Y-8505000D01*
X15755000Y-8300000D02*
G75*
G03X15755000Y-8300000I-205000J0D01*
G01*
X9645000Y-10370000D02*
X10055000Y-10780000D01*
X10055000Y-10370000D02*
X9645000Y-10780000D01*
X10055000Y-10575000D02*
G75*
G03X10055000Y-10575000I-205000J0D01*
G01*
X16720000Y-12845000D02*
X17130000Y-13255000D01*
X17130000Y-12845000D02*
X16720000Y-13255000D01*
X17130000Y-13050000D02*
G75*
G03X17130000Y-13050000I-205000J0D01*
G01*
X12070000Y-12070000D02*
X12480000Y-12480000D01*
X12480000Y-12070000D02*
X12070000Y-12480000D01*
X12480000Y-12275000D02*
G75*
G03X12480000Y-12275000I-205000J0D01*
G01*
D12*
X6378928Y-15712987D02*
X6378928Y-15412987D01*
X6450357Y-15412987D01*
X6493214Y-15427272D01*
X6521786Y-15455844D01*
X6536071Y-15484415D01*
X6550357Y-15541558D01*
X6550357Y-15584415D01*
X6536071Y-15641558D01*
X6521786Y-15670129D01*
X6493214Y-15698701D01*
X6450357Y-15712987D01*
X6378928Y-15712987D01*
X6678928Y-15712987D02*
X6678928Y-15512987D01*
X6678928Y-15570129D02*
X6693214Y-15541558D01*
X6707500Y-15527272D01*
X6736071Y-15512987D01*
X6764643Y-15512987D01*
X6864643Y-15712987D02*
X6864643Y-15512987D01*
X6864643Y-15412987D02*
X6850357Y-15427272D01*
X6864643Y-15441558D01*
X6878928Y-15427272D01*
X6864643Y-15412987D01*
X6864643Y-15441558D01*
X7050357Y-15712987D02*
X7021786Y-15698701D01*
X7007500Y-15670129D01*
X7007500Y-15412987D01*
X7207500Y-15712987D02*
X7178928Y-15698701D01*
X7164643Y-15670129D01*
X7164643Y-15412987D01*
X7550357Y-15712987D02*
X7550357Y-15412987D01*
X7650357Y-15627272D01*
X7750357Y-15412987D01*
X7750357Y-15712987D01*
X8021786Y-15712987D02*
X8021786Y-15555844D01*
X8007500Y-15527272D01*
X7978928Y-15512987D01*
X7921786Y-15512987D01*
X7893214Y-15527272D01*
X8021786Y-15698701D02*
X7993214Y-15712987D01*
X7921786Y-15712987D01*
X7893214Y-15698701D01*
X7878928Y-15670129D01*
X7878928Y-15641558D01*
X7893214Y-15612987D01*
X7921786Y-15598701D01*
X7993214Y-15598701D01*
X8021786Y-15584415D01*
X8164643Y-15512987D02*
X8164643Y-15812987D01*
X8164643Y-15527272D02*
X8193214Y-15512987D01*
X8250357Y-15512987D01*
X8278928Y-15527272D01*
X8293214Y-15541558D01*
X8307500Y-15570129D01*
X8307500Y-15655844D01*
X8293214Y-15684415D01*
X8278928Y-15698701D01*
X8250357Y-15712987D01*
X8193214Y-15712987D01*
X8164643Y-15698701D01*
X8436071Y-15684415D02*
X8450357Y-15698701D01*
X8436071Y-15712987D01*
X8421786Y-15698701D01*
X8436071Y-15684415D01*
X8436071Y-15712987D01*
X8436071Y-15527272D02*
X8450357Y-15541558D01*
X8436071Y-15555844D01*
X8421786Y-15541558D01*
X8436071Y-15527272D01*
X8436071Y-15555844D01*
X6052500Y-16187272D02*
X6092500Y-16227272D01*
X6092500Y-16187272D02*
X6052500Y-16227272D01*
X6436071Y-16042987D02*
X6464643Y-16042987D01*
X6493214Y-16057272D01*
X6507500Y-16071558D01*
X6521786Y-16100129D01*
X6536071Y-16157272D01*
X6536071Y-16228701D01*
X6521786Y-16285844D01*
X6507500Y-16314415D01*
X6493214Y-16328701D01*
X6464643Y-16342987D01*
X6436071Y-16342987D01*
X6407500Y-16328701D01*
X6393214Y-16314415D01*
X6378928Y-16285844D01*
X6364643Y-16228701D01*
X6364643Y-16157272D01*
X6378928Y-16100129D01*
X6393214Y-16071558D01*
X6407500Y-16057272D01*
X6436071Y-16042987D01*
X6664643Y-16314415D02*
X6678928Y-16328701D01*
X6664643Y-16342987D01*
X6650357Y-16328701D01*
X6664643Y-16314415D01*
X6664643Y-16342987D01*
X6936071Y-16142987D02*
X6936071Y-16342987D01*
X6864643Y-16028701D02*
X6793214Y-16242987D01*
X6978928Y-16242987D01*
X7150357Y-16042987D02*
X7178928Y-16042987D01*
X7207500Y-16057272D01*
X7221786Y-16071558D01*
X7236071Y-16100129D01*
X7250357Y-16157272D01*
X7250357Y-16228701D01*
X7236071Y-16285844D01*
X7221786Y-16314415D01*
X7207500Y-16328701D01*
X7178928Y-16342987D01*
X7150357Y-16342987D01*
X7121786Y-16328701D01*
X7107500Y-16314415D01*
X7093214Y-16285844D01*
X7078928Y-16228701D01*
X7078928Y-16157272D01*
X7093214Y-16100129D01*
X7107500Y-16071558D01*
X7121786Y-16057272D01*
X7150357Y-16042987D01*
X7378928Y-16342987D02*
X7378928Y-16142987D01*
X7378928Y-16171558D02*
X7393214Y-16157272D01*
X7421786Y-16142987D01*
X7464643Y-16142987D01*
X7493214Y-16157272D01*
X7507500Y-16185844D01*
X7507500Y-16342987D01*
X7507500Y-16185844D02*
X7521786Y-16157272D01*
X7550357Y-16142987D01*
X7593214Y-16142987D01*
X7621786Y-16157272D01*
X7636071Y-16185844D01*
X7636071Y-16342987D01*
X7778928Y-16342987D02*
X7778928Y-16142987D01*
X7778928Y-16171558D02*
X7793214Y-16157272D01*
X7821786Y-16142987D01*
X7864643Y-16142987D01*
X7893214Y-16157272D01*
X7907500Y-16185844D01*
X7907500Y-16342987D01*
X7907500Y-16185844D02*
X7921786Y-16157272D01*
X7950357Y-16142987D01*
X7993214Y-16142987D01*
X8021786Y-16157272D01*
X8036071Y-16185844D01*
X8036071Y-16342987D01*
X8621786Y-16028701D02*
X8364643Y-16414415D01*
X9007500Y-16042987D02*
X9036071Y-16042987D01*
X9064643Y-16057272D01*
X9078928Y-16071558D01*
X9093214Y-16100129D01*
X9107500Y-16157272D01*
X9107500Y-16228701D01*
X9093214Y-16285844D01*
X9078928Y-16314415D01*
X9064643Y-16328701D01*
X9036071Y-16342987D01*
X9007500Y-16342987D01*
X8978928Y-16328701D01*
X8964643Y-16314415D01*
X8950357Y-16285844D01*
X8936071Y-16228701D01*
X8936071Y-16157272D01*
X8950357Y-16100129D01*
X8964643Y-16071558D01*
X8978928Y-16057272D01*
X9007500Y-16042987D01*
X9236071Y-16314415D02*
X9250357Y-16328701D01*
X9236071Y-16342987D01*
X9221786Y-16328701D01*
X9236071Y-16314415D01*
X9236071Y-16342987D01*
X9436071Y-16042987D02*
X9464643Y-16042987D01*
X9493214Y-16057272D01*
X9507500Y-16071558D01*
X9521786Y-16100129D01*
X9536071Y-16157272D01*
X9536071Y-16228701D01*
X9521786Y-16285844D01*
X9507500Y-16314415D01*
X9493214Y-16328701D01*
X9464643Y-16342987D01*
X9436071Y-16342987D01*
X9407500Y-16328701D01*
X9393214Y-16314415D01*
X9378928Y-16285844D01*
X9364643Y-16228701D01*
X9364643Y-16157272D01*
X9378928Y-16100129D01*
X9393214Y-16071558D01*
X9407500Y-16057272D01*
X9436071Y-16042987D01*
X9821786Y-16342987D02*
X9650357Y-16342987D01*
X9736071Y-16342987D02*
X9736071Y-16042987D01*
X9707500Y-16085844D01*
X9678928Y-16114415D01*
X9650357Y-16128701D01*
X10078928Y-16042987D02*
X10021786Y-16042987D01*
X9993214Y-16057272D01*
X9978928Y-16071558D01*
X9950357Y-16114415D01*
X9936071Y-16171558D01*
X9936071Y-16285844D01*
X9950357Y-16314415D01*
X9964643Y-16328701D01*
X9993214Y-16342987D01*
X10050357Y-16342987D01*
X10078928Y-16328701D01*
X10093214Y-16314415D01*
X10107500Y-16285844D01*
X10107500Y-16214415D01*
X10093214Y-16185844D01*
X10078928Y-16171558D01*
X10050357Y-16157272D01*
X9993214Y-16157272D01*
X9964643Y-16171558D01*
X9950357Y-16185844D01*
X9936071Y-16214415D01*
X10221786Y-16042987D02*
X10221786Y-16100129D01*
X10336071Y-16042987D02*
X10336071Y-16100129D01*
X10778928Y-16457272D02*
X10764643Y-16442987D01*
X10736071Y-16400129D01*
X10721786Y-16371558D01*
X10707500Y-16328701D01*
X10693214Y-16257272D01*
X10693214Y-16200129D01*
X10707500Y-16128701D01*
X10721786Y-16085844D01*
X10736071Y-16057272D01*
X10764643Y-16014415D01*
X10778928Y-16000129D01*
X10864643Y-16042987D02*
X11050357Y-16042987D01*
X10950357Y-16157272D01*
X10993214Y-16157272D01*
X11021786Y-16171558D01*
X11036071Y-16185844D01*
X11050357Y-16214415D01*
X11050357Y-16285844D01*
X11036071Y-16314415D01*
X11021786Y-16328701D01*
X10993214Y-16342987D01*
X10907500Y-16342987D01*
X10878928Y-16328701D01*
X10864643Y-16314415D01*
X11221786Y-16171558D02*
X11193214Y-16157272D01*
X11178928Y-16142987D01*
X11164643Y-16114415D01*
X11164643Y-16100129D01*
X11178928Y-16071558D01*
X11193214Y-16057272D01*
X11221786Y-16042987D01*
X11278928Y-16042987D01*
X11307500Y-16057272D01*
X11321786Y-16071558D01*
X11336071Y-16100129D01*
X11336071Y-16114415D01*
X11321786Y-16142987D01*
X11307500Y-16157272D01*
X11278928Y-16171558D01*
X11221786Y-16171558D01*
X11193214Y-16185844D01*
X11178928Y-16200129D01*
X11164643Y-16228701D01*
X11164643Y-16285844D01*
X11178928Y-16314415D01*
X11193214Y-16328701D01*
X11221786Y-16342987D01*
X11278928Y-16342987D01*
X11307500Y-16328701D01*
X11321786Y-16314415D01*
X11336071Y-16285844D01*
X11336071Y-16228701D01*
X11321786Y-16200129D01*
X11307500Y-16185844D01*
X11278928Y-16171558D01*
X11478928Y-16342987D02*
X11536071Y-16342987D01*
X11564643Y-16328701D01*
X11578928Y-16314415D01*
X11607500Y-16271558D01*
X11621786Y-16214415D01*
X11621786Y-16100129D01*
X11607500Y-16071558D01*
X11593214Y-16057272D01*
X11564643Y-16042987D01*
X11507500Y-16042987D01*
X11478928Y-16057272D01*
X11464643Y-16071558D01*
X11450357Y-16100129D01*
X11450357Y-16171558D01*
X11464643Y-16200129D01*
X11478928Y-16214415D01*
X11507500Y-16228701D01*
X11564643Y-16228701D01*
X11593214Y-16214415D01*
X11607500Y-16200129D01*
X11621786Y-16171558D01*
X11978928Y-16342987D02*
X11978928Y-16042987D01*
X12107500Y-16342987D02*
X12107500Y-16185844D01*
X12093214Y-16157272D01*
X12064643Y-16142987D01*
X12021786Y-16142987D01*
X11993214Y-16157272D01*
X11978928Y-16171558D01*
X12293214Y-16342987D02*
X12264643Y-16328701D01*
X12250357Y-16314415D01*
X12236071Y-16285844D01*
X12236071Y-16200129D01*
X12250357Y-16171558D01*
X12264643Y-16157272D01*
X12293214Y-16142987D01*
X12336071Y-16142987D01*
X12364643Y-16157272D01*
X12378928Y-16171558D01*
X12393214Y-16200129D01*
X12393214Y-16285844D01*
X12378928Y-16314415D01*
X12364643Y-16328701D01*
X12336071Y-16342987D01*
X12293214Y-16342987D01*
X12564643Y-16342987D02*
X12536071Y-16328701D01*
X12521786Y-16300129D01*
X12521786Y-16042987D01*
X12793214Y-16328701D02*
X12764643Y-16342987D01*
X12707500Y-16342987D01*
X12678928Y-16328701D01*
X12664643Y-16300129D01*
X12664643Y-16185844D01*
X12678928Y-16157272D01*
X12707500Y-16142987D01*
X12764643Y-16142987D01*
X12793214Y-16157272D01*
X12807500Y-16185844D01*
X12807500Y-16214415D01*
X12664643Y-16242987D01*
X12921786Y-16328701D02*
X12950357Y-16342987D01*
X13007500Y-16342987D01*
X13036071Y-16328701D01*
X13050357Y-16300129D01*
X13050357Y-16285844D01*
X13036071Y-16257272D01*
X13007500Y-16242987D01*
X12964643Y-16242987D01*
X12936071Y-16228701D01*
X12921786Y-16200129D01*
X12921786Y-16185844D01*
X12936071Y-16157272D01*
X12964643Y-16142987D01*
X13007500Y-16142987D01*
X13036071Y-16157272D01*
X13150357Y-16457272D02*
X13164643Y-16442987D01*
X13193214Y-16400129D01*
X13207500Y-16371558D01*
X13221786Y-16328701D01*
X13236071Y-16257272D01*
X13236071Y-16200129D01*
X13221786Y-16128701D01*
X13207500Y-16085844D01*
X13193214Y-16057272D01*
X13164643Y-16014415D01*
X13150357Y-16000129D01*
X6092500Y-16603272D02*
G75*
G03X6092500Y-16603272I-40640J0D01*
G01*
X6436071Y-16438987D02*
X6464643Y-16438987D01*
X6493214Y-16453272D01*
X6507500Y-16467558D01*
X6521786Y-16496129D01*
X6536071Y-16553272D01*
X6536071Y-16624701D01*
X6521786Y-16681844D01*
X6507500Y-16710415D01*
X6493214Y-16724701D01*
X6464643Y-16738987D01*
X6436071Y-16738987D01*
X6407500Y-16724701D01*
X6393214Y-16710415D01*
X6378928Y-16681844D01*
X6364643Y-16624701D01*
X6364643Y-16553272D01*
X6378928Y-16496129D01*
X6393214Y-16467558D01*
X6407500Y-16453272D01*
X6436071Y-16438987D01*
X6664643Y-16710415D02*
X6678928Y-16724701D01*
X6664643Y-16738987D01*
X6650357Y-16724701D01*
X6664643Y-16710415D01*
X6664643Y-16738987D01*
X6850357Y-16567558D02*
X6821786Y-16553272D01*
X6807500Y-16538987D01*
X6793214Y-16510415D01*
X6793214Y-16496129D01*
X6807500Y-16467558D01*
X6821786Y-16453272D01*
X6850357Y-16438987D01*
X6907500Y-16438987D01*
X6936071Y-16453272D01*
X6950357Y-16467558D01*
X6964643Y-16496129D01*
X6964643Y-16510415D01*
X6950357Y-16538987D01*
X6936071Y-16553272D01*
X6907500Y-16567558D01*
X6850357Y-16567558D01*
X6821786Y-16581844D01*
X6807500Y-16596129D01*
X6793214Y-16624701D01*
X6793214Y-16681844D01*
X6807500Y-16710415D01*
X6821786Y-16724701D01*
X6850357Y-16738987D01*
X6907500Y-16738987D01*
X6936071Y-16724701D01*
X6950357Y-16710415D01*
X6964643Y-16681844D01*
X6964643Y-16624701D01*
X6950357Y-16596129D01*
X6936071Y-16581844D01*
X6907500Y-16567558D01*
X7250357Y-16738987D02*
X7078928Y-16738987D01*
X7164643Y-16738987D02*
X7164643Y-16438987D01*
X7136071Y-16481844D01*
X7107500Y-16510415D01*
X7078928Y-16524701D01*
X7378928Y-16738987D02*
X7378928Y-16538987D01*
X7378928Y-16567558D02*
X7393214Y-16553272D01*
X7421786Y-16538987D01*
X7464643Y-16538987D01*
X7493214Y-16553272D01*
X7507500Y-16581844D01*
X7507500Y-16738987D01*
X7507500Y-16581844D02*
X7521786Y-16553272D01*
X7550357Y-16538987D01*
X7593214Y-16538987D01*
X7621786Y-16553272D01*
X7636071Y-16581844D01*
X7636071Y-16738987D01*
X7778928Y-16738987D02*
X7778928Y-16538987D01*
X7778928Y-16567558D02*
X7793214Y-16553272D01*
X7821786Y-16538987D01*
X7864643Y-16538987D01*
X7893214Y-16553272D01*
X7907500Y-16581844D01*
X7907500Y-16738987D01*
X7907500Y-16581844D02*
X7921786Y-16553272D01*
X7950357Y-16538987D01*
X7993214Y-16538987D01*
X8021786Y-16553272D01*
X8036071Y-16581844D01*
X8036071Y-16738987D01*
X8621786Y-16424701D02*
X8364643Y-16810415D01*
X9007500Y-16438987D02*
X9036071Y-16438987D01*
X9064643Y-16453272D01*
X9078928Y-16467558D01*
X9093214Y-16496129D01*
X9107500Y-16553272D01*
X9107500Y-16624701D01*
X9093214Y-16681844D01*
X9078928Y-16710415D01*
X9064643Y-16724701D01*
X9036071Y-16738987D01*
X9007500Y-16738987D01*
X8978928Y-16724701D01*
X8964643Y-16710415D01*
X8950357Y-16681844D01*
X8936071Y-16624701D01*
X8936071Y-16553272D01*
X8950357Y-16496129D01*
X8964643Y-16467558D01*
X8978928Y-16453272D01*
X9007500Y-16438987D01*
X9236071Y-16710415D02*
X9250357Y-16724701D01*
X9236071Y-16738987D01*
X9221786Y-16724701D01*
X9236071Y-16710415D01*
X9236071Y-16738987D01*
X9436071Y-16438987D02*
X9464643Y-16438987D01*
X9493214Y-16453272D01*
X9507500Y-16467558D01*
X9521786Y-16496129D01*
X9536071Y-16553272D01*
X9536071Y-16624701D01*
X9521786Y-16681844D01*
X9507500Y-16710415D01*
X9493214Y-16724701D01*
X9464643Y-16738987D01*
X9436071Y-16738987D01*
X9407500Y-16724701D01*
X9393214Y-16710415D01*
X9378928Y-16681844D01*
X9364643Y-16624701D01*
X9364643Y-16553272D01*
X9378928Y-16496129D01*
X9393214Y-16467558D01*
X9407500Y-16453272D01*
X9436071Y-16438987D01*
X9636071Y-16438987D02*
X9821786Y-16438987D01*
X9721786Y-16553272D01*
X9764643Y-16553272D01*
X9793214Y-16567558D01*
X9807500Y-16581844D01*
X9821786Y-16610415D01*
X9821786Y-16681844D01*
X9807500Y-16710415D01*
X9793214Y-16724701D01*
X9764643Y-16738987D01*
X9678928Y-16738987D01*
X9650357Y-16724701D01*
X9636071Y-16710415D01*
X9936071Y-16467558D02*
X9950357Y-16453272D01*
X9978928Y-16438987D01*
X10050357Y-16438987D01*
X10078928Y-16453272D01*
X10093214Y-16467558D01*
X10107500Y-16496129D01*
X10107500Y-16524701D01*
X10093214Y-16567558D01*
X9921786Y-16738987D01*
X10107500Y-16738987D01*
X10221786Y-16438987D02*
X10221786Y-16496129D01*
X10336071Y-16438987D02*
X10336071Y-16496129D01*
X10778928Y-16853272D02*
X10764643Y-16838987D01*
X10736071Y-16796130D01*
X10721786Y-16767558D01*
X10707500Y-16724701D01*
X10693214Y-16653272D01*
X10693214Y-16596129D01*
X10707500Y-16524701D01*
X10721786Y-16481844D01*
X10736071Y-16453272D01*
X10764643Y-16410415D01*
X10778928Y-16396129D01*
X11036071Y-16438987D02*
X10893214Y-16438987D01*
X10878928Y-16581844D01*
X10893214Y-16567558D01*
X10921786Y-16553272D01*
X10993214Y-16553272D01*
X11021786Y-16567558D01*
X11036071Y-16581844D01*
X11050357Y-16610415D01*
X11050357Y-16681844D01*
X11036071Y-16710415D01*
X11021786Y-16724701D01*
X10993214Y-16738987D01*
X10921786Y-16738987D01*
X10893214Y-16724701D01*
X10878928Y-16710415D01*
X11221786Y-16567558D02*
X11193214Y-16553272D01*
X11178928Y-16538987D01*
X11164643Y-16510415D01*
X11164643Y-16496129D01*
X11178928Y-16467558D01*
X11193214Y-16453272D01*
X11221786Y-16438987D01*
X11278928Y-16438987D01*
X11307500Y-16453272D01*
X11321786Y-16467558D01*
X11336071Y-16496129D01*
X11336071Y-16510415D01*
X11321786Y-16538987D01*
X11307500Y-16553272D01*
X11278928Y-16567558D01*
X11221786Y-16567558D01*
X11193214Y-16581844D01*
X11178928Y-16596129D01*
X11164643Y-16624701D01*
X11164643Y-16681844D01*
X11178928Y-16710415D01*
X11193214Y-16724701D01*
X11221786Y-16738987D01*
X11278928Y-16738987D01*
X11307500Y-16724701D01*
X11321786Y-16710415D01*
X11336071Y-16681844D01*
X11336071Y-16624701D01*
X11321786Y-16596129D01*
X11307500Y-16581844D01*
X11278928Y-16567558D01*
X11693214Y-16738987D02*
X11693214Y-16438987D01*
X11821786Y-16738987D02*
X11821786Y-16581844D01*
X11807500Y-16553272D01*
X11778928Y-16538987D01*
X11736071Y-16538987D01*
X11707500Y-16553272D01*
X11693214Y-16567558D01*
X12007500Y-16738987D02*
X11978928Y-16724701D01*
X11964643Y-16710415D01*
X11950357Y-16681844D01*
X11950357Y-16596129D01*
X11964643Y-16567558D01*
X11978928Y-16553272D01*
X12007500Y-16538987D01*
X12050357Y-16538987D01*
X12078928Y-16553272D01*
X12093214Y-16567558D01*
X12107500Y-16596129D01*
X12107500Y-16681844D01*
X12093214Y-16710415D01*
X12078928Y-16724701D01*
X12050357Y-16738987D01*
X12007500Y-16738987D01*
X12278928Y-16738987D02*
X12250357Y-16724701D01*
X12236071Y-16696129D01*
X12236071Y-16438987D01*
X12507500Y-16724701D02*
X12478928Y-16738987D01*
X12421786Y-16738987D01*
X12393214Y-16724701D01*
X12378928Y-16696129D01*
X12378928Y-16581844D01*
X12393214Y-16553272D01*
X12421786Y-16538987D01*
X12478928Y-16538987D01*
X12507500Y-16553272D01*
X12521786Y-16581844D01*
X12521786Y-16610415D01*
X12378928Y-16638987D01*
X12636071Y-16724701D02*
X12664643Y-16738987D01*
X12721786Y-16738987D01*
X12750357Y-16724701D01*
X12764643Y-16696129D01*
X12764643Y-16681844D01*
X12750357Y-16653272D01*
X12721786Y-16638987D01*
X12678928Y-16638987D01*
X12650357Y-16624701D01*
X12636071Y-16596129D01*
X12636071Y-16581844D01*
X12650357Y-16553272D01*
X12678928Y-16538987D01*
X12721786Y-16538987D01*
X12750357Y-16553272D01*
X12864643Y-16853272D02*
X12878928Y-16838987D01*
X12907500Y-16796130D01*
X12921786Y-16767558D01*
X12936071Y-16724701D01*
X12950357Y-16653272D01*
X12950357Y-16596129D01*
X12936071Y-16524701D01*
X12921786Y-16481844D01*
X12907500Y-16453272D01*
X12878928Y-16410415D01*
X12864643Y-16396129D01*
X6042500Y-16949272D02*
X6042500Y-17049272D01*
X5992500Y-16999272D02*
X6092500Y-16999272D01*
X6536071Y-17134987D02*
X6364643Y-17134987D01*
X6450357Y-17134987D02*
X6450357Y-16834987D01*
X6421786Y-16877844D01*
X6393214Y-16906415D01*
X6364643Y-16920701D01*
X6664643Y-17106415D02*
X6678928Y-17120701D01*
X6664643Y-17134987D01*
X6650357Y-17120701D01*
X6664643Y-17106415D01*
X6664643Y-17134987D01*
X6864643Y-16834987D02*
X6893214Y-16834987D01*
X6921786Y-16849272D01*
X6936071Y-16863558D01*
X6950357Y-16892130D01*
X6964643Y-16949272D01*
X6964643Y-17020701D01*
X6950357Y-17077844D01*
X6936071Y-17106415D01*
X6921786Y-17120701D01*
X6893214Y-17134987D01*
X6864643Y-17134987D01*
X6836071Y-17120701D01*
X6821786Y-17106415D01*
X6807500Y-17077844D01*
X6793214Y-17020701D01*
X6793214Y-16949272D01*
X6807500Y-16892130D01*
X6821786Y-16863558D01*
X6836071Y-16849272D01*
X6864643Y-16834987D01*
X7150357Y-16834987D02*
X7178928Y-16834987D01*
X7207500Y-16849272D01*
X7221786Y-16863558D01*
X7236071Y-16892130D01*
X7250357Y-16949272D01*
X7250357Y-17020701D01*
X7236071Y-17077844D01*
X7221786Y-17106415D01*
X7207500Y-17120701D01*
X7178928Y-17134987D01*
X7150357Y-17134987D01*
X7121786Y-17120701D01*
X7107500Y-17106415D01*
X7093214Y-17077844D01*
X7078928Y-17020701D01*
X7078928Y-16949272D01*
X7093214Y-16892130D01*
X7107500Y-16863558D01*
X7121786Y-16849272D01*
X7150357Y-16834987D01*
X7378928Y-17134987D02*
X7378928Y-16934987D01*
X7378928Y-16963558D02*
X7393214Y-16949272D01*
X7421786Y-16934987D01*
X7464643Y-16934987D01*
X7493214Y-16949272D01*
X7507500Y-16977844D01*
X7507500Y-17134987D01*
X7507500Y-16977844D02*
X7521786Y-16949272D01*
X7550357Y-16934987D01*
X7593214Y-16934987D01*
X7621786Y-16949272D01*
X7636071Y-16977844D01*
X7636071Y-17134987D01*
X7778928Y-17134987D02*
X7778928Y-16934987D01*
X7778928Y-16963558D02*
X7793214Y-16949272D01*
X7821786Y-16934987D01*
X7864643Y-16934987D01*
X7893214Y-16949272D01*
X7907500Y-16977844D01*
X7907500Y-17134987D01*
X7907500Y-16977844D02*
X7921786Y-16949272D01*
X7950357Y-16934987D01*
X7993214Y-16934987D01*
X8021786Y-16949272D01*
X8036071Y-16977844D01*
X8036071Y-17134987D01*
X8621786Y-16820701D02*
X8364643Y-17206415D01*
X9007500Y-16834987D02*
X9036071Y-16834987D01*
X9064643Y-16849272D01*
X9078928Y-16863558D01*
X9093214Y-16892130D01*
X9107500Y-16949272D01*
X9107500Y-17020701D01*
X9093214Y-17077844D01*
X9078928Y-17106415D01*
X9064643Y-17120701D01*
X9036071Y-17134987D01*
X9007500Y-17134987D01*
X8978928Y-17120701D01*
X8964643Y-17106415D01*
X8950357Y-17077844D01*
X8936071Y-17020701D01*
X8936071Y-16949272D01*
X8950357Y-16892130D01*
X8964643Y-16863558D01*
X8978928Y-16849272D01*
X9007500Y-16834987D01*
X9236071Y-17106415D02*
X9250357Y-17120701D01*
X9236071Y-17134987D01*
X9221786Y-17120701D01*
X9236071Y-17106415D01*
X9236071Y-17134987D01*
X9436071Y-16834987D02*
X9464643Y-16834987D01*
X9493214Y-16849272D01*
X9507500Y-16863558D01*
X9521786Y-16892130D01*
X9536071Y-16949272D01*
X9536071Y-17020701D01*
X9521786Y-17077844D01*
X9507500Y-17106415D01*
X9493214Y-17120701D01*
X9464643Y-17134987D01*
X9436071Y-17134987D01*
X9407500Y-17120701D01*
X9393214Y-17106415D01*
X9378928Y-17077844D01*
X9364643Y-17020701D01*
X9364643Y-16949272D01*
X9378928Y-16892130D01*
X9393214Y-16863558D01*
X9407500Y-16849272D01*
X9436071Y-16834987D01*
X9636071Y-16834987D02*
X9821786Y-16834987D01*
X9721786Y-16949272D01*
X9764643Y-16949272D01*
X9793214Y-16963558D01*
X9807500Y-16977844D01*
X9821786Y-17006415D01*
X9821786Y-17077844D01*
X9807500Y-17106415D01*
X9793214Y-17120701D01*
X9764643Y-17134987D01*
X9678928Y-17134987D01*
X9650357Y-17120701D01*
X9636071Y-17106415D01*
X9964643Y-17134987D02*
X10021786Y-17134987D01*
X10050357Y-17120701D01*
X10064643Y-17106415D01*
X10093214Y-17063558D01*
X10107500Y-17006415D01*
X10107500Y-16892130D01*
X10093214Y-16863558D01*
X10078928Y-16849272D01*
X10050357Y-16834987D01*
X9993214Y-16834987D01*
X9964643Y-16849272D01*
X9950357Y-16863558D01*
X9936071Y-16892130D01*
X9936071Y-16963558D01*
X9950357Y-16992130D01*
X9964643Y-17006415D01*
X9993214Y-17020701D01*
X10050357Y-17020701D01*
X10078928Y-17006415D01*
X10093214Y-16992130D01*
X10107500Y-16963558D01*
X10221786Y-16834987D02*
X10221786Y-16892130D01*
X10336071Y-16834987D02*
X10336071Y-16892130D01*
X10778928Y-17249272D02*
X10764643Y-17234987D01*
X10736071Y-17192130D01*
X10721786Y-17163558D01*
X10707500Y-17120701D01*
X10693214Y-17049272D01*
X10693214Y-16992130D01*
X10707500Y-16920701D01*
X10721786Y-16877844D01*
X10736071Y-16849272D01*
X10764643Y-16806415D01*
X10778928Y-16792130D01*
X10950357Y-16834987D02*
X10978928Y-16834987D01*
X11007500Y-16849272D01*
X11021786Y-16863558D01*
X11036071Y-16892130D01*
X11050357Y-16949272D01*
X11050357Y-17020701D01*
X11036071Y-17077844D01*
X11021786Y-17106415D01*
X11007500Y-17120701D01*
X10978928Y-17134987D01*
X10950357Y-17134987D01*
X10921786Y-17120701D01*
X10907500Y-17106415D01*
X10893214Y-17077844D01*
X10878928Y-17020701D01*
X10878928Y-16949272D01*
X10893214Y-16892130D01*
X10907500Y-16863558D01*
X10921786Y-16849272D01*
X10950357Y-16834987D01*
X11407500Y-17134987D02*
X11407500Y-16834987D01*
X11536071Y-17134987D02*
X11536071Y-16977844D01*
X11521786Y-16949272D01*
X11493214Y-16934987D01*
X11450357Y-16934987D01*
X11421786Y-16949272D01*
X11407500Y-16963558D01*
X11721786Y-17134987D02*
X11693214Y-17120701D01*
X11678928Y-17106415D01*
X11664643Y-17077844D01*
X11664643Y-16992130D01*
X11678928Y-16963558D01*
X11693214Y-16949272D01*
X11721786Y-16934987D01*
X11764643Y-16934987D01*
X11793214Y-16949272D01*
X11807500Y-16963558D01*
X11821786Y-16992130D01*
X11821786Y-17077844D01*
X11807500Y-17106415D01*
X11793214Y-17120701D01*
X11764643Y-17134987D01*
X11721786Y-17134987D01*
X11993214Y-17134987D02*
X11964643Y-17120701D01*
X11950357Y-17092130D01*
X11950357Y-16834987D01*
X12221786Y-17120701D02*
X12193214Y-17134987D01*
X12136071Y-17134987D01*
X12107500Y-17120701D01*
X12093214Y-17092130D01*
X12093214Y-16977844D01*
X12107500Y-16949272D01*
X12136071Y-16934987D01*
X12193214Y-16934987D01*
X12221786Y-16949272D01*
X12236071Y-16977844D01*
X12236071Y-17006415D01*
X12093214Y-17034987D01*
X12350357Y-17120701D02*
X12378928Y-17134987D01*
X12436071Y-17134987D01*
X12464643Y-17120701D01*
X12478928Y-17092130D01*
X12478928Y-17077844D01*
X12464643Y-17049272D01*
X12436071Y-17034987D01*
X12393214Y-17034987D01*
X12364643Y-17020701D01*
X12350357Y-16992130D01*
X12350357Y-16977844D01*
X12364643Y-16949272D01*
X12393214Y-16934987D01*
X12436071Y-16934987D01*
X12464643Y-16949272D01*
X12836071Y-17020701D02*
X13064643Y-17020701D01*
X12950357Y-17134987D02*
X12950357Y-16906415D01*
X13478928Y-16963558D02*
X13450357Y-16949272D01*
X13436071Y-16934987D01*
X13421786Y-16906415D01*
X13421786Y-16892130D01*
X13436071Y-16863558D01*
X13450357Y-16849272D01*
X13478928Y-16834987D01*
X13536071Y-16834987D01*
X13564643Y-16849272D01*
X13578928Y-16863558D01*
X13593214Y-16892130D01*
X13593214Y-16906415D01*
X13578928Y-16934987D01*
X13564643Y-16949272D01*
X13536071Y-16963558D01*
X13478928Y-16963558D01*
X13450357Y-16977844D01*
X13436071Y-16992130D01*
X13421786Y-17020701D01*
X13421786Y-17077844D01*
X13436071Y-17106415D01*
X13450357Y-17120701D01*
X13478928Y-17134987D01*
X13536071Y-17134987D01*
X13564643Y-17120701D01*
X13578928Y-17106415D01*
X13593214Y-17077844D01*
X13593214Y-17020701D01*
X13578928Y-16992130D01*
X13564643Y-16977844D01*
X13536071Y-16963558D01*
X13936071Y-17120701D02*
X13964643Y-17134987D01*
X14021786Y-17134987D01*
X14050357Y-17120701D01*
X14064643Y-17092130D01*
X14064643Y-17077844D01*
X14050357Y-17049272D01*
X14021786Y-17034987D01*
X13978928Y-17034987D01*
X13950357Y-17020701D01*
X13936071Y-16992130D01*
X13936071Y-16977844D01*
X13950357Y-16949272D01*
X13978928Y-16934987D01*
X14021786Y-16934987D01*
X14050357Y-16949272D01*
X14236071Y-17134987D02*
X14207500Y-17120701D01*
X14193214Y-17092130D01*
X14193214Y-16834987D01*
X14393214Y-17134987D02*
X14364643Y-17120701D01*
X14350357Y-17106415D01*
X14336071Y-17077844D01*
X14336071Y-16992130D01*
X14350357Y-16963558D01*
X14364643Y-16949272D01*
X14393214Y-16934987D01*
X14436071Y-16934987D01*
X14464643Y-16949272D01*
X14478928Y-16963558D01*
X14493214Y-16992130D01*
X14493214Y-17077844D01*
X14478928Y-17106415D01*
X14464643Y-17120701D01*
X14436071Y-17134987D01*
X14393214Y-17134987D01*
X14578928Y-16934987D02*
X14693214Y-16934987D01*
X14621786Y-16834987D02*
X14621786Y-17092130D01*
X14636071Y-17120701D01*
X14664643Y-17134987D01*
X14693214Y-17134987D01*
X14778928Y-17120701D02*
X14807500Y-17134987D01*
X14864643Y-17134987D01*
X14893214Y-17120701D01*
X14907500Y-17092130D01*
X14907500Y-17077844D01*
X14893214Y-17049272D01*
X14864643Y-17034987D01*
X14821786Y-17034987D01*
X14793214Y-17020701D01*
X14778928Y-16992130D01*
X14778928Y-16977844D01*
X14793214Y-16949272D01*
X14821786Y-16934987D01*
X14864643Y-16934987D01*
X14893214Y-16949272D01*
X15007500Y-17249272D02*
X15021786Y-17234987D01*
X15050357Y-17192130D01*
X15064643Y-17163558D01*
X15078928Y-17120701D01*
X15093214Y-17049272D01*
X15093214Y-16992130D01*
X15078928Y-16920701D01*
X15064643Y-16877844D01*
X15050357Y-16849272D01*
X15021786Y-16806415D01*
X15007500Y-16792130D01*
X6073462Y-17441235D02*
X6073462Y-17349310D01*
X5981537Y-17349310D01*
X5981537Y-17441235D01*
X6073462Y-17441235D01*
X6536071Y-17530987D02*
X6364643Y-17530987D01*
X6450357Y-17530987D02*
X6450357Y-17230987D01*
X6421786Y-17273844D01*
X6393214Y-17302415D01*
X6364643Y-17316701D01*
X6664643Y-17502415D02*
X6678928Y-17516701D01*
X6664643Y-17530987D01*
X6650357Y-17516701D01*
X6664643Y-17502415D01*
X6664643Y-17530987D01*
X6778928Y-17230987D02*
X6964643Y-17230987D01*
X6864643Y-17345272D01*
X6907500Y-17345272D01*
X6936071Y-17359558D01*
X6950357Y-17373844D01*
X6964643Y-17402415D01*
X6964643Y-17473844D01*
X6950357Y-17502415D01*
X6936071Y-17516701D01*
X6907500Y-17530987D01*
X6821786Y-17530987D01*
X6793214Y-17516701D01*
X6778928Y-17502415D01*
X7150357Y-17230987D02*
X7178928Y-17230987D01*
X7207500Y-17245272D01*
X7221786Y-17259558D01*
X7236071Y-17288130D01*
X7250357Y-17345272D01*
X7250357Y-17416701D01*
X7236071Y-17473844D01*
X7221786Y-17502415D01*
X7207500Y-17516701D01*
X7178928Y-17530987D01*
X7150357Y-17530987D01*
X7121786Y-17516701D01*
X7107500Y-17502415D01*
X7093214Y-17473844D01*
X7078928Y-17416701D01*
X7078928Y-17345272D01*
X7093214Y-17288130D01*
X7107500Y-17259558D01*
X7121786Y-17245272D01*
X7150357Y-17230987D01*
X7378928Y-17530987D02*
X7378928Y-17330987D01*
X7378928Y-17359558D02*
X7393214Y-17345272D01*
X7421786Y-17330987D01*
X7464643Y-17330987D01*
X7493214Y-17345272D01*
X7507500Y-17373844D01*
X7507500Y-17530987D01*
X7507500Y-17373844D02*
X7521786Y-17345272D01*
X7550357Y-17330987D01*
X7593214Y-17330987D01*
X7621786Y-17345272D01*
X7636071Y-17373844D01*
X7636071Y-17530987D01*
X7778928Y-17530987D02*
X7778928Y-17330987D01*
X7778928Y-17359558D02*
X7793214Y-17345272D01*
X7821786Y-17330987D01*
X7864643Y-17330987D01*
X7893214Y-17345272D01*
X7907500Y-17373844D01*
X7907500Y-17530987D01*
X7907500Y-17373844D02*
X7921786Y-17345272D01*
X7950357Y-17330987D01*
X7993214Y-17330987D01*
X8021786Y-17345272D01*
X8036071Y-17373844D01*
X8036071Y-17530987D01*
X8621786Y-17216701D02*
X8364643Y-17602415D01*
X9007500Y-17230987D02*
X9036071Y-17230987D01*
X9064643Y-17245272D01*
X9078928Y-17259558D01*
X9093214Y-17288130D01*
X9107500Y-17345272D01*
X9107500Y-17416701D01*
X9093214Y-17473844D01*
X9078928Y-17502415D01*
X9064643Y-17516701D01*
X9036071Y-17530987D01*
X9007500Y-17530987D01*
X8978928Y-17516701D01*
X8964643Y-17502415D01*
X8950357Y-17473844D01*
X8936071Y-17416701D01*
X8936071Y-17345272D01*
X8950357Y-17288130D01*
X8964643Y-17259558D01*
X8978928Y-17245272D01*
X9007500Y-17230987D01*
X9236071Y-17502415D02*
X9250357Y-17516701D01*
X9236071Y-17530987D01*
X9221786Y-17516701D01*
X9236071Y-17502415D01*
X9236071Y-17530987D01*
X9436071Y-17230987D02*
X9464643Y-17230987D01*
X9493214Y-17245272D01*
X9507500Y-17259558D01*
X9521786Y-17288130D01*
X9536071Y-17345272D01*
X9536071Y-17416701D01*
X9521786Y-17473844D01*
X9507500Y-17502415D01*
X9493214Y-17516701D01*
X9464643Y-17530987D01*
X9436071Y-17530987D01*
X9407500Y-17516701D01*
X9393214Y-17502415D01*
X9378928Y-17473844D01*
X9364643Y-17416701D01*
X9364643Y-17345272D01*
X9378928Y-17288130D01*
X9393214Y-17259558D01*
X9407500Y-17245272D01*
X9436071Y-17230987D01*
X9807500Y-17230987D02*
X9664643Y-17230987D01*
X9650357Y-17373844D01*
X9664643Y-17359558D01*
X9693214Y-17345272D01*
X9764643Y-17345272D01*
X9793214Y-17359558D01*
X9807500Y-17373844D01*
X9821786Y-17402415D01*
X9821786Y-17473844D01*
X9807500Y-17502415D01*
X9793214Y-17516701D01*
X9764643Y-17530987D01*
X9693214Y-17530987D01*
X9664643Y-17516701D01*
X9650357Y-17502415D01*
X10107500Y-17530987D02*
X9936071Y-17530987D01*
X10021786Y-17530987D02*
X10021786Y-17230987D01*
X9993214Y-17273844D01*
X9964643Y-17302415D01*
X9936071Y-17316701D01*
X10221786Y-17230987D02*
X10221786Y-17288130D01*
X10336071Y-17230987D02*
X10336071Y-17288130D01*
X10778928Y-17645272D02*
X10764643Y-17630987D01*
X10736071Y-17588130D01*
X10721786Y-17559558D01*
X10707500Y-17516701D01*
X10693214Y-17445272D01*
X10693214Y-17388130D01*
X10707500Y-17316701D01*
X10721786Y-17273844D01*
X10736071Y-17245272D01*
X10764643Y-17202415D01*
X10778928Y-17188130D01*
X10878928Y-17259558D02*
X10893214Y-17245272D01*
X10921786Y-17230987D01*
X10993214Y-17230987D01*
X11021786Y-17245272D01*
X11036071Y-17259558D01*
X11050357Y-17288130D01*
X11050357Y-17316701D01*
X11036071Y-17359558D01*
X10864643Y-17530987D01*
X11050357Y-17530987D01*
X11407500Y-17530987D02*
X11407500Y-17230987D01*
X11536071Y-17530987D02*
X11536071Y-17373844D01*
X11521786Y-17345272D01*
X11493214Y-17330987D01*
X11450357Y-17330987D01*
X11421786Y-17345272D01*
X11407500Y-17359558D01*
X11721786Y-17530987D02*
X11693214Y-17516701D01*
X11678928Y-17502415D01*
X11664643Y-17473844D01*
X11664643Y-17388130D01*
X11678928Y-17359558D01*
X11693214Y-17345272D01*
X11721786Y-17330987D01*
X11764643Y-17330987D01*
X11793214Y-17345272D01*
X11807500Y-17359558D01*
X11821786Y-17388130D01*
X11821786Y-17473844D01*
X11807500Y-17502415D01*
X11793214Y-17516701D01*
X11764643Y-17530987D01*
X11721786Y-17530987D01*
X11993214Y-17530987D02*
X11964643Y-17516701D01*
X11950357Y-17488130D01*
X11950357Y-17230987D01*
X12221786Y-17516701D02*
X12193214Y-17530987D01*
X12136071Y-17530987D01*
X12107500Y-17516701D01*
X12093214Y-17488130D01*
X12093214Y-17373844D01*
X12107500Y-17345272D01*
X12136071Y-17330987D01*
X12193214Y-17330987D01*
X12221786Y-17345272D01*
X12236071Y-17373844D01*
X12236071Y-17402415D01*
X12093214Y-17430987D01*
X12350357Y-17516701D02*
X12378928Y-17530987D01*
X12436071Y-17530987D01*
X12464643Y-17516701D01*
X12478928Y-17488130D01*
X12478928Y-17473844D01*
X12464643Y-17445272D01*
X12436071Y-17430987D01*
X12393214Y-17430987D01*
X12364643Y-17416701D01*
X12350357Y-17388130D01*
X12350357Y-17373844D01*
X12364643Y-17345272D01*
X12393214Y-17330987D01*
X12436071Y-17330987D01*
X12464643Y-17345272D01*
X12578928Y-17645272D02*
X12593214Y-17630987D01*
X12621786Y-17588130D01*
X12636071Y-17559558D01*
X12650357Y-17516701D01*
X12664643Y-17445272D01*
X12664643Y-17388130D01*
X12650357Y-17316701D01*
X12636071Y-17273844D01*
X12621786Y-17245272D01*
X12593214Y-17202415D01*
X12578928Y-17188130D01*
X5982500Y-17901272D02*
X6092500Y-17791272D01*
X5982500Y-17681272D01*
X5872500Y-17791272D01*
X5982500Y-17901272D01*
X6364643Y-17655558D02*
X6378928Y-17641272D01*
X6407500Y-17626987D01*
X6478928Y-17626987D01*
X6507500Y-17641272D01*
X6521786Y-17655558D01*
X6536071Y-17684130D01*
X6536071Y-17712701D01*
X6521786Y-17755558D01*
X6350357Y-17926987D01*
X6536071Y-17926987D01*
X6664643Y-17898415D02*
X6678928Y-17912701D01*
X6664643Y-17926987D01*
X6650357Y-17912701D01*
X6664643Y-17898415D01*
X6664643Y-17926987D01*
X6793214Y-17655558D02*
X6807500Y-17641272D01*
X6836071Y-17626987D01*
X6907500Y-17626987D01*
X6936071Y-17641272D01*
X6950357Y-17655558D01*
X6964643Y-17684130D01*
X6964643Y-17712701D01*
X6950357Y-17755558D01*
X6778928Y-17926987D01*
X6964643Y-17926987D01*
X7150357Y-17626987D02*
X7178928Y-17626987D01*
X7207500Y-17641272D01*
X7221786Y-17655558D01*
X7236071Y-17684130D01*
X7250357Y-17741272D01*
X7250357Y-17812701D01*
X7236071Y-17869844D01*
X7221786Y-17898415D01*
X7207500Y-17912701D01*
X7178928Y-17926987D01*
X7150357Y-17926987D01*
X7121786Y-17912701D01*
X7107500Y-17898415D01*
X7093214Y-17869844D01*
X7078928Y-17812701D01*
X7078928Y-17741272D01*
X7093214Y-17684130D01*
X7107500Y-17655558D01*
X7121786Y-17641272D01*
X7150357Y-17626987D01*
X7378928Y-17926987D02*
X7378928Y-17726987D01*
X7378928Y-17755558D02*
X7393214Y-17741272D01*
X7421786Y-17726987D01*
X7464643Y-17726987D01*
X7493214Y-17741272D01*
X7507500Y-17769844D01*
X7507500Y-17926987D01*
X7507500Y-17769844D02*
X7521786Y-17741272D01*
X7550357Y-17726987D01*
X7593214Y-17726987D01*
X7621786Y-17741272D01*
X7636071Y-17769844D01*
X7636071Y-17926987D01*
X7778928Y-17926987D02*
X7778928Y-17726987D01*
X7778928Y-17755558D02*
X7793214Y-17741272D01*
X7821786Y-17726987D01*
X7864643Y-17726987D01*
X7893214Y-17741272D01*
X7907500Y-17769844D01*
X7907500Y-17926987D01*
X7907500Y-17769844D02*
X7921786Y-17741272D01*
X7950357Y-17726987D01*
X7993214Y-17726987D01*
X8021786Y-17741272D01*
X8036071Y-17769844D01*
X8036071Y-17926987D01*
X8621786Y-17612701D02*
X8364643Y-17998415D01*
X9007500Y-17626987D02*
X9036071Y-17626987D01*
X9064643Y-17641272D01*
X9078928Y-17655558D01*
X9093214Y-17684130D01*
X9107500Y-17741272D01*
X9107500Y-17812701D01*
X9093214Y-17869844D01*
X9078928Y-17898415D01*
X9064643Y-17912701D01*
X9036071Y-17926987D01*
X9007500Y-17926987D01*
X8978928Y-17912701D01*
X8964643Y-17898415D01*
X8950357Y-17869844D01*
X8936071Y-17812701D01*
X8936071Y-17741272D01*
X8950357Y-17684130D01*
X8964643Y-17655558D01*
X8978928Y-17641272D01*
X9007500Y-17626987D01*
X9236071Y-17898415D02*
X9250357Y-17912701D01*
X9236071Y-17926987D01*
X9221786Y-17912701D01*
X9236071Y-17898415D01*
X9236071Y-17926987D01*
X9436071Y-17626987D02*
X9464643Y-17626987D01*
X9493214Y-17641272D01*
X9507500Y-17655558D01*
X9521786Y-17684130D01*
X9536071Y-17741272D01*
X9536071Y-17812701D01*
X9521786Y-17869844D01*
X9507500Y-17898415D01*
X9493214Y-17912701D01*
X9464643Y-17926987D01*
X9436071Y-17926987D01*
X9407500Y-17912701D01*
X9393214Y-17898415D01*
X9378928Y-17869844D01*
X9364643Y-17812701D01*
X9364643Y-17741272D01*
X9378928Y-17684130D01*
X9393214Y-17655558D01*
X9407500Y-17641272D01*
X9436071Y-17626987D01*
X9707500Y-17755558D02*
X9678928Y-17741272D01*
X9664643Y-17726987D01*
X9650357Y-17698415D01*
X9650357Y-17684130D01*
X9664643Y-17655558D01*
X9678928Y-17641272D01*
X9707500Y-17626987D01*
X9764643Y-17626987D01*
X9793214Y-17641272D01*
X9807500Y-17655558D01*
X9821786Y-17684130D01*
X9821786Y-17698415D01*
X9807500Y-17726987D01*
X9793214Y-17741272D01*
X9764643Y-17755558D01*
X9707500Y-17755558D01*
X9678928Y-17769844D01*
X9664643Y-17784130D01*
X9650357Y-17812701D01*
X9650357Y-17869844D01*
X9664643Y-17898415D01*
X9678928Y-17912701D01*
X9707500Y-17926987D01*
X9764643Y-17926987D01*
X9793214Y-17912701D01*
X9807500Y-17898415D01*
X9821786Y-17869844D01*
X9821786Y-17812701D01*
X9807500Y-17784130D01*
X9793214Y-17769844D01*
X9764643Y-17755558D01*
X9921786Y-17626987D02*
X10121786Y-17626987D01*
X9993214Y-17926987D01*
X10221786Y-17626987D02*
X10221786Y-17684130D01*
X10336071Y-17626987D02*
X10336071Y-17684130D01*
X10778928Y-18041272D02*
X10764643Y-18026987D01*
X10736071Y-17984130D01*
X10721786Y-17955558D01*
X10707500Y-17912701D01*
X10693214Y-17841272D01*
X10693214Y-17784130D01*
X10707500Y-17712701D01*
X10721786Y-17669844D01*
X10736071Y-17641272D01*
X10764643Y-17598415D01*
X10778928Y-17584130D01*
X10878928Y-17655558D02*
X10893214Y-17641272D01*
X10921786Y-17626987D01*
X10993214Y-17626987D01*
X11021786Y-17641272D01*
X11036071Y-17655558D01*
X11050357Y-17684130D01*
X11050357Y-17712701D01*
X11036071Y-17755558D01*
X10864643Y-17926987D01*
X11050357Y-17926987D01*
X11407500Y-17926987D02*
X11407500Y-17626987D01*
X11536071Y-17926987D02*
X11536071Y-17769844D01*
X11521786Y-17741272D01*
X11493214Y-17726987D01*
X11450357Y-17726987D01*
X11421786Y-17741272D01*
X11407500Y-17755558D01*
X11721786Y-17926987D02*
X11693214Y-17912701D01*
X11678928Y-17898415D01*
X11664643Y-17869844D01*
X11664643Y-17784130D01*
X11678928Y-17755558D01*
X11693214Y-17741272D01*
X11721786Y-17726987D01*
X11764643Y-17726987D01*
X11793214Y-17741272D01*
X11807500Y-17755558D01*
X11821786Y-17784130D01*
X11821786Y-17869844D01*
X11807500Y-17898415D01*
X11793214Y-17912701D01*
X11764643Y-17926987D01*
X11721786Y-17926987D01*
X11993214Y-17926987D02*
X11964643Y-17912701D01*
X11950357Y-17884130D01*
X11950357Y-17626987D01*
X12221786Y-17912701D02*
X12193214Y-17926987D01*
X12136071Y-17926987D01*
X12107500Y-17912701D01*
X12093214Y-17884130D01*
X12093214Y-17769844D01*
X12107500Y-17741272D01*
X12136071Y-17726987D01*
X12193214Y-17726987D01*
X12221786Y-17741272D01*
X12236071Y-17769844D01*
X12236071Y-17798415D01*
X12093214Y-17826987D01*
X12350357Y-17912701D02*
X12378928Y-17926987D01*
X12436071Y-17926987D01*
X12464643Y-17912701D01*
X12478928Y-17884130D01*
X12478928Y-17869844D01*
X12464643Y-17841272D01*
X12436071Y-17826987D01*
X12393214Y-17826987D01*
X12364643Y-17812701D01*
X12350357Y-17784130D01*
X12350357Y-17769844D01*
X12364643Y-17741272D01*
X12393214Y-17726987D01*
X12436071Y-17726987D01*
X12464643Y-17741272D01*
X12578928Y-18041272D02*
X12593214Y-18026987D01*
X12621786Y-17984130D01*
X12636071Y-17955558D01*
X12650357Y-17912701D01*
X12664643Y-17841272D01*
X12664643Y-17784130D01*
X12650357Y-17712701D01*
X12636071Y-17669844D01*
X12621786Y-17641272D01*
X12593214Y-17598415D01*
X12578928Y-17584130D01*
X5682500Y-17982272D02*
X6092500Y-18392272D01*
X6092500Y-17982272D02*
X5682500Y-18392272D01*
X6092500Y-18187272D02*
G75*
G03X6092500Y-18187272I-205000J0D01*
G01*
X6507500Y-18122987D02*
X6507500Y-18322987D01*
X6436071Y-18008701D02*
X6364643Y-18222987D01*
X6550357Y-18222987D01*
X6664643Y-18294415D02*
X6678928Y-18308701D01*
X6664643Y-18322987D01*
X6650357Y-18308701D01*
X6664643Y-18294415D01*
X6664643Y-18322987D01*
X6964643Y-18322987D02*
X6793214Y-18322987D01*
X6878928Y-18322987D02*
X6878928Y-18022987D01*
X6850357Y-18065844D01*
X6821786Y-18094415D01*
X6793214Y-18108701D01*
X7150357Y-18022987D02*
X7178928Y-18022987D01*
X7207500Y-18037272D01*
X7221786Y-18051558D01*
X7236071Y-18080130D01*
X7250357Y-18137272D01*
X7250357Y-18208701D01*
X7236071Y-18265844D01*
X7221786Y-18294415D01*
X7207500Y-18308701D01*
X7178928Y-18322987D01*
X7150357Y-18322987D01*
X7121786Y-18308701D01*
X7107500Y-18294415D01*
X7093214Y-18265844D01*
X7078928Y-18208701D01*
X7078928Y-18137272D01*
X7093214Y-18080130D01*
X7107500Y-18051558D01*
X7121786Y-18037272D01*
X7150357Y-18022987D01*
X7378928Y-18322987D02*
X7378928Y-18122987D01*
X7378928Y-18151558D02*
X7393214Y-18137272D01*
X7421786Y-18122987D01*
X7464643Y-18122987D01*
X7493214Y-18137272D01*
X7507500Y-18165844D01*
X7507500Y-18322987D01*
X7507500Y-18165844D02*
X7521786Y-18137272D01*
X7550357Y-18122987D01*
X7593214Y-18122987D01*
X7621786Y-18137272D01*
X7636071Y-18165844D01*
X7636071Y-18322987D01*
X7778928Y-18322987D02*
X7778928Y-18122987D01*
X7778928Y-18151558D02*
X7793214Y-18137272D01*
X7821786Y-18122987D01*
X7864643Y-18122987D01*
X7893214Y-18137272D01*
X7907500Y-18165844D01*
X7907500Y-18322987D01*
X7907500Y-18165844D02*
X7921786Y-18137272D01*
X7950357Y-18122987D01*
X7993214Y-18122987D01*
X8021786Y-18137272D01*
X8036071Y-18165844D01*
X8036071Y-18322987D01*
X8621786Y-18008701D02*
X8364643Y-18394415D01*
X9007500Y-18022987D02*
X9036071Y-18022987D01*
X9064643Y-18037272D01*
X9078928Y-18051558D01*
X9093214Y-18080130D01*
X9107500Y-18137272D01*
X9107500Y-18208701D01*
X9093214Y-18265844D01*
X9078928Y-18294415D01*
X9064643Y-18308701D01*
X9036071Y-18322987D01*
X9007500Y-18322987D01*
X8978928Y-18308701D01*
X8964643Y-18294415D01*
X8950357Y-18265844D01*
X8936071Y-18208701D01*
X8936071Y-18137272D01*
X8950357Y-18080130D01*
X8964643Y-18051558D01*
X8978928Y-18037272D01*
X9007500Y-18022987D01*
X9236071Y-18294415D02*
X9250357Y-18308701D01*
X9236071Y-18322987D01*
X9221786Y-18308701D01*
X9236071Y-18294415D01*
X9236071Y-18322987D01*
X9536071Y-18322987D02*
X9364643Y-18322987D01*
X9450357Y-18322987D02*
X9450357Y-18022987D01*
X9421786Y-18065844D01*
X9393214Y-18094415D01*
X9364643Y-18108701D01*
X9793214Y-18022987D02*
X9736071Y-18022987D01*
X9707500Y-18037272D01*
X9693214Y-18051558D01*
X9664643Y-18094415D01*
X9650357Y-18151558D01*
X9650357Y-18265844D01*
X9664643Y-18294415D01*
X9678928Y-18308701D01*
X9707500Y-18322987D01*
X9764643Y-18322987D01*
X9793214Y-18308701D01*
X9807500Y-18294415D01*
X9821786Y-18265844D01*
X9821786Y-18194415D01*
X9807500Y-18165844D01*
X9793214Y-18151558D01*
X9764643Y-18137272D01*
X9707500Y-18137272D01*
X9678928Y-18151558D01*
X9664643Y-18165844D01*
X9650357Y-18194415D01*
X10107500Y-18322987D02*
X9936071Y-18322987D01*
X10021786Y-18322987D02*
X10021786Y-18022987D01*
X9993214Y-18065844D01*
X9964643Y-18094415D01*
X9936071Y-18108701D01*
X10221786Y-18022987D02*
X10221786Y-18080130D01*
X10336071Y-18022987D02*
X10336071Y-18080130D01*
X10778928Y-18437272D02*
X10764643Y-18422987D01*
X10736071Y-18380130D01*
X10721786Y-18351558D01*
X10707500Y-18308701D01*
X10693214Y-18237272D01*
X10693214Y-18180130D01*
X10707500Y-18108701D01*
X10721786Y-18065844D01*
X10736071Y-18037272D01*
X10764643Y-17994415D01*
X10778928Y-17980130D01*
X10864643Y-18022987D02*
X11064643Y-18022987D01*
X10936071Y-18322987D01*
X11407500Y-18322987D02*
X11407500Y-18022987D01*
X11536071Y-18322987D02*
X11536071Y-18165844D01*
X11521786Y-18137272D01*
X11493214Y-18122987D01*
X11450357Y-18122987D01*
X11421786Y-18137272D01*
X11407500Y-18151558D01*
X11721786Y-18322987D02*
X11693214Y-18308701D01*
X11678928Y-18294415D01*
X11664643Y-18265844D01*
X11664643Y-18180130D01*
X11678928Y-18151558D01*
X11693214Y-18137272D01*
X11721786Y-18122987D01*
X11764643Y-18122987D01*
X11793214Y-18137272D01*
X11807500Y-18151558D01*
X11821786Y-18180130D01*
X11821786Y-18265844D01*
X11807500Y-18294415D01*
X11793214Y-18308701D01*
X11764643Y-18322987D01*
X11721786Y-18322987D01*
X11993214Y-18322987D02*
X11964643Y-18308701D01*
X11950357Y-18280130D01*
X11950357Y-18022987D01*
X12221786Y-18308701D02*
X12193214Y-18322987D01*
X12136071Y-18322987D01*
X12107500Y-18308701D01*
X12093214Y-18280130D01*
X12093214Y-18165844D01*
X12107500Y-18137272D01*
X12136071Y-18122987D01*
X12193214Y-18122987D01*
X12221786Y-18137272D01*
X12236071Y-18165844D01*
X12236071Y-18194415D01*
X12093214Y-18222987D01*
X12350357Y-18308701D02*
X12378928Y-18322987D01*
X12436071Y-18322987D01*
X12464643Y-18308701D01*
X12478928Y-18280130D01*
X12478928Y-18265844D01*
X12464643Y-18237272D01*
X12436071Y-18222987D01*
X12393214Y-18222987D01*
X12364643Y-18208701D01*
X12350357Y-18180130D01*
X12350357Y-18165844D01*
X12364643Y-18137272D01*
X12393214Y-18122987D01*
X12436071Y-18122987D01*
X12464643Y-18137272D01*
X12578928Y-18437272D02*
X12593214Y-18422987D01*
X12621786Y-18380130D01*
X12636071Y-18351558D01*
X12650357Y-18308701D01*
X12664643Y-18237272D01*
X12664643Y-18180130D01*
X12650357Y-18108701D01*
X12636071Y-18065844D01*
X12621786Y-18037272D01*
X12593214Y-17994415D01*
X12578928Y-17980130D01*
M02*
