M48
; DRILL file {KiCad 5.1.5+dfsg1-2~bpo10+1} date Sat Sep  5 13:18:22 2020
; FORMAT={-:-/ absolute / metric / decimal}
; #@! TF.CreationDate,2020-09-05T13:18:22+00:00
; #@! TF.GenerationSoftware,Kicad,Pcbnew,5.1.5+dfsg1-2~bpo10+1
; #@! TF.FileFunction,NonPlated,1,2,NPTH
FMAT,2
METRIC
T1C1.200
T2C1.700
T3C1.900
T4C3.000
T5C4.100
%
G90
G05
T1
X186.2Y-114.95
X186.2Y-116.7
X193.2Y-114.95
X193.2Y-116.7
T2
X141.5Y-72.375
X150.5Y-72.375
X122.5Y-89.0
X131.5Y-89.0
X103.5Y-110.375
X112.5Y-110.375
X103.5Y-72.375
X112.5Y-72.375
X84.5Y-77.125
X93.5Y-77.125
X103.5Y-91.375
X112.5Y-91.375
X141.5Y-110.375
X150.5Y-110.375
X65.5Y-77.125
X74.5Y-77.125
X84.5Y-115.125
X93.5Y-115.125
X84.5Y-96.125
X93.5Y-96.125
X177.5Y-140.397
X182.0Y-132.603
X65.5Y-115.125
X74.5Y-115.125
X65.5Y-96.125
X74.5Y-96.125
X153.153Y-131.585
X161.847Y-133.915
X160.5Y-93.75
X169.5Y-93.75
X132.0Y-130.0
X141.0Y-130.0
X160.5Y-112.75
X169.5Y-112.75
X122.5Y-108.0
X131.5Y-108.0
X122.5Y-70.0
X131.5Y-70.0
X141.5Y-91.375
X150.5Y-91.375
X160.5Y-74.75
X169.5Y-74.75
T3
X140.92Y-72.375
X151.08Y-72.375
X121.92Y-89.0
X132.08Y-89.0
X102.92Y-110.375
X113.08Y-110.375
X102.92Y-72.375
X113.08Y-72.375
X83.92Y-77.125
X94.08Y-77.125
X102.92Y-91.375
X113.08Y-91.375
X140.92Y-110.375
X151.08Y-110.375
X64.92Y-77.125
X75.08Y-77.125
X83.92Y-115.125
X94.08Y-115.125
X83.92Y-96.125
X94.08Y-96.125
X177.21Y-140.899
X182.29Y-132.101
X64.92Y-115.125
X75.08Y-115.125
X64.92Y-96.125
X75.08Y-96.125
X152.593Y-131.435
X162.407Y-134.065
X159.92Y-93.75
X170.08Y-93.75
X131.42Y-130.0
X141.58Y-130.0
X159.92Y-112.75
X170.08Y-112.75
X121.92Y-108.0
X132.08Y-108.0
X121.92Y-70.0
X132.08Y-70.0
X140.92Y-91.375
X151.08Y-91.375
X159.92Y-74.75
X170.08Y-74.75
T4
X123.19Y-91.54
X124.46Y-94.08
X129.54Y-94.08
X130.81Y-91.54
X104.19Y-112.915
X105.46Y-115.455
X110.54Y-115.455
X111.81Y-112.915
X104.19Y-74.915
X105.46Y-77.455
X110.54Y-77.455
X111.81Y-74.915
X85.19Y-79.665
X86.46Y-82.205
X91.54Y-82.205
X92.81Y-79.665
X104.19Y-93.915
X105.46Y-96.455
X110.54Y-96.455
X111.81Y-93.915
X142.19Y-112.915
X143.46Y-115.455
X148.54Y-115.455
X149.81Y-112.915
X66.19Y-79.665
X67.46Y-82.205
X72.54Y-82.205
X73.81Y-79.665
X85.19Y-117.665
X86.46Y-120.205
X91.54Y-120.205
X92.81Y-117.665
X85.19Y-98.665
X86.46Y-101.205
X91.54Y-101.205
X92.81Y-98.665
X180.045Y-141.07
X182.879Y-141.24
X183.855Y-134.47
X185.419Y-136.84
X66.19Y-117.665
X67.46Y-120.205
X72.54Y-120.205
X73.81Y-117.665
X66.19Y-98.665
X67.46Y-101.205
X72.54Y-101.205
X73.81Y-98.665
X153.162Y-134.217
X153.732Y-137.0
X158.639Y-138.314
X160.523Y-136.19
X161.19Y-96.29
X162.46Y-98.83
X167.54Y-98.83
X168.81Y-96.29
X132.69Y-132.54
X133.96Y-135.08
X139.04Y-135.08
X140.31Y-132.54
X161.19Y-115.29
X162.46Y-117.83
X167.54Y-117.83
X168.81Y-115.29
X123.19Y-110.54
X124.46Y-113.08
X129.54Y-113.08
X130.81Y-110.54
X123.19Y-72.54
X124.46Y-75.08
X129.54Y-75.08
X130.81Y-72.54
X142.19Y-93.915
X143.46Y-96.455
X148.54Y-96.455
X149.81Y-93.915
X161.19Y-77.29
X162.46Y-79.83
X167.54Y-79.83
X168.81Y-77.29
X142.19Y-74.915
X143.46Y-77.455
X148.54Y-77.455
X149.81Y-74.915
T5
X165.0Y-112.75
X127.0Y-108.0
X127.0Y-70.0
X146.0Y-91.375
X165.0Y-74.75
X146.0Y-72.375
X127.0Y-89.0
X108.0Y-110.375
X108.0Y-72.375
X89.0Y-77.125
X108.0Y-91.375
X146.0Y-110.375
X70.0Y-77.125
X89.0Y-115.125
X89.0Y-96.125
X179.75Y-136.5
X70.0Y-115.125
X70.0Y-96.125
X157.5Y-132.75
X165.0Y-93.75
X136.5Y-130.0
T0
M30
