M48
; DRILL file {KiCad 5.1.5+dfsg1-2~bpo10+1} date Sat Sep  5 13:18:22 2020
; FORMAT={-:-/ absolute / metric / decimal}
; #@! TF.CreationDate,2020-09-05T13:18:22+00:00
; #@! TF.GenerationSoftware,Kicad,Pcbnew,5.1.5+dfsg1-2~bpo10+1
; #@! TF.FileFunction,Plated,1,2,PTH
FMAT,2
METRIC
T1C0.400
T2C0.813
T3C1.000
T4C1.300
T5C2.200
T6C4.100
%
G90
G05
T1
X62.0Y-74.8
X62.0Y-75.65
X62.0Y-93.8
X62.0Y-94.65
X62.0Y-112.75
X62.0Y-113.65
X62.95Y-84.05
X62.95Y-103.25
X62.95Y-122.1
X63.9Y-92.55
X63.9Y-111.55
X66.6Y-73.6
X66.7Y-92.6
X66.8Y-111.7
X67.4Y-73.8
X67.5Y-92.8
X67.58Y-107.35
X67.59Y-69.35
X67.59Y-88.37
X67.7Y-111.7
X72.2Y-94.3
X72.6Y-69.2
X72.6Y-88.5
X72.6Y-107.4
X73.35Y-84.4
X73.55Y-122.25
X73.65Y-103.5
X73.9Y-87.2
X73.9Y-90.2
X74.0Y-108.8
X74.1Y-71.3
X74.1Y-106.1
X76.9Y-75.4
X80.6Y-98.25
X80.7Y-97.2
X81.1Y-115.7
X82.05Y-122.1
X82.1Y-115.9
X82.85Y-103.65
X82.9Y-94.6
X83.3Y-113.4
X83.5Y-84.1
X83.5Y-85.2
X83.5Y-87.1
X83.6Y-103.05
X84.75Y-103.0
X84.8Y-88.7
X85.0Y-104.9
X85.1Y-85.9
X85.2Y-110.5
X85.3Y-109.6
X85.6Y-92.6
X85.8Y-73.6
X86.4Y-92.7
X86.59Y-69.53
X86.8Y-73.7
X88.475Y-85.875
X88.675Y-104.95
X89.425Y-85.85
X89.55Y-104.925
X91.4Y-107.7
X91.6Y-69.5
X91.7Y-88.5
X92.9Y-105.0
X93.0Y-89.8
X93.1Y-71.1
X93.2Y-87.0
X93.2Y-108.6
X93.55Y-122.25
X94.15Y-84.9
X95.2Y-107.7
X95.7Y-74.5
X95.8Y-94.2
X96.5Y-81.6
X96.95Y-93.7
X97.0Y-74.75
X97.0Y-112.7
X97.35Y-81.7
X98.0Y-97.3
X98.0Y-116.25
X98.05Y-78.05
X98.05Y-80.05
X98.35Y-100.65
X98.7Y-110.7
X98.85Y-79.1
X98.98Y-93.53
X99.1Y-75.7
X99.2Y-73.1
X99.2Y-109.9
X99.25Y-113.35
X99.4Y-111.5
X100.1Y-72.05
X100.35Y-114.73
X100.58Y-76.72
X100.64Y-95.81
X101.11Y-92.07
X101.15Y-111.1
X102.14Y-89.75
X102.54Y-79.15
X102.57Y-98.21
X102.57Y-117.24
X104.085Y-108.454
X104.2Y-105.0
X104.21Y-64.85
X104.3Y-85.9
X104.6Y-68.9
X104.64Y-109.03
X105.4Y-69.0
X105.4Y-88.0
X105.6Y-106.9
X105.61Y-83.84
X105.61Y-102.89
X110.6Y-64.8
X110.7Y-83.8
X110.8Y-102.9
X111.7Y-65.0
X112.0Y-85.3
X112.0Y-103.9
X112.8Y-100.6
X112.9Y-81.7
X113.9Y-64.8
X114.7Y-70.0
X114.8Y-89.1
X114.975Y-101.325
X115.42Y-96.67
X115.48Y-77.78
X115.75Y-69.95
X116.0Y-89.05
X116.0Y-108.0
X116.79Y-111.7
X117.18Y-73.51
X117.46Y-92.62
X117.9Y-106.3
X119.0Y-87.3
X119.0Y-106.3
X119.3Y-98.5
X119.4Y-93.35
X119.45Y-74.45
X119.52Y-112.3
X119.97Y-108.69
X120.11Y-89.83
X120.9Y-98.5
X121.0Y-87.3
X121.0Y-106.3
X121.4Y-64.6
X121.55Y-76.86
X121.59Y-114.78
X121.73Y-95.89
X122.9Y-103.4
X123.0Y-78.5
X123.0Y-81.6
X123.1Y-102.5
X123.2Y-64.6
X123.2Y-83.4
X123.225Y-115.925
X124.3Y-66.6
X124.4Y-85.5
X125.2Y-98.9
X126.425Y-78.775
X126.525Y-116.875
X127.4Y-78.875
X127.55Y-116.85
X127.66Y-131.62
X128.5Y-127.6
X129.03Y-136.26
X129.7Y-62.5
X129.71Y-127.56
X129.9Y-81.5
X130.8Y-102.5
X130.9Y-83.3
X131.0Y-63.6
X131.0Y-116.8
X131.2Y-78.7
X131.23Y-136.99
X131.5Y-122.1
X131.7Y-101.6
X132.1Y-78.7
X132.1Y-116.9
X132.4Y-124.6
X132.8Y-120.9
X133.26Y-118.9
X133.7Y-67.4
X133.7Y-79.2
X133.7Y-86.6
X133.7Y-105.5
X133.9Y-119.6
X134.42Y-94.35
X134.54Y-74.94
X134.65Y-113.34
X134.7Y-118.9
X135.0Y-67.6
X135.0Y-86.6
X135.0Y-105.6
X136.05Y-71.13
X136.28Y-109.01
X136.35Y-90.08
X137.4Y-120.9
X137.9Y-108.4
X138.2Y-89.5
X138.3Y-99.5
X138.3Y-100.6
X138.42Y-114.85
X138.64Y-95.84
X138.78Y-78.96
X139.0Y-92.12
X139.09Y-111.09
X139.2Y-122.3
X139.7Y-100.6
X139.8Y-99.6
X139.9Y-89.5
X140.0Y-108.4
X140.4Y-123.7
X140.57Y-98.18
X140.62Y-117.18
X140.73Y-79.35
X142.12Y-64.85
X142.2Y-86.0
X142.3Y-67.0
X142.3Y-104.9
X142.3Y-122.7
X143.3Y-88.0
X143.4Y-69.0
X143.4Y-107.0
X143.58Y-83.8
X143.59Y-102.85
X144.49Y-130.9
X144.5Y-127.35
X147.48Y-130.96
X147.5Y-127.35
X148.6Y-64.9
X148.6Y-83.8
X148.6Y-102.7
X149.9Y-66.3
X149.9Y-85.2
X149.9Y-127.9
X150.0Y-103.9
X150.1Y-81.6
X150.5Y-101.2
X150.66Y-131.61
X151.5Y-66.8
X151.5Y-127.9
X152.7Y-69.5
X152.8Y-89.0
X152.8Y-107.9
X153.36Y-77.51
X153.54Y-96.53
X153.6Y-115.5
X153.7Y-125.4
X154.0Y-70.0
X154.0Y-89.6
X154.0Y-108.6
X154.8Y-100.7
X154.8Y-101.7
X154.8Y-102.6
X155.0Y-122.5
X155.0Y-125.4
X155.07Y-92.45
X155.08Y-111.48
X155.1Y-73.62
X155.69Y-100.08
X156.2Y-103.2
X156.4Y-102.2
X156.69Y-101.36
X156.9Y-111.63
X156.91Y-73.58
X156.95Y-92.58
X157.0Y-70.0
X157.0Y-89.6
X157.0Y-108.6
X157.3Y-120.9
X158.25Y-94.43
X158.44Y-108.53
X159.3Y-120.8
X159.61Y-100.62
X160.2Y-68.4
X160.52Y-140.97
X161.0Y-83.9
X161.0Y-86.3
X161.1Y-121.5
X161.2Y-88.3
X161.3Y-69.5
X161.3Y-107.3
X162.1Y-124.9
X162.1Y-126.3
X162.3Y-71.4
X162.3Y-90.3
X162.6Y-109.3
X163.17Y-127.3
X163.3Y-103.5
X163.75Y-139.79
X164.375Y-83.45
X164.602Y-82.414
X164.75Y-121.6
X164.95Y-99.3
X165.0Y-84.45
X165.06Y-119.05
X165.1Y-120.52
X165.15Y-101.05
X165.375Y-122.875
X165.6Y-121.675
X165.625Y-83.491
X165.69Y-81.145
X165.703Y-126.64
X167.6Y-105.1
X168.4Y-86.4
X168.8Y-67.5
X168.8Y-68.7
X168.9Y-87.6
X168.95Y-84.17
X169.0Y-106.6
X169.2Y-121.3
X169.9Y-84.2
X169.9Y-91.75
X170.1Y-136.0
X170.4Y-68.7
X170.5Y-87.9
X170.6Y-106.6
X170.9Y-72.1
X171.0Y-110.2
X171.55Y-113.55
X171.6Y-89.95
X171.6Y-92.8
X171.62Y-84.16
X172.4Y-122.1
X172.4Y-125.0
X172.4Y-137.2
X172.41Y-120.02
X173.2Y-72.5
X173.2Y-78.95
X173.2Y-80.65
X173.2Y-91.8
X173.2Y-100.2
X173.3Y-111.1
X173.4Y-120.3
X173.5Y-109.7
X174.0Y-73.3
X174.0Y-75.2
X174.0Y-76.95
X174.0Y-90.6
X174.1Y-78.5
X174.1Y-81.15
X174.25Y-130.4
X174.3Y-111.9
X174.3Y-126.8
X174.8Y-77.0
X174.84Y-121.58
X174.96Y-118.3
X175.7Y-105.36
X175.95Y-118.25
X175.95Y-128.5
X176.67Y-143.26
X176.8Y-130.3
X179.4Y-111.8
X179.5Y-73.042
X179.86Y-75.65
X180.52Y-145.4
X181.9Y-106.7
X182.16Y-99.28
X182.2Y-111.5
X183.05Y-144.4
X184.2Y-82.1
X184.7Y-99.9
X184.74Y-76.4
X184.9Y-85.7
X185.0Y-83.3
X185.1Y-100.7
X185.7Y-81.9
X185.7Y-99.1
X185.782Y-71.653
X186.4Y-73.16
X187.18Y-74.19
X187.4Y-87.0
X188.3Y-96.3
X188.5Y-88.7
X188.5Y-91.4
X188.7Y-93.8
X188.84Y-75.67
X188.9Y-83.7
X189.2Y-92.9
X189.2Y-95.6
X189.2Y-98.0
X189.3Y-85.3
X189.3Y-87.9
X189.3Y-90.5
X190.0Y-79.36
X190.3Y-78.122
X190.4Y-70.9
X190.7Y-99.0
X190.7Y-100.4
T2
X184.46Y-108.0
X189.54Y-108.0
X181.0Y-108.0
X176.86Y-73.042
X176.86Y-75.582
X176.86Y-78.122
X176.86Y-80.662
X176.86Y-83.202
X176.86Y-85.742
X176.86Y-88.282
X176.86Y-90.822
X176.86Y-93.362
X176.86Y-95.902
X176.86Y-98.442
X176.86Y-100.982
X178.186Y-71.772
X178.186Y-74.312
X178.186Y-76.852
X178.186Y-79.392
X178.186Y-81.932
X178.186Y-84.472
X178.186Y-87.012
X178.186Y-89.552
X178.186Y-92.092
X178.186Y-94.632
X178.186Y-97.172
X178.186Y-99.712
X192.1Y-73.042
X192.1Y-75.582
X192.1Y-78.122
X192.1Y-80.662
X192.1Y-83.202
X192.1Y-85.742
X192.1Y-88.282
X192.1Y-90.822
X192.1Y-93.362
X192.1Y-95.902
X192.1Y-98.442
X192.1Y-100.982
X193.406Y-71.772
X193.406Y-74.312
X193.406Y-76.852
X193.406Y-79.392
X193.406Y-81.932
X193.406Y-84.472
X193.406Y-87.012
X193.406Y-89.552
X193.406Y-92.092
X193.406Y-94.632
X193.406Y-97.172
X193.406Y-99.712
X181.0Y-110.3
X184.46Y-110.3
X189.54Y-110.3
X181.3Y-105.3
X183.84Y-105.3
X186.38Y-105.3
X188.92Y-105.3
T4
X192.9Y-103.75
X192.9Y-110.25
T5
X177.75Y-115.75
X192.25Y-124.25
T6
X79.5Y-105.5
X98.5Y-86.75
X79.5Y-86.75
X155.5Y-83.0
X98.5Y-105.75
X169.25Y-130.5
X122.75Y-122.75
T3
G00X183.15Y-114.6
M15
G01X182.65Y-114.6
M16
G05
G00X183.15Y-117.05
M15
G01X182.65Y-117.05
M16
G05
G00X184.65Y-112.85
M15
G01X184.15Y-112.85
M16
G05
G00X184.65Y-118.8
M15
G01X184.15Y-118.8
M16
G05
G00X188.65Y-112.85
M15
G01X188.15Y-112.85
M16
G05
G00X188.65Y-118.8
M15
G01X188.15Y-118.8
M16
G05
G00X191.65Y-112.85
M15
G01X191.15Y-112.85
M16
G05
G00X191.65Y-118.8
M15
G01X191.15Y-118.8
M16
G05
T0
M30
