M48
; DRILL file {KiCad 5.1.5+dfsg1-2~bpo10+1} date Sat Sep  5 13:32:18 2020
; FORMAT={-:-/ absolute / metric / decimal}
; #@! TF.CreationDate,2020-09-05T13:32:18+00:00
; #@! TF.GenerationSoftware,Kicad,Pcbnew,5.1.5+dfsg1-2~bpo10+1
; #@! TF.FileFunction,Plated,1,2,PTH
FMAT,2
METRIC
T1C0.400
T2C0.813
T3C1.000
T4C1.200
T5C1.300
T6C1.500
T7C2.200
T8C4.800
%
G90
G05
T1
X66.6Y-73.6
X66.7Y-92.6
X66.8Y-111.7
X67.4Y-73.8
X67.5Y-92.8
X67.7Y-111.7
X72.2Y-94.3
X72.6Y-69.2
X72.6Y-88.5
X72.6Y-107.4
X72.9Y-95.2
X73.1Y-113.8
X73.9Y-87.2
X73.9Y-90.2
X74.0Y-108.8
X74.1Y-71.3
X74.1Y-106.1
X74.3Y-94.8
X74.7Y-113.5
X76.9Y-75.4
X80.7Y-97.2
X81.1Y-115.7
X81.4Y-92.9
X81.5Y-97.8
X82.9Y-94.6
X83.3Y-113.4
X83.6Y-87.1
X83.6Y-88.8
X84.8Y-88.7
X85.0Y-104.9
X85.1Y-85.9
X85.2Y-110.5
X85.3Y-109.6
X85.6Y-92.6
X85.8Y-73.6
X86.4Y-92.7
X86.8Y-73.7
X88.575Y-85.975
X88.7Y-104.9
X89.375Y-85.925
X89.55Y-104.9
X91.4Y-107.7
X91.6Y-69.5
X91.7Y-88.5
X92.9Y-105.0
X93.0Y-89.8
X93.1Y-71.1
X93.2Y-87.0
X93.2Y-108.6
X93.6Y-104.5
X93.9Y-85.2
X95.2Y-107.7
X95.6Y-81.6
X95.7Y-74.5
X95.8Y-94.2
X95.8Y-99.1
X98.7Y-110.7
X99.2Y-73.1
X99.2Y-109.9
X99.4Y-74.8
X99.4Y-111.5
X100.1Y-72.1
X100.2Y-91.4
X100.2Y-112.5
X100.4Y-73.8
X102.5Y-89.6
X104.2Y-105.0
X104.2Y-108.6
X104.3Y-85.9
X104.6Y-68.9
X104.8Y-109.4
X105.4Y-69.0
X105.4Y-88.0
X105.6Y-106.9
X110.0Y-79.7
X110.5Y-98.4
X110.6Y-64.8
X110.7Y-83.8
X110.8Y-102.9
X110.8Y-117.5
X111.7Y-65.0
X112.0Y-85.3
X112.0Y-103.9
X112.8Y-100.6
X112.9Y-81.7
X113.9Y-64.8
X114.7Y-70.0
X114.8Y-89.1
X114.8Y-101.3
X117.9Y-106.3
X119.0Y-87.3
X119.0Y-106.3
X119.3Y-98.5
X120.9Y-98.5
X121.0Y-87.3
X121.0Y-106.3
X121.4Y-64.6
X122.9Y-103.4
X123.0Y-78.5
X123.0Y-81.6
X123.1Y-102.5
X123.2Y-64.6
X123.2Y-83.4
X123.225Y-115.925
X124.3Y-66.6
X124.4Y-85.5
X125.2Y-98.9
X126.575Y-78.85
X126.575Y-116.825
X127.375Y-78.825
X127.575Y-116.825
X129.4Y-114.9
X129.7Y-62.5
X129.7Y-96.1
X129.9Y-81.5
X130.6Y-76.7
X130.8Y-102.5
X130.9Y-83.3
X131.0Y-63.6
X131.0Y-116.8
X131.2Y-78.7
X131.5Y-122.1
X131.7Y-101.6
X132.1Y-78.7
X132.4Y-124.6
X132.8Y-120.9
X133.7Y-67.4
X133.7Y-79.2
X133.7Y-86.6
X133.7Y-105.5
X133.9Y-119.6
X134.7Y-118.9
X137.9Y-108.4
X138.2Y-89.5
X138.3Y-99.5
X138.3Y-100.6
X139.2Y-122.3
X139.7Y-100.6
X139.8Y-99.6
X139.9Y-89.5
X140.0Y-108.4
X140.4Y-123.7
X142.2Y-86.0
X142.3Y-67.0
X142.3Y-104.9
X142.3Y-122.7
X143.3Y-88.0
X143.4Y-69.0
X143.4Y-107.0
X148.3Y-98.5
X148.4Y-79.4
X148.4Y-117.5
X148.6Y-64.9
X148.6Y-83.8
X148.6Y-102.7
X149.9Y-66.3
X149.9Y-85.2
X149.9Y-127.9
X150.0Y-103.9
X150.1Y-81.6
X150.4Y-118.3
X150.5Y-101.2
X150.8Y-116.6
X151.5Y-66.8
X151.5Y-127.9
X152.7Y-69.5
X152.8Y-89.0
X152.8Y-107.9
X153.7Y-125.4
X154.8Y-100.7
X154.8Y-101.7
X154.8Y-102.6
X155.0Y-122.5
X155.0Y-125.4
X156.2Y-103.2
X156.4Y-102.2
X157.3Y-120.9
X159.3Y-120.8
X160.2Y-68.4
X161.0Y-83.9
X161.0Y-86.3
X161.1Y-121.5
X161.2Y-88.3
X161.3Y-69.5
X161.3Y-107.3
X162.1Y-124.9
X162.1Y-126.3
X162.3Y-71.4
X162.3Y-90.3
X162.6Y-109.3
X163.3Y-103.5
X163.4Y-127.3
X164.575Y-83.5
X164.7Y-121.525
X165.375Y-83.525
X165.5Y-121.525
X165.5Y-122.8
X165.7Y-125.6
X167.6Y-105.1
X168.4Y-86.4
X168.8Y-67.5
X168.8Y-68.7
X168.9Y-87.6
X169.0Y-82.4
X169.0Y-106.6
X169.2Y-121.3
X170.1Y-136.0
X170.4Y-68.7
X170.5Y-87.9
X170.6Y-106.6
X170.8Y-91.4
X170.9Y-72.1
X170.9Y-98.8
X171.0Y-110.2
X171.6Y-81.2
X171.6Y-123.0
X171.6Y-125.6
X171.6Y-127.8
X172.4Y-118.9
X172.4Y-122.1
X172.4Y-125.0
X172.4Y-137.2
X173.2Y-72.5
X173.2Y-78.1
X173.2Y-80.7
X173.2Y-91.4
X173.2Y-100.2
X173.3Y-111.1
X173.4Y-120.3
X173.5Y-109.7
X174.0Y-73.3
X174.0Y-75.2
X174.0Y-77.3
X174.0Y-90.6
X174.1Y-78.5
X174.1Y-80.2
X174.3Y-111.9
X174.3Y-126.8
X174.5Y-130.5
X174.8Y-77.0
X175.7Y-105.36
X176.8Y-130.3
X179.4Y-111.8
X179.5Y-73.042
X180.6Y-75.6
X181.9Y-106.7
X182.2Y-111.5
X183.6Y-98.2
X184.2Y-82.1
X184.5Y-73.1
X184.7Y-99.9
X184.818Y-75.582
X184.9Y-85.7
X185.0Y-83.3
X185.1Y-100.7
X185.7Y-79.4
X185.7Y-81.9
X185.7Y-99.1
X185.8Y-71.7
X186.082Y-75.582
X186.2Y-74.2
X187.4Y-87.0
X188.3Y-96.3
X188.5Y-88.7
X188.5Y-91.4
X188.7Y-93.8
X188.9Y-83.7
X189.2Y-92.9
X189.2Y-95.6
X189.2Y-98.0
X189.3Y-85.3
X189.3Y-87.9
X189.3Y-90.5
X190.3Y-78.122
X190.7Y-99.0
X190.7Y-100.4
T2
X62.0Y-73.315
X62.0Y-80.935
X157.0Y-106.565
X157.0Y-114.185
X116.0Y-106.565
X116.0Y-114.185
X184.46Y-110.3
X189.54Y-110.3
X181.0Y-110.3
X181.0Y-108.0
X184.46Y-108.0
X189.54Y-108.0
X116.0Y-87.565
X116.0Y-95.185
X144.5Y-125.94
X144.5Y-133.56
X62.0Y-92.315
X62.0Y-99.935
X116.0Y-68.565
X116.0Y-76.185
X154.0Y-106.565
X154.0Y-114.185
X157.0Y-68.565
X157.0Y-76.185
X157.0Y-87.565
X157.0Y-95.185
X176.86Y-73.042
X176.86Y-75.582
X176.86Y-78.122
X176.86Y-80.662
X176.86Y-83.202
X176.86Y-85.742
X176.86Y-88.282
X176.86Y-90.822
X176.86Y-93.362
X176.86Y-95.902
X176.86Y-98.442
X176.86Y-100.982
X178.186Y-71.772
X178.186Y-74.312
X178.186Y-76.852
X178.186Y-79.392
X178.186Y-81.932
X178.186Y-84.472
X178.186Y-87.012
X178.186Y-89.552
X178.186Y-92.092
X178.186Y-94.632
X178.186Y-97.172
X178.186Y-99.712
X192.1Y-73.042
X192.1Y-75.582
X192.1Y-78.122
X192.1Y-80.662
X192.1Y-83.202
X192.1Y-85.742
X192.1Y-88.282
X192.1Y-90.822
X192.1Y-93.362
X192.1Y-95.902
X192.1Y-98.442
X192.1Y-100.982
X193.406Y-71.772
X193.406Y-74.312
X193.406Y-76.852
X193.406Y-79.392
X193.406Y-81.932
X193.406Y-84.472
X193.406Y-87.012
X193.406Y-89.552
X193.406Y-92.092
X193.406Y-94.632
X193.406Y-97.172
X193.406Y-99.712
X135.0Y-104.19
X135.0Y-111.81
X97.0Y-111.315
X97.0Y-118.935
X128.5Y-126.19
X128.5Y-133.81
X154.0Y-68.565
X154.0Y-76.185
X181.3Y-105.3
X183.84Y-105.3
X186.38Y-105.3
X188.92Y-105.3
X135.0Y-85.19
X135.0Y-92.81
X97.0Y-92.315
X97.0Y-99.935
X147.5Y-125.94
X147.5Y-133.56
X97.0Y-73.315
X97.0Y-80.935
X154.0Y-87.565
X154.0Y-95.185
X135.0Y-66.19
X135.0Y-73.81
X62.0Y-111.315
X62.0Y-118.935
T4
X102.9Y-95.275
X108.0Y-97.275
X113.1Y-95.275
X140.9Y-95.275
X146.0Y-97.275
X151.1Y-95.275
X64.9Y-81.025
X70.0Y-83.025
X75.1Y-81.025
X131.4Y-133.9
X136.5Y-135.9
X141.6Y-133.9
X102.9Y-76.275
X108.0Y-78.275
X113.1Y-76.275
X102.9Y-114.275
X108.0Y-116.275
X113.1Y-114.275
X140.9Y-76.275
X146.0Y-78.275
X151.1Y-76.275
X159.9Y-116.65
X165.0Y-118.65
X170.1Y-116.65
X83.9Y-100.025
X89.0Y-102.025
X94.1Y-100.025
X83.9Y-119.025
X89.0Y-121.025
X94.1Y-119.025
X121.9Y-92.9
X127.0Y-94.9
X132.1Y-92.9
X180.577Y-142.867
X184.86Y-139.45
X185.677Y-134.033
X64.9Y-119.025
X70.0Y-121.025
X75.1Y-119.025
X159.9Y-78.65
X165.0Y-80.65
X170.1Y-78.65
X121.9Y-111.9
X127.0Y-113.9
X132.1Y-111.9
X121.9Y-73.9
X127.0Y-75.9
X132.1Y-73.9
X83.9Y-81.025
X89.0Y-83.025
X94.1Y-81.025
X159.9Y-97.65
X165.0Y-99.65
X170.1Y-97.65
X140.9Y-114.275
X146.0Y-116.275
X151.1Y-114.275
X151.564Y-135.197
X155.973Y-138.449
X161.417Y-137.837
X64.9Y-100.025
X70.0Y-102.025
X75.1Y-100.025
T5
X192.9Y-103.75
X192.9Y-110.25
T6
X66.19Y-79.665
X67.46Y-81.125
X67.46Y-81.625
X67.46Y-82.205
X72.54Y-81.125
X72.54Y-81.625
X72.54Y-82.205
X73.81Y-79.665
X132.69Y-132.54
X133.96Y-134.0
X133.96Y-134.5
X133.96Y-135.08
X139.04Y-134.0
X139.04Y-134.5
X139.04Y-135.08
X140.31Y-132.54
X104.19Y-74.915
X105.46Y-76.375
X105.46Y-76.875
X105.46Y-77.455
X110.54Y-76.375
X110.54Y-76.875
X110.54Y-77.455
X111.81Y-74.915
X104.19Y-112.915
X105.46Y-114.375
X105.46Y-114.875
X105.46Y-115.455
X110.54Y-114.375
X110.54Y-114.875
X110.54Y-115.455
X111.81Y-112.915
X142.19Y-74.915
X143.46Y-76.375
X143.46Y-76.875
X143.46Y-77.455
X148.54Y-76.375
X148.54Y-76.875
X148.54Y-77.455
X149.81Y-74.915
X161.19Y-115.29
X162.46Y-116.75
X162.46Y-117.25
X162.46Y-117.83
X167.54Y-116.75
X167.54Y-117.25
X167.54Y-117.83
X168.81Y-115.29
X85.19Y-98.665
X86.46Y-100.125
X86.46Y-100.625
X86.46Y-101.205
X91.54Y-100.125
X91.54Y-100.625
X91.54Y-101.205
X92.81Y-98.665
X85.19Y-117.665
X86.46Y-119.125
X86.46Y-119.625
X86.46Y-120.205
X91.54Y-119.125
X91.54Y-119.625
X91.54Y-120.205
X92.81Y-117.665
X123.19Y-91.54
X124.46Y-93.0
X124.46Y-93.5
X124.46Y-94.08
X129.54Y-93.0
X129.54Y-93.5
X129.54Y-94.08
X130.81Y-91.54
X180.045Y-141.07
X181.944Y-140.7
X182.377Y-140.95
X182.879Y-141.24
X183.855Y-134.47
X184.484Y-136.3
X184.917Y-136.55
X185.419Y-136.84
X66.19Y-117.665
X67.46Y-119.125
X67.46Y-119.625
X67.46Y-120.205
X72.54Y-119.125
X72.54Y-119.625
X72.54Y-120.205
X73.81Y-117.665
X161.19Y-77.29
X162.46Y-78.75
X162.46Y-79.25
X162.46Y-79.83
X167.54Y-78.75
X167.54Y-79.25
X167.54Y-79.83
X168.81Y-77.29
X123.19Y-110.54
X124.46Y-112.0
X124.46Y-112.5
X124.46Y-113.08
X129.54Y-112.0
X129.54Y-112.5
X129.54Y-113.08
X130.81Y-110.54
X123.19Y-72.54
X124.46Y-74.0
X124.46Y-74.5
X124.46Y-75.08
X129.54Y-74.0
X129.54Y-74.5
X129.54Y-75.08
X130.81Y-72.54
X85.19Y-79.665
X86.46Y-81.125
X86.46Y-81.625
X86.46Y-82.205
X91.54Y-81.125
X91.54Y-81.625
X91.54Y-82.205
X92.81Y-79.665
X161.19Y-96.29
X162.46Y-97.75
X162.46Y-98.25
X162.46Y-98.83
X167.54Y-97.75
X167.54Y-98.25
X167.54Y-98.83
X168.81Y-96.29
X142.19Y-112.915
X143.46Y-114.375
X143.46Y-114.875
X143.46Y-115.455
X148.54Y-114.375
X148.54Y-114.875
X148.54Y-115.455
X149.81Y-112.915
X153.162Y-134.217
X153.732Y-137.0
X153.882Y-136.439
X154.011Y-135.956
X158.639Y-138.314
X158.789Y-137.754
X158.918Y-137.271
X160.523Y-136.19
X66.19Y-98.665
X67.46Y-100.125
X67.46Y-100.625
X67.46Y-101.205
X72.54Y-100.125
X72.54Y-100.625
X72.54Y-101.205
X73.81Y-98.665
X104.19Y-93.915
X105.46Y-95.375
X105.46Y-95.875
X105.46Y-96.455
X110.54Y-95.375
X110.54Y-95.875
X110.54Y-96.455
X111.81Y-93.915
X142.19Y-93.915
X143.46Y-95.375
X143.46Y-95.875
X143.46Y-96.455
X148.54Y-95.375
X148.54Y-95.875
X148.54Y-96.455
X149.81Y-93.915
T7
X177.75Y-115.75
X192.25Y-124.25
T8
X98.5Y-86.75
X122.75Y-122.75
X79.5Y-86.75
X155.5Y-83.0
X98.5Y-105.75
X79.5Y-105.5
X169.25Y-130.5
T3
G00X183.15Y-114.6
M15
G01X182.65Y-114.6
M16
G05
G00X183.15Y-117.05
M15
G01X182.65Y-117.05
M16
G05
G00X184.65Y-112.85
M15
G01X184.15Y-112.85
M16
G05
G00X184.65Y-118.8
M15
G01X184.15Y-118.8
M16
G05
G00X188.65Y-112.85
M15
G01X188.15Y-112.85
M16
G05
G00X188.65Y-118.8
M15
G01X188.15Y-118.8
M16
G05
G00X191.65Y-112.85
M15
G01X191.15Y-112.85
M16
G05
G00X191.65Y-118.8
M15
G01X191.15Y-118.8
M16
G05
T0
M30
