G04 #@! TF.GenerationSoftware,KiCad,Pcbnew,5.1.5+dfsg1-2~bpo10+1*
G04 #@! TF.CreationDate,2020-09-05T13:32:18+00:00*
G04 #@! TF.ProjectId,corne-classic,636f726e-652d-4636-9c61-737369632e6b,1.1*
G04 #@! TF.SameCoordinates,Original*
G04 #@! TF.FileFunction,Soldermask,Bot*
G04 #@! TF.FilePolarity,Negative*
%FSLAX46Y46*%
G04 Gerber Fmt 4.6, Leading zero omitted, Abs format (unit mm)*
G04 Created by KiCad (PCBNEW 5.1.5+dfsg1-2~bpo10+1) date 2020-09-05 13:32:18*
%MOMM*%
%LPD*%
G04 APERTURE LIST*
%ADD10C,0.125000*%
%ADD11C,1.797000*%
%ADD12O,2.900000X2.100000*%
%ADD13C,1.600000*%
%ADD14R,2.400000X1.400000*%
%ADD15C,1.650000*%
%ADD16C,4.400000*%
%ADD17C,2.300000*%
%ADD18C,2.600000*%
%ADD19C,2.800000*%
%ADD20C,1.950000*%
%ADD21C,2.100000*%
%ADD22C,1.400000*%
%ADD23C,1.924000*%
%ADD24R,2.000000X1.400000*%
%ADD25C,0.100000*%
%ADD26R,1.797000X1.797000*%
%ADD27R,1.350000X1.700000*%
%ADD28R,1.543000X1.035000*%
%ADD29R,1.924000X1.924000*%
%ADD30C,5.400000*%
%ADD31C,2.400000*%
G04 APERTURE END LIST*
D10*
X118509226Y-121044642D02*
X118556845Y-121092261D01*
X118699702Y-121139880D01*
X118794940Y-121139880D01*
X118937797Y-121092261D01*
X119033035Y-120997023D01*
X119080654Y-120901785D01*
X119128273Y-120711309D01*
X119128273Y-120568452D01*
X119080654Y-120377976D01*
X119033035Y-120282738D01*
X118937797Y-120187500D01*
X118794940Y-120139880D01*
X118699702Y-120139880D01*
X118556845Y-120187500D01*
X118509226Y-120235119D01*
X117937797Y-121139880D02*
X118033035Y-121092261D01*
X118080654Y-121044642D01*
X118128273Y-120949404D01*
X118128273Y-120663690D01*
X118080654Y-120568452D01*
X118033035Y-120520833D01*
X117937797Y-120473214D01*
X117794940Y-120473214D01*
X117699702Y-120520833D01*
X117652083Y-120568452D01*
X117604464Y-120663690D01*
X117604464Y-120949404D01*
X117652083Y-121044642D01*
X117699702Y-121092261D01*
X117794940Y-121139880D01*
X117937797Y-121139880D01*
X117175892Y-121139880D02*
X117175892Y-120473214D01*
X117175892Y-120663690D02*
X117128273Y-120568452D01*
X117080654Y-120520833D01*
X116985416Y-120473214D01*
X116890178Y-120473214D01*
X116556845Y-120473214D02*
X116556845Y-121139880D01*
X116556845Y-120568452D02*
X116509226Y-120520833D01*
X116413988Y-120473214D01*
X116271130Y-120473214D01*
X116175892Y-120520833D01*
X116128273Y-120616071D01*
X116128273Y-121139880D01*
X115271130Y-121092261D02*
X115366369Y-121139880D01*
X115556845Y-121139880D01*
X115652083Y-121092261D01*
X115699702Y-120997023D01*
X115699702Y-120616071D01*
X115652083Y-120520833D01*
X115556845Y-120473214D01*
X115366369Y-120473214D01*
X115271130Y-120520833D01*
X115223511Y-120616071D01*
X115223511Y-120711309D01*
X115699702Y-120806547D01*
X113461607Y-121044642D02*
X113509226Y-121092261D01*
X113652083Y-121139880D01*
X113747321Y-121139880D01*
X113890178Y-121092261D01*
X113985416Y-120997023D01*
X114033035Y-120901785D01*
X114080654Y-120711309D01*
X114080654Y-120568452D01*
X114033035Y-120377976D01*
X113985416Y-120282738D01*
X113890178Y-120187500D01*
X113747321Y-120139880D01*
X113652083Y-120139880D01*
X113509226Y-120187500D01*
X113461607Y-120235119D01*
X112890178Y-121139880D02*
X112985416Y-121092261D01*
X113033035Y-120997023D01*
X113033035Y-120139880D01*
X112080654Y-121139880D02*
X112080654Y-120616071D01*
X112128273Y-120520833D01*
X112223511Y-120473214D01*
X112413988Y-120473214D01*
X112509226Y-120520833D01*
X112080654Y-121092261D02*
X112175892Y-121139880D01*
X112413988Y-121139880D01*
X112509226Y-121092261D01*
X112556845Y-120997023D01*
X112556845Y-120901785D01*
X112509226Y-120806547D01*
X112413988Y-120758928D01*
X112175892Y-120758928D01*
X112080654Y-120711309D01*
X111652083Y-121092261D02*
X111556845Y-121139880D01*
X111366369Y-121139880D01*
X111271130Y-121092261D01*
X111223511Y-120997023D01*
X111223511Y-120949404D01*
X111271130Y-120854166D01*
X111366369Y-120806547D01*
X111509226Y-120806547D01*
X111604464Y-120758928D01*
X111652083Y-120663690D01*
X111652083Y-120616071D01*
X111604464Y-120520833D01*
X111509226Y-120473214D01*
X111366369Y-120473214D01*
X111271130Y-120520833D01*
X110842559Y-121092261D02*
X110747321Y-121139880D01*
X110556845Y-121139880D01*
X110461607Y-121092261D01*
X110413988Y-120997023D01*
X110413988Y-120949404D01*
X110461607Y-120854166D01*
X110556845Y-120806547D01*
X110699702Y-120806547D01*
X110794940Y-120758928D01*
X110842559Y-120663690D01*
X110842559Y-120616071D01*
X110794940Y-120520833D01*
X110699702Y-120473214D01*
X110556845Y-120473214D01*
X110461607Y-120520833D01*
X109985416Y-121139880D02*
X109985416Y-120473214D01*
X109985416Y-120139880D02*
X110033035Y-120187500D01*
X109985416Y-120235119D01*
X109937797Y-120187500D01*
X109985416Y-120139880D01*
X109985416Y-120235119D01*
X109080654Y-121092261D02*
X109175892Y-121139880D01*
X109366369Y-121139880D01*
X109461607Y-121092261D01*
X109509226Y-121044642D01*
X109556845Y-120949404D01*
X109556845Y-120663690D01*
X109509226Y-120568452D01*
X109461607Y-120520833D01*
X109366369Y-120473214D01*
X109175892Y-120473214D01*
X109080654Y-120520833D01*
X107985416Y-120473214D02*
X107747321Y-121139880D01*
X107509226Y-120473214D01*
X107175892Y-120235119D02*
X107128273Y-120187500D01*
X107033035Y-120139880D01*
X106794940Y-120139880D01*
X106699702Y-120187500D01*
X106652083Y-120235119D01*
X106604464Y-120330357D01*
X106604464Y-120425595D01*
X106652083Y-120568452D01*
X107223511Y-121139880D01*
X106604464Y-121139880D01*
X106175892Y-121044642D02*
X106128273Y-121092261D01*
X106175892Y-121139880D01*
X106223511Y-121092261D01*
X106175892Y-121044642D01*
X106175892Y-121139880D01*
X105509226Y-120139880D02*
X105413988Y-120139880D01*
X105318750Y-120187500D01*
X105271130Y-120235119D01*
X105223511Y-120330357D01*
X105175892Y-120520833D01*
X105175892Y-120758928D01*
X105223511Y-120949404D01*
X105271130Y-121044642D01*
X105318750Y-121092261D01*
X105413988Y-121139880D01*
X105509226Y-121139880D01*
X105604464Y-121092261D01*
X105652083Y-121044642D01*
X105699702Y-120949404D01*
X105747321Y-120758928D01*
X105747321Y-120520833D01*
X105699702Y-120330357D01*
X105652083Y-120235119D01*
X105604464Y-120187500D01*
X105509226Y-120139880D01*
X119080654Y-122764880D02*
X119080654Y-121764880D01*
X118699702Y-121764880D01*
X118604464Y-121812500D01*
X118556845Y-121860119D01*
X118509226Y-121955357D01*
X118509226Y-122098214D01*
X118556845Y-122193452D01*
X118604464Y-122241071D01*
X118699702Y-122288690D01*
X119080654Y-122288690D01*
X117509226Y-122669642D02*
X117556845Y-122717261D01*
X117699702Y-122764880D01*
X117794940Y-122764880D01*
X117937797Y-122717261D01*
X118033035Y-122622023D01*
X118080654Y-122526785D01*
X118128273Y-122336309D01*
X118128273Y-122193452D01*
X118080654Y-122002976D01*
X118033035Y-121907738D01*
X117937797Y-121812500D01*
X117794940Y-121764880D01*
X117699702Y-121764880D01*
X117556845Y-121812500D01*
X117509226Y-121860119D01*
X116747321Y-122241071D02*
X116604464Y-122288690D01*
X116556845Y-122336309D01*
X116509226Y-122431547D01*
X116509226Y-122574404D01*
X116556845Y-122669642D01*
X116604464Y-122717261D01*
X116699702Y-122764880D01*
X117080654Y-122764880D01*
X117080654Y-121764880D01*
X116747321Y-121764880D01*
X116652083Y-121812500D01*
X116604464Y-121860119D01*
X116556845Y-121955357D01*
X116556845Y-122050595D01*
X116604464Y-122145833D01*
X116652083Y-122193452D01*
X116747321Y-122241071D01*
X117080654Y-122241071D01*
X114890178Y-122764880D02*
X114890178Y-121764880D01*
X114890178Y-122717261D02*
X114985416Y-122764880D01*
X115175892Y-122764880D01*
X115271130Y-122717261D01*
X115318750Y-122669642D01*
X115366369Y-122574404D01*
X115366369Y-122288690D01*
X115318750Y-122193452D01*
X115271130Y-122145833D01*
X115175892Y-122098214D01*
X114985416Y-122098214D01*
X114890178Y-122145833D01*
X114033035Y-122717261D02*
X114128273Y-122764880D01*
X114318750Y-122764880D01*
X114413988Y-122717261D01*
X114461607Y-122622023D01*
X114461607Y-122241071D01*
X114413988Y-122145833D01*
X114318750Y-122098214D01*
X114128273Y-122098214D01*
X114033035Y-122145833D01*
X113985416Y-122241071D01*
X113985416Y-122336309D01*
X114461607Y-122431547D01*
X113604464Y-122717261D02*
X113509226Y-122764880D01*
X113318750Y-122764880D01*
X113223511Y-122717261D01*
X113175892Y-122622023D01*
X113175892Y-122574404D01*
X113223511Y-122479166D01*
X113318750Y-122431547D01*
X113461607Y-122431547D01*
X113556845Y-122383928D01*
X113604464Y-122288690D01*
X113604464Y-122241071D01*
X113556845Y-122145833D01*
X113461607Y-122098214D01*
X113318750Y-122098214D01*
X113223511Y-122145833D01*
X112747321Y-122764880D02*
X112747321Y-122098214D01*
X112747321Y-121764880D02*
X112794940Y-121812500D01*
X112747321Y-121860119D01*
X112699702Y-121812500D01*
X112747321Y-121764880D01*
X112747321Y-121860119D01*
X111842559Y-122098214D02*
X111842559Y-122907738D01*
X111890178Y-123002976D01*
X111937797Y-123050595D01*
X112033035Y-123098214D01*
X112175892Y-123098214D01*
X112271130Y-123050595D01*
X111842559Y-122717261D02*
X111937797Y-122764880D01*
X112128273Y-122764880D01*
X112223511Y-122717261D01*
X112271130Y-122669642D01*
X112318750Y-122574404D01*
X112318750Y-122288690D01*
X112271130Y-122193452D01*
X112223511Y-122145833D01*
X112128273Y-122098214D01*
X111937797Y-122098214D01*
X111842559Y-122145833D01*
X111366369Y-122098214D02*
X111366369Y-122764880D01*
X111366369Y-122193452D02*
X111318750Y-122145833D01*
X111223511Y-122098214D01*
X111080654Y-122098214D01*
X110985416Y-122145833D01*
X110937797Y-122241071D01*
X110937797Y-122764880D01*
X110080654Y-122717261D02*
X110175892Y-122764880D01*
X110366369Y-122764880D01*
X110461607Y-122717261D01*
X110509226Y-122622023D01*
X110509226Y-122241071D01*
X110461607Y-122145833D01*
X110366369Y-122098214D01*
X110175892Y-122098214D01*
X110080654Y-122145833D01*
X110033035Y-122241071D01*
X110033035Y-122336309D01*
X110509226Y-122431547D01*
X109175892Y-122764880D02*
X109175892Y-121764880D01*
X109175892Y-122717261D02*
X109271130Y-122764880D01*
X109461607Y-122764880D01*
X109556845Y-122717261D01*
X109604464Y-122669642D01*
X109652083Y-122574404D01*
X109652083Y-122288690D01*
X109604464Y-122193452D01*
X109556845Y-122145833D01*
X109461607Y-122098214D01*
X109271130Y-122098214D01*
X109175892Y-122145833D01*
X107937797Y-122764880D02*
X107937797Y-121764880D01*
X107937797Y-122145833D02*
X107842559Y-122098214D01*
X107652083Y-122098214D01*
X107556845Y-122145833D01*
X107509226Y-122193452D01*
X107461607Y-122288690D01*
X107461607Y-122574404D01*
X107509226Y-122669642D01*
X107556845Y-122717261D01*
X107652083Y-122764880D01*
X107842559Y-122764880D01*
X107937797Y-122717261D01*
X107128273Y-122098214D02*
X106890178Y-122764880D01*
X106652083Y-122098214D02*
X106890178Y-122764880D01*
X106985416Y-123002976D01*
X107033035Y-123050595D01*
X107128273Y-123098214D01*
X105652083Y-122098214D02*
X105271130Y-122098214D01*
X105509226Y-122764880D02*
X105509226Y-121907738D01*
X105461607Y-121812500D01*
X105366369Y-121764880D01*
X105271130Y-121764880D01*
X104794940Y-122764880D02*
X104890178Y-122717261D01*
X104937797Y-122669642D01*
X104985416Y-122574404D01*
X104985416Y-122288690D01*
X104937797Y-122193452D01*
X104890178Y-122145833D01*
X104794940Y-122098214D01*
X104652083Y-122098214D01*
X104556845Y-122145833D01*
X104509226Y-122193452D01*
X104461607Y-122288690D01*
X104461607Y-122574404D01*
X104509226Y-122669642D01*
X104556845Y-122717261D01*
X104652083Y-122764880D01*
X104794940Y-122764880D01*
X103890178Y-122764880D02*
X103985416Y-122717261D01*
X104033035Y-122669642D01*
X104080654Y-122574404D01*
X104080654Y-122288690D01*
X104033035Y-122193452D01*
X103985416Y-122145833D01*
X103890178Y-122098214D01*
X103747321Y-122098214D01*
X103652083Y-122145833D01*
X103604464Y-122193452D01*
X103556845Y-122288690D01*
X103556845Y-122574404D01*
X103604464Y-122669642D01*
X103652083Y-122717261D01*
X103747321Y-122764880D01*
X103890178Y-122764880D01*
X103175892Y-122717261D02*
X103080654Y-122764880D01*
X102890178Y-122764880D01*
X102794940Y-122717261D01*
X102747321Y-122622023D01*
X102747321Y-122574404D01*
X102794940Y-122479166D01*
X102890178Y-122431547D01*
X103033035Y-122431547D01*
X103128273Y-122383928D01*
X103175892Y-122288690D01*
X103175892Y-122241071D01*
X103128273Y-122145833D01*
X103033035Y-122098214D01*
X102890178Y-122098214D01*
X102794940Y-122145833D01*
X102461607Y-122098214D02*
X102080654Y-122098214D01*
X102318750Y-121764880D02*
X102318750Y-122622023D01*
X102271130Y-122717261D01*
X102175892Y-122764880D01*
X102080654Y-122764880D01*
X101318750Y-122764880D02*
X101318750Y-122241071D01*
X101366369Y-122145833D01*
X101461607Y-122098214D01*
X101652083Y-122098214D01*
X101747321Y-122145833D01*
X101318750Y-122717261D02*
X101413988Y-122764880D01*
X101652083Y-122764880D01*
X101747321Y-122717261D01*
X101794940Y-122622023D01*
X101794940Y-122526785D01*
X101747321Y-122431547D01*
X101652083Y-122383928D01*
X101413988Y-122383928D01*
X101318750Y-122336309D01*
X100842559Y-122098214D02*
X100842559Y-122764880D01*
X100842559Y-122193452D02*
X100794940Y-122145833D01*
X100699702Y-122098214D01*
X100556845Y-122098214D01*
X100461607Y-122145833D01*
X100413988Y-122241071D01*
X100413988Y-122764880D01*
D11*
X188920000Y-105300000D03*
X186380000Y-105300000D03*
X183840000Y-105300000D03*
X181300000Y-105300000D03*
D12*
X182900000Y-114600000D03*
X184400000Y-118800000D03*
X188400000Y-118800000D03*
X191400000Y-118800000D03*
D13*
X186200000Y-116700000D03*
X193200000Y-116700000D03*
D12*
X188400000Y-112850000D03*
X191400000Y-112850000D03*
X182900000Y-117050000D03*
X184400000Y-112850000D03*
D13*
X193200000Y-114950000D03*
X186200000Y-114950000D03*
D14*
X162800000Y-122375000D03*
X162800000Y-120625000D03*
X167200000Y-120625000D03*
X167200000Y-122375000D03*
X167200000Y-82625000D03*
X167200000Y-84375000D03*
X162800000Y-84375000D03*
X162800000Y-82625000D03*
X129200000Y-77925000D03*
X129200000Y-79675000D03*
X124800000Y-79675000D03*
X124800000Y-77925000D03*
X91200000Y-85025000D03*
X91200000Y-86775000D03*
X86800000Y-86775000D03*
X86800000Y-85025000D03*
X86800000Y-105775000D03*
X86800000Y-104025000D03*
X91200000Y-104025000D03*
X91200000Y-105775000D03*
X124800000Y-117675000D03*
X124800000Y-115925000D03*
X129200000Y-115925000D03*
X129200000Y-117675000D03*
D15*
X181045283Y-142784247D02*
X180109715Y-142949213D01*
D16*
X179750000Y-136500000D03*
D17*
X182500000Y-131736860D03*
X177000000Y-141263140D03*
D15*
X185515039Y-133586916D02*
X185839959Y-134479624D01*
D18*
X184859550Y-139450000D03*
D19*
X182879409Y-141239705D03*
D20*
X183640942Y-133883135D02*
X184068468Y-135057751D01*
D19*
X185419409Y-136840295D03*
D20*
X180660210Y-140961027D02*
X179429200Y-141178087D01*
D19*
X182377114Y-140949705D03*
X181944102Y-140699705D03*
X184484102Y-136300295D03*
X184917113Y-136550295D03*
D21*
X177210000Y-140899409D03*
X182290000Y-132100591D03*
D22*
X173502693Y-138920653D03*
X178722693Y-129879347D03*
D23*
X192100000Y-73042000D03*
X192100000Y-75582000D03*
X192100000Y-78122000D03*
X192100000Y-80662000D03*
X192100000Y-83202000D03*
X192100000Y-85742000D03*
X192100000Y-88282000D03*
X192100000Y-90822000D03*
X192100000Y-93362000D03*
X192100000Y-95902000D03*
X192100000Y-98442000D03*
X192100000Y-100982000D03*
X176860000Y-100982000D03*
X176860000Y-98442000D03*
X176860000Y-95902000D03*
X176860000Y-93362000D03*
X176860000Y-90822000D03*
X176860000Y-88282000D03*
X176860000Y-85742000D03*
X176860000Y-83202000D03*
X176860000Y-80662000D03*
X176860000Y-78122000D03*
X176860000Y-75582000D03*
X176860000Y-73042000D03*
X193406400Y-71772000D03*
X193406400Y-74312000D03*
X193406400Y-76852000D03*
X193406400Y-79392000D03*
X193406400Y-81932000D03*
X193406400Y-84472000D03*
X193406400Y-87012000D03*
X193406400Y-89552000D03*
X193406400Y-92092000D03*
X193406400Y-94632000D03*
X193406400Y-97172000D03*
X193406400Y-99712000D03*
X178186400Y-99712000D03*
X178186400Y-97172000D03*
X178186400Y-94632000D03*
X178186400Y-92092000D03*
X178186400Y-89552000D03*
X178186400Y-87012000D03*
X178186400Y-84472000D03*
X178186400Y-81932000D03*
X178186400Y-79392000D03*
X178186400Y-76852000D03*
X178186400Y-74312000D03*
X178186400Y-71772000D03*
D24*
X67600000Y-72500000D03*
X67600000Y-70750000D03*
X72400000Y-70750000D03*
X72400000Y-72500000D03*
X86600000Y-72500000D03*
X86600000Y-70750000D03*
X91400000Y-70750000D03*
X91400000Y-72500000D03*
X105600000Y-67750000D03*
X105600000Y-66000000D03*
X110400000Y-66000000D03*
X110400000Y-67750000D03*
X124600000Y-65375000D03*
X124600000Y-63625000D03*
X129400000Y-63625000D03*
X129400000Y-65375000D03*
X143600000Y-67750000D03*
X143600000Y-66000000D03*
X148400000Y-66000000D03*
X148400000Y-67750000D03*
X162600000Y-70125000D03*
X162600000Y-68375000D03*
X167400000Y-68375000D03*
X167400000Y-70125000D03*
X67600000Y-91500000D03*
X67600000Y-89750000D03*
X72400000Y-89750000D03*
X72400000Y-91500000D03*
X86600000Y-91500000D03*
X86600000Y-89750000D03*
X91400000Y-89750000D03*
X91400000Y-91500000D03*
X105600000Y-86750000D03*
X105600000Y-85000000D03*
X110400000Y-85000000D03*
X110400000Y-86750000D03*
X124600000Y-84375000D03*
X124600000Y-82625000D03*
X129400000Y-82625000D03*
X129400000Y-84375000D03*
X143600000Y-86750000D03*
X143600000Y-85000000D03*
X148400000Y-85000000D03*
X148400000Y-86750000D03*
X162600000Y-89125000D03*
X162600000Y-87375000D03*
X167400000Y-87375000D03*
X167400000Y-89125000D03*
X67600000Y-110500000D03*
X67600000Y-108750000D03*
X72400000Y-108750000D03*
X72400000Y-110500000D03*
X86600000Y-110500000D03*
X86600000Y-108750000D03*
X91400000Y-108750000D03*
X91400000Y-110500000D03*
X105600000Y-105750000D03*
X105600000Y-104000000D03*
X110400000Y-104000000D03*
X110400000Y-105750000D03*
X124600000Y-103375000D03*
X124600000Y-101625000D03*
X129400000Y-101625000D03*
X129400000Y-103375000D03*
X143600000Y-105750000D03*
X143600000Y-104000000D03*
X148400000Y-104000000D03*
X148400000Y-105750000D03*
X162600000Y-108125000D03*
X162600000Y-106375000D03*
X167400000Y-106375000D03*
X167400000Y-108125000D03*
X134100000Y-125375000D03*
X134100000Y-123625000D03*
X138900000Y-123625000D03*
X138900000Y-125375000D03*
D25*
G36*
X155308212Y-128141348D02*
G01*
X155670559Y-126789052D01*
X157602410Y-127306690D01*
X157240063Y-128658986D01*
X155308212Y-128141348D01*
G37*
G36*
X155761146Y-126450978D02*
G01*
X156123493Y-125098682D01*
X158055344Y-125616320D01*
X157692997Y-126968616D01*
X155761146Y-126450978D01*
G37*
G36*
X160397590Y-127693310D02*
G01*
X160759937Y-126341014D01*
X162691788Y-126858652D01*
X162329441Y-128210948D01*
X160397590Y-127693310D01*
G37*
G36*
X159944656Y-129383680D02*
G01*
X160307003Y-128031384D01*
X162238854Y-128549022D01*
X161876507Y-129901318D01*
X159944656Y-129383680D01*
G37*
G36*
X175336010Y-130018014D02*
G01*
X176548446Y-130718014D01*
X175548446Y-132450064D01*
X174336010Y-131750064D01*
X175336010Y-130018014D01*
G37*
G36*
X176851554Y-130893014D02*
G01*
X178063990Y-131593014D01*
X177063990Y-133325064D01*
X175851554Y-132625064D01*
X176851554Y-130893014D01*
G37*
G36*
X174451554Y-135049936D02*
G01*
X175663990Y-135749936D01*
X174663990Y-137481986D01*
X173451554Y-136781986D01*
X174451554Y-135049936D01*
G37*
G36*
X172936010Y-134174936D02*
G01*
X174148446Y-134874936D01*
X173148446Y-136606986D01*
X171936010Y-135906986D01*
X172936010Y-134174936D01*
G37*
D11*
X62000000Y-80935000D03*
D26*
X62000000Y-73315000D03*
D27*
X62000000Y-75350000D03*
X62000000Y-78900000D03*
D11*
X97000000Y-80935000D03*
D26*
X97000000Y-73315000D03*
D27*
X97000000Y-75350000D03*
X97000000Y-78900000D03*
D11*
X116000000Y-76185000D03*
D26*
X116000000Y-68565000D03*
D27*
X116000000Y-70600000D03*
X116000000Y-74150000D03*
D11*
X135000000Y-73810000D03*
D26*
X135000000Y-66190000D03*
D27*
X135000000Y-68225000D03*
X135000000Y-71775000D03*
D11*
X154000000Y-76185000D03*
D26*
X154000000Y-68565000D03*
D27*
X154000000Y-70600000D03*
X154000000Y-74150000D03*
D11*
X157000000Y-76185000D03*
D26*
X157000000Y-68565000D03*
D27*
X157000000Y-70600000D03*
X157000000Y-74150000D03*
D11*
X62000000Y-99935000D03*
D26*
X62000000Y-92315000D03*
D27*
X62000000Y-94350000D03*
X62000000Y-97900000D03*
D11*
X97000000Y-99935000D03*
D26*
X97000000Y-92315000D03*
D27*
X97000000Y-94350000D03*
X97000000Y-97900000D03*
D11*
X116000000Y-95185000D03*
D26*
X116000000Y-87565000D03*
D27*
X116000000Y-89600000D03*
X116000000Y-93150000D03*
D11*
X135000000Y-92810000D03*
D26*
X135000000Y-85190000D03*
D27*
X135000000Y-87225000D03*
X135000000Y-90775000D03*
D11*
X154000000Y-95185000D03*
D26*
X154000000Y-87565000D03*
D27*
X154000000Y-89600000D03*
X154000000Y-93150000D03*
D11*
X157000000Y-95185000D03*
D26*
X157000000Y-87565000D03*
D27*
X157000000Y-89600000D03*
X157000000Y-93150000D03*
D11*
X62000000Y-118935000D03*
D26*
X62000000Y-111315000D03*
D27*
X62000000Y-113350000D03*
X62000000Y-116900000D03*
D11*
X97000000Y-118935000D03*
D26*
X97000000Y-111315000D03*
D27*
X97000000Y-113350000D03*
X97000000Y-116900000D03*
D11*
X116000000Y-114185000D03*
D26*
X116000000Y-106565000D03*
D27*
X116000000Y-108600000D03*
X116000000Y-112150000D03*
D11*
X135000000Y-111810000D03*
D26*
X135000000Y-104190000D03*
D27*
X135000000Y-106225000D03*
X135000000Y-109775000D03*
D11*
X157000000Y-114185000D03*
D26*
X157000000Y-106565000D03*
D27*
X157000000Y-108600000D03*
X157000000Y-112150000D03*
D11*
X128500000Y-133810000D03*
D26*
X128500000Y-126190000D03*
D27*
X128500000Y-128225000D03*
X128500000Y-131775000D03*
D11*
X144500000Y-133560000D03*
D26*
X144500000Y-125940000D03*
D27*
X144500000Y-127975000D03*
X144500000Y-131525000D03*
D11*
X147500000Y-133560000D03*
D26*
X147500000Y-125940000D03*
D27*
X147500000Y-127975000D03*
X147500000Y-131525000D03*
D11*
X154000000Y-114185000D03*
D26*
X154000000Y-106565000D03*
D27*
X154000000Y-108600000D03*
X154000000Y-112150000D03*
D22*
X75220000Y-72925000D03*
X64780000Y-72925000D03*
D21*
X75080000Y-77125000D03*
X64920000Y-77125000D03*
D19*
X72540000Y-81625000D03*
X72540000Y-81125000D03*
X67460000Y-81125000D03*
X67460000Y-81625000D03*
D20*
X66591742Y-80143778D02*
X65788258Y-79186222D01*
D19*
X72540000Y-82205000D03*
D20*
X74211742Y-79186222D02*
X73408258Y-80143778D01*
D19*
X67460000Y-82205000D03*
D18*
X70000000Y-83025000D03*
D15*
X75405324Y-80661129D02*
X74794676Y-81388871D01*
D17*
X64500000Y-77125000D03*
X75500000Y-77125000D03*
D16*
X70000000Y-77125000D03*
D15*
X65205324Y-81388871D02*
X64594676Y-80661129D01*
D22*
X94220000Y-72925000D03*
X83780000Y-72925000D03*
D21*
X94080000Y-77125000D03*
X83920000Y-77125000D03*
D19*
X91540000Y-81625000D03*
X91540000Y-81125000D03*
X86460000Y-81125000D03*
X86460000Y-81625000D03*
D20*
X85591742Y-80143778D02*
X84788258Y-79186222D01*
D19*
X91540000Y-82205000D03*
D20*
X93211742Y-79186222D02*
X92408258Y-80143778D01*
D19*
X86460000Y-82205000D03*
D18*
X89000000Y-83025000D03*
D15*
X94405324Y-80661129D02*
X93794676Y-81388871D01*
D17*
X83500000Y-77125000D03*
X94500000Y-77125000D03*
D16*
X89000000Y-77125000D03*
D15*
X84205324Y-81388871D02*
X83594676Y-80661129D01*
D22*
X113220000Y-68175000D03*
X102780000Y-68175000D03*
D21*
X113080000Y-72375000D03*
X102920000Y-72375000D03*
D19*
X110540000Y-76875000D03*
X110540000Y-76375000D03*
X105460000Y-76375000D03*
X105460000Y-76875000D03*
D20*
X104591742Y-75393778D02*
X103788258Y-74436222D01*
D19*
X110540000Y-77455000D03*
D20*
X112211742Y-74436222D02*
X111408258Y-75393778D01*
D19*
X105460000Y-77455000D03*
D18*
X108000000Y-78275000D03*
D15*
X113405324Y-75911129D02*
X112794676Y-76638871D01*
D17*
X102500000Y-72375000D03*
X113500000Y-72375000D03*
D16*
X108000000Y-72375000D03*
D15*
X103205324Y-76638871D02*
X102594676Y-75911129D01*
D22*
X132220000Y-65800000D03*
X121780000Y-65800000D03*
D21*
X132080000Y-70000000D03*
X121920000Y-70000000D03*
D19*
X129540000Y-74500000D03*
X129540000Y-74000000D03*
X124460000Y-74000000D03*
X124460000Y-74500000D03*
D20*
X123591742Y-73018778D02*
X122788258Y-72061222D01*
D19*
X129540000Y-75080000D03*
D20*
X131211742Y-72061222D02*
X130408258Y-73018778D01*
D19*
X124460000Y-75080000D03*
D18*
X127000000Y-75900000D03*
D15*
X132405324Y-73536129D02*
X131794676Y-74263871D01*
D17*
X121500000Y-70000000D03*
X132500000Y-70000000D03*
D16*
X127000000Y-70000000D03*
D15*
X122205324Y-74263871D02*
X121594676Y-73536129D01*
D22*
X151220000Y-68175000D03*
X140780000Y-68175000D03*
D21*
X151080000Y-72375000D03*
X140920000Y-72375000D03*
D19*
X148540000Y-76875000D03*
X148540000Y-76375000D03*
X143460000Y-76375000D03*
X143460000Y-76875000D03*
D20*
X142591742Y-75393778D02*
X141788258Y-74436222D01*
D19*
X148540000Y-77455000D03*
D20*
X150211742Y-74436222D02*
X149408258Y-75393778D01*
D19*
X143460000Y-77455000D03*
D18*
X146000000Y-78275000D03*
D15*
X151405324Y-75911129D02*
X150794676Y-76638871D01*
D17*
X140500000Y-72375000D03*
X151500000Y-72375000D03*
D16*
X146000000Y-72375000D03*
D15*
X141205324Y-76638871D02*
X140594676Y-75911129D01*
D22*
X170220000Y-70550000D03*
X159780000Y-70550000D03*
D21*
X170080000Y-74750000D03*
X159920000Y-74750000D03*
D19*
X167540000Y-79250000D03*
X167540000Y-78750000D03*
X162460000Y-78750000D03*
X162460000Y-79250000D03*
D20*
X161591742Y-77768778D02*
X160788258Y-76811222D01*
D19*
X167540000Y-79830000D03*
D20*
X169211742Y-76811222D02*
X168408258Y-77768778D01*
D19*
X162460000Y-79830000D03*
D18*
X165000000Y-80650000D03*
D15*
X170405324Y-78286129D02*
X169794676Y-79013871D01*
D17*
X159500000Y-74750000D03*
X170500000Y-74750000D03*
D16*
X165000000Y-74750000D03*
D15*
X160205324Y-79013871D02*
X159594676Y-78286129D01*
D22*
X75220000Y-91925000D03*
X64780000Y-91925000D03*
D21*
X75080000Y-96125000D03*
X64920000Y-96125000D03*
D19*
X72540000Y-100625000D03*
X72540000Y-100125000D03*
X67460000Y-100125000D03*
X67460000Y-100625000D03*
D20*
X66591742Y-99143778D02*
X65788258Y-98186222D01*
D19*
X72540000Y-101205000D03*
D20*
X74211742Y-98186222D02*
X73408258Y-99143778D01*
D19*
X67460000Y-101205000D03*
D18*
X70000000Y-102025000D03*
D15*
X75405324Y-99661129D02*
X74794676Y-100388871D01*
D17*
X64500000Y-96125000D03*
X75500000Y-96125000D03*
D16*
X70000000Y-96125000D03*
D15*
X65205324Y-100388871D02*
X64594676Y-99661129D01*
D22*
X94220000Y-91925000D03*
X83780000Y-91925000D03*
D21*
X94080000Y-96125000D03*
X83920000Y-96125000D03*
D19*
X91540000Y-100625000D03*
X91540000Y-100125000D03*
X86460000Y-100125000D03*
X86460000Y-100625000D03*
D20*
X85591742Y-99143778D02*
X84788258Y-98186222D01*
D19*
X91540000Y-101205000D03*
D20*
X93211742Y-98186222D02*
X92408258Y-99143778D01*
D19*
X86460000Y-101205000D03*
D18*
X89000000Y-102025000D03*
D15*
X94405324Y-99661129D02*
X93794676Y-100388871D01*
D17*
X83500000Y-96125000D03*
X94500000Y-96125000D03*
D16*
X89000000Y-96125000D03*
D15*
X84205324Y-100388871D02*
X83594676Y-99661129D01*
D22*
X113220000Y-87175000D03*
X102780000Y-87175000D03*
D21*
X113080000Y-91375000D03*
X102920000Y-91375000D03*
D19*
X110540000Y-95875000D03*
X110540000Y-95375000D03*
X105460000Y-95375000D03*
X105460000Y-95875000D03*
D20*
X104591742Y-94393778D02*
X103788258Y-93436222D01*
D19*
X110540000Y-96455000D03*
D20*
X112211742Y-93436222D02*
X111408258Y-94393778D01*
D19*
X105460000Y-96455000D03*
D18*
X108000000Y-97275000D03*
D15*
X113405324Y-94911129D02*
X112794676Y-95638871D01*
D17*
X102500000Y-91375000D03*
X113500000Y-91375000D03*
D16*
X108000000Y-91375000D03*
D15*
X103205324Y-95638871D02*
X102594676Y-94911129D01*
D22*
X132220000Y-84800000D03*
X121780000Y-84800000D03*
D21*
X132080000Y-89000000D03*
X121920000Y-89000000D03*
D19*
X129540000Y-93500000D03*
X129540000Y-93000000D03*
X124460000Y-93000000D03*
X124460000Y-93500000D03*
D20*
X123591742Y-92018778D02*
X122788258Y-91061222D01*
D19*
X129540000Y-94080000D03*
D20*
X131211742Y-91061222D02*
X130408258Y-92018778D01*
D19*
X124460000Y-94080000D03*
D18*
X127000000Y-94900000D03*
D15*
X132405324Y-92536129D02*
X131794676Y-93263871D01*
D17*
X121500000Y-89000000D03*
X132500000Y-89000000D03*
D16*
X127000000Y-89000000D03*
D15*
X122205324Y-93263871D02*
X121594676Y-92536129D01*
D22*
X151220000Y-87175000D03*
X140780000Y-87175000D03*
D21*
X151080000Y-91375000D03*
X140920000Y-91375000D03*
D19*
X148540000Y-95875000D03*
X148540000Y-95375000D03*
X143460000Y-95375000D03*
X143460000Y-95875000D03*
D20*
X142591742Y-94393778D02*
X141788258Y-93436222D01*
D19*
X148540000Y-96455000D03*
D20*
X150211742Y-93436222D02*
X149408258Y-94393778D01*
D19*
X143460000Y-96455000D03*
D18*
X146000000Y-97275000D03*
D15*
X151405324Y-94911129D02*
X150794676Y-95638871D01*
D17*
X140500000Y-91375000D03*
X151500000Y-91375000D03*
D16*
X146000000Y-91375000D03*
D15*
X141205324Y-95638871D02*
X140594676Y-94911129D01*
D22*
X170220000Y-89550000D03*
X159780000Y-89550000D03*
D21*
X170080000Y-93750000D03*
X159920000Y-93750000D03*
D19*
X167540000Y-98250000D03*
X167540000Y-97750000D03*
X162460000Y-97750000D03*
X162460000Y-98250000D03*
D20*
X161591742Y-96768778D02*
X160788258Y-95811222D01*
D19*
X167540000Y-98830000D03*
D20*
X169211742Y-95811222D02*
X168408258Y-96768778D01*
D19*
X162460000Y-98830000D03*
D18*
X165000000Y-99650000D03*
D15*
X170405324Y-97286129D02*
X169794676Y-98013871D01*
D17*
X159500000Y-93750000D03*
X170500000Y-93750000D03*
D16*
X165000000Y-93750000D03*
D15*
X160205324Y-98013871D02*
X159594676Y-97286129D01*
D22*
X75220000Y-110925000D03*
X64780000Y-110925000D03*
D21*
X75080000Y-115125000D03*
X64920000Y-115125000D03*
D19*
X72540000Y-119625000D03*
X72540000Y-119125000D03*
X67460000Y-119125000D03*
X67460000Y-119625000D03*
D20*
X66591742Y-118143778D02*
X65788258Y-117186222D01*
D19*
X72540000Y-120205000D03*
D20*
X74211742Y-117186222D02*
X73408258Y-118143778D01*
D19*
X67460000Y-120205000D03*
D18*
X70000000Y-121025000D03*
D15*
X75405324Y-118661129D02*
X74794676Y-119388871D01*
D17*
X64500000Y-115125000D03*
X75500000Y-115125000D03*
D16*
X70000000Y-115125000D03*
D15*
X65205324Y-119388871D02*
X64594676Y-118661129D01*
D22*
X94220000Y-110925000D03*
X83780000Y-110925000D03*
D21*
X94080000Y-115125000D03*
X83920000Y-115125000D03*
D19*
X91540000Y-119625000D03*
X91540000Y-119125000D03*
X86460000Y-119125000D03*
X86460000Y-119625000D03*
D20*
X85591742Y-118143778D02*
X84788258Y-117186222D01*
D19*
X91540000Y-120205000D03*
D20*
X93211742Y-117186222D02*
X92408258Y-118143778D01*
D19*
X86460000Y-120205000D03*
D18*
X89000000Y-121025000D03*
D15*
X94405324Y-118661129D02*
X93794676Y-119388871D01*
D17*
X83500000Y-115125000D03*
X94500000Y-115125000D03*
D16*
X89000000Y-115125000D03*
D15*
X84205324Y-119388871D02*
X83594676Y-118661129D01*
D22*
X113220000Y-106175000D03*
X102780000Y-106175000D03*
D21*
X113080000Y-110375000D03*
X102920000Y-110375000D03*
D19*
X110540000Y-114875000D03*
X110540000Y-114375000D03*
X105460000Y-114375000D03*
X105460000Y-114875000D03*
D20*
X104591742Y-113393778D02*
X103788258Y-112436222D01*
D19*
X110540000Y-115455000D03*
D20*
X112211742Y-112436222D02*
X111408258Y-113393778D01*
D19*
X105460000Y-115455000D03*
D18*
X108000000Y-116275000D03*
D15*
X113405324Y-113911129D02*
X112794676Y-114638871D01*
D17*
X102500000Y-110375000D03*
X113500000Y-110375000D03*
D16*
X108000000Y-110375000D03*
D15*
X103205324Y-114638871D02*
X102594676Y-113911129D01*
D22*
X151220000Y-106175000D03*
X140780000Y-106175000D03*
D21*
X151080000Y-110375000D03*
X140920000Y-110375000D03*
D19*
X148540000Y-114875000D03*
X148540000Y-114375000D03*
X143460000Y-114375000D03*
X143460000Y-114875000D03*
D20*
X142591742Y-113393778D02*
X141788258Y-112436222D01*
D19*
X148540000Y-115455000D03*
D20*
X150211742Y-112436222D02*
X149408258Y-113393778D01*
D19*
X143460000Y-115455000D03*
D18*
X146000000Y-116275000D03*
D15*
X151405324Y-113911129D02*
X150794676Y-114638871D01*
D17*
X140500000Y-110375000D03*
X151500000Y-110375000D03*
D16*
X146000000Y-110375000D03*
D15*
X141205324Y-114638871D02*
X140594676Y-113911129D01*
D22*
X170220000Y-108550000D03*
X159780000Y-108550000D03*
D21*
X170080000Y-112750000D03*
X159920000Y-112750000D03*
D19*
X167540000Y-117250000D03*
X167540000Y-116750000D03*
X162460000Y-116750000D03*
X162460000Y-117250000D03*
D20*
X161591742Y-115768778D02*
X160788258Y-114811222D01*
D19*
X167540000Y-117830000D03*
D20*
X169211742Y-114811222D02*
X168408258Y-115768778D01*
D19*
X162460000Y-117830000D03*
D18*
X165000000Y-118650000D03*
D15*
X170405324Y-116286129D02*
X169794676Y-117013871D01*
D17*
X159500000Y-112750000D03*
X170500000Y-112750000D03*
D16*
X165000000Y-112750000D03*
D15*
X160205324Y-117013871D02*
X159594676Y-116286129D01*
D22*
X141720000Y-125800000D03*
X131280000Y-125800000D03*
D21*
X141580000Y-130000000D03*
X131420000Y-130000000D03*
D19*
X139040000Y-134500000D03*
X139040000Y-134000000D03*
X133960000Y-134000000D03*
X133960000Y-134500000D03*
D20*
X133091742Y-133018778D02*
X132288258Y-132061222D01*
D19*
X139040000Y-135080000D03*
D20*
X140711742Y-132061222D02*
X139908258Y-133018778D01*
D19*
X133960000Y-135080000D03*
D18*
X136500000Y-135900000D03*
D15*
X141905324Y-133536129D02*
X141294676Y-134263871D01*
D17*
X131000000Y-130000000D03*
X142000000Y-130000000D03*
D16*
X136500000Y-130000000D03*
D15*
X131705324Y-134263871D02*
X131094676Y-133536129D01*
D22*
X163629173Y-130044147D03*
X153544907Y-127342076D03*
D21*
X162406903Y-134064801D03*
X152593097Y-131435199D03*
D19*
X158788766Y-137754067D03*
X158918175Y-137271104D03*
X154011272Y-135956303D03*
X153881863Y-136439266D03*
D20*
X153426558Y-134783793D02*
X152898286Y-133650909D01*
D19*
X158638651Y-138314304D03*
D20*
X161034747Y-135831067D02*
X160010807Y-136548037D01*
D19*
X153731748Y-136999503D03*
D18*
X155972968Y-138448962D03*
D15*
X161805924Y-137564639D02*
X161027730Y-138109537D01*
D17*
X152187408Y-131326495D03*
X162812592Y-134173505D03*
D16*
X157500000Y-132750000D03*
D15*
X151765128Y-135627630D02*
X151363640Y-134766638D01*
D22*
X132220000Y-103800000D03*
X121780000Y-103800000D03*
D21*
X132080000Y-108000000D03*
X121920000Y-108000000D03*
D19*
X129540000Y-112500000D03*
X129540000Y-112000000D03*
X124460000Y-112000000D03*
X124460000Y-112500000D03*
D20*
X123591742Y-111018778D02*
X122788258Y-110061222D01*
D19*
X129540000Y-113080000D03*
D20*
X131211742Y-110061222D02*
X130408258Y-111018778D01*
D19*
X124460000Y-113080000D03*
D18*
X127000000Y-113900000D03*
D15*
X132405324Y-111536129D02*
X131794676Y-112263871D01*
D17*
X121500000Y-108000000D03*
X132500000Y-108000000D03*
D16*
X127000000Y-108000000D03*
D15*
X122205324Y-112263871D02*
X121594676Y-111536129D01*
D11*
X189540000Y-108000000D03*
X184460000Y-108000000D03*
X189540000Y-110300000D03*
X184460000Y-110300000D03*
D28*
X188875000Y-100749620D03*
X188875000Y-101750380D03*
X186375000Y-100749620D03*
X186375000Y-101750380D03*
X183875000Y-100749620D03*
X183875000Y-101750380D03*
X181375000Y-100749620D03*
X181375000Y-101750380D03*
D29*
X174000000Y-102820000D03*
X174000000Y-105360000D03*
X174000000Y-107900000D03*
D30*
X79500000Y-105500000D03*
D16*
X177750000Y-115750000D03*
X192250000Y-124250000D03*
D30*
X79500000Y-86750000D03*
X98500000Y-86750000D03*
X98500000Y-105750000D03*
X155500000Y-83000000D03*
X122750000Y-122750000D03*
X169250000Y-130500000D03*
D11*
X181000000Y-108000000D03*
X181000000Y-110300000D03*
D31*
X192900000Y-103750000D03*
X192900000Y-110250000D03*
M02*
