M48
; DRILL file {KiCad 5.1.5+dfsg1-2~bpo10+1} date Sat Sep  5 13:32:18 2020
; FORMAT={-:-/ absolute / metric / decimal}
; #@! TF.CreationDate,2020-09-05T13:32:18+00:00
; #@! TF.GenerationSoftware,Kicad,Pcbnew,5.1.5+dfsg1-2~bpo10+1
; #@! TF.FileFunction,NonPlated,1,2,NPTH
FMAT,2
METRIC
T1C1.000
T2C1.200
T3C1.700
T4C1.900
T5C4.000
%
G90
G05
T1
X102.78Y-68.175
X113.22Y-68.175
X102.78Y-106.175
X113.22Y-106.175
X140.78Y-68.175
X151.22Y-68.175
X159.78Y-108.55
X170.22Y-108.55
X83.78Y-91.925
X94.22Y-91.925
X83.78Y-110.925
X94.22Y-110.925
X121.78Y-84.8
X132.22Y-84.8
X173.503Y-138.921
X178.723Y-129.879
X64.78Y-110.925
X75.22Y-110.925
X159.78Y-70.55
X170.22Y-70.55
X121.78Y-103.8
X132.22Y-103.8
X121.78Y-65.8
X132.22Y-65.8
X83.78Y-72.925
X94.22Y-72.925
X159.78Y-89.55
X170.22Y-89.55
X140.78Y-106.175
X151.22Y-106.175
X153.545Y-127.342
X163.629Y-130.044
X64.78Y-91.925
X75.22Y-91.925
X102.78Y-87.175
X113.22Y-87.175
X140.78Y-87.175
X151.22Y-87.175
X64.78Y-72.925
X75.22Y-72.925
X131.28Y-125.8
X141.72Y-125.8
T2
X186.2Y-114.95
X186.2Y-116.7
X193.2Y-114.95
X193.2Y-116.7
T3
X102.92Y-72.375
X113.08Y-72.375
X102.92Y-110.375
X113.08Y-110.375
X140.92Y-72.375
X151.08Y-72.375
X159.92Y-112.75
X170.08Y-112.75
X83.92Y-96.125
X94.08Y-96.125
X83.92Y-115.125
X94.08Y-115.125
X121.92Y-89.0
X132.08Y-89.0
X177.21Y-140.899
X182.29Y-132.101
X64.92Y-115.125
X75.08Y-115.125
X159.92Y-74.75
X170.08Y-74.75
X121.92Y-108.0
X132.08Y-108.0
X121.92Y-70.0
X132.08Y-70.0
X83.92Y-77.125
X94.08Y-77.125
X159.92Y-93.75
X170.08Y-93.75
X140.92Y-110.375
X151.08Y-110.375
X152.593Y-131.435
X162.407Y-134.065
X64.92Y-96.125
X75.08Y-96.125
X102.92Y-91.375
X113.08Y-91.375
X140.92Y-91.375
X151.08Y-91.375
X64.92Y-77.125
X75.08Y-77.125
X131.42Y-130.0
X141.58Y-130.0
T4
X140.5Y-110.375
X151.5Y-110.375
X152.187Y-131.326
X162.813Y-134.174
X64.5Y-96.125
X75.5Y-96.125
X102.5Y-91.375
X113.5Y-91.375
X140.5Y-91.375
X151.5Y-91.375
X64.5Y-77.125
X75.5Y-77.125
X131.0Y-130.0
X142.0Y-130.0
X102.5Y-72.375
X113.5Y-72.375
X102.5Y-110.375
X113.5Y-110.375
X140.5Y-72.375
X151.5Y-72.375
X159.5Y-112.75
X170.5Y-112.75
X83.5Y-96.125
X94.5Y-96.125
X83.5Y-115.125
X94.5Y-115.125
X121.5Y-89.0
X132.5Y-89.0
X177.0Y-141.263
X182.5Y-131.737
X64.5Y-115.125
X75.5Y-115.125
X159.5Y-74.75
X170.5Y-74.75
X121.5Y-108.0
X132.5Y-108.0
X121.5Y-70.0
X132.5Y-70.0
X83.5Y-77.125
X94.5Y-77.125
X159.5Y-93.75
X170.5Y-93.75
T5
X146.0Y-110.375
X157.5Y-132.75
X70.0Y-96.125
X108.0Y-91.375
X146.0Y-91.375
X70.0Y-77.125
X136.5Y-130.0
X108.0Y-72.375
X108.0Y-110.375
X146.0Y-72.375
X165.0Y-112.75
X89.0Y-96.125
X89.0Y-115.125
X127.0Y-89.0
X179.75Y-136.5
X70.0Y-115.125
X165.0Y-74.75
X127.0Y-108.0
X127.0Y-70.0
X89.0Y-77.125
X165.0Y-93.75
T0
M30
