%FSLAX45Y45*%
G04 Gerber Fmt 4.5, Leading zero omitted, Abs format (unit mm)*
G04 Created by KiCad (PCBNEW 5.1.5+dfsg1-2~bpo10+1) date 2020-09-05 13:18:23*
%MOMM*%
%LPD*%
G04 APERTURE LIST*
%TA.AperFunction,Profile*%
%ADD10C,0.150000*%
%TD*%
%ADD11C,0.200000*%
%ADD12C,0.300000*%
G04 APERTURE END LIST*
D10*
X6300000Y-8412500D02*
X7700000Y-8412500D01*
X6300000Y-7012500D02*
X7700000Y-7012500D01*
X6300000Y-8412500D02*
X6300000Y-7012500D01*
X7700000Y-7012500D02*
X7700000Y-8412500D01*
X18931000Y-13392500D02*
X17719000Y-12692500D01*
X18231000Y-14604500D02*
X18931000Y-13392500D01*
X17019000Y-13904500D02*
X18231000Y-14604500D01*
X17719000Y-12692500D02*
X17019000Y-13904500D01*
X16606000Y-12779500D02*
X15254000Y-12417500D01*
X16244000Y-14131500D02*
X16606000Y-12779500D01*
X14892000Y-13769500D02*
X16244000Y-14131500D01*
X15254000Y-12417500D02*
X14892000Y-13769500D01*
X14353000Y-12303500D02*
X12953000Y-12303500D01*
X14353000Y-13703500D02*
X14353000Y-12303500D01*
X12953000Y-13703500D02*
X14353000Y-13703500D01*
X12953000Y-12303500D02*
X12953000Y-13703500D01*
X17200000Y-6775000D02*
X17200000Y-8175000D01*
X15800000Y-8175000D02*
X17200000Y-8175000D01*
X15800000Y-11975000D02*
X17200000Y-11975000D01*
X17200000Y-10575000D02*
X17200000Y-11975000D01*
X15800000Y-11975000D02*
X15800000Y-10575000D01*
X15800000Y-10075000D02*
X17200000Y-10075000D01*
X15800000Y-8175000D02*
X15800000Y-6775000D01*
X15800000Y-10575000D02*
X17200000Y-10575000D01*
X17200000Y-8675000D02*
X17200000Y-10075000D01*
X15800000Y-10075000D02*
X15800000Y-8675000D01*
X15800000Y-8675000D02*
X17200000Y-8675000D01*
X15300000Y-6537500D02*
X15300000Y-7937500D01*
X13900000Y-7937500D02*
X15300000Y-7937500D01*
X13900000Y-11737500D02*
X15300000Y-11737500D01*
X15300000Y-10337500D02*
X15300000Y-11737500D01*
X13900000Y-11737500D02*
X13900000Y-10337500D01*
X13900000Y-9837500D02*
X15300000Y-9837500D01*
X13900000Y-7937500D02*
X13900000Y-6537500D01*
X13900000Y-10337500D02*
X15300000Y-10337500D01*
X15300000Y-8437500D02*
X15300000Y-9837500D01*
X13900000Y-9837500D02*
X13900000Y-8437500D01*
X13900000Y-8437500D02*
X15300000Y-8437500D01*
X12000000Y-11500000D02*
X13400000Y-11500000D01*
X13400000Y-8200000D02*
X13400000Y-9600000D01*
X12000000Y-9600000D02*
X12000000Y-8200000D01*
X12000000Y-8200000D02*
X13400000Y-8200000D01*
X12000000Y-9600000D02*
X13400000Y-9600000D01*
X12000000Y-7700000D02*
X13400000Y-7700000D01*
X13400000Y-10100000D02*
X13400000Y-11500000D01*
X12000000Y-11500000D02*
X12000000Y-10100000D01*
X12000000Y-10100000D02*
X13400000Y-10100000D01*
X13400000Y-6300000D02*
X13400000Y-7700000D01*
X12000000Y-7700000D02*
X12000000Y-6300000D01*
X11500000Y-6537500D02*
X11500000Y-7937500D01*
X10100000Y-7937500D02*
X10100000Y-6537500D01*
X10100000Y-7937500D02*
X11500000Y-7937500D01*
X11500000Y-10337500D02*
X11500000Y-11737500D01*
X10100000Y-11737500D02*
X10100000Y-10337500D01*
X10100000Y-10337500D02*
X11500000Y-10337500D01*
X10100000Y-11737500D02*
X11500000Y-11737500D01*
X11500000Y-8437500D02*
X11500000Y-9837500D01*
X10100000Y-9837500D02*
X10100000Y-8437500D01*
X10100000Y-8437500D02*
X11500000Y-8437500D01*
X10100000Y-9837500D02*
X11500000Y-9837500D01*
X15800000Y-6775000D02*
X17200000Y-6775000D01*
X13900000Y-6537500D02*
X15300000Y-6537500D01*
X12000000Y-6300000D02*
X13400000Y-6300000D01*
X10100000Y-6537500D02*
X11500000Y-6537500D01*
X9600000Y-7012500D02*
X9600000Y-8412500D01*
X8200000Y-8412500D02*
X8200000Y-7012500D01*
X8200000Y-7012500D02*
X9600000Y-7012500D01*
X8200000Y-8412500D02*
X9600000Y-8412500D01*
X9600000Y-10812500D02*
X9600000Y-12212500D01*
X8200000Y-12212500D02*
X8200000Y-10812500D01*
X8200000Y-10812500D02*
X9600000Y-10812500D01*
X8200000Y-12212500D02*
X9600000Y-12212500D01*
X9600000Y-8912500D02*
X9600000Y-10312500D01*
X8200000Y-10312500D02*
X8200000Y-8912500D01*
X8200000Y-8912500D02*
X9600000Y-8912500D01*
X8200000Y-10312500D02*
X9600000Y-10312500D01*
X7700000Y-10812500D02*
X7700000Y-12212500D01*
X6300000Y-12212500D02*
X6300000Y-10812500D01*
X6300000Y-10812500D02*
X7700000Y-10812500D01*
X6300000Y-12212500D02*
X7700000Y-12212500D01*
X7700000Y-8912500D02*
X7700000Y-10312500D01*
X6300000Y-10312500D02*
X6300000Y-8912500D01*
X6300000Y-8912500D02*
X7700000Y-8912500D01*
X6300000Y-10312500D02*
X7700000Y-10312500D01*
X17435000Y-11747500D02*
G75*
G02X17399728Y-11681019I49728J68981D01*
G01*
X19327051Y-12839699D02*
G75*
G02X19365000Y-13032500I-77051J-115301D01*
G01*
X19327051Y-12839699D02*
X17435000Y-11747500D01*
X18129726Y-15178146D02*
G75*
G02X17936925Y-15216096I-115301J77051D01*
G01*
X16442056Y-14377034D02*
G75*
G02X16507500Y-14390000I-33315J-339810D01*
G01*
X18129726Y-15178146D02*
X19365000Y-13032500D01*
X16507500Y-14390000D02*
X17936925Y-15216096D01*
X12775000Y-13900000D02*
X16442056Y-14377034D01*
X12739645Y-13885355D02*
G75*
G03X12775000Y-13900000I35355J35355D01*
G01*
X11685355Y-12439645D02*
X12739645Y-13885355D01*
X17400000Y-6625000D02*
X17399728Y-11681019D01*
X17400000Y-6625000D02*
G75*
G03X17350000Y-6575000I-50000J0D01*
G01*
X11685355Y-12439645D02*
G75*
G03X11650000Y-12425000I-35355J-35355D01*
G01*
X6100000Y-12375000D02*
G75*
G03X6150000Y-12425000I50000J0D01*
G01*
X6150000Y-6800000D02*
G75*
G03X6100000Y-6850000I0J-50000D01*
G01*
X9850000Y-6800000D02*
G75*
G03X9900000Y-6750000I0J50000D01*
G01*
X9950000Y-6325000D02*
G75*
G03X9900000Y-6375000I0J-50000D01*
G01*
X11750000Y-6325000D02*
G75*
G03X11800000Y-6275000I0J50000D01*
G01*
X11850000Y-6100000D02*
G75*
G03X11800000Y-6150000I0J-50000D01*
G01*
X13600000Y-6150000D02*
G75*
G03X13550000Y-6100000I-50000J0D01*
G01*
X13600000Y-6275000D02*
G75*
G03X13650000Y-6325000I50000J0D01*
G01*
X15500000Y-6375000D02*
G75*
G03X15450000Y-6325000I-50000J0D01*
G01*
X15500000Y-6525000D02*
G75*
G03X15550000Y-6575000I50000J0D01*
G01*
X11650000Y-12425000D02*
X6150000Y-12425000D01*
X6100000Y-6850000D02*
X6100000Y-12375000D01*
X9850000Y-6800000D02*
X6150000Y-6800000D01*
X9900000Y-6375000D02*
X9900000Y-6750000D01*
X11750000Y-6325000D02*
X9950000Y-6325000D01*
X11800000Y-6150000D02*
X11800000Y-6275000D01*
X13550000Y-6100000D02*
X11850000Y-6100000D01*
X13600000Y-6275000D02*
X13600000Y-6150000D01*
X15450000Y-6325000D02*
X13650000Y-6325000D01*
X15500000Y-6525000D02*
X15500000Y-6375000D01*
X17350000Y-6575000D02*
X15550000Y-6575000D01*
D11*
X16755000Y-13030000D02*
X16795000Y-13070000D01*
X16795000Y-13030000D02*
X16755000Y-13070000D01*
X16799000Y-12924000D02*
X16839000Y-12964000D01*
X16839000Y-12924000D02*
X16799000Y-12964000D01*
X16799000Y-13136000D02*
X16839000Y-13176000D01*
X16839000Y-13136000D02*
X16799000Y-13176000D01*
X16905000Y-12880000D02*
X16945000Y-12920000D01*
X16945000Y-12880000D02*
X16905000Y-12920000D01*
X16905000Y-13180000D02*
X16945000Y-13220000D01*
X16945000Y-13180000D02*
X16905000Y-13220000D01*
X17011000Y-12924000D02*
X17051000Y-12964000D01*
X17051000Y-12924000D02*
X17011000Y-12964000D01*
X17011000Y-13136000D02*
X17051000Y-13176000D01*
X17051000Y-13136000D02*
X17011000Y-13176000D01*
X17055000Y-13030000D02*
X17095000Y-13070000D01*
X17095000Y-13030000D02*
X17055000Y-13070000D01*
X15380000Y-8280000D02*
X15420000Y-8320000D01*
X15420000Y-8280000D02*
X15380000Y-8320000D01*
X15424000Y-8174000D02*
X15464000Y-8214000D01*
X15464000Y-8174000D02*
X15424000Y-8214000D01*
X15424000Y-8386000D02*
X15464000Y-8426000D01*
X15464000Y-8386000D02*
X15424000Y-8426000D01*
X15530000Y-8130000D02*
X15570000Y-8170000D01*
X15570000Y-8130000D02*
X15530000Y-8170000D01*
X15530000Y-8430000D02*
X15570000Y-8470000D01*
X15570000Y-8430000D02*
X15530000Y-8470000D01*
X15636000Y-8174000D02*
X15676000Y-8214000D01*
X15676000Y-8174000D02*
X15636000Y-8214000D01*
X15636000Y-8386000D02*
X15676000Y-8426000D01*
X15676000Y-8386000D02*
X15636000Y-8426000D01*
X15680000Y-8280000D02*
X15720000Y-8320000D01*
X15720000Y-8280000D02*
X15680000Y-8320000D01*
X7780000Y-8655000D02*
X7820000Y-8695000D01*
X7820000Y-8655000D02*
X7780000Y-8695000D01*
X7824000Y-8549000D02*
X7864000Y-8589000D01*
X7864000Y-8549000D02*
X7824000Y-8589000D01*
X7824000Y-8761000D02*
X7864000Y-8801000D01*
X7864000Y-8761000D02*
X7824000Y-8801000D01*
X7930000Y-8505000D02*
X7970000Y-8545000D01*
X7970000Y-8505000D02*
X7930000Y-8545000D01*
X7930000Y-8805000D02*
X7970000Y-8845000D01*
X7970000Y-8805000D02*
X7930000Y-8845000D01*
X8036000Y-8549000D02*
X8076000Y-8589000D01*
X8076000Y-8549000D02*
X8036000Y-8589000D01*
X8036000Y-8761000D02*
X8076000Y-8801000D01*
X8076000Y-8761000D02*
X8036000Y-8801000D01*
X8080000Y-8655000D02*
X8120000Y-8695000D01*
X8120000Y-8655000D02*
X8080000Y-8695000D01*
X12105000Y-12255000D02*
X12145000Y-12295000D01*
X12145000Y-12255000D02*
X12105000Y-12295000D01*
X12149000Y-12149000D02*
X12189000Y-12189000D01*
X12189000Y-12149000D02*
X12149000Y-12189000D01*
X12149000Y-12361000D02*
X12189000Y-12401000D01*
X12189000Y-12361000D02*
X12149000Y-12401000D01*
X12255000Y-12105000D02*
X12295000Y-12145000D01*
X12295000Y-12105000D02*
X12255000Y-12145000D01*
X12255000Y-12405000D02*
X12295000Y-12445000D01*
X12295000Y-12405000D02*
X12255000Y-12445000D01*
X12361000Y-12149000D02*
X12401000Y-12189000D01*
X12401000Y-12149000D02*
X12361000Y-12189000D01*
X12361000Y-12361000D02*
X12401000Y-12401000D01*
X12401000Y-12361000D02*
X12361000Y-12401000D01*
X12405000Y-12255000D02*
X12445000Y-12295000D01*
X12445000Y-12255000D02*
X12405000Y-12295000D01*
X7780000Y-10530000D02*
X7820000Y-10570000D01*
X7820000Y-10530000D02*
X7780000Y-10570000D01*
X7824000Y-10424000D02*
X7864000Y-10464000D01*
X7864000Y-10424000D02*
X7824000Y-10464000D01*
X7824000Y-10636000D02*
X7864000Y-10676000D01*
X7864000Y-10636000D02*
X7824000Y-10676000D01*
X7930000Y-10380000D02*
X7970000Y-10420000D01*
X7970000Y-10380000D02*
X7930000Y-10420000D01*
X7930000Y-10680000D02*
X7970000Y-10720000D01*
X7970000Y-10680000D02*
X7930000Y-10720000D01*
X8036000Y-10424000D02*
X8076000Y-10464000D01*
X8076000Y-10424000D02*
X8036000Y-10464000D01*
X8036000Y-10636000D02*
X8076000Y-10676000D01*
X8076000Y-10636000D02*
X8036000Y-10676000D01*
X8080000Y-10530000D02*
X8120000Y-10570000D01*
X8120000Y-10530000D02*
X8080000Y-10570000D01*
X12046000Y-8900000D02*
G75*
G03X12046000Y-8900000I-25000J0D01*
G01*
X12006000Y-8225000D02*
X12006000Y-9575000D01*
X12036000Y-8225000D02*
X12036000Y-9575000D01*
X12006000Y-9575000D02*
G75*
G03X12036000Y-9575000I15000J0D01*
G01*
X12036000Y-8225000D02*
G75*
G03X12006000Y-8225000I-15000J0D01*
G01*
X12726000Y-8220000D02*
G75*
G03X12726000Y-8220000I-25000J0D01*
G01*
X12026000Y-8235000D02*
X13376000Y-8235000D01*
X12026000Y-8205000D02*
X13376000Y-8205000D01*
X13376000Y-8235000D02*
G75*
G03X13376000Y-8205000I0J15000D01*
G01*
X12026000Y-8205000D02*
G75*
G03X12026000Y-8235000I0J-15000D01*
G01*
X12726000Y-9580000D02*
G75*
G03X12726000Y-9580000I-25000J0D01*
G01*
X12026000Y-9595000D02*
X13376000Y-9595000D01*
X12026000Y-9565000D02*
X13376000Y-9565000D01*
X13376000Y-9595000D02*
G75*
G03X13376000Y-9565000I0J15000D01*
G01*
X12026000Y-9565000D02*
G75*
G03X12026000Y-9595000I0J-15000D01*
G01*
X13406000Y-8900000D02*
G75*
G03X13406000Y-8900000I-25000J0D01*
G01*
X13366000Y-8225000D02*
X13366000Y-9575000D01*
X13396000Y-8225000D02*
X13396000Y-9575000D01*
X13366000Y-9575000D02*
G75*
G03X13396000Y-9575000I15000J0D01*
G01*
X13396000Y-8225000D02*
G75*
G03X13366000Y-8225000I-15000J0D01*
G01*
X15117370Y-13098403D02*
G75*
G03X15117370Y-13098403I-25000J0D01*
G01*
X15252584Y-12442521D02*
X14903179Y-13746521D01*
X15281562Y-12450285D02*
X14932156Y-13754285D01*
X14903179Y-13746521D02*
G75*
G03X14932156Y-13754285I14489J-3882D01*
G01*
X15281562Y-12450285D02*
G75*
G03X15252584Y-12442521I-14489J3882D01*
G01*
X15598203Y-13931230D02*
G75*
G03X15598203Y-13931230I-25000J0D01*
G01*
X14917321Y-13771016D02*
X16221321Y-14120421D01*
X14925085Y-13742038D02*
X16229085Y-14091444D01*
X16221321Y-14120421D02*
G75*
G03X16229085Y-14091444I3882J14489D01*
G01*
X14925085Y-13742038D02*
G75*
G03X14917321Y-13771016I-3882J-14489D01*
G01*
X15950197Y-12617570D02*
G75*
G03X15950197Y-12617570I-25000J0D01*
G01*
X15269315Y-12457356D02*
X16573315Y-12806762D01*
X15277079Y-12428379D02*
X16581079Y-12777784D01*
X16573315Y-12806762D02*
G75*
G03X16581079Y-12777784I3882J14489D01*
G01*
X15277079Y-12428379D02*
G75*
G03X15269315Y-12457356I-3882J-14489D01*
G01*
X16431030Y-13450397D02*
G75*
G03X16431030Y-13450397I-25000J0D01*
G01*
X16566244Y-12794515D02*
X16216838Y-14098515D01*
X16595221Y-12802279D02*
X16245816Y-14106279D01*
X16216838Y-14098515D02*
G75*
G03X16245816Y-14106279I14489J-3882D01*
G01*
X16595221Y-12802279D02*
G75*
G03X16566244Y-12794515I-14489J3882D01*
G01*
X13946000Y-11037500D02*
G75*
G03X13946000Y-11037500I-25000J0D01*
G01*
X13906000Y-10362500D02*
X13906000Y-11712500D01*
X13936000Y-10362500D02*
X13936000Y-11712500D01*
X13906000Y-11712500D02*
G75*
G03X13936000Y-11712500I15000J0D01*
G01*
X13936000Y-10362500D02*
G75*
G03X13906000Y-10362500I-15000J0D01*
G01*
X14626000Y-10357500D02*
G75*
G03X14626000Y-10357500I-25000J0D01*
G01*
X13926000Y-10372500D02*
X15276000Y-10372500D01*
X13926000Y-10342500D02*
X15276000Y-10342500D01*
X15276000Y-10372500D02*
G75*
G03X15276000Y-10342500I0J15000D01*
G01*
X13926000Y-10342500D02*
G75*
G03X13926000Y-10372500I0J-15000D01*
G01*
X14626000Y-11717500D02*
G75*
G03X14626000Y-11717500I-25000J0D01*
G01*
X13926000Y-11732500D02*
X15276000Y-11732500D01*
X13926000Y-11702500D02*
X15276000Y-11702500D01*
X15276000Y-11732500D02*
G75*
G03X15276000Y-11702500I0J15000D01*
G01*
X13926000Y-11702500D02*
G75*
G03X13926000Y-11732500I0J-15000D01*
G01*
X15306000Y-11037500D02*
G75*
G03X15306000Y-11037500I-25000J0D01*
G01*
X15266000Y-10362500D02*
X15266000Y-11712500D01*
X15296000Y-10362500D02*
X15296000Y-11712500D01*
X15266000Y-11712500D02*
G75*
G03X15296000Y-11712500I15000J0D01*
G01*
X15296000Y-10362500D02*
G75*
G03X15266000Y-10362500I-15000J0D01*
G01*
X12046000Y-10800000D02*
G75*
G03X12046000Y-10800000I-25000J0D01*
G01*
X12006000Y-10125000D02*
X12006000Y-11475000D01*
X12036000Y-10125000D02*
X12036000Y-11475000D01*
X12006000Y-11475000D02*
G75*
G03X12036000Y-11475000I15000J0D01*
G01*
X12036000Y-10125000D02*
G75*
G03X12006000Y-10125000I-15000J0D01*
G01*
X12726000Y-10120000D02*
G75*
G03X12726000Y-10120000I-25000J0D01*
G01*
X12026000Y-10135000D02*
X13376000Y-10135000D01*
X12026000Y-10105000D02*
X13376000Y-10105000D01*
X13376000Y-10135000D02*
G75*
G03X13376000Y-10105000I0J15000D01*
G01*
X12026000Y-10105000D02*
G75*
G03X12026000Y-10135000I0J-15000D01*
G01*
X12726000Y-11480000D02*
G75*
G03X12726000Y-11480000I-25000J0D01*
G01*
X12026000Y-11495000D02*
X13376000Y-11495000D01*
X12026000Y-11465000D02*
X13376000Y-11465000D01*
X13376000Y-11495000D02*
G75*
G03X13376000Y-11465000I0J15000D01*
G01*
X12026000Y-11465000D02*
G75*
G03X12026000Y-11495000I0J-15000D01*
G01*
X13406000Y-10800000D02*
G75*
G03X13406000Y-10800000I-25000J0D01*
G01*
X13366000Y-10125000D02*
X13366000Y-11475000D01*
X13396000Y-10125000D02*
X13396000Y-11475000D01*
X13366000Y-11475000D02*
G75*
G03X13396000Y-11475000I15000J0D01*
G01*
X13396000Y-10125000D02*
G75*
G03X13366000Y-10125000I-15000J0D01*
G01*
X8246000Y-7712500D02*
G75*
G03X8246000Y-7712500I-25000J0D01*
G01*
X8206000Y-7037500D02*
X8206000Y-8387500D01*
X8236000Y-7037500D02*
X8236000Y-8387500D01*
X8206000Y-8387500D02*
G75*
G03X8236000Y-8387500I15000J0D01*
G01*
X8236000Y-7037500D02*
G75*
G03X8206000Y-7037500I-15000J0D01*
G01*
X8926000Y-7032500D02*
G75*
G03X8926000Y-7032500I-25000J0D01*
G01*
X8226000Y-7047500D02*
X9576000Y-7047500D01*
X8226000Y-7017500D02*
X9576000Y-7017500D01*
X9576000Y-7047500D02*
G75*
G03X9576000Y-7017500I0J15000D01*
G01*
X8226000Y-7017500D02*
G75*
G03X8226000Y-7047500I0J-15000D01*
G01*
X8926000Y-8392500D02*
G75*
G03X8926000Y-8392500I-25000J0D01*
G01*
X8226000Y-8407500D02*
X9576000Y-8407500D01*
X8226000Y-8377500D02*
X9576000Y-8377500D01*
X9576000Y-8407500D02*
G75*
G03X9576000Y-8377500I0J15000D01*
G01*
X8226000Y-8377500D02*
G75*
G03X8226000Y-8407500I0J-15000D01*
G01*
X9606000Y-7712500D02*
G75*
G03X9606000Y-7712500I-25000J0D01*
G01*
X9566000Y-7037500D02*
X9566000Y-8387500D01*
X9596000Y-7037500D02*
X9596000Y-8387500D01*
X9566000Y-8387500D02*
G75*
G03X9596000Y-8387500I15000J0D01*
G01*
X9596000Y-7037500D02*
G75*
G03X9566000Y-7037500I-15000J0D01*
G01*
X12998000Y-13003500D02*
G75*
G03X12998000Y-13003500I-25000J0D01*
G01*
X12958000Y-12328500D02*
X12958000Y-13678500D01*
X12988000Y-12328500D02*
X12988000Y-13678500D01*
X12958000Y-13678500D02*
G75*
G03X12988000Y-13678500I15000J0D01*
G01*
X12988000Y-12328500D02*
G75*
G03X12958000Y-12328500I-15000J0D01*
G01*
X13678000Y-12323500D02*
G75*
G03X13678000Y-12323500I-25000J0D01*
G01*
X12978000Y-12338500D02*
X14328000Y-12338500D01*
X12978000Y-12308500D02*
X14328000Y-12308500D01*
X14328000Y-12338500D02*
G75*
G03X14328000Y-12308500I0J15000D01*
G01*
X12978000Y-12308500D02*
G75*
G03X12978000Y-12338500I0J-15000D01*
G01*
X13678000Y-13683500D02*
G75*
G03X13678000Y-13683500I-25000J0D01*
G01*
X12978000Y-13698500D02*
X14328000Y-13698500D01*
X12978000Y-13668500D02*
X14328000Y-13668500D01*
X14328000Y-13698500D02*
G75*
G03X14328000Y-13668500I0J15000D01*
G01*
X12978000Y-13668500D02*
G75*
G03X12978000Y-13698500I0J-15000D01*
G01*
X14358000Y-13003500D02*
G75*
G03X14358000Y-13003500I-25000J0D01*
G01*
X14318000Y-12328500D02*
X14318000Y-13678500D01*
X14348000Y-12328500D02*
X14348000Y-13678500D01*
X14318000Y-13678500D02*
G75*
G03X14348000Y-13678500I15000J0D01*
G01*
X14348000Y-12328500D02*
G75*
G03X14318000Y-12328500I-15000J0D01*
G01*
X15846000Y-11275000D02*
G75*
G03X15846000Y-11275000I-25000J0D01*
G01*
X15806000Y-10600000D02*
X15806000Y-11950000D01*
X15836000Y-10600000D02*
X15836000Y-11950000D01*
X15806000Y-11950000D02*
G75*
G03X15836000Y-11950000I15000J0D01*
G01*
X15836000Y-10600000D02*
G75*
G03X15806000Y-10600000I-15000J0D01*
G01*
X16526000Y-10595000D02*
G75*
G03X16526000Y-10595000I-25000J0D01*
G01*
X15826000Y-10610000D02*
X17176000Y-10610000D01*
X15826000Y-10580000D02*
X17176000Y-10580000D01*
X17176000Y-10610000D02*
G75*
G03X17176000Y-10580000I0J15000D01*
G01*
X15826000Y-10580000D02*
G75*
G03X15826000Y-10610000I0J-15000D01*
G01*
X16526000Y-11955000D02*
G75*
G03X16526000Y-11955000I-25000J0D01*
G01*
X15826000Y-11970000D02*
X17176000Y-11970000D01*
X15826000Y-11940000D02*
X17176000Y-11940000D01*
X17176000Y-11970000D02*
G75*
G03X17176000Y-11940000I0J15000D01*
G01*
X15826000Y-11940000D02*
G75*
G03X15826000Y-11970000I0J-15000D01*
G01*
X17206000Y-11275000D02*
G75*
G03X17206000Y-11275000I-25000J0D01*
G01*
X17166000Y-10600000D02*
X17166000Y-11950000D01*
X17196000Y-10600000D02*
X17196000Y-11950000D01*
X17166000Y-11950000D02*
G75*
G03X17196000Y-11950000I15000J0D01*
G01*
X17196000Y-10600000D02*
G75*
G03X17166000Y-10600000I-15000J0D01*
G01*
X12046000Y-7000000D02*
G75*
G03X12046000Y-7000000I-25000J0D01*
G01*
X12006000Y-6325000D02*
X12006000Y-7675000D01*
X12036000Y-6325000D02*
X12036000Y-7675000D01*
X12006000Y-7675000D02*
G75*
G03X12036000Y-7675000I15000J0D01*
G01*
X12036000Y-6325000D02*
G75*
G03X12006000Y-6325000I-15000J0D01*
G01*
X12726000Y-6320000D02*
G75*
G03X12726000Y-6320000I-25000J0D01*
G01*
X12026000Y-6335000D02*
X13376000Y-6335000D01*
X12026000Y-6305000D02*
X13376000Y-6305000D01*
X13376000Y-6335000D02*
G75*
G03X13376000Y-6305000I0J15000D01*
G01*
X12026000Y-6305000D02*
G75*
G03X12026000Y-6335000I0J-15000D01*
G01*
X12726000Y-7680000D02*
G75*
G03X12726000Y-7680000I-25000J0D01*
G01*
X12026000Y-7695000D02*
X13376000Y-7695000D01*
X12026000Y-7665000D02*
X13376000Y-7665000D01*
X13376000Y-7695000D02*
G75*
G03X13376000Y-7665000I0J15000D01*
G01*
X12026000Y-7665000D02*
G75*
G03X12026000Y-7695000I0J-15000D01*
G01*
X13406000Y-7000000D02*
G75*
G03X13406000Y-7000000I-25000J0D01*
G01*
X13366000Y-6325000D02*
X13366000Y-7675000D01*
X13396000Y-6325000D02*
X13396000Y-7675000D01*
X13366000Y-7675000D02*
G75*
G03X13396000Y-7675000I15000J0D01*
G01*
X13396000Y-6325000D02*
G75*
G03X13366000Y-6325000I-15000J0D01*
G01*
X6346000Y-11512500D02*
G75*
G03X6346000Y-11512500I-25000J0D01*
G01*
X6306000Y-10837500D02*
X6306000Y-12187500D01*
X6336000Y-10837500D02*
X6336000Y-12187500D01*
X6306000Y-12187500D02*
G75*
G03X6336000Y-12187500I15000J0D01*
G01*
X6336000Y-10837500D02*
G75*
G03X6306000Y-10837500I-15000J0D01*
G01*
X7026000Y-10832500D02*
G75*
G03X7026000Y-10832500I-25000J0D01*
G01*
X6326000Y-10847500D02*
X7676000Y-10847500D01*
X6326000Y-10817500D02*
X7676000Y-10817500D01*
X7676000Y-10847500D02*
G75*
G03X7676000Y-10817500I0J15000D01*
G01*
X6326000Y-10817500D02*
G75*
G03X6326000Y-10847500I0J-15000D01*
G01*
X7026000Y-12192500D02*
G75*
G03X7026000Y-12192500I-25000J0D01*
G01*
X6326000Y-12207500D02*
X7676000Y-12207500D01*
X6326000Y-12177500D02*
X7676000Y-12177500D01*
X7676000Y-12207500D02*
G75*
G03X7676000Y-12177500I0J15000D01*
G01*
X6326000Y-12177500D02*
G75*
G03X6326000Y-12207500I0J-15000D01*
G01*
X7706000Y-11512500D02*
G75*
G03X7706000Y-11512500I-25000J0D01*
G01*
X7666000Y-10837500D02*
X7666000Y-12187500D01*
X7696000Y-10837500D02*
X7696000Y-12187500D01*
X7666000Y-12187500D02*
G75*
G03X7696000Y-12187500I15000J0D01*
G01*
X7696000Y-10837500D02*
G75*
G03X7666000Y-10837500I-15000J0D01*
G01*
X6346000Y-9612500D02*
G75*
G03X6346000Y-9612500I-25000J0D01*
G01*
X6306000Y-8937500D02*
X6306000Y-10287500D01*
X6336000Y-8937500D02*
X6336000Y-10287500D01*
X6306000Y-10287500D02*
G75*
G03X6336000Y-10287500I15000J0D01*
G01*
X6336000Y-8937500D02*
G75*
G03X6306000Y-8937500I-15000J0D01*
G01*
X7026000Y-8932500D02*
G75*
G03X7026000Y-8932500I-25000J0D01*
G01*
X6326000Y-8947500D02*
X7676000Y-8947500D01*
X6326000Y-8917500D02*
X7676000Y-8917500D01*
X7676000Y-8947500D02*
G75*
G03X7676000Y-8917500I0J15000D01*
G01*
X6326000Y-8917500D02*
G75*
G03X6326000Y-8947500I0J-15000D01*
G01*
X7026000Y-10292500D02*
G75*
G03X7026000Y-10292500I-25000J0D01*
G01*
X6326000Y-10307500D02*
X7676000Y-10307500D01*
X6326000Y-10277500D02*
X7676000Y-10277500D01*
X7676000Y-10307500D02*
G75*
G03X7676000Y-10277500I0J15000D01*
G01*
X6326000Y-10277500D02*
G75*
G03X6326000Y-10307500I0J-15000D01*
G01*
X7706000Y-9612500D02*
G75*
G03X7706000Y-9612500I-25000J0D01*
G01*
X7666000Y-8937500D02*
X7666000Y-10287500D01*
X7696000Y-8937500D02*
X7696000Y-10287500D01*
X7666000Y-10287500D02*
G75*
G03X7696000Y-10287500I15000J0D01*
G01*
X7696000Y-8937500D02*
G75*
G03X7666000Y-8937500I-15000J0D01*
G01*
X15846000Y-7475000D02*
G75*
G03X15846000Y-7475000I-25000J0D01*
G01*
X15806000Y-6800000D02*
X15806000Y-8150000D01*
X15836000Y-6800000D02*
X15836000Y-8150000D01*
X15806000Y-8150000D02*
G75*
G03X15836000Y-8150000I15000J0D01*
G01*
X15836000Y-6800000D02*
G75*
G03X15806000Y-6800000I-15000J0D01*
G01*
X16526000Y-6795000D02*
G75*
G03X16526000Y-6795000I-25000J0D01*
G01*
X15826000Y-6810000D02*
X17176000Y-6810000D01*
X15826000Y-6780000D02*
X17176000Y-6780000D01*
X17176000Y-6810000D02*
G75*
G03X17176000Y-6780000I0J15000D01*
G01*
X15826000Y-6780000D02*
G75*
G03X15826000Y-6810000I0J-15000D01*
G01*
X16526000Y-8155000D02*
G75*
G03X16526000Y-8155000I-25000J0D01*
G01*
X15826000Y-8170000D02*
X17176000Y-8170000D01*
X15826000Y-8140000D02*
X17176000Y-8140000D01*
X17176000Y-8170000D02*
G75*
G03X17176000Y-8140000I0J15000D01*
G01*
X15826000Y-8140000D02*
G75*
G03X15826000Y-8170000I0J-15000D01*
G01*
X17206000Y-7475000D02*
G75*
G03X17206000Y-7475000I-25000J0D01*
G01*
X17166000Y-6800000D02*
X17166000Y-8150000D01*
X17196000Y-6800000D02*
X17196000Y-8150000D01*
X17166000Y-8150000D02*
G75*
G03X17196000Y-8150000I15000J0D01*
G01*
X17196000Y-6800000D02*
G75*
G03X17166000Y-6800000I-15000J0D01*
G01*
X10146000Y-9137500D02*
G75*
G03X10146000Y-9137500I-25000J0D01*
G01*
X10106000Y-8462500D02*
X10106000Y-9812500D01*
X10136000Y-8462500D02*
X10136000Y-9812500D01*
X10106000Y-9812500D02*
G75*
G03X10136000Y-9812500I15000J0D01*
G01*
X10136000Y-8462500D02*
G75*
G03X10106000Y-8462500I-15000J0D01*
G01*
X10826000Y-8457500D02*
G75*
G03X10826000Y-8457500I-25000J0D01*
G01*
X10126000Y-8472500D02*
X11476000Y-8472500D01*
X10126000Y-8442500D02*
X11476000Y-8442500D01*
X11476000Y-8472500D02*
G75*
G03X11476000Y-8442500I0J15000D01*
G01*
X10126000Y-8442500D02*
G75*
G03X10126000Y-8472500I0J-15000D01*
G01*
X10826000Y-9817500D02*
G75*
G03X10826000Y-9817500I-25000J0D01*
G01*
X10126000Y-9832500D02*
X11476000Y-9832500D01*
X10126000Y-9802500D02*
X11476000Y-9802500D01*
X11476000Y-9832500D02*
G75*
G03X11476000Y-9802500I0J15000D01*
G01*
X10126000Y-9802500D02*
G75*
G03X10126000Y-9832500I0J-15000D01*
G01*
X11506000Y-9137500D02*
G75*
G03X11506000Y-9137500I-25000J0D01*
G01*
X11466000Y-8462500D02*
X11466000Y-9812500D01*
X11496000Y-8462500D02*
X11496000Y-9812500D01*
X11466000Y-9812500D02*
G75*
G03X11496000Y-9812500I15000J0D01*
G01*
X11496000Y-8462500D02*
G75*
G03X11466000Y-8462500I-15000J0D01*
G01*
X15846000Y-9375000D02*
G75*
G03X15846000Y-9375000I-25000J0D01*
G01*
X15806000Y-8700000D02*
X15806000Y-10050000D01*
X15836000Y-8700000D02*
X15836000Y-10050000D01*
X15806000Y-10050000D02*
G75*
G03X15836000Y-10050000I15000J0D01*
G01*
X15836000Y-8700000D02*
G75*
G03X15806000Y-8700000I-15000J0D01*
G01*
X16526000Y-8695000D02*
G75*
G03X16526000Y-8695000I-25000J0D01*
G01*
X15826000Y-8710000D02*
X17176000Y-8710000D01*
X15826000Y-8680000D02*
X17176000Y-8680000D01*
X17176000Y-8710000D02*
G75*
G03X17176000Y-8680000I0J15000D01*
G01*
X15826000Y-8680000D02*
G75*
G03X15826000Y-8710000I0J-15000D01*
G01*
X16526000Y-10055000D02*
G75*
G03X16526000Y-10055000I-25000J0D01*
G01*
X15826000Y-10070000D02*
X17176000Y-10070000D01*
X15826000Y-10040000D02*
X17176000Y-10040000D01*
X17176000Y-10070000D02*
G75*
G03X17176000Y-10040000I0J15000D01*
G01*
X15826000Y-10040000D02*
G75*
G03X15826000Y-10070000I0J-15000D01*
G01*
X17206000Y-9375000D02*
G75*
G03X17206000Y-9375000I-25000J0D01*
G01*
X17166000Y-8700000D02*
X17166000Y-10050000D01*
X17196000Y-8700000D02*
X17196000Y-10050000D01*
X17166000Y-10050000D02*
G75*
G03X17196000Y-10050000I15000J0D01*
G01*
X17196000Y-8700000D02*
G75*
G03X17166000Y-8700000I-15000J0D01*
G01*
X10146000Y-11037500D02*
G75*
G03X10146000Y-11037500I-25000J0D01*
G01*
X10106000Y-10362500D02*
X10106000Y-11712500D01*
X10136000Y-10362500D02*
X10136000Y-11712500D01*
X10106000Y-11712500D02*
G75*
G03X10136000Y-11712500I15000J0D01*
G01*
X10136000Y-10362500D02*
G75*
G03X10106000Y-10362500I-15000J0D01*
G01*
X10826000Y-10357500D02*
G75*
G03X10826000Y-10357500I-25000J0D01*
G01*
X10126000Y-10372500D02*
X11476000Y-10372500D01*
X10126000Y-10342500D02*
X11476000Y-10342500D01*
X11476000Y-10372500D02*
G75*
G03X11476000Y-10342500I0J15000D01*
G01*
X10126000Y-10342500D02*
G75*
G03X10126000Y-10372500I0J-15000D01*
G01*
X10826000Y-11717500D02*
G75*
G03X10826000Y-11717500I-25000J0D01*
G01*
X10126000Y-11732500D02*
X11476000Y-11732500D01*
X10126000Y-11702500D02*
X11476000Y-11702500D01*
X11476000Y-11732500D02*
G75*
G03X11476000Y-11702500I0J15000D01*
G01*
X10126000Y-11702500D02*
G75*
G03X10126000Y-11732500I0J-15000D01*
G01*
X11506000Y-11037500D02*
G75*
G03X11506000Y-11037500I-25000J0D01*
G01*
X11466000Y-10362500D02*
X11466000Y-11712500D01*
X11496000Y-10362500D02*
X11496000Y-11712500D01*
X11466000Y-11712500D02*
G75*
G03X11496000Y-11712500I15000J0D01*
G01*
X11496000Y-10362500D02*
G75*
G03X11466000Y-10362500I-15000J0D01*
G01*
X6346000Y-7712500D02*
G75*
G03X6346000Y-7712500I-25000J0D01*
G01*
X6306000Y-7037500D02*
X6306000Y-8387500D01*
X6336000Y-7037500D02*
X6336000Y-8387500D01*
X6306000Y-8387500D02*
G75*
G03X6336000Y-8387500I15000J0D01*
G01*
X6336000Y-7037500D02*
G75*
G03X6306000Y-7037500I-15000J0D01*
G01*
X7026000Y-7032500D02*
G75*
G03X7026000Y-7032500I-25000J0D01*
G01*
X6326000Y-7047500D02*
X7676000Y-7047500D01*
X6326000Y-7017500D02*
X7676000Y-7017500D01*
X7676000Y-7047500D02*
G75*
G03X7676000Y-7017500I0J15000D01*
G01*
X6326000Y-7017500D02*
G75*
G03X6326000Y-7047500I0J-15000D01*
G01*
X7026000Y-8392500D02*
G75*
G03X7026000Y-8392500I-25000J0D01*
G01*
X6326000Y-8407500D02*
X7676000Y-8407500D01*
X6326000Y-8377500D02*
X7676000Y-8377500D01*
X7676000Y-8407500D02*
G75*
G03X7676000Y-8377500I0J15000D01*
G01*
X6326000Y-8377500D02*
G75*
G03X6326000Y-8407500I0J-15000D01*
G01*
X7706000Y-7712500D02*
G75*
G03X7706000Y-7712500I-25000J0D01*
G01*
X7666000Y-7037500D02*
X7666000Y-8387500D01*
X7696000Y-7037500D02*
X7696000Y-8387500D01*
X7666000Y-8387500D02*
G75*
G03X7696000Y-8387500I15000J0D01*
G01*
X7696000Y-7037500D02*
G75*
G03X7666000Y-7037500I-15000J0D01*
G01*
X10146000Y-7237500D02*
G75*
G03X10146000Y-7237500I-25000J0D01*
G01*
X10106000Y-6562500D02*
X10106000Y-7912500D01*
X10136000Y-6562500D02*
X10136000Y-7912500D01*
X10106000Y-7912500D02*
G75*
G03X10136000Y-7912500I15000J0D01*
G01*
X10136000Y-6562500D02*
G75*
G03X10106000Y-6562500I-15000J0D01*
G01*
X10826000Y-6557500D02*
G75*
G03X10826000Y-6557500I-25000J0D01*
G01*
X10126000Y-6572500D02*
X11476000Y-6572500D01*
X10126000Y-6542500D02*
X11476000Y-6542500D01*
X11476000Y-6572500D02*
G75*
G03X11476000Y-6542500I0J15000D01*
G01*
X10126000Y-6542500D02*
G75*
G03X10126000Y-6572500I0J-15000D01*
G01*
X10826000Y-7917500D02*
G75*
G03X10826000Y-7917500I-25000J0D01*
G01*
X10126000Y-7932500D02*
X11476000Y-7932500D01*
X10126000Y-7902500D02*
X11476000Y-7902500D01*
X11476000Y-7932500D02*
G75*
G03X11476000Y-7902500I0J15000D01*
G01*
X10126000Y-7902500D02*
G75*
G03X10126000Y-7932500I0J-15000D01*
G01*
X11506000Y-7237500D02*
G75*
G03X11506000Y-7237500I-25000J0D01*
G01*
X11466000Y-6562500D02*
X11466000Y-7912500D01*
X11496000Y-6562500D02*
X11496000Y-7912500D01*
X11466000Y-7912500D02*
G75*
G03X11496000Y-7912500I15000J0D01*
G01*
X11496000Y-6562500D02*
G75*
G03X11466000Y-6562500I-15000J0D01*
G01*
X13946000Y-9137500D02*
G75*
G03X13946000Y-9137500I-25000J0D01*
G01*
X13906000Y-8462500D02*
X13906000Y-9812500D01*
X13936000Y-8462500D02*
X13936000Y-9812500D01*
X13906000Y-9812500D02*
G75*
G03X13936000Y-9812500I15000J0D01*
G01*
X13936000Y-8462500D02*
G75*
G03X13906000Y-8462500I-15000J0D01*
G01*
X14626000Y-8457500D02*
G75*
G03X14626000Y-8457500I-25000J0D01*
G01*
X13926000Y-8472500D02*
X15276000Y-8472500D01*
X13926000Y-8442500D02*
X15276000Y-8442500D01*
X15276000Y-8472500D02*
G75*
G03X15276000Y-8442500I0J15000D01*
G01*
X13926000Y-8442500D02*
G75*
G03X13926000Y-8472500I0J-15000D01*
G01*
X14626000Y-9817500D02*
G75*
G03X14626000Y-9817500I-25000J0D01*
G01*
X13926000Y-9832500D02*
X15276000Y-9832500D01*
X13926000Y-9802500D02*
X15276000Y-9802500D01*
X15276000Y-9832500D02*
G75*
G03X15276000Y-9802500I0J15000D01*
G01*
X13926000Y-9802500D02*
G75*
G03X13926000Y-9832500I0J-15000D01*
G01*
X15306000Y-9137500D02*
G75*
G03X15306000Y-9137500I-25000J0D01*
G01*
X15266000Y-8462500D02*
X15266000Y-9812500D01*
X15296000Y-8462500D02*
X15296000Y-9812500D01*
X15266000Y-9812500D02*
G75*
G03X15296000Y-9812500I15000J0D01*
G01*
X15296000Y-8462500D02*
G75*
G03X15266000Y-8462500I-15000J0D01*
G01*
X13946000Y-7237500D02*
G75*
G03X13946000Y-7237500I-25000J0D01*
G01*
X13906000Y-6562500D02*
X13906000Y-7912500D01*
X13936000Y-6562500D02*
X13936000Y-7912500D01*
X13906000Y-7912500D02*
G75*
G03X13936000Y-7912500I15000J0D01*
G01*
X13936000Y-6562500D02*
G75*
G03X13906000Y-6562500I-15000J0D01*
G01*
X14626000Y-6557500D02*
G75*
G03X14626000Y-6557500I-25000J0D01*
G01*
X13926000Y-6572500D02*
X15276000Y-6572500D01*
X13926000Y-6542500D02*
X15276000Y-6542500D01*
X15276000Y-6572500D02*
G75*
G03X15276000Y-6542500I0J15000D01*
G01*
X13926000Y-6542500D02*
G75*
G03X13926000Y-6572500I0J-15000D01*
G01*
X14626000Y-7917500D02*
G75*
G03X14626000Y-7917500I-25000J0D01*
G01*
X13926000Y-7932500D02*
X15276000Y-7932500D01*
X13926000Y-7902500D02*
X15276000Y-7902500D01*
X15276000Y-7932500D02*
G75*
G03X15276000Y-7902500I0J15000D01*
G01*
X13926000Y-7902500D02*
G75*
G03X13926000Y-7932500I0J-15000D01*
G01*
X15306000Y-7237500D02*
G75*
G03X15306000Y-7237500I-25000J0D01*
G01*
X15266000Y-6562500D02*
X15266000Y-7912500D01*
X15296000Y-6562500D02*
X15296000Y-7912500D01*
X15266000Y-7912500D02*
G75*
G03X15296000Y-7912500I15000J0D01*
G01*
X15296000Y-6562500D02*
G75*
G03X15266000Y-6562500I-15000J0D01*
G01*
X8246000Y-9612500D02*
G75*
G03X8246000Y-9612500I-25000J0D01*
G01*
X8206000Y-8937500D02*
X8206000Y-10287500D01*
X8236000Y-8937500D02*
X8236000Y-10287500D01*
X8206000Y-10287500D02*
G75*
G03X8236000Y-10287500I15000J0D01*
G01*
X8236000Y-8937500D02*
G75*
G03X8206000Y-8937500I-15000J0D01*
G01*
X8926000Y-8932500D02*
G75*
G03X8926000Y-8932500I-25000J0D01*
G01*
X8226000Y-8947500D02*
X9576000Y-8947500D01*
X8226000Y-8917500D02*
X9576000Y-8917500D01*
X9576000Y-8947500D02*
G75*
G03X9576000Y-8917500I0J15000D01*
G01*
X8226000Y-8917500D02*
G75*
G03X8226000Y-8947500I0J-15000D01*
G01*
X8926000Y-10292500D02*
G75*
G03X8926000Y-10292500I-25000J0D01*
G01*
X8226000Y-10307500D02*
X9576000Y-10307500D01*
X8226000Y-10277500D02*
X9576000Y-10277500D01*
X9576000Y-10307500D02*
G75*
G03X9576000Y-10277500I0J15000D01*
G01*
X8226000Y-10277500D02*
G75*
G03X8226000Y-10307500I0J-15000D01*
G01*
X9606000Y-9612500D02*
G75*
G03X9606000Y-9612500I-25000J0D01*
G01*
X9566000Y-8937500D02*
X9566000Y-10287500D01*
X9596000Y-8937500D02*
X9596000Y-10287500D01*
X9566000Y-10287500D02*
G75*
G03X9596000Y-10287500I15000J0D01*
G01*
X9596000Y-8937500D02*
G75*
G03X9566000Y-8937500I-15000J0D01*
G01*
X17411103Y-13308500D02*
G75*
G03X17411103Y-13308500I-25000J0D01*
G01*
X17710612Y-12716433D02*
X17035612Y-13885567D01*
X17736593Y-12731433D02*
X17061593Y-13900567D01*
X17035612Y-13885567D02*
G75*
G03X17061593Y-13900567I12990J-7500D01*
G01*
X17736593Y-12731433D02*
G75*
G03X17710612Y-12716433I-12990J7500D01*
G01*
X17660000Y-14237397D02*
G75*
G03X17660000Y-14237397I-25000J0D01*
G01*
X17042933Y-13912888D02*
X18212067Y-14587888D01*
X17057933Y-13886907D02*
X18227067Y-14561907D01*
X18212067Y-14587888D02*
G75*
G03X18227067Y-14561907I7500J12990D01*
G01*
X17057933Y-13886907D02*
G75*
G03X17042933Y-13912888I-7500J-12990D01*
G01*
X18340000Y-13059603D02*
G75*
G03X18340000Y-13059603I-25000J0D01*
G01*
X17722933Y-12735093D02*
X18892067Y-13410093D01*
X17737933Y-12709112D02*
X18907067Y-13384112D01*
X18892067Y-13410093D02*
G75*
G03X18907067Y-13384112I7500J12990D01*
G01*
X17737933Y-12709112D02*
G75*
G03X17722933Y-12735093I-7500J-12990D01*
G01*
X18588897Y-13988500D02*
G75*
G03X18588897Y-13988500I-25000J0D01*
G01*
X18888407Y-13396433D02*
X18213407Y-14565567D01*
X18914388Y-13411433D02*
X18239388Y-14580567D01*
X18213407Y-14565567D02*
G75*
G03X18239388Y-14580567I12990J-7500D01*
G01*
X18914388Y-13411433D02*
G75*
G03X18888407Y-13396433I-12990J7500D01*
G01*
X8246000Y-11512500D02*
G75*
G03X8246000Y-11512500I-25000J0D01*
G01*
X8206000Y-10837500D02*
X8206000Y-12187500D01*
X8236000Y-10837500D02*
X8236000Y-12187500D01*
X8206000Y-12187500D02*
G75*
G03X8236000Y-12187500I15000J0D01*
G01*
X8236000Y-10837500D02*
G75*
G03X8206000Y-10837500I-15000J0D01*
G01*
X8926000Y-10832500D02*
G75*
G03X8926000Y-10832500I-25000J0D01*
G01*
X8226000Y-10847500D02*
X9576000Y-10847500D01*
X8226000Y-10817500D02*
X9576000Y-10817500D01*
X9576000Y-10847500D02*
G75*
G03X9576000Y-10817500I0J15000D01*
G01*
X8226000Y-10817500D02*
G75*
G03X8226000Y-10847500I0J-15000D01*
G01*
X8926000Y-12192500D02*
G75*
G03X8926000Y-12192500I-25000J0D01*
G01*
X8226000Y-12207500D02*
X9576000Y-12207500D01*
X8226000Y-12177500D02*
X9576000Y-12177500D01*
X9576000Y-12207500D02*
G75*
G03X9576000Y-12177500I0J15000D01*
G01*
X8226000Y-12177500D02*
G75*
G03X8226000Y-12207500I0J-15000D01*
G01*
X9606000Y-11512500D02*
G75*
G03X9606000Y-11512500I-25000J0D01*
G01*
X9566000Y-10837500D02*
X9566000Y-12187500D01*
X9596000Y-10837500D02*
X9596000Y-12187500D01*
X9566000Y-12187500D02*
G75*
G03X9596000Y-12187500I15000J0D01*
G01*
X9596000Y-10837500D02*
G75*
G03X9566000Y-10837500I-15000J0D01*
G01*
X15550000Y-8190000D02*
X15550000Y-8410000D01*
X15440000Y-8300000D02*
X15660000Y-8300000D01*
X7950000Y-8565000D02*
X7950000Y-8785000D01*
X7840000Y-8675000D02*
X8060000Y-8675000D01*
X7950000Y-10440000D02*
X7950000Y-10660000D01*
X7840000Y-10550000D02*
X8060000Y-10550000D01*
X16925000Y-12940000D02*
X16925000Y-13160000D01*
X16815000Y-13050000D02*
X17035000Y-13050000D01*
X12275000Y-12165000D02*
X12275000Y-12385000D01*
X12165000Y-12275000D02*
X12385000Y-12275000D01*
D12*
X6378928Y-15712987D02*
X6378928Y-15412987D01*
X6450357Y-15412987D01*
X6493214Y-15427272D01*
X6521786Y-15455844D01*
X6536071Y-15484415D01*
X6550357Y-15541558D01*
X6550357Y-15584415D01*
X6536071Y-15641558D01*
X6521786Y-15670129D01*
X6493214Y-15698701D01*
X6450357Y-15712987D01*
X6378928Y-15712987D01*
X6678928Y-15712987D02*
X6678928Y-15512987D01*
X6678928Y-15570129D02*
X6693214Y-15541558D01*
X6707500Y-15527272D01*
X6736071Y-15512987D01*
X6764643Y-15512987D01*
X6864643Y-15712987D02*
X6864643Y-15512987D01*
X6864643Y-15412987D02*
X6850357Y-15427272D01*
X6864643Y-15441558D01*
X6878928Y-15427272D01*
X6864643Y-15412987D01*
X6864643Y-15441558D01*
X7050357Y-15712987D02*
X7021786Y-15698701D01*
X7007500Y-15670129D01*
X7007500Y-15412987D01*
X7207500Y-15712987D02*
X7178928Y-15698701D01*
X7164643Y-15670129D01*
X7164643Y-15412987D01*
X7550357Y-15712987D02*
X7550357Y-15412987D01*
X7650357Y-15627272D01*
X7750357Y-15412987D01*
X7750357Y-15712987D01*
X8021786Y-15712987D02*
X8021786Y-15555844D01*
X8007500Y-15527272D01*
X7978928Y-15512987D01*
X7921786Y-15512987D01*
X7893214Y-15527272D01*
X8021786Y-15698701D02*
X7993214Y-15712987D01*
X7921786Y-15712987D01*
X7893214Y-15698701D01*
X7878928Y-15670129D01*
X7878928Y-15641558D01*
X7893214Y-15612987D01*
X7921786Y-15598701D01*
X7993214Y-15598701D01*
X8021786Y-15584415D01*
X8164643Y-15512987D02*
X8164643Y-15812987D01*
X8164643Y-15527272D02*
X8193214Y-15512987D01*
X8250357Y-15512987D01*
X8278928Y-15527272D01*
X8293214Y-15541558D01*
X8307500Y-15570129D01*
X8307500Y-15655844D01*
X8293214Y-15684415D01*
X8278928Y-15698701D01*
X8250357Y-15712987D01*
X8193214Y-15712987D01*
X8164643Y-15698701D01*
X8436071Y-15684415D02*
X8450357Y-15698701D01*
X8436071Y-15712987D01*
X8421786Y-15698701D01*
X8436071Y-15684415D01*
X8436071Y-15712987D01*
X8436071Y-15527272D02*
X8450357Y-15541558D01*
X8436071Y-15555844D01*
X8421786Y-15541558D01*
X8436071Y-15527272D01*
X8436071Y-15555844D01*
X6052500Y-16187272D02*
X6092500Y-16227272D01*
X6092500Y-16187272D02*
X6052500Y-16227272D01*
X6436071Y-16042987D02*
X6464643Y-16042987D01*
X6493214Y-16057272D01*
X6507500Y-16071558D01*
X6521786Y-16100129D01*
X6536071Y-16157272D01*
X6536071Y-16228701D01*
X6521786Y-16285844D01*
X6507500Y-16314415D01*
X6493214Y-16328701D01*
X6464643Y-16342987D01*
X6436071Y-16342987D01*
X6407500Y-16328701D01*
X6393214Y-16314415D01*
X6378928Y-16285844D01*
X6364643Y-16228701D01*
X6364643Y-16157272D01*
X6378928Y-16100129D01*
X6393214Y-16071558D01*
X6407500Y-16057272D01*
X6436071Y-16042987D01*
X6664643Y-16314415D02*
X6678928Y-16328701D01*
X6664643Y-16342987D01*
X6650357Y-16328701D01*
X6664643Y-16314415D01*
X6664643Y-16342987D01*
X6936071Y-16142987D02*
X6936071Y-16342987D01*
X6864643Y-16028701D02*
X6793214Y-16242987D01*
X6978928Y-16242987D01*
X7150357Y-16042987D02*
X7178928Y-16042987D01*
X7207500Y-16057272D01*
X7221786Y-16071558D01*
X7236071Y-16100129D01*
X7250357Y-16157272D01*
X7250357Y-16228701D01*
X7236071Y-16285844D01*
X7221786Y-16314415D01*
X7207500Y-16328701D01*
X7178928Y-16342987D01*
X7150357Y-16342987D01*
X7121786Y-16328701D01*
X7107500Y-16314415D01*
X7093214Y-16285844D01*
X7078928Y-16228701D01*
X7078928Y-16157272D01*
X7093214Y-16100129D01*
X7107500Y-16071558D01*
X7121786Y-16057272D01*
X7150357Y-16042987D01*
X7378928Y-16342987D02*
X7378928Y-16142987D01*
X7378928Y-16171558D02*
X7393214Y-16157272D01*
X7421786Y-16142987D01*
X7464643Y-16142987D01*
X7493214Y-16157272D01*
X7507500Y-16185844D01*
X7507500Y-16342987D01*
X7507500Y-16185844D02*
X7521786Y-16157272D01*
X7550357Y-16142987D01*
X7593214Y-16142987D01*
X7621786Y-16157272D01*
X7636071Y-16185844D01*
X7636071Y-16342987D01*
X7778928Y-16342987D02*
X7778928Y-16142987D01*
X7778928Y-16171558D02*
X7793214Y-16157272D01*
X7821786Y-16142987D01*
X7864643Y-16142987D01*
X7893214Y-16157272D01*
X7907500Y-16185844D01*
X7907500Y-16342987D01*
X7907500Y-16185844D02*
X7921786Y-16157272D01*
X7950357Y-16142987D01*
X7993214Y-16142987D01*
X8021786Y-16157272D01*
X8036071Y-16185844D01*
X8036071Y-16342987D01*
X8621786Y-16028701D02*
X8364643Y-16414415D01*
X9007500Y-16042987D02*
X9036071Y-16042987D01*
X9064643Y-16057272D01*
X9078928Y-16071558D01*
X9093214Y-16100129D01*
X9107500Y-16157272D01*
X9107500Y-16228701D01*
X9093214Y-16285844D01*
X9078928Y-16314415D01*
X9064643Y-16328701D01*
X9036071Y-16342987D01*
X9007500Y-16342987D01*
X8978928Y-16328701D01*
X8964643Y-16314415D01*
X8950357Y-16285844D01*
X8936071Y-16228701D01*
X8936071Y-16157272D01*
X8950357Y-16100129D01*
X8964643Y-16071558D01*
X8978928Y-16057272D01*
X9007500Y-16042987D01*
X9236071Y-16314415D02*
X9250357Y-16328701D01*
X9236071Y-16342987D01*
X9221786Y-16328701D01*
X9236071Y-16314415D01*
X9236071Y-16342987D01*
X9436071Y-16042987D02*
X9464643Y-16042987D01*
X9493214Y-16057272D01*
X9507500Y-16071558D01*
X9521786Y-16100129D01*
X9536071Y-16157272D01*
X9536071Y-16228701D01*
X9521786Y-16285844D01*
X9507500Y-16314415D01*
X9493214Y-16328701D01*
X9464643Y-16342987D01*
X9436071Y-16342987D01*
X9407500Y-16328701D01*
X9393214Y-16314415D01*
X9378928Y-16285844D01*
X9364643Y-16228701D01*
X9364643Y-16157272D01*
X9378928Y-16100129D01*
X9393214Y-16071558D01*
X9407500Y-16057272D01*
X9436071Y-16042987D01*
X9821786Y-16342987D02*
X9650357Y-16342987D01*
X9736071Y-16342987D02*
X9736071Y-16042987D01*
X9707500Y-16085844D01*
X9678928Y-16114415D01*
X9650357Y-16128701D01*
X10078928Y-16042987D02*
X10021786Y-16042987D01*
X9993214Y-16057272D01*
X9978928Y-16071558D01*
X9950357Y-16114415D01*
X9936071Y-16171558D01*
X9936071Y-16285844D01*
X9950357Y-16314415D01*
X9964643Y-16328701D01*
X9993214Y-16342987D01*
X10050357Y-16342987D01*
X10078928Y-16328701D01*
X10093214Y-16314415D01*
X10107500Y-16285844D01*
X10107500Y-16214415D01*
X10093214Y-16185844D01*
X10078928Y-16171558D01*
X10050357Y-16157272D01*
X9993214Y-16157272D01*
X9964643Y-16171558D01*
X9950357Y-16185844D01*
X9936071Y-16214415D01*
X10221786Y-16042987D02*
X10221786Y-16100129D01*
X10336071Y-16042987D02*
X10336071Y-16100129D01*
X10778928Y-16457272D02*
X10764643Y-16442987D01*
X10736071Y-16400129D01*
X10721786Y-16371558D01*
X10707500Y-16328701D01*
X10693214Y-16257272D01*
X10693214Y-16200129D01*
X10707500Y-16128701D01*
X10721786Y-16085844D01*
X10736071Y-16057272D01*
X10764643Y-16014415D01*
X10778928Y-16000129D01*
X11021786Y-16142987D02*
X11021786Y-16342987D01*
X10950357Y-16028701D02*
X10878928Y-16242987D01*
X11064643Y-16242987D01*
X11236071Y-16042987D02*
X11264643Y-16042987D01*
X11293214Y-16057272D01*
X11307500Y-16071558D01*
X11321786Y-16100129D01*
X11336071Y-16157272D01*
X11336071Y-16228701D01*
X11321786Y-16285844D01*
X11307500Y-16314415D01*
X11293214Y-16328701D01*
X11264643Y-16342987D01*
X11236071Y-16342987D01*
X11207500Y-16328701D01*
X11193214Y-16314415D01*
X11178928Y-16285844D01*
X11164643Y-16228701D01*
X11164643Y-16157272D01*
X11178928Y-16100129D01*
X11193214Y-16071558D01*
X11207500Y-16057272D01*
X11236071Y-16042987D01*
X11693214Y-16342987D02*
X11693214Y-16042987D01*
X11821786Y-16342987D02*
X11821786Y-16185844D01*
X11807500Y-16157272D01*
X11778928Y-16142987D01*
X11736071Y-16142987D01*
X11707500Y-16157272D01*
X11693214Y-16171558D01*
X12007500Y-16342987D02*
X11978928Y-16328701D01*
X11964643Y-16314415D01*
X11950357Y-16285844D01*
X11950357Y-16200129D01*
X11964643Y-16171558D01*
X11978928Y-16157272D01*
X12007500Y-16142987D01*
X12050357Y-16142987D01*
X12078928Y-16157272D01*
X12093214Y-16171558D01*
X12107500Y-16200129D01*
X12107500Y-16285844D01*
X12093214Y-16314415D01*
X12078928Y-16328701D01*
X12050357Y-16342987D01*
X12007500Y-16342987D01*
X12278928Y-16342987D02*
X12250357Y-16328701D01*
X12236071Y-16300129D01*
X12236071Y-16042987D01*
X12507500Y-16328701D02*
X12478928Y-16342987D01*
X12421786Y-16342987D01*
X12393214Y-16328701D01*
X12378928Y-16300129D01*
X12378928Y-16185844D01*
X12393214Y-16157272D01*
X12421786Y-16142987D01*
X12478928Y-16142987D01*
X12507500Y-16157272D01*
X12521786Y-16185844D01*
X12521786Y-16214415D01*
X12378928Y-16242987D01*
X12636071Y-16328701D02*
X12664643Y-16342987D01*
X12721786Y-16342987D01*
X12750357Y-16328701D01*
X12764643Y-16300129D01*
X12764643Y-16285844D01*
X12750357Y-16257272D01*
X12721786Y-16242987D01*
X12678928Y-16242987D01*
X12650357Y-16228701D01*
X12636071Y-16200129D01*
X12636071Y-16185844D01*
X12650357Y-16157272D01*
X12678928Y-16142987D01*
X12721786Y-16142987D01*
X12750357Y-16157272D01*
X12864643Y-16457272D02*
X12878928Y-16442987D01*
X12907500Y-16400129D01*
X12921786Y-16371558D01*
X12936071Y-16328701D01*
X12950357Y-16257272D01*
X12950357Y-16200129D01*
X12936071Y-16128701D01*
X12921786Y-16085844D01*
X12907500Y-16057272D01*
X12878928Y-16014415D01*
X12864643Y-16000129D01*
X6092500Y-16603272D02*
G75*
G03X6092500Y-16603272I-25000J0D01*
G01*
X6436071Y-16438987D02*
X6464643Y-16438987D01*
X6493214Y-16453272D01*
X6507500Y-16467558D01*
X6521786Y-16496129D01*
X6536071Y-16553272D01*
X6536071Y-16624701D01*
X6521786Y-16681844D01*
X6507500Y-16710415D01*
X6493214Y-16724701D01*
X6464643Y-16738987D01*
X6436071Y-16738987D01*
X6407500Y-16724701D01*
X6393214Y-16710415D01*
X6378928Y-16681844D01*
X6364643Y-16624701D01*
X6364643Y-16553272D01*
X6378928Y-16496129D01*
X6393214Y-16467558D01*
X6407500Y-16453272D01*
X6436071Y-16438987D01*
X6664643Y-16710415D02*
X6678928Y-16724701D01*
X6664643Y-16738987D01*
X6650357Y-16724701D01*
X6664643Y-16710415D01*
X6664643Y-16738987D01*
X6950357Y-16438987D02*
X6807500Y-16438987D01*
X6793214Y-16581844D01*
X6807500Y-16567558D01*
X6836071Y-16553272D01*
X6907500Y-16553272D01*
X6936071Y-16567558D01*
X6950357Y-16581844D01*
X6964643Y-16610415D01*
X6964643Y-16681844D01*
X6950357Y-16710415D01*
X6936071Y-16724701D01*
X6907500Y-16738987D01*
X6836071Y-16738987D01*
X6807500Y-16724701D01*
X6793214Y-16710415D01*
X7150357Y-16438987D02*
X7178928Y-16438987D01*
X7207500Y-16453272D01*
X7221786Y-16467558D01*
X7236071Y-16496129D01*
X7250357Y-16553272D01*
X7250357Y-16624701D01*
X7236071Y-16681844D01*
X7221786Y-16710415D01*
X7207500Y-16724701D01*
X7178928Y-16738987D01*
X7150357Y-16738987D01*
X7121786Y-16724701D01*
X7107500Y-16710415D01*
X7093214Y-16681844D01*
X7078928Y-16624701D01*
X7078928Y-16553272D01*
X7093214Y-16496129D01*
X7107500Y-16467558D01*
X7121786Y-16453272D01*
X7150357Y-16438987D01*
X7378928Y-16738987D02*
X7378928Y-16538987D01*
X7378928Y-16567558D02*
X7393214Y-16553272D01*
X7421786Y-16538987D01*
X7464643Y-16538987D01*
X7493214Y-16553272D01*
X7507500Y-16581844D01*
X7507500Y-16738987D01*
X7507500Y-16581844D02*
X7521786Y-16553272D01*
X7550357Y-16538987D01*
X7593214Y-16538987D01*
X7621786Y-16553272D01*
X7636071Y-16581844D01*
X7636071Y-16738987D01*
X7778928Y-16738987D02*
X7778928Y-16538987D01*
X7778928Y-16567558D02*
X7793214Y-16553272D01*
X7821786Y-16538987D01*
X7864643Y-16538987D01*
X7893214Y-16553272D01*
X7907500Y-16581844D01*
X7907500Y-16738987D01*
X7907500Y-16581844D02*
X7921786Y-16553272D01*
X7950357Y-16538987D01*
X7993214Y-16538987D01*
X8021786Y-16553272D01*
X8036071Y-16581844D01*
X8036071Y-16738987D01*
X8621786Y-16424701D02*
X8364643Y-16810415D01*
X9007500Y-16438987D02*
X9036071Y-16438987D01*
X9064643Y-16453272D01*
X9078928Y-16467558D01*
X9093214Y-16496129D01*
X9107500Y-16553272D01*
X9107500Y-16624701D01*
X9093214Y-16681844D01*
X9078928Y-16710415D01*
X9064643Y-16724701D01*
X9036071Y-16738987D01*
X9007500Y-16738987D01*
X8978928Y-16724701D01*
X8964643Y-16710415D01*
X8950357Y-16681844D01*
X8936071Y-16624701D01*
X8936071Y-16553272D01*
X8950357Y-16496129D01*
X8964643Y-16467558D01*
X8978928Y-16453272D01*
X9007500Y-16438987D01*
X9236071Y-16710415D02*
X9250357Y-16724701D01*
X9236071Y-16738987D01*
X9221786Y-16724701D01*
X9236071Y-16710415D01*
X9236071Y-16738987D01*
X9436071Y-16438987D02*
X9464643Y-16438987D01*
X9493214Y-16453272D01*
X9507500Y-16467558D01*
X9521786Y-16496129D01*
X9536071Y-16553272D01*
X9536071Y-16624701D01*
X9521786Y-16681844D01*
X9507500Y-16710415D01*
X9493214Y-16724701D01*
X9464643Y-16738987D01*
X9436071Y-16738987D01*
X9407500Y-16724701D01*
X9393214Y-16710415D01*
X9378928Y-16681844D01*
X9364643Y-16624701D01*
X9364643Y-16553272D01*
X9378928Y-16496129D01*
X9393214Y-16467558D01*
X9407500Y-16453272D01*
X9436071Y-16438987D01*
X9650357Y-16467558D02*
X9664643Y-16453272D01*
X9693214Y-16438987D01*
X9764643Y-16438987D01*
X9793214Y-16453272D01*
X9807500Y-16467558D01*
X9821786Y-16496129D01*
X9821786Y-16524701D01*
X9807500Y-16567558D01*
X9636071Y-16738987D01*
X9821786Y-16738987D01*
X10007500Y-16438987D02*
X10036071Y-16438987D01*
X10064643Y-16453272D01*
X10078928Y-16467558D01*
X10093214Y-16496129D01*
X10107500Y-16553272D01*
X10107500Y-16624701D01*
X10093214Y-16681844D01*
X10078928Y-16710415D01*
X10064643Y-16724701D01*
X10036071Y-16738987D01*
X10007500Y-16738987D01*
X9978928Y-16724701D01*
X9964643Y-16710415D01*
X9950357Y-16681844D01*
X9936071Y-16624701D01*
X9936071Y-16553272D01*
X9950357Y-16496129D01*
X9964643Y-16467558D01*
X9978928Y-16453272D01*
X10007500Y-16438987D01*
X10221786Y-16438987D02*
X10221786Y-16496129D01*
X10336071Y-16438987D02*
X10336071Y-16496129D01*
X10778928Y-16853272D02*
X10764643Y-16838987D01*
X10736071Y-16796130D01*
X10721786Y-16767558D01*
X10707500Y-16724701D01*
X10693214Y-16653272D01*
X10693214Y-16596129D01*
X10707500Y-16524701D01*
X10721786Y-16481844D01*
X10736071Y-16453272D01*
X10764643Y-16410415D01*
X10778928Y-16396129D01*
X10950357Y-16438987D02*
X10978928Y-16438987D01*
X11007500Y-16453272D01*
X11021786Y-16467558D01*
X11036071Y-16496129D01*
X11050357Y-16553272D01*
X11050357Y-16624701D01*
X11036071Y-16681844D01*
X11021786Y-16710415D01*
X11007500Y-16724701D01*
X10978928Y-16738987D01*
X10950357Y-16738987D01*
X10921786Y-16724701D01*
X10907500Y-16710415D01*
X10893214Y-16681844D01*
X10878928Y-16624701D01*
X10878928Y-16553272D01*
X10893214Y-16496129D01*
X10907500Y-16467558D01*
X10921786Y-16453272D01*
X10950357Y-16438987D01*
X11407500Y-16738987D02*
X11407500Y-16438987D01*
X11536071Y-16738987D02*
X11536071Y-16581844D01*
X11521786Y-16553272D01*
X11493214Y-16538987D01*
X11450357Y-16538987D01*
X11421786Y-16553272D01*
X11407500Y-16567558D01*
X11721786Y-16738987D02*
X11693214Y-16724701D01*
X11678928Y-16710415D01*
X11664643Y-16681844D01*
X11664643Y-16596129D01*
X11678928Y-16567558D01*
X11693214Y-16553272D01*
X11721786Y-16538987D01*
X11764643Y-16538987D01*
X11793214Y-16553272D01*
X11807500Y-16567558D01*
X11821786Y-16596129D01*
X11821786Y-16681844D01*
X11807500Y-16710415D01*
X11793214Y-16724701D01*
X11764643Y-16738987D01*
X11721786Y-16738987D01*
X11993214Y-16738987D02*
X11964643Y-16724701D01*
X11950357Y-16696129D01*
X11950357Y-16438987D01*
X12221786Y-16724701D02*
X12193214Y-16738987D01*
X12136071Y-16738987D01*
X12107500Y-16724701D01*
X12093214Y-16696129D01*
X12093214Y-16581844D01*
X12107500Y-16553272D01*
X12136071Y-16538987D01*
X12193214Y-16538987D01*
X12221786Y-16553272D01*
X12236071Y-16581844D01*
X12236071Y-16610415D01*
X12093214Y-16638987D01*
X12350357Y-16724701D02*
X12378928Y-16738987D01*
X12436071Y-16738987D01*
X12464643Y-16724701D01*
X12478928Y-16696129D01*
X12478928Y-16681844D01*
X12464643Y-16653272D01*
X12436071Y-16638987D01*
X12393214Y-16638987D01*
X12364643Y-16624701D01*
X12350357Y-16596129D01*
X12350357Y-16581844D01*
X12364643Y-16553272D01*
X12393214Y-16538987D01*
X12436071Y-16538987D01*
X12464643Y-16553272D01*
X12836071Y-16624701D02*
X13064643Y-16624701D01*
X12950357Y-16738987D02*
X12950357Y-16510415D01*
X13478928Y-16567558D02*
X13450357Y-16553272D01*
X13436071Y-16538987D01*
X13421786Y-16510415D01*
X13421786Y-16496129D01*
X13436071Y-16467558D01*
X13450357Y-16453272D01*
X13478928Y-16438987D01*
X13536071Y-16438987D01*
X13564643Y-16453272D01*
X13578928Y-16467558D01*
X13593214Y-16496129D01*
X13593214Y-16510415D01*
X13578928Y-16538987D01*
X13564643Y-16553272D01*
X13536071Y-16567558D01*
X13478928Y-16567558D01*
X13450357Y-16581844D01*
X13436071Y-16596129D01*
X13421786Y-16624701D01*
X13421786Y-16681844D01*
X13436071Y-16710415D01*
X13450357Y-16724701D01*
X13478928Y-16738987D01*
X13536071Y-16738987D01*
X13564643Y-16724701D01*
X13578928Y-16710415D01*
X13593214Y-16681844D01*
X13593214Y-16624701D01*
X13578928Y-16596129D01*
X13564643Y-16581844D01*
X13536071Y-16567558D01*
X13850357Y-16538987D02*
X13850357Y-16738987D01*
X13778928Y-16424701D02*
X13707500Y-16638987D01*
X13893214Y-16638987D01*
X14221786Y-16724701D02*
X14250357Y-16738987D01*
X14307500Y-16738987D01*
X14336071Y-16724701D01*
X14350357Y-16696129D01*
X14350357Y-16681844D01*
X14336071Y-16653272D01*
X14307500Y-16638987D01*
X14264643Y-16638987D01*
X14236071Y-16624701D01*
X14221786Y-16596129D01*
X14221786Y-16581844D01*
X14236071Y-16553272D01*
X14264643Y-16538987D01*
X14307500Y-16538987D01*
X14336071Y-16553272D01*
X14521786Y-16738987D02*
X14493214Y-16724701D01*
X14478928Y-16696129D01*
X14478928Y-16438987D01*
X14678928Y-16738987D02*
X14650357Y-16724701D01*
X14636071Y-16710415D01*
X14621786Y-16681844D01*
X14621786Y-16596129D01*
X14636071Y-16567558D01*
X14650357Y-16553272D01*
X14678928Y-16538987D01*
X14721786Y-16538987D01*
X14750357Y-16553272D01*
X14764643Y-16567558D01*
X14778928Y-16596129D01*
X14778928Y-16681844D01*
X14764643Y-16710415D01*
X14750357Y-16724701D01*
X14721786Y-16738987D01*
X14678928Y-16738987D01*
X14864643Y-16538987D02*
X14978928Y-16538987D01*
X14907500Y-16438987D02*
X14907500Y-16696129D01*
X14921786Y-16724701D01*
X14950357Y-16738987D01*
X14978928Y-16738987D01*
X15064643Y-16724701D02*
X15093214Y-16738987D01*
X15150357Y-16738987D01*
X15178928Y-16724701D01*
X15193214Y-16696129D01*
X15193214Y-16681844D01*
X15178928Y-16653272D01*
X15150357Y-16638987D01*
X15107500Y-16638987D01*
X15078928Y-16624701D01*
X15064643Y-16596129D01*
X15064643Y-16581844D01*
X15078928Y-16553272D01*
X15107500Y-16538987D01*
X15150357Y-16538987D01*
X15178928Y-16553272D01*
X15293214Y-16853272D02*
X15307500Y-16838987D01*
X15336071Y-16796130D01*
X15350357Y-16767558D01*
X15364643Y-16724701D01*
X15378928Y-16653272D01*
X15378928Y-16596129D01*
X15364643Y-16524701D01*
X15350357Y-16481844D01*
X15336071Y-16453272D01*
X15307500Y-16410415D01*
X15293214Y-16396129D01*
X5982500Y-16889272D02*
X5982500Y-17109272D01*
X5872500Y-16999272D02*
X6092500Y-16999272D01*
X6364643Y-16863558D02*
X6378928Y-16849272D01*
X6407500Y-16834987D01*
X6478928Y-16834987D01*
X6507500Y-16849272D01*
X6521786Y-16863558D01*
X6536071Y-16892130D01*
X6536071Y-16920701D01*
X6521786Y-16963558D01*
X6350357Y-17134987D01*
X6536071Y-17134987D01*
X6664643Y-17106415D02*
X6678928Y-17120701D01*
X6664643Y-17134987D01*
X6650357Y-17120701D01*
X6664643Y-17106415D01*
X6664643Y-17134987D01*
X6793214Y-16863558D02*
X6807500Y-16849272D01*
X6836071Y-16834987D01*
X6907500Y-16834987D01*
X6936071Y-16849272D01*
X6950357Y-16863558D01*
X6964643Y-16892130D01*
X6964643Y-16920701D01*
X6950357Y-16963558D01*
X6778928Y-17134987D01*
X6964643Y-17134987D01*
X7150357Y-16834987D02*
X7178928Y-16834987D01*
X7207500Y-16849272D01*
X7221786Y-16863558D01*
X7236071Y-16892130D01*
X7250357Y-16949272D01*
X7250357Y-17020701D01*
X7236071Y-17077844D01*
X7221786Y-17106415D01*
X7207500Y-17120701D01*
X7178928Y-17134987D01*
X7150357Y-17134987D01*
X7121786Y-17120701D01*
X7107500Y-17106415D01*
X7093214Y-17077844D01*
X7078928Y-17020701D01*
X7078928Y-16949272D01*
X7093214Y-16892130D01*
X7107500Y-16863558D01*
X7121786Y-16849272D01*
X7150357Y-16834987D01*
X7378928Y-17134987D02*
X7378928Y-16934987D01*
X7378928Y-16963558D02*
X7393214Y-16949272D01*
X7421786Y-16934987D01*
X7464643Y-16934987D01*
X7493214Y-16949272D01*
X7507500Y-16977844D01*
X7507500Y-17134987D01*
X7507500Y-16977844D02*
X7521786Y-16949272D01*
X7550357Y-16934987D01*
X7593214Y-16934987D01*
X7621786Y-16949272D01*
X7636071Y-16977844D01*
X7636071Y-17134987D01*
X7778928Y-17134987D02*
X7778928Y-16934987D01*
X7778928Y-16963558D02*
X7793214Y-16949272D01*
X7821786Y-16934987D01*
X7864643Y-16934987D01*
X7893214Y-16949272D01*
X7907500Y-16977844D01*
X7907500Y-17134987D01*
X7907500Y-16977844D02*
X7921786Y-16949272D01*
X7950357Y-16934987D01*
X7993214Y-16934987D01*
X8021786Y-16949272D01*
X8036071Y-16977844D01*
X8036071Y-17134987D01*
X8621786Y-16820701D02*
X8364643Y-17206415D01*
X9007500Y-16834987D02*
X9036071Y-16834987D01*
X9064643Y-16849272D01*
X9078928Y-16863558D01*
X9093214Y-16892130D01*
X9107500Y-16949272D01*
X9107500Y-17020701D01*
X9093214Y-17077844D01*
X9078928Y-17106415D01*
X9064643Y-17120701D01*
X9036071Y-17134987D01*
X9007500Y-17134987D01*
X8978928Y-17120701D01*
X8964643Y-17106415D01*
X8950357Y-17077844D01*
X8936071Y-17020701D01*
X8936071Y-16949272D01*
X8950357Y-16892130D01*
X8964643Y-16863558D01*
X8978928Y-16849272D01*
X9007500Y-16834987D01*
X9236071Y-17106415D02*
X9250357Y-17120701D01*
X9236071Y-17134987D01*
X9221786Y-17120701D01*
X9236071Y-17106415D01*
X9236071Y-17134987D01*
X9436071Y-16834987D02*
X9464643Y-16834987D01*
X9493214Y-16849272D01*
X9507500Y-16863558D01*
X9521786Y-16892130D01*
X9536071Y-16949272D01*
X9536071Y-17020701D01*
X9521786Y-17077844D01*
X9507500Y-17106415D01*
X9493214Y-17120701D01*
X9464643Y-17134987D01*
X9436071Y-17134987D01*
X9407500Y-17120701D01*
X9393214Y-17106415D01*
X9378928Y-17077844D01*
X9364643Y-17020701D01*
X9364643Y-16949272D01*
X9378928Y-16892130D01*
X9393214Y-16863558D01*
X9407500Y-16849272D01*
X9436071Y-16834987D01*
X9707500Y-16963558D02*
X9678928Y-16949272D01*
X9664643Y-16934987D01*
X9650357Y-16906415D01*
X9650357Y-16892130D01*
X9664643Y-16863558D01*
X9678928Y-16849272D01*
X9707500Y-16834987D01*
X9764643Y-16834987D01*
X9793214Y-16849272D01*
X9807500Y-16863558D01*
X9821786Y-16892130D01*
X9821786Y-16906415D01*
X9807500Y-16934987D01*
X9793214Y-16949272D01*
X9764643Y-16963558D01*
X9707500Y-16963558D01*
X9678928Y-16977844D01*
X9664643Y-16992130D01*
X9650357Y-17020701D01*
X9650357Y-17077844D01*
X9664643Y-17106415D01*
X9678928Y-17120701D01*
X9707500Y-17134987D01*
X9764643Y-17134987D01*
X9793214Y-17120701D01*
X9807500Y-17106415D01*
X9821786Y-17077844D01*
X9821786Y-17020701D01*
X9807500Y-16992130D01*
X9793214Y-16977844D01*
X9764643Y-16963558D01*
X9921786Y-16834987D02*
X10121786Y-16834987D01*
X9993214Y-17134987D01*
X10221786Y-16834987D02*
X10221786Y-16892130D01*
X10336071Y-16834987D02*
X10336071Y-16892130D01*
X10778928Y-17249272D02*
X10764643Y-17234987D01*
X10736071Y-17192130D01*
X10721786Y-17163558D01*
X10707500Y-17120701D01*
X10693214Y-17049272D01*
X10693214Y-16992130D01*
X10707500Y-16920701D01*
X10721786Y-16877844D01*
X10736071Y-16849272D01*
X10764643Y-16806415D01*
X10778928Y-16792130D01*
X11036071Y-16834987D02*
X10893214Y-16834987D01*
X10878928Y-16977844D01*
X10893214Y-16963558D01*
X10921786Y-16949272D01*
X10993214Y-16949272D01*
X11021786Y-16963558D01*
X11036071Y-16977844D01*
X11050357Y-17006415D01*
X11050357Y-17077844D01*
X11036071Y-17106415D01*
X11021786Y-17120701D01*
X10993214Y-17134987D01*
X10921786Y-17134987D01*
X10893214Y-17120701D01*
X10878928Y-17106415D01*
X11407500Y-17134987D02*
X11407500Y-16834987D01*
X11536071Y-17134987D02*
X11536071Y-16977844D01*
X11521786Y-16949272D01*
X11493214Y-16934987D01*
X11450357Y-16934987D01*
X11421786Y-16949272D01*
X11407500Y-16963558D01*
X11721786Y-17134987D02*
X11693214Y-17120701D01*
X11678928Y-17106415D01*
X11664643Y-17077844D01*
X11664643Y-16992130D01*
X11678928Y-16963558D01*
X11693214Y-16949272D01*
X11721786Y-16934987D01*
X11764643Y-16934987D01*
X11793214Y-16949272D01*
X11807500Y-16963558D01*
X11821786Y-16992130D01*
X11821786Y-17077844D01*
X11807500Y-17106415D01*
X11793214Y-17120701D01*
X11764643Y-17134987D01*
X11721786Y-17134987D01*
X11993214Y-17134987D02*
X11964643Y-17120701D01*
X11950357Y-17092130D01*
X11950357Y-16834987D01*
X12221786Y-17120701D02*
X12193214Y-17134987D01*
X12136071Y-17134987D01*
X12107500Y-17120701D01*
X12093214Y-17092130D01*
X12093214Y-16977844D01*
X12107500Y-16949272D01*
X12136071Y-16934987D01*
X12193214Y-16934987D01*
X12221786Y-16949272D01*
X12236071Y-16977844D01*
X12236071Y-17006415D01*
X12093214Y-17034987D01*
X12350357Y-17120701D02*
X12378928Y-17134987D01*
X12436071Y-17134987D01*
X12464643Y-17120701D01*
X12478928Y-17092130D01*
X12478928Y-17077844D01*
X12464643Y-17049272D01*
X12436071Y-17034987D01*
X12393214Y-17034987D01*
X12364643Y-17020701D01*
X12350357Y-16992130D01*
X12350357Y-16977844D01*
X12364643Y-16949272D01*
X12393214Y-16934987D01*
X12436071Y-16934987D01*
X12464643Y-16949272D01*
X12578928Y-17249272D02*
X12593214Y-17234987D01*
X12621786Y-17192130D01*
X12636071Y-17163558D01*
X12650357Y-17120701D01*
X12664643Y-17049272D01*
X12664643Y-16992130D01*
X12650357Y-16920701D01*
X12636071Y-16877844D01*
X12621786Y-16849272D01*
X12593214Y-16806415D01*
X12578928Y-16792130D01*
M02*
