G04 #@! TF.GenerationSoftware,KiCad,Pcbnew,5.1.5+dfsg1-2~bpo10+1*
G04 #@! TF.CreationDate,2020-09-05T13:18:23+00:00*
G04 #@! TF.ProjectId,corne-top-plate,636f726e-652d-4746-9f70-2d706c617465,2.1*
G04 #@! TF.SameCoordinates,Original*
G04 #@! TF.FileFunction,Copper,L1,Top*
G04 #@! TF.FilePolarity,Positive*
%FSLAX46Y46*%
G04 Gerber Fmt 4.6, Leading zero omitted, Abs format (unit mm)*
G04 Created by KiCad (PCBNEW 5.1.5+dfsg1-2~bpo10+1) date 2020-09-05 13:18:23*
%MOMM*%
%LPD*%
G04 APERTURE LIST*
%ADD10C,0.500000*%
%ADD11C,4.000000*%
%ADD12C,1.500000*%
%ADD13O,1.500000X15.000000*%
%ADD14O,15.000000X1.500000*%
%ADD15C,0.350000*%
%ADD16C,0.500000*%
%ADD17O,0.500000X14.000000*%
%ADD18O,14.000000X0.500000*%
G04 APERTURE END LIST*
D10*
X123810000Y-121690000D03*
X121690000Y-121690000D03*
X121690000Y-123810000D03*
X123810000Y-123810000D03*
X122750000Y-121250000D03*
X122750000Y-124250000D03*
X121250000Y-122750000D03*
X124250000Y-122750000D03*
D11*
X122750000Y-122750000D03*
D10*
X170310000Y-129440000D03*
X168190000Y-129440000D03*
X168190000Y-131560000D03*
X170310000Y-131560000D03*
X169250000Y-129000000D03*
X169250000Y-132000000D03*
X167750000Y-130500000D03*
X170750000Y-130500000D03*
D11*
X169250000Y-130500000D03*
D10*
X80560000Y-104440000D03*
X78440000Y-104440000D03*
X78440000Y-106560000D03*
X80560000Y-106560000D03*
X79500000Y-104000000D03*
X79500000Y-107000000D03*
X78000000Y-105500000D03*
X81000000Y-105500000D03*
D11*
X79500000Y-105500000D03*
D10*
X156560000Y-81940000D03*
X154440000Y-81940000D03*
X154440000Y-84060000D03*
X156560000Y-84060000D03*
X155500000Y-81500000D03*
X155500000Y-84500000D03*
X154000000Y-83000000D03*
X157000000Y-83000000D03*
D11*
X155500000Y-83000000D03*
D10*
X80560000Y-85690000D03*
X78440000Y-85690000D03*
X78440000Y-87810000D03*
X80560000Y-87810000D03*
X79500000Y-85250000D03*
X79500000Y-88250000D03*
X78000000Y-86750000D03*
X81000000Y-86750000D03*
D11*
X79500000Y-86750000D03*
D12*
X189013973Y-134039329D02*
X182263973Y-145730671D01*
X177236027Y-127239329D02*
X170486027Y-138930671D01*
X170504329Y-138998973D02*
X182195671Y-145748973D01*
X177304329Y-127221027D02*
X188995671Y-133971027D01*
X152731971Y-124428675D02*
X165771969Y-127922733D01*
X149212031Y-137565267D02*
X162252029Y-141059325D01*
X152670733Y-124464031D02*
X149176675Y-137504029D01*
X165807325Y-127983971D02*
X162313267Y-141023969D01*
D13*
X143330000Y-130035000D03*
X129730000Y-130035000D03*
D14*
X136530000Y-136835000D03*
X136530000Y-123235000D03*
D13*
X171810000Y-112750000D03*
X158210000Y-112750000D03*
D14*
X165010000Y-119550000D03*
X165010000Y-105950000D03*
D13*
X171810000Y-74750000D03*
X158210000Y-74750000D03*
D14*
X165010000Y-81550000D03*
X165010000Y-67950000D03*
X165010000Y-86950000D03*
X165010000Y-100550000D03*
D13*
X158210000Y-93750000D03*
X171810000Y-93750000D03*
X152810000Y-91375000D03*
X139210000Y-91375000D03*
D14*
X146010000Y-98175000D03*
X146010000Y-84575000D03*
X146010000Y-65575000D03*
X146010000Y-79175000D03*
D13*
X139210000Y-72375000D03*
X152810000Y-72375000D03*
D14*
X146010000Y-103575000D03*
X146010000Y-117175000D03*
D13*
X139210000Y-110375000D03*
X152810000Y-110375000D03*
D14*
X127010000Y-82200000D03*
X127010000Y-95800000D03*
D13*
X120210000Y-89000000D03*
X133810000Y-89000000D03*
X133810000Y-108000000D03*
X120210000Y-108000000D03*
D14*
X127010000Y-114800000D03*
X127010000Y-101200000D03*
D13*
X133810000Y-70000000D03*
X120210000Y-70000000D03*
D14*
X127010000Y-76800000D03*
X127010000Y-63200000D03*
D13*
X114810000Y-91375000D03*
X101210000Y-91375000D03*
D14*
X108010000Y-98175000D03*
X108010000Y-84575000D03*
X108010000Y-103575000D03*
X108010000Y-117175000D03*
D13*
X101210000Y-110375000D03*
X114810000Y-110375000D03*
D14*
X108010000Y-65575000D03*
X108010000Y-79175000D03*
D13*
X101210000Y-72375000D03*
X114810000Y-72375000D03*
D14*
X89010000Y-89325000D03*
X89010000Y-102925000D03*
D13*
X82210000Y-96125000D03*
X95810000Y-96125000D03*
X95810000Y-115125000D03*
X82210000Y-115125000D03*
D14*
X89010000Y-121925000D03*
X89010000Y-108325000D03*
D13*
X95810000Y-77125000D03*
X82210000Y-77125000D03*
D14*
X89010000Y-83925000D03*
X89010000Y-70325000D03*
X70010000Y-108325000D03*
X70010000Y-121925000D03*
D13*
X63210000Y-115125000D03*
X76810000Y-115125000D03*
X76810000Y-96125000D03*
X63210000Y-96125000D03*
D14*
X70010000Y-102925000D03*
X70010000Y-89325000D03*
X70010000Y-70325000D03*
X70010000Y-83925000D03*
D13*
X63210000Y-77125000D03*
X76810000Y-77125000D03*
D15*
X123810000Y-121690000D03*
X121690000Y-121690000D03*
X121690000Y-123810000D03*
X123810000Y-123810000D03*
X122750000Y-121250000D03*
X122750000Y-124250000D03*
X121250000Y-122750000D03*
X124250000Y-122750000D03*
X122750000Y-122750000D03*
X170310000Y-129440000D03*
X168190000Y-129440000D03*
X168190000Y-131560000D03*
X170310000Y-131560000D03*
X169250000Y-129000000D03*
X169250000Y-132000000D03*
X167750000Y-130500000D03*
X170750000Y-130500000D03*
X169250000Y-130500000D03*
X80560000Y-104440000D03*
X78440000Y-104440000D03*
X78440000Y-106560000D03*
X80560000Y-106560000D03*
X79500000Y-104000000D03*
X79500000Y-107000000D03*
X78000000Y-105500000D03*
X81000000Y-105500000D03*
X79500000Y-105500000D03*
X156560000Y-81940000D03*
X154440000Y-81940000D03*
X154440000Y-84060000D03*
X156560000Y-84060000D03*
X155500000Y-81500000D03*
X155500000Y-84500000D03*
X154000000Y-83000000D03*
X157000000Y-83000000D03*
X155500000Y-83000000D03*
X80560000Y-85690000D03*
X78440000Y-85690000D03*
X78440000Y-87810000D03*
X80560000Y-87810000D03*
X79500000Y-85250000D03*
X79500000Y-88250000D03*
X78000000Y-86750000D03*
X81000000Y-86750000D03*
X79500000Y-86750000D03*
D16*
X189013973Y-134039329D02*
X182263973Y-145730671D01*
X177236027Y-127239329D02*
X170486027Y-138930671D01*
X170504329Y-138998973D02*
X182195671Y-145748973D01*
X177304329Y-127221027D02*
X188995671Y-133971027D01*
X152731971Y-124428675D02*
X165771969Y-127922733D01*
X149212031Y-137565267D02*
X162252029Y-141059325D01*
X152670733Y-124464031D02*
X149176675Y-137504029D01*
X165807325Y-127983971D02*
X162313267Y-141023969D01*
D17*
X143330000Y-130035000D03*
X129730000Y-130035000D03*
D18*
X136530000Y-136835000D03*
X136530000Y-123235000D03*
D17*
X171810000Y-112750000D03*
X158210000Y-112750000D03*
D18*
X165010000Y-119550000D03*
X165010000Y-105950000D03*
D17*
X171810000Y-74750000D03*
X158210000Y-74750000D03*
D18*
X165010000Y-81550000D03*
X165010000Y-67950000D03*
X165010000Y-86950000D03*
X165010000Y-100550000D03*
D17*
X158210000Y-93750000D03*
X171810000Y-93750000D03*
X152810000Y-91375000D03*
X139210000Y-91375000D03*
D18*
X146010000Y-98175000D03*
X146010000Y-84575000D03*
X146010000Y-65575000D03*
X146010000Y-79175000D03*
D17*
X139210000Y-72375000D03*
X152810000Y-72375000D03*
D18*
X146010000Y-103575000D03*
X146010000Y-117175000D03*
D17*
X139210000Y-110375000D03*
X152810000Y-110375000D03*
D18*
X127010000Y-82200000D03*
X127010000Y-95800000D03*
D17*
X120210000Y-89000000D03*
X133810000Y-89000000D03*
X133810000Y-108000000D03*
X120210000Y-108000000D03*
D18*
X127010000Y-114800000D03*
X127010000Y-101200000D03*
D17*
X133810000Y-70000000D03*
X120210000Y-70000000D03*
D18*
X127010000Y-76800000D03*
X127010000Y-63200000D03*
D17*
X114810000Y-91375000D03*
X101210000Y-91375000D03*
D18*
X108010000Y-98175000D03*
X108010000Y-84575000D03*
X108010000Y-103575000D03*
X108010000Y-117175000D03*
D17*
X101210000Y-110375000D03*
X114810000Y-110375000D03*
D18*
X108010000Y-65575000D03*
X108010000Y-79175000D03*
D17*
X101210000Y-72375000D03*
X114810000Y-72375000D03*
D18*
X89010000Y-89325000D03*
X89010000Y-102925000D03*
D17*
X82210000Y-96125000D03*
X95810000Y-96125000D03*
X95810000Y-115125000D03*
X82210000Y-115125000D03*
D18*
X89010000Y-121925000D03*
X89010000Y-108325000D03*
D17*
X95810000Y-77125000D03*
X82210000Y-77125000D03*
D18*
X89010000Y-83925000D03*
X89010000Y-70325000D03*
X70010000Y-108325000D03*
X70010000Y-121925000D03*
D17*
X63210000Y-115125000D03*
X76810000Y-115125000D03*
X76810000Y-96125000D03*
X63210000Y-96125000D03*
D18*
X70010000Y-102925000D03*
X70010000Y-89325000D03*
X70010000Y-70325000D03*
X70010000Y-83925000D03*
D17*
X63210000Y-77125000D03*
X76810000Y-77125000D03*
M02*
