M48
; DRILL file {KiCad 5.1.5+dfsg1-2~bpo10+1} date Sat Sep  5 13:18:23 2020
; FORMAT={-:-/ absolute / metric / decimal}
; #@! TF.CreationDate,2020-09-05T13:18:23+00:00
; #@! TF.GenerationSoftware,Kicad,Pcbnew,5.1.5+dfsg1-2~bpo10+1
; #@! TF.FileFunction,Plated,1,2,PTH
FMAT,2
METRIC
T1C0.400
T2C0.500
T3C2.200
%
G90
G05
T1
X167.75Y-130.5
X168.19Y-129.44
X168.19Y-131.56
X169.25Y-129.0
X169.25Y-132.0
X170.31Y-129.44
X170.31Y-131.56
X170.75Y-130.5
X154.0Y-83.0
X154.44Y-81.94
X154.44Y-84.06
X155.5Y-81.5
X155.5Y-84.5
X156.56Y-81.94
X156.56Y-84.06
X157.0Y-83.0
X78.0Y-86.75
X78.44Y-85.69
X78.44Y-87.81
X79.5Y-85.25
X79.5Y-88.25
X80.56Y-85.69
X80.56Y-87.81
X81.0Y-86.75
X121.25Y-122.75
X121.69Y-121.69
X121.69Y-123.81
X122.75Y-121.25
X122.75Y-124.25
X123.81Y-121.69
X123.81Y-123.81
X124.25Y-122.75
X78.0Y-105.5
X78.44Y-104.44
X78.44Y-106.56
X79.5Y-104.0
X79.5Y-107.0
X80.56Y-104.44
X80.56Y-106.56
X81.0Y-105.5
T3
X155.5Y-83.0
X79.5Y-86.75
X79.5Y-105.5
X169.25Y-130.5
X122.75Y-122.75
T2
G00X120.21Y-82.25
M15
G01X120.21Y-95.75
M16
G05
G00X120.26Y-82.2
M15
G01X133.76Y-82.2
M16
G05
G00X120.26Y-95.8
M15
G01X133.76Y-95.8
M16
G05
G00X133.81Y-82.25
M15
G01X133.81Y-95.75
M16
G05
G00X152.671Y-124.464
M15
G01X149.177Y-137.504
M16
G05
G00X149.212Y-137.565
M15
G01X162.252Y-141.059
M16
G05
G00X152.732Y-124.429
M15
G01X165.772Y-127.923
M16
G05
G00X165.807Y-127.984
M15
G01X162.313Y-141.024
M16
G05
G00X139.21Y-103.625
M15
G01X139.21Y-117.125
M16
G05
G00X139.26Y-103.575
M15
G01X152.76Y-103.575
M16
G05
G00X139.26Y-117.175
M15
G01X152.76Y-117.175
M16
G05
G00X152.81Y-103.625
M15
G01X152.81Y-117.125
M16
G05
G00X120.21Y-101.25
M15
G01X120.21Y-114.75
M16
G05
G00X120.26Y-101.2
M15
G01X133.76Y-101.2
M16
G05
G00X120.26Y-114.8
M15
G01X133.76Y-114.8
M16
G05
G00X133.81Y-101.25
M15
G01X133.81Y-114.75
M16
G05
G00X82.21Y-70.375
M15
G01X82.21Y-83.875
M16
G05
G00X82.26Y-70.325
M15
G01X95.76Y-70.325
M16
G05
G00X82.26Y-83.925
M15
G01X95.76Y-83.925
M16
G05
G00X95.81Y-70.375
M15
G01X95.81Y-83.875
M16
G05
G00X129.73Y-123.285
M15
G01X129.73Y-136.785
M16
G05
G00X129.78Y-123.235
M15
G01X143.28Y-123.235
M16
G05
G00X129.78Y-136.835
M15
G01X143.28Y-136.835
M16
G05
G00X143.33Y-123.285
M15
G01X143.33Y-136.785
M16
G05
G00X158.21Y-106.0
M15
G01X158.21Y-119.5
M16
G05
G00X158.26Y-105.95
M15
G01X171.76Y-105.95
M16
G05
G00X158.26Y-119.55
M15
G01X171.76Y-119.55
M16
G05
G00X171.81Y-106.0
M15
G01X171.81Y-119.5
M16
G05
G00X120.21Y-63.25
M15
G01X120.21Y-76.75
M16
G05
G00X120.26Y-63.2
M15
G01X133.76Y-63.2
M16
G05
G00X120.26Y-76.8
M15
G01X133.76Y-76.8
M16
G05
G00X133.81Y-63.25
M15
G01X133.81Y-76.75
M16
G05
G00X63.21Y-108.375
M15
G01X63.21Y-121.875
M16
G05
G00X63.26Y-108.325
M15
G01X76.76Y-108.325
M16
G05
G00X63.26Y-121.925
M15
G01X76.76Y-121.925
M16
G05
G00X76.81Y-108.375
M15
G01X76.81Y-121.875
M16
G05
G00X63.21Y-89.375
M15
G01X63.21Y-102.875
M16
G05
G00X63.26Y-89.325
M15
G01X76.76Y-89.325
M16
G05
G00X63.26Y-102.925
M15
G01X76.76Y-102.925
M16
G05
G00X76.81Y-89.375
M15
G01X76.81Y-102.875
M16
G05
G00X158.21Y-68.0
M15
G01X158.21Y-81.5
M16
G05
G00X158.26Y-67.95
M15
G01X171.76Y-67.95
M16
G05
G00X158.26Y-81.55
M15
G01X171.76Y-81.55
M16
G05
G00X171.81Y-68.0
M15
G01X171.81Y-81.5
M16
G05
G00X101.21Y-84.625
M15
G01X101.21Y-98.125
M16
G05
G00X101.26Y-84.575
M15
G01X114.76Y-84.575
M16
G05
G00X101.26Y-98.175
M15
G01X114.76Y-98.175
M16
G05
G00X114.81Y-84.625
M15
G01X114.81Y-98.125
M16
G05
G00X158.21Y-87.0
M15
G01X158.21Y-100.5
M16
G05
G00X158.26Y-86.95
M15
G01X171.76Y-86.95
M16
G05
G00X158.26Y-100.55
M15
G01X171.76Y-100.55
M16
G05
G00X171.81Y-87.0
M15
G01X171.81Y-100.5
M16
G05
G00X101.21Y-103.625
M15
G01X101.21Y-117.125
M16
G05
G00X101.26Y-103.575
M15
G01X114.76Y-103.575
M16
G05
G00X101.26Y-117.175
M15
G01X114.76Y-117.175
M16
G05
G00X114.81Y-103.625
M15
G01X114.81Y-117.125
M16
G05
G00X63.21Y-70.375
M15
G01X63.21Y-83.875
M16
G05
G00X63.26Y-70.325
M15
G01X76.76Y-70.325
M16
G05
G00X63.26Y-83.925
M15
G01X76.76Y-83.925
M16
G05
G00X76.81Y-70.375
M15
G01X76.81Y-83.875
M16
G05
G00X101.21Y-65.625
M15
G01X101.21Y-79.125
M16
G05
G00X101.26Y-65.575
M15
G01X114.76Y-65.575
M16
G05
G00X101.26Y-79.175
M15
G01X114.76Y-79.175
M16
G05
G00X114.81Y-65.625
M15
G01X114.81Y-79.125
M16
G05
G00X139.21Y-84.625
M15
G01X139.21Y-98.125
M16
G05
G00X139.26Y-84.575
M15
G01X152.76Y-84.575
M16
G05
G00X139.26Y-98.175
M15
G01X152.76Y-98.175
M16
G05
G00X152.81Y-84.625
M15
G01X152.81Y-98.125
M16
G05
G00X139.21Y-65.625
M15
G01X139.21Y-79.125
M16
G05
G00X139.26Y-65.575
M15
G01X152.76Y-65.575
M16
G05
G00X139.26Y-79.175
M15
G01X152.76Y-79.175
M16
G05
G00X152.81Y-65.625
M15
G01X152.81Y-79.125
M16
G05
G00X82.21Y-89.375
M15
G01X82.21Y-102.875
M16
G05
G00X82.26Y-89.325
M15
G01X95.76Y-89.325
M16
G05
G00X82.26Y-102.925
M15
G01X95.76Y-102.925
M16
G05
G00X95.81Y-89.375
M15
G01X95.81Y-102.875
M16
G05
G00X177.236Y-127.239
M15
G01X170.486Y-138.931
M16
G05
G00X170.504Y-138.999
M15
G01X182.196Y-145.749
M16
G05
G00X177.304Y-127.221
M15
G01X188.996Y-133.971
M16
G05
G00X189.014Y-134.039
M15
G01X182.264Y-145.731
M16
G05
G00X82.21Y-108.375
M15
G01X82.21Y-121.875
M16
G05
G00X82.26Y-108.325
M15
G01X95.76Y-108.325
M16
G05
G00X82.26Y-121.925
M15
G01X95.76Y-121.925
M16
G05
G00X95.81Y-108.375
M15
G01X95.81Y-121.875
M16
G05
T0
M30
