%FSLAX45Y45*%
G04 Gerber Fmt 4.5, Leading zero omitted, Abs format (unit mm)*
G04 Created by KiCad (PCBNEW 5.1.5+dfsg1-2~bpo10+1) date 2020-09-05 17:28:50*
%MOMM*%
%LPD*%
G04 APERTURE LIST*
%TA.AperFunction,Profile*%
%ADD10C,0.200000*%
%TD*%
%ADD11C,0.200000*%
%ADD12C,0.300000*%
G04 APERTURE END LIST*
D10*
X11526550Y-10267000D02*
X11510818Y-10262657D01*
X11510818Y-10262657D02*
X11494267Y-10258946D01*
X11494267Y-10258946D02*
X11477035Y-10255985D01*
X11477035Y-10255985D02*
X11461094Y-10254046D01*
X6704390Y-8316663D02*
X6692765Y-8308003D01*
X6692765Y-8308003D02*
X6677894Y-8302800D01*
X6677894Y-8302800D02*
X6669034Y-8302007D01*
X7758693Y-9762379D02*
X7770203Y-9770964D01*
X7770203Y-9770964D02*
X7785039Y-9776193D01*
X7785039Y-9776193D02*
X7794049Y-9777009D01*
X14471321Y-8761772D02*
X14478272Y-8748362D01*
X14478272Y-8748362D02*
X14484137Y-8734027D01*
X14484137Y-8734027D02*
X14488930Y-8718214D01*
X14488930Y-8718214D02*
X14492252Y-8701436D01*
X14492252Y-8701436D02*
X14493931Y-8683023D01*
X14493931Y-8683023D02*
X14494030Y-8674523D01*
X10518882Y-2401771D02*
X10518882Y-2251911D01*
X12369016Y-2451809D02*
X10568920Y-2451809D01*
X14494030Y-2727017D02*
X14491052Y-2709993D01*
X14491052Y-2709993D02*
X14483948Y-2696917D01*
X14483948Y-2696917D02*
X14473872Y-2686908D01*
X14473872Y-2686908D02*
X14460831Y-2679923D01*
X14460831Y-2679923D02*
X14444042Y-2677030D01*
X14493978Y-2726890D02*
X14493978Y-8674295D01*
X5571750Y-8302031D02*
X2256750Y-8302031D01*
X1119037Y-2727017D02*
X1118860Y-8251893D01*
X4868912Y-2676853D02*
X1169050Y-2677030D01*
X8568926Y-1976829D02*
X6868906Y-1976829D01*
X8618964Y-2151835D02*
X8618964Y-2026867D01*
X10468844Y-2201873D02*
X9856750Y-2201873D01*
X11526550Y-10267000D02*
X12955958Y-11093108D01*
X12418800Y-2501847D02*
X12419029Y-2627018D01*
X12419029Y-2502024D02*
X12416057Y-2484993D01*
X12416057Y-2484993D02*
X12408956Y-2471911D01*
X12408956Y-2471911D02*
X12398925Y-2461930D01*
X12398925Y-2461930D02*
X12385918Y-2454936D01*
X12385918Y-2454936D02*
X12369042Y-2452012D01*
X4918950Y-2251911D02*
X4918950Y-2626815D01*
X6768830Y-2201873D02*
X6057750Y-2201873D01*
X6819046Y-2027019D02*
X6818868Y-2151835D01*
X14443940Y-2676853D02*
X12469041Y-2677030D01*
X1119037Y-8252020D02*
X1122036Y-8269103D01*
X1122036Y-8269103D02*
X1129079Y-8282068D01*
X1129079Y-8282068D02*
X1139101Y-8292059D01*
X1139101Y-8292059D02*
X1152108Y-8299069D01*
X1152108Y-8299069D02*
X1169049Y-8302007D01*
X1169049Y-8302007D02*
X1169050Y-8302007D01*
X1169050Y-2677030D02*
X1151965Y-2680020D01*
X1151965Y-2680020D02*
X1138981Y-2687068D01*
X1138981Y-2687068D02*
X1128955Y-2697134D01*
X1128955Y-2697134D02*
X1121958Y-2710149D01*
X1121958Y-2710149D02*
X1119037Y-2727017D01*
X1119037Y-2727017D02*
X1119037Y-2727017D01*
X4869039Y-2677030D02*
X4886123Y-2674039D01*
X4886123Y-2674039D02*
X4899107Y-2666991D01*
X4899107Y-2666991D02*
X4909133Y-2656926D01*
X4909133Y-2656926D02*
X4916127Y-2643919D01*
X4916127Y-2643919D02*
X4919051Y-2627043D01*
X4919051Y-2627043D02*
X4919051Y-2627018D01*
X4969038Y-2202025D02*
X4951960Y-2205022D01*
X4951960Y-2205022D02*
X4938983Y-2212072D01*
X4938983Y-2212072D02*
X4928912Y-2222205D01*
X4928912Y-2222205D02*
X4921918Y-2235294D01*
X4921918Y-2235294D02*
X4919051Y-2252013D01*
X6769033Y-2202025D02*
X6786118Y-2199034D01*
X6786118Y-2199034D02*
X6799102Y-2191986D01*
X6799102Y-2191986D02*
X6809127Y-2181921D01*
X6809127Y-2181921D02*
X6816121Y-2168914D01*
X6816121Y-2168914D02*
X6819046Y-2152038D01*
X6819046Y-2152038D02*
X6819046Y-2152013D01*
X6869033Y-1977007D02*
X6851949Y-1980005D01*
X6851949Y-1980005D02*
X6838969Y-1987060D01*
X6838969Y-1987060D02*
X6828948Y-1997131D01*
X6828948Y-1997131D02*
X6821945Y-2010186D01*
X6821945Y-2010186D02*
X6819046Y-2027019D01*
X6819046Y-2027019D02*
X6819046Y-2027019D01*
X8619041Y-2027019D02*
X8616070Y-2009988D01*
X8616070Y-2009988D02*
X8608968Y-1996905D01*
X8608968Y-1996905D02*
X8598936Y-1986925D01*
X8598936Y-1986925D02*
X8585929Y-1979930D01*
X8585929Y-1979930D02*
X8569053Y-1977007D01*
X8569053Y-1977007D02*
X8569053Y-1977007D01*
X8619041Y-2152013D02*
X8622031Y-2169097D01*
X8622031Y-2169097D02*
X8629067Y-2182066D01*
X8629067Y-2182066D02*
X8639144Y-2192107D01*
X8639144Y-2192107D02*
X8652196Y-2199117D01*
X8652196Y-2199117D02*
X8669028Y-2202025D01*
X8669028Y-2202025D02*
X8669053Y-2202025D01*
X10519035Y-2252013D02*
X10516057Y-2234988D01*
X10516057Y-2234988D02*
X10508954Y-2221912D01*
X10508954Y-2221912D02*
X10498877Y-2211903D01*
X10498877Y-2211903D02*
X10485837Y-2204918D01*
X10485837Y-2204918D02*
X10469048Y-2202025D01*
X10519035Y-2402025D02*
X10522034Y-2419108D01*
X10522034Y-2419108D02*
X10529077Y-2432073D01*
X10529077Y-2432073D02*
X10539099Y-2442064D01*
X10539099Y-2442064D02*
X10552106Y-2449073D01*
X10552106Y-2449073D02*
X10569047Y-2452012D01*
X13148770Y-11055161D02*
X14471372Y-8761925D01*
X13148460Y-11055623D02*
X13148770Y-11055161D01*
X12955958Y-11093108D02*
X12968600Y-11100697D01*
X12968600Y-11100697D02*
X12982358Y-11107061D01*
X12982358Y-11107061D02*
X12997579Y-11112106D01*
X12997579Y-11112106D02*
X13014393Y-11115504D01*
X13014393Y-11115504D02*
X13033176Y-11116804D01*
X13033176Y-11116804D02*
X13052074Y-11115538D01*
X13052074Y-11115538D02*
X13068790Y-11112218D01*
X13068790Y-11112218D02*
X13084031Y-11107257D01*
X13084031Y-11107257D02*
X13098425Y-11100666D01*
X13098425Y-11100666D02*
X13110948Y-11093169D01*
X13110948Y-11093169D02*
X13123286Y-11083817D01*
X13123286Y-11083817D02*
X13133583Y-11074103D01*
X13133583Y-11074103D02*
X13142927Y-11063266D01*
X13142927Y-11063266D02*
X13148460Y-11055623D01*
X7794049Y-9777009D02*
X11461094Y-10254046D01*
X6704390Y-8316663D02*
X7758693Y-9762379D01*
X12419029Y-2627018D02*
X12422019Y-2644102D01*
X12422019Y-2644102D02*
X12429056Y-2657071D01*
X12429056Y-2657071D02*
X12439133Y-2667112D01*
X12439133Y-2667112D02*
X12452185Y-2674122D01*
X12452185Y-2674122D02*
X12469017Y-2677030D01*
X12469017Y-2677030D02*
X12469041Y-2677030D01*
X8669053Y-2202025D02*
X9372750Y-2202025D01*
X4969038Y-2202025D02*
X5581750Y-2202025D01*
X1169050Y-8302007D02*
X1780750Y-8302031D01*
X6669034Y-8302007D02*
X6055750Y-8302107D01*
X23020466Y-8302807D02*
X23632750Y-8302807D01*
X28520450Y-8302807D02*
X27907750Y-8302807D01*
X24720462Y-2202825D02*
X24107750Y-2202825D01*
X21020447Y-2202825D02*
X20316750Y-2202825D01*
X17220483Y-2677830D02*
X17220459Y-2677830D01*
X17270471Y-2627818D02*
X17267480Y-2644902D01*
X17267480Y-2644902D02*
X17260432Y-2657886D01*
X17260432Y-2657886D02*
X17250366Y-2667912D01*
X17250366Y-2667912D02*
X17237359Y-2674906D01*
X17237359Y-2674906D02*
X17220483Y-2677830D01*
X22985109Y-8317463D02*
X21930807Y-9763179D01*
X21930807Y-9763179D02*
X21919297Y-9771764D01*
X21919297Y-9771764D02*
X21904478Y-9776989D01*
X21904478Y-9776989D02*
X21895451Y-9777809D01*
X21895451Y-9777809D02*
X18228406Y-10254846D01*
X16733542Y-11093908D02*
X16720948Y-11101472D01*
X16720948Y-11101472D02*
X16707141Y-11107861D01*
X16707141Y-11107861D02*
X16691869Y-11112919D01*
X16691869Y-11112919D02*
X16675185Y-11116293D01*
X16675185Y-11116293D02*
X16656479Y-11117604D01*
X16656479Y-11117604D02*
X16637683Y-11116372D01*
X16637683Y-11116372D02*
X16620910Y-11113070D01*
X16620910Y-11113070D02*
X16605468Y-11108057D01*
X16605468Y-11108057D02*
X16591631Y-11101759D01*
X16591631Y-11101759D02*
X16578924Y-11094219D01*
X16578924Y-11094219D02*
X16567357Y-11085580D01*
X16567357Y-11085580D02*
X16556782Y-11075801D01*
X16556782Y-11075801D02*
X16547270Y-11064957D01*
X16547270Y-11064957D02*
X16541040Y-11056423D01*
X16541040Y-11056423D02*
X16540730Y-11055961D01*
X16540730Y-11055961D02*
X15218128Y-8762725D01*
X19170465Y-2402825D02*
X19167472Y-2419890D01*
X19167472Y-2419890D02*
X19160411Y-2432888D01*
X19160411Y-2432888D02*
X19150310Y-2442931D01*
X19150310Y-2442931D02*
X19137177Y-2449950D01*
X19137177Y-2449950D02*
X19120453Y-2452812D01*
X19170465Y-2252813D02*
X19173461Y-2235734D01*
X19173461Y-2235734D02*
X19180512Y-2222757D01*
X19180512Y-2222757D02*
X19190645Y-2212686D01*
X19190645Y-2212686D02*
X19203734Y-2205692D01*
X19203734Y-2205692D02*
X19220452Y-2202825D01*
X21020472Y-2202825D02*
X21020447Y-2202825D01*
X21070459Y-2152813D02*
X21067469Y-2169897D01*
X21067469Y-2169897D02*
X21060421Y-2182881D01*
X21060421Y-2182881D02*
X21050355Y-2192907D01*
X21050355Y-2192907D02*
X21037348Y-2199901D01*
X21037348Y-2199901D02*
X21020472Y-2202825D01*
X21120447Y-1977807D02*
X21120447Y-1977807D01*
X21070459Y-2027819D02*
X21073449Y-2010734D01*
X21073449Y-2010734D02*
X21080497Y-1997750D01*
X21080497Y-1997750D02*
X21090563Y-1987725D01*
X21090563Y-1987725D02*
X21103579Y-1980727D01*
X21103579Y-1980727D02*
X21120447Y-1977807D01*
X22870454Y-2027819D02*
X22870454Y-2027819D01*
X22820467Y-1977807D02*
X22837550Y-1980805D01*
X22837550Y-1980805D02*
X22850515Y-1987848D01*
X22850515Y-1987848D02*
X22860506Y-1997870D01*
X22860506Y-1997870D02*
X22867516Y-2010878D01*
X22867516Y-2010878D02*
X22870454Y-2027819D01*
X22870454Y-2152838D02*
X22870454Y-2152813D01*
X22920466Y-2202825D02*
X22903435Y-2199854D01*
X22903435Y-2199854D02*
X22890353Y-2192752D01*
X22890353Y-2192752D02*
X22880338Y-2182675D01*
X22880338Y-2182675D02*
X22873349Y-2169633D01*
X22873349Y-2169633D02*
X22870454Y-2152838D01*
X24720462Y-2202825D02*
X24737539Y-2205822D01*
X24737539Y-2205822D02*
X24750501Y-2212861D01*
X24750501Y-2212861D02*
X24760492Y-2222877D01*
X24760492Y-2222877D02*
X24767542Y-2235986D01*
X24767542Y-2235986D02*
X24770449Y-2252813D01*
X24770449Y-2627843D02*
X24770449Y-2627818D01*
X24820461Y-2677830D02*
X24803430Y-2674859D01*
X24803430Y-2674859D02*
X24790347Y-2667757D01*
X24790347Y-2667757D02*
X24780333Y-2657680D01*
X24780333Y-2657680D02*
X24773344Y-2644638D01*
X24773344Y-2644638D02*
X24770449Y-2627843D01*
X28570463Y-2727817D02*
X28570463Y-2727817D01*
X28520450Y-2677830D02*
X28537534Y-2680820D01*
X28537534Y-2680820D02*
X28550503Y-2687857D01*
X28550503Y-2687857D02*
X28560544Y-2697934D01*
X28560544Y-2697934D02*
X28567554Y-2710985D01*
X28567554Y-2710985D02*
X28570463Y-2727817D01*
X28520451Y-8302807D02*
X28520450Y-8302807D01*
X28570463Y-8252820D02*
X28567470Y-8269885D01*
X28567470Y-8269885D02*
X28560409Y-8282883D01*
X28560409Y-8282883D02*
X28550308Y-8292926D01*
X28550308Y-8292926D02*
X28537175Y-8299946D01*
X28537175Y-8299946D02*
X28520451Y-8302807D01*
X22985109Y-8317463D02*
X22996550Y-8308903D01*
X22996550Y-8308903D02*
X23011342Y-8303648D01*
X23011342Y-8303648D02*
X23020466Y-8302807D01*
X15245559Y-2677653D02*
X17220459Y-2677830D01*
X22870632Y-2027667D02*
X22870632Y-2152635D01*
X22920670Y-2202673D02*
X23631750Y-2202673D01*
X24770550Y-2252711D02*
X24770550Y-2627615D01*
X17270471Y-2502824D02*
X17273461Y-2485740D01*
X17273461Y-2485740D02*
X17280509Y-2472756D01*
X17280509Y-2472756D02*
X17290575Y-2462730D01*
X17290575Y-2462730D02*
X17303590Y-2455733D01*
X17303590Y-2455733D02*
X17320458Y-2452812D01*
X17270700Y-2502647D02*
X17270471Y-2627818D01*
X18162950Y-10267800D02*
X16733542Y-11093908D01*
X19220656Y-2202673D02*
X19832750Y-2202673D01*
X21070536Y-2152635D02*
X21070536Y-2027667D01*
X21120574Y-1977629D02*
X22820594Y-1977629D01*
X24820588Y-2677653D02*
X28520450Y-2677830D01*
X28570463Y-2727817D02*
X28570640Y-8252693D01*
X24117750Y-8302731D02*
X27432750Y-8302731D01*
X15195522Y-2727690D02*
X15195522Y-8675095D01*
X15195470Y-2727817D02*
X15198466Y-2710739D01*
X15198466Y-2710739D02*
X15205517Y-2697762D01*
X15205517Y-2697762D02*
X15215650Y-2687691D01*
X15215650Y-2687691D02*
X15228740Y-2680697D01*
X15228740Y-2680697D02*
X15245458Y-2677830D01*
X17320484Y-2452609D02*
X19120580Y-2452609D01*
X19170618Y-2402571D02*
X19170618Y-2252711D01*
X15218179Y-8762572D02*
X15211302Y-8749324D01*
X15211302Y-8749324D02*
X15205422Y-8734994D01*
X15205422Y-8734994D02*
X15200700Y-8719531D01*
X15200700Y-8719531D02*
X15197338Y-8702852D01*
X15197338Y-8702852D02*
X15195598Y-8684582D01*
X15195598Y-8684582D02*
X15195470Y-8675323D01*
X18162950Y-10267800D02*
X18178681Y-10263457D01*
X18178681Y-10263457D02*
X18195232Y-10259746D01*
X18195232Y-10259746D02*
X18212464Y-10256785D01*
X18212464Y-10256785D02*
X18228406Y-10254846D01*
X2256250Y-8325300D02*
X2258600Y-8347600D01*
X2256250Y-8324700D02*
X2256250Y-8325300D01*
X2256750Y-8302031D02*
X2256250Y-8324700D01*
X1778860Y-8348800D02*
X1778770Y-8349300D01*
X1778960Y-8348400D02*
X1778860Y-8348800D01*
X1778960Y-8348300D02*
X1778960Y-8348400D01*
X1778960Y-8348300D02*
X1778960Y-8348300D01*
X1778960Y-8348300D02*
X1778960Y-8348300D01*
X1781230Y-8325200D02*
X1778960Y-8348300D01*
X1781230Y-8325200D02*
X1781230Y-8325200D01*
X1781250Y-8325000D02*
X1781230Y-8325200D01*
X1780750Y-8302031D02*
X1781250Y-8325000D01*
X1068750Y-8562500D02*
X1068750Y-11649700D01*
X28619450Y-8560800D02*
X28619550Y-11648600D01*
X6582070Y-11374500D02*
X6601660Y-11384900D01*
X19798350Y-1830660D02*
X19781150Y-1816630D01*
X19781150Y-1816630D02*
X19761550Y-1806210D01*
X28586450Y-11729000D02*
X28600450Y-11711800D01*
X28030250Y-8447600D02*
X28007150Y-8445300D01*
X6056250Y-1912500D02*
X6057750Y-2201873D01*
X6058440Y-1890160D02*
X6056250Y-1912500D01*
X6064860Y-1868910D02*
X6058440Y-1890160D01*
X6075280Y-1849320D02*
X6064860Y-1868910D01*
X6089300Y-1832120D02*
X6075280Y-1849320D01*
X6106410Y-1817970D02*
X6089300Y-1832120D01*
X6125930Y-1807410D02*
X6106410Y-1817970D01*
X6147130Y-1800850D02*
X6125930Y-1807410D01*
X6169440Y-1798500D02*
X6147130Y-1800850D01*
X6170020Y-1798500D02*
X6169440Y-1798500D01*
X9257260Y-1798500D02*
X6170020Y-1798500D01*
X9279590Y-1800690D02*
X9257260Y-1798500D01*
X9300840Y-1807110D02*
X9279590Y-1800690D01*
X9320430Y-1817530D02*
X9300840Y-1807110D01*
X9337630Y-1831560D02*
X9320430Y-1817530D01*
X9351780Y-1848660D02*
X9337630Y-1831560D01*
X9362340Y-1868180D02*
X9351780Y-1848660D01*
X9368900Y-1889380D02*
X9362340Y-1868180D01*
X9371250Y-1911690D02*
X9368900Y-1889380D01*
X9371250Y-1912270D02*
X9371250Y-1911690D01*
X9372750Y-2202025D02*
X9371250Y-1912270D01*
X20317050Y-1911600D02*
X20316750Y-2202825D01*
X20319150Y-1889260D02*
X20317050Y-1911600D01*
X20325650Y-1868010D02*
X20319150Y-1889260D01*
X20336050Y-1848420D02*
X20325650Y-1868010D01*
X20350050Y-1831220D02*
X20336050Y-1848420D01*
X20367150Y-1817070D02*
X20350050Y-1831220D01*
X20386650Y-1806510D02*
X20367150Y-1817070D01*
X20407850Y-1799950D02*
X20386650Y-1806510D01*
X20430150Y-1797600D02*
X20407850Y-1799950D01*
X20430750Y-1797600D02*
X20430150Y-1797600D01*
X23518050Y-1797600D02*
X20430750Y-1797600D01*
X23540350Y-1799790D02*
X23518050Y-1797600D01*
X23561550Y-1806210D02*
X23540350Y-1799790D01*
X23581150Y-1816630D02*
X23561550Y-1806210D01*
X23598350Y-1830660D02*
X23581150Y-1816630D01*
X23612550Y-1847760D02*
X23598350Y-1830660D01*
X23623050Y-1867280D02*
X23612550Y-1847760D01*
X23629650Y-1888480D02*
X23623050Y-1867280D01*
X23631950Y-1910790D02*
X23629650Y-1888480D01*
X23631950Y-1911370D02*
X23631950Y-1910790D01*
X23631750Y-2202673D02*
X23631950Y-1911370D01*
X5571250Y-8324500D02*
X5571750Y-8302031D01*
X5569060Y-8346800D02*
X5571250Y-8324500D01*
X5562640Y-8368100D02*
X5569060Y-8346800D01*
X5552220Y-8387700D02*
X5562640Y-8368100D01*
X5538200Y-8404900D02*
X5552220Y-8387700D01*
X5521090Y-8419000D02*
X5538200Y-8404900D01*
X5501570Y-8429600D02*
X5521090Y-8419000D01*
X5480370Y-8436200D02*
X5501570Y-8429600D01*
X5458060Y-8438500D02*
X5480370Y-8436200D01*
X5457480Y-8438500D02*
X5458060Y-8438500D01*
X2370240Y-8438500D02*
X5457480Y-8438500D01*
X2347910Y-8436300D02*
X2370240Y-8438500D01*
X2326660Y-8429900D02*
X2347910Y-8436300D01*
X2307070Y-8419500D02*
X2326660Y-8429900D01*
X2289860Y-8405400D02*
X2307070Y-8419500D01*
X2275720Y-8388300D02*
X2289860Y-8405400D01*
X2265160Y-8368800D02*
X2275720Y-8388300D01*
X2258600Y-8347600D02*
X2265160Y-8368800D01*
X27431950Y-8323600D02*
X27432750Y-8302731D01*
X27429850Y-8345900D02*
X27431950Y-8323600D01*
X27423350Y-8367200D02*
X27429850Y-8345900D01*
X27412950Y-8386800D02*
X27423350Y-8367200D01*
X27398950Y-8404000D02*
X27412950Y-8386800D01*
X27381850Y-8418100D02*
X27398950Y-8404000D01*
X27362350Y-8428700D02*
X27381850Y-8418100D01*
X27341150Y-8435300D02*
X27362350Y-8428700D01*
X27318850Y-8437600D02*
X27341150Y-8435300D01*
X27318250Y-8437600D02*
X27318850Y-8437600D01*
X24230950Y-8437600D02*
X27318250Y-8437600D01*
X24208650Y-8435400D02*
X24230950Y-8437600D01*
X24187450Y-8429000D02*
X24208650Y-8435400D01*
X24167850Y-8418600D02*
X24187450Y-8429000D01*
X24150650Y-8404500D02*
X24167850Y-8418600D01*
X24136450Y-8387400D02*
X24150650Y-8404500D01*
X24125950Y-8367900D02*
X24136450Y-8387400D01*
X24119350Y-8346700D02*
X24125950Y-8367900D01*
X24117050Y-8324400D02*
X24119350Y-8346700D01*
X24117050Y-8323800D02*
X24117050Y-8324400D01*
X24117750Y-8302731D02*
X24117050Y-8323800D01*
X9856250Y-1912500D02*
X9856750Y-2201873D01*
X9858450Y-1890160D02*
X9856250Y-1912500D01*
X9864850Y-1868910D02*
X9858450Y-1890160D01*
X9875250Y-1849320D02*
X9864850Y-1868910D01*
X9889350Y-1832120D02*
X9875250Y-1849320D01*
X9906450Y-1817970D02*
X9889350Y-1832120D01*
X9925950Y-1807410D02*
X9906450Y-1817970D01*
X9947150Y-1800850D02*
X9925950Y-1807410D01*
X9969450Y-1798500D02*
X9947150Y-1800850D01*
X9970050Y-1798500D02*
X9969450Y-1798500D01*
X19718050Y-1797600D02*
X9970050Y-1798500D01*
X19740350Y-1799790D02*
X19718050Y-1797600D01*
X19761550Y-1806210D02*
X19740350Y-1799790D01*
X19812550Y-1847760D02*
X19798350Y-1830660D01*
X19823050Y-1867280D02*
X19812550Y-1847760D01*
X19829650Y-1888480D02*
X19823050Y-1867280D01*
X19831950Y-1910790D02*
X19829650Y-1888480D01*
X19831950Y-1911370D02*
X19831950Y-1910790D01*
X19832750Y-2202673D02*
X19831950Y-1911370D01*
X23632050Y-8323600D02*
X23632750Y-8302807D01*
X23629850Y-8345900D02*
X23632050Y-8323600D01*
X23623350Y-8367200D02*
X23629850Y-8345900D01*
X23612950Y-8386800D02*
X23623350Y-8367200D01*
X23598950Y-8404000D02*
X23612950Y-8386800D01*
X23581850Y-8418100D02*
X23598950Y-8404000D01*
X23562350Y-8428700D02*
X23581850Y-8418100D01*
X23541150Y-8435300D02*
X23562350Y-8428700D01*
X23518850Y-8437600D02*
X23541150Y-8435300D01*
X23518250Y-8437600D02*
X23518850Y-8437600D01*
X23399250Y-8437600D02*
X23518250Y-8437600D01*
X23399250Y-8437600D02*
X23399250Y-8437600D01*
X23398650Y-8437600D02*
X23399250Y-8437600D01*
X23398450Y-8437600D02*
X23398650Y-8437600D01*
X23398250Y-8437600D02*
X23398450Y-8437600D01*
X23398150Y-8437600D02*
X23398250Y-8437600D01*
X23375050Y-8440100D02*
X23398150Y-8437600D01*
X23374650Y-8440100D02*
X23375050Y-8440100D01*
X23374250Y-8440200D02*
X23374650Y-8440100D01*
X23374150Y-8440300D02*
X23374250Y-8440200D01*
X23374150Y-8440300D02*
X23374150Y-8440300D01*
X23352050Y-8447100D02*
X23374150Y-8440300D01*
X23351550Y-8447300D02*
X23352050Y-8447100D01*
X23351150Y-8447400D02*
X23351550Y-8447300D01*
X23351150Y-8447500D02*
X23351150Y-8447400D01*
X23351150Y-8447500D02*
X23351150Y-8447500D01*
X23351150Y-8447500D02*
X23351150Y-8447500D01*
X23330750Y-8458500D02*
X23351150Y-8447500D01*
X23330350Y-8458800D02*
X23330750Y-8458500D01*
X23329950Y-8459000D02*
X23330350Y-8458800D01*
X23329950Y-8459100D02*
X23329950Y-8459000D01*
X23312050Y-8473800D02*
X23329950Y-8459100D01*
X23311750Y-8474100D02*
X23312050Y-8473800D01*
X23311450Y-8474500D02*
X23311750Y-8474100D01*
X23311350Y-8474500D02*
X23311450Y-8474500D01*
X23296750Y-8492500D02*
X23311350Y-8474500D01*
X23296450Y-8492900D02*
X23296750Y-8492500D01*
X23296250Y-8493200D02*
X23296450Y-8492900D01*
X23296150Y-8493300D02*
X23296250Y-8493200D01*
X23296150Y-8493300D02*
X23296150Y-8493300D01*
X23296150Y-8493300D02*
X23296150Y-8493300D01*
X23285250Y-8513800D02*
X23296150Y-8493300D01*
X23285150Y-8514200D02*
X23285250Y-8513800D01*
X23284950Y-8514600D02*
X23285150Y-8514200D01*
X23284950Y-8514700D02*
X23284950Y-8514600D01*
X23278250Y-8536800D02*
X23284950Y-8514700D01*
X23278150Y-8537300D02*
X23278250Y-8536800D01*
X23278050Y-8537700D02*
X23278150Y-8537300D01*
X23278050Y-8537800D02*
X23278050Y-8537700D01*
X23278050Y-8537800D02*
X23278050Y-8537800D01*
X23278050Y-8537800D02*
X23278050Y-8537800D01*
X23275750Y-8560900D02*
X23278050Y-8537800D01*
X23275750Y-8560900D02*
X23275750Y-8560900D01*
X23275750Y-8561100D02*
X23275750Y-8560900D01*
X23275750Y-11278600D02*
X23275750Y-8561100D01*
X23273550Y-11300900D02*
X23275750Y-11278600D01*
X23267150Y-11322200D02*
X23273550Y-11300900D01*
X23256750Y-11341800D02*
X23267150Y-11322200D01*
X23242650Y-11359000D02*
X23256750Y-11341800D01*
X23225550Y-11373100D02*
X23242650Y-11359000D01*
X23206050Y-11383700D02*
X23225550Y-11373100D01*
X23184850Y-11390300D02*
X23206050Y-11383700D01*
X23162550Y-11392600D02*
X23184850Y-11390300D01*
X23161950Y-11392600D02*
X23162550Y-11392600D01*
X6645450Y-11393400D02*
X23161950Y-11392600D01*
X6622910Y-11391300D02*
X6645240Y-11393500D01*
X6601660Y-11384900D02*
X6622910Y-11391300D01*
X6564860Y-11360400D02*
X6582070Y-11374500D01*
X6550720Y-11343300D02*
X6564860Y-11360400D01*
X6540160Y-11323800D02*
X6550720Y-11343300D01*
X6533600Y-11302600D02*
X6540160Y-11323800D01*
X6531250Y-11280300D02*
X6533600Y-11302600D01*
X6531250Y-11279700D02*
X6531250Y-11280300D01*
X6531250Y-8562000D02*
X6531250Y-11279700D01*
X6531250Y-8562000D02*
X6531250Y-8562000D01*
X6531250Y-8561400D02*
X6531250Y-8562000D01*
X6531220Y-8561200D02*
X6531250Y-8561400D01*
X6531230Y-8561000D02*
X6531220Y-8561200D01*
X6531220Y-8560900D02*
X6531230Y-8561000D01*
X6528800Y-8537900D02*
X6531220Y-8560900D01*
X6528710Y-8537400D02*
X6528800Y-8537900D01*
X6528620Y-8537000D02*
X6528710Y-8537400D01*
X6528600Y-8536900D02*
X6528620Y-8537000D01*
X6521750Y-8514800D02*
X6528600Y-8536900D01*
X6521570Y-8514300D02*
X6521750Y-8514800D01*
X6521400Y-8513900D02*
X6521570Y-8514300D01*
X6521370Y-8513900D02*
X6521400Y-8513900D01*
X6521370Y-8513900D02*
X6521370Y-8513900D01*
X6521370Y-8513900D02*
X6521370Y-8513900D01*
X6510350Y-8493500D02*
X6521370Y-8513900D01*
X6510090Y-8493100D02*
X6510350Y-8493500D01*
X6509840Y-8492700D02*
X6510090Y-8493100D01*
X6509800Y-8492700D02*
X6509840Y-8492700D01*
X6495030Y-8474800D02*
X6509800Y-8492700D01*
X6494700Y-8474500D02*
X6495030Y-8474800D01*
X6494390Y-8474200D02*
X6494700Y-8474500D01*
X6494340Y-8474100D02*
X6494390Y-8474200D01*
X6476380Y-8459500D02*
X6494340Y-8474100D01*
X6476000Y-8459200D02*
X6476380Y-8459500D01*
X6475620Y-8459000D02*
X6476000Y-8459200D01*
X6475560Y-8458900D02*
X6475620Y-8459000D01*
X6475560Y-8458900D02*
X6475560Y-8458900D01*
X6475560Y-8458900D02*
X6475560Y-8458900D01*
X6455100Y-8448000D02*
X6475560Y-8458900D01*
X6454680Y-8447900D02*
X6455100Y-8448000D01*
X6454260Y-8447700D02*
X6454680Y-8447900D01*
X6454200Y-8447700D02*
X6454260Y-8447700D01*
X6432010Y-8441000D02*
X6454200Y-8447700D01*
X6431560Y-8440900D02*
X6432010Y-8441000D01*
X6431120Y-8440800D02*
X6431560Y-8440900D01*
X6431050Y-8440800D02*
X6431120Y-8440800D01*
X6431050Y-8440800D02*
X6431050Y-8440800D01*
X6431050Y-8440800D02*
X6431050Y-8440800D01*
X6407990Y-8438500D02*
X6431050Y-8440800D01*
X6407990Y-8438500D02*
X6407990Y-8438500D01*
X6407740Y-8438500D02*
X6407990Y-8438500D01*
X6170240Y-8438500D02*
X6407740Y-8438500D01*
X6147910Y-8436300D02*
X6170240Y-8438500D01*
X6126660Y-8429900D02*
X6147910Y-8436300D01*
X6107070Y-8419500D02*
X6126660Y-8429900D01*
X6089860Y-8405400D02*
X6107070Y-8419500D01*
X6075720Y-8388300D02*
X6089860Y-8405400D01*
X6065160Y-8368800D02*
X6075720Y-8388300D01*
X6058600Y-8347600D02*
X6065160Y-8368800D01*
X6056250Y-8325300D02*
X6058600Y-8347600D01*
X6056250Y-8324700D02*
X6056250Y-8325300D01*
X6055750Y-8302107D02*
X6056250Y-8324700D01*
X5581250Y-1912010D02*
X5581750Y-2202025D01*
X5581250Y-1912000D02*
X5581250Y-1912010D01*
X5581250Y-1911410D02*
X5581250Y-1912000D01*
X5581220Y-1911190D02*
X5581250Y-1911410D01*
X5581230Y-1910970D02*
X5581220Y-1911190D01*
X5581220Y-1910900D02*
X5581230Y-1910970D01*
X5578800Y-1887850D02*
X5581220Y-1910900D01*
X5578710Y-1887410D02*
X5578800Y-1887850D01*
X5578620Y-1886960D02*
X5578710Y-1887410D01*
X5578600Y-1886900D02*
X5578620Y-1886960D01*
X5571750Y-1864760D02*
X5578600Y-1886900D01*
X5571570Y-1864340D02*
X5571750Y-1864760D01*
X5571400Y-1863920D02*
X5571570Y-1864340D01*
X5571370Y-1863860D02*
X5571400Y-1863920D01*
X5571370Y-1863860D02*
X5571370Y-1863860D01*
X5571370Y-1863860D02*
X5571370Y-1863860D01*
X5560350Y-1843470D02*
X5571370Y-1863860D01*
X5560090Y-1843090D02*
X5560350Y-1843470D01*
X5559840Y-1842710D02*
X5560090Y-1843090D01*
X5559800Y-1842660D02*
X5559840Y-1842710D01*
X5545030Y-1824800D02*
X5559800Y-1842660D01*
X5544700Y-1824480D02*
X5545030Y-1824800D01*
X5544390Y-1824160D02*
X5544700Y-1824480D01*
X5544340Y-1824120D02*
X5544390Y-1824160D01*
X5526380Y-1809470D02*
X5544340Y-1824120D01*
X5526000Y-1809220D02*
X5526380Y-1809470D01*
X5525620Y-1808960D02*
X5526000Y-1809220D01*
X5525560Y-1808930D02*
X5525620Y-1808960D01*
X5525560Y-1808930D02*
X5525560Y-1808930D01*
X5525560Y-1808930D02*
X5525560Y-1808930D01*
X5505100Y-1798050D02*
X5525560Y-1808930D01*
X5504680Y-1797870D02*
X5505100Y-1798050D01*
X5504260Y-1797700D02*
X5504680Y-1797870D01*
X5504200Y-1797680D02*
X5504260Y-1797700D01*
X5482010Y-1790980D02*
X5504200Y-1797680D01*
X5481560Y-1790890D02*
X5482010Y-1790980D01*
X5481120Y-1790790D02*
X5481560Y-1790890D01*
X5481050Y-1790790D02*
X5481120Y-1790790D01*
X5481050Y-1790790D02*
X5481050Y-1790790D01*
X5481050Y-1790790D02*
X5481050Y-1790790D01*
X5457990Y-1788530D02*
X5481050Y-1790790D01*
X5457990Y-1788530D02*
X5457990Y-1788530D01*
X5457740Y-1788500D02*
X5457990Y-1788530D01*
X1182740Y-1788500D02*
X5457740Y-1788500D01*
X1160410Y-1786310D02*
X1182740Y-1788500D01*
X1139160Y-1779900D02*
X1160410Y-1786310D01*
X1119570Y-1769480D02*
X1139160Y-1779900D01*
X1102360Y-1755450D02*
X1119570Y-1769480D01*
X1088220Y-1738350D02*
X1102360Y-1755450D01*
X1077660Y-1718820D02*
X1088220Y-1738350D01*
X1071100Y-1697620D02*
X1077660Y-1718820D01*
X1068750Y-1675310D02*
X1071100Y-1697620D01*
X1068750Y-1674730D02*
X1068750Y-1675310D01*
X1068750Y-1318750D02*
X1068750Y-1674730D01*
X1070940Y-1296410D02*
X1068750Y-1318750D01*
X1077360Y-1275160D02*
X1070940Y-1296410D01*
X1087780Y-1255570D02*
X1077360Y-1275160D01*
X1101800Y-1238370D02*
X1087780Y-1255570D01*
X1118910Y-1224220D02*
X1101800Y-1238370D01*
X1138430Y-1213660D02*
X1118910Y-1224220D01*
X1159630Y-1207100D02*
X1138430Y-1213660D01*
X1181940Y-1204750D02*
X1159630Y-1207100D01*
X1182520Y-1204750D02*
X1181940Y-1204750D01*
X28505550Y-1203850D02*
X1182520Y-1204750D01*
X28527850Y-1206040D02*
X28505550Y-1203850D01*
X28549050Y-1212460D02*
X28527850Y-1206040D01*
X28568650Y-1222880D02*
X28549050Y-1212460D01*
X28585850Y-1236910D02*
X28568650Y-1222880D01*
X28600050Y-1254010D02*
X28585850Y-1236910D01*
X28610550Y-1273530D02*
X28600050Y-1254010D01*
X28617150Y-1294730D02*
X28610550Y-1273530D01*
X28619450Y-1317040D02*
X28617150Y-1294730D01*
X28619450Y-1317620D02*
X28619450Y-1317040D01*
X28619550Y-1673610D02*
X28619450Y-1317620D01*
X28617350Y-1695940D02*
X28619550Y-1673610D01*
X28610850Y-1717190D02*
X28617350Y-1695940D01*
X28600450Y-1736790D02*
X28610850Y-1717190D01*
X28586450Y-1753990D02*
X28600450Y-1736790D01*
X28569350Y-1768140D02*
X28586450Y-1753990D01*
X28549850Y-1778690D02*
X28569350Y-1768140D01*
X28528650Y-1785260D02*
X28549850Y-1778690D01*
X28506350Y-1787600D02*
X28528650Y-1785260D01*
X28505750Y-1787600D02*
X28506350Y-1787600D01*
X24230550Y-1787600D02*
X28505750Y-1787600D01*
X24230450Y-1787600D02*
X24230550Y-1787600D01*
X24229950Y-1787600D02*
X24230450Y-1787600D01*
X24229650Y-1787630D02*
X24229950Y-1787600D01*
X24229450Y-1787630D02*
X24229650Y-1787630D01*
X24229350Y-1787630D02*
X24229450Y-1787630D01*
X24206350Y-1790050D02*
X24229350Y-1787630D01*
X24205950Y-1790150D02*
X24206350Y-1790050D01*
X24205450Y-1790230D02*
X24205950Y-1790150D01*
X24205350Y-1790250D02*
X24205450Y-1790230D01*
X24205350Y-1790250D02*
X24205350Y-1790250D01*
X24183250Y-1797100D02*
X24205350Y-1790250D01*
X24182850Y-1797280D02*
X24183250Y-1797100D01*
X24182450Y-1797450D02*
X24182850Y-1797280D01*
X24182350Y-1797480D02*
X24182450Y-1797450D01*
X24182350Y-1797480D02*
X24182350Y-1797480D01*
X24182350Y-1797480D02*
X24182350Y-1797480D01*
X24161950Y-1808510D02*
X24182350Y-1797480D01*
X24161550Y-1808760D02*
X24161950Y-1808510D01*
X24161250Y-1809010D02*
X24161550Y-1808760D01*
X24161150Y-1809050D02*
X24161250Y-1809010D01*
X24143350Y-1823820D02*
X24161150Y-1809050D01*
X24142950Y-1824150D02*
X24143350Y-1823820D01*
X24142650Y-1824460D02*
X24142950Y-1824150D01*
X24142650Y-1824520D02*
X24142650Y-1824460D01*
X24127950Y-1842480D02*
X24142650Y-1824520D01*
X24127750Y-1842850D02*
X24127950Y-1842480D01*
X24127450Y-1843230D02*
X24127750Y-1842850D01*
X24127450Y-1843290D02*
X24127450Y-1843230D01*
X24127450Y-1843290D02*
X24127450Y-1843290D01*
X24127450Y-1843290D02*
X24127450Y-1843290D01*
X24116550Y-1863750D02*
X24127450Y-1843290D01*
X24116350Y-1864170D02*
X24116550Y-1863750D01*
X24116150Y-1864590D02*
X24116350Y-1864170D01*
X24116150Y-1864650D02*
X24116150Y-1864590D01*
X24109450Y-1886840D02*
X24116150Y-1864650D01*
X24109350Y-1887290D02*
X24109450Y-1886840D01*
X24109250Y-1887730D02*
X24109350Y-1887290D01*
X24109250Y-1887800D02*
X24109250Y-1887730D01*
X24109250Y-1887800D02*
X24109250Y-1887800D01*
X24109250Y-1887800D02*
X24109250Y-1887800D01*
X24107050Y-1910860D02*
X24109250Y-1887800D01*
X24106950Y-1911110D02*
X24107050Y-1910860D01*
X24107750Y-2202825D02*
X24106950Y-1911110D01*
X27906950Y-8324100D02*
X27907750Y-8302807D01*
X27907050Y-8324100D02*
X27906950Y-8324100D01*
X27907050Y-8324700D02*
X27907050Y-8324100D01*
X27907050Y-8324900D02*
X27907050Y-8324700D01*
X27907050Y-8325100D02*
X27907050Y-8324900D01*
X27907050Y-8325200D02*
X27907050Y-8325100D01*
X27909450Y-8348300D02*
X27907050Y-8325200D01*
X27909550Y-8348700D02*
X27909450Y-8348300D01*
X27909650Y-8349100D02*
X27909550Y-8348700D01*
X27909650Y-8349200D02*
X27909650Y-8349100D01*
X27916550Y-8371300D02*
X27909650Y-8349200D01*
X27916650Y-8371800D02*
X27916550Y-8371300D01*
X27916850Y-8372200D02*
X27916650Y-8371800D01*
X27916850Y-8372200D02*
X27916850Y-8372200D01*
X27916850Y-8372200D02*
X27916850Y-8372200D01*
X27916850Y-8372200D02*
X27916850Y-8372200D01*
X27927950Y-8392600D02*
X27916850Y-8372200D01*
X27928150Y-8393000D02*
X27927950Y-8392600D01*
X27928450Y-8393400D02*
X27928150Y-8393000D01*
X27928450Y-8393400D02*
X27928450Y-8393400D01*
X27943250Y-8411300D02*
X27928450Y-8393400D01*
X27943550Y-8411600D02*
X27943250Y-8411300D01*
X27943850Y-8411900D02*
X27943550Y-8411600D01*
X27943950Y-8412000D02*
X27943850Y-8411900D01*
X27943950Y-8412000D02*
X27943950Y-8412000D01*
X27943950Y-8412000D02*
X27943950Y-8412000D01*
X27961850Y-8426600D02*
X27943950Y-8412000D01*
X27962250Y-8426900D02*
X27961850Y-8426600D01*
X27962650Y-8427100D02*
X27962250Y-8426900D01*
X27962650Y-8427200D02*
X27962650Y-8427100D01*
X27962650Y-8427200D02*
X27962650Y-8427200D01*
X27983150Y-8438100D02*
X27962650Y-8427200D01*
X27983550Y-8438200D02*
X27983150Y-8438100D01*
X27983950Y-8438400D02*
X27983550Y-8438200D01*
X27984050Y-8438400D02*
X27983950Y-8438400D01*
X28006250Y-8445100D02*
X27984050Y-8438400D01*
X28006650Y-8445200D02*
X28006250Y-8445100D01*
X28007150Y-8445300D02*
X28006650Y-8445200D01*
X28007150Y-8445300D02*
X28007150Y-8445300D01*
X28007150Y-8445300D02*
X28007150Y-8445300D01*
X28007150Y-8445300D02*
X28007150Y-8445300D01*
X28030250Y-8447600D02*
X28030250Y-8447600D01*
X28030550Y-8447600D02*
X28030250Y-8447600D01*
X28505550Y-8447600D02*
X28030550Y-8447600D01*
X28527850Y-8449800D02*
X28505550Y-8447600D01*
X28549050Y-8456200D02*
X28527850Y-8449800D01*
X28568650Y-8466600D02*
X28549050Y-8456200D01*
X28585850Y-8480700D02*
X28568650Y-8466600D01*
X28600050Y-8497800D02*
X28585850Y-8480700D01*
X28610550Y-8517300D02*
X28600050Y-8497800D01*
X28617150Y-8538500D02*
X28610550Y-8517300D01*
X28619450Y-8560800D02*
X28617150Y-8538500D01*
X28617350Y-11670900D02*
X28619550Y-11648600D01*
X28610850Y-11692200D02*
X28617350Y-11670900D01*
X28600450Y-11711800D02*
X28610850Y-11692200D01*
X28569350Y-11743100D02*
X28586450Y-11729000D01*
X28549850Y-11753700D02*
X28569350Y-11743100D01*
X28528650Y-11760300D02*
X28549850Y-11753700D01*
X28506350Y-11762600D02*
X28528650Y-11760300D01*
X28505750Y-11762600D02*
X28506350Y-11762600D01*
X1182740Y-11763500D02*
X28505750Y-11762600D01*
X1160410Y-11761300D02*
X1182740Y-11763500D01*
X1139160Y-11754900D02*
X1160410Y-11761300D01*
X1119570Y-11744500D02*
X1139160Y-11754900D01*
X1102360Y-11730400D02*
X1119570Y-11744500D01*
X1088220Y-11713300D02*
X1102360Y-11730400D01*
X1077660Y-11693800D02*
X1088220Y-11713300D01*
X1071100Y-11672600D02*
X1077660Y-11693800D01*
X1068750Y-11650300D02*
X1071100Y-11672600D01*
X1068750Y-11649700D02*
X1068750Y-11650300D01*
X1070940Y-8540200D02*
X1068750Y-8562500D01*
X1077360Y-8518900D02*
X1070940Y-8540200D01*
X1087780Y-8499300D02*
X1077360Y-8518900D01*
X1101800Y-8482100D02*
X1087780Y-8499300D01*
X1118910Y-8468000D02*
X1101800Y-8482100D01*
X1138430Y-8457400D02*
X1118910Y-8468000D01*
X1159630Y-8450800D02*
X1138430Y-8457400D01*
X1181940Y-8448500D02*
X1159630Y-8450800D01*
X1182520Y-8448500D02*
X1181940Y-8448500D01*
X1657740Y-8448500D02*
X1182520Y-8448500D01*
X1657750Y-8448500D02*
X1657740Y-8448500D01*
X1658350Y-8448500D02*
X1657750Y-8448500D01*
X1658560Y-8448500D02*
X1658350Y-8448500D01*
X1658780Y-8448500D02*
X1658560Y-8448500D01*
X1658850Y-8448500D02*
X1658780Y-8448500D01*
X1681900Y-8446000D02*
X1658850Y-8448500D01*
X1682350Y-8446000D02*
X1681900Y-8446000D01*
X1682790Y-8445900D02*
X1682350Y-8446000D01*
X1682860Y-8445900D02*
X1682790Y-8445900D01*
X1705000Y-8439000D02*
X1682860Y-8445900D01*
X1705420Y-8438800D02*
X1705000Y-8439000D01*
X1705830Y-8438700D02*
X1705420Y-8438800D01*
X1705900Y-8438600D02*
X1705830Y-8438700D01*
X1705900Y-8438600D02*
X1705900Y-8438600D01*
X1705900Y-8438600D02*
X1705900Y-8438600D01*
X1726280Y-8427600D02*
X1705900Y-8438600D01*
X1726660Y-8427300D02*
X1726280Y-8427600D01*
X1727040Y-8427100D02*
X1726660Y-8427300D01*
X1727090Y-8427100D02*
X1727040Y-8427100D01*
X1744950Y-8412300D02*
X1727090Y-8427100D01*
X1745270Y-8412000D02*
X1744950Y-8412300D01*
X1745590Y-8411600D02*
X1745270Y-8412000D01*
X1745640Y-8411600D02*
X1745590Y-8411600D01*
X1745640Y-8411600D02*
X1745640Y-8411600D01*
X1745640Y-8411600D02*
X1745640Y-8411600D01*
X1760280Y-8393600D02*
X1745640Y-8411600D01*
X1760540Y-8393200D02*
X1760280Y-8393600D01*
X1760790Y-8392900D02*
X1760540Y-8393200D01*
X1760820Y-8392800D02*
X1760790Y-8392900D01*
X1771700Y-8372400D02*
X1760820Y-8392800D01*
X1771880Y-8371900D02*
X1771700Y-8372400D01*
X1772060Y-8371500D02*
X1771880Y-8371900D01*
X1772080Y-8371400D02*
X1772060Y-8371500D01*
X1778770Y-8349300D02*
X1772080Y-8371400D01*
D11*
X5571175Y-2171900D02*
X5601175Y-2201900D01*
X5601175Y-2171900D02*
X5571175Y-2201900D01*
X5630550Y-2171900D02*
X5660550Y-2201900D01*
X5660550Y-2171900D02*
X5630550Y-2201900D01*
X5689925Y-2171900D02*
X5719925Y-2201900D01*
X5719925Y-2171900D02*
X5689925Y-2201900D01*
X5749300Y-2171900D02*
X5779300Y-2201900D01*
X5779300Y-2171900D02*
X5749300Y-2201900D01*
X5808675Y-2171900D02*
X5838675Y-2201900D01*
X5838675Y-2171900D02*
X5808675Y-2201900D01*
X5868050Y-2171900D02*
X5898050Y-2201900D01*
X5898050Y-2171900D02*
X5868050Y-2201900D01*
X5927425Y-2171900D02*
X5957425Y-2201900D01*
X5957425Y-2171900D02*
X5927425Y-2201900D01*
X5986800Y-2171900D02*
X6016800Y-2201900D01*
X6016800Y-2171900D02*
X5986800Y-2201900D01*
X6046175Y-2171900D02*
X6076175Y-2201900D01*
X6076175Y-2171900D02*
X6046175Y-2201900D01*
X27413050Y-8303300D02*
X27443050Y-8333300D01*
X27443050Y-8303300D02*
X27413050Y-8333300D01*
X27472425Y-8303300D02*
X27502425Y-8333300D01*
X27502425Y-8303300D02*
X27472425Y-8333300D01*
X27531800Y-8303300D02*
X27561800Y-8333300D01*
X27561800Y-8303300D02*
X27531800Y-8333300D01*
X27591175Y-8303300D02*
X27621175Y-8333300D01*
X27621175Y-8303300D02*
X27591175Y-8333300D01*
X27650550Y-8303300D02*
X27680550Y-8333300D01*
X27680550Y-8303300D02*
X27650550Y-8333300D01*
X27709925Y-8303300D02*
X27739925Y-8333300D01*
X27739925Y-8303300D02*
X27709925Y-8333300D01*
X27769300Y-8303300D02*
X27799300Y-8333300D01*
X27799300Y-8303300D02*
X27769300Y-8333300D01*
X27828675Y-8303300D02*
X27858675Y-8333300D01*
X27858675Y-8303300D02*
X27828675Y-8333300D01*
X27888050Y-8303300D02*
X27918050Y-8333300D01*
X27918050Y-8303300D02*
X27888050Y-8333300D01*
X5559850Y-8302800D02*
X5589850Y-8332800D01*
X5589850Y-8302800D02*
X5559850Y-8332800D01*
X5619225Y-8302800D02*
X5649225Y-8332800D01*
X5649225Y-8302800D02*
X5619225Y-8332800D01*
X5678600Y-8302800D02*
X5708600Y-8332800D01*
X5708600Y-8302800D02*
X5678600Y-8332800D01*
X5737975Y-8302800D02*
X5767975Y-8332800D01*
X5767975Y-8302800D02*
X5737975Y-8332800D01*
X5797350Y-8302800D02*
X5827350Y-8332800D01*
X5827350Y-8302800D02*
X5797350Y-8332800D01*
X5856725Y-8302800D02*
X5886725Y-8332800D01*
X5886725Y-8302800D02*
X5856725Y-8332800D01*
X5916100Y-8302800D02*
X5946100Y-8332800D01*
X5946100Y-8302800D02*
X5916100Y-8332800D01*
X5975475Y-8302800D02*
X6005475Y-8332800D01*
X6005475Y-8302800D02*
X5975475Y-8332800D01*
X6034850Y-8302800D02*
X6064850Y-8332800D01*
X6064850Y-8302800D02*
X6034850Y-8332800D01*
X19821250Y-2173500D02*
X19851250Y-2203500D01*
X19851250Y-2173500D02*
X19821250Y-2203500D01*
X19880625Y-2173500D02*
X19910625Y-2203500D01*
X19910625Y-2173500D02*
X19880625Y-2203500D01*
X19940000Y-2173500D02*
X19970000Y-2203500D01*
X19970000Y-2173500D02*
X19940000Y-2203500D01*
X19999375Y-2173500D02*
X20029375Y-2203500D01*
X20029375Y-2173500D02*
X19999375Y-2203500D01*
X20058750Y-2173500D02*
X20088750Y-2203500D01*
X20088750Y-2173500D02*
X20058750Y-2203500D01*
X20118125Y-2173500D02*
X20148125Y-2203500D01*
X20148125Y-2173500D02*
X20118125Y-2203500D01*
X20177500Y-2173500D02*
X20207500Y-2203500D01*
X20207500Y-2173500D02*
X20177500Y-2203500D01*
X20236875Y-2173500D02*
X20266875Y-2203500D01*
X20266875Y-2173500D02*
X20236875Y-2203500D01*
X20296250Y-2173500D02*
X20326250Y-2203500D01*
X20326250Y-2173500D02*
X20296250Y-2203500D01*
X1763750Y-8302600D02*
X1793750Y-8332600D01*
X1793750Y-8302600D02*
X1763750Y-8332600D01*
X1823125Y-8302600D02*
X1853125Y-8332600D01*
X1853125Y-8302600D02*
X1823125Y-8332600D01*
X1882500Y-8302600D02*
X1912500Y-8332600D01*
X1912500Y-8302600D02*
X1882500Y-8332600D01*
X1941875Y-8302600D02*
X1971875Y-8332600D01*
X1971875Y-8302600D02*
X1941875Y-8332600D01*
X2001250Y-8302600D02*
X2031250Y-8332600D01*
X2031250Y-8302600D02*
X2001250Y-8332600D01*
X2060625Y-8302600D02*
X2090625Y-8332600D01*
X2090625Y-8302600D02*
X2060625Y-8332600D01*
X2120000Y-8302600D02*
X2150000Y-8332600D01*
X2150000Y-8302600D02*
X2120000Y-8332600D01*
X2179375Y-8302600D02*
X2209375Y-8332600D01*
X2209375Y-8302600D02*
X2179375Y-8332600D01*
X2238750Y-8302600D02*
X2268750Y-8332600D01*
X2268750Y-8302600D02*
X2238750Y-8332600D01*
X23621650Y-8304300D02*
X23651650Y-8334300D01*
X23651650Y-8304300D02*
X23621650Y-8334300D01*
X23681025Y-8304300D02*
X23711025Y-8334300D01*
X23711025Y-8304300D02*
X23681025Y-8334300D01*
X23740400Y-8304300D02*
X23770400Y-8334300D01*
X23770400Y-8304300D02*
X23740400Y-8334300D01*
X23799775Y-8304300D02*
X23829775Y-8334300D01*
X23829775Y-8304300D02*
X23799775Y-8334300D01*
X23859150Y-8304300D02*
X23889150Y-8334300D01*
X23889150Y-8304300D02*
X23859150Y-8334300D01*
X23918525Y-8304300D02*
X23948525Y-8334300D01*
X23948525Y-8304300D02*
X23918525Y-8334300D01*
X23977900Y-8304300D02*
X24007900Y-8334300D01*
X24007900Y-8304300D02*
X23977900Y-8334300D01*
X24037275Y-8304300D02*
X24067275Y-8334300D01*
X24067275Y-8304300D02*
X24037275Y-8334300D01*
X24096650Y-8304300D02*
X24126650Y-8334300D01*
X24126650Y-8304300D02*
X24096650Y-8334300D01*
X23612450Y-2172000D02*
X23642450Y-2202000D01*
X23642450Y-2172000D02*
X23612450Y-2202000D01*
X23671825Y-2172000D02*
X23701825Y-2202000D01*
X23701825Y-2172000D02*
X23671825Y-2202000D01*
X23731200Y-2172000D02*
X23761200Y-2202000D01*
X23761200Y-2172000D02*
X23731200Y-2202000D01*
X23790575Y-2172000D02*
X23820575Y-2202000D01*
X23820575Y-2172000D02*
X23790575Y-2202000D01*
X23849950Y-2172000D02*
X23879950Y-2202000D01*
X23879950Y-2172000D02*
X23849950Y-2202000D01*
X23909325Y-2172000D02*
X23939325Y-2202000D01*
X23939325Y-2172000D02*
X23909325Y-2202000D01*
X23968700Y-2172000D02*
X23998700Y-2202000D01*
X23998700Y-2172000D02*
X23968700Y-2202000D01*
X24028075Y-2172000D02*
X24058075Y-2202000D01*
X24058075Y-2172000D02*
X24028075Y-2202000D01*
X24087450Y-2172000D02*
X24117450Y-2202000D01*
X24117450Y-2172000D02*
X24087450Y-2202000D01*
X9368250Y-2172300D02*
X9398250Y-2202300D01*
X9398250Y-2172300D02*
X9368250Y-2202300D01*
X9427625Y-2172300D02*
X9457625Y-2202300D01*
X9457625Y-2172300D02*
X9427625Y-2202300D01*
X9487000Y-2172300D02*
X9517000Y-2202300D01*
X9517000Y-2172300D02*
X9487000Y-2202300D01*
X9546375Y-2172300D02*
X9576375Y-2202300D01*
X9576375Y-2172300D02*
X9546375Y-2202300D01*
X9605750Y-2172300D02*
X9635750Y-2202300D01*
X9635750Y-2172300D02*
X9605750Y-2202300D01*
X9665125Y-2172300D02*
X9695125Y-2202300D01*
X9695125Y-2172300D02*
X9665125Y-2202300D01*
X9724500Y-2172300D02*
X9754500Y-2202300D01*
X9754500Y-2172300D02*
X9724500Y-2202300D01*
X9783875Y-2172300D02*
X9813875Y-2202300D01*
X9813875Y-2172300D02*
X9783875Y-2202300D01*
X9843250Y-2172300D02*
X9873250Y-2202300D01*
X9873250Y-2172300D02*
X9843250Y-2202300D01*
X15463750Y-7427000D02*
G75*
G03X15463750Y-7427000I-60000J0D01*
G01*
X16163750Y-7427000D02*
G75*
G03X16163750Y-7427000I-60000J0D01*
G01*
X13623450Y-7429200D02*
G75*
G03X13623450Y-7429200I-60000J0D01*
G01*
X14323450Y-7429200D02*
G75*
G03X14323450Y-7429200I-60000J0D01*
G01*
X16432450Y-8980059D02*
X16432450Y-9170059D01*
X16337450Y-9075059D02*
X16527450Y-9075059D01*
X16940450Y-9859941D02*
X16940450Y-10049941D01*
X16845450Y-9954941D02*
X17035450Y-9954941D01*
X25253450Y-5382500D02*
X25253450Y-5572500D01*
X25158450Y-5477500D02*
X25348450Y-5477500D01*
X26269450Y-5382500D02*
X26269450Y-5572500D01*
X26174450Y-5477500D02*
X26364450Y-5477500D01*
X17653450Y-5145000D02*
X17653450Y-5335000D01*
X17558450Y-5240000D02*
X17748450Y-5240000D01*
X18669450Y-5145000D02*
X18669450Y-5335000D01*
X18574450Y-5240000D02*
X18764450Y-5240000D01*
X5302750Y-4908000D02*
X5302750Y-5098000D01*
X5207750Y-5003000D02*
X5397750Y-5003000D01*
X6318750Y-4908000D02*
X6318750Y-5098000D01*
X6223750Y-5003000D02*
X6413750Y-5003000D01*
X23353450Y-3007500D02*
X23353450Y-3197500D01*
X23258450Y-3102500D02*
X23448450Y-3102500D01*
X24369450Y-3007500D02*
X24369450Y-3197500D01*
X24274450Y-3102500D02*
X24464450Y-3102500D01*
X25253450Y-7282500D02*
X25253450Y-7472500D01*
X25158450Y-7377500D02*
X25348450Y-7377500D01*
X26269450Y-7282500D02*
X26269450Y-7472500D01*
X26174450Y-7377500D02*
X26364450Y-7377500D01*
X8152750Y-8770500D02*
X8152750Y-8960500D01*
X8057750Y-8865500D02*
X8247750Y-8865500D01*
X9168750Y-8770500D02*
X9168750Y-8960500D01*
X9073750Y-8865500D02*
X9263750Y-8865500D01*
X11002750Y-3245500D02*
X11002750Y-3435500D01*
X10907750Y-3340500D02*
X11097750Y-3340500D01*
X12018750Y-3245500D02*
X12018750Y-3435500D01*
X11923750Y-3340500D02*
X12113750Y-3340500D01*
X17653450Y-7045000D02*
X17653450Y-7235000D01*
X17558450Y-7140000D02*
X17748450Y-7140000D01*
X18669450Y-7045000D02*
X18669450Y-7235000D01*
X18574450Y-7140000D02*
X18764450Y-7140000D01*
X5302750Y-6808000D02*
X5302750Y-6998000D01*
X5207750Y-6903000D02*
X5397750Y-6903000D01*
X6318750Y-6808000D02*
X6318750Y-6998000D01*
X6223750Y-6903000D02*
X6413750Y-6903000D01*
X20503450Y-8770000D02*
X20503450Y-8960000D01*
X20408450Y-8865000D02*
X20598450Y-8865000D01*
X21519450Y-8770000D02*
X21519450Y-8960000D01*
X21424450Y-8865000D02*
X21614450Y-8865000D01*
X1502750Y-3483000D02*
X1502750Y-3673000D01*
X1407750Y-3578000D02*
X1597750Y-3578000D01*
X2518750Y-3483000D02*
X2518750Y-3673000D01*
X2423750Y-3578000D02*
X2613750Y-3578000D01*
X19553450Y-4907500D02*
X19553450Y-5097500D01*
X19458450Y-5002500D02*
X19648450Y-5002500D01*
X20569450Y-4907500D02*
X20569450Y-5097500D01*
X20474450Y-5002500D02*
X20664450Y-5002500D01*
X19553450Y-6807500D02*
X19553450Y-6997500D01*
X19458450Y-6902500D02*
X19648450Y-6902500D01*
X20569450Y-6807500D02*
X20569450Y-6997500D01*
X20474450Y-6902500D02*
X20664450Y-6902500D01*
X1502750Y-5383000D02*
X1502750Y-5573000D01*
X1407750Y-5478000D02*
X1597750Y-5478000D01*
X2518750Y-5383000D02*
X2518750Y-5573000D01*
X2423750Y-5478000D02*
X2613750Y-5478000D01*
X27153450Y-5382500D02*
X27153450Y-5572500D01*
X27058450Y-5477500D02*
X27248450Y-5477500D01*
X28169450Y-5382500D02*
X28169450Y-5572500D01*
X28074450Y-5477500D02*
X28264450Y-5477500D01*
X1502750Y-7283000D02*
X1502750Y-7473000D01*
X1407750Y-7378000D02*
X1597750Y-7378000D01*
X2518750Y-7283000D02*
X2518750Y-7473000D01*
X2423750Y-7378000D02*
X2613750Y-7378000D01*
X5302750Y-3008000D02*
X5302750Y-3198000D01*
X5207750Y-3103000D02*
X5397750Y-3103000D01*
X6318750Y-3008000D02*
X6318750Y-3198000D01*
X6223750Y-3103000D02*
X6413750Y-3103000D01*
X12731750Y-9860441D02*
X12731750Y-10050441D01*
X12636750Y-9955441D02*
X12826750Y-9955441D01*
X13239750Y-8980559D02*
X13239750Y-9170559D01*
X13144750Y-9075559D02*
X13334750Y-9075559D01*
X11002750Y-5145500D02*
X11002750Y-5335500D01*
X10907750Y-5240500D02*
X11097750Y-5240500D01*
X12018750Y-5145500D02*
X12018750Y-5335500D01*
X11923750Y-5240500D02*
X12113750Y-5240500D01*
X25253450Y-3482500D02*
X25253450Y-3672500D01*
X25158450Y-3577500D02*
X25348450Y-3577500D01*
X26269450Y-3482500D02*
X26269450Y-3672500D01*
X26174450Y-3577500D02*
X26364450Y-3577500D01*
X9102750Y-4908000D02*
X9102750Y-5098000D01*
X9007750Y-5003000D02*
X9197750Y-5003000D01*
X10118750Y-4908000D02*
X10118750Y-5098000D01*
X10023750Y-5003000D02*
X10213750Y-5003000D01*
X21453450Y-4670000D02*
X21453450Y-4860000D01*
X21358450Y-4765000D02*
X21548450Y-4765000D01*
X22469450Y-4670000D02*
X22469450Y-4860000D01*
X22374450Y-4765000D02*
X22564450Y-4765000D01*
X3402750Y-7283000D02*
X3402750Y-7473000D01*
X3307750Y-7378000D02*
X3497750Y-7378000D01*
X4418750Y-7283000D02*
X4418750Y-7473000D01*
X4323750Y-7378000D02*
X4513750Y-7378000D01*
X11002750Y-7045500D02*
X11002750Y-7235500D01*
X10907750Y-7140500D02*
X11097750Y-7140500D01*
X12018750Y-7045500D02*
X12018750Y-7235500D01*
X11923750Y-7140500D02*
X12113750Y-7140500D01*
X17652750Y-3245500D02*
X17652750Y-3435500D01*
X17557750Y-3340500D02*
X17747750Y-3340500D01*
X18668750Y-3245500D02*
X18668750Y-3435500D01*
X18573750Y-3340500D02*
X18763750Y-3340500D01*
X23353450Y-6807500D02*
X23353450Y-6997500D01*
X23258450Y-6902500D02*
X23448450Y-6902500D01*
X24369450Y-6807500D02*
X24369450Y-6997500D01*
X24274450Y-6902500D02*
X24464450Y-6902500D01*
X27153450Y-3482500D02*
X27153450Y-3672500D01*
X27058450Y-3577500D02*
X27248450Y-3577500D01*
X28169450Y-3482500D02*
X28169450Y-3672500D01*
X28074450Y-3577500D02*
X28264450Y-3577500D01*
X9102750Y-6808000D02*
X9102750Y-6998000D01*
X9007750Y-6903000D02*
X9197750Y-6903000D01*
X10118750Y-6808000D02*
X10118750Y-6998000D01*
X10023750Y-6903000D02*
X10213750Y-6903000D01*
X19553450Y-3007500D02*
X19553450Y-3197500D01*
X19458450Y-3102500D02*
X19648450Y-3102500D01*
X20569450Y-3007500D02*
X20569450Y-3197500D01*
X20474450Y-3102500D02*
X20664450Y-3102500D01*
X23353450Y-4907500D02*
X23353450Y-5097500D01*
X23258450Y-5002500D02*
X23448450Y-5002500D01*
X24369450Y-4907500D02*
X24369450Y-5097500D01*
X24274450Y-5002500D02*
X24464450Y-5002500D01*
X3402750Y-3483000D02*
X3402750Y-3673000D01*
X3307750Y-3578000D02*
X3497750Y-3578000D01*
X4418750Y-3483000D02*
X4418750Y-3673000D01*
X4323750Y-3578000D02*
X4513750Y-3578000D01*
X3402750Y-5383000D02*
X3402750Y-5573000D01*
X3307750Y-5478000D02*
X3497750Y-5478000D01*
X4418750Y-5383000D02*
X4418750Y-5573000D01*
X4323750Y-5478000D02*
X4513750Y-5478000D01*
X7202750Y-4670500D02*
X7202750Y-4860500D01*
X7107750Y-4765500D02*
X7297750Y-4765500D01*
X8218750Y-4670500D02*
X8218750Y-4860500D01*
X8123750Y-4765500D02*
X8313750Y-4765500D01*
X27153450Y-7282500D02*
X27153450Y-7472500D01*
X27058450Y-7377500D02*
X27248450Y-7377500D01*
X28169450Y-7282500D02*
X28169450Y-7472500D01*
X28074450Y-7377500D02*
X28264450Y-7377500D01*
X21453450Y-6570000D02*
X21453450Y-6760000D01*
X21358450Y-6665000D02*
X21548450Y-6665000D01*
X22469450Y-6570000D02*
X22469450Y-6760000D01*
X22374450Y-6665000D02*
X22564450Y-6665000D01*
X7202750Y-6570500D02*
X7202750Y-6760500D01*
X7107750Y-6665500D02*
X7297750Y-6665500D01*
X8218750Y-6570500D02*
X8218750Y-6760500D01*
X8123750Y-6665500D02*
X8313750Y-6665500D01*
X18420760Y-9176480D02*
X18420760Y-9366480D01*
X18325760Y-9271480D02*
X18515760Y-9271480D01*
X19402140Y-8913520D02*
X19402140Y-9103520D01*
X19307140Y-9008520D02*
X19497140Y-9008520D01*
X7202750Y-2770500D02*
X7202750Y-2960500D01*
X7107750Y-2865500D02*
X7297750Y-2865500D01*
X8218750Y-2770500D02*
X8218750Y-2960500D01*
X8123750Y-2865500D02*
X8313750Y-2865500D01*
X10270060Y-8914020D02*
X10270060Y-9104020D01*
X10175060Y-9009020D02*
X10365060Y-9009020D01*
X11251440Y-9176980D02*
X11251440Y-9366980D01*
X11156440Y-9271980D02*
X11346440Y-9271980D01*
X21453450Y-2770000D02*
X21453450Y-2960000D01*
X21358450Y-2865000D02*
X21548450Y-2865000D01*
X22469450Y-2770000D02*
X22469450Y-2960000D01*
X22374450Y-2865000D02*
X22564450Y-2865000D01*
X9102750Y-3008000D02*
X9102750Y-3198000D01*
X9007750Y-3103000D02*
X9197750Y-3103000D01*
X10118750Y-3008000D02*
X10118750Y-3198000D01*
X10023750Y-3103000D02*
X10213750Y-3103000D01*
X12864732Y-7503182D02*
X12864732Y-7347617D01*
X12709167Y-7347617D01*
X12709167Y-7503182D01*
X12864732Y-7503182D01*
X14307932Y-8355282D02*
X14307932Y-8199717D01*
X14152367Y-8199717D01*
X14152367Y-8355282D01*
X14307932Y-8355282D01*
X15519632Y-8356282D02*
X15519632Y-8200717D01*
X15364067Y-8200717D01*
X15364067Y-8356282D01*
X15519632Y-8356282D01*
X16962833Y-7504182D02*
X16962833Y-7348617D01*
X16807268Y-7348617D01*
X16807268Y-7504182D01*
X16962833Y-7504182D01*
X3529750Y-5374000D02*
X3679750Y-5224000D01*
X3529750Y-5074000D01*
X3379750Y-5224000D01*
X3529750Y-5374000D01*
X4164750Y-5120000D02*
X4314750Y-4970000D01*
X4164750Y-4820000D01*
X4014750Y-4970000D01*
X4164750Y-5120000D01*
X7329750Y-4661500D02*
X7479750Y-4511500D01*
X7329750Y-4361500D01*
X7179750Y-4511500D01*
X7329750Y-4661500D01*
X7964750Y-4407500D02*
X8114750Y-4257500D01*
X7964750Y-4107500D01*
X7814750Y-4257500D01*
X7964750Y-4407500D01*
X27280450Y-7273500D02*
X27430450Y-7123500D01*
X27280450Y-6973500D01*
X27130450Y-7123500D01*
X27280450Y-7273500D01*
X27915450Y-7019500D02*
X28065450Y-6869500D01*
X27915450Y-6719500D01*
X27765450Y-6869500D01*
X27915450Y-7019500D01*
X21580450Y-6561000D02*
X21730450Y-6411000D01*
X21580450Y-6261000D01*
X21430450Y-6411000D01*
X21580450Y-6561000D01*
X22215450Y-6307000D02*
X22365450Y-6157000D01*
X22215450Y-6007000D01*
X22065450Y-6157000D01*
X22215450Y-6307000D01*
X7329750Y-6561500D02*
X7479750Y-6411500D01*
X7329750Y-6261500D01*
X7179750Y-6411500D01*
X7329750Y-6561500D01*
X7964750Y-6307500D02*
X8114750Y-6157500D01*
X7964750Y-6007500D01*
X7814750Y-6157500D01*
X7964750Y-6307500D01*
X18477692Y-9143265D02*
X18627692Y-8993265D01*
X18477692Y-8843265D01*
X18327692Y-8993265D01*
X18477692Y-9143265D01*
X19025315Y-8733570D02*
X19175315Y-8583570D01*
X19025315Y-8433570D01*
X18875315Y-8583570D01*
X19025315Y-8733570D01*
X7329750Y-2761500D02*
X7479750Y-2611500D01*
X7329750Y-2461500D01*
X7179750Y-2611500D01*
X7329750Y-2761500D01*
X7964750Y-2507500D02*
X8114750Y-2357500D01*
X7964750Y-2207500D01*
X7814750Y-2357500D01*
X7964750Y-2507500D01*
X10458472Y-8946545D02*
X10608472Y-8796545D01*
X10458472Y-8646545D01*
X10308472Y-8796545D01*
X10458472Y-8946545D01*
X11137575Y-8865550D02*
X11287575Y-8715550D01*
X11137575Y-8565550D01*
X10987575Y-8715550D01*
X11137575Y-8865550D01*
X21580450Y-2761000D02*
X21730450Y-2611000D01*
X21580450Y-2461000D01*
X21430450Y-2611000D01*
X21580450Y-2761000D01*
X22215450Y-2507000D02*
X22365450Y-2357000D01*
X22215450Y-2207000D01*
X22065450Y-2357000D01*
X22215450Y-2507000D01*
X9229750Y-2999000D02*
X9379750Y-2849000D01*
X9229750Y-2699000D01*
X9079750Y-2849000D01*
X9229750Y-2999000D01*
X9864750Y-2745000D02*
X10014750Y-2595000D01*
X9864750Y-2445000D01*
X9714750Y-2595000D01*
X9864750Y-2745000D01*
X16715920Y-9208044D02*
X16865921Y-9058044D01*
X16715920Y-8908044D01*
X16565920Y-9058044D01*
X16715920Y-9208044D01*
X17253391Y-9630971D02*
X17403391Y-9480971D01*
X17253391Y-9330971D01*
X17103391Y-9480971D01*
X17253391Y-9630971D01*
X25380450Y-5373500D02*
X25530450Y-5223500D01*
X25380450Y-5073500D01*
X25230450Y-5223500D01*
X25380450Y-5373500D01*
X26015450Y-5119500D02*
X26165450Y-4969500D01*
X26015450Y-4819500D01*
X25865450Y-4969500D01*
X26015450Y-5119500D01*
X17780450Y-5136000D02*
X17930450Y-4986000D01*
X17780450Y-4836000D01*
X17630450Y-4986000D01*
X17780450Y-5136000D01*
X18415450Y-4882000D02*
X18565450Y-4732000D01*
X18415450Y-4582000D01*
X18265450Y-4732000D01*
X18415450Y-4882000D01*
X5429750Y-4899000D02*
X5579750Y-4749000D01*
X5429750Y-4599000D01*
X5279750Y-4749000D01*
X5429750Y-4899000D01*
X6064750Y-4645000D02*
X6214750Y-4495000D01*
X6064750Y-4345000D01*
X5914750Y-4495000D01*
X6064750Y-4645000D01*
X23480450Y-2998500D02*
X23630450Y-2848500D01*
X23480450Y-2698500D01*
X23330450Y-2848500D01*
X23480450Y-2998500D01*
X24115450Y-2744500D02*
X24265450Y-2594500D01*
X24115450Y-2444500D01*
X23965450Y-2594500D01*
X24115450Y-2744500D01*
X25380450Y-7273500D02*
X25530450Y-7123500D01*
X25380450Y-6973500D01*
X25230450Y-7123500D01*
X25380450Y-7273500D01*
X26015450Y-7019500D02*
X26165450Y-6869500D01*
X26015450Y-6719500D01*
X25865450Y-6869500D01*
X26015450Y-7019500D01*
X8279750Y-8761500D02*
X8429750Y-8611500D01*
X8279750Y-8461500D01*
X8129750Y-8611500D01*
X8279750Y-8761500D01*
X8914750Y-8507500D02*
X9064750Y-8357500D01*
X8914750Y-8207500D01*
X8764750Y-8357500D01*
X8914750Y-8507500D01*
X11129750Y-3236500D02*
X11279750Y-3086500D01*
X11129750Y-2936500D01*
X10979750Y-3086500D01*
X11129750Y-3236500D01*
X11764750Y-2982500D02*
X11914750Y-2832500D01*
X11764750Y-2682500D01*
X11614750Y-2832500D01*
X11764750Y-2982500D01*
X17780450Y-7036000D02*
X17930450Y-6886000D01*
X17780450Y-6736000D01*
X17630450Y-6886000D01*
X17780450Y-7036000D01*
X18415450Y-6782000D02*
X18565450Y-6632000D01*
X18415450Y-6482000D01*
X18265450Y-6632000D01*
X18415450Y-6782000D01*
X5429750Y-6799000D02*
X5579750Y-6649000D01*
X5429750Y-6499000D01*
X5279750Y-6649000D01*
X5429750Y-6799000D01*
X6064750Y-6545000D02*
X6214750Y-6395000D01*
X6064750Y-6245000D01*
X5914750Y-6395000D01*
X6064750Y-6545000D01*
X20630450Y-8761000D02*
X20780450Y-8611000D01*
X20630450Y-8461000D01*
X20480450Y-8611000D01*
X20630450Y-8761000D01*
X21265450Y-8507000D02*
X21415450Y-8357000D01*
X21265450Y-8207000D01*
X21115450Y-8357000D01*
X21265450Y-8507000D01*
X1629750Y-3474000D02*
X1779750Y-3324000D01*
X1629750Y-3174000D01*
X1479750Y-3324000D01*
X1629750Y-3474000D01*
X2264750Y-3220000D02*
X2414750Y-3070000D01*
X2264750Y-2920000D01*
X2114750Y-3070000D01*
X2264750Y-3220000D01*
X19680450Y-4898500D02*
X19830450Y-4748500D01*
X19680450Y-4598500D01*
X19530450Y-4748500D01*
X19680450Y-4898500D01*
X20315450Y-4644500D02*
X20465450Y-4494500D01*
X20315450Y-4344500D01*
X20165450Y-4494500D01*
X20315450Y-4644500D01*
X19680450Y-6798500D02*
X19830450Y-6648500D01*
X19680450Y-6498500D01*
X19530450Y-6648500D01*
X19680450Y-6798500D01*
X20315450Y-6544500D02*
X20465450Y-6394500D01*
X20315450Y-6244500D01*
X20165450Y-6394500D01*
X20315450Y-6544500D01*
X1629750Y-5374000D02*
X1779750Y-5224000D01*
X1629750Y-5074000D01*
X1479750Y-5224000D01*
X1629750Y-5374000D01*
X2264750Y-5120000D02*
X2414750Y-4970000D01*
X2264750Y-4820000D01*
X2114750Y-4970000D01*
X2264750Y-5120000D01*
X27280450Y-5373500D02*
X27430450Y-5223500D01*
X27280450Y-5073500D01*
X27130450Y-5223500D01*
X27280450Y-5373500D01*
X27915450Y-5119500D02*
X28065450Y-4969500D01*
X27915450Y-4819500D01*
X27765450Y-4969500D01*
X27915450Y-5119500D01*
X1629750Y-7274000D02*
X1779750Y-7124000D01*
X1629750Y-6974000D01*
X1479750Y-7124000D01*
X1629750Y-7274000D01*
X2264750Y-7020000D02*
X2414750Y-6870000D01*
X2264750Y-6720000D01*
X2114750Y-6870000D01*
X2264750Y-7020000D01*
X5429750Y-2999000D02*
X5579750Y-2849000D01*
X5429750Y-2699000D01*
X5279750Y-2849000D01*
X5429750Y-2999000D01*
X6064750Y-2745000D02*
X6214750Y-2595000D01*
X6064750Y-2445000D01*
X5914750Y-2595000D01*
X6064750Y-2745000D01*
X12575279Y-9868456D02*
X12725279Y-9718456D01*
X12575279Y-9568456D01*
X12425279Y-9718456D01*
X12575279Y-9868456D01*
X12672809Y-9191530D02*
X12822809Y-9041530D01*
X12672809Y-8891530D01*
X12522809Y-9041530D01*
X12672809Y-9191530D01*
X11129750Y-5136500D02*
X11279750Y-4986500D01*
X11129750Y-4836500D01*
X10979750Y-4986500D01*
X11129750Y-5136500D01*
X11764750Y-4882500D02*
X11914750Y-4732500D01*
X11764750Y-4582500D01*
X11614750Y-4732500D01*
X11764750Y-4882500D01*
X25380450Y-3473500D02*
X25530450Y-3323500D01*
X25380450Y-3173500D01*
X25230450Y-3323500D01*
X25380450Y-3473500D01*
X26015450Y-3219500D02*
X26165450Y-3069500D01*
X26015450Y-2919500D01*
X25865450Y-3069500D01*
X26015450Y-3219500D01*
X9229750Y-4899000D02*
X9379750Y-4749000D01*
X9229750Y-4599000D01*
X9079750Y-4749000D01*
X9229750Y-4899000D01*
X9864750Y-4645000D02*
X10014750Y-4495000D01*
X9864750Y-4345000D01*
X9714750Y-4495000D01*
X9864750Y-4645000D01*
X21580450Y-4661000D02*
X21730450Y-4511000D01*
X21580450Y-4361000D01*
X21430450Y-4511000D01*
X21580450Y-4661000D01*
X22215450Y-4407000D02*
X22365450Y-4257000D01*
X22215450Y-4107000D01*
X22065450Y-4257000D01*
X22215450Y-4407000D01*
X3529750Y-7274000D02*
X3679750Y-7124000D01*
X3529750Y-6974000D01*
X3379750Y-7124000D01*
X3529750Y-7274000D01*
X4164750Y-7020000D02*
X4314750Y-6870000D01*
X4164750Y-6720000D01*
X4014750Y-6870000D01*
X4164750Y-7020000D01*
X11129750Y-7036500D02*
X11279750Y-6886500D01*
X11129750Y-6736500D01*
X10979750Y-6886500D01*
X11129750Y-7036500D01*
X11764750Y-6782500D02*
X11914750Y-6632500D01*
X11764750Y-6482500D01*
X11614750Y-6632500D01*
X11764750Y-6782500D01*
X17779750Y-3236500D02*
X17929750Y-3086500D01*
X17779750Y-2936500D01*
X17629750Y-3086500D01*
X17779750Y-3236500D01*
X18414750Y-2982500D02*
X18564750Y-2832500D01*
X18414750Y-2682500D01*
X18264750Y-2832500D01*
X18414750Y-2982500D01*
X23480450Y-6798500D02*
X23630450Y-6648500D01*
X23480450Y-6498500D01*
X23330450Y-6648500D01*
X23480450Y-6798500D01*
X24115450Y-6544500D02*
X24265450Y-6394500D01*
X24115450Y-6244500D01*
X23965450Y-6394500D01*
X24115450Y-6544500D01*
X27280450Y-3473500D02*
X27430450Y-3323500D01*
X27280450Y-3173500D01*
X27130450Y-3323500D01*
X27280450Y-3473500D01*
X27915450Y-3219500D02*
X28065450Y-3069500D01*
X27915450Y-2919500D01*
X27765450Y-3069500D01*
X27915450Y-3219500D01*
X9229750Y-6799000D02*
X9379750Y-6649000D01*
X9229750Y-6499000D01*
X9079750Y-6649000D01*
X9229750Y-6799000D01*
X9864750Y-6545000D02*
X10014750Y-6395000D01*
X9864750Y-6245000D01*
X9714750Y-6395000D01*
X9864750Y-6545000D01*
X19680450Y-2998500D02*
X19830450Y-2848500D01*
X19680450Y-2698500D01*
X19530450Y-2848500D01*
X19680450Y-2998500D01*
X20315450Y-2744500D02*
X20465450Y-2594500D01*
X20315450Y-2444500D01*
X20165450Y-2594500D01*
X20315450Y-2744500D01*
X23480450Y-4898500D02*
X23630450Y-4748500D01*
X23480450Y-4598500D01*
X23330450Y-4748500D01*
X23480450Y-4898500D01*
X24115450Y-4644500D02*
X24265450Y-4494500D01*
X24115450Y-4344500D01*
X23965450Y-4494500D01*
X24115450Y-4644500D01*
X3529750Y-3474000D02*
X3679750Y-3324000D01*
X3529750Y-3174000D01*
X3379750Y-3324000D01*
X3529750Y-3474000D01*
X4164750Y-3220000D02*
X4314750Y-3070000D01*
X4164750Y-2920000D01*
X4014750Y-3070000D01*
X4164750Y-3220000D01*
X23656450Y-6697500D02*
X24066450Y-7107500D01*
X24066450Y-6697500D02*
X23656450Y-7107500D01*
X24066450Y-6902500D02*
G75*
G03X24066450Y-6902500I-205000J0D01*
G01*
X27456450Y-3372500D02*
X27866450Y-3782500D01*
X27866450Y-3372500D02*
X27456450Y-3782500D01*
X27866450Y-3577500D02*
G75*
G03X27866450Y-3577500I-205000J0D01*
G01*
X9405750Y-6698000D02*
X9815750Y-7108000D01*
X9815750Y-6698000D02*
X9405750Y-7108000D01*
X9815750Y-6903000D02*
G75*
G03X9815750Y-6903000I-205000J0D01*
G01*
X19856450Y-2897500D02*
X20266450Y-3307500D01*
X20266450Y-2897500D02*
X19856450Y-3307500D01*
X20266450Y-3102500D02*
G75*
G03X20266450Y-3102500I-205000J0D01*
G01*
X23656450Y-4797500D02*
X24066450Y-5207500D01*
X24066450Y-4797500D02*
X23656450Y-5207500D01*
X24066450Y-5002500D02*
G75*
G03X24066450Y-5002500I-205000J0D01*
G01*
X3705750Y-3373000D02*
X4115750Y-3783000D01*
X4115750Y-3373000D02*
X3705750Y-3783000D01*
X4115750Y-3578000D02*
G75*
G03X4115750Y-3578000I-205000J0D01*
G01*
X3705750Y-5273000D02*
X4115750Y-5683000D01*
X4115750Y-5273000D02*
X3705750Y-5683000D01*
X4115750Y-5478000D02*
G75*
G03X4115750Y-5478000I-205000J0D01*
G01*
X7505750Y-4560500D02*
X7915750Y-4970500D01*
X7915750Y-4560500D02*
X7505750Y-4970500D01*
X7915750Y-4765500D02*
G75*
G03X7915750Y-4765500I-205000J0D01*
G01*
X27456450Y-7172500D02*
X27866450Y-7582500D01*
X27866450Y-7172500D02*
X27456450Y-7582500D01*
X27866450Y-7377500D02*
G75*
G03X27866450Y-7377500I-205000J0D01*
G01*
X21756450Y-6460000D02*
X22166450Y-6870000D01*
X22166450Y-6460000D02*
X21756450Y-6870000D01*
X22166450Y-6665000D02*
G75*
G03X22166450Y-6665000I-205000J0D01*
G01*
X7505750Y-6460500D02*
X7915750Y-6870500D01*
X7915750Y-6460500D02*
X7505750Y-6870500D01*
X7915750Y-6665500D02*
G75*
G03X7915750Y-6665500I-205000J0D01*
G01*
X18706450Y-8935000D02*
X19116450Y-9345000D01*
X19116450Y-8935000D02*
X18706450Y-9345000D01*
X19116450Y-9140000D02*
G75*
G03X19116450Y-9140000I-205000J0D01*
G01*
X7505750Y-2660500D02*
X7915750Y-3070500D01*
X7915750Y-2660500D02*
X7505750Y-3070500D01*
X7915750Y-2865500D02*
G75*
G03X7915750Y-2865500I-205000J0D01*
G01*
X10555750Y-8935500D02*
X10965750Y-9345500D01*
X10965750Y-8935500D02*
X10555750Y-9345500D01*
X10965750Y-9140500D02*
G75*
G03X10965750Y-9140500I-205000J0D01*
G01*
X21756450Y-2660000D02*
X22166450Y-3070000D01*
X22166450Y-2660000D02*
X21756450Y-3070000D01*
X22166450Y-2865000D02*
G75*
G03X22166450Y-2865000I-205000J0D01*
G01*
X9405750Y-2898000D02*
X9815750Y-3308000D01*
X9815750Y-2898000D02*
X9405750Y-3308000D01*
X9815750Y-3103000D02*
G75*
G03X9815750Y-3103000I-205000J0D01*
G01*
X16481450Y-9310000D02*
X16891450Y-9720000D01*
X16891450Y-9310000D02*
X16481450Y-9720000D01*
X16891450Y-9515000D02*
G75*
G03X16891450Y-9515000I-205000J0D01*
G01*
X25556450Y-5272500D02*
X25966450Y-5682500D01*
X25966450Y-5272500D02*
X25556450Y-5682500D01*
X25966450Y-5477500D02*
G75*
G03X25966450Y-5477500I-205000J0D01*
G01*
X17956450Y-5035000D02*
X18366450Y-5445000D01*
X18366450Y-5035000D02*
X17956450Y-5445000D01*
X18366450Y-5240000D02*
G75*
G03X18366450Y-5240000I-205000J0D01*
G01*
X5605750Y-4798000D02*
X6015750Y-5208000D01*
X6015750Y-4798000D02*
X5605750Y-5208000D01*
X6015750Y-5003000D02*
G75*
G03X6015750Y-5003000I-205000J0D01*
G01*
X23656450Y-2897500D02*
X24066450Y-3307500D01*
X24066450Y-2897500D02*
X23656450Y-3307500D01*
X24066450Y-3102500D02*
G75*
G03X24066450Y-3102500I-205000J0D01*
G01*
X25556450Y-7172500D02*
X25966450Y-7582500D01*
X25966450Y-7172500D02*
X25556450Y-7582500D01*
X25966450Y-7377500D02*
G75*
G03X25966450Y-7377500I-205000J0D01*
G01*
X8455750Y-8660500D02*
X8865750Y-9070500D01*
X8865750Y-8660500D02*
X8455750Y-9070500D01*
X8865750Y-8865500D02*
G75*
G03X8865750Y-8865500I-205000J0D01*
G01*
X11305750Y-3135500D02*
X11715750Y-3545500D01*
X11715750Y-3135500D02*
X11305750Y-3545500D01*
X11715750Y-3340500D02*
G75*
G03X11715750Y-3340500I-205000J0D01*
G01*
X17956450Y-6935000D02*
X18366450Y-7345000D01*
X18366450Y-6935000D02*
X17956450Y-7345000D01*
X18366450Y-7140000D02*
G75*
G03X18366450Y-7140000I-205000J0D01*
G01*
X5605750Y-6698000D02*
X6015750Y-7108000D01*
X6015750Y-6698000D02*
X5605750Y-7108000D01*
X6015750Y-6903000D02*
G75*
G03X6015750Y-6903000I-205000J0D01*
G01*
X20806450Y-8660000D02*
X21216450Y-9070000D01*
X21216450Y-8660000D02*
X20806450Y-9070000D01*
X21216450Y-8865000D02*
G75*
G03X21216450Y-8865000I-205000J0D01*
G01*
X1805750Y-3373000D02*
X2215750Y-3783000D01*
X2215750Y-3373000D02*
X1805750Y-3783000D01*
X2215750Y-3578000D02*
G75*
G03X2215750Y-3578000I-205000J0D01*
G01*
X19856450Y-4797500D02*
X20266450Y-5207500D01*
X20266450Y-4797500D02*
X19856450Y-5207500D01*
X20266450Y-5002500D02*
G75*
G03X20266450Y-5002500I-205000J0D01*
G01*
X19856450Y-6697500D02*
X20266450Y-7107500D01*
X20266450Y-6697500D02*
X19856450Y-7107500D01*
X20266450Y-6902500D02*
G75*
G03X20266450Y-6902500I-205000J0D01*
G01*
X1805750Y-5273000D02*
X2215750Y-5683000D01*
X2215750Y-5273000D02*
X1805750Y-5683000D01*
X2215750Y-5478000D02*
G75*
G03X2215750Y-5478000I-205000J0D01*
G01*
X27456450Y-5272500D02*
X27866450Y-5682500D01*
X27866450Y-5272500D02*
X27456450Y-5682500D01*
X27866450Y-5477500D02*
G75*
G03X27866450Y-5477500I-205000J0D01*
G01*
X1805750Y-7173000D02*
X2215750Y-7583000D01*
X2215750Y-7173000D02*
X1805750Y-7583000D01*
X2215750Y-7378000D02*
G75*
G03X2215750Y-7378000I-205000J0D01*
G01*
X5605750Y-2898000D02*
X6015750Y-3308000D01*
X6015750Y-2898000D02*
X5605750Y-3308000D01*
X6015750Y-3103000D02*
G75*
G03X6015750Y-3103000I-205000J0D01*
G01*
X12780750Y-9310500D02*
X13190750Y-9720500D01*
X13190750Y-9310500D02*
X12780750Y-9720500D01*
X13190750Y-9515500D02*
G75*
G03X13190750Y-9515500I-205000J0D01*
G01*
X11305750Y-5035500D02*
X11715750Y-5445500D01*
X11715750Y-5035500D02*
X11305750Y-5445500D01*
X11715750Y-5240500D02*
G75*
G03X11715750Y-5240500I-205000J0D01*
G01*
X25556450Y-3372500D02*
X25966450Y-3782500D01*
X25966450Y-3372500D02*
X25556450Y-3782500D01*
X25966450Y-3577500D02*
G75*
G03X25966450Y-3577500I-205000J0D01*
G01*
X9405750Y-4798000D02*
X9815750Y-5208000D01*
X9815750Y-4798000D02*
X9405750Y-5208000D01*
X9815750Y-5003000D02*
G75*
G03X9815750Y-5003000I-205000J0D01*
G01*
X21756450Y-4560000D02*
X22166450Y-4970000D01*
X22166450Y-4560000D02*
X21756450Y-4970000D01*
X22166450Y-4765000D02*
G75*
G03X22166450Y-4765000I-205000J0D01*
G01*
X3705750Y-7173000D02*
X4115750Y-7583000D01*
X4115750Y-7173000D02*
X3705750Y-7583000D01*
X4115750Y-7378000D02*
G75*
G03X4115750Y-7378000I-205000J0D01*
G01*
X11305750Y-6935500D02*
X11715750Y-7345500D01*
X11715750Y-6935500D02*
X11305750Y-7345500D01*
X11715750Y-7140500D02*
G75*
G03X11715750Y-7140500I-205000J0D01*
G01*
X17955750Y-3135500D02*
X18365750Y-3545500D01*
X18365750Y-3135500D02*
X17955750Y-3545500D01*
X18365750Y-3340500D02*
G75*
G03X18365750Y-3340500I-205000J0D01*
G01*
X2750750Y-4318000D02*
X3170750Y-4738000D01*
X3170750Y-4318000D02*
X2750750Y-4738000D01*
X2960750Y-4318000D02*
X2960750Y-4738000D01*
X2750750Y-4528000D02*
X3170750Y-4528000D01*
X17528950Y-8704500D02*
X17948950Y-9124500D01*
X17948950Y-8704500D02*
X17528950Y-9124500D01*
X17738950Y-8704500D02*
X17738950Y-9124500D01*
X17528950Y-8914500D02*
X17948950Y-8914500D01*
X26499950Y-6216550D02*
X26919950Y-6636550D01*
X26919950Y-6216550D02*
X26499950Y-6636550D01*
X26709950Y-6216550D02*
X26709950Y-6636550D01*
X26499950Y-6426550D02*
X26919950Y-6426550D01*
X2750750Y-6218000D02*
X3170750Y-6638000D01*
X3170750Y-6218000D02*
X2750750Y-6638000D01*
X2960750Y-6218000D02*
X2960750Y-6638000D01*
X2750750Y-6428000D02*
X3170750Y-6428000D01*
X10347550Y-3966550D02*
X10767550Y-4386550D01*
X10767550Y-3966550D02*
X10347550Y-4386550D01*
X10557550Y-3966550D02*
X10557550Y-4386550D01*
X10347550Y-4176550D02*
X10767550Y-4176550D01*
X22185550Y-7943050D02*
X22605550Y-8363050D01*
X22605550Y-7943050D02*
X22185550Y-8363050D01*
X22395550Y-7943050D02*
X22395550Y-8363050D01*
X22185550Y-8153050D02*
X22605550Y-8153050D01*
X7066450Y-7942050D02*
X7486450Y-8362050D01*
X7486450Y-7942050D02*
X7066450Y-8362050D01*
X7276450Y-7942050D02*
X7276450Y-8362050D01*
X7066450Y-8152050D02*
X7486450Y-8152050D01*
X26499950Y-4316550D02*
X26919950Y-4736550D01*
X26919950Y-4316550D02*
X26499950Y-4736550D01*
X26709950Y-4316550D02*
X26709950Y-4736550D01*
X26499950Y-4526550D02*
X26919950Y-4526550D01*
X11723050Y-8703500D02*
X12143050Y-9123500D01*
X12143050Y-8703500D02*
X11723050Y-9123500D01*
X11933050Y-8703500D02*
X11933050Y-9123500D01*
X11723050Y-8913500D02*
X12143050Y-8913500D01*
X18904450Y-3967550D02*
X19324450Y-4387550D01*
X19324450Y-3967550D02*
X18904450Y-4387550D01*
X19114450Y-3967550D02*
X19114450Y-4387550D01*
X18904450Y-4177550D02*
X19324450Y-4177550D01*
D12*
X1345178Y-12239214D02*
X1345178Y-11939214D01*
X1416607Y-11939214D01*
X1459464Y-11953500D01*
X1488036Y-11982071D01*
X1502321Y-12010643D01*
X1516607Y-12067786D01*
X1516607Y-12110643D01*
X1502321Y-12167786D01*
X1488036Y-12196357D01*
X1459464Y-12224929D01*
X1416607Y-12239214D01*
X1345178Y-12239214D01*
X1645178Y-12239214D02*
X1645178Y-12039214D01*
X1645178Y-12096357D02*
X1659464Y-12067786D01*
X1673750Y-12053500D01*
X1702321Y-12039214D01*
X1730893Y-12039214D01*
X1830893Y-12239214D02*
X1830893Y-12039214D01*
X1830893Y-11939214D02*
X1816607Y-11953500D01*
X1830893Y-11967786D01*
X1845178Y-11953500D01*
X1830893Y-11939214D01*
X1830893Y-11967786D01*
X2016607Y-12239214D02*
X1988036Y-12224929D01*
X1973750Y-12196357D01*
X1973750Y-11939214D01*
X2173750Y-12239214D02*
X2145178Y-12224929D01*
X2130893Y-12196357D01*
X2130893Y-11939214D01*
X2516607Y-12239214D02*
X2516607Y-11939214D01*
X2616607Y-12153500D01*
X2716607Y-11939214D01*
X2716607Y-12239214D01*
X2988036Y-12239214D02*
X2988036Y-12082071D01*
X2973750Y-12053500D01*
X2945178Y-12039214D01*
X2888036Y-12039214D01*
X2859464Y-12053500D01*
X2988036Y-12224929D02*
X2959464Y-12239214D01*
X2888036Y-12239214D01*
X2859464Y-12224929D01*
X2845178Y-12196357D01*
X2845178Y-12167786D01*
X2859464Y-12139214D01*
X2888036Y-12124929D01*
X2959464Y-12124929D01*
X2988036Y-12110643D01*
X3130893Y-12039214D02*
X3130893Y-12339214D01*
X3130893Y-12053500D02*
X3159464Y-12039214D01*
X3216607Y-12039214D01*
X3245178Y-12053500D01*
X3259464Y-12067786D01*
X3273750Y-12096357D01*
X3273750Y-12182071D01*
X3259464Y-12210643D01*
X3245178Y-12224929D01*
X3216607Y-12239214D01*
X3159464Y-12239214D01*
X3130893Y-12224929D01*
X3402321Y-12210643D02*
X3416607Y-12224929D01*
X3402321Y-12239214D01*
X3388036Y-12224929D01*
X3402321Y-12210643D01*
X3402321Y-12239214D01*
X3402321Y-12053500D02*
X3416607Y-12067786D01*
X3402321Y-12082071D01*
X3388036Y-12067786D01*
X3402321Y-12053500D01*
X3402321Y-12082071D01*
X1028750Y-12718500D02*
X1058750Y-12748500D01*
X1058750Y-12718500D02*
X1028750Y-12748500D01*
X1402321Y-12569214D02*
X1430893Y-12569214D01*
X1459464Y-12583500D01*
X1473750Y-12597786D01*
X1488036Y-12626357D01*
X1502321Y-12683500D01*
X1502321Y-12754929D01*
X1488036Y-12812071D01*
X1473750Y-12840643D01*
X1459464Y-12854929D01*
X1430893Y-12869214D01*
X1402321Y-12869214D01*
X1373750Y-12854929D01*
X1359464Y-12840643D01*
X1345178Y-12812071D01*
X1330893Y-12754929D01*
X1330893Y-12683500D01*
X1345178Y-12626357D01*
X1359464Y-12597786D01*
X1373750Y-12583500D01*
X1402321Y-12569214D01*
X1630893Y-12840643D02*
X1645178Y-12854929D01*
X1630893Y-12869214D01*
X1616607Y-12854929D01*
X1630893Y-12840643D01*
X1630893Y-12869214D01*
X1745178Y-12569214D02*
X1930893Y-12569214D01*
X1830893Y-12683500D01*
X1873750Y-12683500D01*
X1902321Y-12697786D01*
X1916607Y-12712071D01*
X1930893Y-12740643D01*
X1930893Y-12812071D01*
X1916607Y-12840643D01*
X1902321Y-12854929D01*
X1873750Y-12869214D01*
X1788036Y-12869214D01*
X1759464Y-12854929D01*
X1745178Y-12840643D01*
X2116607Y-12569214D02*
X2145178Y-12569214D01*
X2173750Y-12583500D01*
X2188036Y-12597786D01*
X2202321Y-12626357D01*
X2216607Y-12683500D01*
X2216607Y-12754929D01*
X2202321Y-12812071D01*
X2188036Y-12840643D01*
X2173750Y-12854929D01*
X2145178Y-12869214D01*
X2116607Y-12869214D01*
X2088036Y-12854929D01*
X2073750Y-12840643D01*
X2059464Y-12812071D01*
X2045178Y-12754929D01*
X2045178Y-12683500D01*
X2059464Y-12626357D01*
X2073750Y-12597786D01*
X2088036Y-12583500D01*
X2116607Y-12569214D01*
X2345178Y-12869214D02*
X2345178Y-12669214D01*
X2345178Y-12697786D02*
X2359464Y-12683500D01*
X2388036Y-12669214D01*
X2430893Y-12669214D01*
X2459464Y-12683500D01*
X2473750Y-12712071D01*
X2473750Y-12869214D01*
X2473750Y-12712071D02*
X2488036Y-12683500D01*
X2516607Y-12669214D01*
X2559464Y-12669214D01*
X2588036Y-12683500D01*
X2602321Y-12712071D01*
X2602321Y-12869214D01*
X2745178Y-12869214D02*
X2745178Y-12669214D01*
X2745178Y-12697786D02*
X2759464Y-12683500D01*
X2788036Y-12669214D01*
X2830893Y-12669214D01*
X2859464Y-12683500D01*
X2873750Y-12712071D01*
X2873750Y-12869214D01*
X2873750Y-12712071D02*
X2888036Y-12683500D01*
X2916607Y-12669214D01*
X2959464Y-12669214D01*
X2988036Y-12683500D01*
X3002321Y-12712071D01*
X3002321Y-12869214D01*
X3588036Y-12554929D02*
X3330893Y-12940643D01*
X3973750Y-12569214D02*
X4002321Y-12569214D01*
X4030893Y-12583500D01*
X4045178Y-12597786D01*
X4059464Y-12626357D01*
X4073750Y-12683500D01*
X4073750Y-12754929D01*
X4059464Y-12812071D01*
X4045178Y-12840643D01*
X4030893Y-12854929D01*
X4002321Y-12869214D01*
X3973750Y-12869214D01*
X3945178Y-12854929D01*
X3930893Y-12840643D01*
X3916607Y-12812071D01*
X3902321Y-12754929D01*
X3902321Y-12683500D01*
X3916607Y-12626357D01*
X3930893Y-12597786D01*
X3945178Y-12583500D01*
X3973750Y-12569214D01*
X4202321Y-12840643D02*
X4216607Y-12854929D01*
X4202321Y-12869214D01*
X4188036Y-12854929D01*
X4202321Y-12840643D01*
X4202321Y-12869214D01*
X4402321Y-12569214D02*
X4430893Y-12569214D01*
X4459464Y-12583500D01*
X4473750Y-12597786D01*
X4488036Y-12626357D01*
X4502321Y-12683500D01*
X4502321Y-12754929D01*
X4488036Y-12812071D01*
X4473750Y-12840643D01*
X4459464Y-12854929D01*
X4430893Y-12869214D01*
X4402321Y-12869214D01*
X4373750Y-12854929D01*
X4359464Y-12840643D01*
X4345178Y-12812071D01*
X4330893Y-12754929D01*
X4330893Y-12683500D01*
X4345178Y-12626357D01*
X4359464Y-12597786D01*
X4373750Y-12583500D01*
X4402321Y-12569214D01*
X4788036Y-12869214D02*
X4616607Y-12869214D01*
X4702321Y-12869214D02*
X4702321Y-12569214D01*
X4673750Y-12612071D01*
X4645178Y-12640643D01*
X4616607Y-12654929D01*
X4902321Y-12597786D02*
X4916607Y-12583500D01*
X4945178Y-12569214D01*
X5016607Y-12569214D01*
X5045178Y-12583500D01*
X5059464Y-12597786D01*
X5073750Y-12626357D01*
X5073750Y-12654929D01*
X5059464Y-12697786D01*
X4888036Y-12869214D01*
X5073750Y-12869214D01*
X5188036Y-12569214D02*
X5188036Y-12626357D01*
X5302321Y-12569214D02*
X5302321Y-12626357D01*
X5745178Y-12983500D02*
X5730893Y-12969214D01*
X5702321Y-12926357D01*
X5688036Y-12897786D01*
X5673750Y-12854929D01*
X5659464Y-12783500D01*
X5659464Y-12726357D01*
X5673750Y-12654929D01*
X5688036Y-12612071D01*
X5702321Y-12583500D01*
X5730893Y-12540643D01*
X5745178Y-12526357D01*
X5830893Y-12569214D02*
X6030893Y-12569214D01*
X5902321Y-12869214D01*
X6130893Y-12597786D02*
X6145178Y-12583500D01*
X6173750Y-12569214D01*
X6245178Y-12569214D01*
X6273750Y-12583500D01*
X6288036Y-12597786D01*
X6302321Y-12626357D01*
X6302321Y-12654929D01*
X6288036Y-12697786D01*
X6116607Y-12869214D01*
X6302321Y-12869214D01*
X6659464Y-12869214D02*
X6659464Y-12569214D01*
X6788036Y-12869214D02*
X6788036Y-12712071D01*
X6773750Y-12683500D01*
X6745178Y-12669214D01*
X6702321Y-12669214D01*
X6673750Y-12683500D01*
X6659464Y-12697786D01*
X6973750Y-12869214D02*
X6945178Y-12854929D01*
X6930893Y-12840643D01*
X6916607Y-12812071D01*
X6916607Y-12726357D01*
X6930893Y-12697786D01*
X6945178Y-12683500D01*
X6973750Y-12669214D01*
X7016607Y-12669214D01*
X7045178Y-12683500D01*
X7059464Y-12697786D01*
X7073750Y-12726357D01*
X7073750Y-12812071D01*
X7059464Y-12840643D01*
X7045178Y-12854929D01*
X7016607Y-12869214D01*
X6973750Y-12869214D01*
X7245178Y-12869214D02*
X7216607Y-12854929D01*
X7202321Y-12826357D01*
X7202321Y-12569214D01*
X7473750Y-12854929D02*
X7445178Y-12869214D01*
X7388036Y-12869214D01*
X7359464Y-12854929D01*
X7345178Y-12826357D01*
X7345178Y-12712071D01*
X7359464Y-12683500D01*
X7388036Y-12669214D01*
X7445178Y-12669214D01*
X7473750Y-12683500D01*
X7488036Y-12712071D01*
X7488036Y-12740643D01*
X7345178Y-12769214D01*
X7602321Y-12854929D02*
X7630893Y-12869214D01*
X7688036Y-12869214D01*
X7716607Y-12854929D01*
X7730893Y-12826357D01*
X7730893Y-12812071D01*
X7716607Y-12783500D01*
X7688036Y-12769214D01*
X7645178Y-12769214D01*
X7616607Y-12754929D01*
X7602321Y-12726357D01*
X7602321Y-12712071D01*
X7616607Y-12683500D01*
X7645178Y-12669214D01*
X7688036Y-12669214D01*
X7716607Y-12683500D01*
X7830893Y-12983500D02*
X7845178Y-12969214D01*
X7873750Y-12926357D01*
X7888036Y-12897786D01*
X7902321Y-12854929D01*
X7916607Y-12783500D01*
X7916607Y-12726357D01*
X7902321Y-12654929D01*
X7888036Y-12612071D01*
X7873750Y-12583500D01*
X7845178Y-12540643D01*
X7830893Y-12526357D01*
X8373750Y-12983500D02*
X8359464Y-12969214D01*
X8330893Y-12926357D01*
X8316607Y-12897786D01*
X8302321Y-12854929D01*
X8288036Y-12783500D01*
X8288036Y-12726357D01*
X8302321Y-12654929D01*
X8316607Y-12612071D01*
X8330893Y-12583500D01*
X8359464Y-12540643D01*
X8373750Y-12526357D01*
X8488036Y-12669214D02*
X8488036Y-12869214D01*
X8488036Y-12697786D02*
X8502321Y-12683500D01*
X8530893Y-12669214D01*
X8573750Y-12669214D01*
X8602321Y-12683500D01*
X8616607Y-12712071D01*
X8616607Y-12869214D01*
X8802321Y-12869214D02*
X8773750Y-12854929D01*
X8759464Y-12840643D01*
X8745178Y-12812071D01*
X8745178Y-12726357D01*
X8759464Y-12697786D01*
X8773750Y-12683500D01*
X8802321Y-12669214D01*
X8845178Y-12669214D01*
X8873750Y-12683500D01*
X8888036Y-12697786D01*
X8902321Y-12726357D01*
X8902321Y-12812071D01*
X8888036Y-12840643D01*
X8873750Y-12854929D01*
X8845178Y-12869214D01*
X8802321Y-12869214D01*
X8988036Y-12669214D02*
X9102321Y-12669214D01*
X9030893Y-12569214D02*
X9030893Y-12826357D01*
X9045178Y-12854929D01*
X9073750Y-12869214D01*
X9102321Y-12869214D01*
X9430893Y-12669214D02*
X9430893Y-12969214D01*
X9430893Y-12683500D02*
X9459464Y-12669214D01*
X9516607Y-12669214D01*
X9545178Y-12683500D01*
X9559464Y-12697786D01*
X9573750Y-12726357D01*
X9573750Y-12812071D01*
X9559464Y-12840643D01*
X9545178Y-12854929D01*
X9516607Y-12869214D01*
X9459464Y-12869214D01*
X9430893Y-12854929D01*
X9745178Y-12869214D02*
X9716607Y-12854929D01*
X9702321Y-12826357D01*
X9702321Y-12569214D01*
X9988036Y-12869214D02*
X9988036Y-12712071D01*
X9973750Y-12683500D01*
X9945178Y-12669214D01*
X9888036Y-12669214D01*
X9859464Y-12683500D01*
X9988036Y-12854929D02*
X9959464Y-12869214D01*
X9888036Y-12869214D01*
X9859464Y-12854929D01*
X9845178Y-12826357D01*
X9845178Y-12797786D01*
X9859464Y-12769214D01*
X9888036Y-12754929D01*
X9959464Y-12754929D01*
X9988036Y-12740643D01*
X10088036Y-12669214D02*
X10202321Y-12669214D01*
X10130893Y-12569214D02*
X10130893Y-12826357D01*
X10145178Y-12854929D01*
X10173750Y-12869214D01*
X10202321Y-12869214D01*
X10416607Y-12854929D02*
X10388036Y-12869214D01*
X10330893Y-12869214D01*
X10302321Y-12854929D01*
X10288036Y-12826357D01*
X10288036Y-12712071D01*
X10302321Y-12683500D01*
X10330893Y-12669214D01*
X10388036Y-12669214D01*
X10416607Y-12683500D01*
X10430893Y-12712071D01*
X10430893Y-12740643D01*
X10288036Y-12769214D01*
X10688036Y-12869214D02*
X10688036Y-12569214D01*
X10688036Y-12854929D02*
X10659464Y-12869214D01*
X10602321Y-12869214D01*
X10573750Y-12854929D01*
X10559464Y-12840643D01*
X10545178Y-12812071D01*
X10545178Y-12726357D01*
X10559464Y-12697786D01*
X10573750Y-12683500D01*
X10602321Y-12669214D01*
X10659464Y-12669214D01*
X10688036Y-12683500D01*
X10802321Y-12983500D02*
X10816607Y-12969214D01*
X10845178Y-12926357D01*
X10859464Y-12897786D01*
X10873750Y-12854929D01*
X10888036Y-12783500D01*
X10888036Y-12726357D01*
X10873750Y-12654929D01*
X10859464Y-12612071D01*
X10845178Y-12583500D01*
X10816607Y-12540643D01*
X10802321Y-12526357D01*
X1058750Y-13129500D02*
G75*
G03X1058750Y-13129500I-60000J0D01*
G01*
X1502321Y-13265214D02*
X1330893Y-13265214D01*
X1416607Y-13265214D02*
X1416607Y-12965214D01*
X1388036Y-13008071D01*
X1359464Y-13036643D01*
X1330893Y-13050929D01*
X1630893Y-13236643D02*
X1645178Y-13250929D01*
X1630893Y-13265214D01*
X1616607Y-13250929D01*
X1630893Y-13236643D01*
X1630893Y-13265214D01*
X1759464Y-12993786D02*
X1773750Y-12979500D01*
X1802321Y-12965214D01*
X1873750Y-12965214D01*
X1902321Y-12979500D01*
X1916607Y-12993786D01*
X1930893Y-13022357D01*
X1930893Y-13050929D01*
X1916607Y-13093786D01*
X1745178Y-13265214D01*
X1930893Y-13265214D01*
X2116607Y-12965214D02*
X2145178Y-12965214D01*
X2173750Y-12979500D01*
X2188036Y-12993786D01*
X2202321Y-13022357D01*
X2216607Y-13079500D01*
X2216607Y-13150929D01*
X2202321Y-13208071D01*
X2188036Y-13236643D01*
X2173750Y-13250929D01*
X2145178Y-13265214D01*
X2116607Y-13265214D01*
X2088036Y-13250929D01*
X2073750Y-13236643D01*
X2059464Y-13208071D01*
X2045178Y-13150929D01*
X2045178Y-13079500D01*
X2059464Y-13022357D01*
X2073750Y-12993786D01*
X2088036Y-12979500D01*
X2116607Y-12965214D01*
X2345178Y-13265214D02*
X2345178Y-13065214D01*
X2345178Y-13093786D02*
X2359464Y-13079500D01*
X2388036Y-13065214D01*
X2430893Y-13065214D01*
X2459464Y-13079500D01*
X2473750Y-13108071D01*
X2473750Y-13265214D01*
X2473750Y-13108071D02*
X2488036Y-13079500D01*
X2516607Y-13065214D01*
X2559464Y-13065214D01*
X2588036Y-13079500D01*
X2602321Y-13108071D01*
X2602321Y-13265214D01*
X2745178Y-13265214D02*
X2745178Y-13065214D01*
X2745178Y-13093786D02*
X2759464Y-13079500D01*
X2788036Y-13065214D01*
X2830893Y-13065214D01*
X2859464Y-13079500D01*
X2873750Y-13108071D01*
X2873750Y-13265214D01*
X2873750Y-13108071D02*
X2888036Y-13079500D01*
X2916607Y-13065214D01*
X2959464Y-13065214D01*
X2988036Y-13079500D01*
X3002321Y-13108071D01*
X3002321Y-13265214D01*
X3588036Y-12950929D02*
X3330893Y-13336643D01*
X3973750Y-12965214D02*
X4002321Y-12965214D01*
X4030893Y-12979500D01*
X4045178Y-12993786D01*
X4059464Y-13022357D01*
X4073750Y-13079500D01*
X4073750Y-13150929D01*
X4059464Y-13208071D01*
X4045178Y-13236643D01*
X4030893Y-13250929D01*
X4002321Y-13265214D01*
X3973750Y-13265214D01*
X3945178Y-13250929D01*
X3930893Y-13236643D01*
X3916607Y-13208071D01*
X3902321Y-13150929D01*
X3902321Y-13079500D01*
X3916607Y-13022357D01*
X3930893Y-12993786D01*
X3945178Y-12979500D01*
X3973750Y-12965214D01*
X4202321Y-13236643D02*
X4216607Y-13250929D01*
X4202321Y-13265214D01*
X4188036Y-13250929D01*
X4202321Y-13236643D01*
X4202321Y-13265214D01*
X4402321Y-12965214D02*
X4430893Y-12965214D01*
X4459464Y-12979500D01*
X4473750Y-12993786D01*
X4488036Y-13022357D01*
X4502321Y-13079500D01*
X4502321Y-13150929D01*
X4488036Y-13208071D01*
X4473750Y-13236643D01*
X4459464Y-13250929D01*
X4430893Y-13265214D01*
X4402321Y-13265214D01*
X4373750Y-13250929D01*
X4359464Y-13236643D01*
X4345178Y-13208071D01*
X4330893Y-13150929D01*
X4330893Y-13079500D01*
X4345178Y-13022357D01*
X4359464Y-12993786D01*
X4373750Y-12979500D01*
X4402321Y-12965214D01*
X4759464Y-13065214D02*
X4759464Y-13265214D01*
X4688036Y-12950929D02*
X4616607Y-13165214D01*
X4802321Y-13165214D01*
X4888036Y-12965214D02*
X5088036Y-12965214D01*
X4959464Y-13265214D01*
X5188036Y-12965214D02*
X5188036Y-13022357D01*
X5302321Y-12965214D02*
X5302321Y-13022357D01*
X5745178Y-13379500D02*
X5730893Y-13365214D01*
X5702321Y-13322357D01*
X5688036Y-13293786D01*
X5673750Y-13250929D01*
X5659464Y-13179500D01*
X5659464Y-13122357D01*
X5673750Y-13050929D01*
X5688036Y-13008071D01*
X5702321Y-12979500D01*
X5730893Y-12936643D01*
X5745178Y-12922357D01*
X5988036Y-13065214D02*
X5988036Y-13265214D01*
X5916607Y-12950929D02*
X5845178Y-13165214D01*
X6030893Y-13165214D01*
X6373750Y-13265214D02*
X6373750Y-12965214D01*
X6502321Y-13265214D02*
X6502321Y-13108071D01*
X6488036Y-13079500D01*
X6459464Y-13065214D01*
X6416607Y-13065214D01*
X6388036Y-13079500D01*
X6373750Y-13093786D01*
X6688036Y-13265214D02*
X6659464Y-13250929D01*
X6645178Y-13236643D01*
X6630893Y-13208071D01*
X6630893Y-13122357D01*
X6645178Y-13093786D01*
X6659464Y-13079500D01*
X6688036Y-13065214D01*
X6730893Y-13065214D01*
X6759464Y-13079500D01*
X6773750Y-13093786D01*
X6788036Y-13122357D01*
X6788036Y-13208071D01*
X6773750Y-13236643D01*
X6759464Y-13250929D01*
X6730893Y-13265214D01*
X6688036Y-13265214D01*
X6959464Y-13265214D02*
X6930893Y-13250929D01*
X6916607Y-13222357D01*
X6916607Y-12965214D01*
X7188036Y-13250929D02*
X7159464Y-13265214D01*
X7102321Y-13265214D01*
X7073750Y-13250929D01*
X7059464Y-13222357D01*
X7059464Y-13108071D01*
X7073750Y-13079500D01*
X7102321Y-13065214D01*
X7159464Y-13065214D01*
X7188036Y-13079500D01*
X7202321Y-13108071D01*
X7202321Y-13136643D01*
X7059464Y-13165214D01*
X7316607Y-13250929D02*
X7345178Y-13265214D01*
X7402321Y-13265214D01*
X7430893Y-13250929D01*
X7445178Y-13222357D01*
X7445178Y-13208071D01*
X7430893Y-13179500D01*
X7402321Y-13165214D01*
X7359464Y-13165214D01*
X7330893Y-13150929D01*
X7316607Y-13122357D01*
X7316607Y-13108071D01*
X7330893Y-13079500D01*
X7359464Y-13065214D01*
X7402321Y-13065214D01*
X7430893Y-13079500D01*
X7545178Y-13379500D02*
X7559464Y-13365214D01*
X7588036Y-13322357D01*
X7602321Y-13293786D01*
X7616607Y-13250929D01*
X7630893Y-13179500D01*
X7630893Y-13122357D01*
X7616607Y-13050929D01*
X7602321Y-13008071D01*
X7588036Y-12979500D01*
X7559464Y-12936643D01*
X7545178Y-12922357D01*
X8088036Y-13379500D02*
X8073750Y-13365214D01*
X8045178Y-13322357D01*
X8030893Y-13293786D01*
X8016607Y-13250929D01*
X8002321Y-13179500D01*
X8002321Y-13122357D01*
X8016607Y-13050929D01*
X8030893Y-13008071D01*
X8045178Y-12979500D01*
X8073750Y-12936643D01*
X8088036Y-12922357D01*
X8202321Y-13065214D02*
X8202321Y-13265214D01*
X8202321Y-13093786D02*
X8216607Y-13079500D01*
X8245178Y-13065214D01*
X8288036Y-13065214D01*
X8316607Y-13079500D01*
X8330893Y-13108071D01*
X8330893Y-13265214D01*
X8516607Y-13265214D02*
X8488036Y-13250929D01*
X8473750Y-13236643D01*
X8459464Y-13208071D01*
X8459464Y-13122357D01*
X8473750Y-13093786D01*
X8488036Y-13079500D01*
X8516607Y-13065214D01*
X8559464Y-13065214D01*
X8588036Y-13079500D01*
X8602321Y-13093786D01*
X8616607Y-13122357D01*
X8616607Y-13208071D01*
X8602321Y-13236643D01*
X8588036Y-13250929D01*
X8559464Y-13265214D01*
X8516607Y-13265214D01*
X8702321Y-13065214D02*
X8816607Y-13065214D01*
X8745178Y-12965214D02*
X8745178Y-13222357D01*
X8759464Y-13250929D01*
X8788036Y-13265214D01*
X8816607Y-13265214D01*
X9145178Y-13065214D02*
X9145178Y-13365214D01*
X9145178Y-13079500D02*
X9173750Y-13065214D01*
X9230893Y-13065214D01*
X9259464Y-13079500D01*
X9273750Y-13093786D01*
X9288036Y-13122357D01*
X9288036Y-13208071D01*
X9273750Y-13236643D01*
X9259464Y-13250929D01*
X9230893Y-13265214D01*
X9173750Y-13265214D01*
X9145178Y-13250929D01*
X9459464Y-13265214D02*
X9430893Y-13250929D01*
X9416607Y-13222357D01*
X9416607Y-12965214D01*
X9702321Y-13265214D02*
X9702321Y-13108071D01*
X9688036Y-13079500D01*
X9659464Y-13065214D01*
X9602321Y-13065214D01*
X9573750Y-13079500D01*
X9702321Y-13250929D02*
X9673750Y-13265214D01*
X9602321Y-13265214D01*
X9573750Y-13250929D01*
X9559464Y-13222357D01*
X9559464Y-13193786D01*
X9573750Y-13165214D01*
X9602321Y-13150929D01*
X9673750Y-13150929D01*
X9702321Y-13136643D01*
X9802321Y-13065214D02*
X9916607Y-13065214D01*
X9845178Y-12965214D02*
X9845178Y-13222357D01*
X9859464Y-13250929D01*
X9888036Y-13265214D01*
X9916607Y-13265214D01*
X10130893Y-13250929D02*
X10102321Y-13265214D01*
X10045178Y-13265214D01*
X10016607Y-13250929D01*
X10002321Y-13222357D01*
X10002321Y-13108071D01*
X10016607Y-13079500D01*
X10045178Y-13065214D01*
X10102321Y-13065214D01*
X10130893Y-13079500D01*
X10145178Y-13108071D01*
X10145178Y-13136643D01*
X10002321Y-13165214D01*
X10402321Y-13265214D02*
X10402321Y-12965214D01*
X10402321Y-13250929D02*
X10373750Y-13265214D01*
X10316607Y-13265214D01*
X10288036Y-13250929D01*
X10273750Y-13236643D01*
X10259464Y-13208071D01*
X10259464Y-13122357D01*
X10273750Y-13093786D01*
X10288036Y-13079500D01*
X10316607Y-13065214D01*
X10373750Y-13065214D01*
X10402321Y-13079500D01*
X10516607Y-13379500D02*
X10530893Y-13365214D01*
X10559464Y-13322357D01*
X10573750Y-13293786D01*
X10588036Y-13250929D01*
X10602321Y-13179500D01*
X10602321Y-13122357D01*
X10588036Y-13050929D01*
X10573750Y-13008071D01*
X10559464Y-12979500D01*
X10530893Y-12936643D01*
X10516607Y-12922357D01*
X963750Y-13430500D02*
X963750Y-13620500D01*
X868750Y-13525500D02*
X1058750Y-13525500D01*
X1502321Y-13661214D02*
X1330893Y-13661214D01*
X1416607Y-13661214D02*
X1416607Y-13361214D01*
X1388036Y-13404071D01*
X1359464Y-13432643D01*
X1330893Y-13446929D01*
X1630893Y-13632643D02*
X1645178Y-13646929D01*
X1630893Y-13661214D01*
X1616607Y-13646929D01*
X1630893Y-13632643D01*
X1630893Y-13661214D01*
X1788036Y-13661214D02*
X1845178Y-13661214D01*
X1873750Y-13646929D01*
X1888036Y-13632643D01*
X1916607Y-13589786D01*
X1930893Y-13532643D01*
X1930893Y-13418357D01*
X1916607Y-13389786D01*
X1902321Y-13375500D01*
X1873750Y-13361214D01*
X1816607Y-13361214D01*
X1788036Y-13375500D01*
X1773750Y-13389786D01*
X1759464Y-13418357D01*
X1759464Y-13489786D01*
X1773750Y-13518357D01*
X1788036Y-13532643D01*
X1816607Y-13546929D01*
X1873750Y-13546929D01*
X1902321Y-13532643D01*
X1916607Y-13518357D01*
X1930893Y-13489786D01*
X2116607Y-13361214D02*
X2145178Y-13361214D01*
X2173750Y-13375500D01*
X2188036Y-13389786D01*
X2202321Y-13418357D01*
X2216607Y-13475500D01*
X2216607Y-13546929D01*
X2202321Y-13604071D01*
X2188036Y-13632643D01*
X2173750Y-13646929D01*
X2145178Y-13661214D01*
X2116607Y-13661214D01*
X2088036Y-13646929D01*
X2073750Y-13632643D01*
X2059464Y-13604071D01*
X2045178Y-13546929D01*
X2045178Y-13475500D01*
X2059464Y-13418357D01*
X2073750Y-13389786D01*
X2088036Y-13375500D01*
X2116607Y-13361214D01*
X2345178Y-13661214D02*
X2345178Y-13461214D01*
X2345178Y-13489786D02*
X2359464Y-13475500D01*
X2388036Y-13461214D01*
X2430893Y-13461214D01*
X2459464Y-13475500D01*
X2473750Y-13504071D01*
X2473750Y-13661214D01*
X2473750Y-13504071D02*
X2488036Y-13475500D01*
X2516607Y-13461214D01*
X2559464Y-13461214D01*
X2588036Y-13475500D01*
X2602321Y-13504071D01*
X2602321Y-13661214D01*
X2745178Y-13661214D02*
X2745178Y-13461214D01*
X2745178Y-13489786D02*
X2759464Y-13475500D01*
X2788036Y-13461214D01*
X2830893Y-13461214D01*
X2859464Y-13475500D01*
X2873750Y-13504071D01*
X2873750Y-13661214D01*
X2873750Y-13504071D02*
X2888036Y-13475500D01*
X2916607Y-13461214D01*
X2959464Y-13461214D01*
X2988036Y-13475500D01*
X3002321Y-13504071D01*
X3002321Y-13661214D01*
X3588036Y-13346929D02*
X3330893Y-13732643D01*
X3973750Y-13361214D02*
X4002321Y-13361214D01*
X4030893Y-13375500D01*
X4045178Y-13389786D01*
X4059464Y-13418357D01*
X4073750Y-13475500D01*
X4073750Y-13546929D01*
X4059464Y-13604071D01*
X4045178Y-13632643D01*
X4030893Y-13646929D01*
X4002321Y-13661214D01*
X3973750Y-13661214D01*
X3945178Y-13646929D01*
X3930893Y-13632643D01*
X3916607Y-13604071D01*
X3902321Y-13546929D01*
X3902321Y-13475500D01*
X3916607Y-13418357D01*
X3930893Y-13389786D01*
X3945178Y-13375500D01*
X3973750Y-13361214D01*
X4202321Y-13632643D02*
X4216607Y-13646929D01*
X4202321Y-13661214D01*
X4188036Y-13646929D01*
X4202321Y-13632643D01*
X4202321Y-13661214D01*
X4402321Y-13361214D02*
X4430893Y-13361214D01*
X4459464Y-13375500D01*
X4473750Y-13389786D01*
X4488036Y-13418357D01*
X4502321Y-13475500D01*
X4502321Y-13546929D01*
X4488036Y-13604071D01*
X4473750Y-13632643D01*
X4459464Y-13646929D01*
X4430893Y-13661214D01*
X4402321Y-13661214D01*
X4373750Y-13646929D01*
X4359464Y-13632643D01*
X4345178Y-13604071D01*
X4330893Y-13546929D01*
X4330893Y-13475500D01*
X4345178Y-13418357D01*
X4359464Y-13389786D01*
X4373750Y-13375500D01*
X4402321Y-13361214D01*
X4602321Y-13361214D02*
X4802321Y-13361214D01*
X4673750Y-13661214D01*
X5059464Y-13361214D02*
X4916607Y-13361214D01*
X4902321Y-13504071D01*
X4916607Y-13489786D01*
X4945178Y-13475500D01*
X5016607Y-13475500D01*
X5045178Y-13489786D01*
X5059464Y-13504071D01*
X5073750Y-13532643D01*
X5073750Y-13604071D01*
X5059464Y-13632643D01*
X5045178Y-13646929D01*
X5016607Y-13661214D01*
X4945178Y-13661214D01*
X4916607Y-13646929D01*
X4902321Y-13632643D01*
X5188036Y-13361214D02*
X5188036Y-13418357D01*
X5302321Y-13361214D02*
X5302321Y-13418357D01*
X5745178Y-13775500D02*
X5730893Y-13761214D01*
X5702321Y-13718357D01*
X5688036Y-13689786D01*
X5673750Y-13646929D01*
X5659464Y-13575500D01*
X5659464Y-13518357D01*
X5673750Y-13446929D01*
X5688036Y-13404071D01*
X5702321Y-13375500D01*
X5730893Y-13332643D01*
X5745178Y-13318357D01*
X5902321Y-13489786D02*
X5873750Y-13475500D01*
X5859464Y-13461214D01*
X5845178Y-13432643D01*
X5845178Y-13418357D01*
X5859464Y-13389786D01*
X5873750Y-13375500D01*
X5902321Y-13361214D01*
X5959464Y-13361214D01*
X5988036Y-13375500D01*
X6002321Y-13389786D01*
X6016607Y-13418357D01*
X6016607Y-13432643D01*
X6002321Y-13461214D01*
X5988036Y-13475500D01*
X5959464Y-13489786D01*
X5902321Y-13489786D01*
X5873750Y-13504071D01*
X5859464Y-13518357D01*
X5845178Y-13546929D01*
X5845178Y-13604071D01*
X5859464Y-13632643D01*
X5873750Y-13646929D01*
X5902321Y-13661214D01*
X5959464Y-13661214D01*
X5988036Y-13646929D01*
X6002321Y-13632643D01*
X6016607Y-13604071D01*
X6016607Y-13546929D01*
X6002321Y-13518357D01*
X5988036Y-13504071D01*
X5959464Y-13489786D01*
X6273750Y-13461214D02*
X6273750Y-13661214D01*
X6202321Y-13346929D02*
X6130893Y-13561214D01*
X6316607Y-13561214D01*
X6659464Y-13661214D02*
X6659464Y-13361214D01*
X6788036Y-13661214D02*
X6788036Y-13504071D01*
X6773750Y-13475500D01*
X6745178Y-13461214D01*
X6702321Y-13461214D01*
X6673750Y-13475500D01*
X6659464Y-13489786D01*
X6973750Y-13661214D02*
X6945178Y-13646929D01*
X6930893Y-13632643D01*
X6916607Y-13604071D01*
X6916607Y-13518357D01*
X6930893Y-13489786D01*
X6945178Y-13475500D01*
X6973750Y-13461214D01*
X7016607Y-13461214D01*
X7045178Y-13475500D01*
X7059464Y-13489786D01*
X7073750Y-13518357D01*
X7073750Y-13604071D01*
X7059464Y-13632643D01*
X7045178Y-13646929D01*
X7016607Y-13661214D01*
X6973750Y-13661214D01*
X7245178Y-13661214D02*
X7216607Y-13646929D01*
X7202321Y-13618357D01*
X7202321Y-13361214D01*
X7473750Y-13646929D02*
X7445178Y-13661214D01*
X7388036Y-13661214D01*
X7359464Y-13646929D01*
X7345178Y-13618357D01*
X7345178Y-13504071D01*
X7359464Y-13475500D01*
X7388036Y-13461214D01*
X7445178Y-13461214D01*
X7473750Y-13475500D01*
X7488036Y-13504071D01*
X7488036Y-13532643D01*
X7345178Y-13561214D01*
X7602321Y-13646929D02*
X7630893Y-13661214D01*
X7688036Y-13661214D01*
X7716607Y-13646929D01*
X7730893Y-13618357D01*
X7730893Y-13604071D01*
X7716607Y-13575500D01*
X7688036Y-13561214D01*
X7645178Y-13561214D01*
X7616607Y-13546929D01*
X7602321Y-13518357D01*
X7602321Y-13504071D01*
X7616607Y-13475500D01*
X7645178Y-13461214D01*
X7688036Y-13461214D01*
X7716607Y-13475500D01*
X7830893Y-13775500D02*
X7845178Y-13761214D01*
X7873750Y-13718357D01*
X7888036Y-13689786D01*
X7902321Y-13646929D01*
X7916607Y-13575500D01*
X7916607Y-13518357D01*
X7902321Y-13446929D01*
X7888036Y-13404071D01*
X7873750Y-13375500D01*
X7845178Y-13332643D01*
X7830893Y-13318357D01*
X8373750Y-13775500D02*
X8359464Y-13761214D01*
X8330893Y-13718357D01*
X8316607Y-13689786D01*
X8302321Y-13646929D01*
X8288036Y-13575500D01*
X8288036Y-13518357D01*
X8302321Y-13446929D01*
X8316607Y-13404071D01*
X8330893Y-13375500D01*
X8359464Y-13332643D01*
X8373750Y-13318357D01*
X8488036Y-13461214D02*
X8488036Y-13661214D01*
X8488036Y-13489786D02*
X8502321Y-13475500D01*
X8530893Y-13461214D01*
X8573750Y-13461214D01*
X8602321Y-13475500D01*
X8616607Y-13504071D01*
X8616607Y-13661214D01*
X8802321Y-13661214D02*
X8773750Y-13646929D01*
X8759464Y-13632643D01*
X8745178Y-13604071D01*
X8745178Y-13518357D01*
X8759464Y-13489786D01*
X8773750Y-13475500D01*
X8802321Y-13461214D01*
X8845178Y-13461214D01*
X8873750Y-13475500D01*
X8888036Y-13489786D01*
X8902321Y-13518357D01*
X8902321Y-13604071D01*
X8888036Y-13632643D01*
X8873750Y-13646929D01*
X8845178Y-13661214D01*
X8802321Y-13661214D01*
X8988036Y-13461214D02*
X9102321Y-13461214D01*
X9030893Y-13361214D02*
X9030893Y-13618357D01*
X9045178Y-13646929D01*
X9073750Y-13661214D01*
X9102321Y-13661214D01*
X9430893Y-13461214D02*
X9430893Y-13761214D01*
X9430893Y-13475500D02*
X9459464Y-13461214D01*
X9516607Y-13461214D01*
X9545178Y-13475500D01*
X9559464Y-13489786D01*
X9573750Y-13518357D01*
X9573750Y-13604071D01*
X9559464Y-13632643D01*
X9545178Y-13646929D01*
X9516607Y-13661214D01*
X9459464Y-13661214D01*
X9430893Y-13646929D01*
X9745178Y-13661214D02*
X9716607Y-13646929D01*
X9702321Y-13618357D01*
X9702321Y-13361214D01*
X9988036Y-13661214D02*
X9988036Y-13504071D01*
X9973750Y-13475500D01*
X9945178Y-13461214D01*
X9888036Y-13461214D01*
X9859464Y-13475500D01*
X9988036Y-13646929D02*
X9959464Y-13661214D01*
X9888036Y-13661214D01*
X9859464Y-13646929D01*
X9845178Y-13618357D01*
X9845178Y-13589786D01*
X9859464Y-13561214D01*
X9888036Y-13546929D01*
X9959464Y-13546929D01*
X9988036Y-13532643D01*
X10088036Y-13461214D02*
X10202321Y-13461214D01*
X10130893Y-13361214D02*
X10130893Y-13618357D01*
X10145178Y-13646929D01*
X10173750Y-13661214D01*
X10202321Y-13661214D01*
X10416607Y-13646929D02*
X10388036Y-13661214D01*
X10330893Y-13661214D01*
X10302321Y-13646929D01*
X10288036Y-13618357D01*
X10288036Y-13504071D01*
X10302321Y-13475500D01*
X10330893Y-13461214D01*
X10388036Y-13461214D01*
X10416607Y-13475500D01*
X10430893Y-13504071D01*
X10430893Y-13532643D01*
X10288036Y-13561214D01*
X10688036Y-13661214D02*
X10688036Y-13361214D01*
X10688036Y-13646929D02*
X10659464Y-13661214D01*
X10602321Y-13661214D01*
X10573750Y-13646929D01*
X10559464Y-13632643D01*
X10545178Y-13604071D01*
X10545178Y-13518357D01*
X10559464Y-13489786D01*
X10573750Y-13475500D01*
X10602321Y-13461214D01*
X10659464Y-13461214D01*
X10688036Y-13475500D01*
X10802321Y-13775500D02*
X10816607Y-13761214D01*
X10845178Y-13718357D01*
X10859464Y-13689786D01*
X10873750Y-13646929D01*
X10888036Y-13575500D01*
X10888036Y-13518357D01*
X10873750Y-13446929D01*
X10859464Y-13404071D01*
X10845178Y-13375500D01*
X10816607Y-13332643D01*
X10802321Y-13318357D01*
X1026532Y-13999283D02*
X1026532Y-13843718D01*
X870967Y-13843718D01*
X870967Y-13999283D01*
X1026532Y-13999283D01*
X1330893Y-13785786D02*
X1345178Y-13771500D01*
X1373750Y-13757214D01*
X1445178Y-13757214D01*
X1473750Y-13771500D01*
X1488036Y-13785786D01*
X1502321Y-13814357D01*
X1502321Y-13842929D01*
X1488036Y-13885786D01*
X1316607Y-14057214D01*
X1502321Y-14057214D01*
X1630893Y-14028643D02*
X1645178Y-14042929D01*
X1630893Y-14057214D01*
X1616607Y-14042929D01*
X1630893Y-14028643D01*
X1630893Y-14057214D01*
X1759464Y-13785786D02*
X1773750Y-13771500D01*
X1802321Y-13757214D01*
X1873750Y-13757214D01*
X1902321Y-13771500D01*
X1916607Y-13785786D01*
X1930893Y-13814357D01*
X1930893Y-13842929D01*
X1916607Y-13885786D01*
X1745178Y-14057214D01*
X1930893Y-14057214D01*
X2116607Y-13757214D02*
X2145178Y-13757214D01*
X2173750Y-13771500D01*
X2188036Y-13785786D01*
X2202321Y-13814357D01*
X2216607Y-13871500D01*
X2216607Y-13942929D01*
X2202321Y-14000071D01*
X2188036Y-14028643D01*
X2173750Y-14042929D01*
X2145178Y-14057214D01*
X2116607Y-14057214D01*
X2088036Y-14042929D01*
X2073750Y-14028643D01*
X2059464Y-14000071D01*
X2045178Y-13942929D01*
X2045178Y-13871500D01*
X2059464Y-13814357D01*
X2073750Y-13785786D01*
X2088036Y-13771500D01*
X2116607Y-13757214D01*
X2345178Y-14057214D02*
X2345178Y-13857214D01*
X2345178Y-13885786D02*
X2359464Y-13871500D01*
X2388036Y-13857214D01*
X2430893Y-13857214D01*
X2459464Y-13871500D01*
X2473750Y-13900071D01*
X2473750Y-14057214D01*
X2473750Y-13900071D02*
X2488036Y-13871500D01*
X2516607Y-13857214D01*
X2559464Y-13857214D01*
X2588036Y-13871500D01*
X2602321Y-13900071D01*
X2602321Y-14057214D01*
X2745178Y-14057214D02*
X2745178Y-13857214D01*
X2745178Y-13885786D02*
X2759464Y-13871500D01*
X2788036Y-13857214D01*
X2830893Y-13857214D01*
X2859464Y-13871500D01*
X2873750Y-13900071D01*
X2873750Y-14057214D01*
X2873750Y-13900071D02*
X2888036Y-13871500D01*
X2916607Y-13857214D01*
X2959464Y-13857214D01*
X2988036Y-13871500D01*
X3002321Y-13900071D01*
X3002321Y-14057214D01*
X3588036Y-13742929D02*
X3330893Y-14128643D01*
X3973750Y-13757214D02*
X4002321Y-13757214D01*
X4030893Y-13771500D01*
X4045178Y-13785786D01*
X4059464Y-13814357D01*
X4073750Y-13871500D01*
X4073750Y-13942929D01*
X4059464Y-14000071D01*
X4045178Y-14028643D01*
X4030893Y-14042929D01*
X4002321Y-14057214D01*
X3973750Y-14057214D01*
X3945178Y-14042929D01*
X3930893Y-14028643D01*
X3916607Y-14000071D01*
X3902321Y-13942929D01*
X3902321Y-13871500D01*
X3916607Y-13814357D01*
X3930893Y-13785786D01*
X3945178Y-13771500D01*
X3973750Y-13757214D01*
X4202321Y-14028643D02*
X4216607Y-14042929D01*
X4202321Y-14057214D01*
X4188036Y-14042929D01*
X4202321Y-14028643D01*
X4202321Y-14057214D01*
X4402321Y-13757214D02*
X4430893Y-13757214D01*
X4459464Y-13771500D01*
X4473750Y-13785786D01*
X4488036Y-13814357D01*
X4502321Y-13871500D01*
X4502321Y-13942929D01*
X4488036Y-14000071D01*
X4473750Y-14028643D01*
X4459464Y-14042929D01*
X4430893Y-14057214D01*
X4402321Y-14057214D01*
X4373750Y-14042929D01*
X4359464Y-14028643D01*
X4345178Y-14000071D01*
X4330893Y-13942929D01*
X4330893Y-13871500D01*
X4345178Y-13814357D01*
X4359464Y-13785786D01*
X4373750Y-13771500D01*
X4402321Y-13757214D01*
X4673750Y-13885786D02*
X4645178Y-13871500D01*
X4630893Y-13857214D01*
X4616607Y-13828643D01*
X4616607Y-13814357D01*
X4630893Y-13785786D01*
X4645178Y-13771500D01*
X4673750Y-13757214D01*
X4730893Y-13757214D01*
X4759464Y-13771500D01*
X4773750Y-13785786D01*
X4788036Y-13814357D01*
X4788036Y-13828643D01*
X4773750Y-13857214D01*
X4759464Y-13871500D01*
X4730893Y-13885786D01*
X4673750Y-13885786D01*
X4645178Y-13900071D01*
X4630893Y-13914357D01*
X4616607Y-13942929D01*
X4616607Y-14000071D01*
X4630893Y-14028643D01*
X4645178Y-14042929D01*
X4673750Y-14057214D01*
X4730893Y-14057214D01*
X4759464Y-14042929D01*
X4773750Y-14028643D01*
X4788036Y-14000071D01*
X4788036Y-13942929D01*
X4773750Y-13914357D01*
X4759464Y-13900071D01*
X4730893Y-13885786D01*
X4888036Y-13757214D02*
X5088036Y-13757214D01*
X4959464Y-14057214D01*
X5188036Y-13757214D02*
X5188036Y-13814357D01*
X5302321Y-13757214D02*
X5302321Y-13814357D01*
X5745178Y-14171500D02*
X5730893Y-14157214D01*
X5702321Y-14114357D01*
X5688036Y-14085786D01*
X5673750Y-14042929D01*
X5659464Y-13971500D01*
X5659464Y-13914357D01*
X5673750Y-13842929D01*
X5688036Y-13800071D01*
X5702321Y-13771500D01*
X5730893Y-13728643D01*
X5745178Y-13714357D01*
X5988036Y-13857214D02*
X5988036Y-14057214D01*
X5916607Y-13742929D02*
X5845178Y-13957214D01*
X6030893Y-13957214D01*
X6373750Y-14057214D02*
X6373750Y-13757214D01*
X6502321Y-14057214D02*
X6502321Y-13900071D01*
X6488036Y-13871500D01*
X6459464Y-13857214D01*
X6416607Y-13857214D01*
X6388036Y-13871500D01*
X6373750Y-13885786D01*
X6688036Y-14057214D02*
X6659464Y-14042929D01*
X6645178Y-14028643D01*
X6630893Y-14000071D01*
X6630893Y-13914357D01*
X6645178Y-13885786D01*
X6659464Y-13871500D01*
X6688036Y-13857214D01*
X6730893Y-13857214D01*
X6759464Y-13871500D01*
X6773750Y-13885786D01*
X6788036Y-13914357D01*
X6788036Y-14000071D01*
X6773750Y-14028643D01*
X6759464Y-14042929D01*
X6730893Y-14057214D01*
X6688036Y-14057214D01*
X6959464Y-14057214D02*
X6930893Y-14042929D01*
X6916607Y-14014357D01*
X6916607Y-13757214D01*
X7188036Y-14042929D02*
X7159464Y-14057214D01*
X7102321Y-14057214D01*
X7073750Y-14042929D01*
X7059464Y-14014357D01*
X7059464Y-13900071D01*
X7073750Y-13871500D01*
X7102321Y-13857214D01*
X7159464Y-13857214D01*
X7188036Y-13871500D01*
X7202321Y-13900071D01*
X7202321Y-13928643D01*
X7059464Y-13957214D01*
X7316607Y-14042929D02*
X7345178Y-14057214D01*
X7402321Y-14057214D01*
X7430893Y-14042929D01*
X7445178Y-14014357D01*
X7445178Y-14000071D01*
X7430893Y-13971500D01*
X7402321Y-13957214D01*
X7359464Y-13957214D01*
X7330893Y-13942929D01*
X7316607Y-13914357D01*
X7316607Y-13900071D01*
X7330893Y-13871500D01*
X7359464Y-13857214D01*
X7402321Y-13857214D01*
X7430893Y-13871500D01*
X7545178Y-14171500D02*
X7559464Y-14157214D01*
X7588036Y-14114357D01*
X7602321Y-14085786D01*
X7616607Y-14042929D01*
X7630893Y-13971500D01*
X7630893Y-13914357D01*
X7616607Y-13842929D01*
X7602321Y-13800071D01*
X7588036Y-13771500D01*
X7559464Y-13728643D01*
X7545178Y-13714357D01*
X8088036Y-14171500D02*
X8073750Y-14157214D01*
X8045178Y-14114357D01*
X8030893Y-14085786D01*
X8016607Y-14042929D01*
X8002321Y-13971500D01*
X8002321Y-13914357D01*
X8016607Y-13842929D01*
X8030893Y-13800071D01*
X8045178Y-13771500D01*
X8073750Y-13728643D01*
X8088036Y-13714357D01*
X8202321Y-13857214D02*
X8202321Y-14057214D01*
X8202321Y-13885786D02*
X8216607Y-13871500D01*
X8245178Y-13857214D01*
X8288036Y-13857214D01*
X8316607Y-13871500D01*
X8330893Y-13900071D01*
X8330893Y-14057214D01*
X8516607Y-14057214D02*
X8488036Y-14042929D01*
X8473750Y-14028643D01*
X8459464Y-14000071D01*
X8459464Y-13914357D01*
X8473750Y-13885786D01*
X8488036Y-13871500D01*
X8516607Y-13857214D01*
X8559464Y-13857214D01*
X8588036Y-13871500D01*
X8602321Y-13885786D01*
X8616607Y-13914357D01*
X8616607Y-14000071D01*
X8602321Y-14028643D01*
X8588036Y-14042929D01*
X8559464Y-14057214D01*
X8516607Y-14057214D01*
X8702321Y-13857214D02*
X8816607Y-13857214D01*
X8745178Y-13757214D02*
X8745178Y-14014357D01*
X8759464Y-14042929D01*
X8788036Y-14057214D01*
X8816607Y-14057214D01*
X9145178Y-13857214D02*
X9145178Y-14157214D01*
X9145178Y-13871500D02*
X9173750Y-13857214D01*
X9230893Y-13857214D01*
X9259464Y-13871500D01*
X9273750Y-13885786D01*
X9288036Y-13914357D01*
X9288036Y-14000071D01*
X9273750Y-14028643D01*
X9259464Y-14042929D01*
X9230893Y-14057214D01*
X9173750Y-14057214D01*
X9145178Y-14042929D01*
X9459464Y-14057214D02*
X9430893Y-14042929D01*
X9416607Y-14014357D01*
X9416607Y-13757214D01*
X9702321Y-14057214D02*
X9702321Y-13900071D01*
X9688036Y-13871500D01*
X9659464Y-13857214D01*
X9602321Y-13857214D01*
X9573750Y-13871500D01*
X9702321Y-14042929D02*
X9673750Y-14057214D01*
X9602321Y-14057214D01*
X9573750Y-14042929D01*
X9559464Y-14014357D01*
X9559464Y-13985786D01*
X9573750Y-13957214D01*
X9602321Y-13942929D01*
X9673750Y-13942929D01*
X9702321Y-13928643D01*
X9802321Y-13857214D02*
X9916607Y-13857214D01*
X9845178Y-13757214D02*
X9845178Y-14014357D01*
X9859464Y-14042929D01*
X9888036Y-14057214D01*
X9916607Y-14057214D01*
X10130893Y-14042929D02*
X10102321Y-14057214D01*
X10045178Y-14057214D01*
X10016607Y-14042929D01*
X10002321Y-14014357D01*
X10002321Y-13900071D01*
X10016607Y-13871500D01*
X10045178Y-13857214D01*
X10102321Y-13857214D01*
X10130893Y-13871500D01*
X10145178Y-13900071D01*
X10145178Y-13928643D01*
X10002321Y-13957214D01*
X10402321Y-14057214D02*
X10402321Y-13757214D01*
X10402321Y-14042929D02*
X10373750Y-14057214D01*
X10316607Y-14057214D01*
X10288036Y-14042929D01*
X10273750Y-14028643D01*
X10259464Y-14000071D01*
X10259464Y-13914357D01*
X10273750Y-13885786D01*
X10288036Y-13871500D01*
X10316607Y-13857214D01*
X10373750Y-13857214D01*
X10402321Y-13871500D01*
X10516607Y-14171500D02*
X10530893Y-14157214D01*
X10559464Y-14114357D01*
X10573750Y-14085786D01*
X10588036Y-14042929D01*
X10602321Y-13971500D01*
X10602321Y-13914357D01*
X10588036Y-13842929D01*
X10573750Y-13800071D01*
X10559464Y-13771500D01*
X10530893Y-13728643D01*
X10516607Y-13714357D01*
X908750Y-14467500D02*
X1058750Y-14317500D01*
X908750Y-14167500D01*
X758750Y-14317500D01*
X908750Y-14467500D01*
X1316607Y-14153214D02*
X1502321Y-14153214D01*
X1402321Y-14267500D01*
X1445178Y-14267500D01*
X1473750Y-14281786D01*
X1488036Y-14296071D01*
X1502321Y-14324643D01*
X1502321Y-14396071D01*
X1488036Y-14424643D01*
X1473750Y-14438929D01*
X1445178Y-14453214D01*
X1359464Y-14453214D01*
X1330893Y-14438929D01*
X1316607Y-14424643D01*
X1630893Y-14424643D02*
X1645178Y-14438929D01*
X1630893Y-14453214D01*
X1616607Y-14438929D01*
X1630893Y-14424643D01*
X1630893Y-14453214D01*
X1830893Y-14153214D02*
X1859464Y-14153214D01*
X1888036Y-14167500D01*
X1902321Y-14181786D01*
X1916607Y-14210357D01*
X1930893Y-14267500D01*
X1930893Y-14338929D01*
X1916607Y-14396071D01*
X1902321Y-14424643D01*
X1888036Y-14438929D01*
X1859464Y-14453214D01*
X1830893Y-14453214D01*
X1802321Y-14438929D01*
X1788036Y-14424643D01*
X1773750Y-14396071D01*
X1759464Y-14338929D01*
X1759464Y-14267500D01*
X1773750Y-14210357D01*
X1788036Y-14181786D01*
X1802321Y-14167500D01*
X1830893Y-14153214D01*
X2116607Y-14153214D02*
X2145178Y-14153214D01*
X2173750Y-14167500D01*
X2188036Y-14181786D01*
X2202321Y-14210357D01*
X2216607Y-14267500D01*
X2216607Y-14338929D01*
X2202321Y-14396071D01*
X2188036Y-14424643D01*
X2173750Y-14438929D01*
X2145178Y-14453214D01*
X2116607Y-14453214D01*
X2088036Y-14438929D01*
X2073750Y-14424643D01*
X2059464Y-14396071D01*
X2045178Y-14338929D01*
X2045178Y-14267500D01*
X2059464Y-14210357D01*
X2073750Y-14181786D01*
X2088036Y-14167500D01*
X2116607Y-14153214D01*
X2345178Y-14453214D02*
X2345178Y-14253214D01*
X2345178Y-14281786D02*
X2359464Y-14267500D01*
X2388036Y-14253214D01*
X2430893Y-14253214D01*
X2459464Y-14267500D01*
X2473750Y-14296071D01*
X2473750Y-14453214D01*
X2473750Y-14296071D02*
X2488036Y-14267500D01*
X2516607Y-14253214D01*
X2559464Y-14253214D01*
X2588036Y-14267500D01*
X2602321Y-14296071D01*
X2602321Y-14453214D01*
X2745178Y-14453214D02*
X2745178Y-14253214D01*
X2745178Y-14281786D02*
X2759464Y-14267500D01*
X2788036Y-14253214D01*
X2830893Y-14253214D01*
X2859464Y-14267500D01*
X2873750Y-14296071D01*
X2873750Y-14453214D01*
X2873750Y-14296071D02*
X2888036Y-14267500D01*
X2916607Y-14253214D01*
X2959464Y-14253214D01*
X2988036Y-14267500D01*
X3002321Y-14296071D01*
X3002321Y-14453214D01*
X3588036Y-14138929D02*
X3330893Y-14524643D01*
X3973750Y-14153214D02*
X4002321Y-14153214D01*
X4030893Y-14167500D01*
X4045178Y-14181786D01*
X4059464Y-14210357D01*
X4073750Y-14267500D01*
X4073750Y-14338929D01*
X4059464Y-14396071D01*
X4045178Y-14424643D01*
X4030893Y-14438929D01*
X4002321Y-14453214D01*
X3973750Y-14453214D01*
X3945178Y-14438929D01*
X3930893Y-14424643D01*
X3916607Y-14396071D01*
X3902321Y-14338929D01*
X3902321Y-14267500D01*
X3916607Y-14210357D01*
X3930893Y-14181786D01*
X3945178Y-14167500D01*
X3973750Y-14153214D01*
X4202321Y-14424643D02*
X4216607Y-14438929D01*
X4202321Y-14453214D01*
X4188036Y-14438929D01*
X4202321Y-14424643D01*
X4202321Y-14453214D01*
X4502321Y-14453214D02*
X4330893Y-14453214D01*
X4416607Y-14453214D02*
X4416607Y-14153214D01*
X4388036Y-14196071D01*
X4359464Y-14224643D01*
X4330893Y-14238929D01*
X4788036Y-14453214D02*
X4616607Y-14453214D01*
X4702321Y-14453214D02*
X4702321Y-14153214D01*
X4673750Y-14196071D01*
X4645178Y-14224643D01*
X4616607Y-14238929D01*
X4959464Y-14281786D02*
X4930893Y-14267500D01*
X4916607Y-14253214D01*
X4902321Y-14224643D01*
X4902321Y-14210357D01*
X4916607Y-14181786D01*
X4930893Y-14167500D01*
X4959464Y-14153214D01*
X5016607Y-14153214D01*
X5045178Y-14167500D01*
X5059464Y-14181786D01*
X5073750Y-14210357D01*
X5073750Y-14224643D01*
X5059464Y-14253214D01*
X5045178Y-14267500D01*
X5016607Y-14281786D01*
X4959464Y-14281786D01*
X4930893Y-14296071D01*
X4916607Y-14310357D01*
X4902321Y-14338929D01*
X4902321Y-14396071D01*
X4916607Y-14424643D01*
X4930893Y-14438929D01*
X4959464Y-14453214D01*
X5016607Y-14453214D01*
X5045178Y-14438929D01*
X5059464Y-14424643D01*
X5073750Y-14396071D01*
X5073750Y-14338929D01*
X5059464Y-14310357D01*
X5045178Y-14296071D01*
X5016607Y-14281786D01*
X5188036Y-14153214D02*
X5188036Y-14210357D01*
X5302321Y-14153214D02*
X5302321Y-14210357D01*
X5745178Y-14567500D02*
X5730893Y-14553214D01*
X5702321Y-14510357D01*
X5688036Y-14481786D01*
X5673750Y-14438929D01*
X5659464Y-14367500D01*
X5659464Y-14310357D01*
X5673750Y-14238929D01*
X5688036Y-14196071D01*
X5702321Y-14167500D01*
X5730893Y-14124643D01*
X5745178Y-14110357D01*
X5902321Y-14281786D02*
X5873750Y-14267500D01*
X5859464Y-14253214D01*
X5845178Y-14224643D01*
X5845178Y-14210357D01*
X5859464Y-14181786D01*
X5873750Y-14167500D01*
X5902321Y-14153214D01*
X5959464Y-14153214D01*
X5988036Y-14167500D01*
X6002321Y-14181786D01*
X6016607Y-14210357D01*
X6016607Y-14224643D01*
X6002321Y-14253214D01*
X5988036Y-14267500D01*
X5959464Y-14281786D01*
X5902321Y-14281786D01*
X5873750Y-14296071D01*
X5859464Y-14310357D01*
X5845178Y-14338929D01*
X5845178Y-14396071D01*
X5859464Y-14424643D01*
X5873750Y-14438929D01*
X5902321Y-14453214D01*
X5959464Y-14453214D01*
X5988036Y-14438929D01*
X6002321Y-14424643D01*
X6016607Y-14396071D01*
X6016607Y-14338929D01*
X6002321Y-14310357D01*
X5988036Y-14296071D01*
X5959464Y-14281786D01*
X6273750Y-14253214D02*
X6273750Y-14453214D01*
X6202321Y-14138929D02*
X6130893Y-14353214D01*
X6316607Y-14353214D01*
X6659464Y-14453214D02*
X6659464Y-14153214D01*
X6788036Y-14453214D02*
X6788036Y-14296071D01*
X6773750Y-14267500D01*
X6745178Y-14253214D01*
X6702321Y-14253214D01*
X6673750Y-14267500D01*
X6659464Y-14281786D01*
X6973750Y-14453214D02*
X6945178Y-14438929D01*
X6930893Y-14424643D01*
X6916607Y-14396071D01*
X6916607Y-14310357D01*
X6930893Y-14281786D01*
X6945178Y-14267500D01*
X6973750Y-14253214D01*
X7016607Y-14253214D01*
X7045178Y-14267500D01*
X7059464Y-14281786D01*
X7073750Y-14310357D01*
X7073750Y-14396071D01*
X7059464Y-14424643D01*
X7045178Y-14438929D01*
X7016607Y-14453214D01*
X6973750Y-14453214D01*
X7245178Y-14453214D02*
X7216607Y-14438929D01*
X7202321Y-14410357D01*
X7202321Y-14153214D01*
X7473750Y-14438929D02*
X7445178Y-14453214D01*
X7388036Y-14453214D01*
X7359464Y-14438929D01*
X7345178Y-14410357D01*
X7345178Y-14296071D01*
X7359464Y-14267500D01*
X7388036Y-14253214D01*
X7445178Y-14253214D01*
X7473750Y-14267500D01*
X7488036Y-14296071D01*
X7488036Y-14324643D01*
X7345178Y-14353214D01*
X7602321Y-14438929D02*
X7630893Y-14453214D01*
X7688036Y-14453214D01*
X7716607Y-14438929D01*
X7730893Y-14410357D01*
X7730893Y-14396071D01*
X7716607Y-14367500D01*
X7688036Y-14353214D01*
X7645178Y-14353214D01*
X7616607Y-14338929D01*
X7602321Y-14310357D01*
X7602321Y-14296071D01*
X7616607Y-14267500D01*
X7645178Y-14253214D01*
X7688036Y-14253214D01*
X7716607Y-14267500D01*
X7830893Y-14567500D02*
X7845178Y-14553214D01*
X7873750Y-14510357D01*
X7888036Y-14481786D01*
X7902321Y-14438929D01*
X7916607Y-14367500D01*
X7916607Y-14310357D01*
X7902321Y-14238929D01*
X7888036Y-14196071D01*
X7873750Y-14167500D01*
X7845178Y-14124643D01*
X7830893Y-14110357D01*
X8373750Y-14567500D02*
X8359464Y-14553214D01*
X8330893Y-14510357D01*
X8316607Y-14481786D01*
X8302321Y-14438929D01*
X8288036Y-14367500D01*
X8288036Y-14310357D01*
X8302321Y-14238929D01*
X8316607Y-14196071D01*
X8330893Y-14167500D01*
X8359464Y-14124643D01*
X8373750Y-14110357D01*
X8488036Y-14253214D02*
X8488036Y-14453214D01*
X8488036Y-14281786D02*
X8502321Y-14267500D01*
X8530893Y-14253214D01*
X8573750Y-14253214D01*
X8602321Y-14267500D01*
X8616607Y-14296071D01*
X8616607Y-14453214D01*
X8802321Y-14453214D02*
X8773750Y-14438929D01*
X8759464Y-14424643D01*
X8745178Y-14396071D01*
X8745178Y-14310357D01*
X8759464Y-14281786D01*
X8773750Y-14267500D01*
X8802321Y-14253214D01*
X8845178Y-14253214D01*
X8873750Y-14267500D01*
X8888036Y-14281786D01*
X8902321Y-14310357D01*
X8902321Y-14396071D01*
X8888036Y-14424643D01*
X8873750Y-14438929D01*
X8845178Y-14453214D01*
X8802321Y-14453214D01*
X8988036Y-14253214D02*
X9102321Y-14253214D01*
X9030893Y-14153214D02*
X9030893Y-14410357D01*
X9045178Y-14438929D01*
X9073750Y-14453214D01*
X9102321Y-14453214D01*
X9430893Y-14253214D02*
X9430893Y-14553214D01*
X9430893Y-14267500D02*
X9459464Y-14253214D01*
X9516607Y-14253214D01*
X9545178Y-14267500D01*
X9559464Y-14281786D01*
X9573750Y-14310357D01*
X9573750Y-14396071D01*
X9559464Y-14424643D01*
X9545178Y-14438929D01*
X9516607Y-14453214D01*
X9459464Y-14453214D01*
X9430893Y-14438929D01*
X9745178Y-14453214D02*
X9716607Y-14438929D01*
X9702321Y-14410357D01*
X9702321Y-14153214D01*
X9988036Y-14453214D02*
X9988036Y-14296071D01*
X9973750Y-14267500D01*
X9945178Y-14253214D01*
X9888036Y-14253214D01*
X9859464Y-14267500D01*
X9988036Y-14438929D02*
X9959464Y-14453214D01*
X9888036Y-14453214D01*
X9859464Y-14438929D01*
X9845178Y-14410357D01*
X9845178Y-14381786D01*
X9859464Y-14353214D01*
X9888036Y-14338929D01*
X9959464Y-14338929D01*
X9988036Y-14324643D01*
X10088036Y-14253214D02*
X10202321Y-14253214D01*
X10130893Y-14153214D02*
X10130893Y-14410357D01*
X10145178Y-14438929D01*
X10173750Y-14453214D01*
X10202321Y-14453214D01*
X10416607Y-14438929D02*
X10388036Y-14453214D01*
X10330893Y-14453214D01*
X10302321Y-14438929D01*
X10288036Y-14410357D01*
X10288036Y-14296071D01*
X10302321Y-14267500D01*
X10330893Y-14253214D01*
X10388036Y-14253214D01*
X10416607Y-14267500D01*
X10430893Y-14296071D01*
X10430893Y-14324643D01*
X10288036Y-14353214D01*
X10688036Y-14453214D02*
X10688036Y-14153214D01*
X10688036Y-14438929D02*
X10659464Y-14453214D01*
X10602321Y-14453214D01*
X10573750Y-14438929D01*
X10559464Y-14424643D01*
X10545178Y-14396071D01*
X10545178Y-14310357D01*
X10559464Y-14281786D01*
X10573750Y-14267500D01*
X10602321Y-14253214D01*
X10659464Y-14253214D01*
X10688036Y-14267500D01*
X10802321Y-14567500D02*
X10816607Y-14553214D01*
X10845178Y-14510357D01*
X10859464Y-14481786D01*
X10873750Y-14438929D01*
X10888036Y-14367500D01*
X10888036Y-14310357D01*
X10873750Y-14238929D01*
X10859464Y-14196071D01*
X10845178Y-14167500D01*
X10816607Y-14124643D01*
X10802321Y-14110357D01*
X648750Y-14542500D02*
X1058750Y-14952500D01*
X1058750Y-14542500D02*
X648750Y-14952500D01*
X1058750Y-14747500D02*
G75*
G03X1058750Y-14747500I-205000J0D01*
G01*
X1473750Y-14683214D02*
X1473750Y-14883214D01*
X1402321Y-14568929D02*
X1330893Y-14783214D01*
X1516607Y-14783214D01*
X1630893Y-14854643D02*
X1645178Y-14868929D01*
X1630893Y-14883214D01*
X1616607Y-14868929D01*
X1630893Y-14854643D01*
X1630893Y-14883214D01*
X1930893Y-14883214D02*
X1759464Y-14883214D01*
X1845178Y-14883214D02*
X1845178Y-14583214D01*
X1816607Y-14626071D01*
X1788036Y-14654643D01*
X1759464Y-14668929D01*
X2116607Y-14583214D02*
X2145178Y-14583214D01*
X2173750Y-14597500D01*
X2188036Y-14611786D01*
X2202321Y-14640357D01*
X2216607Y-14697500D01*
X2216607Y-14768929D01*
X2202321Y-14826071D01*
X2188036Y-14854643D01*
X2173750Y-14868929D01*
X2145178Y-14883214D01*
X2116607Y-14883214D01*
X2088036Y-14868929D01*
X2073750Y-14854643D01*
X2059464Y-14826071D01*
X2045178Y-14768929D01*
X2045178Y-14697500D01*
X2059464Y-14640357D01*
X2073750Y-14611786D01*
X2088036Y-14597500D01*
X2116607Y-14583214D01*
X2345178Y-14883214D02*
X2345178Y-14683214D01*
X2345178Y-14711786D02*
X2359464Y-14697500D01*
X2388036Y-14683214D01*
X2430893Y-14683214D01*
X2459464Y-14697500D01*
X2473750Y-14726071D01*
X2473750Y-14883214D01*
X2473750Y-14726071D02*
X2488036Y-14697500D01*
X2516607Y-14683214D01*
X2559464Y-14683214D01*
X2588036Y-14697500D01*
X2602321Y-14726071D01*
X2602321Y-14883214D01*
X2745178Y-14883214D02*
X2745178Y-14683214D01*
X2745178Y-14711786D02*
X2759464Y-14697500D01*
X2788036Y-14683214D01*
X2830893Y-14683214D01*
X2859464Y-14697500D01*
X2873750Y-14726071D01*
X2873750Y-14883214D01*
X2873750Y-14726071D02*
X2888036Y-14697500D01*
X2916607Y-14683214D01*
X2959464Y-14683214D01*
X2988036Y-14697500D01*
X3002321Y-14726071D01*
X3002321Y-14883214D01*
X3588036Y-14568929D02*
X3330893Y-14954643D01*
X3973750Y-14583214D02*
X4002321Y-14583214D01*
X4030893Y-14597500D01*
X4045178Y-14611786D01*
X4059464Y-14640357D01*
X4073750Y-14697500D01*
X4073750Y-14768929D01*
X4059464Y-14826071D01*
X4045178Y-14854643D01*
X4030893Y-14868929D01*
X4002321Y-14883214D01*
X3973750Y-14883214D01*
X3945178Y-14868929D01*
X3930893Y-14854643D01*
X3916607Y-14826071D01*
X3902321Y-14768929D01*
X3902321Y-14697500D01*
X3916607Y-14640357D01*
X3930893Y-14611786D01*
X3945178Y-14597500D01*
X3973750Y-14583214D01*
X4202321Y-14854643D02*
X4216607Y-14868929D01*
X4202321Y-14883214D01*
X4188036Y-14868929D01*
X4202321Y-14854643D01*
X4202321Y-14883214D01*
X4502321Y-14883214D02*
X4330893Y-14883214D01*
X4416607Y-14883214D02*
X4416607Y-14583214D01*
X4388036Y-14626071D01*
X4359464Y-14654643D01*
X4330893Y-14668929D01*
X4759464Y-14583214D02*
X4702321Y-14583214D01*
X4673750Y-14597500D01*
X4659464Y-14611786D01*
X4630893Y-14654643D01*
X4616607Y-14711786D01*
X4616607Y-14826071D01*
X4630893Y-14854643D01*
X4645178Y-14868929D01*
X4673750Y-14883214D01*
X4730893Y-14883214D01*
X4759464Y-14868929D01*
X4773750Y-14854643D01*
X4788036Y-14826071D01*
X4788036Y-14754643D01*
X4773750Y-14726071D01*
X4759464Y-14711786D01*
X4730893Y-14697500D01*
X4673750Y-14697500D01*
X4645178Y-14711786D01*
X4630893Y-14726071D01*
X4616607Y-14754643D01*
X5073750Y-14883214D02*
X4902321Y-14883214D01*
X4988036Y-14883214D02*
X4988036Y-14583214D01*
X4959464Y-14626071D01*
X4930893Y-14654643D01*
X4902321Y-14668929D01*
X5188036Y-14583214D02*
X5188036Y-14640357D01*
X5302321Y-14583214D02*
X5302321Y-14640357D01*
X5745178Y-14997500D02*
X5730893Y-14983214D01*
X5702321Y-14940357D01*
X5688036Y-14911786D01*
X5673750Y-14868929D01*
X5659464Y-14797500D01*
X5659464Y-14740357D01*
X5673750Y-14668929D01*
X5688036Y-14626071D01*
X5702321Y-14597500D01*
X5730893Y-14554643D01*
X5745178Y-14540357D01*
X5988036Y-14683214D02*
X5988036Y-14883214D01*
X5916607Y-14568929D02*
X5845178Y-14783214D01*
X6030893Y-14783214D01*
X6130893Y-14611786D02*
X6145178Y-14597500D01*
X6173750Y-14583214D01*
X6245178Y-14583214D01*
X6273750Y-14597500D01*
X6288036Y-14611786D01*
X6302321Y-14640357D01*
X6302321Y-14668929D01*
X6288036Y-14711786D01*
X6116607Y-14883214D01*
X6302321Y-14883214D01*
X6659464Y-14883214D02*
X6659464Y-14583214D01*
X6788036Y-14883214D02*
X6788036Y-14726071D01*
X6773750Y-14697500D01*
X6745178Y-14683214D01*
X6702321Y-14683214D01*
X6673750Y-14697500D01*
X6659464Y-14711786D01*
X6973750Y-14883214D02*
X6945178Y-14868929D01*
X6930893Y-14854643D01*
X6916607Y-14826071D01*
X6916607Y-14740357D01*
X6930893Y-14711786D01*
X6945178Y-14697500D01*
X6973750Y-14683214D01*
X7016607Y-14683214D01*
X7045178Y-14697500D01*
X7059464Y-14711786D01*
X7073750Y-14740357D01*
X7073750Y-14826071D01*
X7059464Y-14854643D01*
X7045178Y-14868929D01*
X7016607Y-14883214D01*
X6973750Y-14883214D01*
X7245178Y-14883214D02*
X7216607Y-14868929D01*
X7202321Y-14840357D01*
X7202321Y-14583214D01*
X7473750Y-14868929D02*
X7445178Y-14883214D01*
X7388036Y-14883214D01*
X7359464Y-14868929D01*
X7345178Y-14840357D01*
X7345178Y-14726071D01*
X7359464Y-14697500D01*
X7388036Y-14683214D01*
X7445178Y-14683214D01*
X7473750Y-14697500D01*
X7488036Y-14726071D01*
X7488036Y-14754643D01*
X7345178Y-14783214D01*
X7602321Y-14868929D02*
X7630893Y-14883214D01*
X7688036Y-14883214D01*
X7716607Y-14868929D01*
X7730893Y-14840357D01*
X7730893Y-14826071D01*
X7716607Y-14797500D01*
X7688036Y-14783214D01*
X7645178Y-14783214D01*
X7616607Y-14768929D01*
X7602321Y-14740357D01*
X7602321Y-14726071D01*
X7616607Y-14697500D01*
X7645178Y-14683214D01*
X7688036Y-14683214D01*
X7716607Y-14697500D01*
X7830893Y-14997500D02*
X7845178Y-14983214D01*
X7873750Y-14940357D01*
X7888036Y-14911786D01*
X7902321Y-14868929D01*
X7916607Y-14797500D01*
X7916607Y-14740357D01*
X7902321Y-14668929D01*
X7888036Y-14626071D01*
X7873750Y-14597500D01*
X7845178Y-14554643D01*
X7830893Y-14540357D01*
X8373750Y-14997500D02*
X8359464Y-14983214D01*
X8330893Y-14940357D01*
X8316607Y-14911786D01*
X8302321Y-14868929D01*
X8288036Y-14797500D01*
X8288036Y-14740357D01*
X8302321Y-14668929D01*
X8316607Y-14626071D01*
X8330893Y-14597500D01*
X8359464Y-14554643D01*
X8373750Y-14540357D01*
X8488036Y-14683214D02*
X8488036Y-14883214D01*
X8488036Y-14711786D02*
X8502321Y-14697500D01*
X8530893Y-14683214D01*
X8573750Y-14683214D01*
X8602321Y-14697500D01*
X8616607Y-14726071D01*
X8616607Y-14883214D01*
X8802321Y-14883214D02*
X8773750Y-14868929D01*
X8759464Y-14854643D01*
X8745178Y-14826071D01*
X8745178Y-14740357D01*
X8759464Y-14711786D01*
X8773750Y-14697500D01*
X8802321Y-14683214D01*
X8845178Y-14683214D01*
X8873750Y-14697500D01*
X8888036Y-14711786D01*
X8902321Y-14740357D01*
X8902321Y-14826071D01*
X8888036Y-14854643D01*
X8873750Y-14868929D01*
X8845178Y-14883214D01*
X8802321Y-14883214D01*
X8988036Y-14683214D02*
X9102321Y-14683214D01*
X9030893Y-14583214D02*
X9030893Y-14840357D01*
X9045178Y-14868929D01*
X9073750Y-14883214D01*
X9102321Y-14883214D01*
X9430893Y-14683214D02*
X9430893Y-14983214D01*
X9430893Y-14697500D02*
X9459464Y-14683214D01*
X9516607Y-14683214D01*
X9545178Y-14697500D01*
X9559464Y-14711786D01*
X9573750Y-14740357D01*
X9573750Y-14826071D01*
X9559464Y-14854643D01*
X9545178Y-14868929D01*
X9516607Y-14883214D01*
X9459464Y-14883214D01*
X9430893Y-14868929D01*
X9745178Y-14883214D02*
X9716607Y-14868929D01*
X9702321Y-14840357D01*
X9702321Y-14583214D01*
X9988036Y-14883214D02*
X9988036Y-14726071D01*
X9973750Y-14697500D01*
X9945178Y-14683214D01*
X9888036Y-14683214D01*
X9859464Y-14697500D01*
X9988036Y-14868929D02*
X9959464Y-14883214D01*
X9888036Y-14883214D01*
X9859464Y-14868929D01*
X9845178Y-14840357D01*
X9845178Y-14811786D01*
X9859464Y-14783214D01*
X9888036Y-14768929D01*
X9959464Y-14768929D01*
X9988036Y-14754643D01*
X10088036Y-14683214D02*
X10202321Y-14683214D01*
X10130893Y-14583214D02*
X10130893Y-14840357D01*
X10145178Y-14868929D01*
X10173750Y-14883214D01*
X10202321Y-14883214D01*
X10416607Y-14868929D02*
X10388036Y-14883214D01*
X10330893Y-14883214D01*
X10302321Y-14868929D01*
X10288036Y-14840357D01*
X10288036Y-14726071D01*
X10302321Y-14697500D01*
X10330893Y-14683214D01*
X10388036Y-14683214D01*
X10416607Y-14697500D01*
X10430893Y-14726071D01*
X10430893Y-14754643D01*
X10288036Y-14783214D01*
X10688036Y-14883214D02*
X10688036Y-14583214D01*
X10688036Y-14868929D02*
X10659464Y-14883214D01*
X10602321Y-14883214D01*
X10573750Y-14868929D01*
X10559464Y-14854643D01*
X10545178Y-14826071D01*
X10545178Y-14740357D01*
X10559464Y-14711786D01*
X10573750Y-14697500D01*
X10602321Y-14683214D01*
X10659464Y-14683214D01*
X10688036Y-14697500D01*
X10802321Y-14997500D02*
X10816607Y-14983214D01*
X10845178Y-14940357D01*
X10859464Y-14911786D01*
X10873750Y-14868929D01*
X10888036Y-14797500D01*
X10888036Y-14740357D01*
X10873750Y-14668929D01*
X10859464Y-14626071D01*
X10845178Y-14597500D01*
X10816607Y-14554643D01*
X10802321Y-14540357D01*
X638750Y-15077500D02*
X1058750Y-15497500D01*
X1058750Y-15077500D02*
X638750Y-15497500D01*
X848750Y-15077500D02*
X848750Y-15497500D01*
X638750Y-15287500D02*
X1058750Y-15287500D01*
X1473750Y-15223214D02*
X1473750Y-15423214D01*
X1402321Y-15108929D02*
X1330893Y-15323214D01*
X1516607Y-15323214D01*
X1630893Y-15394643D02*
X1645178Y-15408929D01*
X1630893Y-15423214D01*
X1616607Y-15408929D01*
X1630893Y-15394643D01*
X1630893Y-15423214D01*
X1759464Y-15151786D02*
X1773750Y-15137500D01*
X1802321Y-15123214D01*
X1873750Y-15123214D01*
X1902321Y-15137500D01*
X1916607Y-15151786D01*
X1930893Y-15180357D01*
X1930893Y-15208929D01*
X1916607Y-15251786D01*
X1745178Y-15423214D01*
X1930893Y-15423214D01*
X2116607Y-15123214D02*
X2145178Y-15123214D01*
X2173750Y-15137500D01*
X2188036Y-15151786D01*
X2202321Y-15180357D01*
X2216607Y-15237500D01*
X2216607Y-15308929D01*
X2202321Y-15366071D01*
X2188036Y-15394643D01*
X2173750Y-15408929D01*
X2145178Y-15423214D01*
X2116607Y-15423214D01*
X2088036Y-15408929D01*
X2073750Y-15394643D01*
X2059464Y-15366071D01*
X2045178Y-15308929D01*
X2045178Y-15237500D01*
X2059464Y-15180357D01*
X2073750Y-15151786D01*
X2088036Y-15137500D01*
X2116607Y-15123214D01*
X2345178Y-15423214D02*
X2345178Y-15223214D01*
X2345178Y-15251786D02*
X2359464Y-15237500D01*
X2388036Y-15223214D01*
X2430893Y-15223214D01*
X2459464Y-15237500D01*
X2473750Y-15266071D01*
X2473750Y-15423214D01*
X2473750Y-15266071D02*
X2488036Y-15237500D01*
X2516607Y-15223214D01*
X2559464Y-15223214D01*
X2588036Y-15237500D01*
X2602321Y-15266071D01*
X2602321Y-15423214D01*
X2745178Y-15423214D02*
X2745178Y-15223214D01*
X2745178Y-15251786D02*
X2759464Y-15237500D01*
X2788036Y-15223214D01*
X2830893Y-15223214D01*
X2859464Y-15237500D01*
X2873750Y-15266071D01*
X2873750Y-15423214D01*
X2873750Y-15266071D02*
X2888036Y-15237500D01*
X2916607Y-15223214D01*
X2959464Y-15223214D01*
X2988036Y-15237500D01*
X3002321Y-15266071D01*
X3002321Y-15423214D01*
X3588036Y-15108929D02*
X3330893Y-15494643D01*
X3973750Y-15123214D02*
X4002321Y-15123214D01*
X4030893Y-15137500D01*
X4045178Y-15151786D01*
X4059464Y-15180357D01*
X4073750Y-15237500D01*
X4073750Y-15308929D01*
X4059464Y-15366071D01*
X4045178Y-15394643D01*
X4030893Y-15408929D01*
X4002321Y-15423214D01*
X3973750Y-15423214D01*
X3945178Y-15408929D01*
X3930893Y-15394643D01*
X3916607Y-15366071D01*
X3902321Y-15308929D01*
X3902321Y-15237500D01*
X3916607Y-15180357D01*
X3930893Y-15151786D01*
X3945178Y-15137500D01*
X3973750Y-15123214D01*
X4202321Y-15394643D02*
X4216607Y-15408929D01*
X4202321Y-15423214D01*
X4188036Y-15408929D01*
X4202321Y-15394643D01*
X4202321Y-15423214D01*
X4502321Y-15423214D02*
X4330893Y-15423214D01*
X4416607Y-15423214D02*
X4416607Y-15123214D01*
X4388036Y-15166071D01*
X4359464Y-15194643D01*
X4330893Y-15208929D01*
X4759464Y-15123214D02*
X4702321Y-15123214D01*
X4673750Y-15137500D01*
X4659464Y-15151786D01*
X4630893Y-15194643D01*
X4616607Y-15251786D01*
X4616607Y-15366071D01*
X4630893Y-15394643D01*
X4645178Y-15408929D01*
X4673750Y-15423214D01*
X4730893Y-15423214D01*
X4759464Y-15408929D01*
X4773750Y-15394643D01*
X4788036Y-15366071D01*
X4788036Y-15294643D01*
X4773750Y-15266071D01*
X4759464Y-15251786D01*
X4730893Y-15237500D01*
X4673750Y-15237500D01*
X4645178Y-15251786D01*
X4630893Y-15266071D01*
X4616607Y-15294643D01*
X5059464Y-15123214D02*
X4916607Y-15123214D01*
X4902321Y-15266071D01*
X4916607Y-15251786D01*
X4945178Y-15237500D01*
X5016607Y-15237500D01*
X5045178Y-15251786D01*
X5059464Y-15266071D01*
X5073750Y-15294643D01*
X5073750Y-15366071D01*
X5059464Y-15394643D01*
X5045178Y-15408929D01*
X5016607Y-15423214D01*
X4945178Y-15423214D01*
X4916607Y-15408929D01*
X4902321Y-15394643D01*
X5188036Y-15123214D02*
X5188036Y-15180357D01*
X5302321Y-15123214D02*
X5302321Y-15180357D01*
X5745178Y-15537500D02*
X5730893Y-15523214D01*
X5702321Y-15480357D01*
X5688036Y-15451786D01*
X5673750Y-15408929D01*
X5659464Y-15337500D01*
X5659464Y-15280357D01*
X5673750Y-15208929D01*
X5688036Y-15166071D01*
X5702321Y-15137500D01*
X5730893Y-15094643D01*
X5745178Y-15080357D01*
X6016607Y-15423214D02*
X5845178Y-15423214D01*
X5930893Y-15423214D02*
X5930893Y-15123214D01*
X5902321Y-15166071D01*
X5873750Y-15194643D01*
X5845178Y-15208929D01*
X6202321Y-15123214D02*
X6230893Y-15123214D01*
X6259464Y-15137500D01*
X6273750Y-15151786D01*
X6288036Y-15180357D01*
X6302321Y-15237500D01*
X6302321Y-15308929D01*
X6288036Y-15366071D01*
X6273750Y-15394643D01*
X6259464Y-15408929D01*
X6230893Y-15423214D01*
X6202321Y-15423214D01*
X6173750Y-15408929D01*
X6159464Y-15394643D01*
X6145178Y-15366071D01*
X6130893Y-15308929D01*
X6130893Y-15237500D01*
X6145178Y-15180357D01*
X6159464Y-15151786D01*
X6173750Y-15137500D01*
X6202321Y-15123214D01*
X6659464Y-15423214D02*
X6659464Y-15123214D01*
X6788036Y-15423214D02*
X6788036Y-15266071D01*
X6773750Y-15237500D01*
X6745178Y-15223214D01*
X6702321Y-15223214D01*
X6673750Y-15237500D01*
X6659464Y-15251786D01*
X6973750Y-15423214D02*
X6945178Y-15408929D01*
X6930893Y-15394643D01*
X6916607Y-15366071D01*
X6916607Y-15280357D01*
X6930893Y-15251786D01*
X6945178Y-15237500D01*
X6973750Y-15223214D01*
X7016607Y-15223214D01*
X7045178Y-15237500D01*
X7059464Y-15251786D01*
X7073750Y-15280357D01*
X7073750Y-15366071D01*
X7059464Y-15394643D01*
X7045178Y-15408929D01*
X7016607Y-15423214D01*
X6973750Y-15423214D01*
X7245178Y-15423214D02*
X7216607Y-15408929D01*
X7202321Y-15380357D01*
X7202321Y-15123214D01*
X7473750Y-15408929D02*
X7445178Y-15423214D01*
X7388036Y-15423214D01*
X7359464Y-15408929D01*
X7345178Y-15380357D01*
X7345178Y-15266071D01*
X7359464Y-15237500D01*
X7388036Y-15223214D01*
X7445178Y-15223214D01*
X7473750Y-15237500D01*
X7488036Y-15266071D01*
X7488036Y-15294643D01*
X7345178Y-15323214D01*
X7602321Y-15408929D02*
X7630893Y-15423214D01*
X7688036Y-15423214D01*
X7716607Y-15408929D01*
X7730893Y-15380357D01*
X7730893Y-15366071D01*
X7716607Y-15337500D01*
X7688036Y-15323214D01*
X7645178Y-15323214D01*
X7616607Y-15308929D01*
X7602321Y-15280357D01*
X7602321Y-15266071D01*
X7616607Y-15237500D01*
X7645178Y-15223214D01*
X7688036Y-15223214D01*
X7716607Y-15237500D01*
X7830893Y-15537500D02*
X7845178Y-15523214D01*
X7873750Y-15480357D01*
X7888036Y-15451786D01*
X7902321Y-15408929D01*
X7916607Y-15337500D01*
X7916607Y-15280357D01*
X7902321Y-15208929D01*
X7888036Y-15166071D01*
X7873750Y-15137500D01*
X7845178Y-15094643D01*
X7830893Y-15080357D01*
X8373750Y-15537500D02*
X8359464Y-15523214D01*
X8330893Y-15480357D01*
X8316607Y-15451786D01*
X8302321Y-15408929D01*
X8288036Y-15337500D01*
X8288036Y-15280357D01*
X8302321Y-15208929D01*
X8316607Y-15166071D01*
X8330893Y-15137500D01*
X8359464Y-15094643D01*
X8373750Y-15080357D01*
X8488036Y-15223214D02*
X8488036Y-15423214D01*
X8488036Y-15251786D02*
X8502321Y-15237500D01*
X8530893Y-15223214D01*
X8573750Y-15223214D01*
X8602321Y-15237500D01*
X8616607Y-15266071D01*
X8616607Y-15423214D01*
X8802321Y-15423214D02*
X8773750Y-15408929D01*
X8759464Y-15394643D01*
X8745178Y-15366071D01*
X8745178Y-15280357D01*
X8759464Y-15251786D01*
X8773750Y-15237500D01*
X8802321Y-15223214D01*
X8845178Y-15223214D01*
X8873750Y-15237500D01*
X8888036Y-15251786D01*
X8902321Y-15280357D01*
X8902321Y-15366071D01*
X8888036Y-15394643D01*
X8873750Y-15408929D01*
X8845178Y-15423214D01*
X8802321Y-15423214D01*
X8988036Y-15223214D02*
X9102321Y-15223214D01*
X9030893Y-15123214D02*
X9030893Y-15380357D01*
X9045178Y-15408929D01*
X9073750Y-15423214D01*
X9102321Y-15423214D01*
X9430893Y-15223214D02*
X9430893Y-15523214D01*
X9430893Y-15237500D02*
X9459464Y-15223214D01*
X9516607Y-15223214D01*
X9545178Y-15237500D01*
X9559464Y-15251786D01*
X9573750Y-15280357D01*
X9573750Y-15366071D01*
X9559464Y-15394643D01*
X9545178Y-15408929D01*
X9516607Y-15423214D01*
X9459464Y-15423214D01*
X9430893Y-15408929D01*
X9745178Y-15423214D02*
X9716607Y-15408929D01*
X9702321Y-15380357D01*
X9702321Y-15123214D01*
X9988036Y-15423214D02*
X9988036Y-15266071D01*
X9973750Y-15237500D01*
X9945178Y-15223214D01*
X9888036Y-15223214D01*
X9859464Y-15237500D01*
X9988036Y-15408929D02*
X9959464Y-15423214D01*
X9888036Y-15423214D01*
X9859464Y-15408929D01*
X9845178Y-15380357D01*
X9845178Y-15351786D01*
X9859464Y-15323214D01*
X9888036Y-15308929D01*
X9959464Y-15308929D01*
X9988036Y-15294643D01*
X10088036Y-15223214D02*
X10202321Y-15223214D01*
X10130893Y-15123214D02*
X10130893Y-15380357D01*
X10145178Y-15408929D01*
X10173750Y-15423214D01*
X10202321Y-15423214D01*
X10416607Y-15408929D02*
X10388036Y-15423214D01*
X10330893Y-15423214D01*
X10302321Y-15408929D01*
X10288036Y-15380357D01*
X10288036Y-15266071D01*
X10302321Y-15237500D01*
X10330893Y-15223214D01*
X10388036Y-15223214D01*
X10416607Y-15237500D01*
X10430893Y-15266071D01*
X10430893Y-15294643D01*
X10288036Y-15323214D01*
X10688036Y-15423214D02*
X10688036Y-15123214D01*
X10688036Y-15408929D02*
X10659464Y-15423214D01*
X10602321Y-15423214D01*
X10573750Y-15408929D01*
X10559464Y-15394643D01*
X10545178Y-15366071D01*
X10545178Y-15280357D01*
X10559464Y-15251786D01*
X10573750Y-15237500D01*
X10602321Y-15223214D01*
X10659464Y-15223214D01*
X10688036Y-15237500D01*
X10802321Y-15537500D02*
X10816607Y-15523214D01*
X10845178Y-15480357D01*
X10859464Y-15451786D01*
X10873750Y-15408929D01*
X10888036Y-15337500D01*
X10888036Y-15280357D01*
X10873750Y-15208929D01*
X10859464Y-15166071D01*
X10845178Y-15137500D01*
X10816607Y-15094643D01*
X10802321Y-15080357D01*
M02*
