G04 #@! TF.GenerationSoftware,KiCad,Pcbnew,5.1.5+dfsg1-2~bpo10+1*
G04 #@! TF.CreationDate,2020-09-05T17:28:50+00:00*
G04 #@! TF.ProjectId,corne-cherry,636f726e-652d-4636-9865-7272792e6b69,3.0*
G04 #@! TF.SameCoordinates,Original*
G04 #@! TF.FileFunction,Legend,Top*
G04 #@! TF.FilePolarity,Positive*
%FSLAX46Y46*%
G04 Gerber Fmt 4.6, Leading zero omitted, Abs format (unit mm)*
G04 Created by KiCad (PCBNEW 5.1.5+dfsg1-2~bpo10+1) date 2020-09-05 17:28:50*
%MOMM*%
%LPD*%
G04 APERTURE LIST*
%ADD10C,0.125000*%
%ADD11C,0.010000*%
%ADD12C,0.150000*%
%ADD13C,0.120000*%
G04 APERTURE END LIST*
D10*
X212723273Y-58687142D02*
X212675654Y-58734761D01*
X212532797Y-58782380D01*
X212437559Y-58782380D01*
X212294702Y-58734761D01*
X212199464Y-58639523D01*
X212151845Y-58544285D01*
X212104226Y-58353809D01*
X212104226Y-58210952D01*
X212151845Y-58020476D01*
X212199464Y-57925238D01*
X212294702Y-57830000D01*
X212437559Y-57782380D01*
X212532797Y-57782380D01*
X212675654Y-57830000D01*
X212723273Y-57877619D01*
X213294702Y-58782380D02*
X213199464Y-58734761D01*
X213151845Y-58687142D01*
X213104226Y-58591904D01*
X213104226Y-58306190D01*
X213151845Y-58210952D01*
X213199464Y-58163333D01*
X213294702Y-58115714D01*
X213437559Y-58115714D01*
X213532797Y-58163333D01*
X213580416Y-58210952D01*
X213628035Y-58306190D01*
X213628035Y-58591904D01*
X213580416Y-58687142D01*
X213532797Y-58734761D01*
X213437559Y-58782380D01*
X213294702Y-58782380D01*
X214056607Y-58782380D02*
X214056607Y-58115714D01*
X214056607Y-58306190D02*
X214104226Y-58210952D01*
X214151845Y-58163333D01*
X214247083Y-58115714D01*
X214342321Y-58115714D01*
X214675654Y-58115714D02*
X214675654Y-58782380D01*
X214675654Y-58210952D02*
X214723273Y-58163333D01*
X214818511Y-58115714D01*
X214961369Y-58115714D01*
X215056607Y-58163333D01*
X215104226Y-58258571D01*
X215104226Y-58782380D01*
X215961369Y-58734761D02*
X215866130Y-58782380D01*
X215675654Y-58782380D01*
X215580416Y-58734761D01*
X215532797Y-58639523D01*
X215532797Y-58258571D01*
X215580416Y-58163333D01*
X215675654Y-58115714D01*
X215866130Y-58115714D01*
X215961369Y-58163333D01*
X216008988Y-58258571D01*
X216008988Y-58353809D01*
X215532797Y-58449047D01*
X217770892Y-58687142D02*
X217723273Y-58734761D01*
X217580416Y-58782380D01*
X217485178Y-58782380D01*
X217342321Y-58734761D01*
X217247083Y-58639523D01*
X217199464Y-58544285D01*
X217151845Y-58353809D01*
X217151845Y-58210952D01*
X217199464Y-58020476D01*
X217247083Y-57925238D01*
X217342321Y-57830000D01*
X217485178Y-57782380D01*
X217580416Y-57782380D01*
X217723273Y-57830000D01*
X217770892Y-57877619D01*
X218199464Y-58782380D02*
X218199464Y-57782380D01*
X218628035Y-58782380D02*
X218628035Y-58258571D01*
X218580416Y-58163333D01*
X218485178Y-58115714D01*
X218342321Y-58115714D01*
X218247083Y-58163333D01*
X218199464Y-58210952D01*
X219485178Y-58734761D02*
X219389940Y-58782380D01*
X219199464Y-58782380D01*
X219104226Y-58734761D01*
X219056607Y-58639523D01*
X219056607Y-58258571D01*
X219104226Y-58163333D01*
X219199464Y-58115714D01*
X219389940Y-58115714D01*
X219485178Y-58163333D01*
X219532797Y-58258571D01*
X219532797Y-58353809D01*
X219056607Y-58449047D01*
X219961369Y-58782380D02*
X219961369Y-58115714D01*
X219961369Y-58306190D02*
X220008988Y-58210952D01*
X220056607Y-58163333D01*
X220151845Y-58115714D01*
X220247083Y-58115714D01*
X220580416Y-58782380D02*
X220580416Y-58115714D01*
X220580416Y-58306190D02*
X220628035Y-58210952D01*
X220675654Y-58163333D01*
X220770892Y-58115714D01*
X220866130Y-58115714D01*
X221104226Y-58115714D02*
X221342321Y-58782380D01*
X221580416Y-58115714D02*
X221342321Y-58782380D01*
X221247083Y-59020476D01*
X221199464Y-59068095D01*
X221104226Y-59115714D01*
X222628035Y-58115714D02*
X222866130Y-58782380D01*
X223104226Y-58115714D01*
X223389940Y-57782380D02*
X224008988Y-57782380D01*
X223675654Y-58163333D01*
X223818511Y-58163333D01*
X223913750Y-58210952D01*
X223961369Y-58258571D01*
X224008988Y-58353809D01*
X224008988Y-58591904D01*
X223961369Y-58687142D01*
X223913750Y-58734761D01*
X223818511Y-58782380D01*
X223532797Y-58782380D01*
X223437559Y-58734761D01*
X223389940Y-58687142D01*
X224437559Y-58687142D02*
X224485178Y-58734761D01*
X224437559Y-58782380D01*
X224389940Y-58734761D01*
X224437559Y-58687142D01*
X224437559Y-58782380D01*
X225104226Y-57782380D02*
X225199464Y-57782380D01*
X225294702Y-57830000D01*
X225342321Y-57877619D01*
X225389940Y-57972857D01*
X225437559Y-58163333D01*
X225437559Y-58401428D01*
X225389940Y-58591904D01*
X225342321Y-58687142D01*
X225294702Y-58734761D01*
X225199464Y-58782380D01*
X225104226Y-58782380D01*
X225008988Y-58734761D01*
X224961369Y-58687142D01*
X224913750Y-58591904D01*
X224866130Y-58401428D01*
X224866130Y-58163333D01*
X224913750Y-57972857D01*
X224961369Y-57877619D01*
X225008988Y-57830000D01*
X225104226Y-57782380D01*
X226628035Y-58782380D02*
X226628035Y-57782380D01*
X227008988Y-57782380D01*
X227104226Y-57830000D01*
X227151845Y-57877619D01*
X227199464Y-57972857D01*
X227199464Y-58115714D01*
X227151845Y-58210952D01*
X227104226Y-58258571D01*
X227008988Y-58306190D01*
X226628035Y-58306190D01*
X228199464Y-58687142D02*
X228151845Y-58734761D01*
X228008988Y-58782380D01*
X227913750Y-58782380D01*
X227770892Y-58734761D01*
X227675654Y-58639523D01*
X227628035Y-58544285D01*
X227580416Y-58353809D01*
X227580416Y-58210952D01*
X227628035Y-58020476D01*
X227675654Y-57925238D01*
X227770892Y-57830000D01*
X227913750Y-57782380D01*
X228008988Y-57782380D01*
X228151845Y-57830000D01*
X228199464Y-57877619D01*
X228961369Y-58258571D02*
X229104226Y-58306190D01*
X229151845Y-58353809D01*
X229199464Y-58449047D01*
X229199464Y-58591904D01*
X229151845Y-58687142D01*
X229104226Y-58734761D01*
X229008988Y-58782380D01*
X228628035Y-58782380D01*
X228628035Y-57782380D01*
X228961369Y-57782380D01*
X229056607Y-57830000D01*
X229104226Y-57877619D01*
X229151845Y-57972857D01*
X229151845Y-58068095D01*
X229104226Y-58163333D01*
X229056607Y-58210952D01*
X228961369Y-58258571D01*
X228628035Y-58258571D01*
X230389940Y-58782380D02*
X230389940Y-57782380D01*
X230628035Y-57782380D01*
X230770892Y-57830000D01*
X230866130Y-57925238D01*
X230913750Y-58020476D01*
X230961369Y-58210952D01*
X230961369Y-58353809D01*
X230913750Y-58544285D01*
X230866130Y-58639523D01*
X230770892Y-58734761D01*
X230628035Y-58782380D01*
X230389940Y-58782380D01*
X231770892Y-58734761D02*
X231675654Y-58782380D01*
X231485178Y-58782380D01*
X231389940Y-58734761D01*
X231342321Y-58639523D01*
X231342321Y-58258571D01*
X231389940Y-58163333D01*
X231485178Y-58115714D01*
X231675654Y-58115714D01*
X231770892Y-58163333D01*
X231818511Y-58258571D01*
X231818511Y-58353809D01*
X231342321Y-58449047D01*
X232199464Y-58734761D02*
X232294702Y-58782380D01*
X232485178Y-58782380D01*
X232580416Y-58734761D01*
X232628035Y-58639523D01*
X232628035Y-58591904D01*
X232580416Y-58496666D01*
X232485178Y-58449047D01*
X232342321Y-58449047D01*
X232247083Y-58401428D01*
X232199464Y-58306190D01*
X232199464Y-58258571D01*
X232247083Y-58163333D01*
X232342321Y-58115714D01*
X232485178Y-58115714D01*
X232580416Y-58163333D01*
X233056607Y-58782380D02*
X233056607Y-58115714D01*
X233056607Y-57782380D02*
X233008988Y-57830000D01*
X233056607Y-57877619D01*
X233104226Y-57830000D01*
X233056607Y-57782380D01*
X233056607Y-57877619D01*
X233961369Y-58115714D02*
X233961369Y-58925238D01*
X233913750Y-59020476D01*
X233866130Y-59068095D01*
X233770892Y-59115714D01*
X233628035Y-59115714D01*
X233532797Y-59068095D01*
X233961369Y-58734761D02*
X233866130Y-58782380D01*
X233675654Y-58782380D01*
X233580416Y-58734761D01*
X233532797Y-58687142D01*
X233485178Y-58591904D01*
X233485178Y-58306190D01*
X233532797Y-58210952D01*
X233580416Y-58163333D01*
X233675654Y-58115714D01*
X233866130Y-58115714D01*
X233961369Y-58163333D01*
X234437559Y-58115714D02*
X234437559Y-58782380D01*
X234437559Y-58210952D02*
X234485178Y-58163333D01*
X234580416Y-58115714D01*
X234723273Y-58115714D01*
X234818511Y-58163333D01*
X234866130Y-58258571D01*
X234866130Y-58782380D01*
X235723273Y-58734761D02*
X235628035Y-58782380D01*
X235437559Y-58782380D01*
X235342321Y-58734761D01*
X235294702Y-58639523D01*
X235294702Y-58258571D01*
X235342321Y-58163333D01*
X235437559Y-58115714D01*
X235628035Y-58115714D01*
X235723273Y-58163333D01*
X235770892Y-58258571D01*
X235770892Y-58353809D01*
X235294702Y-58449047D01*
X236628035Y-58782380D02*
X236628035Y-57782380D01*
X236628035Y-58734761D02*
X236532797Y-58782380D01*
X236342321Y-58782380D01*
X236247083Y-58734761D01*
X236199464Y-58687142D01*
X236151845Y-58591904D01*
X236151845Y-58306190D01*
X236199464Y-58210952D01*
X236247083Y-58163333D01*
X236342321Y-58115714D01*
X236532797Y-58115714D01*
X236628035Y-58163333D01*
X237866130Y-58782380D02*
X237866130Y-57782380D01*
X237866130Y-58163333D02*
X237961369Y-58115714D01*
X238151845Y-58115714D01*
X238247083Y-58163333D01*
X238294702Y-58210952D01*
X238342321Y-58306190D01*
X238342321Y-58591904D01*
X238294702Y-58687142D01*
X238247083Y-58734761D01*
X238151845Y-58782380D01*
X237961369Y-58782380D01*
X237866130Y-58734761D01*
X238675654Y-58115714D02*
X238913750Y-58782380D01*
X239151845Y-58115714D02*
X238913750Y-58782380D01*
X238818511Y-59020476D01*
X238770892Y-59068095D01*
X238675654Y-59115714D01*
X240151845Y-58115714D02*
X240532797Y-58115714D01*
X240294702Y-58782380D02*
X240294702Y-57925238D01*
X240342321Y-57830000D01*
X240437559Y-57782380D01*
X240532797Y-57782380D01*
X241008988Y-58782380D02*
X240913750Y-58734761D01*
X240866130Y-58687142D01*
X240818511Y-58591904D01*
X240818511Y-58306190D01*
X240866130Y-58210952D01*
X240913750Y-58163333D01*
X241008988Y-58115714D01*
X241151845Y-58115714D01*
X241247083Y-58163333D01*
X241294702Y-58210952D01*
X241342321Y-58306190D01*
X241342321Y-58591904D01*
X241294702Y-58687142D01*
X241247083Y-58734761D01*
X241151845Y-58782380D01*
X241008988Y-58782380D01*
X241913750Y-58782380D02*
X241818511Y-58734761D01*
X241770892Y-58687142D01*
X241723273Y-58591904D01*
X241723273Y-58306190D01*
X241770892Y-58210952D01*
X241818511Y-58163333D01*
X241913750Y-58115714D01*
X242056607Y-58115714D01*
X242151845Y-58163333D01*
X242199464Y-58210952D01*
X242247083Y-58306190D01*
X242247083Y-58591904D01*
X242199464Y-58687142D01*
X242151845Y-58734761D01*
X242056607Y-58782380D01*
X241913750Y-58782380D01*
X242628035Y-58734761D02*
X242723273Y-58782380D01*
X242913750Y-58782380D01*
X243008988Y-58734761D01*
X243056607Y-58639523D01*
X243056607Y-58591904D01*
X243008988Y-58496666D01*
X242913750Y-58449047D01*
X242770892Y-58449047D01*
X242675654Y-58401428D01*
X242628035Y-58306190D01*
X242628035Y-58258571D01*
X242675654Y-58163333D01*
X242770892Y-58115714D01*
X242913750Y-58115714D01*
X243008988Y-58163333D01*
X243342321Y-58115714D02*
X243723273Y-58115714D01*
X243485178Y-57782380D02*
X243485178Y-58639523D01*
X243532797Y-58734761D01*
X243628035Y-58782380D01*
X243723273Y-58782380D01*
X244485178Y-58782380D02*
X244485178Y-58258571D01*
X244437559Y-58163333D01*
X244342321Y-58115714D01*
X244151845Y-58115714D01*
X244056607Y-58163333D01*
X244485178Y-58734761D02*
X244389940Y-58782380D01*
X244151845Y-58782380D01*
X244056607Y-58734761D01*
X244008988Y-58639523D01*
X244008988Y-58544285D01*
X244056607Y-58449047D01*
X244151845Y-58401428D01*
X244389940Y-58401428D01*
X244485178Y-58353809D01*
X244961369Y-58115714D02*
X244961369Y-58782380D01*
X244961369Y-58210952D02*
X245008988Y-58163333D01*
X245104226Y-58115714D01*
X245247083Y-58115714D01*
X245342321Y-58163333D01*
X245389940Y-58258571D01*
X245389940Y-58782380D01*
X51173273Y-58687142D02*
X51125654Y-58734761D01*
X50982797Y-58782380D01*
X50887559Y-58782380D01*
X50744702Y-58734761D01*
X50649464Y-58639523D01*
X50601845Y-58544285D01*
X50554226Y-58353809D01*
X50554226Y-58210952D01*
X50601845Y-58020476D01*
X50649464Y-57925238D01*
X50744702Y-57830000D01*
X50887559Y-57782380D01*
X50982797Y-57782380D01*
X51125654Y-57830000D01*
X51173273Y-57877619D01*
X51744702Y-58782380D02*
X51649464Y-58734761D01*
X51601845Y-58687142D01*
X51554226Y-58591904D01*
X51554226Y-58306190D01*
X51601845Y-58210952D01*
X51649464Y-58163333D01*
X51744702Y-58115714D01*
X51887559Y-58115714D01*
X51982797Y-58163333D01*
X52030416Y-58210952D01*
X52078035Y-58306190D01*
X52078035Y-58591904D01*
X52030416Y-58687142D01*
X51982797Y-58734761D01*
X51887559Y-58782380D01*
X51744702Y-58782380D01*
X52506607Y-58782380D02*
X52506607Y-58115714D01*
X52506607Y-58306190D02*
X52554226Y-58210952D01*
X52601845Y-58163333D01*
X52697083Y-58115714D01*
X52792321Y-58115714D01*
X53125654Y-58115714D02*
X53125654Y-58782380D01*
X53125654Y-58210952D02*
X53173273Y-58163333D01*
X53268511Y-58115714D01*
X53411369Y-58115714D01*
X53506607Y-58163333D01*
X53554226Y-58258571D01*
X53554226Y-58782380D01*
X54411369Y-58734761D02*
X54316130Y-58782380D01*
X54125654Y-58782380D01*
X54030416Y-58734761D01*
X53982797Y-58639523D01*
X53982797Y-58258571D01*
X54030416Y-58163333D01*
X54125654Y-58115714D01*
X54316130Y-58115714D01*
X54411369Y-58163333D01*
X54458988Y-58258571D01*
X54458988Y-58353809D01*
X53982797Y-58449047D01*
X56220892Y-58687142D02*
X56173273Y-58734761D01*
X56030416Y-58782380D01*
X55935178Y-58782380D01*
X55792321Y-58734761D01*
X55697083Y-58639523D01*
X55649464Y-58544285D01*
X55601845Y-58353809D01*
X55601845Y-58210952D01*
X55649464Y-58020476D01*
X55697083Y-57925238D01*
X55792321Y-57830000D01*
X55935178Y-57782380D01*
X56030416Y-57782380D01*
X56173273Y-57830000D01*
X56220892Y-57877619D01*
X56649464Y-58782380D02*
X56649464Y-57782380D01*
X57078035Y-58782380D02*
X57078035Y-58258571D01*
X57030416Y-58163333D01*
X56935178Y-58115714D01*
X56792321Y-58115714D01*
X56697083Y-58163333D01*
X56649464Y-58210952D01*
X57935178Y-58734761D02*
X57839940Y-58782380D01*
X57649464Y-58782380D01*
X57554226Y-58734761D01*
X57506607Y-58639523D01*
X57506607Y-58258571D01*
X57554226Y-58163333D01*
X57649464Y-58115714D01*
X57839940Y-58115714D01*
X57935178Y-58163333D01*
X57982797Y-58258571D01*
X57982797Y-58353809D01*
X57506607Y-58449047D01*
X58411369Y-58782380D02*
X58411369Y-58115714D01*
X58411369Y-58306190D02*
X58458988Y-58210952D01*
X58506607Y-58163333D01*
X58601845Y-58115714D01*
X58697083Y-58115714D01*
X59030416Y-58782380D02*
X59030416Y-58115714D01*
X59030416Y-58306190D02*
X59078035Y-58210952D01*
X59125654Y-58163333D01*
X59220892Y-58115714D01*
X59316130Y-58115714D01*
X59554226Y-58115714D02*
X59792321Y-58782380D01*
X60030416Y-58115714D02*
X59792321Y-58782380D01*
X59697083Y-59020476D01*
X59649464Y-59068095D01*
X59554226Y-59115714D01*
X61078035Y-58115714D02*
X61316130Y-58782380D01*
X61554226Y-58115714D01*
X61839940Y-57782380D02*
X62458988Y-57782380D01*
X62125654Y-58163333D01*
X62268511Y-58163333D01*
X62363750Y-58210952D01*
X62411369Y-58258571D01*
X62458988Y-58353809D01*
X62458988Y-58591904D01*
X62411369Y-58687142D01*
X62363750Y-58734761D01*
X62268511Y-58782380D01*
X61982797Y-58782380D01*
X61887559Y-58734761D01*
X61839940Y-58687142D01*
X62887559Y-58687142D02*
X62935178Y-58734761D01*
X62887559Y-58782380D01*
X62839940Y-58734761D01*
X62887559Y-58687142D01*
X62887559Y-58782380D01*
X63554226Y-57782380D02*
X63649464Y-57782380D01*
X63744702Y-57830000D01*
X63792321Y-57877619D01*
X63839940Y-57972857D01*
X63887559Y-58163333D01*
X63887559Y-58401428D01*
X63839940Y-58591904D01*
X63792321Y-58687142D01*
X63744702Y-58734761D01*
X63649464Y-58782380D01*
X63554226Y-58782380D01*
X63458988Y-58734761D01*
X63411369Y-58687142D01*
X63363750Y-58591904D01*
X63316130Y-58401428D01*
X63316130Y-58163333D01*
X63363750Y-57972857D01*
X63411369Y-57877619D01*
X63458988Y-57830000D01*
X63554226Y-57782380D01*
X65078035Y-58782380D02*
X65078035Y-57782380D01*
X65458988Y-57782380D01*
X65554226Y-57830000D01*
X65601845Y-57877619D01*
X65649464Y-57972857D01*
X65649464Y-58115714D01*
X65601845Y-58210952D01*
X65554226Y-58258571D01*
X65458988Y-58306190D01*
X65078035Y-58306190D01*
X66649464Y-58687142D02*
X66601845Y-58734761D01*
X66458988Y-58782380D01*
X66363750Y-58782380D01*
X66220892Y-58734761D01*
X66125654Y-58639523D01*
X66078035Y-58544285D01*
X66030416Y-58353809D01*
X66030416Y-58210952D01*
X66078035Y-58020476D01*
X66125654Y-57925238D01*
X66220892Y-57830000D01*
X66363750Y-57782380D01*
X66458988Y-57782380D01*
X66601845Y-57830000D01*
X66649464Y-57877619D01*
X67411369Y-58258571D02*
X67554226Y-58306190D01*
X67601845Y-58353809D01*
X67649464Y-58449047D01*
X67649464Y-58591904D01*
X67601845Y-58687142D01*
X67554226Y-58734761D01*
X67458988Y-58782380D01*
X67078035Y-58782380D01*
X67078035Y-57782380D01*
X67411369Y-57782380D01*
X67506607Y-57830000D01*
X67554226Y-57877619D01*
X67601845Y-57972857D01*
X67601845Y-58068095D01*
X67554226Y-58163333D01*
X67506607Y-58210952D01*
X67411369Y-58258571D01*
X67078035Y-58258571D01*
X68839940Y-58782380D02*
X68839940Y-57782380D01*
X69078035Y-57782380D01*
X69220892Y-57830000D01*
X69316130Y-57925238D01*
X69363750Y-58020476D01*
X69411369Y-58210952D01*
X69411369Y-58353809D01*
X69363750Y-58544285D01*
X69316130Y-58639523D01*
X69220892Y-58734761D01*
X69078035Y-58782380D01*
X68839940Y-58782380D01*
X70220892Y-58734761D02*
X70125654Y-58782380D01*
X69935178Y-58782380D01*
X69839940Y-58734761D01*
X69792321Y-58639523D01*
X69792321Y-58258571D01*
X69839940Y-58163333D01*
X69935178Y-58115714D01*
X70125654Y-58115714D01*
X70220892Y-58163333D01*
X70268511Y-58258571D01*
X70268511Y-58353809D01*
X69792321Y-58449047D01*
X70649464Y-58734761D02*
X70744702Y-58782380D01*
X70935178Y-58782380D01*
X71030416Y-58734761D01*
X71078035Y-58639523D01*
X71078035Y-58591904D01*
X71030416Y-58496666D01*
X70935178Y-58449047D01*
X70792321Y-58449047D01*
X70697083Y-58401428D01*
X70649464Y-58306190D01*
X70649464Y-58258571D01*
X70697083Y-58163333D01*
X70792321Y-58115714D01*
X70935178Y-58115714D01*
X71030416Y-58163333D01*
X71506607Y-58782380D02*
X71506607Y-58115714D01*
X71506607Y-57782380D02*
X71458988Y-57830000D01*
X71506607Y-57877619D01*
X71554226Y-57830000D01*
X71506607Y-57782380D01*
X71506607Y-57877619D01*
X72411369Y-58115714D02*
X72411369Y-58925238D01*
X72363750Y-59020476D01*
X72316130Y-59068095D01*
X72220892Y-59115714D01*
X72078035Y-59115714D01*
X71982797Y-59068095D01*
X72411369Y-58734761D02*
X72316130Y-58782380D01*
X72125654Y-58782380D01*
X72030416Y-58734761D01*
X71982797Y-58687142D01*
X71935178Y-58591904D01*
X71935178Y-58306190D01*
X71982797Y-58210952D01*
X72030416Y-58163333D01*
X72125654Y-58115714D01*
X72316130Y-58115714D01*
X72411369Y-58163333D01*
X72887559Y-58115714D02*
X72887559Y-58782380D01*
X72887559Y-58210952D02*
X72935178Y-58163333D01*
X73030416Y-58115714D01*
X73173273Y-58115714D01*
X73268511Y-58163333D01*
X73316130Y-58258571D01*
X73316130Y-58782380D01*
X74173273Y-58734761D02*
X74078035Y-58782380D01*
X73887559Y-58782380D01*
X73792321Y-58734761D01*
X73744702Y-58639523D01*
X73744702Y-58258571D01*
X73792321Y-58163333D01*
X73887559Y-58115714D01*
X74078035Y-58115714D01*
X74173273Y-58163333D01*
X74220892Y-58258571D01*
X74220892Y-58353809D01*
X73744702Y-58449047D01*
X75078035Y-58782380D02*
X75078035Y-57782380D01*
X75078035Y-58734761D02*
X74982797Y-58782380D01*
X74792321Y-58782380D01*
X74697083Y-58734761D01*
X74649464Y-58687142D01*
X74601845Y-58591904D01*
X74601845Y-58306190D01*
X74649464Y-58210952D01*
X74697083Y-58163333D01*
X74792321Y-58115714D01*
X74982797Y-58115714D01*
X75078035Y-58163333D01*
X76316130Y-58782380D02*
X76316130Y-57782380D01*
X76316130Y-58163333D02*
X76411369Y-58115714D01*
X76601845Y-58115714D01*
X76697083Y-58163333D01*
X76744702Y-58210952D01*
X76792321Y-58306190D01*
X76792321Y-58591904D01*
X76744702Y-58687142D01*
X76697083Y-58734761D01*
X76601845Y-58782380D01*
X76411369Y-58782380D01*
X76316130Y-58734761D01*
X77125654Y-58115714D02*
X77363749Y-58782380D01*
X77601845Y-58115714D02*
X77363749Y-58782380D01*
X77268511Y-59020476D01*
X77220892Y-59068095D01*
X77125654Y-59115714D01*
X78601845Y-58115714D02*
X78982797Y-58115714D01*
X78744702Y-58782380D02*
X78744702Y-57925238D01*
X78792321Y-57830000D01*
X78887559Y-57782380D01*
X78982797Y-57782380D01*
X79458988Y-58782380D02*
X79363749Y-58734761D01*
X79316130Y-58687142D01*
X79268511Y-58591904D01*
X79268511Y-58306190D01*
X79316130Y-58210952D01*
X79363749Y-58163333D01*
X79458988Y-58115714D01*
X79601845Y-58115714D01*
X79697083Y-58163333D01*
X79744702Y-58210952D01*
X79792321Y-58306190D01*
X79792321Y-58591904D01*
X79744702Y-58687142D01*
X79697083Y-58734761D01*
X79601845Y-58782380D01*
X79458988Y-58782380D01*
X80363749Y-58782380D02*
X80268511Y-58734761D01*
X80220892Y-58687142D01*
X80173273Y-58591904D01*
X80173273Y-58306190D01*
X80220892Y-58210952D01*
X80268511Y-58163333D01*
X80363749Y-58115714D01*
X80506607Y-58115714D01*
X80601845Y-58163333D01*
X80649464Y-58210952D01*
X80697083Y-58306190D01*
X80697083Y-58591904D01*
X80649464Y-58687142D01*
X80601845Y-58734761D01*
X80506607Y-58782380D01*
X80363749Y-58782380D01*
X81078035Y-58734761D02*
X81173273Y-58782380D01*
X81363749Y-58782380D01*
X81458988Y-58734761D01*
X81506607Y-58639523D01*
X81506607Y-58591904D01*
X81458988Y-58496666D01*
X81363749Y-58449047D01*
X81220892Y-58449047D01*
X81125654Y-58401428D01*
X81078035Y-58306190D01*
X81078035Y-58258571D01*
X81125654Y-58163333D01*
X81220892Y-58115714D01*
X81363749Y-58115714D01*
X81458988Y-58163333D01*
X81792321Y-58115714D02*
X82173273Y-58115714D01*
X81935178Y-57782380D02*
X81935178Y-58639523D01*
X81982797Y-58734761D01*
X82078035Y-58782380D01*
X82173273Y-58782380D01*
X82935178Y-58782380D02*
X82935178Y-58258571D01*
X82887559Y-58163333D01*
X82792321Y-58115714D01*
X82601845Y-58115714D01*
X82506607Y-58163333D01*
X82935178Y-58734761D02*
X82839940Y-58782380D01*
X82601845Y-58782380D01*
X82506607Y-58734761D01*
X82458988Y-58639523D01*
X82458988Y-58544285D01*
X82506607Y-58449047D01*
X82601845Y-58401428D01*
X82839940Y-58401428D01*
X82935178Y-58353809D01*
X83411369Y-58115714D02*
X83411369Y-58782380D01*
X83411369Y-58210952D02*
X83458988Y-58163333D01*
X83554226Y-58115714D01*
X83697083Y-58115714D01*
X83792321Y-58163333D01*
X83839940Y-58258571D01*
X83839940Y-58782380D01*
D11*
G36*
X240979491Y-79808791D02*
G01*
X241073575Y-79812451D01*
X241143990Y-79821455D01*
X241204301Y-79838181D01*
X241268070Y-79865005D01*
X241322251Y-79891171D01*
X241493298Y-79999513D01*
X241626548Y-80138673D01*
X241723879Y-80311378D01*
X241787168Y-80520354D01*
X241798575Y-80582800D01*
X241805864Y-80653770D01*
X241812403Y-80766525D01*
X241817903Y-80912049D01*
X241822074Y-81081330D01*
X241824627Y-81265353D01*
X241825308Y-81414650D01*
X241825500Y-82081400D01*
X241393700Y-82081400D01*
X241393700Y-81362110D01*
X241393093Y-81133457D01*
X241391100Y-80949758D01*
X241387463Y-80805177D01*
X241381922Y-80693882D01*
X241374219Y-80610037D01*
X241364095Y-80547809D01*
X241356197Y-80516534D01*
X241291437Y-80378307D01*
X241190530Y-80275106D01*
X241055103Y-80207984D01*
X240886780Y-80177999D01*
X240832312Y-80176400D01*
X240669841Y-80186817D01*
X240539862Y-80221694D01*
X240427764Y-80286472D01*
X240347860Y-80356726D01*
X240293673Y-80413731D01*
X240250291Y-80469501D01*
X240216523Y-80530365D01*
X240191179Y-80602652D01*
X240173067Y-80692689D01*
X240160996Y-80806805D01*
X240153777Y-80951327D01*
X240150217Y-81132585D01*
X240149126Y-81356907D01*
X240149100Y-81412910D01*
X240149100Y-82081400D01*
X239717300Y-82081400D01*
X239717300Y-79820800D01*
X240149100Y-79820800D01*
X240149100Y-80078707D01*
X240231364Y-79996442D01*
X240317752Y-79920836D01*
X240408455Y-79867569D01*
X240514478Y-79833282D01*
X240646824Y-79814616D01*
X240816495Y-79808211D01*
X240848174Y-79808100D01*
X240979491Y-79808791D01*
G37*
X240979491Y-79808791D02*
X241073575Y-79812451D01*
X241143990Y-79821455D01*
X241204301Y-79838181D01*
X241268070Y-79865005D01*
X241322251Y-79891171D01*
X241493298Y-79999513D01*
X241626548Y-80138673D01*
X241723879Y-80311378D01*
X241787168Y-80520354D01*
X241798575Y-80582800D01*
X241805864Y-80653770D01*
X241812403Y-80766525D01*
X241817903Y-80912049D01*
X241822074Y-81081330D01*
X241824627Y-81265353D01*
X241825308Y-81414650D01*
X241825500Y-82081400D01*
X241393700Y-82081400D01*
X241393700Y-81362110D01*
X241393093Y-81133457D01*
X241391100Y-80949758D01*
X241387463Y-80805177D01*
X241381922Y-80693882D01*
X241374219Y-80610037D01*
X241364095Y-80547809D01*
X241356197Y-80516534D01*
X241291437Y-80378307D01*
X241190530Y-80275106D01*
X241055103Y-80207984D01*
X240886780Y-80177999D01*
X240832312Y-80176400D01*
X240669841Y-80186817D01*
X240539862Y-80221694D01*
X240427764Y-80286472D01*
X240347860Y-80356726D01*
X240293673Y-80413731D01*
X240250291Y-80469501D01*
X240216523Y-80530365D01*
X240191179Y-80602652D01*
X240173067Y-80692689D01*
X240160996Y-80806805D01*
X240153777Y-80951327D01*
X240150217Y-81132585D01*
X240149126Y-81356907D01*
X240149100Y-81412910D01*
X240149100Y-82081400D01*
X239717300Y-82081400D01*
X239717300Y-79820800D01*
X240149100Y-79820800D01*
X240149100Y-80078707D01*
X240231364Y-79996442D01*
X240317752Y-79920836D01*
X240408455Y-79867569D01*
X240514478Y-79833282D01*
X240646824Y-79814616D01*
X240816495Y-79808211D01*
X240848174Y-79808100D01*
X240979491Y-79808791D01*
G36*
X239317237Y-79785436D02*
G01*
X239463300Y-79801961D01*
X239463300Y-80172729D01*
X239329950Y-80159068D01*
X239145851Y-80164139D01*
X238976452Y-80215922D01*
X238827881Y-80311056D01*
X238706266Y-80446179D01*
X238657389Y-80527869D01*
X238574300Y-80688838D01*
X238574300Y-82081400D01*
X238142500Y-82081400D01*
X238142500Y-79818745D01*
X238352050Y-79826122D01*
X238561600Y-79833500D01*
X238587000Y-80055358D01*
X238637769Y-79998946D01*
X238755946Y-79902357D01*
X238907798Y-79831267D01*
X239081042Y-79789536D01*
X239263390Y-79781025D01*
X239317237Y-79785436D01*
G37*
X239317237Y-79785436D02*
X239463300Y-79801961D01*
X239463300Y-80172729D01*
X239329950Y-80159068D01*
X239145851Y-80164139D01*
X238976452Y-80215922D01*
X238827881Y-80311056D01*
X238706266Y-80446179D01*
X238657389Y-80527869D01*
X238574300Y-80688838D01*
X238574300Y-82081400D01*
X238142500Y-82081400D01*
X238142500Y-79818745D01*
X238352050Y-79826122D01*
X238561600Y-79833500D01*
X238587000Y-80055358D01*
X238637769Y-79998946D01*
X238755946Y-79902357D01*
X238907798Y-79831267D01*
X239081042Y-79789536D01*
X239263390Y-79781025D01*
X239317237Y-79785436D01*
G36*
X243511530Y-79818406D02*
G01*
X243733894Y-79884705D01*
X243932133Y-79990213D01*
X244102079Y-80130847D01*
X244239559Y-80302524D01*
X244340404Y-80501162D01*
X244400443Y-80722678D01*
X244416300Y-80918336D01*
X244416300Y-81065400D01*
X242511300Y-81065400D01*
X242511300Y-81138498D01*
X242534217Y-81261649D01*
X242597655Y-81389172D01*
X242693643Y-81510298D01*
X242814211Y-81614256D01*
X242903388Y-81668239D01*
X243039242Y-81719647D01*
X243199904Y-81744683D01*
X243212872Y-81745596D01*
X243395129Y-81743127D01*
X243548803Y-81706329D01*
X243686495Y-81630614D01*
X243801193Y-81531419D01*
X243937013Y-81395600D01*
X244140268Y-81395600D01*
X244240811Y-81396246D01*
X244300033Y-81400122D01*
X244327410Y-81410133D01*
X244332419Y-81429182D01*
X244326730Y-81452750D01*
X244288417Y-81538398D01*
X244223499Y-81641086D01*
X244143774Y-81744606D01*
X244061044Y-81832746D01*
X244030857Y-81859173D01*
X243831990Y-81988773D01*
X243609302Y-82078237D01*
X243372596Y-82125509D01*
X243131673Y-82128535D01*
X242920357Y-82092004D01*
X242699245Y-82007879D01*
X242504425Y-81884023D01*
X242340825Y-81725554D01*
X242213374Y-81537590D01*
X242127001Y-81325249D01*
X242107844Y-81248299D01*
X242077308Y-80998242D01*
X242091041Y-80758661D01*
X242103222Y-80709800D01*
X242512557Y-80709800D01*
X243235828Y-80709800D01*
X243448414Y-80709528D01*
X243615499Y-80708521D01*
X243742379Y-80706494D01*
X243834351Y-80703158D01*
X243896712Y-80698229D01*
X243934759Y-80691420D01*
X243953788Y-80682444D01*
X243959097Y-80671014D01*
X243959100Y-80670688D01*
X243938723Y-80588758D01*
X243884025Y-80493173D01*
X243804652Y-80395722D01*
X243710248Y-80308195D01*
X243610461Y-80242383D01*
X243607403Y-80240826D01*
X243468347Y-80193277D01*
X243304233Y-80172014D01*
X243133428Y-80176960D01*
X242974298Y-80208039D01*
X242882560Y-80243844D01*
X242736026Y-80345486D01*
X242617149Y-80486797D01*
X242536765Y-80646127D01*
X242512557Y-80709800D01*
X242103222Y-80709800D01*
X242146867Y-80534735D01*
X242242606Y-80331643D01*
X242376079Y-80154563D01*
X242545108Y-80008672D01*
X242657999Y-79940689D01*
X242852603Y-79856746D01*
X243049926Y-79809901D01*
X243269213Y-79795400D01*
X243511530Y-79818406D01*
G37*
X243511530Y-79818406D02*
X243733894Y-79884705D01*
X243932133Y-79990213D01*
X244102079Y-80130847D01*
X244239559Y-80302524D01*
X244340404Y-80501162D01*
X244400443Y-80722678D01*
X244416300Y-80918336D01*
X244416300Y-81065400D01*
X242511300Y-81065400D01*
X242511300Y-81138498D01*
X242534217Y-81261649D01*
X242597655Y-81389172D01*
X242693643Y-81510298D01*
X242814211Y-81614256D01*
X242903388Y-81668239D01*
X243039242Y-81719647D01*
X243199904Y-81744683D01*
X243212872Y-81745596D01*
X243395129Y-81743127D01*
X243548803Y-81706329D01*
X243686495Y-81630614D01*
X243801193Y-81531419D01*
X243937013Y-81395600D01*
X244140268Y-81395600D01*
X244240811Y-81396246D01*
X244300033Y-81400122D01*
X244327410Y-81410133D01*
X244332419Y-81429182D01*
X244326730Y-81452750D01*
X244288417Y-81538398D01*
X244223499Y-81641086D01*
X244143774Y-81744606D01*
X244061044Y-81832746D01*
X244030857Y-81859173D01*
X243831990Y-81988773D01*
X243609302Y-82078237D01*
X243372596Y-82125509D01*
X243131673Y-82128535D01*
X242920357Y-82092004D01*
X242699245Y-82007879D01*
X242504425Y-81884023D01*
X242340825Y-81725554D01*
X242213374Y-81537590D01*
X242127001Y-81325249D01*
X242107844Y-81248299D01*
X242077308Y-80998242D01*
X242091041Y-80758661D01*
X242103222Y-80709800D01*
X242512557Y-80709800D01*
X243235828Y-80709800D01*
X243448414Y-80709528D01*
X243615499Y-80708521D01*
X243742379Y-80706494D01*
X243834351Y-80703158D01*
X243896712Y-80698229D01*
X243934759Y-80691420D01*
X243953788Y-80682444D01*
X243959097Y-80671014D01*
X243959100Y-80670688D01*
X243938723Y-80588758D01*
X243884025Y-80493173D01*
X243804652Y-80395722D01*
X243710248Y-80308195D01*
X243610461Y-80242383D01*
X243607403Y-80240826D01*
X243468347Y-80193277D01*
X243304233Y-80172014D01*
X243133428Y-80176960D01*
X242974298Y-80208039D01*
X242882560Y-80243844D01*
X242736026Y-80345486D01*
X242617149Y-80486797D01*
X242536765Y-80646127D01*
X242512557Y-80709800D01*
X242103222Y-80709800D01*
X242146867Y-80534735D01*
X242242606Y-80331643D01*
X242376079Y-80154563D01*
X242545108Y-80008672D01*
X242657999Y-79940689D01*
X242852603Y-79856746D01*
X243049926Y-79809901D01*
X243269213Y-79795400D01*
X243511530Y-79818406D01*
G36*
X236719986Y-79801840D02*
G01*
X236973440Y-79837111D01*
X237201525Y-79913807D01*
X237401175Y-80029865D01*
X237569325Y-80183222D01*
X237702908Y-80371816D01*
X237767456Y-80506600D01*
X237799018Y-80620705D01*
X237819285Y-80768371D01*
X237828030Y-80933580D01*
X237825025Y-81100313D01*
X237810043Y-81252551D01*
X237782856Y-81374275D01*
X237779905Y-81382900D01*
X237683519Y-81580172D01*
X237544275Y-81756574D01*
X237367679Y-81906769D01*
X237159241Y-82025421D01*
X237084340Y-82056770D01*
X236952321Y-82093019D01*
X236789335Y-82116467D01*
X236613781Y-82126287D01*
X236444060Y-82121650D01*
X236298574Y-82101729D01*
X236265753Y-82093599D01*
X236051853Y-82011401D01*
X235857121Y-81893093D01*
X235690155Y-81745635D01*
X235559556Y-81575986D01*
X235508682Y-81480895D01*
X235470337Y-81378102D01*
X235436151Y-81253876D01*
X235416099Y-81150628D01*
X235408748Y-81009224D01*
X235833074Y-81009224D01*
X235847409Y-81156866D01*
X235867541Y-81238207D01*
X235920794Y-81350941D01*
X236001195Y-81466333D01*
X236095178Y-81567702D01*
X236189174Y-81638365D01*
X236195958Y-81642020D01*
X236392698Y-81718118D01*
X236597689Y-81748463D01*
X236801104Y-81732243D01*
X236913664Y-81701468D01*
X237090944Y-81614347D01*
X237235410Y-81490677D01*
X237342587Y-81334341D01*
X237347020Y-81325466D01*
X237400010Y-81169401D01*
X237421993Y-80992298D01*
X237412639Y-80813017D01*
X237371621Y-80650421D01*
X237359289Y-80620900D01*
X237261958Y-80461906D01*
X237134261Y-80337092D01*
X236983564Y-80246623D01*
X236817236Y-80190666D01*
X236642642Y-80169386D01*
X236467149Y-80182949D01*
X236298124Y-80231522D01*
X236142934Y-80315270D01*
X236008945Y-80434360D01*
X235903965Y-80588101D01*
X235862419Y-80705807D01*
X235838433Y-80852526D01*
X235833074Y-81009224D01*
X235408748Y-81009224D01*
X235403238Y-80903236D01*
X235435650Y-80668693D01*
X235510850Y-80452052D01*
X235626357Y-80258365D01*
X235779687Y-80092687D01*
X235968360Y-79960069D01*
X236012419Y-79936803D01*
X236186705Y-79862053D01*
X236358030Y-79817281D01*
X236543905Y-79799147D01*
X236719986Y-79801840D01*
G37*
X236719986Y-79801840D02*
X236973440Y-79837111D01*
X237201525Y-79913807D01*
X237401175Y-80029865D01*
X237569325Y-80183222D01*
X237702908Y-80371816D01*
X237767456Y-80506600D01*
X237799018Y-80620705D01*
X237819285Y-80768371D01*
X237828030Y-80933580D01*
X237825025Y-81100313D01*
X237810043Y-81252551D01*
X237782856Y-81374275D01*
X237779905Y-81382900D01*
X237683519Y-81580172D01*
X237544275Y-81756574D01*
X237367679Y-81906769D01*
X237159241Y-82025421D01*
X237084340Y-82056770D01*
X236952321Y-82093019D01*
X236789335Y-82116467D01*
X236613781Y-82126287D01*
X236444060Y-82121650D01*
X236298574Y-82101729D01*
X236265753Y-82093599D01*
X236051853Y-82011401D01*
X235857121Y-81893093D01*
X235690155Y-81745635D01*
X235559556Y-81575986D01*
X235508682Y-81480895D01*
X235470337Y-81378102D01*
X235436151Y-81253876D01*
X235416099Y-81150628D01*
X235408748Y-81009224D01*
X235833074Y-81009224D01*
X235847409Y-81156866D01*
X235867541Y-81238207D01*
X235920794Y-81350941D01*
X236001195Y-81466333D01*
X236095178Y-81567702D01*
X236189174Y-81638365D01*
X236195958Y-81642020D01*
X236392698Y-81718118D01*
X236597689Y-81748463D01*
X236801104Y-81732243D01*
X236913664Y-81701468D01*
X237090944Y-81614347D01*
X237235410Y-81490677D01*
X237342587Y-81334341D01*
X237347020Y-81325466D01*
X237400010Y-81169401D01*
X237421993Y-80992298D01*
X237412639Y-80813017D01*
X237371621Y-80650421D01*
X237359289Y-80620900D01*
X237261958Y-80461906D01*
X237134261Y-80337092D01*
X236983564Y-80246623D01*
X236817236Y-80190666D01*
X236642642Y-80169386D01*
X236467149Y-80182949D01*
X236298124Y-80231522D01*
X236142934Y-80315270D01*
X236008945Y-80434360D01*
X235903965Y-80588101D01*
X235862419Y-80705807D01*
X235838433Y-80852526D01*
X235833074Y-81009224D01*
X235408748Y-81009224D01*
X235403238Y-80903236D01*
X235435650Y-80668693D01*
X235510850Y-80452052D01*
X235626357Y-80258365D01*
X235779687Y-80092687D01*
X235968360Y-79960069D01*
X236012419Y-79936803D01*
X236186705Y-79862053D01*
X236358030Y-79817281D01*
X236543905Y-79799147D01*
X236719986Y-79801840D01*
G36*
X234337049Y-79815988D02*
G01*
X234451748Y-79842102D01*
X234672850Y-79932639D01*
X234864293Y-80059036D01*
X235021222Y-80216988D01*
X235138782Y-80402188D01*
X235173437Y-80482254D01*
X235207464Y-80575731D01*
X235219083Y-80634761D01*
X235201798Y-80667261D01*
X235149112Y-80681149D01*
X235054529Y-80684343D01*
X235007569Y-80684400D01*
X234793639Y-80684399D01*
X234762733Y-80590754D01*
X234696143Y-80464894D01*
X234589638Y-80353503D01*
X234453463Y-80263012D01*
X234297864Y-80199854D01*
X234133085Y-80170461D01*
X234091199Y-80169142D01*
X233908869Y-80191910D01*
X233738565Y-80256221D01*
X233589016Y-80356089D01*
X233468953Y-80485526D01*
X233387105Y-80638547D01*
X233380907Y-80656267D01*
X233347356Y-80814924D01*
X233341573Y-80990402D01*
X233362259Y-81164327D01*
X233408113Y-81318322D01*
X233431175Y-81366531D01*
X233536904Y-81517138D01*
X233671779Y-81629303D01*
X233819102Y-81700915D01*
X233997789Y-81743926D01*
X234177259Y-81743773D01*
X234349072Y-81703785D01*
X234504790Y-81627291D01*
X234635974Y-81517622D01*
X234734184Y-81378106D01*
X234755767Y-81331389D01*
X234802400Y-81217990D01*
X235011950Y-81217895D01*
X235114668Y-81218561D01*
X235176784Y-81222620D01*
X235208495Y-81232992D01*
X235219997Y-81252594D01*
X235221500Y-81277887D01*
X235205975Y-81352902D01*
X235164424Y-81452781D01*
X235104378Y-81564252D01*
X235033369Y-81674041D01*
X234958929Y-81768876D01*
X234920038Y-81809119D01*
X234740264Y-81944131D01*
X234531407Y-82044811D01*
X234304560Y-82107913D01*
X234070818Y-82130194D01*
X233875300Y-82114664D01*
X233682087Y-82063943D01*
X233494451Y-81980877D01*
X233324760Y-81872860D01*
X233185383Y-81747289D01*
X233118489Y-81662165D01*
X233037160Y-81527841D01*
X232981270Y-81402887D01*
X232946691Y-81272138D01*
X232929293Y-81120430D01*
X232924914Y-80951100D01*
X232926419Y-80810194D01*
X232932121Y-80706188D01*
X232943798Y-80625236D01*
X232963230Y-80553494D01*
X232982851Y-80500197D01*
X233088497Y-80300543D01*
X233234762Y-80124026D01*
X233413876Y-79978316D01*
X233618069Y-79871085D01*
X233621300Y-79869802D01*
X233777283Y-79825914D01*
X233961255Y-79801892D01*
X234154187Y-79798372D01*
X234337049Y-79815988D01*
G37*
X234337049Y-79815988D02*
X234451748Y-79842102D01*
X234672850Y-79932639D01*
X234864293Y-80059036D01*
X235021222Y-80216988D01*
X235138782Y-80402188D01*
X235173437Y-80482254D01*
X235207464Y-80575731D01*
X235219083Y-80634761D01*
X235201798Y-80667261D01*
X235149112Y-80681149D01*
X235054529Y-80684343D01*
X235007569Y-80684400D01*
X234793639Y-80684399D01*
X234762733Y-80590754D01*
X234696143Y-80464894D01*
X234589638Y-80353503D01*
X234453463Y-80263012D01*
X234297864Y-80199854D01*
X234133085Y-80170461D01*
X234091199Y-80169142D01*
X233908869Y-80191910D01*
X233738565Y-80256221D01*
X233589016Y-80356089D01*
X233468953Y-80485526D01*
X233387105Y-80638547D01*
X233380907Y-80656267D01*
X233347356Y-80814924D01*
X233341573Y-80990402D01*
X233362259Y-81164327D01*
X233408113Y-81318322D01*
X233431175Y-81366531D01*
X233536904Y-81517138D01*
X233671779Y-81629303D01*
X233819102Y-81700915D01*
X233997789Y-81743926D01*
X234177259Y-81743773D01*
X234349072Y-81703785D01*
X234504790Y-81627291D01*
X234635974Y-81517622D01*
X234734184Y-81378106D01*
X234755767Y-81331389D01*
X234802400Y-81217990D01*
X235011950Y-81217895D01*
X235114668Y-81218561D01*
X235176784Y-81222620D01*
X235208495Y-81232992D01*
X235219997Y-81252594D01*
X235221500Y-81277887D01*
X235205975Y-81352902D01*
X235164424Y-81452781D01*
X235104378Y-81564252D01*
X235033369Y-81674041D01*
X234958929Y-81768876D01*
X234920038Y-81809119D01*
X234740264Y-81944131D01*
X234531407Y-82044811D01*
X234304560Y-82107913D01*
X234070818Y-82130194D01*
X233875300Y-82114664D01*
X233682087Y-82063943D01*
X233494451Y-81980877D01*
X233324760Y-81872860D01*
X233185383Y-81747289D01*
X233118489Y-81662165D01*
X233037160Y-81527841D01*
X232981270Y-81402887D01*
X232946691Y-81272138D01*
X232929293Y-81120430D01*
X232924914Y-80951100D01*
X232926419Y-80810194D01*
X232932121Y-80706188D01*
X232943798Y-80625236D01*
X232963230Y-80553494D01*
X232982851Y-80500197D01*
X233088497Y-80300543D01*
X233234762Y-80124026D01*
X233413876Y-79978316D01*
X233618069Y-79871085D01*
X233621300Y-79869802D01*
X233777283Y-79825914D01*
X233961255Y-79801892D01*
X234154187Y-79798372D01*
X234337049Y-79815988D01*
G36*
X60469491Y-79658791D02*
G01*
X60563575Y-79662451D01*
X60633990Y-79671455D01*
X60694301Y-79688181D01*
X60758070Y-79715005D01*
X60812251Y-79741171D01*
X60983298Y-79849513D01*
X61116548Y-79988673D01*
X61213879Y-80161378D01*
X61277168Y-80370354D01*
X61288575Y-80432800D01*
X61295864Y-80503770D01*
X61302403Y-80616525D01*
X61307903Y-80762049D01*
X61312074Y-80931330D01*
X61314627Y-81115353D01*
X61315308Y-81264650D01*
X61315500Y-81931400D01*
X60883700Y-81931400D01*
X60883700Y-81212110D01*
X60883093Y-80983457D01*
X60881100Y-80799758D01*
X60877463Y-80655177D01*
X60871922Y-80543882D01*
X60864219Y-80460037D01*
X60854095Y-80397809D01*
X60846197Y-80366534D01*
X60781437Y-80228307D01*
X60680530Y-80125106D01*
X60545103Y-80057984D01*
X60376780Y-80027999D01*
X60322312Y-80026400D01*
X60159841Y-80036817D01*
X60029862Y-80071694D01*
X59917764Y-80136472D01*
X59837860Y-80206726D01*
X59783673Y-80263731D01*
X59740291Y-80319501D01*
X59706523Y-80380365D01*
X59681179Y-80452652D01*
X59663067Y-80542689D01*
X59650996Y-80656805D01*
X59643777Y-80801327D01*
X59640217Y-80982585D01*
X59639126Y-81206907D01*
X59639100Y-81262910D01*
X59639100Y-81931400D01*
X59207300Y-81931400D01*
X59207300Y-79670800D01*
X59639100Y-79670800D01*
X59639100Y-79928707D01*
X59721364Y-79846442D01*
X59807752Y-79770836D01*
X59898455Y-79717569D01*
X60004478Y-79683282D01*
X60136824Y-79664616D01*
X60306495Y-79658211D01*
X60338174Y-79658100D01*
X60469491Y-79658791D01*
G37*
X60469491Y-79658791D02*
X60563575Y-79662451D01*
X60633990Y-79671455D01*
X60694301Y-79688181D01*
X60758070Y-79715005D01*
X60812251Y-79741171D01*
X60983298Y-79849513D01*
X61116548Y-79988673D01*
X61213879Y-80161378D01*
X61277168Y-80370354D01*
X61288575Y-80432800D01*
X61295864Y-80503770D01*
X61302403Y-80616525D01*
X61307903Y-80762049D01*
X61312074Y-80931330D01*
X61314627Y-81115353D01*
X61315308Y-81264650D01*
X61315500Y-81931400D01*
X60883700Y-81931400D01*
X60883700Y-81212110D01*
X60883093Y-80983457D01*
X60881100Y-80799758D01*
X60877463Y-80655177D01*
X60871922Y-80543882D01*
X60864219Y-80460037D01*
X60854095Y-80397809D01*
X60846197Y-80366534D01*
X60781437Y-80228307D01*
X60680530Y-80125106D01*
X60545103Y-80057984D01*
X60376780Y-80027999D01*
X60322312Y-80026400D01*
X60159841Y-80036817D01*
X60029862Y-80071694D01*
X59917764Y-80136472D01*
X59837860Y-80206726D01*
X59783673Y-80263731D01*
X59740291Y-80319501D01*
X59706523Y-80380365D01*
X59681179Y-80452652D01*
X59663067Y-80542689D01*
X59650996Y-80656805D01*
X59643777Y-80801327D01*
X59640217Y-80982585D01*
X59639126Y-81206907D01*
X59639100Y-81262910D01*
X59639100Y-81931400D01*
X59207300Y-81931400D01*
X59207300Y-79670800D01*
X59639100Y-79670800D01*
X59639100Y-79928707D01*
X59721364Y-79846442D01*
X59807752Y-79770836D01*
X59898455Y-79717569D01*
X60004478Y-79683282D01*
X60136824Y-79664616D01*
X60306495Y-79658211D01*
X60338174Y-79658100D01*
X60469491Y-79658791D01*
G36*
X58807237Y-79635436D02*
G01*
X58953300Y-79651961D01*
X58953300Y-80022729D01*
X58819950Y-80009068D01*
X58635851Y-80014139D01*
X58466452Y-80065922D01*
X58317881Y-80161056D01*
X58196266Y-80296179D01*
X58147389Y-80377869D01*
X58064300Y-80538838D01*
X58064300Y-81931400D01*
X57632500Y-81931400D01*
X57632500Y-79668745D01*
X57842050Y-79676122D01*
X58051600Y-79683500D01*
X58077000Y-79905358D01*
X58127769Y-79848946D01*
X58245946Y-79752357D01*
X58397798Y-79681267D01*
X58571042Y-79639536D01*
X58753390Y-79631025D01*
X58807237Y-79635436D01*
G37*
X58807237Y-79635436D02*
X58953300Y-79651961D01*
X58953300Y-80022729D01*
X58819950Y-80009068D01*
X58635851Y-80014139D01*
X58466452Y-80065922D01*
X58317881Y-80161056D01*
X58196266Y-80296179D01*
X58147389Y-80377869D01*
X58064300Y-80538838D01*
X58064300Y-81931400D01*
X57632500Y-81931400D01*
X57632500Y-79668745D01*
X57842050Y-79676122D01*
X58051600Y-79683500D01*
X58077000Y-79905358D01*
X58127769Y-79848946D01*
X58245946Y-79752357D01*
X58397798Y-79681267D01*
X58571042Y-79639536D01*
X58753390Y-79631025D01*
X58807237Y-79635436D01*
G36*
X63001530Y-79668406D02*
G01*
X63223894Y-79734705D01*
X63422133Y-79840213D01*
X63592079Y-79980847D01*
X63729559Y-80152524D01*
X63830404Y-80351162D01*
X63890443Y-80572678D01*
X63906300Y-80768336D01*
X63906300Y-80915400D01*
X62001300Y-80915400D01*
X62001300Y-80988498D01*
X62024217Y-81111649D01*
X62087655Y-81239172D01*
X62183643Y-81360298D01*
X62304211Y-81464256D01*
X62393388Y-81518239D01*
X62529242Y-81569647D01*
X62689904Y-81594683D01*
X62702872Y-81595596D01*
X62885129Y-81593127D01*
X63038803Y-81556329D01*
X63176495Y-81480614D01*
X63291193Y-81381419D01*
X63427013Y-81245600D01*
X63630268Y-81245600D01*
X63730811Y-81246246D01*
X63790033Y-81250122D01*
X63817410Y-81260133D01*
X63822419Y-81279182D01*
X63816730Y-81302750D01*
X63778417Y-81388398D01*
X63713499Y-81491086D01*
X63633774Y-81594606D01*
X63551044Y-81682746D01*
X63520857Y-81709173D01*
X63321990Y-81838773D01*
X63099302Y-81928237D01*
X62862596Y-81975509D01*
X62621673Y-81978535D01*
X62410357Y-81942004D01*
X62189245Y-81857879D01*
X61994425Y-81734023D01*
X61830825Y-81575554D01*
X61703374Y-81387590D01*
X61617001Y-81175249D01*
X61597844Y-81098299D01*
X61567308Y-80848242D01*
X61581041Y-80608661D01*
X61593222Y-80559800D01*
X62002557Y-80559800D01*
X62725828Y-80559800D01*
X62938414Y-80559528D01*
X63105499Y-80558521D01*
X63232379Y-80556494D01*
X63324351Y-80553158D01*
X63386712Y-80548229D01*
X63424759Y-80541420D01*
X63443788Y-80532444D01*
X63449097Y-80521014D01*
X63449100Y-80520688D01*
X63428723Y-80438758D01*
X63374025Y-80343173D01*
X63294652Y-80245722D01*
X63200248Y-80158195D01*
X63100461Y-80092383D01*
X63097403Y-80090826D01*
X62958347Y-80043277D01*
X62794233Y-80022014D01*
X62623428Y-80026960D01*
X62464298Y-80058039D01*
X62372560Y-80093844D01*
X62226026Y-80195486D01*
X62107149Y-80336797D01*
X62026765Y-80496127D01*
X62002557Y-80559800D01*
X61593222Y-80559800D01*
X61636867Y-80384735D01*
X61732606Y-80181643D01*
X61866079Y-80004563D01*
X62035108Y-79858672D01*
X62147999Y-79790689D01*
X62342603Y-79706746D01*
X62539926Y-79659901D01*
X62759213Y-79645400D01*
X63001530Y-79668406D01*
G37*
X63001530Y-79668406D02*
X63223894Y-79734705D01*
X63422133Y-79840213D01*
X63592079Y-79980847D01*
X63729559Y-80152524D01*
X63830404Y-80351162D01*
X63890443Y-80572678D01*
X63906300Y-80768336D01*
X63906300Y-80915400D01*
X62001300Y-80915400D01*
X62001300Y-80988498D01*
X62024217Y-81111649D01*
X62087655Y-81239172D01*
X62183643Y-81360298D01*
X62304211Y-81464256D01*
X62393388Y-81518239D01*
X62529242Y-81569647D01*
X62689904Y-81594683D01*
X62702872Y-81595596D01*
X62885129Y-81593127D01*
X63038803Y-81556329D01*
X63176495Y-81480614D01*
X63291193Y-81381419D01*
X63427013Y-81245600D01*
X63630268Y-81245600D01*
X63730811Y-81246246D01*
X63790033Y-81250122D01*
X63817410Y-81260133D01*
X63822419Y-81279182D01*
X63816730Y-81302750D01*
X63778417Y-81388398D01*
X63713499Y-81491086D01*
X63633774Y-81594606D01*
X63551044Y-81682746D01*
X63520857Y-81709173D01*
X63321990Y-81838773D01*
X63099302Y-81928237D01*
X62862596Y-81975509D01*
X62621673Y-81978535D01*
X62410357Y-81942004D01*
X62189245Y-81857879D01*
X61994425Y-81734023D01*
X61830825Y-81575554D01*
X61703374Y-81387590D01*
X61617001Y-81175249D01*
X61597844Y-81098299D01*
X61567308Y-80848242D01*
X61581041Y-80608661D01*
X61593222Y-80559800D01*
X62002557Y-80559800D01*
X62725828Y-80559800D01*
X62938414Y-80559528D01*
X63105499Y-80558521D01*
X63232379Y-80556494D01*
X63324351Y-80553158D01*
X63386712Y-80548229D01*
X63424759Y-80541420D01*
X63443788Y-80532444D01*
X63449097Y-80521014D01*
X63449100Y-80520688D01*
X63428723Y-80438758D01*
X63374025Y-80343173D01*
X63294652Y-80245722D01*
X63200248Y-80158195D01*
X63100461Y-80092383D01*
X63097403Y-80090826D01*
X62958347Y-80043277D01*
X62794233Y-80022014D01*
X62623428Y-80026960D01*
X62464298Y-80058039D01*
X62372560Y-80093844D01*
X62226026Y-80195486D01*
X62107149Y-80336797D01*
X62026765Y-80496127D01*
X62002557Y-80559800D01*
X61593222Y-80559800D01*
X61636867Y-80384735D01*
X61732606Y-80181643D01*
X61866079Y-80004563D01*
X62035108Y-79858672D01*
X62147999Y-79790689D01*
X62342603Y-79706746D01*
X62539926Y-79659901D01*
X62759213Y-79645400D01*
X63001530Y-79668406D01*
G36*
X56209986Y-79651840D02*
G01*
X56463440Y-79687111D01*
X56691525Y-79763807D01*
X56891175Y-79879865D01*
X57059325Y-80033222D01*
X57192908Y-80221816D01*
X57257456Y-80356600D01*
X57289018Y-80470705D01*
X57309285Y-80618371D01*
X57318030Y-80783580D01*
X57315025Y-80950313D01*
X57300043Y-81102551D01*
X57272856Y-81224275D01*
X57269905Y-81232900D01*
X57173519Y-81430172D01*
X57034275Y-81606574D01*
X56857679Y-81756769D01*
X56649241Y-81875421D01*
X56574340Y-81906770D01*
X56442321Y-81943019D01*
X56279335Y-81966467D01*
X56103781Y-81976287D01*
X55934060Y-81971650D01*
X55788574Y-81951729D01*
X55755753Y-81943599D01*
X55541853Y-81861401D01*
X55347121Y-81743093D01*
X55180155Y-81595635D01*
X55049556Y-81425986D01*
X54998682Y-81330895D01*
X54960337Y-81228102D01*
X54926151Y-81103876D01*
X54906099Y-81000628D01*
X54898748Y-80859224D01*
X55323074Y-80859224D01*
X55337409Y-81006866D01*
X55357541Y-81088207D01*
X55410794Y-81200941D01*
X55491195Y-81316333D01*
X55585178Y-81417702D01*
X55679174Y-81488365D01*
X55685958Y-81492020D01*
X55882698Y-81568118D01*
X56087689Y-81598463D01*
X56291104Y-81582243D01*
X56403664Y-81551468D01*
X56580944Y-81464347D01*
X56725410Y-81340677D01*
X56832587Y-81184341D01*
X56837020Y-81175466D01*
X56890010Y-81019401D01*
X56911993Y-80842298D01*
X56902639Y-80663017D01*
X56861621Y-80500421D01*
X56849289Y-80470900D01*
X56751958Y-80311906D01*
X56624261Y-80187092D01*
X56473564Y-80096623D01*
X56307236Y-80040666D01*
X56132642Y-80019386D01*
X55957149Y-80032949D01*
X55788124Y-80081522D01*
X55632934Y-80165270D01*
X55498945Y-80284360D01*
X55393965Y-80438101D01*
X55352419Y-80555807D01*
X55328433Y-80702526D01*
X55323074Y-80859224D01*
X54898748Y-80859224D01*
X54893238Y-80753236D01*
X54925650Y-80518693D01*
X55000850Y-80302052D01*
X55116357Y-80108365D01*
X55269687Y-79942687D01*
X55458360Y-79810069D01*
X55502419Y-79786803D01*
X55676705Y-79712053D01*
X55848030Y-79667281D01*
X56033905Y-79649147D01*
X56209986Y-79651840D01*
G37*
X56209986Y-79651840D02*
X56463440Y-79687111D01*
X56691525Y-79763807D01*
X56891175Y-79879865D01*
X57059325Y-80033222D01*
X57192908Y-80221816D01*
X57257456Y-80356600D01*
X57289018Y-80470705D01*
X57309285Y-80618371D01*
X57318030Y-80783580D01*
X57315025Y-80950313D01*
X57300043Y-81102551D01*
X57272856Y-81224275D01*
X57269905Y-81232900D01*
X57173519Y-81430172D01*
X57034275Y-81606574D01*
X56857679Y-81756769D01*
X56649241Y-81875421D01*
X56574340Y-81906770D01*
X56442321Y-81943019D01*
X56279335Y-81966467D01*
X56103781Y-81976287D01*
X55934060Y-81971650D01*
X55788574Y-81951729D01*
X55755753Y-81943599D01*
X55541853Y-81861401D01*
X55347121Y-81743093D01*
X55180155Y-81595635D01*
X55049556Y-81425986D01*
X54998682Y-81330895D01*
X54960337Y-81228102D01*
X54926151Y-81103876D01*
X54906099Y-81000628D01*
X54898748Y-80859224D01*
X55323074Y-80859224D01*
X55337409Y-81006866D01*
X55357541Y-81088207D01*
X55410794Y-81200941D01*
X55491195Y-81316333D01*
X55585178Y-81417702D01*
X55679174Y-81488365D01*
X55685958Y-81492020D01*
X55882698Y-81568118D01*
X56087689Y-81598463D01*
X56291104Y-81582243D01*
X56403664Y-81551468D01*
X56580944Y-81464347D01*
X56725410Y-81340677D01*
X56832587Y-81184341D01*
X56837020Y-81175466D01*
X56890010Y-81019401D01*
X56911993Y-80842298D01*
X56902639Y-80663017D01*
X56861621Y-80500421D01*
X56849289Y-80470900D01*
X56751958Y-80311906D01*
X56624261Y-80187092D01*
X56473564Y-80096623D01*
X56307236Y-80040666D01*
X56132642Y-80019386D01*
X55957149Y-80032949D01*
X55788124Y-80081522D01*
X55632934Y-80165270D01*
X55498945Y-80284360D01*
X55393965Y-80438101D01*
X55352419Y-80555807D01*
X55328433Y-80702526D01*
X55323074Y-80859224D01*
X54898748Y-80859224D01*
X54893238Y-80753236D01*
X54925650Y-80518693D01*
X55000850Y-80302052D01*
X55116357Y-80108365D01*
X55269687Y-79942687D01*
X55458360Y-79810069D01*
X55502419Y-79786803D01*
X55676705Y-79712053D01*
X55848030Y-79667281D01*
X56033905Y-79649147D01*
X56209986Y-79651840D01*
G36*
X53827049Y-79665988D02*
G01*
X53941748Y-79692102D01*
X54162850Y-79782639D01*
X54354293Y-79909036D01*
X54511222Y-80066988D01*
X54628782Y-80252188D01*
X54663437Y-80332254D01*
X54697464Y-80425731D01*
X54709083Y-80484761D01*
X54691798Y-80517261D01*
X54639112Y-80531149D01*
X54544529Y-80534343D01*
X54497569Y-80534400D01*
X54283639Y-80534399D01*
X54252733Y-80440754D01*
X54186143Y-80314894D01*
X54079638Y-80203503D01*
X53943463Y-80113012D01*
X53787864Y-80049854D01*
X53623085Y-80020461D01*
X53581199Y-80019142D01*
X53398869Y-80041910D01*
X53228565Y-80106221D01*
X53079016Y-80206089D01*
X52958953Y-80335526D01*
X52877105Y-80488547D01*
X52870907Y-80506267D01*
X52837356Y-80664924D01*
X52831573Y-80840402D01*
X52852259Y-81014327D01*
X52898113Y-81168322D01*
X52921175Y-81216531D01*
X53026904Y-81367138D01*
X53161779Y-81479303D01*
X53309102Y-81550915D01*
X53487789Y-81593926D01*
X53667259Y-81593773D01*
X53839072Y-81553785D01*
X53994790Y-81477291D01*
X54125974Y-81367622D01*
X54224184Y-81228106D01*
X54245767Y-81181389D01*
X54292400Y-81067990D01*
X54501950Y-81067895D01*
X54604668Y-81068561D01*
X54666784Y-81072620D01*
X54698495Y-81082992D01*
X54709997Y-81102594D01*
X54711500Y-81127887D01*
X54695975Y-81202902D01*
X54654424Y-81302781D01*
X54594378Y-81414252D01*
X54523369Y-81524041D01*
X54448929Y-81618876D01*
X54410038Y-81659119D01*
X54230264Y-81794131D01*
X54021407Y-81894811D01*
X53794560Y-81957913D01*
X53560818Y-81980194D01*
X53365300Y-81964664D01*
X53172087Y-81913943D01*
X52984451Y-81830877D01*
X52814760Y-81722860D01*
X52675383Y-81597289D01*
X52608489Y-81512165D01*
X52527160Y-81377841D01*
X52471270Y-81252887D01*
X52436691Y-81122138D01*
X52419293Y-80970430D01*
X52414914Y-80801100D01*
X52416419Y-80660194D01*
X52422121Y-80556188D01*
X52433798Y-80475236D01*
X52453230Y-80403494D01*
X52472851Y-80350197D01*
X52578497Y-80150543D01*
X52724762Y-79974026D01*
X52903876Y-79828316D01*
X53108069Y-79721085D01*
X53111300Y-79719802D01*
X53267283Y-79675914D01*
X53451255Y-79651892D01*
X53644187Y-79648372D01*
X53827049Y-79665988D01*
G37*
X53827049Y-79665988D02*
X53941748Y-79692102D01*
X54162850Y-79782639D01*
X54354293Y-79909036D01*
X54511222Y-80066988D01*
X54628782Y-80252188D01*
X54663437Y-80332254D01*
X54697464Y-80425731D01*
X54709083Y-80484761D01*
X54691798Y-80517261D01*
X54639112Y-80531149D01*
X54544529Y-80534343D01*
X54497569Y-80534400D01*
X54283639Y-80534399D01*
X54252733Y-80440754D01*
X54186143Y-80314894D01*
X54079638Y-80203503D01*
X53943463Y-80113012D01*
X53787864Y-80049854D01*
X53623085Y-80020461D01*
X53581199Y-80019142D01*
X53398869Y-80041910D01*
X53228565Y-80106221D01*
X53079016Y-80206089D01*
X52958953Y-80335526D01*
X52877105Y-80488547D01*
X52870907Y-80506267D01*
X52837356Y-80664924D01*
X52831573Y-80840402D01*
X52852259Y-81014327D01*
X52898113Y-81168322D01*
X52921175Y-81216531D01*
X53026904Y-81367138D01*
X53161779Y-81479303D01*
X53309102Y-81550915D01*
X53487789Y-81593926D01*
X53667259Y-81593773D01*
X53839072Y-81553785D01*
X53994790Y-81477291D01*
X54125974Y-81367622D01*
X54224184Y-81228106D01*
X54245767Y-81181389D01*
X54292400Y-81067990D01*
X54501950Y-81067895D01*
X54604668Y-81068561D01*
X54666784Y-81072620D01*
X54698495Y-81082992D01*
X54709997Y-81102594D01*
X54711500Y-81127887D01*
X54695975Y-81202902D01*
X54654424Y-81302781D01*
X54594378Y-81414252D01*
X54523369Y-81524041D01*
X54448929Y-81618876D01*
X54410038Y-81659119D01*
X54230264Y-81794131D01*
X54021407Y-81894811D01*
X53794560Y-81957913D01*
X53560818Y-81980194D01*
X53365300Y-81964664D01*
X53172087Y-81913943D01*
X52984451Y-81830877D01*
X52814760Y-81722860D01*
X52675383Y-81597289D01*
X52608489Y-81512165D01*
X52527160Y-81377841D01*
X52471270Y-81252887D01*
X52436691Y-81122138D01*
X52419293Y-80970430D01*
X52414914Y-80801100D01*
X52416419Y-80660194D01*
X52422121Y-80556188D01*
X52433798Y-80475236D01*
X52453230Y-80403494D01*
X52472851Y-80350197D01*
X52578497Y-80150543D01*
X52724762Y-79974026D01*
X52903876Y-79828316D01*
X53108069Y-79721085D01*
X53111300Y-79719802D01*
X53267283Y-79675914D01*
X53451255Y-79651892D01*
X53644187Y-79648372D01*
X53827049Y-79665988D01*
D12*
X164437500Y-77170000D02*
X152687500Y-77170000D01*
X164437500Y-71370000D02*
X164437500Y-77170000D01*
X152687500Y-71370000D02*
X164437500Y-71370000D01*
X152687500Y-77170000D02*
X152687500Y-71370000D01*
X132234500Y-71392000D02*
X143984500Y-71392000D01*
X132234500Y-77192000D02*
X132234500Y-71392000D01*
X143984500Y-77192000D02*
X132234500Y-77192000D01*
X143984500Y-71392000D02*
X143984500Y-77192000D01*
X143562500Y-61020000D02*
X142702500Y-61020000D01*
X126062500Y-61020000D02*
X126912500Y-61020000D01*
X143562500Y-60170000D02*
X143562500Y-61020000D01*
X126062500Y-60120000D02*
X126062500Y-61020000D01*
X143562500Y-30820000D02*
X142762500Y-30820000D01*
X126062500Y-30820000D02*
X126912500Y-30820000D01*
X143562500Y-30820000D02*
X143562500Y-31670000D01*
X126062500Y-30820000D02*
X126062500Y-31670000D01*
X131062500Y-25220000D02*
X131062500Y-26520000D01*
X131062500Y-26520000D02*
X138562500Y-26520000D01*
X138562500Y-26520000D02*
X138562500Y-25220000D01*
X138562500Y-25220000D02*
X131062500Y-25220000D01*
X134312500Y-25570000D02*
X135312500Y-25570000D01*
X135312500Y-25570000D02*
X134812500Y-26220000D01*
X134812500Y-26220000D02*
X134312500Y-25570000D01*
X134462500Y-25720000D02*
X135162500Y-25720000D01*
X134562500Y-25870000D02*
X135062500Y-25870000D01*
X134662500Y-26020000D02*
X134962500Y-26020000D01*
X170737500Y-60990000D02*
X169877500Y-60990000D01*
X153237500Y-60990000D02*
X154087500Y-60990000D01*
X170737500Y-60140000D02*
X170737500Y-60990000D01*
X153237500Y-60090000D02*
X153237500Y-60990000D01*
X170737500Y-30790000D02*
X169937500Y-30790000D01*
X153237500Y-30790000D02*
X154087500Y-30790000D01*
X170737500Y-30790000D02*
X170737500Y-31640000D01*
X153237500Y-30790000D02*
X153237500Y-31640000D01*
X158237500Y-25190000D02*
X158237500Y-26490000D01*
X158237500Y-26490000D02*
X165737500Y-26490000D01*
X165737500Y-26490000D02*
X165737500Y-25190000D01*
X165737500Y-25190000D02*
X158237500Y-25190000D01*
X161487500Y-25540000D02*
X162487500Y-25540000D01*
X162487500Y-25540000D02*
X161987500Y-26190000D01*
X161987500Y-26190000D02*
X161487500Y-25540000D01*
X161637500Y-25690000D02*
X162337500Y-25690000D01*
X161737500Y-25840000D02*
X162237500Y-25840000D01*
X161837500Y-25990000D02*
X162137500Y-25990000D01*
X166934500Y-65895000D02*
X166934500Y-68195000D01*
X157034500Y-68195000D02*
X157034500Y-65895000D01*
X166934500Y-68195000D02*
X157034500Y-68195000D01*
X166934500Y-65895000D02*
X157034500Y-65895000D01*
X129798500Y-68178000D02*
X129798500Y-65878000D01*
X139698500Y-65878000D02*
X139698500Y-68178000D01*
X129798500Y-65878000D02*
X139698500Y-65878000D01*
X129798500Y-68178000D02*
X139698500Y-68178000D01*
X155904500Y-69372000D02*
X155654500Y-69372000D01*
X155904500Y-63672000D02*
X155904500Y-69372000D01*
X155904500Y-63672000D02*
X155654500Y-63672000D01*
X152704500Y-63672000D02*
X152954500Y-63672000D01*
X152704500Y-69372000D02*
X152954500Y-69372000D01*
X152704500Y-63672000D02*
X152704500Y-69372000D01*
X144024500Y-69381000D02*
X143774500Y-69381000D01*
X144024500Y-63681000D02*
X144024500Y-69381000D01*
X144024500Y-63681000D02*
X143774500Y-63681000D01*
X140824500Y-63681000D02*
X141074500Y-63681000D01*
X140824500Y-69381000D02*
X141074500Y-69381000D01*
X140824500Y-63681000D02*
X140824500Y-69381000D01*
X158439880Y-76781904D02*
X158439880Y-76210476D01*
X159439880Y-76496190D02*
X158439880Y-76496190D01*
X159439880Y-75305714D02*
X158963690Y-75639047D01*
X159439880Y-75877142D02*
X158439880Y-75877142D01*
X158439880Y-75496190D01*
X158487500Y-75400952D01*
X158535119Y-75353333D01*
X158630357Y-75305714D01*
X158773214Y-75305714D01*
X158868452Y-75353333D01*
X158916071Y-75400952D01*
X158963690Y-75496190D01*
X158963690Y-75877142D01*
X159439880Y-74305714D02*
X158963690Y-74639047D01*
X159439880Y-74877142D02*
X158439880Y-74877142D01*
X158439880Y-74496190D01*
X158487500Y-74400952D01*
X158535119Y-74353333D01*
X158630357Y-74305714D01*
X158773214Y-74305714D01*
X158868452Y-74353333D01*
X158916071Y-74400952D01*
X158963690Y-74496190D01*
X158963690Y-74877142D01*
X159392261Y-73924761D02*
X159439880Y-73781904D01*
X159439880Y-73543809D01*
X159392261Y-73448571D01*
X159344642Y-73400952D01*
X159249404Y-73353333D01*
X159154166Y-73353333D01*
X159058928Y-73400952D01*
X159011309Y-73448571D01*
X158963690Y-73543809D01*
X158916071Y-73734285D01*
X158868452Y-73829523D01*
X158820833Y-73877142D01*
X158725595Y-73924761D01*
X158630357Y-73924761D01*
X158535119Y-73877142D01*
X158487500Y-73829523D01*
X158439880Y-73734285D01*
X158439880Y-73496190D01*
X158487500Y-73353333D01*
X137136880Y-75303904D02*
X137136880Y-74732476D01*
X138136880Y-75018190D02*
X137136880Y-75018190D01*
X138136880Y-73827714D02*
X137660690Y-74161047D01*
X138136880Y-74399142D02*
X137136880Y-74399142D01*
X137136880Y-74018190D01*
X137184500Y-73922952D01*
X137232119Y-73875333D01*
X137327357Y-73827714D01*
X137470214Y-73827714D01*
X137565452Y-73875333D01*
X137613071Y-73922952D01*
X137660690Y-74018190D01*
X137660690Y-74399142D01*
X138136880Y-72827714D02*
X137660690Y-73161047D01*
X138136880Y-73399142D02*
X137136880Y-73399142D01*
X137136880Y-73018190D01*
X137184500Y-72922952D01*
X137232119Y-72875333D01*
X137327357Y-72827714D01*
X137470214Y-72827714D01*
X137565452Y-72875333D01*
X137613071Y-72922952D01*
X137660690Y-73018190D01*
X137660690Y-73399142D01*
X138089261Y-72446761D02*
X138136880Y-72303904D01*
X138136880Y-72065809D01*
X138089261Y-71970571D01*
X138041642Y-71922952D01*
X137946404Y-71875333D01*
X137851166Y-71875333D01*
X137755928Y-71922952D01*
X137708309Y-71970571D01*
X137660690Y-72065809D01*
X137613071Y-72256285D01*
X137565452Y-72351523D01*
X137517833Y-72399142D01*
X137422595Y-72446761D01*
X137327357Y-72446761D01*
X137232119Y-72399142D01*
X137184500Y-72351523D01*
X137136880Y-72256285D01*
X137136880Y-72018190D01*
X137184500Y-71875333D01*
D10*
X129331761Y-32281285D02*
X129165095Y-31924142D01*
X129046047Y-32281285D02*
X129046047Y-31531285D01*
X129236523Y-31531285D01*
X129284142Y-31567000D01*
X129307952Y-31602714D01*
X129331761Y-31674142D01*
X129331761Y-31781285D01*
X129307952Y-31852714D01*
X129284142Y-31888428D01*
X129236523Y-31924142D01*
X129046047Y-31924142D01*
X129522238Y-32067000D02*
X129760333Y-32067000D01*
X129474619Y-32281285D02*
X129641285Y-31531285D01*
X129807952Y-32281285D01*
X129927000Y-31531285D02*
X130046047Y-32281285D01*
X130141285Y-31745571D01*
X130236523Y-32281285D01*
X130355571Y-31531285D01*
X129417023Y-34165000D02*
X129353214Y-34129285D01*
X129257500Y-34129285D01*
X129161785Y-34165000D01*
X129097976Y-34236428D01*
X129066071Y-34307857D01*
X129034166Y-34450714D01*
X129034166Y-34557857D01*
X129066071Y-34700714D01*
X129097976Y-34772142D01*
X129161785Y-34843571D01*
X129257500Y-34879285D01*
X129321309Y-34879285D01*
X129417023Y-34843571D01*
X129448928Y-34807857D01*
X129448928Y-34557857D01*
X129321309Y-34557857D01*
X129736071Y-34879285D02*
X129736071Y-34129285D01*
X130118928Y-34879285D01*
X130118928Y-34129285D01*
X130437976Y-34879285D02*
X130437976Y-34129285D01*
X130597500Y-34129285D01*
X130693214Y-34165000D01*
X130757023Y-34236428D01*
X130788928Y-34307857D01*
X130820833Y-34450714D01*
X130820833Y-34557857D01*
X130788928Y-34700714D01*
X130757023Y-34772142D01*
X130693214Y-34843571D01*
X130597500Y-34879285D01*
X130437976Y-34879285D01*
X129403190Y-37424785D02*
X129236523Y-37067642D01*
X129117476Y-37424785D02*
X129117476Y-36674785D01*
X129307952Y-36674785D01*
X129355571Y-36710500D01*
X129379380Y-36746214D01*
X129403190Y-36817642D01*
X129403190Y-36924785D01*
X129379380Y-36996214D01*
X129355571Y-37031928D01*
X129307952Y-37067642D01*
X129117476Y-37067642D01*
X129593666Y-37389071D02*
X129665095Y-37424785D01*
X129784142Y-37424785D01*
X129831761Y-37389071D01*
X129855571Y-37353357D01*
X129879380Y-37281928D01*
X129879380Y-37210500D01*
X129855571Y-37139071D01*
X129831761Y-37103357D01*
X129784142Y-37067642D01*
X129688904Y-37031928D01*
X129641285Y-36996214D01*
X129617476Y-36960500D01*
X129593666Y-36889071D01*
X129593666Y-36817642D01*
X129617476Y-36746214D01*
X129641285Y-36710500D01*
X129688904Y-36674785D01*
X129807952Y-36674785D01*
X129879380Y-36710500D01*
X130022238Y-36674785D02*
X130307952Y-36674785D01*
X130165095Y-37424785D02*
X130165095Y-36674785D01*
X128970833Y-39094285D02*
X129137500Y-39844285D01*
X129304166Y-39094285D01*
X129756547Y-39772857D02*
X129732738Y-39808571D01*
X129661309Y-39844285D01*
X129613690Y-39844285D01*
X129542261Y-39808571D01*
X129494642Y-39737142D01*
X129470833Y-39665714D01*
X129447023Y-39522857D01*
X129447023Y-39415714D01*
X129470833Y-39272857D01*
X129494642Y-39201428D01*
X129542261Y-39130000D01*
X129613690Y-39094285D01*
X129661309Y-39094285D01*
X129732738Y-39130000D01*
X129756547Y-39165714D01*
X130256547Y-39772857D02*
X130232738Y-39808571D01*
X130161309Y-39844285D01*
X130113690Y-39844285D01*
X130042261Y-39808571D01*
X129994642Y-39737142D01*
X129970833Y-39665714D01*
X129947023Y-39522857D01*
X129947023Y-39415714D01*
X129970833Y-39272857D01*
X129994642Y-39201428D01*
X130042261Y-39130000D01*
X130113690Y-39094285D01*
X130161309Y-39094285D01*
X130232738Y-39130000D01*
X130256547Y-39165714D01*
X128981785Y-42295000D02*
X129300833Y-42295000D01*
X128917976Y-42509285D02*
X129141309Y-41759285D01*
X129364642Y-42509285D01*
X129524166Y-41759285D02*
X129938928Y-41759285D01*
X129715595Y-42045000D01*
X129811309Y-42045000D01*
X129875119Y-42080714D01*
X129907023Y-42116428D01*
X129938928Y-42187857D01*
X129938928Y-42366428D01*
X129907023Y-42437857D01*
X129875119Y-42473571D01*
X129811309Y-42509285D01*
X129619880Y-42509285D01*
X129556071Y-42473571D01*
X129524166Y-42437857D01*
X130704642Y-41723571D02*
X130130357Y-42687857D01*
X131151309Y-42116428D02*
X130927976Y-42116428D01*
X130927976Y-42509285D02*
X130927976Y-41759285D01*
X131247023Y-41759285D01*
X131789404Y-42009285D02*
X131789404Y-42509285D01*
X131629880Y-41723571D02*
X131470357Y-42259285D01*
X131885119Y-42259285D01*
X128981785Y-44795000D02*
X129300833Y-44795000D01*
X128917976Y-45009285D02*
X129141309Y-44259285D01*
X129364642Y-45009285D01*
X129556071Y-44330714D02*
X129587976Y-44295000D01*
X129651785Y-44259285D01*
X129811309Y-44259285D01*
X129875119Y-44295000D01*
X129907023Y-44330714D01*
X129938928Y-44402142D01*
X129938928Y-44473571D01*
X129907023Y-44580714D01*
X129524166Y-45009285D01*
X129938928Y-45009285D01*
X130704642Y-44223571D02*
X130130357Y-45187857D01*
X131151309Y-44616428D02*
X130927976Y-44616428D01*
X130927976Y-45009285D02*
X130927976Y-44259285D01*
X131247023Y-44259285D01*
X131821309Y-44259285D02*
X131502261Y-44259285D01*
X131470357Y-44616428D01*
X131502261Y-44580714D01*
X131566071Y-44545000D01*
X131725595Y-44545000D01*
X131789404Y-44580714D01*
X131821309Y-44616428D01*
X131853214Y-44687857D01*
X131853214Y-44866428D01*
X131821309Y-44937857D01*
X131789404Y-44973571D01*
X131725595Y-45009285D01*
X131566071Y-45009285D01*
X131502261Y-44973571D01*
X131470357Y-44937857D01*
X128981785Y-47295000D02*
X129300833Y-47295000D01*
X128917976Y-47509285D02*
X129141309Y-46759285D01*
X129364642Y-47509285D01*
X129938928Y-47509285D02*
X129556071Y-47509285D01*
X129747500Y-47509285D02*
X129747500Y-46759285D01*
X129683690Y-46866428D01*
X129619880Y-46937857D01*
X129556071Y-46973571D01*
X130704642Y-46723571D02*
X130130357Y-47687857D01*
X131151309Y-47116428D02*
X130927976Y-47116428D01*
X130927976Y-47509285D02*
X130927976Y-46759285D01*
X131247023Y-46759285D01*
X131789404Y-46759285D02*
X131661785Y-46759285D01*
X131597976Y-46795000D01*
X131566071Y-46830714D01*
X131502261Y-46937857D01*
X131470357Y-47080714D01*
X131470357Y-47366428D01*
X131502261Y-47437857D01*
X131534166Y-47473571D01*
X131597976Y-47509285D01*
X131725595Y-47509285D01*
X131789404Y-47473571D01*
X131821309Y-47437857D01*
X131853214Y-47366428D01*
X131853214Y-47187857D01*
X131821309Y-47116428D01*
X131789404Y-47080714D01*
X131725595Y-47045000D01*
X131597976Y-47045000D01*
X131534166Y-47080714D01*
X131502261Y-47116428D01*
X131470357Y-47187857D01*
X128981785Y-49845000D02*
X129300833Y-49845000D01*
X128917976Y-50059285D02*
X129141309Y-49309285D01*
X129364642Y-50059285D01*
X129715595Y-49309285D02*
X129779404Y-49309285D01*
X129843214Y-49345000D01*
X129875119Y-49380714D01*
X129907023Y-49452142D01*
X129938928Y-49595000D01*
X129938928Y-49773571D01*
X129907023Y-49916428D01*
X129875119Y-49987857D01*
X129843214Y-50023571D01*
X129779404Y-50059285D01*
X129715595Y-50059285D01*
X129651785Y-50023571D01*
X129619880Y-49987857D01*
X129587976Y-49916428D01*
X129556071Y-49773571D01*
X129556071Y-49595000D01*
X129587976Y-49452142D01*
X129619880Y-49380714D01*
X129651785Y-49345000D01*
X129715595Y-49309285D01*
X130704642Y-49273571D02*
X130130357Y-50237857D01*
X131151309Y-49666428D02*
X130927976Y-49666428D01*
X130927976Y-50059285D02*
X130927976Y-49309285D01*
X131247023Y-49309285D01*
X131438452Y-49309285D02*
X131885119Y-49309285D01*
X131597976Y-50059285D01*
X129284880Y-52609285D02*
X128902023Y-52609285D01*
X129093452Y-52609285D02*
X129093452Y-51859285D01*
X129029642Y-51966428D01*
X128965833Y-52037857D01*
X128902023Y-52073571D01*
X129891071Y-51859285D02*
X129572023Y-51859285D01*
X129540119Y-52216428D01*
X129572023Y-52180714D01*
X129635833Y-52145000D01*
X129795357Y-52145000D01*
X129859166Y-52180714D01*
X129891071Y-52216428D01*
X129922976Y-52287857D01*
X129922976Y-52466428D01*
X129891071Y-52537857D01*
X129859166Y-52573571D01*
X129795357Y-52609285D01*
X129635833Y-52609285D01*
X129572023Y-52573571D01*
X129540119Y-52537857D01*
X130688690Y-51823571D02*
X130114404Y-52787857D01*
X131135357Y-52216428D02*
X131231071Y-52252142D01*
X131262976Y-52287857D01*
X131294880Y-52359285D01*
X131294880Y-52466428D01*
X131262976Y-52537857D01*
X131231071Y-52573571D01*
X131167261Y-52609285D01*
X130912023Y-52609285D01*
X130912023Y-51859285D01*
X131135357Y-51859285D01*
X131199166Y-51895000D01*
X131231071Y-51930714D01*
X131262976Y-52002142D01*
X131262976Y-52073571D01*
X131231071Y-52145000D01*
X131199166Y-52180714D01*
X131135357Y-52216428D01*
X130912023Y-52216428D01*
X131932976Y-52609285D02*
X131550119Y-52609285D01*
X131741547Y-52609285D02*
X131741547Y-51859285D01*
X131677738Y-51966428D01*
X131613928Y-52037857D01*
X131550119Y-52073571D01*
X129284880Y-55159285D02*
X128902023Y-55159285D01*
X129093452Y-55159285D02*
X129093452Y-54409285D01*
X129029642Y-54516428D01*
X128965833Y-54587857D01*
X128902023Y-54623571D01*
X129859166Y-54659285D02*
X129859166Y-55159285D01*
X129699642Y-54373571D02*
X129540119Y-54909285D01*
X129954880Y-54909285D01*
X130688690Y-54373571D02*
X130114404Y-55337857D01*
X131135357Y-54766428D02*
X131231071Y-54802142D01*
X131262976Y-54837857D01*
X131294880Y-54909285D01*
X131294880Y-55016428D01*
X131262976Y-55087857D01*
X131231071Y-55123571D01*
X131167261Y-55159285D01*
X130912023Y-55159285D01*
X130912023Y-54409285D01*
X131135357Y-54409285D01*
X131199166Y-54445000D01*
X131231071Y-54480714D01*
X131262976Y-54552142D01*
X131262976Y-54623571D01*
X131231071Y-54695000D01*
X131199166Y-54730714D01*
X131135357Y-54766428D01*
X130912023Y-54766428D01*
X131518214Y-54409285D02*
X131932976Y-54409285D01*
X131709642Y-54695000D01*
X131805357Y-54695000D01*
X131869166Y-54730714D01*
X131901071Y-54766428D01*
X131932976Y-54837857D01*
X131932976Y-55016428D01*
X131901071Y-55087857D01*
X131869166Y-55123571D01*
X131805357Y-55159285D01*
X131613928Y-55159285D01*
X131550119Y-55123571D01*
X131518214Y-55087857D01*
X129284880Y-60209285D02*
X128902023Y-60209285D01*
X129093452Y-60209285D02*
X129093452Y-59459285D01*
X129029642Y-59566428D01*
X128965833Y-59637857D01*
X128902023Y-59673571D01*
X129699642Y-59459285D02*
X129763452Y-59459285D01*
X129827261Y-59495000D01*
X129859166Y-59530714D01*
X129891071Y-59602142D01*
X129922976Y-59745000D01*
X129922976Y-59923571D01*
X129891071Y-60066428D01*
X129859166Y-60137857D01*
X129827261Y-60173571D01*
X129763452Y-60209285D01*
X129699642Y-60209285D01*
X129635833Y-60173571D01*
X129603928Y-60137857D01*
X129572023Y-60066428D01*
X129540119Y-59923571D01*
X129540119Y-59745000D01*
X129572023Y-59602142D01*
X129603928Y-59530714D01*
X129635833Y-59495000D01*
X129699642Y-59459285D01*
X130688690Y-59423571D02*
X130114404Y-60387857D01*
X131135357Y-59816428D02*
X131231071Y-59852142D01*
X131262976Y-59887857D01*
X131294880Y-59959285D01*
X131294880Y-60066428D01*
X131262976Y-60137857D01*
X131231071Y-60173571D01*
X131167261Y-60209285D01*
X130912023Y-60209285D01*
X130912023Y-59459285D01*
X131135357Y-59459285D01*
X131199166Y-59495000D01*
X131231071Y-59530714D01*
X131262976Y-59602142D01*
X131262976Y-59673571D01*
X131231071Y-59745000D01*
X131199166Y-59780714D01*
X131135357Y-59816428D01*
X130912023Y-59816428D01*
X131869166Y-59459285D02*
X131741547Y-59459285D01*
X131677738Y-59495000D01*
X131645833Y-59530714D01*
X131582023Y-59637857D01*
X131550119Y-59780714D01*
X131550119Y-60066428D01*
X131582023Y-60137857D01*
X131613928Y-60173571D01*
X131677738Y-60209285D01*
X131805357Y-60209285D01*
X131869166Y-60173571D01*
X131901071Y-60137857D01*
X131932976Y-60066428D01*
X131932976Y-59887857D01*
X131901071Y-59816428D01*
X131869166Y-59780714D01*
X131805357Y-59745000D01*
X131677738Y-59745000D01*
X131613928Y-59780714D01*
X131582023Y-59816428D01*
X131550119Y-59887857D01*
X129284880Y-57709285D02*
X128902023Y-57709285D01*
X129093452Y-57709285D02*
X129093452Y-56959285D01*
X129029642Y-57066428D01*
X128965833Y-57137857D01*
X128902023Y-57173571D01*
X129859166Y-56959285D02*
X129731547Y-56959285D01*
X129667738Y-56995000D01*
X129635833Y-57030714D01*
X129572023Y-57137857D01*
X129540119Y-57280714D01*
X129540119Y-57566428D01*
X129572023Y-57637857D01*
X129603928Y-57673571D01*
X129667738Y-57709285D01*
X129795357Y-57709285D01*
X129859166Y-57673571D01*
X129891071Y-57637857D01*
X129922976Y-57566428D01*
X129922976Y-57387857D01*
X129891071Y-57316428D01*
X129859166Y-57280714D01*
X129795357Y-57245000D01*
X129667738Y-57245000D01*
X129603928Y-57280714D01*
X129572023Y-57316428D01*
X129540119Y-57387857D01*
X130688690Y-56923571D02*
X130114404Y-57887857D01*
X131135357Y-57316428D02*
X131231071Y-57352142D01*
X131262976Y-57387857D01*
X131294880Y-57459285D01*
X131294880Y-57566428D01*
X131262976Y-57637857D01*
X131231071Y-57673571D01*
X131167261Y-57709285D01*
X130912023Y-57709285D01*
X130912023Y-56959285D01*
X131135357Y-56959285D01*
X131199166Y-56995000D01*
X131231071Y-57030714D01*
X131262976Y-57102142D01*
X131262976Y-57173571D01*
X131231071Y-57245000D01*
X131199166Y-57280714D01*
X131135357Y-57316428D01*
X130912023Y-57316428D01*
X131550119Y-57030714D02*
X131582023Y-56995000D01*
X131645833Y-56959285D01*
X131805357Y-56959285D01*
X131869166Y-56995000D01*
X131901071Y-57030714D01*
X131932976Y-57102142D01*
X131932976Y-57173571D01*
X131901071Y-57280714D01*
X131518214Y-57709285D01*
X131932976Y-57709285D01*
X138384880Y-54616428D02*
X138608214Y-54616428D01*
X138703928Y-55009285D02*
X138384880Y-55009285D01*
X138384880Y-54259285D01*
X138703928Y-54259285D01*
X139278214Y-54259285D02*
X139150595Y-54259285D01*
X139086785Y-54295000D01*
X139054880Y-54330714D01*
X138991071Y-54437857D01*
X138959166Y-54580714D01*
X138959166Y-54866428D01*
X138991071Y-54937857D01*
X139022976Y-54973571D01*
X139086785Y-55009285D01*
X139214404Y-55009285D01*
X139278214Y-54973571D01*
X139310119Y-54937857D01*
X139342023Y-54866428D01*
X139342023Y-54687857D01*
X139310119Y-54616428D01*
X139278214Y-54580714D01*
X139214404Y-54545000D01*
X139086785Y-54545000D01*
X139022976Y-54580714D01*
X138991071Y-54616428D01*
X138959166Y-54687857D01*
X140107738Y-54223571D02*
X139533452Y-55187857D01*
X140267261Y-54259285D02*
X140713928Y-54259285D01*
X140426785Y-55009285D01*
X138352976Y-52459285D02*
X138352976Y-51709285D01*
X138512500Y-51709285D01*
X138608214Y-51745000D01*
X138672023Y-51816428D01*
X138703928Y-51887857D01*
X138735833Y-52030714D01*
X138735833Y-52137857D01*
X138703928Y-52280714D01*
X138672023Y-52352142D01*
X138608214Y-52423571D01*
X138512500Y-52459285D01*
X138352976Y-52459285D01*
X138959166Y-51709285D02*
X139405833Y-51709285D01*
X139118690Y-52459285D01*
X140139642Y-51673571D02*
X139565357Y-52637857D01*
X140650119Y-51709285D02*
X140522500Y-51709285D01*
X140458690Y-51745000D01*
X140426785Y-51780714D01*
X140362976Y-51887857D01*
X140331071Y-52030714D01*
X140331071Y-52316428D01*
X140362976Y-52387857D01*
X140394880Y-52423571D01*
X140458690Y-52459285D01*
X140586309Y-52459285D01*
X140650119Y-52423571D01*
X140682023Y-52387857D01*
X140713928Y-52316428D01*
X140713928Y-52137857D01*
X140682023Y-52066428D01*
X140650119Y-52030714D01*
X140586309Y-51995000D01*
X140458690Y-51995000D01*
X140394880Y-52030714D01*
X140362976Y-52066428D01*
X140331071Y-52137857D01*
X139257023Y-36695000D02*
X139193214Y-36659285D01*
X139097500Y-36659285D01*
X139001785Y-36695000D01*
X138937976Y-36766428D01*
X138906071Y-36837857D01*
X138874166Y-36980714D01*
X138874166Y-37087857D01*
X138906071Y-37230714D01*
X138937976Y-37302142D01*
X139001785Y-37373571D01*
X139097500Y-37409285D01*
X139161309Y-37409285D01*
X139257023Y-37373571D01*
X139288928Y-37337857D01*
X139288928Y-37087857D01*
X139161309Y-37087857D01*
X139576071Y-37409285D02*
X139576071Y-36659285D01*
X139958928Y-37409285D01*
X139958928Y-36659285D01*
X140277976Y-37409285D02*
X140277976Y-36659285D01*
X140437500Y-36659285D01*
X140533214Y-36695000D01*
X140597023Y-36766428D01*
X140628928Y-36837857D01*
X140660833Y-36980714D01*
X140660833Y-37087857D01*
X140628928Y-37230714D01*
X140597023Y-37302142D01*
X140533214Y-37373571D01*
X140437500Y-37409285D01*
X140277976Y-37409285D01*
X139257023Y-39145000D02*
X139193214Y-39109285D01*
X139097500Y-39109285D01*
X139001785Y-39145000D01*
X138937976Y-39216428D01*
X138906071Y-39287857D01*
X138874166Y-39430714D01*
X138874166Y-39537857D01*
X138906071Y-39680714D01*
X138937976Y-39752142D01*
X139001785Y-39823571D01*
X139097500Y-39859285D01*
X139161309Y-39859285D01*
X139257023Y-39823571D01*
X139288928Y-39787857D01*
X139288928Y-39537857D01*
X139161309Y-39537857D01*
X139576071Y-39859285D02*
X139576071Y-39109285D01*
X139958928Y-39859285D01*
X139958928Y-39109285D01*
X140277976Y-39859285D02*
X140277976Y-39109285D01*
X140437500Y-39109285D01*
X140533214Y-39145000D01*
X140597023Y-39216428D01*
X140628928Y-39287857D01*
X140660833Y-39430714D01*
X140660833Y-39537857D01*
X140628928Y-39680714D01*
X140597023Y-39752142D01*
X140533214Y-39823571D01*
X140437500Y-39859285D01*
X140277976Y-39859285D01*
X137228690Y-32309285D02*
X137228690Y-31559285D01*
X137388214Y-31559285D01*
X137483928Y-31595000D01*
X137547738Y-31666428D01*
X137579642Y-31737857D01*
X137611547Y-31880714D01*
X137611547Y-31987857D01*
X137579642Y-32130714D01*
X137547738Y-32202142D01*
X137483928Y-32273571D01*
X137388214Y-32309285D01*
X137228690Y-32309285D01*
X137834880Y-31559285D02*
X138249642Y-31559285D01*
X138026309Y-31845000D01*
X138122023Y-31845000D01*
X138185833Y-31880714D01*
X138217738Y-31916428D01*
X138249642Y-31987857D01*
X138249642Y-32166428D01*
X138217738Y-32237857D01*
X138185833Y-32273571D01*
X138122023Y-32309285D01*
X137930595Y-32309285D01*
X137866785Y-32273571D01*
X137834880Y-32237857D01*
X139015357Y-31523571D02*
X138441071Y-32487857D01*
X139142976Y-31559285D02*
X139525833Y-31559285D01*
X139334404Y-32309285D02*
X139334404Y-31559285D01*
X139685357Y-31559285D02*
X140132023Y-32309285D01*
X140132023Y-31559285D02*
X139685357Y-32309285D01*
X140514880Y-31559285D02*
X140578690Y-31559285D01*
X140642500Y-31595000D01*
X140674404Y-31630714D01*
X140706309Y-31702142D01*
X140738214Y-31845000D01*
X140738214Y-32023571D01*
X140706309Y-32166428D01*
X140674404Y-32237857D01*
X140642500Y-32273571D01*
X140578690Y-32309285D01*
X140514880Y-32309285D01*
X140451071Y-32273571D01*
X140419166Y-32237857D01*
X140387261Y-32166428D01*
X140355357Y-32023571D01*
X140355357Y-31845000D01*
X140387261Y-31702142D01*
X140419166Y-31630714D01*
X140451071Y-31595000D01*
X140514880Y-31559285D01*
X138352976Y-47359285D02*
X138352976Y-46609285D01*
X138512500Y-46609285D01*
X138608214Y-46645000D01*
X138672023Y-46716428D01*
X138703928Y-46787857D01*
X138735833Y-46930714D01*
X138735833Y-47037857D01*
X138703928Y-47180714D01*
X138672023Y-47252142D01*
X138608214Y-47323571D01*
X138512500Y-47359285D01*
X138352976Y-47359285D01*
X139310119Y-46859285D02*
X139310119Y-47359285D01*
X139150595Y-46573571D02*
X138991071Y-47109285D01*
X139405833Y-47109285D01*
X140139642Y-46573571D02*
X139565357Y-47537857D01*
X140650119Y-46859285D02*
X140650119Y-47359285D01*
X140490595Y-46573571D02*
X140331071Y-47109285D01*
X140745833Y-47109285D01*
X135778928Y-42323571D02*
X135874642Y-42359285D01*
X136034166Y-42359285D01*
X136097976Y-42323571D01*
X136129880Y-42287857D01*
X136161785Y-42216428D01*
X136161785Y-42145000D01*
X136129880Y-42073571D01*
X136097976Y-42037857D01*
X136034166Y-42002142D01*
X135906547Y-41966428D01*
X135842738Y-41930714D01*
X135810833Y-41895000D01*
X135778928Y-41823571D01*
X135778928Y-41752142D01*
X135810833Y-41680714D01*
X135842738Y-41645000D01*
X135906547Y-41609285D01*
X136066071Y-41609285D01*
X136161785Y-41645000D01*
X136448928Y-42359285D02*
X136448928Y-41609285D01*
X136608452Y-41609285D01*
X136704166Y-41645000D01*
X136767976Y-41716428D01*
X136799880Y-41787857D01*
X136831785Y-41930714D01*
X136831785Y-42037857D01*
X136799880Y-42180714D01*
X136767976Y-42252142D01*
X136704166Y-42323571D01*
X136608452Y-42359285D01*
X136448928Y-42359285D01*
X137087023Y-42145000D02*
X137406071Y-42145000D01*
X137023214Y-42359285D02*
X137246547Y-41609285D01*
X137469880Y-42359285D01*
X138171785Y-41573571D02*
X137597500Y-42537857D01*
X138395119Y-42359285D02*
X138395119Y-41609285D01*
X138554642Y-41609285D01*
X138650357Y-41645000D01*
X138714166Y-41716428D01*
X138746071Y-41787857D01*
X138777976Y-41930714D01*
X138777976Y-42037857D01*
X138746071Y-42180714D01*
X138714166Y-42252142D01*
X138650357Y-42323571D01*
X138554642Y-42359285D01*
X138395119Y-42359285D01*
X139416071Y-42359285D02*
X139033214Y-42359285D01*
X139224642Y-42359285D02*
X139224642Y-41609285D01*
X139160833Y-41716428D01*
X139097023Y-41787857D01*
X139033214Y-41823571D01*
X140181785Y-41573571D02*
X139607500Y-42537857D01*
X140373214Y-41680714D02*
X140405119Y-41645000D01*
X140468928Y-41609285D01*
X140628452Y-41609285D01*
X140692261Y-41645000D01*
X140724166Y-41680714D01*
X140756071Y-41752142D01*
X140756071Y-41823571D01*
X140724166Y-41930714D01*
X140341309Y-42359285D01*
X140756071Y-42359285D01*
X135794880Y-44823571D02*
X135890595Y-44859285D01*
X136050119Y-44859285D01*
X136113928Y-44823571D01*
X136145833Y-44787857D01*
X136177738Y-44716428D01*
X136177738Y-44645000D01*
X136145833Y-44573571D01*
X136113928Y-44537857D01*
X136050119Y-44502142D01*
X135922500Y-44466428D01*
X135858690Y-44430714D01*
X135826785Y-44395000D01*
X135794880Y-44323571D01*
X135794880Y-44252142D01*
X135826785Y-44180714D01*
X135858690Y-44145000D01*
X135922500Y-44109285D01*
X136082023Y-44109285D01*
X136177738Y-44145000D01*
X136847738Y-44787857D02*
X136815833Y-44823571D01*
X136720119Y-44859285D01*
X136656309Y-44859285D01*
X136560595Y-44823571D01*
X136496785Y-44752142D01*
X136464880Y-44680714D01*
X136432976Y-44537857D01*
X136432976Y-44430714D01*
X136464880Y-44287857D01*
X136496785Y-44216428D01*
X136560595Y-44145000D01*
X136656309Y-44109285D01*
X136720119Y-44109285D01*
X136815833Y-44145000D01*
X136847738Y-44180714D01*
X137453928Y-44859285D02*
X137134880Y-44859285D01*
X137134880Y-44109285D01*
X138155833Y-44073571D02*
X137581547Y-45037857D01*
X138379166Y-44859285D02*
X138379166Y-44109285D01*
X138538690Y-44109285D01*
X138634404Y-44145000D01*
X138698214Y-44216428D01*
X138730119Y-44287857D01*
X138762023Y-44430714D01*
X138762023Y-44537857D01*
X138730119Y-44680714D01*
X138698214Y-44752142D01*
X138634404Y-44823571D01*
X138538690Y-44859285D01*
X138379166Y-44859285D01*
X139176785Y-44109285D02*
X139240595Y-44109285D01*
X139304404Y-44145000D01*
X139336309Y-44180714D01*
X139368214Y-44252142D01*
X139400119Y-44395000D01*
X139400119Y-44573571D01*
X139368214Y-44716428D01*
X139336309Y-44787857D01*
X139304404Y-44823571D01*
X139240595Y-44859285D01*
X139176785Y-44859285D01*
X139112976Y-44823571D01*
X139081071Y-44787857D01*
X139049166Y-44716428D01*
X139017261Y-44573571D01*
X139017261Y-44395000D01*
X139049166Y-44252142D01*
X139081071Y-44180714D01*
X139112976Y-44145000D01*
X139176785Y-44109285D01*
X140165833Y-44073571D02*
X139591547Y-45037857D01*
X140325357Y-44109285D02*
X140740119Y-44109285D01*
X140516785Y-44395000D01*
X140612500Y-44395000D01*
X140676309Y-44430714D01*
X140708214Y-44466428D01*
X140740119Y-44537857D01*
X140740119Y-44716428D01*
X140708214Y-44787857D01*
X140676309Y-44823571D01*
X140612500Y-44859285D01*
X140421071Y-44859285D01*
X140357261Y-44823571D01*
X140325357Y-44787857D01*
X138735833Y-49837857D02*
X138703928Y-49873571D01*
X138608214Y-49909285D01*
X138544404Y-49909285D01*
X138448690Y-49873571D01*
X138384880Y-49802142D01*
X138352976Y-49730714D01*
X138321071Y-49587857D01*
X138321071Y-49480714D01*
X138352976Y-49337857D01*
X138384880Y-49266428D01*
X138448690Y-49195000D01*
X138544404Y-49159285D01*
X138608214Y-49159285D01*
X138703928Y-49195000D01*
X138735833Y-49230714D01*
X139310119Y-49159285D02*
X139182500Y-49159285D01*
X139118690Y-49195000D01*
X139086785Y-49230714D01*
X139022976Y-49337857D01*
X138991071Y-49480714D01*
X138991071Y-49766428D01*
X139022976Y-49837857D01*
X139054880Y-49873571D01*
X139118690Y-49909285D01*
X139246309Y-49909285D01*
X139310119Y-49873571D01*
X139342023Y-49837857D01*
X139373928Y-49766428D01*
X139373928Y-49587857D01*
X139342023Y-49516428D01*
X139310119Y-49480714D01*
X139246309Y-49445000D01*
X139118690Y-49445000D01*
X139054880Y-49480714D01*
X139022976Y-49516428D01*
X138991071Y-49587857D01*
X140139642Y-49123571D02*
X139565357Y-50087857D01*
X140682023Y-49159285D02*
X140362976Y-49159285D01*
X140331071Y-49516428D01*
X140362976Y-49480714D01*
X140426785Y-49445000D01*
X140586309Y-49445000D01*
X140650119Y-49480714D01*
X140682023Y-49516428D01*
X140713928Y-49587857D01*
X140713928Y-49766428D01*
X140682023Y-49837857D01*
X140650119Y-49873571D01*
X140586309Y-49909285D01*
X140426785Y-49909285D01*
X140362976Y-49873571D01*
X140331071Y-49837857D01*
X138576309Y-59666428D02*
X138672023Y-59702142D01*
X138703928Y-59737857D01*
X138735833Y-59809285D01*
X138735833Y-59916428D01*
X138703928Y-59987857D01*
X138672023Y-60023571D01*
X138608214Y-60059285D01*
X138352976Y-60059285D01*
X138352976Y-59309285D01*
X138576309Y-59309285D01*
X138640119Y-59345000D01*
X138672023Y-59380714D01*
X138703928Y-59452142D01*
X138703928Y-59523571D01*
X138672023Y-59595000D01*
X138640119Y-59630714D01*
X138576309Y-59666428D01*
X138352976Y-59666428D01*
X139342023Y-59309285D02*
X139022976Y-59309285D01*
X138991071Y-59666428D01*
X139022976Y-59630714D01*
X139086785Y-59595000D01*
X139246309Y-59595000D01*
X139310119Y-59630714D01*
X139342023Y-59666428D01*
X139373928Y-59737857D01*
X139373928Y-59916428D01*
X139342023Y-59987857D01*
X139310119Y-60023571D01*
X139246309Y-60059285D01*
X139086785Y-60059285D01*
X139022976Y-60023571D01*
X138991071Y-59987857D01*
X140139642Y-59273571D02*
X139565357Y-60237857D01*
X140394880Y-60059285D02*
X140522500Y-60059285D01*
X140586309Y-60023571D01*
X140618214Y-59987857D01*
X140682023Y-59880714D01*
X140713928Y-59737857D01*
X140713928Y-59452142D01*
X140682023Y-59380714D01*
X140650119Y-59345000D01*
X140586309Y-59309285D01*
X140458690Y-59309285D01*
X140394880Y-59345000D01*
X140362976Y-59380714D01*
X140331071Y-59452142D01*
X140331071Y-59630714D01*
X140362976Y-59702142D01*
X140394880Y-59737857D01*
X140458690Y-59773571D01*
X140586309Y-59773571D01*
X140650119Y-59737857D01*
X140682023Y-59702142D01*
X140713928Y-59630714D01*
X137148928Y-34859285D02*
X137148928Y-34109285D01*
X137308452Y-34109285D01*
X137404166Y-34145000D01*
X137467976Y-34216428D01*
X137499880Y-34287857D01*
X137531785Y-34430714D01*
X137531785Y-34537857D01*
X137499880Y-34680714D01*
X137467976Y-34752142D01*
X137404166Y-34823571D01*
X137308452Y-34859285D01*
X137148928Y-34859285D01*
X137787023Y-34180714D02*
X137818928Y-34145000D01*
X137882738Y-34109285D01*
X138042261Y-34109285D01*
X138106071Y-34145000D01*
X138137976Y-34180714D01*
X138169880Y-34252142D01*
X138169880Y-34323571D01*
X138137976Y-34430714D01*
X137755119Y-34859285D01*
X138169880Y-34859285D01*
X138935595Y-34073571D02*
X138361309Y-35037857D01*
X139541785Y-34859285D02*
X139318452Y-34502142D01*
X139158928Y-34859285D02*
X139158928Y-34109285D01*
X139414166Y-34109285D01*
X139477976Y-34145000D01*
X139509880Y-34180714D01*
X139541785Y-34252142D01*
X139541785Y-34359285D01*
X139509880Y-34430714D01*
X139477976Y-34466428D01*
X139414166Y-34502142D01*
X139158928Y-34502142D01*
X139765119Y-34109285D02*
X140211785Y-34859285D01*
X140211785Y-34109285D02*
X139765119Y-34859285D01*
X140817976Y-34859285D02*
X140435119Y-34859285D01*
X140626547Y-34859285D02*
X140626547Y-34109285D01*
X140562738Y-34216428D01*
X140498928Y-34287857D01*
X140435119Y-34323571D01*
X138576309Y-57166428D02*
X138672023Y-57202142D01*
X138703928Y-57237857D01*
X138735833Y-57309285D01*
X138735833Y-57416428D01*
X138703928Y-57487857D01*
X138672023Y-57523571D01*
X138608214Y-57559285D01*
X138352976Y-57559285D01*
X138352976Y-56809285D01*
X138576309Y-56809285D01*
X138640119Y-56845000D01*
X138672023Y-56880714D01*
X138703928Y-56952142D01*
X138703928Y-57023571D01*
X138672023Y-57095000D01*
X138640119Y-57130714D01*
X138576309Y-57166428D01*
X138352976Y-57166428D01*
X139310119Y-57059285D02*
X139310119Y-57559285D01*
X139150595Y-56773571D02*
X138991071Y-57309285D01*
X139405833Y-57309285D01*
X140139642Y-56773571D02*
X139565357Y-57737857D01*
X140458690Y-57130714D02*
X140394880Y-57095000D01*
X140362976Y-57059285D01*
X140331071Y-56987857D01*
X140331071Y-56952142D01*
X140362976Y-56880714D01*
X140394880Y-56845000D01*
X140458690Y-56809285D01*
X140586309Y-56809285D01*
X140650119Y-56845000D01*
X140682023Y-56880714D01*
X140713928Y-56952142D01*
X140713928Y-56987857D01*
X140682023Y-57059285D01*
X140650119Y-57095000D01*
X140586309Y-57130714D01*
X140458690Y-57130714D01*
X140394880Y-57166428D01*
X140362976Y-57202142D01*
X140331071Y-57273571D01*
X140331071Y-57416428D01*
X140362976Y-57487857D01*
X140394880Y-57523571D01*
X140458690Y-57559285D01*
X140586309Y-57559285D01*
X140650119Y-57523571D01*
X140682023Y-57487857D01*
X140713928Y-57416428D01*
X140713928Y-57273571D01*
X140682023Y-57202142D01*
X140650119Y-57166428D01*
X140586309Y-57130714D01*
D13*
X132316071Y-27809285D02*
X132316071Y-27059285D01*
X132566071Y-27595000D01*
X132816071Y-27059285D01*
X132816071Y-27809285D01*
X133173214Y-27809285D02*
X133173214Y-27309285D01*
X133173214Y-27059285D02*
X133137500Y-27095000D01*
X133173214Y-27130714D01*
X133208928Y-27095000D01*
X133173214Y-27059285D01*
X133173214Y-27130714D01*
X133851785Y-27773571D02*
X133780357Y-27809285D01*
X133637500Y-27809285D01*
X133566071Y-27773571D01*
X133530357Y-27737857D01*
X133494642Y-27666428D01*
X133494642Y-27452142D01*
X133530357Y-27380714D01*
X133566071Y-27345000D01*
X133637500Y-27309285D01*
X133780357Y-27309285D01*
X133851785Y-27345000D01*
X134173214Y-27809285D02*
X134173214Y-27309285D01*
X134173214Y-27452142D02*
X134208928Y-27380714D01*
X134244642Y-27345000D01*
X134316071Y-27309285D01*
X134387500Y-27309285D01*
X134744642Y-27809285D02*
X134673214Y-27773571D01*
X134637500Y-27737857D01*
X134601785Y-27666428D01*
X134601785Y-27452142D01*
X134637500Y-27380714D01*
X134673214Y-27345000D01*
X134744642Y-27309285D01*
X134851785Y-27309285D01*
X134923214Y-27345000D01*
X134958928Y-27380714D01*
X134994642Y-27452142D01*
X134994642Y-27666428D01*
X134958928Y-27737857D01*
X134923214Y-27773571D01*
X134851785Y-27809285D01*
X134744642Y-27809285D01*
X135316071Y-27059285D02*
X135316071Y-27666428D01*
X135351785Y-27737857D01*
X135387500Y-27773571D01*
X135458928Y-27809285D01*
X135601785Y-27809285D01*
X135673214Y-27773571D01*
X135708928Y-27737857D01*
X135744642Y-27666428D01*
X135744642Y-27059285D01*
X136066071Y-27773571D02*
X136173214Y-27809285D01*
X136351785Y-27809285D01*
X136423214Y-27773571D01*
X136458928Y-27737857D01*
X136494642Y-27666428D01*
X136494642Y-27595000D01*
X136458928Y-27523571D01*
X136423214Y-27487857D01*
X136351785Y-27452142D01*
X136208928Y-27416428D01*
X136137500Y-27380714D01*
X136101785Y-27345000D01*
X136066071Y-27273571D01*
X136066071Y-27202142D01*
X136101785Y-27130714D01*
X136137500Y-27095000D01*
X136208928Y-27059285D01*
X136387500Y-27059285D01*
X136494642Y-27095000D01*
X137066071Y-27416428D02*
X137173214Y-27452142D01*
X137208928Y-27487857D01*
X137244642Y-27559285D01*
X137244642Y-27666428D01*
X137208928Y-27737857D01*
X137173214Y-27773571D01*
X137101785Y-27809285D01*
X136816071Y-27809285D01*
X136816071Y-27059285D01*
X137066071Y-27059285D01*
X137137500Y-27095000D01*
X137173214Y-27130714D01*
X137208928Y-27202142D01*
X137208928Y-27273571D01*
X137173214Y-27345000D01*
X137137500Y-27380714D01*
X137066071Y-27416428D01*
X136816071Y-27416428D01*
X132316071Y-27809285D02*
X132316071Y-27059285D01*
X132566071Y-27595000D01*
X132816071Y-27059285D01*
X132816071Y-27809285D01*
X133173214Y-27809285D02*
X133173214Y-27309285D01*
X133173214Y-27059285D02*
X133137500Y-27095000D01*
X133173214Y-27130714D01*
X133208928Y-27095000D01*
X133173214Y-27059285D01*
X133173214Y-27130714D01*
X133851785Y-27773571D02*
X133780357Y-27809285D01*
X133637500Y-27809285D01*
X133566071Y-27773571D01*
X133530357Y-27737857D01*
X133494642Y-27666428D01*
X133494642Y-27452142D01*
X133530357Y-27380714D01*
X133566071Y-27345000D01*
X133637500Y-27309285D01*
X133780357Y-27309285D01*
X133851785Y-27345000D01*
X134173214Y-27809285D02*
X134173214Y-27309285D01*
X134173214Y-27452142D02*
X134208928Y-27380714D01*
X134244642Y-27345000D01*
X134316071Y-27309285D01*
X134387500Y-27309285D01*
X134744642Y-27809285D02*
X134673214Y-27773571D01*
X134637500Y-27737857D01*
X134601785Y-27666428D01*
X134601785Y-27452142D01*
X134637500Y-27380714D01*
X134673214Y-27345000D01*
X134744642Y-27309285D01*
X134851785Y-27309285D01*
X134923214Y-27345000D01*
X134958928Y-27380714D01*
X134994642Y-27452142D01*
X134994642Y-27666428D01*
X134958928Y-27737857D01*
X134923214Y-27773571D01*
X134851785Y-27809285D01*
X134744642Y-27809285D01*
X135316071Y-27059285D02*
X135316071Y-27666428D01*
X135351785Y-27737857D01*
X135387500Y-27773571D01*
X135458928Y-27809285D01*
X135601785Y-27809285D01*
X135673214Y-27773571D01*
X135708928Y-27737857D01*
X135744642Y-27666428D01*
X135744642Y-27059285D01*
X136066071Y-27773571D02*
X136173214Y-27809285D01*
X136351785Y-27809285D01*
X136423214Y-27773571D01*
X136458928Y-27737857D01*
X136494642Y-27666428D01*
X136494642Y-27595000D01*
X136458928Y-27523571D01*
X136423214Y-27487857D01*
X136351785Y-27452142D01*
X136208928Y-27416428D01*
X136137500Y-27380714D01*
X136101785Y-27345000D01*
X136066071Y-27273571D01*
X136066071Y-27202142D01*
X136101785Y-27130714D01*
X136137500Y-27095000D01*
X136208928Y-27059285D01*
X136387500Y-27059285D01*
X136494642Y-27095000D01*
X137066071Y-27416428D02*
X137173214Y-27452142D01*
X137208928Y-27487857D01*
X137244642Y-27559285D01*
X137244642Y-27666428D01*
X137208928Y-27737857D01*
X137173214Y-27773571D01*
X137101785Y-27809285D01*
X136816071Y-27809285D01*
X136816071Y-27059285D01*
X137066071Y-27059285D01*
X137137500Y-27095000D01*
X137173214Y-27130714D01*
X137208928Y-27202142D01*
X137208928Y-27273571D01*
X137173214Y-27345000D01*
X137137500Y-27380714D01*
X137066071Y-27416428D01*
X136816071Y-27416428D01*
D12*
D10*
X156306761Y-32451285D02*
X156140095Y-32094142D01*
X156021047Y-32451285D02*
X156021047Y-31701285D01*
X156211523Y-31701285D01*
X156259142Y-31737000D01*
X156282952Y-31772714D01*
X156306761Y-31844142D01*
X156306761Y-31951285D01*
X156282952Y-32022714D01*
X156259142Y-32058428D01*
X156211523Y-32094142D01*
X156021047Y-32094142D01*
X156497238Y-32237000D02*
X156735333Y-32237000D01*
X156449619Y-32451285D02*
X156616285Y-31701285D01*
X156782952Y-32451285D01*
X156902000Y-31701285D02*
X157021047Y-32451285D01*
X157116285Y-31915571D01*
X157211523Y-32451285D01*
X157330571Y-31701285D01*
X156497023Y-34165000D02*
X156433214Y-34129285D01*
X156337500Y-34129285D01*
X156241785Y-34165000D01*
X156177976Y-34236428D01*
X156146071Y-34307857D01*
X156114166Y-34450714D01*
X156114166Y-34557857D01*
X156146071Y-34700714D01*
X156177976Y-34772142D01*
X156241785Y-34843571D01*
X156337500Y-34879285D01*
X156401309Y-34879285D01*
X156497023Y-34843571D01*
X156528928Y-34807857D01*
X156528928Y-34557857D01*
X156401309Y-34557857D01*
X156816071Y-34879285D02*
X156816071Y-34129285D01*
X157198928Y-34879285D01*
X157198928Y-34129285D01*
X157517976Y-34879285D02*
X157517976Y-34129285D01*
X157677500Y-34129285D01*
X157773214Y-34165000D01*
X157837023Y-34236428D01*
X157868928Y-34307857D01*
X157900833Y-34450714D01*
X157900833Y-34557857D01*
X157868928Y-34700714D01*
X157837023Y-34772142D01*
X157773214Y-34843571D01*
X157677500Y-34879285D01*
X157517976Y-34879285D01*
X156378190Y-37594785D02*
X156211523Y-37237642D01*
X156092476Y-37594785D02*
X156092476Y-36844785D01*
X156282952Y-36844785D01*
X156330571Y-36880500D01*
X156354380Y-36916214D01*
X156378190Y-36987642D01*
X156378190Y-37094785D01*
X156354380Y-37166214D01*
X156330571Y-37201928D01*
X156282952Y-37237642D01*
X156092476Y-37237642D01*
X156568666Y-37559071D02*
X156640095Y-37594785D01*
X156759142Y-37594785D01*
X156806761Y-37559071D01*
X156830571Y-37523357D01*
X156854380Y-37451928D01*
X156854380Y-37380500D01*
X156830571Y-37309071D01*
X156806761Y-37273357D01*
X156759142Y-37237642D01*
X156663904Y-37201928D01*
X156616285Y-37166214D01*
X156592476Y-37130500D01*
X156568666Y-37059071D01*
X156568666Y-36987642D01*
X156592476Y-36916214D01*
X156616285Y-36880500D01*
X156663904Y-36844785D01*
X156782952Y-36844785D01*
X156854380Y-36880500D01*
X156997238Y-36844785D02*
X157282952Y-36844785D01*
X157140095Y-37594785D02*
X157140095Y-36844785D01*
X155985333Y-39321285D02*
X156152000Y-40071285D01*
X156318666Y-39321285D01*
X156771047Y-39999857D02*
X156747238Y-40035571D01*
X156675809Y-40071285D01*
X156628190Y-40071285D01*
X156556761Y-40035571D01*
X156509142Y-39964142D01*
X156485333Y-39892714D01*
X156461523Y-39749857D01*
X156461523Y-39642714D01*
X156485333Y-39499857D01*
X156509142Y-39428428D01*
X156556761Y-39357000D01*
X156628190Y-39321285D01*
X156675809Y-39321285D01*
X156747238Y-39357000D01*
X156771047Y-39392714D01*
X157271047Y-39999857D02*
X157247238Y-40035571D01*
X157175809Y-40071285D01*
X157128190Y-40071285D01*
X157056761Y-40035571D01*
X157009142Y-39964142D01*
X156985333Y-39892714D01*
X156961523Y-39749857D01*
X156961523Y-39642714D01*
X156985333Y-39499857D01*
X157009142Y-39428428D01*
X157056761Y-39357000D01*
X157128190Y-39321285D01*
X157175809Y-39321285D01*
X157247238Y-39357000D01*
X157271047Y-39392714D01*
X156156785Y-42265000D02*
X156475833Y-42265000D01*
X156092976Y-42479285D02*
X156316309Y-41729285D01*
X156539642Y-42479285D01*
X156699166Y-41729285D02*
X157113928Y-41729285D01*
X156890595Y-42015000D01*
X156986309Y-42015000D01*
X157050119Y-42050714D01*
X157082023Y-42086428D01*
X157113928Y-42157857D01*
X157113928Y-42336428D01*
X157082023Y-42407857D01*
X157050119Y-42443571D01*
X156986309Y-42479285D01*
X156794880Y-42479285D01*
X156731071Y-42443571D01*
X156699166Y-42407857D01*
X157879642Y-41693571D02*
X157305357Y-42657857D01*
X158326309Y-42086428D02*
X158102976Y-42086428D01*
X158102976Y-42479285D02*
X158102976Y-41729285D01*
X158422023Y-41729285D01*
X158964404Y-41979285D02*
X158964404Y-42479285D01*
X158804880Y-41693571D02*
X158645357Y-42229285D01*
X159060119Y-42229285D01*
X156156785Y-44765000D02*
X156475833Y-44765000D01*
X156092976Y-44979285D02*
X156316309Y-44229285D01*
X156539642Y-44979285D01*
X156731071Y-44300714D02*
X156762976Y-44265000D01*
X156826785Y-44229285D01*
X156986309Y-44229285D01*
X157050119Y-44265000D01*
X157082023Y-44300714D01*
X157113928Y-44372142D01*
X157113928Y-44443571D01*
X157082023Y-44550714D01*
X156699166Y-44979285D01*
X157113928Y-44979285D01*
X157879642Y-44193571D02*
X157305357Y-45157857D01*
X158326309Y-44586428D02*
X158102976Y-44586428D01*
X158102976Y-44979285D02*
X158102976Y-44229285D01*
X158422023Y-44229285D01*
X158996309Y-44229285D02*
X158677261Y-44229285D01*
X158645357Y-44586428D01*
X158677261Y-44550714D01*
X158741071Y-44515000D01*
X158900595Y-44515000D01*
X158964404Y-44550714D01*
X158996309Y-44586428D01*
X159028214Y-44657857D01*
X159028214Y-44836428D01*
X158996309Y-44907857D01*
X158964404Y-44943571D01*
X158900595Y-44979285D01*
X158741071Y-44979285D01*
X158677261Y-44943571D01*
X158645357Y-44907857D01*
X156156785Y-47265000D02*
X156475833Y-47265000D01*
X156092976Y-47479285D02*
X156316309Y-46729285D01*
X156539642Y-47479285D01*
X157113928Y-47479285D02*
X156731071Y-47479285D01*
X156922500Y-47479285D02*
X156922500Y-46729285D01*
X156858690Y-46836428D01*
X156794880Y-46907857D01*
X156731071Y-46943571D01*
X157879642Y-46693571D02*
X157305357Y-47657857D01*
X158326309Y-47086428D02*
X158102976Y-47086428D01*
X158102976Y-47479285D02*
X158102976Y-46729285D01*
X158422023Y-46729285D01*
X158964404Y-46729285D02*
X158836785Y-46729285D01*
X158772976Y-46765000D01*
X158741071Y-46800714D01*
X158677261Y-46907857D01*
X158645357Y-47050714D01*
X158645357Y-47336428D01*
X158677261Y-47407857D01*
X158709166Y-47443571D01*
X158772976Y-47479285D01*
X158900595Y-47479285D01*
X158964404Y-47443571D01*
X158996309Y-47407857D01*
X159028214Y-47336428D01*
X159028214Y-47157857D01*
X158996309Y-47086428D01*
X158964404Y-47050714D01*
X158900595Y-47015000D01*
X158772976Y-47015000D01*
X158709166Y-47050714D01*
X158677261Y-47086428D01*
X158645357Y-47157857D01*
X156156785Y-49815000D02*
X156475833Y-49815000D01*
X156092976Y-50029285D02*
X156316309Y-49279285D01*
X156539642Y-50029285D01*
X156890595Y-49279285D02*
X156954404Y-49279285D01*
X157018214Y-49315000D01*
X157050119Y-49350714D01*
X157082023Y-49422142D01*
X157113928Y-49565000D01*
X157113928Y-49743571D01*
X157082023Y-49886428D01*
X157050119Y-49957857D01*
X157018214Y-49993571D01*
X156954404Y-50029285D01*
X156890595Y-50029285D01*
X156826785Y-49993571D01*
X156794880Y-49957857D01*
X156762976Y-49886428D01*
X156731071Y-49743571D01*
X156731071Y-49565000D01*
X156762976Y-49422142D01*
X156794880Y-49350714D01*
X156826785Y-49315000D01*
X156890595Y-49279285D01*
X157879642Y-49243571D02*
X157305357Y-50207857D01*
X158326309Y-49636428D02*
X158102976Y-49636428D01*
X158102976Y-50029285D02*
X158102976Y-49279285D01*
X158422023Y-49279285D01*
X158613452Y-49279285D02*
X159060119Y-49279285D01*
X158772976Y-50029285D01*
X156459880Y-52579285D02*
X156077023Y-52579285D01*
X156268452Y-52579285D02*
X156268452Y-51829285D01*
X156204642Y-51936428D01*
X156140833Y-52007857D01*
X156077023Y-52043571D01*
X157066071Y-51829285D02*
X156747023Y-51829285D01*
X156715119Y-52186428D01*
X156747023Y-52150714D01*
X156810833Y-52115000D01*
X156970357Y-52115000D01*
X157034166Y-52150714D01*
X157066071Y-52186428D01*
X157097976Y-52257857D01*
X157097976Y-52436428D01*
X157066071Y-52507857D01*
X157034166Y-52543571D01*
X156970357Y-52579285D01*
X156810833Y-52579285D01*
X156747023Y-52543571D01*
X156715119Y-52507857D01*
X157863690Y-51793571D02*
X157289404Y-52757857D01*
X158310357Y-52186428D02*
X158406071Y-52222142D01*
X158437976Y-52257857D01*
X158469880Y-52329285D01*
X158469880Y-52436428D01*
X158437976Y-52507857D01*
X158406071Y-52543571D01*
X158342261Y-52579285D01*
X158087023Y-52579285D01*
X158087023Y-51829285D01*
X158310357Y-51829285D01*
X158374166Y-51865000D01*
X158406071Y-51900714D01*
X158437976Y-51972142D01*
X158437976Y-52043571D01*
X158406071Y-52115000D01*
X158374166Y-52150714D01*
X158310357Y-52186428D01*
X158087023Y-52186428D01*
X159107976Y-52579285D02*
X158725119Y-52579285D01*
X158916547Y-52579285D02*
X158916547Y-51829285D01*
X158852738Y-51936428D01*
X158788928Y-52007857D01*
X158725119Y-52043571D01*
X156459880Y-55129285D02*
X156077023Y-55129285D01*
X156268452Y-55129285D02*
X156268452Y-54379285D01*
X156204642Y-54486428D01*
X156140833Y-54557857D01*
X156077023Y-54593571D01*
X157034166Y-54629285D02*
X157034166Y-55129285D01*
X156874642Y-54343571D02*
X156715119Y-54879285D01*
X157129880Y-54879285D01*
X157863690Y-54343571D02*
X157289404Y-55307857D01*
X158310357Y-54736428D02*
X158406071Y-54772142D01*
X158437976Y-54807857D01*
X158469880Y-54879285D01*
X158469880Y-54986428D01*
X158437976Y-55057857D01*
X158406071Y-55093571D01*
X158342261Y-55129285D01*
X158087023Y-55129285D01*
X158087023Y-54379285D01*
X158310357Y-54379285D01*
X158374166Y-54415000D01*
X158406071Y-54450714D01*
X158437976Y-54522142D01*
X158437976Y-54593571D01*
X158406071Y-54665000D01*
X158374166Y-54700714D01*
X158310357Y-54736428D01*
X158087023Y-54736428D01*
X158693214Y-54379285D02*
X159107976Y-54379285D01*
X158884642Y-54665000D01*
X158980357Y-54665000D01*
X159044166Y-54700714D01*
X159076071Y-54736428D01*
X159107976Y-54807857D01*
X159107976Y-54986428D01*
X159076071Y-55057857D01*
X159044166Y-55093571D01*
X158980357Y-55129285D01*
X158788928Y-55129285D01*
X158725119Y-55093571D01*
X158693214Y-55057857D01*
X156459880Y-60179285D02*
X156077023Y-60179285D01*
X156268452Y-60179285D02*
X156268452Y-59429285D01*
X156204642Y-59536428D01*
X156140833Y-59607857D01*
X156077023Y-59643571D01*
X156874642Y-59429285D02*
X156938452Y-59429285D01*
X157002261Y-59465000D01*
X157034166Y-59500714D01*
X157066071Y-59572142D01*
X157097976Y-59715000D01*
X157097976Y-59893571D01*
X157066071Y-60036428D01*
X157034166Y-60107857D01*
X157002261Y-60143571D01*
X156938452Y-60179285D01*
X156874642Y-60179285D01*
X156810833Y-60143571D01*
X156778928Y-60107857D01*
X156747023Y-60036428D01*
X156715119Y-59893571D01*
X156715119Y-59715000D01*
X156747023Y-59572142D01*
X156778928Y-59500714D01*
X156810833Y-59465000D01*
X156874642Y-59429285D01*
X157863690Y-59393571D02*
X157289404Y-60357857D01*
X158310357Y-59786428D02*
X158406071Y-59822142D01*
X158437976Y-59857857D01*
X158469880Y-59929285D01*
X158469880Y-60036428D01*
X158437976Y-60107857D01*
X158406071Y-60143571D01*
X158342261Y-60179285D01*
X158087023Y-60179285D01*
X158087023Y-59429285D01*
X158310357Y-59429285D01*
X158374166Y-59465000D01*
X158406071Y-59500714D01*
X158437976Y-59572142D01*
X158437976Y-59643571D01*
X158406071Y-59715000D01*
X158374166Y-59750714D01*
X158310357Y-59786428D01*
X158087023Y-59786428D01*
X159044166Y-59429285D02*
X158916547Y-59429285D01*
X158852738Y-59465000D01*
X158820833Y-59500714D01*
X158757023Y-59607857D01*
X158725119Y-59750714D01*
X158725119Y-60036428D01*
X158757023Y-60107857D01*
X158788928Y-60143571D01*
X158852738Y-60179285D01*
X158980357Y-60179285D01*
X159044166Y-60143571D01*
X159076071Y-60107857D01*
X159107976Y-60036428D01*
X159107976Y-59857857D01*
X159076071Y-59786428D01*
X159044166Y-59750714D01*
X158980357Y-59715000D01*
X158852738Y-59715000D01*
X158788928Y-59750714D01*
X158757023Y-59786428D01*
X158725119Y-59857857D01*
X156459880Y-57679285D02*
X156077023Y-57679285D01*
X156268452Y-57679285D02*
X156268452Y-56929285D01*
X156204642Y-57036428D01*
X156140833Y-57107857D01*
X156077023Y-57143571D01*
X157034166Y-56929285D02*
X156906547Y-56929285D01*
X156842738Y-56965000D01*
X156810833Y-57000714D01*
X156747023Y-57107857D01*
X156715119Y-57250714D01*
X156715119Y-57536428D01*
X156747023Y-57607857D01*
X156778928Y-57643571D01*
X156842738Y-57679285D01*
X156970357Y-57679285D01*
X157034166Y-57643571D01*
X157066071Y-57607857D01*
X157097976Y-57536428D01*
X157097976Y-57357857D01*
X157066071Y-57286428D01*
X157034166Y-57250714D01*
X156970357Y-57215000D01*
X156842738Y-57215000D01*
X156778928Y-57250714D01*
X156747023Y-57286428D01*
X156715119Y-57357857D01*
X157863690Y-56893571D02*
X157289404Y-57857857D01*
X158310357Y-57286428D02*
X158406071Y-57322142D01*
X158437976Y-57357857D01*
X158469880Y-57429285D01*
X158469880Y-57536428D01*
X158437976Y-57607857D01*
X158406071Y-57643571D01*
X158342261Y-57679285D01*
X158087023Y-57679285D01*
X158087023Y-56929285D01*
X158310357Y-56929285D01*
X158374166Y-56965000D01*
X158406071Y-57000714D01*
X158437976Y-57072142D01*
X158437976Y-57143571D01*
X158406071Y-57215000D01*
X158374166Y-57250714D01*
X158310357Y-57286428D01*
X158087023Y-57286428D01*
X158725119Y-57000714D02*
X158757023Y-56965000D01*
X158820833Y-56929285D01*
X158980357Y-56929285D01*
X159044166Y-56965000D01*
X159076071Y-57000714D01*
X159107976Y-57072142D01*
X159107976Y-57143571D01*
X159076071Y-57250714D01*
X158693214Y-57679285D01*
X159107976Y-57679285D01*
X165559880Y-54586428D02*
X165783214Y-54586428D01*
X165878928Y-54979285D02*
X165559880Y-54979285D01*
X165559880Y-54229285D01*
X165878928Y-54229285D01*
X166453214Y-54229285D02*
X166325595Y-54229285D01*
X166261785Y-54265000D01*
X166229880Y-54300714D01*
X166166071Y-54407857D01*
X166134166Y-54550714D01*
X166134166Y-54836428D01*
X166166071Y-54907857D01*
X166197976Y-54943571D01*
X166261785Y-54979285D01*
X166389404Y-54979285D01*
X166453214Y-54943571D01*
X166485119Y-54907857D01*
X166517023Y-54836428D01*
X166517023Y-54657857D01*
X166485119Y-54586428D01*
X166453214Y-54550714D01*
X166389404Y-54515000D01*
X166261785Y-54515000D01*
X166197976Y-54550714D01*
X166166071Y-54586428D01*
X166134166Y-54657857D01*
X167282738Y-54193571D02*
X166708452Y-55157857D01*
X167442261Y-54229285D02*
X167888928Y-54229285D01*
X167601785Y-54979285D01*
X165527976Y-52429285D02*
X165527976Y-51679285D01*
X165687500Y-51679285D01*
X165783214Y-51715000D01*
X165847023Y-51786428D01*
X165878928Y-51857857D01*
X165910833Y-52000714D01*
X165910833Y-52107857D01*
X165878928Y-52250714D01*
X165847023Y-52322142D01*
X165783214Y-52393571D01*
X165687500Y-52429285D01*
X165527976Y-52429285D01*
X166134166Y-51679285D02*
X166580833Y-51679285D01*
X166293690Y-52429285D01*
X167314642Y-51643571D02*
X166740357Y-52607857D01*
X167825119Y-51679285D02*
X167697500Y-51679285D01*
X167633690Y-51715000D01*
X167601785Y-51750714D01*
X167537976Y-51857857D01*
X167506071Y-52000714D01*
X167506071Y-52286428D01*
X167537976Y-52357857D01*
X167569880Y-52393571D01*
X167633690Y-52429285D01*
X167761309Y-52429285D01*
X167825119Y-52393571D01*
X167857023Y-52357857D01*
X167888928Y-52286428D01*
X167888928Y-52107857D01*
X167857023Y-52036428D01*
X167825119Y-52000714D01*
X167761309Y-51965000D01*
X167633690Y-51965000D01*
X167569880Y-52000714D01*
X167537976Y-52036428D01*
X167506071Y-52107857D01*
X166432023Y-36665000D02*
X166368214Y-36629285D01*
X166272500Y-36629285D01*
X166176785Y-36665000D01*
X166112976Y-36736428D01*
X166081071Y-36807857D01*
X166049166Y-36950714D01*
X166049166Y-37057857D01*
X166081071Y-37200714D01*
X166112976Y-37272142D01*
X166176785Y-37343571D01*
X166272500Y-37379285D01*
X166336309Y-37379285D01*
X166432023Y-37343571D01*
X166463928Y-37307857D01*
X166463928Y-37057857D01*
X166336309Y-37057857D01*
X166751071Y-37379285D02*
X166751071Y-36629285D01*
X167133928Y-37379285D01*
X167133928Y-36629285D01*
X167452976Y-37379285D02*
X167452976Y-36629285D01*
X167612500Y-36629285D01*
X167708214Y-36665000D01*
X167772023Y-36736428D01*
X167803928Y-36807857D01*
X167835833Y-36950714D01*
X167835833Y-37057857D01*
X167803928Y-37200714D01*
X167772023Y-37272142D01*
X167708214Y-37343571D01*
X167612500Y-37379285D01*
X167452976Y-37379285D01*
X166432023Y-39115000D02*
X166368214Y-39079285D01*
X166272500Y-39079285D01*
X166176785Y-39115000D01*
X166112976Y-39186428D01*
X166081071Y-39257857D01*
X166049166Y-39400714D01*
X166049166Y-39507857D01*
X166081071Y-39650714D01*
X166112976Y-39722142D01*
X166176785Y-39793571D01*
X166272500Y-39829285D01*
X166336309Y-39829285D01*
X166432023Y-39793571D01*
X166463928Y-39757857D01*
X166463928Y-39507857D01*
X166336309Y-39507857D01*
X166751071Y-39829285D02*
X166751071Y-39079285D01*
X167133928Y-39829285D01*
X167133928Y-39079285D01*
X167452976Y-39829285D02*
X167452976Y-39079285D01*
X167612500Y-39079285D01*
X167708214Y-39115000D01*
X167772023Y-39186428D01*
X167803928Y-39257857D01*
X167835833Y-39400714D01*
X167835833Y-39507857D01*
X167803928Y-39650714D01*
X167772023Y-39722142D01*
X167708214Y-39793571D01*
X167612500Y-39829285D01*
X167452976Y-39829285D01*
X164403690Y-32279285D02*
X164403690Y-31529285D01*
X164563214Y-31529285D01*
X164658928Y-31565000D01*
X164722738Y-31636428D01*
X164754642Y-31707857D01*
X164786547Y-31850714D01*
X164786547Y-31957857D01*
X164754642Y-32100714D01*
X164722738Y-32172142D01*
X164658928Y-32243571D01*
X164563214Y-32279285D01*
X164403690Y-32279285D01*
X165009880Y-31529285D02*
X165424642Y-31529285D01*
X165201309Y-31815000D01*
X165297023Y-31815000D01*
X165360833Y-31850714D01*
X165392738Y-31886428D01*
X165424642Y-31957857D01*
X165424642Y-32136428D01*
X165392738Y-32207857D01*
X165360833Y-32243571D01*
X165297023Y-32279285D01*
X165105595Y-32279285D01*
X165041785Y-32243571D01*
X165009880Y-32207857D01*
X166190357Y-31493571D02*
X165616071Y-32457857D01*
X166317976Y-31529285D02*
X166700833Y-31529285D01*
X166509404Y-32279285D02*
X166509404Y-31529285D01*
X166860357Y-31529285D02*
X167307023Y-32279285D01*
X167307023Y-31529285D02*
X166860357Y-32279285D01*
X167689880Y-31529285D02*
X167753690Y-31529285D01*
X167817500Y-31565000D01*
X167849404Y-31600714D01*
X167881309Y-31672142D01*
X167913214Y-31815000D01*
X167913214Y-31993571D01*
X167881309Y-32136428D01*
X167849404Y-32207857D01*
X167817500Y-32243571D01*
X167753690Y-32279285D01*
X167689880Y-32279285D01*
X167626071Y-32243571D01*
X167594166Y-32207857D01*
X167562261Y-32136428D01*
X167530357Y-31993571D01*
X167530357Y-31815000D01*
X167562261Y-31672142D01*
X167594166Y-31600714D01*
X167626071Y-31565000D01*
X167689880Y-31529285D01*
X165527976Y-47329285D02*
X165527976Y-46579285D01*
X165687500Y-46579285D01*
X165783214Y-46615000D01*
X165847023Y-46686428D01*
X165878928Y-46757857D01*
X165910833Y-46900714D01*
X165910833Y-47007857D01*
X165878928Y-47150714D01*
X165847023Y-47222142D01*
X165783214Y-47293571D01*
X165687500Y-47329285D01*
X165527976Y-47329285D01*
X166485119Y-46829285D02*
X166485119Y-47329285D01*
X166325595Y-46543571D02*
X166166071Y-47079285D01*
X166580833Y-47079285D01*
X167314642Y-46543571D02*
X166740357Y-47507857D01*
X167825119Y-46829285D02*
X167825119Y-47329285D01*
X167665595Y-46543571D02*
X167506071Y-47079285D01*
X167920833Y-47079285D01*
X162953928Y-42293571D02*
X163049642Y-42329285D01*
X163209166Y-42329285D01*
X163272976Y-42293571D01*
X163304880Y-42257857D01*
X163336785Y-42186428D01*
X163336785Y-42115000D01*
X163304880Y-42043571D01*
X163272976Y-42007857D01*
X163209166Y-41972142D01*
X163081547Y-41936428D01*
X163017738Y-41900714D01*
X162985833Y-41865000D01*
X162953928Y-41793571D01*
X162953928Y-41722142D01*
X162985833Y-41650714D01*
X163017738Y-41615000D01*
X163081547Y-41579285D01*
X163241071Y-41579285D01*
X163336785Y-41615000D01*
X163623928Y-42329285D02*
X163623928Y-41579285D01*
X163783452Y-41579285D01*
X163879166Y-41615000D01*
X163942976Y-41686428D01*
X163974880Y-41757857D01*
X164006785Y-41900714D01*
X164006785Y-42007857D01*
X163974880Y-42150714D01*
X163942976Y-42222142D01*
X163879166Y-42293571D01*
X163783452Y-42329285D01*
X163623928Y-42329285D01*
X164262023Y-42115000D02*
X164581071Y-42115000D01*
X164198214Y-42329285D02*
X164421547Y-41579285D01*
X164644880Y-42329285D01*
X165346785Y-41543571D02*
X164772500Y-42507857D01*
X165570119Y-42329285D02*
X165570119Y-41579285D01*
X165729642Y-41579285D01*
X165825357Y-41615000D01*
X165889166Y-41686428D01*
X165921071Y-41757857D01*
X165952976Y-41900714D01*
X165952976Y-42007857D01*
X165921071Y-42150714D01*
X165889166Y-42222142D01*
X165825357Y-42293571D01*
X165729642Y-42329285D01*
X165570119Y-42329285D01*
X166591071Y-42329285D02*
X166208214Y-42329285D01*
X166399642Y-42329285D02*
X166399642Y-41579285D01*
X166335833Y-41686428D01*
X166272023Y-41757857D01*
X166208214Y-41793571D01*
X167356785Y-41543571D02*
X166782500Y-42507857D01*
X167548214Y-41650714D02*
X167580119Y-41615000D01*
X167643928Y-41579285D01*
X167803452Y-41579285D01*
X167867261Y-41615000D01*
X167899166Y-41650714D01*
X167931071Y-41722142D01*
X167931071Y-41793571D01*
X167899166Y-41900714D01*
X167516309Y-42329285D01*
X167931071Y-42329285D01*
X162969880Y-44793571D02*
X163065595Y-44829285D01*
X163225119Y-44829285D01*
X163288928Y-44793571D01*
X163320833Y-44757857D01*
X163352738Y-44686428D01*
X163352738Y-44615000D01*
X163320833Y-44543571D01*
X163288928Y-44507857D01*
X163225119Y-44472142D01*
X163097500Y-44436428D01*
X163033690Y-44400714D01*
X163001785Y-44365000D01*
X162969880Y-44293571D01*
X162969880Y-44222142D01*
X163001785Y-44150714D01*
X163033690Y-44115000D01*
X163097500Y-44079285D01*
X163257023Y-44079285D01*
X163352738Y-44115000D01*
X164022738Y-44757857D02*
X163990833Y-44793571D01*
X163895119Y-44829285D01*
X163831309Y-44829285D01*
X163735595Y-44793571D01*
X163671785Y-44722142D01*
X163639880Y-44650714D01*
X163607976Y-44507857D01*
X163607976Y-44400714D01*
X163639880Y-44257857D01*
X163671785Y-44186428D01*
X163735595Y-44115000D01*
X163831309Y-44079285D01*
X163895119Y-44079285D01*
X163990833Y-44115000D01*
X164022738Y-44150714D01*
X164628928Y-44829285D02*
X164309880Y-44829285D01*
X164309880Y-44079285D01*
X165330833Y-44043571D02*
X164756547Y-45007857D01*
X165554166Y-44829285D02*
X165554166Y-44079285D01*
X165713690Y-44079285D01*
X165809404Y-44115000D01*
X165873214Y-44186428D01*
X165905119Y-44257857D01*
X165937023Y-44400714D01*
X165937023Y-44507857D01*
X165905119Y-44650714D01*
X165873214Y-44722142D01*
X165809404Y-44793571D01*
X165713690Y-44829285D01*
X165554166Y-44829285D01*
X166351785Y-44079285D02*
X166415595Y-44079285D01*
X166479404Y-44115000D01*
X166511309Y-44150714D01*
X166543214Y-44222142D01*
X166575119Y-44365000D01*
X166575119Y-44543571D01*
X166543214Y-44686428D01*
X166511309Y-44757857D01*
X166479404Y-44793571D01*
X166415595Y-44829285D01*
X166351785Y-44829285D01*
X166287976Y-44793571D01*
X166256071Y-44757857D01*
X166224166Y-44686428D01*
X166192261Y-44543571D01*
X166192261Y-44365000D01*
X166224166Y-44222142D01*
X166256071Y-44150714D01*
X166287976Y-44115000D01*
X166351785Y-44079285D01*
X167340833Y-44043571D02*
X166766547Y-45007857D01*
X167500357Y-44079285D02*
X167915119Y-44079285D01*
X167691785Y-44365000D01*
X167787500Y-44365000D01*
X167851309Y-44400714D01*
X167883214Y-44436428D01*
X167915119Y-44507857D01*
X167915119Y-44686428D01*
X167883214Y-44757857D01*
X167851309Y-44793571D01*
X167787500Y-44829285D01*
X167596071Y-44829285D01*
X167532261Y-44793571D01*
X167500357Y-44757857D01*
X165910833Y-49807857D02*
X165878928Y-49843571D01*
X165783214Y-49879285D01*
X165719404Y-49879285D01*
X165623690Y-49843571D01*
X165559880Y-49772142D01*
X165527976Y-49700714D01*
X165496071Y-49557857D01*
X165496071Y-49450714D01*
X165527976Y-49307857D01*
X165559880Y-49236428D01*
X165623690Y-49165000D01*
X165719404Y-49129285D01*
X165783214Y-49129285D01*
X165878928Y-49165000D01*
X165910833Y-49200714D01*
X166485119Y-49129285D02*
X166357500Y-49129285D01*
X166293690Y-49165000D01*
X166261785Y-49200714D01*
X166197976Y-49307857D01*
X166166071Y-49450714D01*
X166166071Y-49736428D01*
X166197976Y-49807857D01*
X166229880Y-49843571D01*
X166293690Y-49879285D01*
X166421309Y-49879285D01*
X166485119Y-49843571D01*
X166517023Y-49807857D01*
X166548928Y-49736428D01*
X166548928Y-49557857D01*
X166517023Y-49486428D01*
X166485119Y-49450714D01*
X166421309Y-49415000D01*
X166293690Y-49415000D01*
X166229880Y-49450714D01*
X166197976Y-49486428D01*
X166166071Y-49557857D01*
X167314642Y-49093571D02*
X166740357Y-50057857D01*
X167857023Y-49129285D02*
X167537976Y-49129285D01*
X167506071Y-49486428D01*
X167537976Y-49450714D01*
X167601785Y-49415000D01*
X167761309Y-49415000D01*
X167825119Y-49450714D01*
X167857023Y-49486428D01*
X167888928Y-49557857D01*
X167888928Y-49736428D01*
X167857023Y-49807857D01*
X167825119Y-49843571D01*
X167761309Y-49879285D01*
X167601785Y-49879285D01*
X167537976Y-49843571D01*
X167506071Y-49807857D01*
X165751309Y-59636428D02*
X165847023Y-59672142D01*
X165878928Y-59707857D01*
X165910833Y-59779285D01*
X165910833Y-59886428D01*
X165878928Y-59957857D01*
X165847023Y-59993571D01*
X165783214Y-60029285D01*
X165527976Y-60029285D01*
X165527976Y-59279285D01*
X165751309Y-59279285D01*
X165815119Y-59315000D01*
X165847023Y-59350714D01*
X165878928Y-59422142D01*
X165878928Y-59493571D01*
X165847023Y-59565000D01*
X165815119Y-59600714D01*
X165751309Y-59636428D01*
X165527976Y-59636428D01*
X166517023Y-59279285D02*
X166197976Y-59279285D01*
X166166071Y-59636428D01*
X166197976Y-59600714D01*
X166261785Y-59565000D01*
X166421309Y-59565000D01*
X166485119Y-59600714D01*
X166517023Y-59636428D01*
X166548928Y-59707857D01*
X166548928Y-59886428D01*
X166517023Y-59957857D01*
X166485119Y-59993571D01*
X166421309Y-60029285D01*
X166261785Y-60029285D01*
X166197976Y-59993571D01*
X166166071Y-59957857D01*
X167314642Y-59243571D02*
X166740357Y-60207857D01*
X167569880Y-60029285D02*
X167697500Y-60029285D01*
X167761309Y-59993571D01*
X167793214Y-59957857D01*
X167857023Y-59850714D01*
X167888928Y-59707857D01*
X167888928Y-59422142D01*
X167857023Y-59350714D01*
X167825119Y-59315000D01*
X167761309Y-59279285D01*
X167633690Y-59279285D01*
X167569880Y-59315000D01*
X167537976Y-59350714D01*
X167506071Y-59422142D01*
X167506071Y-59600714D01*
X167537976Y-59672142D01*
X167569880Y-59707857D01*
X167633690Y-59743571D01*
X167761309Y-59743571D01*
X167825119Y-59707857D01*
X167857023Y-59672142D01*
X167888928Y-59600714D01*
X164323928Y-34829285D02*
X164323928Y-34079285D01*
X164483452Y-34079285D01*
X164579166Y-34115000D01*
X164642976Y-34186428D01*
X164674880Y-34257857D01*
X164706785Y-34400714D01*
X164706785Y-34507857D01*
X164674880Y-34650714D01*
X164642976Y-34722142D01*
X164579166Y-34793571D01*
X164483452Y-34829285D01*
X164323928Y-34829285D01*
X164962023Y-34150714D02*
X164993928Y-34115000D01*
X165057738Y-34079285D01*
X165217261Y-34079285D01*
X165281071Y-34115000D01*
X165312976Y-34150714D01*
X165344880Y-34222142D01*
X165344880Y-34293571D01*
X165312976Y-34400714D01*
X164930119Y-34829285D01*
X165344880Y-34829285D01*
X166110595Y-34043571D02*
X165536309Y-35007857D01*
X166716785Y-34829285D02*
X166493452Y-34472142D01*
X166333928Y-34829285D02*
X166333928Y-34079285D01*
X166589166Y-34079285D01*
X166652976Y-34115000D01*
X166684880Y-34150714D01*
X166716785Y-34222142D01*
X166716785Y-34329285D01*
X166684880Y-34400714D01*
X166652976Y-34436428D01*
X166589166Y-34472142D01*
X166333928Y-34472142D01*
X166940119Y-34079285D02*
X167386785Y-34829285D01*
X167386785Y-34079285D02*
X166940119Y-34829285D01*
X167992976Y-34829285D02*
X167610119Y-34829285D01*
X167801547Y-34829285D02*
X167801547Y-34079285D01*
X167737738Y-34186428D01*
X167673928Y-34257857D01*
X167610119Y-34293571D01*
X165751309Y-57136428D02*
X165847023Y-57172142D01*
X165878928Y-57207857D01*
X165910833Y-57279285D01*
X165910833Y-57386428D01*
X165878928Y-57457857D01*
X165847023Y-57493571D01*
X165783214Y-57529285D01*
X165527976Y-57529285D01*
X165527976Y-56779285D01*
X165751309Y-56779285D01*
X165815119Y-56815000D01*
X165847023Y-56850714D01*
X165878928Y-56922142D01*
X165878928Y-56993571D01*
X165847023Y-57065000D01*
X165815119Y-57100714D01*
X165751309Y-57136428D01*
X165527976Y-57136428D01*
X166485119Y-57029285D02*
X166485119Y-57529285D01*
X166325595Y-56743571D02*
X166166071Y-57279285D01*
X166580833Y-57279285D01*
X167314642Y-56743571D02*
X166740357Y-57707857D01*
X167633690Y-57100714D02*
X167569880Y-57065000D01*
X167537976Y-57029285D01*
X167506071Y-56957857D01*
X167506071Y-56922142D01*
X167537976Y-56850714D01*
X167569880Y-56815000D01*
X167633690Y-56779285D01*
X167761309Y-56779285D01*
X167825119Y-56815000D01*
X167857023Y-56850714D01*
X167888928Y-56922142D01*
X167888928Y-56957857D01*
X167857023Y-57029285D01*
X167825119Y-57065000D01*
X167761309Y-57100714D01*
X167633690Y-57100714D01*
X167569880Y-57136428D01*
X167537976Y-57172142D01*
X167506071Y-57243571D01*
X167506071Y-57386428D01*
X167537976Y-57457857D01*
X167569880Y-57493571D01*
X167633690Y-57529285D01*
X167761309Y-57529285D01*
X167825119Y-57493571D01*
X167857023Y-57457857D01*
X167888928Y-57386428D01*
X167888928Y-57243571D01*
X167857023Y-57172142D01*
X167825119Y-57136428D01*
X167761309Y-57100714D01*
D13*
X159491071Y-27779285D02*
X159491071Y-27029285D01*
X159741071Y-27565000D01*
X159991071Y-27029285D01*
X159991071Y-27779285D01*
X160348214Y-27779285D02*
X160348214Y-27279285D01*
X160348214Y-27029285D02*
X160312500Y-27065000D01*
X160348214Y-27100714D01*
X160383928Y-27065000D01*
X160348214Y-27029285D01*
X160348214Y-27100714D01*
X161026785Y-27743571D02*
X160955357Y-27779285D01*
X160812500Y-27779285D01*
X160741071Y-27743571D01*
X160705357Y-27707857D01*
X160669642Y-27636428D01*
X160669642Y-27422142D01*
X160705357Y-27350714D01*
X160741071Y-27315000D01*
X160812500Y-27279285D01*
X160955357Y-27279285D01*
X161026785Y-27315000D01*
X161348214Y-27779285D02*
X161348214Y-27279285D01*
X161348214Y-27422142D02*
X161383928Y-27350714D01*
X161419642Y-27315000D01*
X161491071Y-27279285D01*
X161562500Y-27279285D01*
X161919642Y-27779285D02*
X161848214Y-27743571D01*
X161812500Y-27707857D01*
X161776785Y-27636428D01*
X161776785Y-27422142D01*
X161812500Y-27350714D01*
X161848214Y-27315000D01*
X161919642Y-27279285D01*
X162026785Y-27279285D01*
X162098214Y-27315000D01*
X162133928Y-27350714D01*
X162169642Y-27422142D01*
X162169642Y-27636428D01*
X162133928Y-27707857D01*
X162098214Y-27743571D01*
X162026785Y-27779285D01*
X161919642Y-27779285D01*
X162491071Y-27029285D02*
X162491071Y-27636428D01*
X162526785Y-27707857D01*
X162562500Y-27743571D01*
X162633928Y-27779285D01*
X162776785Y-27779285D01*
X162848214Y-27743571D01*
X162883928Y-27707857D01*
X162919642Y-27636428D01*
X162919642Y-27029285D01*
X163241071Y-27743571D02*
X163348214Y-27779285D01*
X163526785Y-27779285D01*
X163598214Y-27743571D01*
X163633928Y-27707857D01*
X163669642Y-27636428D01*
X163669642Y-27565000D01*
X163633928Y-27493571D01*
X163598214Y-27457857D01*
X163526785Y-27422142D01*
X163383928Y-27386428D01*
X163312500Y-27350714D01*
X163276785Y-27315000D01*
X163241071Y-27243571D01*
X163241071Y-27172142D01*
X163276785Y-27100714D01*
X163312500Y-27065000D01*
X163383928Y-27029285D01*
X163562500Y-27029285D01*
X163669642Y-27065000D01*
X164241071Y-27386428D02*
X164348214Y-27422142D01*
X164383928Y-27457857D01*
X164419642Y-27529285D01*
X164419642Y-27636428D01*
X164383928Y-27707857D01*
X164348214Y-27743571D01*
X164276785Y-27779285D01*
X163991071Y-27779285D01*
X163991071Y-27029285D01*
X164241071Y-27029285D01*
X164312500Y-27065000D01*
X164348214Y-27100714D01*
X164383928Y-27172142D01*
X164383928Y-27243571D01*
X164348214Y-27315000D01*
X164312500Y-27350714D01*
X164241071Y-27386428D01*
X163991071Y-27386428D01*
X159491071Y-27779285D02*
X159491071Y-27029285D01*
X159741071Y-27565000D01*
X159991071Y-27029285D01*
X159991071Y-27779285D01*
X160348214Y-27779285D02*
X160348214Y-27279285D01*
X160348214Y-27029285D02*
X160312500Y-27065000D01*
X160348214Y-27100714D01*
X160383928Y-27065000D01*
X160348214Y-27029285D01*
X160348214Y-27100714D01*
X161026785Y-27743571D02*
X160955357Y-27779285D01*
X160812500Y-27779285D01*
X160741071Y-27743571D01*
X160705357Y-27707857D01*
X160669642Y-27636428D01*
X160669642Y-27422142D01*
X160705357Y-27350714D01*
X160741071Y-27315000D01*
X160812500Y-27279285D01*
X160955357Y-27279285D01*
X161026785Y-27315000D01*
X161348214Y-27779285D02*
X161348214Y-27279285D01*
X161348214Y-27422142D02*
X161383928Y-27350714D01*
X161419642Y-27315000D01*
X161491071Y-27279285D01*
X161562500Y-27279285D01*
X161919642Y-27779285D02*
X161848214Y-27743571D01*
X161812500Y-27707857D01*
X161776785Y-27636428D01*
X161776785Y-27422142D01*
X161812500Y-27350714D01*
X161848214Y-27315000D01*
X161919642Y-27279285D01*
X162026785Y-27279285D01*
X162098214Y-27315000D01*
X162133928Y-27350714D01*
X162169642Y-27422142D01*
X162169642Y-27636428D01*
X162133928Y-27707857D01*
X162098214Y-27743571D01*
X162026785Y-27779285D01*
X161919642Y-27779285D01*
X162491071Y-27029285D02*
X162491071Y-27636428D01*
X162526785Y-27707857D01*
X162562500Y-27743571D01*
X162633928Y-27779285D01*
X162776785Y-27779285D01*
X162848214Y-27743571D01*
X162883928Y-27707857D01*
X162919642Y-27636428D01*
X162919642Y-27029285D01*
X163241071Y-27743571D02*
X163348214Y-27779285D01*
X163526785Y-27779285D01*
X163598214Y-27743571D01*
X163633928Y-27707857D01*
X163669642Y-27636428D01*
X163669642Y-27565000D01*
X163633928Y-27493571D01*
X163598214Y-27457857D01*
X163526785Y-27422142D01*
X163383928Y-27386428D01*
X163312500Y-27350714D01*
X163276785Y-27315000D01*
X163241071Y-27243571D01*
X163241071Y-27172142D01*
X163276785Y-27100714D01*
X163312500Y-27065000D01*
X163383928Y-27029285D01*
X163562500Y-27029285D01*
X163669642Y-27065000D01*
X164241071Y-27386428D02*
X164348214Y-27422142D01*
X164383928Y-27457857D01*
X164419642Y-27529285D01*
X164419642Y-27636428D01*
X164383928Y-27707857D01*
X164348214Y-27743571D01*
X164276785Y-27779285D01*
X163991071Y-27779285D01*
X163991071Y-27029285D01*
X164241071Y-27029285D01*
X164312500Y-27065000D01*
X164348214Y-27100714D01*
X164383928Y-27172142D01*
X164383928Y-27243571D01*
X164348214Y-27315000D01*
X164312500Y-27350714D01*
X164241071Y-27386428D01*
X163991071Y-27386428D01*
D12*
X160507119Y-64367380D02*
X160697595Y-64367380D01*
X160792833Y-64415000D01*
X160888071Y-64510238D01*
X160935690Y-64700714D01*
X160935690Y-65034047D01*
X160888071Y-65224523D01*
X160792833Y-65319761D01*
X160697595Y-65367380D01*
X160507119Y-65367380D01*
X160411880Y-65319761D01*
X160316642Y-65224523D01*
X160269023Y-65034047D01*
X160269023Y-64700714D01*
X160316642Y-64510238D01*
X160411880Y-64415000D01*
X160507119Y-64367380D01*
X161840452Y-65367380D02*
X161364261Y-65367380D01*
X161364261Y-64367380D01*
X162173785Y-64843571D02*
X162507119Y-64843571D01*
X162649976Y-65367380D02*
X162173785Y-65367380D01*
X162173785Y-64367380D01*
X162649976Y-64367380D01*
X163078547Y-65367380D02*
X163078547Y-64367380D01*
X163316642Y-64367380D01*
X163459500Y-64415000D01*
X163554738Y-64510238D01*
X163602357Y-64605476D01*
X163649976Y-64795952D01*
X163649976Y-64938809D01*
X163602357Y-65129285D01*
X163554738Y-65224523D01*
X163459500Y-65319761D01*
X163316642Y-65367380D01*
X163078547Y-65367380D01*
X133402119Y-64196380D02*
X133592595Y-64196380D01*
X133687833Y-64244000D01*
X133783071Y-64339238D01*
X133830690Y-64529714D01*
X133830690Y-64863047D01*
X133783071Y-65053523D01*
X133687833Y-65148761D01*
X133592595Y-65196380D01*
X133402119Y-65196380D01*
X133306880Y-65148761D01*
X133211642Y-65053523D01*
X133164023Y-64863047D01*
X133164023Y-64529714D01*
X133211642Y-64339238D01*
X133306880Y-64244000D01*
X133402119Y-64196380D01*
X134735452Y-65196380D02*
X134259261Y-65196380D01*
X134259261Y-64196380D01*
X135068785Y-64672571D02*
X135402119Y-64672571D01*
X135544976Y-65196380D02*
X135068785Y-65196380D01*
X135068785Y-64196380D01*
X135544976Y-64196380D01*
X135973547Y-65196380D02*
X135973547Y-64196380D01*
X136211642Y-64196380D01*
X136354500Y-64244000D01*
X136449738Y-64339238D01*
X136497357Y-64434476D01*
X136544976Y-64624952D01*
X136544976Y-64767809D01*
X136497357Y-64958285D01*
X136449738Y-65053523D01*
X136354500Y-65148761D01*
X136211642Y-65196380D01*
X135973547Y-65196380D01*
X154756880Y-67974380D02*
X154280690Y-68307714D01*
X154756880Y-68545809D02*
X153756880Y-68545809D01*
X153756880Y-68164857D01*
X153804500Y-68069619D01*
X153852119Y-68022000D01*
X153947357Y-67974380D01*
X154090214Y-67974380D01*
X154185452Y-68022000D01*
X154233071Y-68069619D01*
X154280690Y-68164857D01*
X154280690Y-68545809D01*
X154233071Y-67545809D02*
X154233071Y-67212476D01*
X154756880Y-67069619D02*
X154756880Y-67545809D01*
X153756880Y-67545809D01*
X153756880Y-67069619D01*
X154709261Y-66688666D02*
X154756880Y-66545809D01*
X154756880Y-66307714D01*
X154709261Y-66212476D01*
X154661642Y-66164857D01*
X154566404Y-66117238D01*
X154471166Y-66117238D01*
X154375928Y-66164857D01*
X154328309Y-66212476D01*
X154280690Y-66307714D01*
X154233071Y-66498190D01*
X154185452Y-66593428D01*
X154137833Y-66641047D01*
X154042595Y-66688666D01*
X153947357Y-66688666D01*
X153852119Y-66641047D01*
X153804500Y-66593428D01*
X153756880Y-66498190D01*
X153756880Y-66260095D01*
X153804500Y-66117238D01*
X154233071Y-65688666D02*
X154233071Y-65355333D01*
X154756880Y-65212476D02*
X154756880Y-65688666D01*
X153756880Y-65688666D01*
X153756880Y-65212476D01*
X153756880Y-64926761D02*
X153756880Y-64355333D01*
X154756880Y-64641047D02*
X153756880Y-64641047D01*
X142876880Y-67983380D02*
X142400690Y-68316714D01*
X142876880Y-68554809D02*
X141876880Y-68554809D01*
X141876880Y-68173857D01*
X141924500Y-68078619D01*
X141972119Y-68031000D01*
X142067357Y-67983380D01*
X142210214Y-67983380D01*
X142305452Y-68031000D01*
X142353071Y-68078619D01*
X142400690Y-68173857D01*
X142400690Y-68554809D01*
X142353071Y-67554809D02*
X142353071Y-67221476D01*
X142876880Y-67078619D02*
X142876880Y-67554809D01*
X141876880Y-67554809D01*
X141876880Y-67078619D01*
X142829261Y-66697666D02*
X142876880Y-66554809D01*
X142876880Y-66316714D01*
X142829261Y-66221476D01*
X142781642Y-66173857D01*
X142686404Y-66126238D01*
X142591166Y-66126238D01*
X142495928Y-66173857D01*
X142448309Y-66221476D01*
X142400690Y-66316714D01*
X142353071Y-66507190D01*
X142305452Y-66602428D01*
X142257833Y-66650047D01*
X142162595Y-66697666D01*
X142067357Y-66697666D01*
X141972119Y-66650047D01*
X141924500Y-66602428D01*
X141876880Y-66507190D01*
X141876880Y-66269095D01*
X141924500Y-66126238D01*
X142353071Y-65697666D02*
X142353071Y-65364333D01*
X142876880Y-65221476D02*
X142876880Y-65697666D01*
X141876880Y-65697666D01*
X141876880Y-65221476D01*
X141876880Y-64935761D02*
X141876880Y-64364333D01*
X142876880Y-64650047D02*
X141876880Y-64650047D01*
M02*
