G04 #@! TF.GenerationSoftware,KiCad,Pcbnew,5.1.5+dfsg1-2~bpo10+1*
G04 #@! TF.CreationDate,2020-09-05T17:28:52+00:00*
G04 #@! TF.ProjectId,corne-bottom-plate,636f726e-652d-4626-9f74-746f6d2d706c,2.1*
G04 #@! TF.SameCoordinates,Original*
G04 #@! TF.FileFunction,Soldermask,Bot*
G04 #@! TF.FilePolarity,Negative*
%FSLAX46Y46*%
G04 Gerber Fmt 4.6, Leading zero omitted, Abs format (unit mm)*
G04 Created by KiCad (PCBNEW 5.1.5+dfsg1-2~bpo10+1) date 2020-09-05 17:28:52*
%MOMM*%
%LPD*%
G04 APERTURE LIST*
%ADD10C,0.010000*%
%ADD11C,4.600000*%
G04 APERTURE END LIST*
D10*
G36*
X149206749Y-89703829D02*
G01*
X148945334Y-89751679D01*
X148382627Y-89939289D01*
X147793537Y-90227586D01*
X147248894Y-90578604D01*
X146958846Y-90816356D01*
X146544085Y-91197147D01*
X146785251Y-91448870D01*
X147026416Y-91700592D01*
X147437800Y-91315791D01*
X147739966Y-91073128D01*
X148111921Y-90829169D01*
X148418425Y-90663985D01*
X148730113Y-90529287D01*
X149007904Y-90444260D01*
X149316025Y-90394930D01*
X149718700Y-90367326D01*
X149797650Y-90363932D01*
X150220568Y-90359951D01*
X150644081Y-90378044D01*
X150996186Y-90414474D01*
X151089881Y-90431000D01*
X151864146Y-90674599D01*
X152562584Y-91062263D01*
X153179509Y-91583930D01*
X153709231Y-92229538D01*
X154146062Y-92989028D01*
X154484314Y-93852337D01*
X154718297Y-94809405D01*
X154842324Y-95850171D01*
X154850705Y-96964574D01*
X154845325Y-97073084D01*
X154723699Y-98177329D01*
X154486496Y-99186586D01*
X154137751Y-100089972D01*
X153681498Y-100876606D01*
X153232169Y-101424608D01*
X152605876Y-101982618D01*
X151938168Y-102384445D01*
X151202989Y-102642541D01*
X150427000Y-102765235D01*
X149604009Y-102749865D01*
X148799643Y-102570939D01*
X148029949Y-102234214D01*
X147310976Y-101745448D01*
X147115326Y-101577061D01*
X146598927Y-101109746D01*
X146142595Y-101586054D01*
X146732160Y-102131901D01*
X147068129Y-102416941D01*
X147438871Y-102691069D01*
X147777554Y-102905788D01*
X147858363Y-102949076D01*
X148606303Y-103241543D01*
X149431900Y-103414114D01*
X150287951Y-103461277D01*
X151127253Y-103377519D01*
X151273667Y-103347946D01*
X152128151Y-103077985D01*
X152902413Y-102665328D01*
X153590949Y-102119237D01*
X154188257Y-101448972D01*
X154688831Y-100663796D01*
X155087169Y-99772970D01*
X155377767Y-98785756D01*
X155555120Y-97711414D01*
X155613726Y-96559206D01*
X155602058Y-96064334D01*
X155505230Y-94961805D01*
X155314969Y-93981787D01*
X155024834Y-93101513D01*
X154628385Y-92298213D01*
X154459446Y-92025090D01*
X153877847Y-91279058D01*
X153194625Y-90659541D01*
X152424006Y-90176940D01*
X151580214Y-89841654D01*
X151408334Y-89794317D01*
X150913553Y-89705327D01*
X150336085Y-89659793D01*
X149744344Y-89658899D01*
X149206749Y-89703829D01*
G37*
X149206749Y-89703829D02*
X148945334Y-89751679D01*
X148382627Y-89939289D01*
X147793537Y-90227586D01*
X147248894Y-90578604D01*
X146958846Y-90816356D01*
X146544085Y-91197147D01*
X146785251Y-91448870D01*
X147026416Y-91700592D01*
X147437800Y-91315791D01*
X147739966Y-91073128D01*
X148111921Y-90829169D01*
X148418425Y-90663985D01*
X148730113Y-90529287D01*
X149007904Y-90444260D01*
X149316025Y-90394930D01*
X149718700Y-90367326D01*
X149797650Y-90363932D01*
X150220568Y-90359951D01*
X150644081Y-90378044D01*
X150996186Y-90414474D01*
X151089881Y-90431000D01*
X151864146Y-90674599D01*
X152562584Y-91062263D01*
X153179509Y-91583930D01*
X153709231Y-92229538D01*
X154146062Y-92989028D01*
X154484314Y-93852337D01*
X154718297Y-94809405D01*
X154842324Y-95850171D01*
X154850705Y-96964574D01*
X154845325Y-97073084D01*
X154723699Y-98177329D01*
X154486496Y-99186586D01*
X154137751Y-100089972D01*
X153681498Y-100876606D01*
X153232169Y-101424608D01*
X152605876Y-101982618D01*
X151938168Y-102384445D01*
X151202989Y-102642541D01*
X150427000Y-102765235D01*
X149604009Y-102749865D01*
X148799643Y-102570939D01*
X148029949Y-102234214D01*
X147310976Y-101745448D01*
X147115326Y-101577061D01*
X146598927Y-101109746D01*
X146142595Y-101586054D01*
X146732160Y-102131901D01*
X147068129Y-102416941D01*
X147438871Y-102691069D01*
X147777554Y-102905788D01*
X147858363Y-102949076D01*
X148606303Y-103241543D01*
X149431900Y-103414114D01*
X150287951Y-103461277D01*
X151127253Y-103377519D01*
X151273667Y-103347946D01*
X152128151Y-103077985D01*
X152902413Y-102665328D01*
X153590949Y-102119237D01*
X154188257Y-101448972D01*
X154688831Y-100663796D01*
X155087169Y-99772970D01*
X155377767Y-98785756D01*
X155555120Y-97711414D01*
X155613726Y-96559206D01*
X155602058Y-96064334D01*
X155505230Y-94961805D01*
X155314969Y-93981787D01*
X155024834Y-93101513D01*
X154628385Y-92298213D01*
X154459446Y-92025090D01*
X153877847Y-91279058D01*
X153194625Y-90659541D01*
X152424006Y-90176940D01*
X151580214Y-89841654D01*
X151408334Y-89794317D01*
X150913553Y-89705327D01*
X150336085Y-89659793D01*
X149744344Y-89658899D01*
X149206749Y-89703829D01*
G36*
X137937518Y-89711405D02*
G01*
X137142452Y-89903871D01*
X136416484Y-90236307D01*
X135733634Y-90719502D01*
X135312394Y-91107668D01*
X134694283Y-91840024D01*
X134198684Y-92676227D01*
X133823152Y-93622122D01*
X133565245Y-94683554D01*
X133446397Y-95571131D01*
X133403605Y-96819380D01*
X133508197Y-98027345D01*
X133757190Y-99177104D01*
X134147601Y-100250731D01*
X134268108Y-100507494D01*
X134668382Y-101185068D01*
X135168510Y-101817014D01*
X135734462Y-102367731D01*
X136332206Y-102801617D01*
X136602046Y-102949046D01*
X137451328Y-103270555D01*
X138348344Y-103436354D01*
X139267795Y-103443507D01*
X139970667Y-103340028D01*
X140648788Y-103141287D01*
X141259358Y-102843738D01*
X141842775Y-102424151D01*
X142303670Y-101998527D01*
X142733837Y-101535006D01*
X143062176Y-101101424D01*
X143331993Y-100640480D01*
X143336284Y-100632156D01*
X143746506Y-99668928D01*
X144042802Y-98611708D01*
X144218775Y-97497317D01*
X144256330Y-96632049D01*
X143511889Y-96632049D01*
X143494333Y-97054061D01*
X143371830Y-98162136D01*
X143151412Y-99142472D01*
X142827771Y-100009097D01*
X142395601Y-100776039D01*
X141849594Y-101457324D01*
X141814178Y-101494656D01*
X141174320Y-102049128D01*
X140468267Y-102449119D01*
X139704785Y-102691982D01*
X138892641Y-102775073D01*
X138040601Y-102695746D01*
X137915824Y-102670935D01*
X137157712Y-102425733D01*
X136463934Y-102030485D01*
X135843959Y-101495345D01*
X135307261Y-100830468D01*
X134863309Y-100046007D01*
X134521577Y-99152116D01*
X134470954Y-98977860D01*
X134298559Y-98173067D01*
X134194178Y-97282999D01*
X134163390Y-96379787D01*
X134207586Y-95573424D01*
X134385971Y-94455303D01*
X134666596Y-93470988D01*
X135050655Y-92618406D01*
X135539340Y-91895483D01*
X136133846Y-91300146D01*
X136835364Y-90830322D01*
X136980050Y-90755470D01*
X137302437Y-90599813D01*
X137554542Y-90496519D01*
X137789994Y-90433040D01*
X138062422Y-90396829D01*
X138425455Y-90375339D01*
X138641272Y-90366806D01*
X139348444Y-90373220D01*
X139948147Y-90458231D01*
X140488407Y-90633393D01*
X141017252Y-90910259D01*
X141090164Y-90955914D01*
X141708762Y-91447466D01*
X142247958Y-92074571D01*
X142700865Y-92819763D01*
X143060599Y-93665574D01*
X143320271Y-94594537D01*
X143472997Y-95589184D01*
X143511889Y-96632049D01*
X144256330Y-96632049D01*
X144268026Y-96362573D01*
X144220418Y-95543794D01*
X144053352Y-94427516D01*
X143793481Y-93442225D01*
X143434364Y-92573255D01*
X142969565Y-91805943D01*
X142392643Y-91125622D01*
X142198073Y-90937530D01*
X141489914Y-90384531D01*
X140725632Y-89988203D01*
X139894891Y-89744592D01*
X138987358Y-89649744D01*
X138827667Y-89648122D01*
X137937518Y-89711405D01*
G37*
X137937518Y-89711405D02*
X137142452Y-89903871D01*
X136416484Y-90236307D01*
X135733634Y-90719502D01*
X135312394Y-91107668D01*
X134694283Y-91840024D01*
X134198684Y-92676227D01*
X133823152Y-93622122D01*
X133565245Y-94683554D01*
X133446397Y-95571131D01*
X133403605Y-96819380D01*
X133508197Y-98027345D01*
X133757190Y-99177104D01*
X134147601Y-100250731D01*
X134268108Y-100507494D01*
X134668382Y-101185068D01*
X135168510Y-101817014D01*
X135734462Y-102367731D01*
X136332206Y-102801617D01*
X136602046Y-102949046D01*
X137451328Y-103270555D01*
X138348344Y-103436354D01*
X139267795Y-103443507D01*
X139970667Y-103340028D01*
X140648788Y-103141287D01*
X141259358Y-102843738D01*
X141842775Y-102424151D01*
X142303670Y-101998527D01*
X142733837Y-101535006D01*
X143062176Y-101101424D01*
X143331993Y-100640480D01*
X143336284Y-100632156D01*
X143746506Y-99668928D01*
X144042802Y-98611708D01*
X144218775Y-97497317D01*
X144256330Y-96632049D01*
X143511889Y-96632049D01*
X143494333Y-97054061D01*
X143371830Y-98162136D01*
X143151412Y-99142472D01*
X142827771Y-100009097D01*
X142395601Y-100776039D01*
X141849594Y-101457324D01*
X141814178Y-101494656D01*
X141174320Y-102049128D01*
X140468267Y-102449119D01*
X139704785Y-102691982D01*
X138892641Y-102775073D01*
X138040601Y-102695746D01*
X137915824Y-102670935D01*
X137157712Y-102425733D01*
X136463934Y-102030485D01*
X135843959Y-101495345D01*
X135307261Y-100830468D01*
X134863309Y-100046007D01*
X134521577Y-99152116D01*
X134470954Y-98977860D01*
X134298559Y-98173067D01*
X134194178Y-97282999D01*
X134163390Y-96379787D01*
X134207586Y-95573424D01*
X134385971Y-94455303D01*
X134666596Y-93470988D01*
X135050655Y-92618406D01*
X135539340Y-91895483D01*
X136133846Y-91300146D01*
X136835364Y-90830322D01*
X136980050Y-90755470D01*
X137302437Y-90599813D01*
X137554542Y-90496519D01*
X137789994Y-90433040D01*
X138062422Y-90396829D01*
X138425455Y-90375339D01*
X138641272Y-90366806D01*
X139348444Y-90373220D01*
X139948147Y-90458231D01*
X140488407Y-90633393D01*
X141017252Y-90910259D01*
X141090164Y-90955914D01*
X141708762Y-91447466D01*
X142247958Y-92074571D01*
X142700865Y-92819763D01*
X143060599Y-93665574D01*
X143320271Y-94594537D01*
X143472997Y-95589184D01*
X143511889Y-96632049D01*
X144256330Y-96632049D01*
X144268026Y-96362573D01*
X144220418Y-95543794D01*
X144053352Y-94427516D01*
X143793481Y-93442225D01*
X143434364Y-92573255D01*
X142969565Y-91805943D01*
X142392643Y-91125622D01*
X142198073Y-90937530D01*
X141489914Y-90384531D01*
X140725632Y-89988203D01*
X139894891Y-89744592D01*
X138987358Y-89649744D01*
X138827667Y-89648122D01*
X137937518Y-89711405D01*
G36*
X127821000Y-89888403D02*
G01*
X127007878Y-89892352D01*
X126340843Y-89902916D01*
X125796683Y-89923343D01*
X125352187Y-89956880D01*
X124984141Y-90006777D01*
X124669335Y-90076280D01*
X124384555Y-90168637D01*
X124106589Y-90287098D01*
X123812226Y-90434909D01*
X123775185Y-90454514D01*
X123269369Y-90789012D01*
X122873680Y-91209539D01*
X122552076Y-91754848D01*
X122537895Y-91784803D01*
X122444249Y-91999107D01*
X122381538Y-92196274D01*
X122343669Y-92418586D01*
X122324546Y-92708320D01*
X122318077Y-93107755D01*
X122317667Y-93312667D01*
X122320590Y-93767826D01*
X122333537Y-94096280D01*
X122362772Y-94340617D01*
X122414560Y-94543422D01*
X122495166Y-94747284D01*
X122544579Y-94855130D01*
X122929650Y-95482592D01*
X123441345Y-96010849D01*
X124059384Y-96424916D01*
X124763488Y-96709805D01*
X125186095Y-96807039D01*
X125494201Y-96868586D01*
X125659998Y-96927837D01*
X125709959Y-96996135D01*
X125703385Y-97028669D01*
X125650858Y-97126486D01*
X125520904Y-97353610D01*
X125322948Y-97693985D01*
X125066413Y-98131557D01*
X124760724Y-98650268D01*
X124415306Y-99234063D01*
X124039584Y-99866887D01*
X123880744Y-100133802D01*
X123497594Y-100778458D01*
X123142852Y-101377699D01*
X122825619Y-101915976D01*
X122554995Y-102377738D01*
X122340080Y-102747435D01*
X122189974Y-103009518D01*
X122113776Y-103148438D01*
X122106000Y-103166391D01*
X122181954Y-103196389D01*
X122375175Y-103213996D01*
X122508167Y-103216104D01*
X122910334Y-103213540D01*
X124773000Y-100086000D01*
X126635667Y-96958460D01*
X129556667Y-96953334D01*
X129556667Y-103218667D01*
X130319693Y-103218667D01*
X130298013Y-96551167D01*
X130278399Y-90518667D01*
X129556667Y-90518667D01*
X129556667Y-96383916D01*
X127672834Y-96337440D01*
X126910845Y-96313677D01*
X126302507Y-96283241D01*
X125832225Y-96244949D01*
X125484404Y-96197615D01*
X125300745Y-96157188D01*
X124602780Y-95909274D01*
X124044212Y-95581064D01*
X123609508Y-95160605D01*
X123283138Y-94635946D01*
X123260263Y-94586968D01*
X123140572Y-94192685D01*
X123077619Y-93698274D01*
X123071061Y-93163027D01*
X123120557Y-92646239D01*
X123225764Y-92207203D01*
X123274707Y-92085000D01*
X123492550Y-91687882D01*
X123757401Y-91359479D01*
X124085150Y-91094273D01*
X124491689Y-90886746D01*
X124992910Y-90731380D01*
X125604705Y-90622660D01*
X126342965Y-90555066D01*
X127223582Y-90523081D01*
X127786115Y-90518667D01*
X129556667Y-90518667D01*
X130278399Y-90518667D01*
X130276334Y-89883667D01*
X127821000Y-89888403D01*
G37*
X127821000Y-89888403D02*
X127007878Y-89892352D01*
X126340843Y-89902916D01*
X125796683Y-89923343D01*
X125352187Y-89956880D01*
X124984141Y-90006777D01*
X124669335Y-90076280D01*
X124384555Y-90168637D01*
X124106589Y-90287098D01*
X123812226Y-90434909D01*
X123775185Y-90454514D01*
X123269369Y-90789012D01*
X122873680Y-91209539D01*
X122552076Y-91754848D01*
X122537895Y-91784803D01*
X122444249Y-91999107D01*
X122381538Y-92196274D01*
X122343669Y-92418586D01*
X122324546Y-92708320D01*
X122318077Y-93107755D01*
X122317667Y-93312667D01*
X122320590Y-93767826D01*
X122333537Y-94096280D01*
X122362772Y-94340617D01*
X122414560Y-94543422D01*
X122495166Y-94747284D01*
X122544579Y-94855130D01*
X122929650Y-95482592D01*
X123441345Y-96010849D01*
X124059384Y-96424916D01*
X124763488Y-96709805D01*
X125186095Y-96807039D01*
X125494201Y-96868586D01*
X125659998Y-96927837D01*
X125709959Y-96996135D01*
X125703385Y-97028669D01*
X125650858Y-97126486D01*
X125520904Y-97353610D01*
X125322948Y-97693985D01*
X125066413Y-98131557D01*
X124760724Y-98650268D01*
X124415306Y-99234063D01*
X124039584Y-99866887D01*
X123880744Y-100133802D01*
X123497594Y-100778458D01*
X123142852Y-101377699D01*
X122825619Y-101915976D01*
X122554995Y-102377738D01*
X122340080Y-102747435D01*
X122189974Y-103009518D01*
X122113776Y-103148438D01*
X122106000Y-103166391D01*
X122181954Y-103196389D01*
X122375175Y-103213996D01*
X122508167Y-103216104D01*
X122910334Y-103213540D01*
X124773000Y-100086000D01*
X126635667Y-96958460D01*
X129556667Y-96953334D01*
X129556667Y-103218667D01*
X130319693Y-103218667D01*
X130298013Y-96551167D01*
X130278399Y-90518667D01*
X129556667Y-90518667D01*
X129556667Y-96383916D01*
X127672834Y-96337440D01*
X126910845Y-96313677D01*
X126302507Y-96283241D01*
X125832225Y-96244949D01*
X125484404Y-96197615D01*
X125300745Y-96157188D01*
X124602780Y-95909274D01*
X124044212Y-95581064D01*
X123609508Y-95160605D01*
X123283138Y-94635946D01*
X123260263Y-94586968D01*
X123140572Y-94192685D01*
X123077619Y-93698274D01*
X123071061Y-93163027D01*
X123120557Y-92646239D01*
X123225764Y-92207203D01*
X123274707Y-92085000D01*
X123492550Y-91687882D01*
X123757401Y-91359479D01*
X124085150Y-91094273D01*
X124491689Y-90886746D01*
X124992910Y-90731380D01*
X125604705Y-90622660D01*
X126342965Y-90555066D01*
X127223582Y-90523081D01*
X127786115Y-90518667D01*
X129556667Y-90518667D01*
X130278399Y-90518667D01*
X130276334Y-89883667D01*
X127821000Y-89888403D01*
G36*
X115854092Y-94603834D02*
G01*
X115331486Y-95469039D01*
X114813349Y-96328156D01*
X114309948Y-97164076D01*
X113831551Y-97959695D01*
X113388425Y-98697905D01*
X112990837Y-99361600D01*
X112649056Y-99933674D01*
X112373348Y-100397021D01*
X112173981Y-100734533D01*
X112157099Y-100763334D01*
X111902109Y-101198312D01*
X111678089Y-101579531D01*
X111498414Y-101884303D01*
X111376462Y-102089942D01*
X111325610Y-102173760D01*
X111325040Y-102174498D01*
X111323103Y-102094393D01*
X111321943Y-101858190D01*
X111321534Y-101479123D01*
X111321851Y-100970425D01*
X111322866Y-100345331D01*
X111324554Y-99617073D01*
X111326888Y-98798885D01*
X111329843Y-97904002D01*
X111333393Y-96945656D01*
X111337180Y-96014998D01*
X111363359Y-89841334D01*
X110676000Y-89841334D01*
X110676000Y-103218667D01*
X111078167Y-103215026D01*
X111480334Y-103211386D01*
X113978000Y-99055977D01*
X114481566Y-98217477D01*
X114994282Y-97362423D01*
X115502983Y-96512856D01*
X115994505Y-95690815D01*
X116455683Y-94918339D01*
X116873351Y-94217469D01*
X117234344Y-93610245D01*
X117525498Y-93118705D01*
X117604513Y-92984784D01*
X117909126Y-92469163D01*
X118186885Y-92001552D01*
X118425858Y-91601836D01*
X118614112Y-91289898D01*
X118739713Y-91085622D01*
X118789846Y-91009684D01*
X118798734Y-91082272D01*
X118806525Y-91311046D01*
X118813149Y-91682858D01*
X118818538Y-92184564D01*
X118822624Y-92803017D01*
X118825338Y-93525073D01*
X118826611Y-94337586D01*
X118826376Y-95227410D01*
X118824562Y-96181399D01*
X118821523Y-97084517D01*
X118796712Y-103218667D01*
X119481334Y-103218667D01*
X119481334Y-89841334D01*
X118733065Y-89841334D01*
X115854092Y-94603834D01*
G37*
X115854092Y-94603834D02*
X115331486Y-95469039D01*
X114813349Y-96328156D01*
X114309948Y-97164076D01*
X113831551Y-97959695D01*
X113388425Y-98697905D01*
X112990837Y-99361600D01*
X112649056Y-99933674D01*
X112373348Y-100397021D01*
X112173981Y-100734533D01*
X112157099Y-100763334D01*
X111902109Y-101198312D01*
X111678089Y-101579531D01*
X111498414Y-101884303D01*
X111376462Y-102089942D01*
X111325610Y-102173760D01*
X111325040Y-102174498D01*
X111323103Y-102094393D01*
X111321943Y-101858190D01*
X111321534Y-101479123D01*
X111321851Y-100970425D01*
X111322866Y-100345331D01*
X111324554Y-99617073D01*
X111326888Y-98798885D01*
X111329843Y-97904002D01*
X111333393Y-96945656D01*
X111337180Y-96014998D01*
X111363359Y-89841334D01*
X110676000Y-89841334D01*
X110676000Y-103218667D01*
X111078167Y-103215026D01*
X111480334Y-103211386D01*
X113978000Y-99055977D01*
X114481566Y-98217477D01*
X114994282Y-97362423D01*
X115502983Y-96512856D01*
X115994505Y-95690815D01*
X116455683Y-94918339D01*
X116873351Y-94217469D01*
X117234344Y-93610245D01*
X117525498Y-93118705D01*
X117604513Y-92984784D01*
X117909126Y-92469163D01*
X118186885Y-92001552D01*
X118425858Y-91601836D01*
X118614112Y-91289898D01*
X118739713Y-91085622D01*
X118789846Y-91009684D01*
X118798734Y-91082272D01*
X118806525Y-91311046D01*
X118813149Y-91682858D01*
X118818538Y-92184564D01*
X118822624Y-92803017D01*
X118825338Y-93525073D01*
X118826611Y-94337586D01*
X118826376Y-95227410D01*
X118824562Y-96181399D01*
X118821523Y-97084517D01*
X118796712Y-103218667D01*
X119481334Y-103218667D01*
X119481334Y-89841334D01*
X118733065Y-89841334D01*
X115854092Y-94603834D01*
G36*
X99500000Y-90518667D02*
G01*
X106019334Y-90518667D01*
X106019334Y-95768000D01*
X100505779Y-95768000D01*
X100532056Y-96085500D01*
X100558334Y-96403000D01*
X103288834Y-96425340D01*
X106019334Y-96447679D01*
X106019334Y-102541334D01*
X99330667Y-102541334D01*
X99330667Y-103218667D01*
X106696667Y-103218667D01*
X106696667Y-89841334D01*
X99500000Y-89841334D01*
X99500000Y-90518667D01*
G37*
X99500000Y-90518667D02*
X106019334Y-90518667D01*
X106019334Y-95768000D01*
X100505779Y-95768000D01*
X100532056Y-96085500D01*
X100558334Y-96403000D01*
X103288834Y-96425340D01*
X106019334Y-96447679D01*
X106019334Y-102541334D01*
X99330667Y-102541334D01*
X99330667Y-103218667D01*
X106696667Y-103218667D01*
X106696667Y-89841334D01*
X99500000Y-89841334D01*
X99500000Y-90518667D01*
D11*
X79500000Y-105500000D03*
X79500000Y-86750000D03*
X155500000Y-83000000D03*
X122750000Y-122750000D03*
X169250000Y-130500000D03*
M02*
